<svg viewBox="0 0 1921 1081" xmlns="http://www.w3.org/2000/svg" fill-rule="evenodd" clip-rule="evenodd" stroke-linejoin="round" stroke-miterlimit="1.414"><g transform="translate(-5909.49 .13)"><path d="M5910 0h1920v1080H5910z"/><clipPath id="a"><path d="M5910 0h1920v1080H5910z"/></clipPath><g clip-path="url(#a)"><path d="M7427.993 765.095c-10.996-15.713-21.397-30.56-27.574-41.08-23.432-39.977-25.333-45-16.136-90.982 8.467-42.37-3.19-81.956-15.526-123.85-3.716-12.624-7.517-25.554-10.893-38.976l-1.663-6.872c-67.77-283.485-319.627-346.233-518.985-348.982-3.597-.05-7.143-.068-10.69-.068-433.974 0-544.776 368.462-549.255 498.691-4.208 121.525 60.694 275.46 105.863 341.126 43.031 62.612 75.83 190.042 79.75 309.667 3.835 116.57-139.29 349.372-140.733 351.747-4.92 7.975-2.477 18.495 5.498 23.416 2.783 1.697 5.87 2.545 8.908 2.545 5.684 0 11.233-2.884 14.457-8.144 6.108-9.842 149.946-243.831 145.772-370.582-4.106-125.734-39.332-260.46-85.688-327.823-42.641-62.103-103.862-206.874-99.942-320.78.17-4.684 29.643-465.926 514.878-465.926 3.53 0 7.144.034 10.707.084 272.456 3.75 436.113 112.397 486.457 322.92l1.765 7.228c3.461 13.863 7.398 27.25 11.232 40.316 11.623 39.416 21.635 73.454 14.813 107.611-11.114 55.52-7.143 68.246 20.159 114.823 6.855 11.69 17.63 27.098 29.049 43.387 21.77 31.052 54.688 78.053 55.808 97.227 1.29 21.889-4.921 29.015-33.207 38.517-20.65 6.788-34.41 17.987-40.944 33.088-4.157 9.672-7.075 25.452 2.647 46.662 3.19 6.787 3.767 13.066 1.68 18.326-2.223 5.6-7.601 10.35-14.762 13.235l-19.887 7.975 12.285 17.477c12.845 18.325 12.845 23.925-.101 36.82-27.37 27.32-18.377 51.244-13.541 63.97l1.357 3.733c2.868 8.654 9.112 66.345-18.037 80.598-14.677 7.636-55.281 12.896-91.101 17.477-53.568 6.957-104.2 13.405-125.58 30.712-39.197 31.9-57.115 95.022-45.678 160.688 3.274 18.834-1.324 35.633-7.704 58.879-7.143 25.961-16.035 58.37-16.764 106.05-.17 9.333 7.313 16.968 16.68 16.968h.27c9.265 0 16.816-7.296 16.969-16.459.661-43.438 8.586-72.114 15.56-97.566 6.973-25.282 12.997-47.34 8.416-73.641-9.367-53.959 3.851-104.354 33.647-128.618 13.88-11.199 68.568-18.156 108.51-23.416 44.237-5.6 82.466-10.52 102.59-21.04 47.714-25.113 40.621-102.657 34.41-121.322a132.035 132.035 0 0 0-1.798-4.92c-3.936-10.52-6.108-16.29 5.786-28.168 24.18-24.094 22.534-45.813 13.32-64.648 7.5-5.939 13.218-13.574 16.68-22.398 3.886-9.671 6.651-25.452-2.393-44.965-3.597-7.805-4.377-14.253-2.324-19.004 3.156-7.296 12.895-11.708 20.531-14.423 28.76-9.502 59.219-23.755 56.334-72.623-1.544-26.81-26.623-64.479-61.882-114.687z" fill="#fff" fill-rule="nonzero"/><path d="M7080.16 759.758c-.64-3.04-.203-4.07 4.318-9.93 4.88-6.315 12.222-15.871 10.663-30.572-.92-8.637-3.554-18.848-7.966-29.402 13.158.202 28.576-.452 41.796-3.43 16.026-3.601 25.692-8.029 33.455-11.583 6.283-2.884 11.256-5.145 18.817-6.782 21.514-4.614 64.9-27.859 72.617-63.17 2.728-12.409 2.011-21.295.561-27.718 14.312-11.443 24.055-33.206 14.592-65.601-4.88-16.697-7.14-28.451-8.933-37.899-1.902-9.93-3.398-17.756-7-25.115-.685-1.434-1.746-4.334-3.258-8.325-2.962-7.794-7.296-19.175-13.002-32.099-.795-4.427-2.619-8.216-5.269-11.443-15.465-32.364-38.958-70.48-71.697-88.611-25.442-14.094-32.083-20.984-37.4-26.503-7.358-7.608-13.188-12.783-32.161-20.422l-20.204-8.216c-53.177-21.763-98.855-39.957-119.2-42.373-13.702-1.621-30.664-.873-47.049-.14-12.674.56-25.8 1.122-32.63.187-11.676-1.59-27 1.138-41.904 3.804-10.243 1.84-21.873 4.006-27.376 3.414-2.213-.203-4.723-.5-7.53-.842-18.333-2.151-49.03-5.784-91.682 2.619-35.576 7.031-49.965 18.708-59.46 26.44-2.01 1.621-4.77 3.866-5.659 4.116-8.278 2.307-79.834 23.088-106.524 60.145-23.042 16.618-65.695 79.273-66.147 79.96-4.88 7.295-12.893 22.558-21.39 38.74-8.23 15.683-17.569 33.455-22.34 40.486-12.892 18.989-28.747 65.867-33.299 79.757-1.06 3.243-2.572 6.86-4.24 10.944-8.029 19.534-20.033 49.794-14.39 92.806.078.265.032.56.125.826 1.466 10.726 3.71 22.012 7.748 34.375l6.844 21.233c3.087 9.65 5.924 18.303 8.7 26.534.077.218.14.42.217.64 13.72 40.595 25.334 64.229 52.023 72.647 14.608 4.677 25.91 4.053 34.968 3.586h.514c6.891 20.89 28.576 66.256 89.72 78.728 27.89 5.612 48.078 7.327 62.327 8.262 7.42 16.993 10.819 55.344 10.835 80.287 0 8.574 6.984 15.59 15.59 15.59 8.62 0 15.589-7.016 15.589-15.59 0-6.86-.296-28.529-3.367-51.134 4.193 2.183 8.792 3.43 13.78 3.43 3.119 0 6.393-.468 9.807-1.403 9.135-2.339 16.15-9.51 22.808-18.396-2.292 16.369-3.867 36.791-4.194 63.45-.14 8.73 6.75 12.004 15.356 12.004h.202c8.528 0 15.481-2.962 15.59-11.536.515-41.47 6.158-80.287 12.3-90.577 11.256-2.65 20.735-9.198 26.94-18.707 6.906-10.445 9.244-24.476 6.516-35.233-.047-.468-.016-.935-.094-1.403.265-.78 2.027-3.586 6.065-5.768 3.601-1.715 9.478-3.274 16.961 0 6.205 2.806 12.488 6.08 18.88 9.51 21.123 11.224 45.1 23.852 72.944 19.019 7.857-1.403 13.687-.312 21.061.935 16.962 2.806 36.137 6.08 75.22-15.59 57.012-31.646 85.635-47.548 78.916-78.883v-.078zm-174.948-518.17c14.452-.64 30.805-1.372 41.999-.047 17.788 2.104 76.155 25.988 111.045 40.252l20.376 8.294c14.17 5.69 16.728 8.34 21.358 13.142 6.423 6.673 15.23 15.777 44.742 32.146 13.703 7.592 25.66 20.407 35.919 34.983-3.04-1.652-5.69-3.336-7-5.113-13.984-18.957-29.418-28.108-45.413-27.142-12.082.686-21.217 6.922-27.406 12.97-7.016-3.023-14.53-4.582-22.044-4.13-1.216-2.26-2.728-5.675-3.929-8.403-6.485-14.748-16.307-37.057-42.435-50.277-22.153-11.193-33.097-10.242-43.215-8.122-3.398.67-4.77.982-13.687-5.706-22.933-17.164-48.422-9.619-67.005-4.131-5.846 1.73-14.498 4.271-16.322 4.256-11.708-8.559-.842-31.57-.406-32.474 4.288-.124 8.7-.296 13.423-.499zm-114.49 6.376c3.117.358 5.892.701 8.355.935 9.62.873 22.34-1.403 35.732-3.788 7.81-1.388 16.821-2.962 23.93-3.54-5.425 18.366-5.815 42.857 15.029 58.135 13.017 9.572 28.576 4.942 43.604.499 17.554-5.207 29.776-8.076 39.458-.81 16.977 12.674 26.705 13.718 38.662 11.286 4.459-.935 8.668-1.762 22.87 5.425 16.151 8.154 22.418 22.418 27.968 35 5.316 12.066 13.22 30.29 33.502 27.078 9.26-1.45 18.52 6.595 21.873 15.34 3.102 8.2.966 14.733-6.408 19.41-17.632 11.256-50.635 6.33-79.523-24.663-5.877-6.314-15.761-6.641-22.028-.78-6.298 5.862-6.657 15.73-.78 22.029 26.768 28.732 56.201 40.018 81.223 40.018 14.576 0 27.64-3.819 37.82-10.273 19.784-12.565 27.173-34.859 18.833-56.825-1.512-3.975-3.57-7.592-5.846-11.022 1.637-1.184 3.367-2.135 5.082-2.229 4.973.016 11.583 5.223 18.474 14.545 9.15 12.394 25.426 18.396 39.785 23.697 5.674 2.089 13.656 5.082 17.304 7.436 6.735 14.67 11.77 27.906 14.997 36.433 2.011 5.285 3.492 9.104 4.397 10.96 1.777 3.616 2.821 9.057 4.38 17.273 1.824 9.572 4.334 22.667 9.635 40.783 5.752 19.69.405 28.435-3.804 32.13-4.24-1.777-10.648-9.089-13.095-29.636-2.48-20.906-10.336-36.511-23.338-46.395-16.9-12.861-35.716-10.383-37.774-10.086-8.512 1.31-14.343 9.275-13.033 17.787 1.31 8.512 9.26 14.312 17.788 13.033.062 0 7.795-.748 14.155 4.1 6.018 4.568 9.79 13.065 11.24 25.256 2.822 23.743 10.726 40.58 23.51 49.996 2.884 2.12 5.69 3.523 8.418 4.661 1.154 3.243 2.385 7.437.265 17.087-3.85 17.6-31.772 35.716-48.718 39.348-10.897 2.323-18.193 5.675-25.255 8.902-7.436 3.414-14.467 6.625-27.329 9.51-18.193 4.084-43.37 2.603-54.766 1.605-7-8.278-15.278-16.088-25.334-22.698a85.902 85.902 0 0 0-1.98-1.279c22.715-8.356 45.632-24.647 54.627-54.08 2.525-8.232-2.12-16.946-10.352-19.456-8.262-2.557-16.961 2.135-19.456 10.351-7.39 24.133-30.898 33.908-48.577 37.618 6.438-11.755 11.583-26.004 5.332-39.582-3.586-7.842-12.878-11.365-20.72-7.748-7.81 3.601-11.27 12.768-7.67 20.578.843 4.147-7.14 16.728-10.133 21.467-.92 1.434-1.73 2.806-2.572 4.194-10.71-1.2-22.044-.343-34.625 4.147-11.162 3.944-23.712 2.12-36.043-2.729 5.456-.608 10.46-3.928 12.706-9.353 2.463-5.893 1.013-12.457-3.134-16.79-.203-2.51.031-9.573 5.472-24.258 16.182-43.807-12.331-109.221-38.818-127.103-11.552-7.795-27.5-9.743-41.547-11.443-5.628-.686-13.47-1.637-18.068-2.93 12.69-33.643-.125-61.673-35.358-77.045-2.073-.92-4.162-2.479-6.064-4.552-20.22-22.06-50.838-23.338-72.165-14.826-9.104 3.633-15.854 5.238-19.783 5.394 1.7-2.104 3.866-4.443 5.44-6.142 8.435-9.167 25.973-28.233 9.635-46.816-6.47-7.343-14.639-12.176-23.01-15.605 5.394-2.152 12.082-4.178 20.313-5.971 21.607 5.113 29.2 18.926 33.72 27.329 2.308 4.302 4.506 8.465 9.432 11.1 14.483 7.7 27.579 2.416 35.405-.842 2.291-.936 5.705-2.011 6.843-2.011h.078c.983 0 1.497 1.699 2.807 7.358 2.167 9.338 5.44 23.073 22.09 33.409 3.274 2.026 7.468 6.625 11.895 11.474 12.519 13.734 31.538 34.624 65.773 34.624 10.024 0 21.342-1.777 34.173-6.08 8.169-2.728 12.58-11.552 9.852-19.72-2.728-8.17-11.552-12.613-19.72-9.853-37.463 12.487-51.836-3.274-67.036-19.97-5.94-6.517-11.552-12.675-18.52-16.993-5.426-3.352-6.361-6.595-8.139-14.265-1.793-7.78-4.52-19.518-16.68-27.11-14.11-8.793-27.423-3.274-35.358.015-3.071 1.278-5.02 2.011-6.345 2.339-2.23-4.1-5.69-10.009-10.99-16.183 14.731-.046 26.689 1.294 36.011 2.386zM6699.1 884.865c-3.82 5.456-10.196 14.654-12.13 15.902-.654.311-1.153.311-1.418.467-.732-1.091-2.136-3.897-4.115-10.6-5.613-19.176-22.418-20.267-41.859-21.514-14.327-.936-33.97-2.183-63.31-8.263-28.903-5.768-45.849-21.514-55.624-36.012 24.648 7.015 53.785-2.65 74.254-9.51 4.817-1.715 9.089-3.118 12.565-4.053 21.67-5.924 40.237-6.86 48.453-2.65 6.267 3.117 18.038 6.235 38.289 11.536 18.879 4.833 56.886 14.654 65.897 20.578-.047 2.65-.733 5.768-2.557 8.575-1.98 2.962-4.88 3.897-8.839 4.52-1.263.157-2.93.468-4.817 1.092-2.198.156-4.552.156-7.203.156-16.525-1.091-27.188 14.81-37.586 29.776zm360.667-154.057c-5.175 6.719-13.843 17.96-10.086 35.482.577 2.697-2.152 6.236-6.86 10.29 2.744-17.602-1.107-26.69-5.3-34.47-2.074-3.85-2.775-5.144-1.076-12.58 3.57-15.575.328-30.666-9.104-42.498-10.586-13.267-28.904-21.826-46.707-21.826-8.621 0-15.59 6.969-15.59 15.59 0 8.621 6.969 15.59 15.59 15.59 8.403 0 17.585 4.162 22.34 10.086 3.539 4.443 4.552 9.713 3.087 16.104-3.991 17.414-.359 26.175 4.038 34.329 2.15 3.975 3.32 6.158 1.933 14.982-3.477 21.934-3.664 22.402-26.674 39.862-28.904 15.902-40.643 13.875-54.097 11.693-8.73-1.56-18.551-3.274-31.709-.936-17.289 3.118-34.594-6.08-52.88-15.901-7.156-3.742-14.187-7.483-21.124-10.601-21.873-9.354-41.718-2.495-53.005 7.171-2.308 2.027-4.21 4.21-5.956 6.548-13.89-6.08-34.406-12.004-64.556-19.8-12.66-3.273-28.39-7.357-31.944-9.15-15.23-7.733-36.105-6.766-54.626-3.32.733-4.865-.561-9.947-4.396-13.595-.125-.125-12.394-12.456-7.343-30.899 1.668-3.68 3.102-7.795 4.614-12.643 1.435-4.63 4.256-13.781 6.61-17.305 4.303-.015 14.11 1.855 20.797 3.212 8.7 1.777 18.614 3.757 28.218 4.178 7.405 19.471 23.4 34.578 46.52 43.137 4.879 1.808 17.428 6.017 28.45 6.017 5.628 0 10.866-1.091 14.483-4.193 6.548-5.582 7.327-15.434 1.715-21.966-3.929-4.615-9.93-6.377-15.48-5.036-4.911-.436-35.218-4.225-45.647-26.72 2.572-2.401 4.91-5.208 6.688-8.902 2.12-4.412 3.383-10.04 4.178-15.917 12.082 6.251 25.13 9.12 39.832 5.737 30.758-7.11 68.532-12.971 88.3 4.723.062.063.155.078.218.14.078.063.093.157.171.219 23.775 19.861 13.86 42.622 12.581 45.288-3.82 7.623-.78 16.946 6.829 20.843a15.489 15.489 0 0 0 7.093 1.715c5.659 0 11.13-3.087 13.89-8.48 8.216-16.042 14.545-54.112-20.391-83.312-.172-.14-.374-.156-.546-.296-30.275-26.222-75.142-20.391-115.16-11.162-17.399 3.975-33.55-11.77-58.182-38.304-6.267-6.75-12.674-13.516-19.378-20.127-19.923-19.674-19.003-40.283-17.71-69.187.39-9.104.811-17.897.546-27.484-1.231-43.807-29.542-54.704-44.352-54.704h-.14c-8.56 0-15.513 5.83-15.59 14.389-.078 8.62 6.843 14.592 15.449 14.654.125 0 12.737.39 13.407 25.49.25 8.807-.156 17.397-.514 25.77-.905 20.157-1.684 40.735 5.752 60.705-.078.39-.125.593-.202.998-4.677 24.96-11.646 41.562-30.416 41.562-5.565 0-12.129-1.902-19.082-3.928-14.373-4.21-32.208-9.401-51.898-.53-8.09 3.616-14.015 10.086-17.164 18.692-8.808 24.257 7.732 60.581 11.13 67.612a15.597 15.597 0 0 0 14.032 8.793c2.276 0 4.583-.5 6.781-1.56 7.748-3.74 10.99-13.063 7.265-20.812-9.198-19.097-12.97-40.61-9.276-44.305 8.777-3.929 17.273-1.793 30.4 2.026 8.746 2.541 17.788 5.176 27.796 5.176 30.884 0 45.912-20.454 53.567-39.598 5.721 5.737 11.302 11.661 16.68 17.46 5.831 6.283 11.724 12.566 17.757 18.49.686 8.216.296 21.436-1.263 25.115-4.255 2.526-22.433-1.154-31.132-2.93-14.78-3.025-27.594-5.644-38.008-2.183-15.356 5.066-20.952 23.088-25.442 37.57-1.076 3.446-2.541 8.154-3.305 9.542-.328.576-.359 1.216-.593 1.808-.249.592-.686 1.045-.857 1.684-.203.701-.187 1.325-.359 2.026-.03.203-.078.39-.109.593-7.342 30.446 9.136 51.976 14.608 58.01-1.014.342-1.933.638-2.993.966-17.757 6.08-47.471 16.057-61.533 6.86-18.63-12.176-32.723-11.49-45.1-10.805-7.874.421-14.718.764-23.9-2.182-12.674-4.038-20.36-19.191-30.977-50.121.811-4.895 2.79-10.29 4.319-11.225 0 .016 1.418-.218 4.88 1.357 7.856 3.601 17.101.171 20.671-7.64 3.601-7.825.187-17.086-7.639-20.671-15.652-7.218-26.986-3.913-33.751.14-.281.172-.484.405-.749.577l-4.35-13.454c-2.275-6.953-3.897-13.516-5.144-19.814 7.982 9.868 21.405 17.538 36.59 17.538h.794c16.198 0 30.197-8.933 38.382-20.423 4.926-6.906 8.559-18.349 12.394-28.342 11.084-28.825 17.881-40.361 31.32-37.181 8.418 1.933 16.758-3.15 18.707-11.552 1.933-8.387-3.29-16.51-11.676-18.458-42.108-9.681-57.947 32.224-67.457 56.965-2.962 7.716-6.033 16.727-8.668 20.406-2.307 3.228-7.436 7.406-13.423 7.406h-.343c-6.64 0-11.443-4.428-12.752-6.158-9.245-12.3-19.004-16.822-26.16-17.196 1.466-18.801 6.704-33.69 11.49-45.506 4.49 4.91 10.492 8.699 18.77 8.699 1.84 0 3.773-.172 5.815-.561 24.756-4.708 27.703-26.472 29.854-42.389 1.73-12.783 3.54-26.003 12.986-38.163 20.953-26.924 37.307-26.347 52.257-23.478 10.99 2.167 17.866-2.557 20.953-5.566 10.351-10.07 7.748-25.816 4.988-42.513-1.029-6.298-2.322-14.155-1.902-17.492 2.152-16.79 25.801-39.769 36.293-43.464 14.28 25.271 31.99 27.579 35.498 27.766l3.071-.078c72.508-3.072 82.922 7.498 84.372 10.834 5.83 13.454 13.796 19.706 20.188 24.773 7.577 6.033 13.579 10.647 18.926 31.88 6.766 26.908 1.668 36.278-.047 38.585-.67.889-2.432 2.728-7.748 2.946-8.605.375-15.262 6.58-14.888 15.185.359 8.387 7.25 12.768 15.543 12.768h.702c12.97 0 24.101-4.116 31.382-13.86 10.725-14.42 12.518-34.188 5.285-62.966-7.328-29.106-17.835-39.333-29.777-48.827-5.129-4.085-8.216-6.532-10.944-12.815-12.83-29.605-62.156-31.803-113.602-29.652-1.668-.748-6.641-3.679-11.926-13.937-5.612-10.897-16.68-16.057-29.433-13.797-26.191 4.615-60.192 42.28-63.856 70.684-.997 7.857.484 16.93 2.074 26.518.514 3.102 1.216 7.312 1.637 11.006-21.062-2.213-47.112 2.183-73.677 36.324-14.623 18.802-17.305 38.647-19.27 53.13-.576 4.24-1.371 10.133-3.008 13.579-.826-1.918-1.621-4.163-2.167-5.66-.966-2.696-2.198-6.017-3.897-9.213 7.576-20.906 15.901-40.923 21.7-49.482 5.769-8.496 14.686-25.504 24.149-43.495 7.748-14.748 15.761-29.994 19.721-35.934 16.665-24.944 49.575-67.176 58.648-72.134l5.847-5.378c13.828-21.623 60.145-41.126 88.986-49.373 8.293-.202 27.36 1.341 37.836 9.931-1.778 2.37-4.646 5.472-6.58 7.577-7.794 8.465-17.49 19.004-16.072 32.52.561 5.331 3.165 13.064 12.378 19.596 17.757 12.628 40.393 3.57 52.537-1.294 11.443-4.552 27.454-4.147 37.618 6.938 4.88 5.331 10.461 9.384 16.572 12.035 23.806 10.398 24.492 22.963 18.225 38.631-4.849 12.066-2.245 20.734.795 25.863 8.044 13.595 25.863 15.777 43.12 17.866 10.056 1.216 22.543 2.744 27.875 6.345 16.915 11.412 37.384 62.359 27.017 90.452-11.006 29.76-7.842 44.976-2.292 52.895a147.312 147.312 0 0 1-23.82-18.318c-12.582-11.957-23.557-17.18-34.033-19.643 22.371-31.912 13.049-55.686 11.63-58.85-3.445-7.608-12.113-10.789-19.861-7.749-7.748 3.103-11.552 12.082-8.793 19.97.265.749 5.753 18.054-22.465 44.462-7.358 1.139-15.511 3.991-24.46 7.28-15.403 5.644-34.578 12.597-45.569 7.453-4.957-2.339-8.777-7.499-11.708-15.808-8.699-24.71-9.431-47.33-10.04-65.508-.716-21.763-1.527-46.457-25.192-50.9-8.559-1.606-16.603 3.99-18.193 12.44-1.466 7.78 3.133 15.294 10.46 17.694 1.185 4.163 1.528 14.218 1.762 21.795.64 19.222 1.497 45.584 11.786 74.83 5.752 16.338 15.122 27.64 27.827 33.643 22.855 10.757 48.765 1.278 69.593-6.36 6.594-2.417 16.65-6.112 19.643-5.94 3.227.156 6.251.25 9.15.327 16.12.421 23.479.624 36.995 13.47 35.841 34.016 76.327 47.58 108.302 36.105 10.835-3.85 19.783-4.037 29.87-.795l.545.156c.047.016.125.016.187.031 10.32 3.477 21.92 10.554 37.961 21.093 27.703 18.224 37.696 47.284 39.24 61.564.171 2.026-.484 3.242-4.397 8.325z" fill="#fff" fill-rule="nonzero"/><path d="M6922.423 390.235c-.156-7.03-5.067-13.313-12.238-14.888-8.371-1.824-16.728 3.477-18.567 11.88-1.325 6.017-2.432 27.032 38.569 44.898 25.941 11.318 25.941 11.35 25.676 44.29-.343 43.308 36.885 47.221 66.802 50.292 30.696 3.165 65.492 6.907 88.643 40.736 9.276 13.579 23.197 17.726 33.362 20.516 3.476.967 8.73 3.04 9.712 3.913 0 0 .28 1.965.28 3.757-.046 8.606 6.891 18.287 15.513 18.287h.062c8.59 0 15.558-9.572 15.59-18.162.109-26.83-21.374-35.357-32.91-38.522-8.091-2.23-13.19-3.773-15.886-7.717-31.289-45.771-77.465-50.51-111.186-53.987-35.576-3.648-38.912-6.641-38.803-18.957.359-47.034-5.02-55.905-44.415-73.069-14.857-6.47-19.16-11.677-20.204-13.267zM6926.18 721.75c-5.58-6.532-15.434-7.296-21.981-1.7-6.532 5.582-7.312 15.435-1.7 21.982 6.735 7.873 13.486 18.459 15.013 23.307-3.694 8.044-1.122 14.062.92 17.117 6.111 9.183 16.291 7.468 21.155 6.688 7.094-1.09 10.96-1.247 13.782 1.56 3.024 2.805 6.921 4.364 10.834 4.364 4.085 0 8.138-1.559 11.21-4.832 5.986-6.127 5.814-16.011-.36-21.997-8.885-8.606-19.112-10.85-27.5-11.007-3.413-12.238-12.518-25.115-21.373-35.482z" fill="#fff" fill-rule="nonzero"/><path d="M6932.08 209.61c6.65.02 13.01.28 18.79.97 20.35 2.41 66.03 20.61 119.2 42.37l20.21 8.21c18.97 7.64 24.8 12.82 32.16 20.43 5.32 5.52 11.96 12.41 37.4 26.5 32.74 18.13 56.23 56.25 71.7 88.61 2.65 3.23 4.47 7.02 5.27 11.44 5.7 12.93 10.03 24.31 13 32.1 1.51 3.99 2.57 6.89 3.26 8.33 3.6 7.36 5.09 15.18 6.99 25.11 1.8 9.45 4.06 21.21 8.94 37.9 9.46 32.4-.28 54.16-14.6 65.6 1.46 6.43 2.17 15.31-.56 27.72-7.71 35.31-51.1 58.56-72.61 63.17-7.56 1.64-12.54 3.9-18.82 6.78-7.76 3.56-17.43 7.98-33.46 11.59-13.21 2.97-28.63 3.63-41.79 3.43 4.41 10.55 7.05 20.76 7.97 29.4 1.55 14.7-5.79 24.26-10.67 30.57-4.52 5.86-4.95 6.89-4.32 9.93v.08c6.72 31.38-21.9 47.27-78.91 78.88-39.08 21.67-58.26 18.43-75.22 15.53-7.38-1.25-13.21-2.25-21.063-.87-27.843 4.89-51.82-7.8-72.944-19.04-6.392-3.38-12.674-6.75-18.879-9.43-7.483-3.32-13.361-1.84-16.962 0-4.037 2.07-5.799 4.86-6.064 5.77.078.43.047.84.093 1.28 2.729 10.88.39 24.77-6.516 35.35-6.205 9.51-15.683 16.05-26.939 18.6-6.142 10.34-11.786 49.09-12.3 90.62-.109 8.55-7.062 11.56-15.59 11.56h-.203c-8.605 0-15.496-3.34-15.356-11.99.328-26.66 1.902-47.19 4.194-63.42-6.657 8.81-13.672 16.06-22.808 18.36-3.414.88-6.688 1.31-9.806 1.31-4.988 0-9.587-1.2-13.781-3.41 3.071 22.63 3.368 44.3 3.368 51.2 0 8.6-6.969 15.59-15.59 15.59-8.606 0-15.59-6.97-15.59-15.59-.015-25.03-3.414-63.34-10.835-80.24-14.249-1-34.437-2.76-62.327-8.41-61.143-12.38-82.828-57.69-89.719-78.6h-.514c-9.058.48-20.36 1.06-34.968-3.59-26.689-8.51-38.304-32.09-52.023-72.69-.019-.06-.038-.11-.056-.16l-.106-.32c-.018-.05-.036-.11-.056-.16-2.775-8.23-5.612-16.88-8.699-26.53l-6.844-21.24c-4.038-12.36-6.283-23.65-7.748-34.37-.093-.27-.047-.56-.125-.83-5.643-43.01 6.361-73.27 14.39-92.8 1.668-4.09 3.18-7.71 4.24-10.95 4.552-13.89 20.407-60.77 33.3-79.76 4.77-7.03 14.108-24.8 22.34-40.48 8.496-16.18 16.509-31.45 21.389-38.74.452-.69 43.105-63.34 66.147-79.96 26.689-37.06 98.246-57.84 106.524-60.15.889-.24 3.648-2.49 5.659-4.11 9.494-7.73 23.883-19.41 59.459-26.44 42.653-8.4 73.35-4.77 91.683-2.62 2.806.34 5.316.64 7.53.84 5.503.59 17.133-1.57 27.375-3.41 14.904-2.67 30.229-5.4 41.905-3.81 6.829.94 19.955.38 32.63-.18 9.215-.42 18.615-.83 27.515-.83h.74z" fill="#fff" fill-rule="nonzero"/><g font-family="'Boogaloo-Regular','Boogaloo',cursive" font-size="82" stroke="#fff"><text x="6699.57" y="1654.2" transform="translate(-136.064 -1217.57)">race</text><text x="6615.85" y="1736.2" transform="translate(-136.064 -1217.57)">conditions</text></g><text x="6591.61" y="1654.2" font-family="'Boogaloo-Regular','Boogaloo',cursive" font-size="82" stroke="#fff" transform="translate(101.302 -1317.59)">composition</text><g font-family="'Boogaloo-Regular','Boogaloo',cursive" font-size="82" stroke="#fff"><text x="6644.1" y="1654.2" transform="translate(291.993 -1179.37)">one-way</text><text x="6639.5" y="1736.2" transform="translate(291.993 -1179.37)">dataﬂow</text></g><g font-family="'Boogaloo-Regular','Boogaloo',cursive" font-size="82" stroke="#fff"><text x="6613.14" y="1654.2" transform="translate(61.223 -975.47)">separation</text><text x="6600.18" y="1736.2" transform="translate(61.223 -975.47)">of concerns</text></g><g><text x="6668.28" y="1654.2" font-family="'Boogaloo-Regular','Boogaloo',cursive" font-size="82" stroke="#fff" transform="translate(-237.226 -949.236)">SOLID</text></g></g></g></svg>