<svg viewBox="0 0 1920 1081" xmlns="http://www.w3.org/2000/svg" fill-rule="evenodd" clip-rule="evenodd" stroke-linecap="round" stroke-linejoin="round" stroke-miterlimit="2.566"><g transform="translate(-5910 .8)"><path fill="#fff" d="M5910 0h1920v1080H5910z"/><clipPath id="a"><path d="M5910 0h1920v1080H5910z"/></clipPath><g clip-path="url(#a)"><path d="M6870 202.7l279.73 484.5h-559.456L6870 202.7z" fill="none" stroke="#8c8c8c" stroke-width="8" stroke-dasharray="0,14.4,0,0"/><path d="M392 11958h886" fill="none" stroke="#000" stroke-width="20.35" transform="matrix(0 .22883 -.69586 0 15191 -89.702)"/><path d="M392 11958h886" fill="none" stroke="#000" stroke-width="14.76" transform="matrix(.7678 .4433 -.24232 .4197 9746.37 -4505.36)"/><path d="M392 11958h886" fill="none" stroke="#000" stroke-width="12.59" transform="matrix(-.7678 .4433 -.39239 -.67964 11583.4 8640.57)"/><text x="247.984" y="11558.5" font-family="'Boogaloo-Regular','Boogaloo',cursive" font-size="57.594" transform="translate(6423.66 -15144.1) scale(1.35874)">Browser</text><g><text x="281.647" y="11558.5" font-family="'Boogaloo-Regular','Boogaloo',cursive" font-size="57.594" transform="translate(5653.08 -21738.8) scale(1.89257)">User</text></g><g><text x="216.711" y="11558.5" font-family="'Boogaloo-Regular','Boogaloo',cursive" font-size="57.594" transform="translate(6779.64 -21737.8) scale(1.89257)">runtime JS</text></g><g><text x="271.885" y="11558.5" font-family="'Boogaloo-Regular','Boogaloo',cursive" font-size="57.594" transform="translate(6251.29 -20859.1) scale(1.89257)">Reste</text></g></g></g></svg>