<svg viewBox="0 0 1921 1080" xmlns="http://www.w3.org/2000/svg" fill-rule="evenodd" clip-rule="evenodd" stroke-linejoin="round" stroke-miterlimit="1.414"><path d="M.13 0h1920v1080H.13z"/><path d="M406.26 212.13c53.43-12.07 111.24-.35 165.49-.12 62.4.27 124.91-4.66 187.14-6.77 50.57-1.71 99.7 1.55 150.38-2.8 81.06-6.95 162.71 3.72 243.83 4.44 77.9.68 155.97-8.61 233.87-8.25 22.6.11 132.54-4.87 143.4 13.26 12.75 21.27-1.28 68.19-1.77 91.39-1.88 87.81-14.02 175.22-11.14 263.11 2.47 75.5-1.84 150.97 1.16 226.37.69 17.41 5.95 74.05-7.9 87.27-14.36 13.72-42.79 9.11-60.54 7.93-55.08-3.65-109.15-10.08-164.51-12.35-216.27-8.86-432.63-1.58-648.98-2.66-61.63-.3-123.2.12-184.64-3.54-13.64-.81-49.14 6.98-58.88-4.74-22.72-27.33-7.29-134.86-7.57-169.87-.63-79.62 5.01-159.39 3.91-238.88-1.13-81.85-5.88-160.38 6.26-241.67" fill="none" stroke="#fff" stroke-width="19.8" stroke-linecap="round" stroke-miterlimit="1.5" stroke-dasharray="0,.99,0,0"/><path d="M465.04 276.18c-2.24 0-4.69-1.04-6.76.33-7.11 4.75-9.98 22.2-5.4 29.06 1.62 2.44 6.21 3.08 8.78 3.72 12.52 3.13 31.26-20.58 13.18-31.42-11.94-7.17-18.63 13.9-12.84 18.24 5.35 4.01 14.95-5.48 11.49-9.8-5.2-6.49-11.38 4.51-8.11 7.78 2.58 2.58 6.63-3.57 6.08-5.75-.75-2.99-7.43-2.04-7.43 1.02M465.04 785.552c-2.24 0-4.69-1.04-6.76.33-7.11 4.75-9.98 22.2-5.4 29.06 1.62 2.44 6.21 3.08 8.78 3.72 12.52 3.13 31.26-20.58 13.18-31.42-11.94-7.17-18.63 13.9-12.84 18.24 5.35 4.01 14.95-5.48 11.49-9.8-5.2-6.49-11.38 4.51-8.11 7.78 2.58 2.58 6.63-3.57 6.08-5.75-.75-2.99-7.43-2.04-7.43 1.02M1441.49 785.552c-2.24 0-4.69-1.04-6.76.33-7.11 4.75-9.98 22.2-5.4 29.06 1.62 2.44 6.21 3.08 8.78 3.72 12.52 3.13 31.26-20.58 13.18-31.42-11.94-7.17-18.63 13.9-12.84 18.24 5.35 4.01 14.95-5.48 11.49-9.8-5.2-6.49-11.38 4.51-8.11 7.78 2.58 2.58 6.63-3.57 6.08-5.75-.75-2.99-7.43-2.04-7.43 1.02M1441.49 276.18c-2.24 0-4.69-1.04-6.76.33-7.11 4.75-9.98 22.2-5.4 29.06 1.62 2.44 6.21 3.08 8.78 3.72 12.52 3.13 31.26-20.58 13.18-31.42-11.94-7.17-18.63 13.9-12.84 18.24 5.35 4.01 14.95-5.48 11.49-9.8-5.2-6.49-11.38 4.51-8.11 7.78 2.58 2.58 6.63-3.57 6.08-5.75-.75-2.99-7.43-2.04-7.43 1.02" fill="none" stroke="#fff" stroke-width="19.8" stroke-linecap="round" stroke-miterlimit="1.5" stroke-dasharray="0,.99,0,0"/><g><text x="2348.02" y="1987.51" font-family="'Boogaloo-Regular','Boogaloo',cursive" font-size="90" fill="#fff" transform="translate(-1676.97 -1323.102)">Fullstack therapist</text><text x="2250.92" y="1543.7" font-family="'Boogaloo-Regular','Boogaloo',cursive" font-size="123.176" fill="#fff" transform="translate(-1670.17 -1041.093)">Dr<tspan x="2339.85" y="1543.7">.</tspan> Sigma FRAUD</text></g></svg>