<svg viewBox="0 0 1921 1080" xmlns="http://www.w3.org/2000/svg" fill-rule="evenodd" clip-rule="evenodd" stroke-linejoin="round" stroke-miterlimit="1.414"><g transform="translate(-5909.87)"><path d="M5910 0h1920v1080H5910z"/><clipPath id="a"><path d="M5910 0h1920v1080H5910z"/></clipPath><g clip-path="url(#a)"><path d="M6746.944 1145.12c-54.236-77.08-44.426-147.33-25.586-236.34 2.833-13.38 15-80.85 28.214-79.95 37.243 2.55 71.158 62.72 89.415 90.72 4.594 7.04 21.652 39.43 31.113 38.04 19.544-2.88 32.768-31.9 40.747-47.34 12.195-23.58 35.673-48.85 62.143-56.95 36.73-11.23 44.23 35.25 48.42 61.36 6.31 39.35 9.85 78.97 15.08 118.45 4.22 31.91 11.77 64.61 10.23 96.98" fill="none" stroke="#fff" stroke-width="35" stroke-linecap="round" stroke-miterlimit="1.5" stroke-dasharray="0,1.75,0,0"/><path d="M6769.675 655.051c16.792-26.666 59.507-33.37 88.729-34.843 53.736-2.713 103.163 23.756 111.419 87.508 1.427 11.04-2.65 21.444-6.602 31.519-17.955 45.843-77.12 51.598-117.817 43.044-9.656-2.03-63.946-8.1-72.29-34.396-7.2-22.69 13.237-36.647 31.49-41.469 41.923-11.063 60.954-14.897 104.486-8.522 10.906 1.599 23.224 2.438 33.15 7.644 32.036 16.818 18.825 51.19 25.913 78.154" fill="none" stroke="#fff" stroke-width="34.999992" stroke-linecap="round" stroke-miterlimit="1.5" stroke-dasharray="0,2.23,0,0"/><path d="M7121.64 291c13.37-19.31 33.42-35.38 58.1-35.86 13.94-.28 37.85 21.87 41.78 5.55 2.53-10.49-7.36-24.49-11.49-33.42-6.38-13.79-12.98-27.65-16.93-42.36-4.43-16.51-1.01-56.11-25.59-57.29-22.17-1.06-40.48 36.79-60.05 33.37-4.67-.82-6.35-7.08-9.22-10.12-18.98-20.18-25.22-47.1-2.89-69.22 32.9-32.57 101.68-16.49 128.39 16.12 18.41 22.47 26.15 52.19 43.11 75.77 13.58 18.87 30.08 36.09 39.81 57.43 8.27 18.13 27.7 65.95 18.47 84.54-9.68 19.51-27.39 23.22-44.03 34.26-29.58 19.62-67.73 71.65-106.6 69-27.64-1.89-28.63-33.56-35.25-54.91-7.8-25.15-28.8-48.66-16.69-75.88" fill="#fff" stroke="#fff" stroke-width="12" stroke-linecap="round" stroke-miterlimit="1.5" stroke-dasharray="0,.6,0,0"/><path d="M1005.42 1818.63c-14.258-55.23-20.817-89.68-3.87-157.91 7.91-31.83 9.64-64.45 32.28-76.45 57.93-30.7 121.07-21.83 157.2 38.05M992.152 1724.36c4.636-71.85 94.868-61.54 129.918-16.28" fill="none" stroke="#fff" stroke-width="36.98" stroke-linecap="round" stroke-miterlimit="1.5" stroke-dasharray="0,1.85,0,0" transform="matrix(.8895 0 0 1 6033.546 -1250.948)"/><path d="M789.129 1632.17c36.341-57.76 145.214-76.82 179.75-9.79 13.428 26.06-4.203 58.86-7.219 85.74-3.964 35.32 4.632 71.21 13.545 105.08" fill="none" stroke="#fff" stroke-width="36.13" stroke-linecap="round" stroke-miterlimit="1.5" stroke-dasharray="0,1.81,0,0" transform="matrix(.93629 0 0 1 5944.563 -1253.85)"/><path d="M963.863 1761.2c9.85 51.61-50.361 56.93-94.016 54.92-16.201-.74-38.533 1.66-49.925-10.79-17.837-19.48-29.383-45.28-19.768-66.31 16.925-37.02 60.129-58.63 104.334-51.71 29.035 4.55 58.786 3.76 55.96 37.52" fill="none" stroke="#fff" stroke-width="36.13" stroke-linecap="round" stroke-miterlimit="1.5" stroke-dasharray="0,1.81,0,0" transform="matrix(.93629 0 0 1 5944.563 -1253.85)"/><g><path d="M6447.504 361.66c5.839 6.67 13.866 11.1 20.311 17.12 7.552 7.07 12.364 15.61 20.693 22.3 22.133 17.79 56.316 22.7 83.498 27.05 7.061 1.12 44.958 5.57 49.29 1.17 14.767-14.98 4.122-46.63 10.906-65.63 11.698-32.76 38.266-45.83 64.833-64.56l.146-3.02c-32.633-8.71-55.089 10.79-70.179 8.41-17.046-2.69-31.219-26.42-52.497-29.71-10.289-1.59-35.84 11.47-37.661 9.26-6.411-7.79-5.958-20.54-4.289-29.92 3.192-17.94 8.162-35.71 9.12-53.99.711-13.56-3.391-28.92-.24-42.09 1.386-5.8 9.928-7.13 14.995-8.09 26.017-4.91 44.995 33.23 54.428 29.89 7.417-2.62 3.678-23.19 3.966-28.86 1.178-23.19 11.354-53.41-18.329-62.52-17.428-5.34-50.844-6.01-67.046 3.31-36.016 20.74-75.069 109.45-94.159 147.75-7.876 15.8-12.122 31.56-16.796 48.47-9.411 34.05-11.318 52.31 25.623 71.59" fill="#fff" stroke="#fff" stroke-width="12" stroke-linecap="round" stroke-miterlimit="1.5" stroke-dasharray="0,.6,0,0"/></g><g><path d="M6870.432 180.363c17.32-2.31 34.646-4.397 51.931-6.988 11.47-1.727 29.876-7.577 41.148-3.314 29.669 11.232 12.254 52.888-3.708 67.925-52.734 49.685-184.295 50.215-192.762-40.044-6.866-73.187 66.364-133.002 136.126-121.01 14.107 2.425 27.599 8.166 39.979 15.269 21.113 12.112 37.222 29.564 47.812-8.377" fill="none" stroke="#fff" stroke-width="34.998267199999994" stroke-linecap="round" stroke-miterlimit="1.5" stroke-dasharray="0,1.97,0,0"/></g></g></g></svg>