<svg viewBox="0 0 1921 1081" xmlns="http://www.w3.org/2000/svg" fill-rule="evenodd" clip-rule="evenodd" stroke-linejoin="round" stroke-miterlimit="1.414"><path fill="#fff" d="M.502.86h1920v1080H.502z"/><path d="M1387.06 875.652l1.019.271.941.441.851.6.748.738.593.857.452.95.27 1.008.09 1.042v127.303l-.09 1.042-.27 1.01-.452.947-.593.858-.748.74-.85.6-.942.442-1.019.27-1.044.093H302.89l-1.045-.093-1.006-.27-.954-.442-.85-.6-.736-.74-.606-.858-.438-.946-.271-1.011-.09-1.042V881.56l.09-1.042.27-1.008.44-.95.605-.857.735-.737.851-.6.954-.442 1.006-.27 1.045-.093h1083.125l1.044.092zM308.887 887.56v115.303H1380.02V887.56H308.887zM1387.06 608.085l1.019.271.941.441.851.6.748.738.593.857.452.95.27 1.008.09 1.042v127.303l-.09 1.042-.27 1.01-.452.947-.593.858-.748.74-.85.6-.942.442-1.019.27-1.044.093H302.89l-1.045-.093-1.006-.27-.954-.442-.85-.6-.736-.74-.606-.858-.438-.946-.271-1.011-.09-1.042V613.992l.09-1.042.27-1.008.44-.95.605-.857.735-.737.851-.6.954-.442 1.006-.27 1.045-.093h1083.125l1.044.092zM308.887 619.993v115.303H1380.02V619.993H308.887zM1387.06 340.518l1.019.271.941.441.851.6.748.738.593.857.452.95.27 1.008.09 1.042v127.303l-.09 1.042-.27 1.01-.452.947-.593.858-.748.74-.85.6-.942.442-1.019.27-1.044.093H302.89l-1.045-.093-1.006-.27-.954-.442-.85-.6-.736-.74-.606-.858-.438-.946-.271-1.011-.09-1.042V346.425l.09-1.042.27-1.008.44-.95.605-.857.735-.737.851-.6.954-.442 1.006-.27 1.045-.093h1083.125l1.044.092zM308.887 352.426V467.73H1380.02V352.426H308.887zM1387.06 72.948l1.019.271.941.441.851.6.748.738.593.857.452.95.27 1.008.09 1.042v127.303l-.09 1.042-.27 1.01-.452.947-.593.858-.748.74-.85.6-.942.442-1.019.27-1.044.093H302.89l-1.045-.093-1.006-.27-.954-.442-.85-.6-.736-.74-.606-.858-.438-.946-.271-1.011-.09-1.042V78.855l.09-1.042.27-1.008.44-.95.605-.857.735-.737.851-.6.954-.442 1.006-.27 1.045-.093h1083.125l1.044.092zM308.887 84.856V200.16H1380.02V84.856H308.887z"/><path d="M272.07 416.519l.705.17.679.25.644.33.599.41.546.48.484.54.416.59.341.64.262.67.178.71.092.71.005.73-.082.72-.169.7-.252.68-.332.65-.408.6-.476.54-.329.34-.319.32-.324.34-.32.33-.315.33-.318.34-.316.33-.312.34-.311.33-.31.34-.31.34-.308.34-.307.34-.306.35-.303.34-.303.35-.301.35-.3.34-.299.35-.296.35-.296.35-.294.35-.293.36-.291.35-.291.36-.286.35-.287.36-.288.36-.285.36-.283.36-.281.36-.281.36-.28.37-.278.36-.275.37-.275.36-.274.37-.272.37-.272.37-.269.37-.268.37-.269.38-.266.37-.262.37-.262.38-.263.38-.262.37-.256.38-.259.38-.256.38-.254.38-.254.39-.252.38-.251.39-.249.38-.25.39-.245.38-.245.39-.245.39-.243.39-.242.4-.24.39-.239.39-.236.39-.238.4-.235.4-.231.39-.235.4-.23.4-.229.4-.23.4-.225.4-.225.4-.226.41-.223.4-.221.4-.222.41-.219.41-.216.4-.217.41-.215.41-.213.41-.215.42-.209.4-.209.42-.21.41-.207.42-.207.41-.205.42-.202.41-.203.42-.2.42-.201.42-.196.42-.196.42-.198.42-.195.43-.191.42-.192.42-.19.43-.189.42-.189.43-.186.42-.185.43-.185.43-.183.43-.179.43-.18.43-.18.43-.178.44-.175.43-.175.43-.174.44-.173.43-.17.44-.171.44-.168.43-.167.44-.165.44-.166.44-.163.44-.161.44-.162.44-.159.44-.159.45-.157.44-.155.44-.156.45-.153.44-.151.45-.15.44-.15.45-.148.45-.146.44-.147.46-.144.45-.143.45-.142.45-.14.45-.14.45-.137.46-.138.45-.135.45-.134.46-.134.45-.131.46-.131.46-.129.45-.127.46-.128.46-.125.46-.125.46-.123.46-.12.45-.121.47-.12.46-.118.46-.116.46-.116.47-.114.46-.113.46-.112.47-.111.46-.109.47-.108.46-.107.47-.106.47-.104.47-.103.46-.102.47-.101.47-.098.47-.1.47-.097.47-.095.47-.095.47-.093.47-.092.48-.091.47-.09.47-.088.47-.087.48-.086.47-.084.47-.084.48-.083.48-.08.47-.081.48-.079.48-.076.47-.077.48-.075.48-.073.48-.073.47-.07.48-.071.48-.07.48-.068.48-.066.48-.065.48-.064.48-.063.48-.062.49-.061.48-.059.48-.058.48-.056.48-.057.49-.054.48-.053.48-.052.48-.051.49-.05.48-.048.49-.048.48-.046.49-.045.48-.043.49-.044.49-.041.48-.04.49-.039.48-.038.49-.037.49-.035.49-.035.48-.032.49-.032.49-.032.49-.029.48-.029.49-.027.49-.026.49-.025.49-.024.49-.022.49-.022.49-.02.49-.019.49-.018.49-.017.49-.015.49-.014.49-.014.49-.012.49-.011.49-.01.49-.009.49-.007.49-.006.5-.006.48-.003.49-.003.5-.002.49-.001.49.001.49.002.49.003.5.003.49.005.49.006.49.008.49.009.5.009.49.023.98.013.49.014.5.016.49.016.49.018.49.019.5.019.49.022.49.022.5.023.49.024.48.026.5.026.49.028.49.029.49.03.5.031.49.032.49.033.49.035.49.036.5.037.49.037.49.039.49.04.49.041.49.043.5.043.49.044.49.045.49.047.49.049.49.047.49.051.49.05.49.053.49.053.49.054.49.056.49.056.49.057.49.059.49.061.49.06.49.061.48.064.49.064.49.064.49.135.98.067.48.07.49.071.48.071.49.073.49.074.48.074.49.077.49.076.48.079.49.078.48.081.48.081.49.082.48.084.49.083.48.173.97.087.48.089.48.089.48.091.49.093.48.092.48.093.48.095.48.097.48.096.48.099.48.098.48.101.48.1.48.103.48.103.47.104.48.106.48.106.48.106.47.109.48.11.47.11.48.112.47.112.48.113.47.115.47.116.48.116.47.117.47.12.47.119.48.12.47.123.47.122.47.122.46.125.47.127.47.126.47.128.47.129.47.129.46.13.46.133.47.133.47.132.46.135.47.136.46.136.46.138.47.138.46.14.46.141.46.142.46.142.46.143.46.146.46.144.46.147.46.148.46.147.45.149.45.152.46.151.45.152.46.154.45.154.46.155.45.157.45.156.45.158.45.159.45.16.45.162.45.163.45.162.45.161.44.167.45.166.44.165.44.167.45.17.44.17.45.17.44.171.44.174.44.172.44.174.44.175.43.177.45.176.43.178.44.179.43.18.44.181.43.182.44.181.43.185.43.183.43.185.43.186.43.189.43.188.43.189.43.189.42.19.42.193.43.192.43.195.42.195.42.192.42.198.42.198.43.196.41.2.42.2.42.2.42.201.41.204.42.204.42.202.4.206.42.207.41.206.41.209.41.207.41.21.41.211.4.21.41.214.41.213.4.212.4.216.41.216.4.216.4.219.4.217.4.218.4.221.39.222.4.222.4.221.39.223.39.223.39.227.4.226.39.226.39.229.39.229.39.228.38.229.39.232.38.231.38.234.39.234.38.233.38.236.38.235.38.238.38.238.37.235.37.241.38.243.38.239.37.241.37.243.37.242.37.246.37.245.36.245.37.247.36.246.36.25.37.25.36.247.36.252.36.253.36.257.37.381.61.304.66.223.69.138.71.051.72-.037.73-.123.71-.209.7-.29.66-.369.62-.441.58-.507.51-.566.46-.616.38-.658.3-.689.23-.711.13-.723.06-.724-.04-.714-.12-.694-.21-.663-.29-.624-.37-.575-.44-.517-.51-.453-.57-.267-.37-.27-.39-.27-.39-.272-.39-.268-.39-.266-.39-.269-.39-.265-.39-.267-.4-.263-.4-.262-.39-.263-.4-.261-.4-.262-.4-.26-.4-.255-.4-.257-.4-.26-.41-.255-.41-.254-.4-.254-.41-.252-.4-.253-.42-.25-.4-.249-.41-.25-.42-.247-.41-.248-.41-.247-.42-.244-.41-.243-.42-.244-.42-.242-.42-.24-.41-.241-.43-.241-.42-.239-.42-.236-.42-.235-.43-.235-.42-.236-.43-.234-.43-.231-.42-.233-.43-.229-.43-.229-.43-.231-.44-.227-.43-.226-.43-.226-.43-.224-.44-.224-.43-.224-.44-.221-.44-.222-.44-.218-.43-.218-.44-.221-.45-.215-.44-.215-.44-.215-.44-.215-.45-.212-.44-.211-.44-.213-.46-.209-.44-.208-.45-.21-.45-.206-.45-.205-.45-.205-.45-.203-.45-.204-.45-.202-.46-.202-.45-.199-.46-.198-.45-.198-.46-.198-.46-.196-.46-.194-.45-.195-.46-.193-.46-.191-.46-.191-.47-.189-.46-.19-.46-.187-.46-.187-.47-.186-.46-.185-.47-.184-.47-.182-.46-.182-.47-.181-.47-.179-.47-.178-.46-.178-.48-.178-.47-.175-.47-.174-.47-.175-.48-.173-.48-.17-.47-.169-.47-.171-.48-.168-.47-.168-.48-.166-.48-.165-.47-.164-.48-.163-.48-.162-.48-.162-.48-.16-.48-.158-.48-.159-.49-.158-.48-.155-.48-.155-.49-.154-.48-.152-.49-.152-.48-.151-.49-.149-.49-.148-.48-.148-.49-.147-.49-.145-.49-.145-.49-.142-.48-.143-.49-.142-.5-.139-.49-.138-.49-.14-.49-.137-.5-.134-.49-.136-.49-.133-.5-.132-.49-.132-.49-.132-.5-.129-.5-.128-.49-.127-.5-.126-.5-.125-.49-.125-.51-.123-.49-.121-.5-.121-.5-.12-.5-.119-.5-.117-.5-.117-.5-.114-.5-.115-.5-.114-.51-.112-.5-.11-.5-.111-.51-.108-.5-.109-.51-.106-.5-.106-.51-.104-.5-.104-.51-.102-.5-.1-.51-.101-.5-.099-.52-.098-.5-.096-.51-.096-.51-.094-.5-.094-.51-.093-.52-.09-.5-.091-.51-.089-.52-.087-.5-.087-.51-.085-.51-.085-.51-.083-.52-.083-.51-.081-.51-.08-.51-.078-.51-.078-.52-.077-.51-.076-.51-.074-.51-.073-.52-.073-.52-.07-.51-.07-.51-.069-.52-.067-.51-.066-.51-.066-.52-.064-.52-.062-.51-.062-.51-.062-.53-.059-.51-.058-.51-.058-.52-.055-.52-.056-.51-.053-.52-.053-.52-.051-.52-.05-.51-.05-.52-.048-.52-.047-.52-.045-.52-.045-.51-.044-.52-.041-.52-.042-.52-.04-.52-.038-.52-.037-.51-.037-.52-.035-.52-.034-.52-.033-.52-.031-.52-.031-.52-.03-.52-.027-.52-.027-.51-.026-.53-.025-.52-.023-.51-.022-.52-.021-.52-.02-.52-.018-.52-.018-.52-.016-.52-.015-.52-.014-.52-.012-.52-.012-.52-.01-.52-.009-.52-.008-.52-.007-.52-.005-.52-.004-.52-.003-.52-.002-.52-.001-.52.001-.52.002-.52.003-.51.004-.53.006-.52.006-.51.008-.52.009-.52.01-.53.012-.52.013-.51.014-.52.015-.52.017-.52.018-.52.019-.52.02-.51.021-.52.023-.52.024-.52.025-.52.026-.51.028-.52.029-.52.03-.52.032-.52.033-.51.033-.51.035-.52.037-.52.037-.52.039-.52.04-.51.042-.52.042-.51.044-.52.046-.51.046-.52.048-.52.049-.51.05-.51.051-.52.053-.51.054-.51.056-.52.056-.51.058-.52.059-.51.06-.51.062-.51.064-.52.064-.51.066-.51.066-.51.068-.51.069-.51.071-.51.073-.52.074-.51.073-.5.076-.51.078-.51.078-.51.08-.51.081-.51.083-.51.084-.5.084-.51.087-.51.088-.5.088-.5.09-.51.092-.51.093-.5.094-.51.096-.51.097-.5.098-.5.1-.5.1-.5.103-.51.104-.5.104-.5.106-.5.108-.5.108-.5.111-.5.112-.51.112-.49.114-.5.116-.5.117-.5.118-.49.119-.5.121-.5.123-.49.123-.5.125-.49.128-.5.127-.49.128-.49.131-.5.132-.49.133-.49.135-.5.135-.48.137-.5.14-.49.139-.49.142-.49.142-.48.144-.49.146-.49.146-.48.149-.49.149-.49.151-.48.153-.49.153-.48.156-.49.155-.48.158-.48.16-.48.16-.48.163-.48.164-.49.165-.48.166-.47.168-.48.17-.48.169-.48.173-.47.172-.48.175-.47.177-.48.176-.47.179-.47.181-.48.183-.47.182-.47.185-.47.187-.47.186-.47.189-.47.191-.47.193-.46.192-.47.193-.46.198-.47.198-.47.198-.46.201-.46.202-.46.202-.46.205-.46.207-.47.206-.45.211-.46.211-.46.209-.45.214-.46.217-.46.215-.45.218-.46.219-.45.222-.45.223-.46.222-.44.225-.46.225-.44.228-.45.232-.45.23-.45.232-.44.235-.45.234-.44.238-.45.24-.44.238-.44.241-.44.244-.44.243-.44.245-.44.249-.44.248-.43.25-.44.253-.43.251-.43.257-.44.257-.43.256-.43.26-.43.26-.43.262-.43.264-.43.266-.42.265-.43.268-.42.272-.43.27-.42.273-.42.274-.42.276-.42.278-.42.279-.42.28-.42.281-.41.285-.42.285-.41.285-.41.288-.41.291-.42.293-.41.29-.4.294-.41.296-.41.297-.4.299-.41.3-.4.302-.4.304-.4.305-.4.306-.4.308-.4.31-.4.312-.4.312-.39.312-.39.315-.39.319-.4.319-.39.321-.39.322-.39.323-.38.325-.39.328-.38.328-.39.329-.38.331-.38.333-.38.335-.38.336-.38.337-.37.338-.38.341-.37.342-.38.345-.37.347-.37.347-.37.346-.37.353-.36.351-.37.35-.36.357-.37.352-.35.539-.49.593-.41.64-.34.675-.27.702-.17.719-.1h.725l.719.08z" fill="#2d87b4"/><path d="M272.312 414.279l.286.02.284.03.282.04.279.06.277.07.273.08.269.1.264.11.258.12.253.14.245.14.239.16.23.17.223.18.213.19.205.19.195.21.184.22.174.23.163.23.152.25.139.24.128.26.116.26.103.27.09.27.078.27.064.28.051.28.037.29.024.28.01.29-.003.28-.017.28-.03.29-.044.28-.058.28-.07.28-.084.27-.096.27-.109.26-.122.26-.134.25-.146.25-.157.24-.168.23-.179.22-.19.22-.199.2-.209.19-.218.19-.226.17-.235.17-.242.15-.249.14-.255.13-.261.11-.267.1-.271.09-.274.08-.279.07-.281.05-.283.03-.284.03-.243.01h-.019l-.048.01-.057.01-.058.02-.076.02-.084.02-.102.03-.101.03-.11.03-.27.09-.293.09-.168.05-.17.05-.183.05-.192.05-.203.06-.22.06-.228.05-.228.06-.248.05-.249.05-.15.02-.125.02-.142.03-.151.02-.301.04-.306.04-.302.03-.291.03-.291.03-.292.03-.282.03-.281.02-.276.02-.272.02-.529.05-.517.04-.501.03-.487.04-.232.02-.236.02-.225.02-.226.03-.225.02-.21.02-.211.02-.215.03-.205.03-.196.03-.2.03-.196.03-.191.03-.088.02-.096.01-.144.03-.145.03-.137.03-.153.03-.151.03-.138.03-.15.03-.148.04-.3.07-.301.07-.306.08-.312.08-.311.08-.313.08-.314.09-.322.09-.325.09-.323.09-.669.2-.679.19-.689.21-.698.2-.362.1-.361.11-.362.1-.369.1-.376.1-.373.1-.378.1-.385.1-.39.09-.388.09-.277.07-.271.06-.271.06-.272.06-.261.05-.267.06-.518.11-.511.1-.503.1-.489.1-.48.09-.474.1-.464.1-.223.04-.225.05-.221.05-.224.05-.216.05-.216.05-.209.05-.21.05-.211.06-.199.05-.205.06-.225.06-.177.05-.201.05-.208.06-.206.05-.195.05-.212.05-.219.05-.201.05-.215.05-.221.05-.215.04-.211.05-.217.04-.225.04-.216.04-.278.05-.275.04-.301.03-.307.02h-.339l-.34-.01-.339-.03-.364-.06-.404-.08-.347-.09-.346-.11-.363-.15-.301-.14-.383-.19-.312-.2-.296-.2-.334-.27-.23-.2-.276-.27-.217-.25-.211-.25-.257-.36-.138-.23-.172-.29-.228-.47-.096-.25-.08-.23-.072-.22-.062-.23-.002-.01-.056-.25-.045-.24-.036-.25-.024-.25-.001-.01-.013-.24-.004-.24.005-.24.016-.24.025-.24v-.01l.041-.27.054-.27.066-.27.078-.27.09-.26.103-.26.114-.25.126-.25.137-.24h.001l.152-.24.163-.23.173-.23.184-.21.193-.21.204-.2.212-.19.221-.17.229-.17.237-.16.243-.14.251-.13.256-.12.262-.11.266-.1.271-.08.275-.07.277-.06.28-.04.281-.03.283-.02.283-.01.284.01.282.03.262.03.054-.01.135-.04.151-.04.139-.03.135-.04.14-.04.162-.04.265-.07.283-.08.292-.08.279-.07.279-.07.282-.06.276-.07.275-.06.266-.06.271-.06.267-.06.269-.06.519-.1.511-.11.506-.1.496-.1.484-.09.475-.1.468-.1.227-.05.232-.04.221-.05.222-.05.222-.05.217-.05.305-.07.301-.08.305-.07.312-.09.315-.08.312-.08.319-.09.324-.09.325-.1.324-.09.673-.19.682-.2.692-.21.701-.2.363-.1.362-.1.365-.11.373-.1.376-.1.377-.1.378-.09.385-.1.391-.1.393-.09.199-.04.196-.05.211-.04.197-.04.195-.04.211-.05.205-.04.204-.04.16-.03.167-.03.321-.05.314-.05.311-.05.315-.04.306-.04.296-.04.301-.03.301-.04.286-.03.287-.03.286-.02.276-.02.279-.03.537-.04.522-.04.507-.04.494-.04.241-.02.235-.02.232-.02.23-.02.221-.02.221-.02.221-.03.211-.02.206-.03.207-.02.014-.01h.035l.039-.01.058-.01.059-.02.066-.02.083-.02.094-.02.102-.03.116-.04.117-.03.277-.09.299-.09.175-.05.183-.06.184-.05.2-.05.209-.06.227-.06.227-.05.237-.05.245-.05.152-.03.142-.02.124-.02.145-.03.141-.02.143-.01.164-.02.142-.02.144-.01.164-.01.182-.01.163-.01h.538zm-29.245 12.85l-.004.29-.015.25.04-.32-.026-.33.005.11zm-.072-.85l.026.19-.017-.22-.05-.2.041.23zm-.194-.84l-.005-.02-.012-.03.017.05z" fill="#2d87b4"/><path d="M274.519 414.699l.283.02.282.03.279.05.277.06.274.07.27.09.266.1.261.11.255.12.25.13.242.15.236.16.227.17.22.18h.003l.204.18.196.19.186.21.177.2.167.22.158.23h.003l.112.18.106.17.1.19h.004l.106.21.096.22.089.22.058.15.1.3.069.25.043.17.033.14.031.14.048.22.049.24.047.25.088.46.078.42.06.32.019.1.01.06.041.2.051.26.046.26.043.25.04.26.038.26.034.25.031.26.028.24.027.26.024.25.021.24.02.25.017.24.015.24.013.24.012.25.009.23.008.23.006.24.005.24.004.23.002.22.001.23v.23l-.002.22-.002.22-.003.22-.004.22-.005.22-.012.41-.04 1.26-.043 1.26-.044 1.24-.048 1.25-.049 1.25-.053 1.25-.054 1.24-.058 1.25-.06 1.25-.063 1.25-.066 1.24-.069 1.25-.036.62-.036.63-.038.62-.038.62-.039.63-.039.62-.041.63-.042.64-.019.26-.023.27-.024.26-.028.27-.029.26-.03.25-.033.26-.034.24-.034.24-.036.24-.036.23-.038.24-.073.44-.074.43-.142.82-.065.38-.062.37-.029.18-.028.18-.026.17-.023.16-.023.16-.021.16.007.24.009.31.007.35.003.19.002.2-.001.21-.002.22-.006.22-.009.24-.014.24-.014.18-.012.13-.017.16-.022.17-.026.19-.042.23-.041.2-.07.3-.104.34-.13.37-.095.22-.117.26-.129.24-.013.03-.118.2-.126.2-.133.2-.102.14-.257.32-.168.18-.199.2-.208.2h-.008l-.228.2-.237.17-.246.17-.228.15-.24.13-.207.1-.211.1-.215.09h-.008l-.242.09-.245.08-.248.06-.251.06-.253.04-.009.01-.206.02-.207.03-.207.01h-.009l-.236.01h-.237l-.235-.01-.236-.02h-.009l-.255-.04-.254-.04-.252-.06h-.01l-.284-.07-.28-.09-.275-.1-.241-.1-.234-.12-.182-.09-.18-.1-.176-.11-.114-.07-.112-.08-.214-.16-.206-.16-.199-.18-.065-.05-.196-.19-.239-.26-.162-.2-.155-.19-.218-.31-.194-.31-.14-.25-.073-.14-.132-.27-.118-.28-.104-.28-.09-.28-.076-.29-.061-.29-.046-.3-.032-.3-.017-.3-.002-.29.013-.3.028-.3.042-.3.058-.29.072-.29.086-.29.095-.26-.004-.16-.001-.15-.001-.17.005-.26.014-.23.017-.19.034-.3.033-.25.031-.24.033-.25.036-.24.036-.24.036-.23.036-.22.073-.44.074-.43.141-.81.066-.38.061-.37.028-.18.027-.17.026-.17.024-.18.023-.16.02-.16.02-.16.017-.15.015-.15.014-.15.013-.14.011-.16.039-.59.039-.61.039-.61.038-.61.037-.61.036-.61.036-.61.035-.61.067-1.22.065-1.22.062-1.22.058-1.21.057-1.23.054-1.22.051-1.22.048-1.22.047-1.23.044-1.22.042-1.23.039-1.23.01-.35.003-.17.004-.17.002-.16.002-.18.001-.16v-.16l-.001-.17-.001-.17-.003-.16-.003-.16-.004-.15-.006-.16-.006-.16-.007-.15-.009-.15-.009-.16-.01-.14-.012-.15-.013-.15-.013-.13-.014-.14-.017-.14-.017-.14-.017-.13-.019-.13-.019-.12-.022-.13-.022-.13-.022-.11-.036-.18-.024-.12-.031-.16-.067-.36-.075-.41-.076-.4-.004-.02-.003-.01-.088-.29-.073-.29-.059-.29-.044-.3-.029-.29-.014-.3v-.3l.001-.04.014-.27.027-.28.001-.01.031-.22.039-.22.047-.22.002-.01.067-.26.079-.25.089-.25.102-.25.112-.25.122-.23.134-.24.143-.22.003-.01.17-.24.182-.23.193-.23.205-.21.214-.2.224-.2.234-.18.242-.17h.001l.249-.16.256-.14.263-.13.268-.12.275-.11.279-.09.283-.08.287-.06.29-.05.292-.04.293-.02.294-.01h.001l.283.01zm3.611 40.67l-.015-.02-.057-.11.072.13zm-8.424-30.66l.059.05-.046-.05-.061-.07.048.07zm10.427-2.9l-.004.01.017-.07.018-.15-.031.21zm.075-.6l-.012.13.021-.18.007-.25-.016.3z" fill="#2d87b4"/><g><path d="M274.969 164.089l.681.15.659.23.628.31.587.37.54.44.486.51.423.55.357.6.284.64.209.66.13.69.049.69-.031.7-.113.69-.191.67-.268.64-.342.61-.409.57-.472.51-.281.27-.27.27-.269.26-.268.27-.269.27-.268.27-.263.27-.265.27-.265.28-.263.28-.265.28-.261.28-.258.28-.261.28-.26.29-.257.28-.26.29-.257.29-.254.29-.254.29-.255.3-.253.3-.252.29-.252.3-.252.3-.249.31-.249.3-.248.31-.247.3-.247.31-.246.31-.243.31-.244.31-.244.32-.24.31-.244.33-.241.31-.237.32-.238.32-.238.33-.237.32-.238.33-.233.33-.234.33-.234.33-.229.33-.234.33-.231.34-.23.34-.229.33-.226.34-.227.34-.225.34-.225.35-.227.35-.222.34-.22.34-.223.36-.221.34-.22.36-.219.35-.216.35-.217.36-.216.35-.215.36-.214.36-.213.36-.213.37-.209.36-.21.36-.212.37-.207.37-.207.36-.207.37-.203.37-.208.38-.204.37-.201.37-.201.38-.201.37-.2.38-.2.38-.198.38-.197.39-.194.37-.196.39-.194.39-.193.38-.193.39-.189.38-.191.39-.189.4-.188.39-.188.39-.186.4-.186.39-.183.4-.183.39-.183.4-.18.4-.18.4-.182.41-.179.4-.176.4-.175.4-.175.41-.176.41-.174.41-.172.4-.17.41-.17.41-.171.42-.169.41-.166.41-.165.41-.166.42-.166.42-.162.41-.161.42-.163.42-.161.42-.158.42-.159.42-.157.43-.156.42-.155.42-.154.43-.154.43-.152.42-.15.43-.151.43-.149.43-.147.43-.147.43-.147.43-.145.44-.144.43-.142.43-.142.44-.141.44-.139.43-.139.44-.138.44-.135.43-.136.45-.135.44-.134.44-.133.44-.13.44-.131.45-.13.44-.127.44-.127.45-.127.45-.124.44-.124.45-.123.45-.122.45-.12.45-.121.45-.119.45-.118.45-.116.45-.114.45-.115.46-.114.45-.112.46-.112.45-.11.46-.109.45-.108.46-.107.46-.105.45-.105.46-.104.46-.103.46-.102.46-.1.46-.099.47-.099.46-.097.46-.097.46-.094.46-.094.47-.093.46-.091.46-.092.47-.09.47-.089.46-.087.47-.086.46-.085.47-.085.47-.083.46-.082.47-.08.47-.08.47-.08.47-.076.47-.077.47-.076.47-.075.47-.073.47-.072.47-.071.47-.07.48-.069.47-.067.47-.067.47-.065.48-.065.47-.064.48-.062.47-.061.47-.06.47-.059.48-.058.47-.056.48-.055.47-.055.48-.054.48-.052.47-.051.48-.05.47-.049.48-.048.48-.046.47-.046.48-.044.47-.043.48-.042.48-.042.48-.04.48-.039.47-.037.48-.037.48-.035.48-.034.48-.033.47-.032.48-.032.48-.03.48-.028.48-.027.48-.027.48-.025.47-.024.48-.023.48-.022.48-.021.48-.02.47-.018.48-.017.48-.017.48-.015.48-.014.48-.012.47-.012.48-.01.48-.01.48-.008.47-.007.48-.006.48-.005.48-.003.48-.003.48-.001.48-.001.47.001.48.002.48.004.47.004.48.005.47.007.48.008.48.009.47.01.48.011.48.012.47.014.48.014.47.017.47.017.48.018.47.019.48.02.47.022.47.023.47.024.48.025.47.026.47.028.48.028.47.03.47.03.47.033.47.033.47.034.47.036.47.036.47.038.46.04.47.04.47.041.47.043.47.043.46.045.47.046.47.047.46.048.47.05.47.05.46.052.46.053.46.054.47.056.46.056.46.057.46.059.46.061.47.06.45.063.46.064.46.065.46.065.46.067.46.068.45.069.45.072.47.071.45.072.45.074.46.076.45.076.45.077.46.079.45.08.45.082.45.081.44.083.45.086.46.085.44.086.44.089.45.09.45.09.45.091.44.093.44.094.45.095.44.096.44.098.44.099.44.099.44.102.44.101.43.104.44.105.44.104.43.108.44.108.43.109.43.111.43.111.44.113.42.114.44.115.42.116.43.119.43.117.43.12.42.121.42.122.43.124.42.124.42.127.42.126.42.128.42.129.42.13.42.133.42.132.41.133.41.135.42.138.41.136.41.139.41.139.41.141.41.143.41.143.4.144.41.147.41.146.4.148.4.149.4.15.4.152.4.153.4.153.39.155.4.156.39.157.4.16.39.159.39.161.39.163.4.161.38.165.39.166.38.167.39.169.38.168.39.169.37.172.39.172.38.174.37.176.38.175.38.176.37.178.37.181.37.182.38.181.37.181.36.184.37.187.37.186.36.188.36.19.37.188.35.191.36.193.36.193.36.195.35.195.36.196.35.201.35.198.36.198.34.204.35.202.35.203.34.204.34.207.35.209.34.205.33.21.34.212.34.212.34.213.33.214.33.215.33.216.33.217.33.22.33.22.32.219.33.225.32.222.32.224.32.225.32.227.31.227.32.229.31.23.31.231.32.234.31.233.3.233.31.236.3.238.31.238.3.239.3.24.3.242.29.242.3.244.29.244.3.246.29.248.29.247.28.25.29.25.28.251.28.257.29.253.28.252.28.256.27.257.28.262.27.259.27.258.27.264.27.263.27.262.26.265.26.269.27.267.26.267.26.273.26.27.25.269.25.276.26.275.25.272.24.278.25.279.25.278.24.279.24.285.24.297.26.506.48.446.53.381.59.31.62.236.66.158.68.078.69-.003.7-.084.69-.164.68-.241.66-.316.62-.386.58-.451.53-.509.48-.562.41-.605.35-.642.27-.67.2-.687.12-.697.04-.696-.05-.687-.12-.667-.21-.64-.27-.603-.35-.558-.42-.316-.27-.329-.28-.332-.29-.328-.29-.326-.28-.324-.29-.328-.3-.321-.29-.318-.29-.323-.31-.317-.3-.313-.29-.317-.31-.313-.3-.309-.31-.31-.31-.311-.31-.307-.31-.303-.31-.307-.32-.302-.31-.298-.32-.299-.32-.299-.32-.299-.33-.295-.32-.289-.33-.292-.32-.291-.33-.288-.33-.288-.34-.285-.33-.284-.34-.284-.34-.281-.34-.279-.33-.278-.35-.277-.34-.275-.35-.273-.34-.271-.35-.271-.35-.27-.35-.268-.36-.264-.35-.265-.35-.263-.36-.262-.36-.26-.36-.26-.36-.256-.36-.257-.37-.254-.36-.25-.37-.254-.37-.249-.37-.247-.37-.248-.37-.245-.37-.244-.38-.242-.38-.241-.37-.24-.38-.236-.38-.237-.38-.238-.39-.232-.38-.232-.39-.231-.38-.23-.39-.228-.39-.224-.39-.228-.39-.223-.4-.221-.39-.221-.39-.22-.4-.217-.4-.217-.4-.213-.4-.215-.4-.214-.41-.208-.4-.21-.4-.208-.41-.205-.4-.206-.41-.206-.42-.201-.41-.199-.41-.199-.41-.199-.41-.198-.42-.195-.42-.193-.42-.192-.41-.191-.42-.189-.42-.19-.43-.186-.42-.185-.42-.184-.43-.182-.42-.182-.43-.181-.43-.177-.43-.178-.43-.176-.43-.173-.43-.174-.43-.171-.44-.171-.43-.169-.44-.168-.44-.165-.43-.165-.44-.164-.44-.162-.44-.161-.44-.158-.44-.158-.45-.157-.44-.155-.45-.154-.44-.153-.45-.152-.45-.149-.45-.148-.45-.148-.45-.146-.45-.145-.45-.142-.45-.142-.46-.141-.45-.14-.46-.137-.46-.136-.45-.135-.46-.133-.45-.134-.47-.131-.46-.13-.46-.129-.46-.126-.46-.127-.47-.124-.46-.123-.46-.122-.47-.121-.47-.119-.46-.119-.47-.116-.47-.115-.47-.116-.47-.111-.47-.112-.47-.11-.47-.109-.47-.108-.48-.106-.47-.104-.47-.105-.48-.102-.48-.101-.47-.1-.48-.099-.48-.097-.48-.095-.47-.095-.48-.094-.49-.092-.48-.089-.47-.091-.48-.089-.49-.086-.48-.085-.48-.085-.49-.083-.48-.082-.49-.08-.48-.079-.49-.079-.49-.077-.49-.074-.48-.075-.49-.073-.49-.072-.49-.07-.49-.069-.49-.067-.49-.068-.49-.065-.49-.064-.49-.063-.49-.062-.5-.06-.49-.058-.49-.058-.49-.057-.5-.055-.5-.055-.49-.052-.5-.052-.49-.05-.5-.048-.49-.049-.5-.046-.5-.045-.5-.044-.49-.043-.5-.041-.5-.041-.5-.039-.5-.037-.5-.037-.5-.035-.5-.035-.5-.032-.5-.032-.5-.03-.51-.029-.49-.029-.51-.026-.5-.025-.5-.024-.5-.024-.51-.021-.5-.021-.5-.019-.51-.018-.5-.017-.51-.016-.5-.014-.5-.013-.51-.012-.5-.011-.5-.01-.51-.008-.51-.007-.5-.006-.51-.004-.51-.003-.5-.003-.5-.001-.51.001-.51.001-.5.003-.51.003-.51.006-.5.006-.51.008-.5.008-.51.01-.51.011-.5.013-.51.013-.51.015-.51.016-.5.017-.51.019-.51.019-.5.02-.51.023-.51.023-.5.024-.51.025-.51.027-.5.029-.51.028-.5.031-.51.032-.51.033-.51.033-.5.035-.51.037-.5.037-.51.039-.51.039-.5.042-.51.043-.51.043-.5.044-.5.046-.51.047-.51.049-.5.049-.5.051-.51.051-.51.053-.5.054-.5.056-.51.056-.5.058-.5.058-.51.06-.5.062-.51.062-.5.064-.5.065-.5.066-.51.067-.5.068-.5.07-.5.07-.5.072-.5.073-.5.074-.5.075-.5.077-.5.078-.5.079-.5.08-.5.081-.49.082-.5.084-.5.084-.5.086-.49.087-.5.088-.5.09-.49.09-.5.092-.49.093-.5.094-.5.095-.49.096-.49.097-.49.099-.49.1-.5.101-.49.103-.49.102-.49.106-.49.105-.49.107-.49.108-.49.109-.49.11-.48.111-.49.113-.49.114-.49.115-.48.116-.49.118-.49.118-.48.119-.48.121-.48.121-.48.123-.49.125-.48.126-.48.126-.48.127-.48.128-.48.131-.48.131-.48.132-.47.134-.48.134-.48.135-.47.138-.48.138-.47.138-.47.142-.48.141-.47.142-.47.144-.47.144-.47.147-.47.147-.47.147-.47.151-.47.15-.46.151-.47.154-.47.154-.46.155-.46.156-.46.157-.47.16-.46.159-.46.161-.46.163-.46.163-.46.164-.45.165-.46.166-.46.169-.45.169-.46.17-.45.172-.45.173-.46.171-.44.175-.45.178-.46.175-.44.177-.45.181-.45.182-.45.181-.44.181-.44.183-.44.186-.45.188-.44.187-.44.186-.44.189-.43.192-.44.193-.44.194-.44.192-.43.194-.43.198-.44.197-.43.198-.43.202-.43.201-.43.202-.43.203-.42.204-.43.205-.42.206-.42.209-.43.21-.42.209-.42.211-.42.212-.42.216-.42.215-.41.215-.42.216-.41.218-.41.22-.41.22-.41.223-.42.223-.4.221-.4.226-.41.227-.41.227-.4.231-.41.227-.39.23-.41.235-.4.232-.39.234-.4.236-.4.236-.39.238-.39.238-.39.242-.4.241-.39.242-.38.244-.39.242-.38.247-.39.25-.39.245-.37.249-.38.251-.38.251-.38.255-.38.254-.37.255-.38.256-.37.255-.37.26-.37.26-.37.26-.36.265-.37.262-.36.263-.37.265-.36.267-.36.27-.36.27-.36.267-.35.273-.36.273-.35.272-.35.276-.35.276-.35.277-.35.279-.34.279-.35.281-.34.283-.34.282-.34.284-.34.286-.33.286-.34.287-.33.29-.33.292-.34.291-.33.291-.32.294-.33.294-.32.295-.32.3-.33.3-.32.297-.31.301-.32.301-.31.303-.32.307-.31.305-.31.305-.31.308-.3.309-.31.31-.3.301-.29.529-.46.578-.39.619-.32.653-.25.677-.16.692-.1h.697l.694.07z" fill="#2d87b4"/><path d="M274.609 160.349l.348.03.406.06.443.1.425.12.347.13.242.1.243.11.335.18.328.2.273.19.131.1.209.17.201.18.174.16.236.26.237.27.304.42.235.38.088.17.084.17.079.16.073.17.054.13.13.35.135.48.082.42.045.33.033.36.005.23-.001.27-.013.27-.025.27-.037.27-.05.27-.062.27-.074.26-.086.26-.098.25-.109.25-.121.25-.131.24-.143.23-.152.23-.163.22-.173.21-.182.2-.191.2-.2.18-.208.18-.216.17-.224.16-.23.14-.237.14-.243.13-.248.11-.253.1-.257.09-.262.08-.265.07-.267.05-.27.05-.271.03-.273.02h-.546l-.156-.02-.056.03-.133.05-.217.09-.602.2-.266.09-.262.08-.191.06-.186.07-.404.13-.243.08-.258.08-.259.07-.149.05-.147.04-.271.07-.275.07-.265.06-.262.06-.257.06-.257.06-.25.05-.252.05-.246.04-.241.05-.242.04-.23.04-.235.04-.231.04-.436.06-.841.13-.4.07-.384.06-.182.03-.179.03-.173.03-.178.03-.168.03-.166.04-.16.03-.156.03-.157.04-.16.03-.164.04-.166.04-.158.04-.158.03-.165.05-.163.04-.157.04-.164.04-.162.04-.156.05-.161.04-.163.05-.162.05-.166.04-.156.05-.16.05-.16.05-.163.05-.164.05-.159.05-.16.05-.166.06-.16.05-.152.05-.329.12-.322.11-.328.12-.323.12-.321.12-.326.13-.323.12-.324.13-.326.14-.327.13-.326.14-.327.14-.327.14-.328.15-.332.14-.327.15-.327.15-.333.16-.329.15-.305.14-.313.15-.321.16-.33.16-.681.33-.355.17-.363.18-.374.17-.372.17-.197.09-.196.09-.201.09-.199.09-.205.08-.203.09-.208.09-.216.08-.204.08-.215.09-.221.08-.254.09-.195.07-.208.07-.191.05-.17.05-.167.05-.157.04-.16.03-.155.04-.27.06-.278.06-.259.05-.24.05-.357.07-.264.07-.267.06-.27.04-.271.03-.272.03H242.749l-.258-.02-.258-.02-.256-.04-.255-.05h-.005l-.246-.06-.244-.07-.24-.08-.237-.09-.233-.09-.228-.11-.224-.12-.218-.13-.213-.13-.207-.15-.201-.15h-.002l-.21-.18-.201-.19-.193-.19-.184-.2-.174-.21-.164-.22-.155-.23-.144-.23-.133-.24-.122-.24-.111-.25-.099-.26-.088-.26-.076-.26-.063-.27-.052-.26-.039-.28-.027-.27-.014-.27-.002-.27.01-.28.023-.27.036-.27.048-.27.059-.27.073-.26.084-.26.095-.26h.001l.102-.24.112-.23.122-.23.132-.23.141-.21.151-.22.16-.2.168-.2.177-.19.185-.18.193-.18.2-.16.207-.16.214-.15.22-.14h.004l.197-.11.202-.11.205-.1.209-.09.212-.08.21-.08.36-.1.236-.06.209-.04.188-.04.181-.03.39-.08.191-.04.185-.04.167-.03.166-.04.056-.01.046-.01.015-.01h.007l.118-.05.125-.04.137-.06.123-.05.131-.05.138-.06.135-.06.14-.06.137-.06.143-.06.142-.07.305-.14.301-.14.312-.15.318-.15.661-.32.339-.17.347-.17.353-.17.359-.17.377-.17.375-.18.382-.17.382-.17.379-.17.384-.17.385-.17.387-.17.39-.16.39-.16.392-.16.395-.16.398-.16.398-.15.403-.15.404-.15.4-.15.408-.14.404-.14.214-.07.208-.07.202-.07.208-.07.21-.06.205-.07.208-.06.21-.07.212-.06.216-.07.206-.06.211-.06.21-.06.213-.06.219-.06.214-.06.212-.05.22-.06.214-.05.214-.06.221-.05.221-.05.214-.05.216-.05.222-.05.225-.05.256-.05.251-.06.247-.04.246-.05.234-.04.242-.05.236-.03.233-.04.447-.08.434-.06.824-.13.396-.06.185-.03.179-.03.186-.04.173-.03.172-.03.168-.03.161-.03.161-.03.155-.04.154-.03.147-.03.143-.04.133-.03.136-.04.048-.01.047-.02.131-.03.131-.04.144-.05.369-.12.201-.07.195-.06.23-.08.224-.07.287-.1.122-.05.241-.1.153-.06.15-.06.156-.06.171-.06.192-.07.197-.07.206-.07.219-.07.239-.07.222-.07.143-.03.149-.04.129-.03.149-.04.167-.03.152-.03.173-.03.198-.03.204-.02.231-.02.221-.02.235-.01h.298l.322.02zm-29.156 21.45l.121-.05.098-.05-.219.1zm-1.95-11.45l.272.02.27.05h.028l-.344-.07-.498-.02.272.02zm25.037-3.44l.03.34h.001l-.023-.25-.012-.27.004.18z" fill="#2d87b4"/><path d="M277.135 160.839l.434.05.288.05.122.03.272.06.268.08.247.08.484.19.419.22.349.2.28.19.242.18.226.18.187.16.177.17.156.15.13.14.123.13.116.13.106.12.109.14.097.12.079.11.085.11.099.14.137.2.141.22.137.22.124.21.118.21.121.23.116.24.108.23.059.14.06.14.054.13.054.14.06.18.06.18.069.23.054.21.054.23.046.26.035.22.025.19.018.16.019.17.015.17.013.15.012.17.008.15.008.17.005.15.004.15.001.16.001.15-.001.15-.003.14-.003.15-.005.14-.006.16-.016.27-.018.27-.023.27-.025.27-.029.26-.03.25-.032.25-.034.24-.035.24-.036.23-.038.24-.038.22-.038.22-.037.21-.038.21-.074.39-.071.37-.064.34-.062.33-.072.39-.076.38-.074.37-.073.37-.071.34-.066.34-.064.32-.027.15-.028.15-.027.16-.026.14-.023.13-.022.14-.022.15-.019.13-.018.12-.016.13-.015.12-.013.12-.012.12-.01.11-.008.11-.007.11-.006.1-.004.11-.002.07-.002.09-.001.09-.001.09V180.869l.003.19.004.2.007.2.008.21.01.22.011.22.013.23.03.49.032.51.032.52.016.28.015.29.013.29.012.3.009.3.007.31.004.31.001.16v.17l-.002.18-.002.14-.004.17-.005.18-.006.17-.007.17-.01.19-.01.16-.012.18-.015.19-.014.17-.018.19-.021.19-.021.18-.023.18-.027.19-.023.16-.022.14-.026.16-.027.15-.025.14-.03.15-.057.28-.058.26-.061.27-.064.26-.062.24-.063.23-.063.24-.06.21-.06.21-.115.4-.109.37-.049.17-.048.17-.043.16-.039.14-.038.14-.032.13-.032.14-.028.12-.023.1-.011.05-.011.06-.007.04-.01.05-.007.04-.007.04-.006.04-.005.04-.006.04-.005.05-.003.02-.002.03-.004.04-.001.01v.01l-.001.01v.02l.001.08.003.09.004.12.014.31.008.19.008.21.006.24.003.26-.001.15-.002.15-.004.16-.006.15-.009.17-.012.18-.016.19-.019.18-.031.26-.041.26-.04.23-.044.22-.049.23-.048.2-.05.19-.05.19-.044.15-.05.17-.043.14-.039.12-.13.41-.042.13-.002.17-.007.25-.01.23-.011.24-.016.24-.017.23-.02.24-.023.24-.026.23-.027.23-.032.24-.033.23-.035.23-.037.23-.012.13-.025.23-.033.23-.034.21-.044.21-.055.24-.075.27-.119.37-.165.39-.074.16-.135.26-.147.26-.011.02-.14.22-.149.21-.159.21-.012.02-.177.21-.187.2-.197.2-.013.01-.185.17-.192.16-.199.15h-.007l-.197.14-.202.13-.207.12-.201.12-.209.1-.229.1-.234.09-.237.08h-.007l-.271.08-.275.07h-.008l-.266.06-.268.04-.269.03-.257.02h-.259l-.199-.01-.199-.01-.199-.01h-.009l-.264-.04-.262-.04h-.009l-.219-.05-.218-.05-.215-.06-.164-.05-.371-.14-.213-.1-.189-.09-.185-.1-.182-.1-.018-.01-.209-.13-.204-.14-.198-.14-.018-.02-.161-.13-.158-.13-.152-.14-.181-.17-.315-.35-.223-.28-.16-.22-.155-.24-.128-.21-.093-.16-.1-.19-.121-.25-.098-.22-.079-.18-.066-.16-.055-.15-.064-.16-.004-.01-.04-.09-.104-.28-.091-.28-.076-.28-.063-.29-.049-.29-.034-.29-.02-.3-.006-.29.01-.3.023-.29.038-.29.052-.29.066-.29.08-.28.094-.28.108-.28.121-.26.134-.27.147-.25.15-.24.027-.24.033-.26.041-.25.043-.24.047-.22.048-.21.048-.2.051-.2.047-.16.044-.16.052-.17.078-.25.124-.39.023-.07.018-.06-.002-.08-.005-.11-.005-.14-.016-.35-.008-.21-.006-.23-.004-.25v-.16l.002-.15.004-.16.006-.15.006-.15.012-.18.014-.18.014-.16.016-.17.019-.16.019-.16.021-.15.022-.16.023-.15.025-.16.026-.15.026-.14.028-.15.028-.14.028-.14.06-.28.06-.26.06-.25.064-.25.063-.24.063-.23.063-.22.059-.21.06-.21.111-.38.103-.36.046-.16.047-.17.041-.15.037-.14.036-.14.03-.12.028-.12.027-.12.022-.11.007-.04.01-.05.008-.04.006-.05.009-.05.006-.04.007-.05.009-.07.008-.07.006-.06.006-.06.007-.08.006-.07.004-.07.005-.09.004-.07.004-.08.003-.08.002-.07.001-.09.002-.1.001-.08v-.08l-.001-.09-.002-.2-.005-.2-.006-.2-.008-.21-.01-.21-.012-.23-.013-.23-.029-.48-.032-.51-.032-.53-.016-.28-.015-.28-.013-.29-.012-.3-.009-.3-.008-.31-.004-.31V180.629l.001-.15.003-.17.003-.16.005-.18.011-.26.013-.26.017-.26.019-.25.022-.25.024-.24.027-.24.028-.23.03-.24.032-.23.033-.23.034-.21.035-.22.037-.22.037-.21.036-.2.038-.21.04-.21.074-.38.075-.38.073-.36.07-.35.068-.34.064-.32.062-.33.064-.35.07-.36.066-.35.063-.34.03-.16.03-.17.028-.16.027-.16.007-.04-.096-.11-.177-.24-.165-.24-.153-.25-.14-.26-.127-.27-.115-.27-.1-.28-.087-.28-.074-.28-.059-.29-.045-.29-.03-.3-.016-.29-.002-.29.003-.14.01-.26.022-.27.032-.29.055-.34.082-.39.1-.35.083-.26.096-.25.094-.23.127-.27.169-.31.145-.25.175-.26.103-.14.164-.21.173-.2.122-.14.284-.28.3-.26.139-.11.231-.17.238-.15.22-.14.41-.22.431-.18.487-.17.467-.12.464-.08.469-.04.397-.01.428.02zm-9.257 44.24l.043.1.031.07-.074-.17zm14.53-37.44l.002-.04-.002.04z" fill="#2d87b4"/></g><g><path d="M276.379 688.449l1.759 1.54 1.035 2.1.153 2.34-.753 2.22-1.544 1.76-.4.3-.388.3-.389.31-.386.3-.384.31-.383.3-.383.31-.38.31-.379.31-.378.32-.376.31-.376.32-.372.32-.373.32-.372.32-.368.32-.369.33-.366.32-.367.33-.364.33-.36.33-.364.33-.361.33-.356.34-.356.33-.356.34-.356.34-.352.34-.352.34-.35.35-.349.34-.348.35-.346.34-.345.36-.343.34-.342.36-.339.35-.341.36-.338.35-.336.36-.336.36-.333.36-.331.36-.331.36-.331.37-.329.37-.326.36-.326.37-.323.37-.323.37-.32.37-.322.38-.319.37-.316.38-.316.38-.314.38-.313.38-.313.38-.311.38-.307.39-.308.38-.307.39-.304.39-.304.39-.302.39-.299.39-.3.4-.299.39-.297.4-.295.39-.292.4-.293.4-.293.4-.287.4-.288.4-.288.41-.286.41-.283.4-.283.41-.283.41-.278.41-.279.41-.278.42-.276.41-.272.41-.275.42-.272.42-.269.41-.269.42-.268.43-.267.42-.263.42-.264.42-.262.43-.26.43-.259.42-.258.43-.256.43-.256.43-.254.43-.251.43-.251.44-.25.43-.247.44-.247.43-.246.44-.244.44-.241.44-.241.44-.241.45-.238.44-.236.44-.237.45-.233.44-.233.45-.231.45-.23.44-.229.46-.227.45-.226.45-.222.45-.225.45-.221.46-.22.45-.219.46-.218.46-.215.45-.214.46-.214.46-.212.46-.21.46-.209.47-.207.46-.206.47-.205.46-.203.47-.202.46-.201.47-.199.47-.197.47-.196.47-.195.47-.194.47-.193.48-.189.47-.189.47-.189.48-.187.48-.185.47-.182.48-.182.47-.182.49-.179.47-.178.48-.176.48-.176.49-.174.48-.172.48-.171.49-.169.48-.167.48-.168.49-.165.49-.164.49-.163.48-.16.49-.16.49-.159.49-.156.49-.156.49-.154.5-.152.49-.151.49-.15.5-.149.49-.146.49-.145.5-.144.5-.143.49-.141.5-.14.5-.138.5-.137.5-.136.5-.134.5-.133.5-.131.5-.13.5-.129.5-.127.51-.125.5-.125.51-.122.5-.121.5-.121.51-.118.51-.117.5-.115.51-.115.51-.113.51-.111.5-.11.51-.109.51-.107.51-.106.51-.104.51-.103.51-.101.51-.1.52-.099.51-.097.51-.096.51-.094.52-.093.51-.092.51-.09.52-.088.51-.088.52-.086.51-.084.52-.083.52-.082.51-.079.52-.079.52-.078.51-.075.52-.074.52-.073.52-.072.52-.071.52-.068.51-.067.52-.066.52-.064.52-.063.52-.062.52-.06.53-.06.52-.057.51-.055.52-.055.53-.053.52-.051.52-.051.52-.048.52-.047.52-.046.53-.045.52-.043.53-.041.52-.041.52-.039.53-.037.51-.035.53-.035.53-.033.52-.032.52-.03.52-.029.53-.027.52-.026.53-.024.52-.024.53-.021.52-.021.52-.018.53-.018.52-.015.53-.015.53-.013.52-.012.52-.01.53-.008.52-.008.53-.006.52-.004.53-.004.52-.001.52-.001.53.002.52.003.53.003.52.006.53.007.52.008.52.01.53.011.52.013.53.014.52.015.53.017.52.018.52.02.52.021.53.023.52.024.52.025.53.027.52.028.52.03.52.031.53.033.52.034.52.035.52.037.52.039.53.039.52.041.52.042.52.044.52.046.52.047.52.048.52.049.52.051.51.053.52.054.52.055.52.057.52.058.51.06.52.061.52.062.52.064.51.065.52.067.52.068.51.07.51.071.52.072.51.074.52.075.51.077.52.078.51.079.51.081.51.082.51.084.52.085.51.086.51.089.51.089.51.091.51.092.51.094.5.095.51.096.51.098.5.099.51.102.51.102.5.103.51.104.5.107.5.109.51.109.5.11.51.111.5.114.5.116.5.116.5.117.5.119.5.121.5.122.5.123.49.125.5.126.5.128.49.128.5.131.49.132.5.132.49.135.49.137.49.136.49.139.49.141.5.141.48.143.49.145.49.145.49.148.48.149.49.149.48.152.49.153.49.154.48.156.48.157.48.158.48.16.48.161.48.163.48.165.48.164.47.167.48.169.48.169.47.171.48.173.47.174.47.176.48.175.46.178.47.18.47.181.47.182.47.184.46.186.47.185.47.187.46.19.46.191.47.192.46.192.46.195.46.196.46.198.45.199.46.201.46.202.45.201.46.205.45.206.45.207.45.208.45.211.45.211.45.213.45.215.45.214.44.218.45.217.44.22.44.221.44.223.44.225.45.223.43.227.44.228.44.23.43.23.44.232.43.235.43.233.43.236.43.238.43.239.43.24.43.242.42.244.43.243.42.246.42.248.43.248.42.251.42.25.41.253.42.253.41.256.42.258.41.256.41.261.42.26.41.263.41.264.41.263.4.268.41.268.4.267.4.272.4.272.41.271.39.276.4.276.4.276.39.28.4.279.39.281.39.284.39.282.39.286.39.288.39.286.38.29.38.292.39.292.38.292.38.296.38.296.38.297.37.3.38.301.37.301.37.3.37.306.37.307.37.307.37.306.36.31.37.312.36.313.36.312.36.315.36.319.36.318.35.319.36.318.35.322.35.325.35.328.35.777.83.776.83.769.82.765.81.381.41.38.4.377.39.379.4.376.39.378.39.377.39.375.38.374.38.377.39.373.37.376.37.375.38.373.36.376.37.376.36.375.36.377.35.376.36.379.34.187.18.19.17.188.17.191.17.192.18.186.16.19.17.19.17.191.16.194.17.189.17.192.16.193.17.19.16.194.16.191.16.193.16.195.16.194.16.197.16.194.15.19.15.198.16.197.16.197.15.198.15.196.15.199.15.2.15.195.15.202.15.199.14.197.15.208.15.199.14.202.14.204.15.202.14.208.14.203.14.204.14.211.14.206.13.204.14.21.13.209.13.207.14.215.13.211.13.213.13.214.13.212.13.214.13.219.13.215.12.213.12.224.13.219.12.217.12.221.12.225.13.224.12.221.11.227.12.227.12.225.11.23.12.228.11.232.11.232.11.232.11.253.12 1.885 1.39 1.211 2 .352 2.32-.56 2.27-1.388 1.89-2.003 1.21-2.315.35-2.273-.56-.272-.13-.293-.14-.289-.14-.285-.14-.289-.14-.283-.14-.286-.15-.281-.14-.28-.15-.283-.15-.277-.14-.274-.15-.275-.15-.278-.15-.273-.16-.266-.15-.275-.16-.269-.15-.264-.16-.268-.16-.266-.16-.263-.16-.262-.16-.261-.16-.256-.16-.261-.17-.258-.16-.254-.17-.259-.16-.254-.17-.248-.17-.253-.17-.252-.17-.245-.17-.25-.17-.246-.17-.246-.18-.247-.18-.237-.17-.246-.17-.242-.18-.238-.18-.243-.18-.236-.18-.235-.18-.238-.18-.234-.18-.233-.18-.232-.18-.229-.18-.237-.19-.23-.19-.227-.18-.228-.19-.226-.18-.227-.19-.227-.19-.223-.19-.225-.19-.222-.19-.222-.19-.223-.19-.217-.19-.219-.19-.219-.19-.219-.2-.22-.2-.214-.19-.215-.19-.216-.2-.213-.19-.215-.2-.424-.39-.423-.4-.418-.39-.419-.4-.414-.4-.412-.4-.413-.41-.408-.4-.407-.4-.405-.41-.403-.41-.403-.41-.401-.41-.398-.41-.398-.41-.397-.41-.395-.42-.397-.41-.393-.42-.394-.41-.784-.83-.785-.84-.782-.84-.788-.84-.355-.38-.355-.39-.356-.38-.355-.39-.352-.4-.35-.39-.346-.39-.348-.39-.347-.4-.344-.4-.341-.4-.342-.4-.341-.4-.338-.41-.334-.4-.334-.4-.335-.41-.332-.41-.329-.41-.328-.41-.327-.42-.324-.41-.324-.42-.323-.42-.321-.42-.317-.41-.317-.42-.318-.43-.312-.42-.313-.42-.313-.43-.308-.43-.308-.43-.308-.43-.303-.43-.304-.43-.302-.44-.299-.43-.3-.44-.296-.44-.295-.43-.295-.45-.292-.44-.29-.44-.29-.44-.287-.45-.286-.44-.285-.45-.282-.45-.283-.45-.278-.45-.278-.45-.277-.45-.276-.46-.274-.45-.271-.46-.271-.46-.268-.45-.268-.46-.266-.47-.263-.45-.263-.47-.261-.46-.26-.47-.258-.46-.257-.47-.255-.47-.252-.47-.253-.47-.249-.47-.249-.47-.247-.47-.246-.48-.245-.48-.241-.47-.241-.48-.239-.47-.238-.48-.237-.48-.235-.48-.234-.49-.23-.48-.23-.48-.229-.49-.226-.48-.226-.49-.224-.49-.222-.49-.221-.49-.221-.49-.216-.49-.216-.49-.214-.49-.214-.5-.211-.49-.21-.5-.21-.5-.206-.49-.205-.5-.204-.5-.202-.5-.202-.5-.198-.5-.198-.51-.196-.5-.195-.5-.192-.51-.192-.5-.191-.51-.187-.51-.188-.51-.185-.5-.184-.51-.183-.52-.179-.5-.18-.52-.178-.51-.175-.51-.175-.52-.174-.51-.171-.52-.171-.51-.167-.52-.168-.52-.166-.52-.163-.51-.162-.52-.162-.52-.158-.52-.158-.52-.157-.53-.154-.52-.153-.52-.153-.53-.149-.52-.149-.53-.148-.53-.144-.52-.144-.53-.144-.53-.14-.52-.139-.53-.139-.53-.136-.53-.134-.53-.134-.53-.132-.54-.13-.53-.129-.53-.127-.53-.126-.54-.124-.53-.122-.53-.122-.54-.12-.54-.118-.53-.116-.54-.115-.54-.114-.54-.112-.54-.111-.53-.109-.54-.106-.54-.107-.54-.104-.54-.103-.54-.102-.55-.099-.54-.099-.54-.096-.54-.095-.54-.094-.55-.093-.54-.091-.55-.089-.54-.087-.55-.087-.54-.084-.55-.083-.55-.082-.54-.08-.55-.078-.55-.078-.55-.075-.54-.074-.55-.073-.55-.071-.55-.069-.55-.068-.55-.066-.55-.065-.55-.064-.55-.062-.55-.06-.55-.059-.55-.057-.55-.056-.55-.055-.56-.053-.55-.051-.55-.049-.55-.048-.56-.047-.55-.046-.55-.044-.56-.041-.55-.041-.55-.039-.56-.038-.55-.036-.56-.034-.55-.033-.56-.032-.55-.031-.56-.028-.56-.027-.55-.025-.56-.024-.55-.023-.56-.021-.55-.02-.56-.017-.56-.017-.55-.014-.56-.014-.55-.012-.56-.01-.56-.009-.56-.007-.55-.006-.56-.004-.56-.003-.55-.002-.56.001-.56.001-.56.004-.55.004-.56.007-.56.008-.55.009-.56.011-.56.012-.55.014-.56.016-.56.016-.56.019-.55.02-.56.021-.56.023-.56.025-.55.026-.56.027-.56.03-.55.03-.56.032-.56.034-.55.035-.56.036-.55.038-.56.04-.56.041-.55.043-.56.044-.55.046-.56.047-.55.049-.56.05-.55.052-.56.053-.55.055-.56.056-.55.058-.56.06-.55.061-.56.063-.55.063-.55.066-.55.067-.56.068-.55.07-.55.071-.55.074-.56.075-.55.075-.55.078-.55.079-.55.081-.55.082-.55.083-.55.086-.55.087-.55.088-.55.09-.55.091-.55.092-.54.095-.55.096-.55.097-.55.1-.55.1-.54.102-.55.103-.54.105-.55.107-.55.108-.54.109-.54.112-.55.112-.54.114-.54.116-.55.117-.54.119-.54.121-.54.121-.54.123-.54.126-.55.126-.53.127-.54.129-.54.132-.54.133-.54.134-.53.135-.54.137-.54.139-.53.14-.54.142-.53.143-.54.145-.53.146-.53.148-.54.149-.53.15-.53.153-.53.154-.53.155-.53.158-.53.159-.53.159-.52.161-.53.164-.53.165-.53.165-.52.169-.53.169-.52.17-.52.173-.53.174-.52.175-.52.178-.53.177-.51.181-.53.181-.51.183-.52.186-.52.185-.52.188-.51.189-.52.191-.51.193-.52.193-.51.195-.51.198-.52.199-.51.2-.51.2-.51.203-.51.206-.51.207-.5.207-.51.209-.51.211-.5.213-.51.214-.5.215-.5.217-.5.219-.51.22-.5.222-.5.223-.49.225-.5.227-.5.228-.5.229-.49.231-.49.233-.5.234-.49.235-.49.238-.49.239-.49.238-.49.243-.49.245-.49.244-.48.247-.49.248-.48.25-.49.251-.48.253-.48.254-.48.256-.48.258-.48.258-.48.26-.47.264-.48.263-.47.265-.48.266-.47.27-.47.27-.47.271-.47.274-.47.274-.47.276-.46.278-.47.279-.46.282-.47.282-.46.284-.46.285-.46.288-.46.289-.46.29-.45.291-.46.295-.45.295-.46.295-.45.299-.45.301-.45.3-.45.303-.45.306-.44.305-.45.307-.44.31-.44.311-.44.311-.44.314-.44.318-.44.316-.44.317-.43.321-.44.323-.43.324-.43.323-.43.326-.43.329-.43.33-.43.331-.42.333-.43.334-.42.336-.42.339-.42.34-.42.338-.42.343-.41.345-.42.345-.41.347-.41.35-.42.348-.4.352-.41.354-.41.355-.41.358-.4.358-.4.359-.4.36-.4.364-.4.364-.4.368-.39.367-.4.369-.39.371-.39.371-.39.375-.39.376-.38.377-.39.379-.38.38-.39.382-.38.383-.38.385-.37.387-.38.389-.37.388-.38.391-.37.394-.37.397-.37.396-.36.395-.37.401-.36.402-.36.401-.36.404-.36.406-.36.408-.36.408-.35.409-.35.415-.35.412-.35.416-.35.416-.35.419-.34.42-.34.421-.34.424-.34.424-.34.427-.34.426-.33.43-.33.422-.33 2.1-1.03 2.336-.15 2.217.75z" fill="#2d87b4"/><path d="M262.171 685.649h.521l.255.01.26.01.255.01.255.01.25.01.25.01.25.01.249.02.245.02.244.01.249.02.475.04.481.03.47.05.461.04.462.04.898.09.877.08.427.04.423.04.416.04.408.03.404.03.191.01.197.02.196.01.197.01.19.01.184.01.184.01.189.01.183.01h.183l.181.01H274.274l.277.01.277.02.275.03.273.05.271.06.268.07.265.08.26.09.256.11.25.12.245.13.238.14.232.15.224.17.217.17.208.18.2.19.191.21.181.2.171.22.161.23.151.23.139.24.129.25.116.25.105.25.094.27.081.26.068.27.056.27.044.27.031.28.018.28.005.27-.007.28-.02.28-.033.27-.046.28-.058.27-.071.27-.083.26-.095.26-.107.25-.119.25-.13.25-.141.24-.153.23-.162.23-.173.21-.183.21-.192.2-.201.19-.21.18-.218.17-.226.16-.233.15-.239.14-.246.13-.251.12-.257.1-.261.1-.265.08-.268.07-.272.05-.273.05-.276.03-.276.02h-.765l-.261-.01h-.25l-.249-.01-.251-.01-.245-.01-.251-.01-.251-.01-.245-.02-.24-.01-.241-.02-.241-.01-.246-.02-.474-.04-.472-.04-.465-.04-.459-.04-.458-.04-.894-.09-.879-.08-.426-.04-.428-.04-.42-.04-.41-.03-.414-.03-.195-.02-.201-.01-.2-.01-.195-.02-.194-.01-.195-.01h-.194l-.19-.01-.188-.01h-.183l-.189-.01h-.365l-.182-.01h-.182l-.17.01h-.176l-.182.01h-.17l-.164.01-.169.01-.192.01-.438.02-.458.03-.459.02-.461.02-.457.02-.457.02-.908.04-.908.03-.449.02-.445.02-.443.02-.441.03-.439.02-.433.02-.427.03-.429.03-.208.02-.208.01-.202.02-.207.02-.206.02-.206.02-.2.02-.199.02-.199.02-.191.02-.196.02-.196.03-.183.02-.188.03-.192.02-.181.03-.178.03-.182.02-.181.04-.17.03-.167.03-.176.03-.164.03-.162.04-.166.03-.152.04-.156.03-.158.04-.099.03-.11.03-.24.06-.248.07-.266.07-.28.08-.304.08-.161.04-.165.04-.177.05-.177.04-.188.05-.198.04-.2.04-.193.04-.212.04-.222.04-.214.03-.225.04-.243.03-.234.02-.235.03-.253.01-.251.02-.252.01-.252.01H241.19l-.277-.02-.276-.03-.274-.04-.272-.05-.269-.07-.265-.08-.262-.09-.257-.1-.252-.12-.247-.13-.24-.14-.234-.14-.227-.16-.219-.17-.211-.18-.202-.19-.194-.2-.184-.21-.175-.21-.164-.23-.154-.23-.143-.23-.131-.25-.121-.25-.109-.25-.097-.26-.084-.27-.073-.26-.06-.27-.048-.28-.034-.27-.023-.28-.009-.27.004-.28.016-.28.029-.27.041-.28.055-.27.067-.27.079-.26.091-.27.103-.25.116-.26.126-.24.138-.24.149-.24.159-.22.17-.22.18-.21.189-.21.199-.19.207-.18.215-.18.223-.16.231-.16.237-.14.244-.13.25-.12.255-.11.259-.1.264-.08.268-.08.27-.05.273-.05.275-.04.277-.02.277-.01h.203l.042-.01h.089l.049-.01h.037l.052-.01.06-.01.05-.01.058-.01.075-.02.067-.01.067-.01.076-.02.087-.02.087-.03.098-.02.102-.03.225-.06.252-.07.274-.07.298-.09.319-.08.175-.05.187-.04.257-.07.261-.06.267-.06.257-.05.263-.06.264-.05.253-.05.266-.05.264-.04.255-.05.257-.04.263-.04.262-.04.252-.03.258-.04.264-.03.254-.03.254-.03.261-.03.254-.03.256-.03.256-.02.25-.02.251-.03.252-.02.257-.02.252-.02.252-.02.493-.03.497-.03.492-.03.486-.03.483-.02.479-.02.476-.02.468-.02.918-.04.898-.04.438-.02.43-.02.418-.02.413-.02.406-.02.416-.02.247-.02.27-.01.276-.01.271-.01.26-.01h.265l.271-.01h.26l.26.01z" fill="#2d87b4"/><path d="M276.112 687.099h.021l.275.02.273.03.226.03.223.05.192.04.191.05.189.05.018.01.211.07.208.07.205.09.25.11.466.25.23.15.173.12.168.12.164.13.208.17.367.36.327.37.251.33.249.38.189.34.153.31.137.33.096.26.081.25.063.23.059.24.051.25.032.2.028.2.03.28.019.3.008.28-.002.24-.006.2-.01.21-.015.19-.016.17-.017.16-.016.14-.024.17-.035.24-.036.22-.037.21-.051.28-.03.17-.032.18-.029.17-.029.17-.029.18-.027.17-.026.17-.026.17-.026.18-.025.18-.024.17-.023.17-.023.18-.022.17-.043.35-.04.36-.038.35-.035.35-.032.36-.031.36-.028.37-.027.36-.025.39-.025.37-.028.39-.031.38-.034.39-.036.38-.038.38-.04.39-.043.38-.044.37-.047.38-.048.38-.051.37-.051.37-.053.37-.055.37-.057.37-.057.37-.059.36-.061.37-.061.36-.062.36-.063.36-.064.36-.066.36-.064.35-.067.36-.133.7-.135.7-.137.69-.137.69-.136.69-.27 1.35-.133.67-.131.66-.128.66-.125.66-.059.32-.061.33-.059.33-.057.32-.056.32-.055.32-.054.32-.053.32-.051.32-.049.31-.048.32-.047.31-.044.31-.044.32-.041.31-.044.34-.021.16-.031.2-.035.2-.035.18-.035.17-.038.16-.039.17-.045.17-.045.17-.039.13-.042.15-.049.15-.043.14-.046.14-.09.26-.089.25-.088.23-.089.23-.083.21-.082.2-.079.2-.139.34-.065.16-.058.14-.052.13-.047.12-.037.1-.035.1-.01.03-.014.17-.039.28-.052.29-.066.28-.08.28-.093.27-.106.27-.119.27-.132.26-.144.25-.156.24-.168.24-.179.23-.19.22-.2.21-.21.2-.219.19-.229.18-.236.16-.245.16-.252.14-.258.13-.264.12-.27.11-.275.09-.279.08-.282.07-.286.05-.287.04-.289.02-.29.01h-.29l-.289-.02-.288-.03-.287-.05-.283-.06-.281-.07-.277-.09-.272-.09-.267-.12-.262-.12-.255-.14-.248-.15-.241-.16-.232-.18-.224-.18-.214-.2-.205-.2-.195-.22-.184-.22-.173-.23-.162-.24-.15-.25-.138-.26-.125-.26-.113-.26-.099-.28-.086-.27-.073-.28-.059-.29-.045-.28-.031-.29-.018-.29-.003-.29.002-.17.01-.23.016-.23.02-.21.024-.21.029-.21.029-.18.036-.2.036-.18.039-.18.038-.16.041-.16.046-.18.04-.14.042-.14.048-.16.042-.13.044-.14.049-.14.044-.12.085-.24.089-.24.085-.22.083-.21.08-.2.076-.18.146-.36.062-.15.058-.14.055-.14.045-.12.041-.11.035-.1.028-.07.01-.04.011-.03.004-.01.006-.02.035-.27.049-.37.051-.37.053-.38.055-.36.055-.37.058-.37.058-.36.06-.36.061-.36.061-.36.063-.36.064-.36.064-.35.065-.35.066-.36.134-.71.135-.69.136-.69.136-.69.272-1.37.136-.67.132-.67.131-.67.128-.66.126-.66.06-.33.061-.33.06-.32.057-.32.057-.33.055-.32.055-.32.053-.32.051-.32.05-.32.049-.32.046-.31.046-.32.044-.31.042-.32.04-.31.039-.31.037-.31.035-.32.032-.3.031-.31.028-.31.027-.31.025-.3.022-.31.022-.32.027-.42.032-.45.035-.43.037-.45.041-.43.043-.45.047-.44.05-.44.052-.43.029-.23.028-.21.03-.23.031-.22.031-.22.032-.21.033-.23.035-.22.036-.22.035-.22.037-.22.037-.22-.032-.15-.044-.28-.03-.29-.016-.29-.002-.29.011-.29.026-.29.04-.29.054-.28.067-.29.081-.27.094-.28.107-.27.12-.26.133-.26.145-.25.157-.24.169-.24.18-.23.191-.22.201-.2.21-.2.221-.19.229-.18.237-.17.245-.15.253-.15.258-.12.265-.12.271-.11.275-.09.279-.08.283-.06.285-.05.288-.04.289-.02.29-.01h.29zm-.065 41.5l.004-.08v-.02l-.004.1zm-.678-29.52l.253.01-.289-.02-.19-.02.226.03zm-.46-.06l.071.01-.121-.02.05.01zm-.473-.1l.01.01-.023-.01h.013z" fill="#2d87b4"/></g><g><text x="2561.99" y="16783.7" font-family="'Boogaloo-Regular','Boogaloo',cursive" font-size="86.183" fill="#2d87b4" transform="translate(-1751.278 -15809.24)">UI</text></g><g><text x="2470.81" y="16783.7" font-family="'Boogaloo-Regular','Boogaloo',cursive" font-size="86.183" fill="#2d87b4" transform="translate(-1751.278 -16611.94)">ROUTER</text></g><g><text x="2378.51" y="16783.7" font-family="'Boogaloo-Regular','Boogaloo',cursive" font-size="86.183" fill="#2d87b4" transform="translate(-1751.278 -16076.74)">REMOTE DA<tspan x="2741.34px 2772.36px" y="16783.7px 16783.7px">TA</tspan></text></g><g><text x="2504.68" y="16783.7" font-family="'Boogaloo-Regular','Boogaloo',cursive" font-size="86.183" fill="#2d87b4" transform="translate(-1751.278 -16344.34)">ST<tspan x="2576.64px 2618.78px" y="16783.7px 16783.7px">AT</tspan>E</text></g></svg>