<svg xmlns="http://www.w3.org/2000/svg" viewBox="0 0 8005 4500" fill-rule="evenodd" clip-rule="evenodd" stroke-linejoin="round" stroke-miterlimit="1.414"><path d="M.54 0h8000v4500H.54z"/><path d="M5773.58 3644.58l4.342.38 4.209 1.128 3.949 1.842 3.57 2.499 3.082 3.082 2.499 3.569 1.842 3.95 1.128 4.209.379 4.341v530.427l-.379 4.341-1.128 4.209-1.842 3.95-2.499 3.57-3.082 3.081-3.57 2.5-3.949 1.841-4.209 1.128-4.342.38H1260.53l-4.341-.38-4.21-1.128-3.949-1.841-3.57-2.5-3.081-3.081-2.5-3.57-1.841-3.95-1.128-4.209-.38-4.341V3669.58l.38-4.341 1.128-4.209 1.841-3.95 2.5-3.569 3.081-3.082 3.57-2.499 3.949-1.842 4.21-1.128 4.341-.38h2359.81l9.665 1.973 7.95 5.371 5.371 7.949 1.972 9.666v.083l-1.972 9.665-5.371 7.95-7.95 5.371-9.665 1.972H1285.53v480.427h4463.05V3694.58h-446.997l-13.687-1.972-11.241-5.371-7.596-7.95-2.79-9.665v-.042h10.355v-.041l1.973-9.666 5.371-7.949 7.949-5.371 9.666-1.973h471.997z" fill="#fff"/><path d="M3627.38 3065.76c20.074.917 30.302 28.436 15.628 42.19-1.682 11.984 2.11 25.095 1.36 37.564 2.773 49.058 19.245 96.71 17.148 146.19-.74 131.036-12.954 261.74-13.736 392.757-1.914 19.933-29.747 28.715-42.809 13.561-11.317-12.444-5.457-30.39-6.68-45.528 1.775-126.81 14.17-253.324 12.976-380.187-2.731-46.483-17.723-91.53-17.349-138.315-1.624-20.464-5.82-45.809 11.427-61.202 6.037-5.133 14.139-7.729 22.035-7.03zm-2.377 49.886c1.663-.014 2.901-.187 0 0zM5263.94 3069.41c17.777.185 29.408 21.2 21.313 36.71-3.27 14.015-7.189 28.393-6.717 42.849 20.672 46.462 12.697 98.424 13.019 147.673-1.133 55.134-18.647 109.437-12.486 164.751 5.66 27.432 12.242 54.748 15.45 82.642 6.15 48.776 9.338 98.093 8.198 147.222-2.798 19.901-31.16 27.5-43.474 11.595-10.194-12.408-4.595-29.499-6.389-44.155-1.307-61.856-7.316-123.856-22.288-183.99-11.064-66.242 12.877-131.594 11.245-197.85.191-34.854 4.908-71.365-7.677-104.733-10.971-21.633-3.887-46.588.382-69.058 2.465-13.238 6.92-29.771 22.224-32.927 2.343-.623 4.784-.804 7.2-.729zm18.177 40.898c.29-.192.856-1.272 0 0zm-44.196-12.479c1.146 6.404-.668-6.22 0 0z" fill="#ff0"/><path d="M5777.92 2530.1l4.209 1.128 3.949 1.842 3.57 2.499 3.082 3.082 2.499 3.569 1.842 3.95 1.128 4.209.379 4.341v530.427l-.379 4.341-1.128 4.209-1.842 3.95-2.499 3.57-3.082 3.081-3.57 2.5-3.949 1.841-4.209 1.128-4.342.38h-495.539l-9.666-1.973-7.949-5.371-5.371-7.949-1.973-9.665v-.084l1.973-9.665 5.371-7.949 7.949-5.371 9.666-1.973h470.539V2579.72h-4463.05v480.427h2334.31l13.686 1.973 11.242 5.371 7.596 7.949 2.79 9.665v.042h-10.355v.042l-1.973 9.665-5.371 7.949-7.949 5.371-9.666 1.973h-2359.31l-4.341-.38-4.21-1.128-3.949-1.841-3.57-2.5-3.081-3.081-2.5-3.57-1.841-3.95-1.128-4.209-.38-4.341V2554.72l.38-4.341 1.128-4.209 1.841-3.95 2.5-3.569 3.081-3.082 3.57-2.499 3.949-1.842 4.21-1.128 4.341-.38h4513.05l4.342.38zM5777.92 1415.24l4.209 1.128 3.949 1.841 3.57 2.5 3.082 3.081 2.499 3.57 1.842 3.95 1.128 4.209.379 4.341v530.427l-.379 4.341-1.128 4.209-1.842 3.95-2.499 3.569-3.082 3.082-3.57 2.499-3.949 1.842-4.209 1.128-4.342.38h-4513.05l-4.341-.38-4.21-1.128-3.949-1.842-3.57-2.499-3.081-3.082-2.5-3.569-1.841-3.95-1.128-4.209-.38-4.341V1439.86l.38-4.341 1.128-4.209 1.841-3.95 2.5-3.57 3.081-3.081 3.57-2.5 3.949-1.841 4.21-1.128 4.341-.38h4513.05l4.342.38zm-4492.39 49.62v480.427h4463.05V1464.86H1285.53z" fill="#fff"/><path d="M5777.92 300.375c3.722.997 4.782 1.02 8.158 2.969a25.142 25.142 0 0 1 10.993 13.101c1.333 3.663 1.172 4.711 1.507 8.55v530.427c-1.166 13.33-4.226 15.204-8.93 19.151-3.224 2.705-3.564 4.755-16.07 5.849h-4513.05c-13.33-1.167-15.204-4.227-19.151-8.931-2.705-3.223-4.755-3.564-5.849-16.069V324.995c1.094-12.505 3.144-12.846 5.849-16.07 3.947-4.703 5.821-7.764 19.151-8.93h4513.05l4.342.38zm-4492.39 49.62v480.427h4463.05V349.995H1285.53z" fill="#fff" fill-rule="nonzero"/><g fill="#ff0"><path d="M1132.06 1731.91c22.14 2.984 27.648 34.42 9.433 46.317-106.889 110.651-155.297 265.967-161.822 417.133-6.764 171.945 33.316 347.949 125.043 494.496 8.86 16.51 31.195 34.214 17.736 54.348-11.041 17.563-38.344 12.298-45.65-5.994-95.674-140.73-142.714-310.994-147.695-480.177-4.035-159.289 32.134-324.135 126.529-454.912 18.554-24.251 37.093-49.604 60.858-68.873 4.745-2.475 10.308-3.212 15.568-2.338z"/><path d="M988.622 1751.54c3.98.122 7.774-1.957 11.714-2.563 14.63-3.336 29.507-5.667 43.824-10.283 16.298-4.944 32.907-9.367 50.003-10.205 7.646-.68 15.496-.634 22.751-3.474 9.751-2.953 21.383-4.25 30.006 2.352 10.76 7.435 13.566 23.676 5.926 34.292-4.572 6.961-12.766 10.828-20.947 11.084a95.498 95.498 0 0 1-25.553 4.951c-11.533.76-23.141 1.673-34.268 5.026-16.034 4.53-31.973 9.528-48.421 12.387-11.352 1.8-22.191 6.039-33.629 7.315-13.068 1.234-26.248-8.353-28.414-21.429-2.606-12.536 6.037-26.02 18.546-28.821a25.12 25.12 0 0 1 8.462-.632zm22.589 23.914c-.024 7.204.139-2.196 0 0zm-.307-2.996c.01-.074-.082-.396 0 0zm-.629-2.866c.28.773-.56-1.786 0 0z"/><path d="M1142.33 1724.32c11.67.35 21.899 9.849 23.644 21.302 2.724 12.176 4.243 24.633 3.756 37.125-.98 30.431-2.142 60.879-4.541 91.234-.701 7.893-3.047 15.61-3.333 23.517.587 9.43-.726 19.908-7.991 26.704-8.908 9.194-24.825 9.702-34.319 1.125-8.124-6.86-11.762-18.867-7.74-28.887.031-12.205 4.162-23.996 4.318-36.213 1.691-27.91 3.174-55.848 3.636-83.806.15-8.3-2.032-16.358-3.568-24.423-1.592-12.758 8.104-25.617 20.889-27.376a25.202 25.202 0 0 1 5.249-.302zm15.039 169.554c-.369-.705-.424-.749 0 0zm8.287-139.847c.192-.949.142-1.083 0 0zm.321-2.401c-.093 1.397.2-3.062 0 0z"/></g><g fill="#ff0"><path d="M5962.95 624.659c81.53 64.663 149.996 145.557 210.89 229.826 212.71 300.337 287.924 681.642 254.567 1044.266-32.626 353.236-161.505 701.226-385.949 977.833-26.514 29.81-63.32-19.505-31.698-40.295 249.197-313.128 376.273-715.903 375.061-1114.376-1.097-334.984-104.587-677.086-326.37-932.747-38.675-46.74-84.353-87.162-126.988-129.802-9.584-19.528 9.885-41.697 30.487-34.705z"/><path d="M6081.93 625.116c12.907.922 23.539 13.189 22.61 26.094-.372 13.408-12.564 24.733-25.85 24.836-11.331-.117-21.946-4.803-33.026-6.642-15.466-2.79-30.674-6.762-45.695-11.357-11.293-3.453-22.923-5.823-34.744-6.318-10.25-.678-20.596-1.591-30.326-5.121-4.48-.872-9.273-.985-13.29-3.514-11.638-5.971-16.533-21.71-10.34-33.23 4.716-9.785 16.127-15.163 26.725-13.492 8.168.505 15.567 4.728 23.77 4.915 14.12 1.007 28.327 2.106 42.012 5.967 16.157 4.28 32.036 9.707 48.561 12.488 7.974 1.478 15.857 3.495 23.688 5.513a25.821 25.821 0 0 1 5.905-.139zm-27.528 24.74c.244 5.275.288-4.974.017-.14zm.529-4.232c-.092.607.108-.521 0 0zm.68-2.888c-.346 1.232.42-1.242 0 0z"/><path d="M5925.9 597.898c12.869.327 23.975 11.97 23.8 24.812-.086 6.244-2.46 12.168-3.1 18.368-1.42 13.67.138 27.427.377 41.123.929 20.37 1.695 40.769 3.46 61.085 1.223 9.035 3.518 18.014 3.676 27.131 5.504 14.1-4.456 31.279-19.181 34.09-12.238 2.894-25.654-4.905-29.367-16.888-2.578-6.782-1.115-14.115-1.982-21.107-2.069-11.182-3.727-22.446-4.102-33.827-1.602-27.431-3.042-54.887-3.474-82.363 0-11.93 1.91-23.808 4.906-35.325 3.354-10.45 14.012-17.787 24.987-17.099zm-17.372 169.319c-.378.714.683-1.23 0 0zm-7.377-135.222c1.848 4.051-1.482-4.819-.05-.214zm-1.1-4.677c.197.943-.249-1.685 0 0zm-.295-2.405c.192 2.04-.144-2.644 0 0z"/></g><g fill="#ff0"><path d="M1144.15 680.111c22.041 2.62 28.24 34.135 9.946 45.979-76.82 77.852-117.797 183.658-139.634 289.184-25.584 130.55-23.293 268.614 19.762 395.287 22.428 64.98 58.875 126.344 111.786 171.006 15.37 17.04-3.337 46.497-25.306 39.929-20.154-8.88-33.924-28.087-49.09-43.522-75.654-88.598-109.193-204.999-120.05-319.103-12.238-141.315 7.841-286.721 65.573-416.766 26.944-58.752 61.842-115.39 110.212-158.805a25.397 25.397 0 0 1 16.801-3.189z"/><path d="M1142.65 664.525c12.617.51 23.857 11.214 24.602 23.886 1.394 12.727-8.508 25.311-21.222 26.899-3.003.428-6.022-.11-8.785 1.403-10.947 4.124-22.482 6.19-34.023 7.819-22.684 3.658-43.499 13.906-64.006 23.768a83.415 83.415 0 0 1-22.142 7.029c-12.294 3.41-26.292-4.21-29.991-16.445-4.293-12.08 2.517-26.594 14.528-31.046 5.493-2.125 11.645-2.022 16.842-5.025 19.63-9.537 39.553-18.866 60.79-24.258 11.448-3.327 23.459-3.902 34.965-6.905 9.41-2.685 18.329-7.955 28.442-7.125zm-121.13 89.218c.681-.258.576-.304 0 0zm-8.477-47.558c4.86.653-.212-.195-.73-.045l.406.025zm104.321-14.299c.324 4.264-.129-2.44 0 0z"/><path d="M1153.21 666.585c12.174.794 21.502 10.708 25.845 21.472 4.734 12.341 2.046 25.869-.306 38.432-1.802 9.79-4.595 19.613-3.379 29.669 1.114 13.575 1.356 27.52-2.9 40.63-1.479 5.215-3.525 10.494-2.636 16.016.427 6.74-1.257 13.356-3.187 19.718-.338 7.127-.827 14.407-3.033 21.223-4.246 11.896-18.118 19.14-30.29 15.596-9.391-2.308-16.273-10.376-19.09-19.37-2.923-7.458-1.894-16.278 2.607-22.892.206-4.693 2.188-9.1 2.989-13.617-1.138-11.525 2.29-22.723 5.429-33.656 2.057-9.916-.421-20.058-.124-30.068-.194-13.5 3.675-26.554 5.814-39.774-10.535-12.253-6.056-33.565 8.471-40.61 4.214-2.194 9.056-3.147 13.79-2.769zm-38.603 184.31c.47 1.117.18.394 0 0zm60.549-156.17c.019-.005.018-.902 0 0z"/></g><g fill="#ff0"><path d="M5925.08 398.157c225.86 18.758 416.603 161.03 583.51 302.722 319.76 281.864 561.646 671.42 609.667 1100.28 15.71 207.759 20.68 429.86-74.005 621.441-11.19 27.773-35.794 52.417-45.756 78.249 84.228 278.704.794 580.864-145.793 823.402-140.957 237.72-360.77 428.344-620.253 525.51-108.583 40.446-223.302 69.928-339.227 74.38-42.309-23.72 3.732-59.174 35.858-51.697 338.461-36.207 655.064-229.783 842.256-514.075 154.244-228.373 252.434-515.142 193.06-791.345-3.174-15.15-4.501-36.719-19.622-16.355-60.264 51.065-156.652 60.748-217.371 4.537-76.98-69.14-115.687-182.514-94.017-284.039 9.499-52.094 64.069-88.535 115.43-73.926 115.784 28.045 184.198 142.857 228.297 241.817 108.057-175.19 105.076-391.344 95.266-589.747-31.905-411.768-253.981-790.18-550.77-1069.24-152.736-136.951-321.448-273.108-525.456-321.197-32.105-12.686-76.97 1.222-98.803-27.98-5.886-17.481 9.673-35.447 27.729-32.737zm798.947 1846.45c-40.076-.182-48.39 51.424-47.21 82.415 3.726 81.032 38.291 173.289 115.882 209.843 53.63 21.572 114.89-10.746 147.852-51.639-36.535-93.165-89.347-197.641-188.849-235.437-8.91-2.996-18.228-5.19-27.675-5.182z"/><path d="M5906.79 395.108l1.022.056 1.02.098 1.015.139 1.008.181 1 .222.99.263.978.303.965.343.951.382.934.421.915.458.897.496.875.532.015.01.676.446.662.467.646.489.63.51.672.561.851.805.457.446.395.394.726.754.694.784.661.812.074.099.623.664.881.933.897.947.885.927.836.871.75.773.583.595.332.332.688.632.867.804.855.798.861.809.866.82.854.814.844.811.849.821.846.823.842.826.833.822.829.823.827.827.832.837.837.849.81.827.816.837.821.849.81.843.807.845.806.849.81.859.792.846.799.857.793.858.794.861.797.873.772.851.794.877.781.873.767.857.749.844.82.923.786.87.809.885.814.88.811.868.815.86.839.875.842.87.833.852.857.866.86.863.864.855.873.86.877.855.887.857.89.853.899.855.895.846.912.854.92.857.918.849.931.857.929.85.923.84 1.907 1.724 1.914 1.714 1.936 1.724 1.943 1.721 1.961 1.729 5.993 5.269 2.024 1.783 2.031 1.797 2.044 1.814 2.049 1.834 2.047 1.843 1.045.948 1.032.941 1.029.945 1.028.947 1.038.962 1.036.967 1.045.982 1.035.981 1.02.972 1.042 1 1.038 1.008 1.034 1.01 1.03 1.016 1.049 1.043.42.424.411.421.407.423.448.474.741.803.753.837.734.845.679.803.656.796.618.771.595.758.572.747.514.683.506.682.471.648.444.613.796 1.115.708.993.647.898.268.366.258.347.236.311.253.326.227.288.201.246.204.245.209.242.19.214.248.27.078.083.086.09.093.096.17.171.723.757.69.787.657.816.622.842.587.868.549.891.512.914.473.934.433.953.393.971.352.986.311 1 .268 1.012.226 1.023.183 1.031.139 1.037.096 1.043.052 1.046.008 1.047-.035 1.047-.08 1.044-.123 1.04-.166 1.033-.21 1.026-.252 1.017-.295 1.004-.337.992-.377.976-.419.96-.458.942-.497.921-.536.9-.572.877-.609.852-.644.826-.678.798-.711.769-.742.738-.773.707-.801.674-.829.639-.855.605-.88.568-.903.53-.924.493-.944.453-.962.413-.978.373-.994.331-1.006.29-1.018.247-1.027.204-1.034.161-1.041.118-1.044.074-1.047.03-1.047-.013-1.046-.058-1.042-.101-1.037-.145-1.03-.188-1.021-.231-1.011-.274-.998-.316-.985-.357-.968-.398-.951-.438-.932-.478-.911-.517-.888-.554-.865-.591-.839-.626-.812-.661-.783-.695-.754-.727-.357-.358-.421-.432-.418-.437-.415-.443-.716-.777-.736-.83-.686-.796-.664-.794-.639-.786-.588-.745-.546-.704-.544-.717-.508-.683-.486-.665-.838-1.162-.768-1.078-.692-.968-.314-.434-.294-.404-.279-.376-.285-.38-.249-.324-.251-.32-.252-.314-.245-.298-.255-.301-.232-.268-.256-.284-.306-.332-.091-.096-.144-.15-.151-.155-.156-.157-.849-.844-.874-.862-.877-.858-.882-.854-.883-.849-.914-.871-.902-.855-.899-.845-.915-.854-.917-.85-.934-.86-.934-.857-.938-.855-.928-.842-1.911-1.721-1.92-1.718-1.939-1.722-1.955-1.729-1.97-1.735-3.99-3.509-2.008-1.766-2.03-1.789-2.04-1.807-2.039-1.816-2.05-1.836-2.043-1.847-1.046-.951-1.036-.948-1.027-.945-1.038-.961-1.027-.957-1.033-.967-1.042-.984-1.032-.981-1.035-.993-1.031-.997-1.034-1.007-1.03-1.014-1.032-1.022-1.027-1.03-1.024-1.035-1.037-1.06-1.018-1.052-1.014-1.059-1.028-1.084-1.02-1.091-1.01-1.092-1.004-1.099-1.016-1.124-.967-1.088-.705-.795-.694-.776-.678-.758-.675-.745-.698-.769-.677-.742-.689-.747-.688-.745-.692-.741-.7-.749-.689-.73-.698-.735-.7-.733-.702-.73-.696-.721-.708-.725-.716-.732-.695-.705-.707-.711-.716-.716-.719-.714-.721-.712-.714-.7-.719-.7-.721-.697-.731-.702-.725-.692-.721-.681-.731-.687-.742-.692-.736-.684-.868-.798-.431-.405-.496-.481-.816-.814-.874-.892-.92-.949-.976-1.017-1.002-1.05-.995-1.05-.954-1.011-.913-.972-.849-.913-.752-.818-.618-.685-.487-.55-.805-.966-.48-.649-.566-.799-.535-.819-.502-.841-.468-.859-.435-.877-.4-.893-.365-.908-.329-.922-.293-.934-.256-.945-.001-.005-.229-1.005-.188-1.013-.146-1.02-.103-1.025-.062-1.028-.019-1.03.024-1.03.066-1.028.108-1.025.151-1.019.192-1.013.234-1.003.275-.993.316-.981.356-.967.395-.951.434-.934.473-.916.509-.895.546-.874.582-.85.616-.826.65-.8.682-.772.714-.743.002-.003.739-.709.768-.679.794-.646.821-.613.844-.58.868-.544.89-.508.909-.471.928-.434.945-.395.96-.356.974-.317.987-.276.996-.236 1.006-.194 1.013-.154 1.018-.112 1.022-.07 1.024-.028 1.024.014z"/><path d="M6046.52 310.861c13.15.004 24.72 11.875 24.387 25.02.146 10.654-7.328 20.768-17.511 23.842-10.009 8.852-18.752 19.308-30.433 26.112-17.41 11.303-37.875 16.54-55.581 27.253-12.243 7.606-23.141 17.438-36.212 23.654-3.212 1.267-6.654 1.674-9.362 3.971-13.706 7.713-32.777-.127-37.787-14.858-4.905-12.4 1.67-27.598 13.868-32.823 4.845-2.418 10.412-2.791 15.592-3.55 14.715-9.806 28.584-21.135 44.94-28.211 14.85-7.187 31.265-11.831 44.252-22.37 10.977-9.774 20.56-22.583 35.217-26.941 2.805-.777 5.718-1.167 8.63-1.099zm-134.398 82.967c-.158-.04-1.02-.067 0 0zm-.708-.056c-.794-.06-1.805-.066 0 0zm135.051-32.925c1-.034 1.258-.066 0 0z"/></g></svg>