<svg viewBox="0 0 1921 1080" xmlns="http://www.w3.org/2000/svg" fill-rule="evenodd" clip-rule="evenodd" stroke-linejoin="round" stroke-miterlimit="1.414"><path d="M.13 0h1920v1080H.13z"/><path d="M1385.645 874.7l1.044.092 1.019.271.941.441.851.6.748.738.593.857.452.95.27 1.008.09 1.042v127.303l-.09 1.042-.27 1.01-.452.947-.593.858-.748.74-.85.6-.942.442-1.019.27-1.044.093H302.52l-1.045-.093-1.006-.27-.954-.442-.85-.6-.736-.74-.606-.858-.438-.946-.271-1.011-.09-1.042V880.7l.09-1.042.27-1.008.44-.95.605-.857.735-.737.851-.6.954-.442 1.006-.27 1.045-.093h566.352l2.32.472 1.91 1.29 1.289 1.908.477 2.32v.02l-.477 2.32-1.29 1.908-1.908 1.288-2.321.474H308.516v115.303h1071.133V886.7h-107.282l-3.276-.474-2.707-1.288-1.819-1.907-.67-2.321v-.011h2.489v-.009l.464-2.32 1.29-1.908 1.92-1.29 2.309-.472h113.278z" fill="#fff"/><path d="M870 741.759c-3.07 0-1.38 8.86-1.38 11.53 0 11.35 4.15 22.42 4.15 34.6 0 31.59-3.23 65.42-3.23 95.5M1263.07 742.679c0-.68-3.43 12.06-1.85 15.22 4.33 8.65 2.77 22.01 2.77 31.84 0 13.89-5.65 31.82-2.3 45.21 3.86 15.47 5.07 34 5.07 49.82" fill="none" stroke="#ff0" stroke-width="12" stroke-linecap="round" stroke-miterlimit="1.5"/><path d="M1386.69 607.225l1.018.271.941.441.851.6.748.738.593.857.452.95.27 1.008.09 1.042v127.303l-.09 1.042-.27 1.01-.452.947-.593.858-.748.74-.85.6-.942.442-1.019.27-1.044.093h-118.926l-2.321-.475-1.909-1.29-1.289-1.908-.464-2.318v-.022l.464-2.318 1.29-1.907 1.908-1.29 2.32-.473h112.93V619.133H308.517v115.303h560.24l3.288.472 2.695 1.29 1.818 1.908.67 2.318v.011h-2.488v.011l-.464 2.318-1.29 1.908-1.908 1.29-2.321.475H302.52l-1.045-.093-1.006-.27-.954-.442-.85-.6-.736-.74-.606-.858-.438-.946-.271-1.011-.09-1.042V613.132l.09-1.042.27-1.008.44-.95.605-.857.735-.737.851-.6.954-.442 1.006-.27 1.045-.093h1083.125l1.044.092zM1386.69 339.658l1.018.271.941.441.851.6.748.738.593.857.452.95.27 1.008.09 1.042v127.303l-.09 1.042-.27 1.01-.452.947-.593.858-.748.74-.85.6-.942.442-1.019.27-1.044.093H302.52l-1.045-.093-1.006-.27-.954-.442-.85-.6-.736-.74-.606-.858-.438-.946-.271-1.011-.09-1.042V345.565l.09-1.042.27-1.008.44-.95.605-.857.735-.737.851-.6.954-.442 1.006-.27 1.045-.093h1083.125l1.044.092zM308.515 351.566V466.87h1071.133V351.566H308.516z" fill="#fff"/><path d="M1386.69 72.088c.902.238 1.147.243 1.96.712a6.041 6.041 0 0 1 2.643 3.145c.31.877.283 1.128.36 2.05v127.303c-.283 3.2-1.018 3.65-2.153 4.597-.76.648-.85 1.14-3.855 1.405H302.52c-3.198-.282-3.65-1.017-4.59-2.145-.658-.774-1.148-.855-1.406-3.857V77.995c.258-3 .748-3.083 1.405-3.857.942-1.128 1.393-1.863 4.59-2.142h1083.126l1.044.092zM308.515 83.996V199.3h1071.133V83.996H308.516z" fill="#fff" fill-rule="nonzero"/><path d="M264.415 655.259c-44.858-63.33-51.891-174.88 6.244-233.69M271.729 419.419c-1.522 0-3.031.81-4.566 1.02-2.733.38-5.463.35-8.187.87-3.728.7-7.326 2.05-11.022 2.91-2.63.62-5.265 1-7.873 1.73-.901.25-1.855.48-2.755.63-.572.1-.668-.27-.63-.23M273.855 419.889c0-.46.397 1.85.472 2.21.423 2 .458 4.17.394 6.22-.207 6.62-.506 13.17-.945 19.76-.148 2.22-.704 4.36-.944 6.53-.043.38.242 3.95-.394 2.68" fill="none" stroke="#ff0" stroke-width="12" stroke-linecap="round" stroke-miterlimit="1.5"/><path d="M362.691 4192.26c-44.858-63.33-51.891-174.88 6.244-233.69" fill="none" stroke="#ff0" stroke-width="4.89" stroke-linecap="round" stroke-miterlimit="1.5" transform="matrix(-2.62147 0 0 2.27223 2396.31 -8839.193)"/><path d="M1424.035 149.077c1.522 0 3.031.81 4.566 1.02 2.733.38 5.463.35 8.187.87 3.728.7 7.326 2.05 11.022 2.91 2.63.62 5.265 1 7.873 1.73.901.25 1.855.48 2.755.63.572.1.668-.27.63-.23M1421.909 149.547c0-.46-.397 1.85-.472 2.21-.423 2-.458 4.17-.394 6.22.207 6.62.506 13.17.945 19.76.148 2.22.704 4.36.944 6.53.043.38-.242 3.95.394 2.68" fill="none" stroke="#ff0" stroke-width="12" stroke-linecap="round" stroke-miterlimit="1.5"/><g><path d="M270.37 383.329c-52.628-44.21-46.5-166.26 3.262-214.18M274.164 165.739c0-.8-2.714.44-2.86.49l-.98.33c-.516.17-1.028.35-1.552.49-2.164.59-4.427.75-6.617 1.23-4.082.88-7.916 2.39-11.683 4.16-1.768.83-3.577 1.79-5.392 2.45-.702.26-2.742.57-2.451.57" fill="none" stroke="#ff0" stroke-width="12" stroke-linecap="round" stroke-miterlimit="1.5"/><path d="M276.043 166.559c0-1.63 1.374.53 1.47 1.14.285 1.8-.244 4.11-.571 5.89-.35 1.9-.836 3.77-.9 5.71-.085 2.68.463 5.43.083 8.09-.298 2.09-1.238 4.02-1.39 6.13-.061.86.097 1.75 0 2.61-.126 1.14-.734 2.1-.734 3.27 0 .92-.081 1.8-.245 2.7-.047.25-.014.85-.245.73-.192-.09-.39-.77-.491-.98" fill="none" stroke="#ff0" stroke-width="12" stroke-linecap="round" stroke-miterlimit="1.5"/></g><g><path d="M1421.05 101.509c46.23 3.08 89.26 32.03 124.13 60.32 85.83 69.63 153.42 177.17 158.65 289.46 2.18 46.94.61 104.69-28.86 143.93-4.72 6.27-11.35 12.67-18.26 16.41-60.32 32.62-87-109.72-24.62-72.74 5.23 3.1 10.06 7.2 14.07 11.76 6.32 7.19 12.19 15.65 16.6 24.12 53.36 102.55-13.97 242.74-100.36 305.98-43.08 31.52-93.08 50.86-146.21 55.33" fill="none" stroke="#ff0" stroke-width="12" stroke-linecap="round" stroke-miterlimit="1.5"/><path d="M1417.61 101.009c-.89-.9 1.63 1.79 2.05 2.16 2.06 1.89 4 3.89 5.86 5.99 4.57 5.17 10.07 9.18 14.92 14.03 1.48 1.49 1.95 2.72 3.31 4.08M1418.38 100.489c-.44 0-.95-.53-.25-.76 1.08-.36 2.42-.03 3.44-.64 2.61-1.56 4.92-3.47 7.52-5.1 4.75-2.97 10.44-4.17 14.92-7.65 2.07-1.61 5.44-5.73 7.01-5.73" fill="none" stroke="#ff0" stroke-width="12" stroke-linecap="round" stroke-miterlimit="1.5"/></g></svg>