<svg viewBox="0 0 1921 1080" xmlns="http://www.w3.org/2000/svg" fill-rule="evenodd" clip-rule="evenodd" stroke-linejoin="round" stroke-miterlimit="1.414"><path d="M.13 0h1920v1080H.13z"/><path d="M1386.688 874.792l1.019.271.941.441.851.6.748.738.593.857.452.95.27 1.008.09 1.042v127.303l-.09 1.042-.27 1.01-.452.947-.593.858-.748.74-.85.6-.942.442-1.019.27-1.044.093H302.519l-1.045-.093-1.006-.27-.954-.442-.85-.6-.736-.74-.606-.858-.438-.946-.271-1.011-.09-1.042V880.7l.09-1.042.27-1.008.44-.95.605-.857.735-.737.851-.6.954-.442 1.006-.27 1.045-.093h1083.125l1.044.092zM308.515 886.7v115.303h1071.133V886.7H308.515zM1386.688 607.225l1.019.271.941.441.851.6.748.738.593.857.452.95.27 1.008.09 1.042v127.303l-.09 1.042-.27 1.01-.452.947-.593.858-.748.74-.85.6-.942.442-1.019.27-1.044.093H302.519l-1.045-.093-1.006-.27-.954-.442-.85-.6-.736-.74-.606-.858-.438-.946-.271-1.011-.09-1.042V613.132l.09-1.042.27-1.008.44-.95.605-.857.735-.737.851-.6.954-.442 1.006-.27 1.045-.093h1083.125l1.044.092zM308.515 619.133v115.303h1071.133V619.133H308.515zM1386.688 339.658l1.019.271.941.441.851.6.748.738.593.857.452.95.27 1.008.09 1.042v127.303l-.09 1.042-.27 1.01-.452.947-.593.858-.748.74-.85.6-.942.442-1.019.27-1.044.093H302.519l-1.045-.093-1.006-.27-.954-.442-.85-.6-.736-.74-.606-.858-.438-.946-.271-1.011-.09-1.042V345.565l.09-1.042.27-1.008.44-.95.605-.857.735-.737.851-.6.954-.442 1.006-.27 1.045-.093h1083.125l1.044.092zM308.515 351.566V466.87h1071.133V351.566H308.515zM1386.688 72.088l1.019.271.941.441.851.6.748.738.593.857.452.95.27 1.008.09 1.042v127.303l-.09 1.042-.27 1.01-.452.947-.593.858-.748.74-.85.6-.942.442-1.019.27-1.044.093H302.519l-1.045-.093-1.006-.27-.954-.442-.85-.6-.736-.74-.606-.858-.438-.946-.271-1.011-.09-1.042V77.995l.09-1.042.27-1.008.44-.95.605-.857.735-.737.851-.6.954-.442 1.006-.27 1.045-.093h1083.125l1.044.092zM308.515 83.996V199.3h1071.133V83.996H308.515z" fill="#fff"/><path d="M271.695 415.659l.704.17.68.25.644.33.599.41.546.48.485.53.416.6.341.64.262.67.179.7.093.72.005.73-.082.72-.168.7-.252.68-.331.64-.408.6-.476.55-.331.34-.321.32-.321.34-.32.33-.317.33-.316.33-.315.34-.314.34-.312.33-.31.34-.31.34-.308.34-.307.34-.305.35-.303.34-.303.35-.301.34-.3.35-.299.35-.296.35-.295.35-.295.35-.292.36-.292.35-.29.36-.289.35-.287.36-.286.36-.285.36-.283.36-.281.36-.281.36-.279.37-.279.36-.275.37-.275.36-.274.37-.273.37-.271.37-.269.37-.268.37-.268.37-.265.38-.265.37-.262.38-.261.38-.262.37-.258.38-.257.38-.257.38-.254.38-.254.39-.252.38-.251.39-.25.38-.248.39-.247.39-.245.38-.244.39-.243.39-.242.4-.24.39-.239.39-.237.39-.236.4-.235.4-.234.39-.233.4-.23.4-.23.4-.228.4-.227.4-.226.4-.224.41-.223.4-.221.4-.221.41-.219.41-.218.41-.216.4-.215.41-.214.41-.213.41-.211.42-.21.41-.208.41-.208.42-.206.41-.204.42-.203.41-.202.42-.201.42-.2.42-.198.42-.197.42-.195.42-.194.42-.194.43-.191.42-.19.43-.19.42-.187.43-.187.42-.185.43-.184.43-.183.43-.181.43-.18.43-.179.43-.177.43-.176.44-.175.43-.174.44-.172.43-.171.44-.17.43-.169.44-.167.44-.166.44-.164.44-.164.44-.162.44-.161.44-.159.44-.159.44-.157.45-.155.44-.155.45-.153.44-.152.45-.151.44-.149.45-.148.45-.147.45-.146.45-.144.45-.143.45-.142.45-.14.45-.14.45-.138.46-.137.45-.135.45-.134.46-.133.45-.132.46-.131.46-.129.45-.128.46-.127.46-.125.46-.124.46-.123.46-.122.46-.121.46-.119.46-.118.46-.117.46-.115.47-.114.46-.114.46-.111.47-.111.46-.109.47-.108.46-.107.47-.106.47-.104.47-.103.46-.102.47-.101.47-.099.47-.098.47-.097.47-.096.47-.095.47-.093.47-.092.48-.091.47-.089.47-.089.47-.087.48-.086.47-.085.48-.083.47-.082.48-.081.47-.08.48-.079.47-.077.48-.077.48-.075.48-.073.47-.073.48-.071.48-.07.48-.069.48-.068.48-.067.48-.065.48-.064.48-.063.48-.062.48-.06.49-.06.48-.058.48-.057.48-.055.48-.055.49-.053.48-.052.49-.051.48-.05.48-.048.49-.048.48-.046.49-.045.48-.044.49-.042.49-.042.48-.04.49-.039.48-.038.49-.037.49-.035.48-.034.49-.034.49-.032.49-.03.49-.03.48-.029.49-.027.49-.026.49-.025.49-.024.49-.022.49-.022.49-.02.49-.019.49-.018.49-.017.49-.015.49-.015.49-.013.49-.012.49-.011.49-.01.49-.009.49-.007.49-.006.49-.006.49-.004.5-.003.49-.001.49-.001.49.001.49.001.49.003.5.004.49.005.49.007.49.007.49.009.5.009.49.011.49.012.49.013.5.014.49.016.49.016.49.018.49.019.5.019.49.022.49.022.49.023.5.024.49.026.49.026.49.028.49.029.5.03.49.031.49.032.49.034.49.034.5.036.49.036.49.038.49.039.49.04.49.041.49.042.49.044.49.044.5.046.49.046.49.048.49.049.49.05.49.051.49.052.49.053.49.054.49.056.49.056.49.058.49.058.49.06.49.061.48.062.49.063.49.064.49.065.49.066.49.068.48.068.49.069.49.071.48.071.49.073.49.074.48.075.49.075.49.077.48.079.49.079.48.08.49.081.48.082.48.083.49.085.48.085.48.087.49.087.48.089.48.089.49.091.48.092.48.093.48.094.48.094.48.096.48.097.48.098.48.099.48.101.48.101.48.102.48.103.47.104.48.106.48.106.48.107.47.108.48.11.47.11.48.112.47.112.48.114.47.114.47.116.48.116.47.118.47.118.47.12.48.12.47.122.47.123.47.123.47.125.46.126.47.126.47.128.47.128.47.13.46.131.47.131.46.133.47.134.46.134.47.136.46.136.46.138.47.139.46.139.46.141.46.142.46.142.46.143.46.145.46.145.46.147.46.147.45.149.46.149.46.15.45.152.45.152.46.153.45.155.46.155.45.156.45.157.45.158.45.159.45.16.45.161.45.162.45.163.44.164.45.164.45.166.44.167.45.168.44.168.44.169.45.171.44.171.44.173.44.173.44.174.44.175.44.176.43.177.44.178.44.179.43.18.44.181.43.182.44.182.43.183.43.185.43.185.43.186.43.188.43.187.43.189.43.19.42.191.43.192.42.192.43.194.42.194.42.196.42.196.42.197.42.198.42.199.42.2.42.2.42.202.41.203.42.203.41.204.42.205.41.207.41.206.41.208.41.209.41.21.41.21.4.211.41.213.41.212.4.214.4.215.41.216.4.217.4.216.4.219.4.219.4.22.39.221.4.221.4.223.39.224.39.224.4.225.39.226.39.227.39.227.39.228.38.23.39.23.39.231.38.232.38.233.39.233.38.234.38.236.38.236.38.236.38.238.37.238.38.24.37.24.38.241.37.241.37.243.37.243.37.245.37.245.36.245.37.247.36.247.37.249.36.249.36.249.36.251.36.252.36.257.36.381.62.305.66.222.69.139.71.051.72-.036.72-.123.72-.208.69-.291.67-.368.62-.441.58-.507.51-.565.46-.616.38-.658.3-.689.23-.711.13-.723.06-.724-.04-.714-.12-.694-.21-.664-.29-.624-.37-.575-.44-.517-.51-.453-.56-.268-.38-.271-.39-.27-.39-.271-.39-.269-.39-.267-.39-.267-.39-.266-.4-.266-.39-.264-.4-.262-.39-.263-.4-.261-.4-.261-.4-.26-.4-.258-.4-.257-.4-.256-.41-.256-.4-.255-.41-.254-.41-.252-.4-.252-.41-.251-.41-.25-.41-.248-.42-.249-.41-.247-.41-.245-.42-.246-.41-.244-.42-.243-.42-.242-.42-.241-.42-.241-.42-.239-.42-.238-.42-.237-.42-.237-.43-.236-.42-.234-.43-.233-.43-.233-.42-.231-.43-.231-.43-.229-.43-.229-.43-.228-.44-.226-.43-.226-.43-.225-.44-.223-.43-.223-.44-.222-.44-.221-.44-.219-.43-.219-.45-.218-.44-.217-.44-.215-.44-.215-.44-.214-.45-.213-.44-.212-.45-.211-.44-.21-.45-.209-.45-.207-.45-.208-.45-.205-.45-.205-.45-.204-.45-.203-.45-.202-.46-.201-.45-.2-.46-.199-.45-.197-.46-.198-.46-.196-.45-.194-.46-.195-.46-.192-.46-.192-.46-.191-.46-.19-.47-.189-.46-.187-.46-.187-.47-.186-.46-.185-.47-.184-.47-.182-.46-.182-.47-.181-.47-.179-.47-.179-.47-.178-.47-.176-.47-.176-.47-.174-.48-.174-.47-.172-.47-.172-.48-.17-.47-.17-.48-.168-.47-.167-.48-.167-.48-.165-.47-.164-.48-.163-.48-.163-.48-.161-.48-.16-.48-.159-.49-.158-.48-.157-.48-.156-.48-.155-.49-.153-.48-.153-.49-.152-.48-.151-.49-.149-.48-.149-.49-.147-.49-.147-.49-.145-.49-.145-.49-.143-.49-.142-.49-.141-.49-.14-.49-.139-.49-.138-.49-.137-.49-.136-.5-.135-.49-.134-.5-.132-.49-.132-.5-.13-.49-.13-.5-.128-.49-.127-.5-.126-.5-.126-.5-.124-.49-.123-.5-.122-.5-.12-.5-.12-.5-.119-.5-.117-.5-.117-.5-.115-.51-.114-.5-.114-.5-.112-.5-.111-.51-.11-.5-.109-.5-.107-.51-.107-.5-.105-.51-.105-.5-.103-.51-.103-.5-.101-.51-.1-.51-.099-.51-.098-.5-.096-.51-.096-.51-.094-.51-.094-.51-.092-.5-.091-.51-.09-.51-.089-.51-.088-.51-.087-.51-.085-.51-.085-.52-.083-.51-.083-.51-.081-.51-.08-.51-.079-.51-.077-.52-.077-.51-.075-.51-.075-.52-.073-.51-.072-.51-.071-.52-.07-.51-.068-.52-.068-.51-.066-.52-.066-.51-.064-.52-.063-.51-.062-.52-.06-.51-.06-.52-.058-.51-.057-.52-.057-.52-.054-.51-.054-.52-.053-.52-.051-.52-.051-.51-.049-.52-.048-.52-.047-.52-.045-.51-.045-.52-.043-.52-.042-.52-.041-.52-.04-.52-.039-.51-.038-.52-.036-.52-.035-.52-.034-.52-.033-.52-.032-.52-.03-.52-.029-.52-.028-.52-.027-.52-.026-.52-.025-.51-.023-.52-.022-.52-.021-.52-.02-.52-.019-.52-.017-.52-.016-.52-.015-.52-.014-.52-.013-.52-.011-.52-.01-.52-.009-.52-.008-.52-.007-.52-.005-.52-.005-.52-.003-.52-.001-.52-.001-.52.001-.52.002-.52.003-.52.004-.52.005-.52.007-.52.008-.52.009-.51.011-.52.011-.52.013-.52.014-.52.015-.52.017-.52.018-.52.019-.52.02-.51.021-.52.023-.52.024-.52.025-.52.026-.51.028-.52.029-.52.03-.52.031-.52.033-.51.034-.52.035-.52.037-.51.037-.52.039-.52.04-.51.042-.52.042-.51.044-.52.045-.51.047-.52.048-.51.049-.52.05-.51.051-.52.053-.51.054-.52.056-.51.056-.51.058-.52.059-.51.061-.51.061-.51.063-.52.065-.51.065-.51.067-.51.068-.51.07-.51.071-.51.072-.51.073-.51.075-.51.076-.51.077-.51.078-.51.08-.51.081-.51.083-.5.083-.51.085-.51.087-.51.087-.5.089-.51.091-.5.091-.51.093-.5.094-.51.096-.5.097-.51.098-.5.1-.5.101-.51.102-.5.103-.5.105-.5.106-.5.108-.5.109-.5.11-.5.111-.5.113-.5.114-.5.116-.5.117-.5.118-.49.12-.5.12-.5.123-.49.123-.5.125-.49.127-.5.127-.49.129-.5.131-.49.132-.49.133-.49.134-.5.136-.48.137-.5.139-.49.14-.49.141-.49.143-.48.144-.49.146-.49.146-.49.148-.48.15-.49.151-.48.153-.49.153-.48.155-.49.157-.48.158-.48.159-.48.161-.48.162-.48.163-.48.166-.48.166-.48.168-.48.169-.48.17-.48.172-.47.173-.48.175-.47.176-.48.178-.47.179-.47.18-.48.182-.47.183-.47.185-.47.186-.47.187-.47.189-.47.191-.47.192-.46.193-.47.195-.47.196-.46.197-.46.199-.47.201-.46.201-.46.204-.46.204-.46.206-.47.208-.45.209-.46.21-.46.213-.46.213-.45.215-.46.216-.45.218-.46.219-.45.221-.45.222-.46.224-.45.225-.45.227-.44.228-.45.229-.45.231-.45.232-.44.235-.45.235-.44.237-.45.238-.44.24-.44.241-.44.243-.44.244-.44.246-.44.247-.43.249-.44.25-.44.253-.43.252-.43.255-.44.256-.43.258-.43.26-.43.26-.43.262-.43.264-.43.265-.42.267-.43.268-.42.27-.43.272-.42.272-.42.275-.42.275-.42.277-.42.28-.42.28-.41.282-.42.284-.42.284-.41.287-.41.288-.41.289-.41.292-.41.292-.41.294-.41.296-.41.297-.4.299-.41.3-.4.302-.4.304-.4.304-.4.306-.4.308-.4.311-.4.311-.4.312-.39.314-.39.316-.4.317-.39.319-.39.321-.39.321-.38.324-.39.325-.39.327-.38.328-.39.33-.38.331-.38.333-.38.335-.38.336-.38.337-.37.339-.38.34-.37.343-.38.345-.37.345-.37.346-.37.349-.37.351-.36.351-.37.353-.36.355-.37.349-.35.539-.49.593-.41.639-.34.676-.27.702-.17.718-.1h.725l.72.08z" fill="#ff0"/><path d="M237.241 420.369l.273.03.053.01.056-.01.143-.04.141-.04.132-.03.144-.04.141-.04.153-.04.277-.07.284-.08.28-.07.285-.08.28-.07.281-.06.275-.07.271-.06.276-.06.266-.06.267-.06.271-.06.515-.1.516-.11.503-.1.494-.1.488-.09.473-.1.471-.1.229-.05.227-.04.222-.05.221-.05.222-.05.213-.05.308-.07.302-.08.305-.08.312-.08.312-.08.315-.08.322-.09.322-.09.321-.09.329-.1.671-.19.68-.2.694-.21.705-.2.359-.1.362-.1.368-.11.37-.1.373-.1.377-.1.385-.1.385-.09.387-.1.386-.09.207-.04.203-.05.196-.04.203-.04.204-.05.196-.04.212-.04.202-.04.163-.03.177-.03.304-.05.32-.05.316-.05.305-.04.306-.04.306-.04.301-.04.291-.03.291-.03.286-.02.287-.03.281-.02.274-.03.534-.04.525-.04.507-.04.497-.04.238-.02.236-.02.23-.02.231-.02.226-.02.216-.02.216-.02.216-.03.211-.03.189-.02h.011l.017-.01h.034l.04-.01.057-.01.058-.02.067-.02.084-.02.093-.02.101-.03.109-.04.122-.03.28-.09.304-.09.17-.05.175-.05.191-.06.201-.05.217-.06.218-.06.228-.05.245-.05.239-.05.15-.03.124-.02.143-.02.142-.03.143-.02.162-.02.126-.01.162-.02.162-.01.145-.01.163-.01.163-.01h.594l.285.02.284.03.282.05.279.06.276.07.273.09.268.1.263.11.258.12.251.13.245.15.238.16.229.17.222.18.212.19.203.2.194.21.183.22.172.23.162.23.15.25.138.25.127.25.114.26.101.27.089.27.076.28.062.28.049.28.036.28.022.29.008.28-.005.29-.018.28-.032.29-.046.28-.059.28-.072.27-.086.28-.098.26-.111.27-.123.26-.135.25-.147.24-.159.24-.17.23-.18.22-.191.21-.201.21-.21.19-.219.18-.227.18-.236.16-.243.15-.25.14-.256.12-.261.11-.267.11-.272.08-.275.08-.279.06-.281.05-.284.04-.284.02-.203.01h-.031l-.039.01-.057.01-.066.02-.067.02-.085.02-.093.03-.11.03-.114.04-.266.08-.29.08-.164.06-.176.05-.184.05-.193.06-.202.05-.219.06-.228.05-.229.06-.248.05-.248.05-.151.02-.143.03-.125.02-.132.02-.324.04-.301.04-.297.03-.296.03-.297.03-.286.03-.281.03-.282.02-.276.02-.274.02-.527.05-.517.03-.499.04-.489.04-.238.02-.23.02-.225.02-.225.02-.221.03-.22.02-.21.02-.205.03-.206.03-.205.03-.196.03-.191.03-.206.03-.079.02-.092.01-.147.03-.138.03-.152.03-.145.03-.144.03-.151.03-.145.03-.14.04-.306.07-.306.07-.305.08-.305.08-.312.08-.315.08-.318.09-.319.09-.325.09-.327.09-.666.2-.676.19-.69.21-.7.2-.358.1-.364.11-.365.1-.366.1-.373.1-.377.1-.377.1-.386.1-.389.09-.384.09-.28.07-.272.06-.271.06-.272.06-.266.06-.265.05-.515.11-.513.1-.498.1-.492.1-.482.09-.47.1-.468.1-.221.04-.225.05-.225.05-.216.05-.22.05-.215.05-.21.05-.21.05-.205.06-.21.05-.205.06-.212.05-.187.06-.2.05-.199.05-.213.06-.205.05-.204.05-.21.05-.216.05-.208.05-.215.05-.22.04-.212.05-.218.04-.224.04-.223.04-.277.05-.239.04-.305.03-.335.02h-.338l-.339-.01-.372-.04-.368-.06-.327-.06-.353-.09-.38-.12-.363-.15-.344-.16-.324-.17-.34-.21-.31-.22-.251-.19-.297-.26-.261-.26-.239-.26-.211-.27-.191-.26-.194-.3-.173-.31-.085-.17-.121-.26-.109-.27-.007-.02-.082-.23-.073-.24-.064-.23-.001-.01-.057-.26-.045-.26-.034-.26v-.01l-.022-.26-.01-.26v-.26l.012-.25.023-.26.001-.01.038-.28.052-.28.065-.28.078-.27.091-.27.104-.27.117-.26.129-.26.141-.25.153-.24.163-.23.175-.23h.002l.182-.21.191-.21.202-.19.21-.19.218-.18.227-.16.234-.16.24-.14.248-.13.253-.12.259-.11.263-.1.268-.08.271-.07.275-.06.276-.05.279-.03.28-.02.28-.01h.003l.275.01.274.02zm5.452 5.81l.001.29-.012.26.041-.36-.04-.38.01.19zm-.084-.85l.017.12-.013-.12-.027-.11.023.11zm-.159-.67l-.016-.07-.017-.05.033.12z" fill="#ff0"/><path d="M274.143 413.839l.277.02.277.03.275.04.273.06.269.07.266.09.262.09.257.11.252.12.247.13.239.14.233.15h.004l.217.16.209.17.202.17.195.19.185.19.177.2.168.21.158.22.148.22h.004l.117.2.11.19.102.2.112.23.154.4.102.31.067.24.043.17.035.15.032.14.047.22.049.24.047.24.087.46.079.43.061.33.017.09.01.05.043.21.05.26.046.26.044.26.039.25.038.26.034.25.031.26.029.25.026.25.024.24.021.25.019.25.018.24.015.24.013.24.011.24.01.24.008.24.006.23.005.24.004.23.002.23.001.22v.23l-.001.22-.003.22-.003.22-.004.22-.005.22-.012.41-.04 1.26-.043 1.25-.044 1.25-.048 1.25-.049 1.25-.053 1.25-.054 1.24-.058 1.25-.06 1.25-.063 1.25-.066 1.24-.069 1.25-.036.62-.037.63-.037.62-.038.62-.039.63-.039.62-.041.63-.042.64-.019.26-.022.27-.025.27-.028.26-.029.26-.031.25-.032.25-.034.25-.035.24-.035.24-.036.23-.038.24-.073.44-.074.43-.141.82-.066.38-.063.38-.028.17-.027.18-.026.17-.025.16-.022.17-.021.15.007.24.009.31.007.34.003.2.001.2v.21l-.002.22-.006.22-.009.24-.014.24-.012.16-.014.15-.017.16-.021.17-.028.19-.038.22-.05.24-.066.27-.094.32-.139.4-.1.23-.084.18-.09.18-.096.18-.131.23-.285.43-.303.37-.152.16-.159.17-.165.16-.17.15-.008.01-.211.17-.219.16-.008.01-.232.15-.24.15-.245.13-.008.01-.209.1-.212.09-.215.09-.219.08h-.008l-.208.06-.21.06-.212.05h-.008l-.237.05-.238.04-.24.02-.24.02h-.009l-.23.01h-.23l-.23-.01-.23-.02h-.009l-.28-.04-.277-.05-.275-.06h-.01l-.239-.06-.236-.08-.233-.08h-.01l-.201-.09-.197-.08-.194-.1h-.01l-.241-.13-.235-.15-.211-.13-.358-.27-.286-.25-.279-.26-.193-.22-.156-.18-.211-.27-.204-.29-.173-.28-.146-.25-.081-.16-.131-.27-.117-.27-.104-.28-.09-.29-.075-.29-.061-.29-.046-.3-.032-.29-.016-.3-.002-.3.013-.3.029-.3.043-.29.057-.3.073-.29.086-.28.093-.26-.003-.15-.003-.16v-.18l.005-.23.011-.21.018-.21.037-.32.031-.25.032-.25.034-.24.035-.24.035-.23.037-.23.037-.23.073-.44.073-.43.141-.81.065-.38.063-.38.027-.17.027-.17.026-.18.024-.16.023-.17.02-.16.02-.16.017-.15.015-.15.014-.15.012-.14.012-.16.039-.59.039-.61.039-.61.038-.61.037-.61.036-.61.036-.61.035-.61.067-1.22.065-1.22.061-1.22.059-1.21.057-1.23.054-1.22.051-1.22.048-1.22.047-1.23.044-1.22.041-1.23.04-1.22.01-.36.003-.17.004-.17.002-.17.002-.16.001-.17v-.17l-.001-.16-.001-.16-.003-.17-.003-.16-.005-.16-.005-.15-.006-.16-.007-.15-.009-.15-.009-.16-.011-.14-.011-.15-.013-.14-.013-.14-.015-.15-.016-.13-.016-.14-.018-.13-.019-.13-.02-.13-.021-.12-.021-.12-.023-.12-.034-.17-.026-.13-.032-.16-.066-.36-.075-.41-.076-.4-.005-.03-.012-.03-.086-.29-.072-.29-.057-.29-.043-.3-.027-.29-.013-.3.002-.3.001-.04.016-.27.028-.28.001-.01.032-.22.041-.23.05-.22.002-.01.073-.27.087-.27.1-.27.112-.26.124-.26.136-.25h.003l.143-.24.154-.23.164-.22.175-.21.183-.21.194-.2.202-.18.21-.18.219-.17.226-.16h.001l.249-.16.256-.14.262-.13.269-.12.275-.11.279-.09.283-.08.287-.06.29-.05.291-.04.294-.02.293-.01h.002l.279.01zm3.619 40.68l-.022-.04-.049-.09.071.13zm1.993-33.55l-.007.04.02-.08.019-.16-.032.2zm.079-.59l-.013.13.022-.18.008-.25-.017.3z" fill="#ff0"/><g><path d="M274.597 163.229l.681.15.659.23.627.31.588.37.54.44.485.5.424.56.357.6.284.64.209.66.13.69.05.69-.032.7-.112.69-.192.67-.268.64-.341.61-.409.57-.473.51-.281.27-.271.27-.269.26-.268.27-.268.27-.266.27-.266.27-.265.27-.264.28-.263.28-.263.28-.263.28-.26.28-.259.28-.259.29-.259.28-.258.29-.256.29-.256.29-.255.29-.254.3-.254.3-.251.29-.252.3-.251.3-.25.31-.249.3-.248.31-.247.3-.246.31-.247.31-.243.31-.244.31-.244.32-.241.32-.241.31-.241.32-.239.32-.238.33-.238.32-.237.32-.236.33-.235.33-.234.33-.233.33-.233.33-.231.33-.23.34-.23.33-.229.34-.227.34-.227.34-.226.34-.225.35-.224.34-.224.35-.222.35-.221.34-.22.35-.22.36-.219.35-.217.35-.217.36-.216.35-.215.36-.214.36-.213.36-.212.37-.211.36-.21.36-.21.37-.208.36-.207.37-.207.37-.205.37-.205.38-.204.37-.202.37-.202.38-.201.38-.199.37-.199.38-.198.38-.197.38-.196.39-.195.38-.194.39-.193.38-.192.39-.191.39-.19.38-.189.4-.189.39-.187.39-.186.4-.185.39-.184.4-.184.39-.182.4-.181.4-.181.4-.179.4-.178.41-.178.4-.176.4-.175.41-.174.41-.174.4-.172.41-.172.41-.17.41-.169.41-.169.42-.167.41-.167.41-.165.42-.164.41-.163.42-.163.42-.161.42-.16.42-.159.42-.159.42-.157.42-.156.43-.155.42-.154.43-.153.42-.153.43-.151.43-.15.43-.149.43-.148.43-.147.43-.145.43-.146.44-.143.43-.143.43-.142.44-.141.43-.139.44-.139.44-.138.44-.136.44-.136.44-.134.44-.134.44-.132.44-.131.44-.131.45-.129.44-.128.45-.127.44-.126.45-.125.44-.124.45-.123.45-.122.45-.121.45-.12.45-.118.45-.118.45-.117.45-.115.46-.115.45-.113.45-.112.46-.111.45-.111.46-.109.45-.108.46-.107.46-.106.46-.104.46-.104.45-.103.46-.101.46-.101.46-.099.46-.099.47-.097.46-.096.46-.095.46-.094.47-.093.46-.092.47-.091.46-.089.47-.089.46-.087.47-.087.46-.085.47-.084.47-.084.47-.082.46-.081.47-.079.47-.079.47-.078.47-.076.47-.076.47-.074.47-.074.47-.072.47-.071.47-.07.48-.069.47-.067.47-.067.47-.066.48-.064.47-.063.47-.063.48-.061.47-.06.47-.059.48-.057.47-.057.48-.056.47-.054.48-.054.48-.052.47-.051.48-.05.47-.049.48-.048.48-.046.47-.046.48-.044.48-.043.48-.043.47-.041.48-.04.48-.038.48-.038.47-.037.48-.035.48-.034.48-.034.47-.032.48-.031.48-.029.48-.029.48-.028.48-.026.47-.025.48-.024.48-.023.48-.022.48-.021.48-.02.48-.018.47-.017.48-.017.48-.015.48-.014.48-.012.48-.012.47-.011.48-.009.48-.008.48-.007.47-.006.48-.005.48-.004.48-.002.48-.002.47v.48l.001.48.002.48.003.47.005.48.005.47.007.48.008.48.009.47.01.48.011.47.012.48.014.47.015.48.016.47.017.48.018.47.019.48.021.47.021.47.023.48.024.47.025.47.026.47.028.48.028.47.03.47.031.47.032.47.033.47.034.47.036.47.037.47.037.47.039.46.041.47.041.47.042.47.044.46.045.47.046.47.047.46.048.47.05.46.05.47.052.46.053.46.054.47.056.46.056.46.058.46.059.46.059.46.062.46.062.46.063.46.065.46.066.46.067.46.068.45.069.46.071.45.071.46.073.45.074.46.076.45.076.45.077.46.079.45.08.45.081.45.082.45.084.45.084.44.086.45.087.45.088.45.089.44.091.45.091.44.093.44.094.45.095.44.096.44.098.44.099.44.099.44.101.44.103.43.103.44.104.44.106.43.107.44.108.43.109.43.111.43.111.44.113.43.114.42.115.44.116.42.118.43.118.42.12.43.121.43.122.42.124.42.124.42.126.42.127.42.128.42.129.42.13.42.132.41.133.42.134.41.135.42.136.41.137.41.139.41.14.41.141.41.142.41.143.4.145.41.145.4.147.41.148.4.149.4.15.4.152.4.153.4.153.39.155.4.157.4.157.39.158.39.16.39.161.39.162.39.163.39.164.39.166.38.166.39.169.38.169.39.169.38.172.38.172.38.174.37.175.38.176.38.177.37.178.37.18.38.18.37.182.36.183.37.184.37.186.37.186.36.188.36.189.36.189.37.191.36.193.35.193.36.194.35.196.36.197.35.198.35.199.35.201.35.2.35.203.35.205.34.205.35.205.34.207.34.208.34.21.33.211.34.212.34.213.33.213.33.215.33.218.33.217.33.218.33.22.32.221.33.223.32.222.32.225.32.225.32.227.31.227.32.23.31.23.32.231.31.232.3.233.31.236.31.235.3.236.31.239.3.24.3.239.3.242.29.242.3.243.29.247.3.245.29.246.29.249.28.25.29.251.29.251.28.252.28.254.28.255.28.257.27.256.28.258.27.261.27.26.27.262.27.263.27.265.26.266.27.265.26.268.26.268.26.269.25.271.26.274.26.272.25.274.25.276.25.277.24.277.25.28.24.281.24.279.24.294.25.506.48.447.54.382.58.311.63.237.65.159.68.079.69-.002.7-.083.7-.163.67-.24.66-.315.62-.385.58-.45.54-.509.47-.561.42-.605.35-.642.27-.669.2-.687.12-.697.04-.696-.05-.687-.12-.668-.2-.64-.28-.603-.35-.559-.42-.321-.27-.334-.28-.329-.29-.328-.29-.327-.29-.325-.29-.323-.29-.323-.29-.322-.3-.317-.29-.318-.3-.317-.3-.314-.31-.313-.3-.313-.31-.31-.31-.307-.31-.307-.31-.305-.31-.305-.32-.301-.31-.301-.32-.301-.32-.297-.32-.295-.32-.295-.33-.294-.33-.292-.32-.289-.33-.289-.33-.286-.34-.286-.33-.285-.34-.282-.33-.281-.34-.28-.34-.278-.35-.277-.34-.274-.35-.273-.34-.273-.35-.271-.35-.268-.35-.268-.35-.266-.36-.265-.35-.263-.36-.261-.36-.26-.36-.259-.36-.257-.36-.256-.37-.254-.36-.253-.37-.251-.37-.249-.36-.249-.38-.247-.37-.245-.37-.243-.38-.243-.37-.242-.38-.239-.38-.238-.38-.236-.38-.235-.39-.234-.38-.233-.39-.231-.38-.228-.39-.228-.39-.227-.39-.225-.39-.223-.4-.223-.39-.22-.4-.219-.39-.218-.4-.217-.4-.215-.4-.213-.4-.212-.4-.211-.41-.209-.4-.208-.41-.206-.41-.206-.41-.203-.41-.202-.4-.201-.42-.199-.41-.199-.42-.196-.41-.195-.42-.194-.42-.192-.41-.191-.42-.19-.42-.188-.43-.187-.42-.185-.42-.184-.43-.183-.42-.181-.43-.18-.43-.179-.43-.177-.43-.175-.43-.175-.43-.173-.43-.171-.44-.17-.43-.17-.44-.167-.44-.166-.43-.165-.44-.163-.44-.162-.44-.161-.44-.16-.45-.157-.44-.157-.44-.156-.45-.153-.44-.153-.45-.151-.45-.15-.45-.149-.45-.147-.45-.146-.45-.144-.45-.143-.45-.142-.46-.141-.45-.139-.46-.138-.45-.136-.46-.135-.46-.134-.46-.133-.46-.131-.46-.13-.46-.128-.46-.128-.46-.126-.47-.124-.46-.123-.47-.122-.46-.121-.47-.119-.46-.118-.47-.117-.47-.116-.47-.114-.47-.113-.47-.111-.47-.11-.47-.109-.47-.108-.48-.106-.47-.105-.48-.104-.47-.102-.48-.101-.47-.1-.48-.098-.48-.098-.48-.096-.47-.094-.48-.093-.48-.093-.48-.09-.49-.09-.48-.088-.48-.087-.48-.086-.49-.084-.48-.083-.48-.082-.49-.081-.49-.079-.48-.078-.49-.076-.48-.076-.49-.074-.49-.073-.49-.072-.49-.07-.49-.069-.49-.068-.49-.067-.49-.065-.49-.064-.49-.063-.49-.061-.5-.061-.49-.059-.49-.057-.5-.057-.49-.055-.5-.054-.49-.053-.5-.051-.49-.051-.5-.049-.5-.047-.49-.047-.5-.045-.5-.044-.5-.043-.49-.041-.5-.041-.5-.039-.5-.038-.5-.036-.5-.035-.5-.035-.5-.032-.5-.032-.5-.03-.5-.029-.51-.028-.5-.027-.5-.025-.5-.025-.51-.023-.5-.021-.5-.021-.5-.019-.51-.018-.5-.017-.5-.016-.51-.014-.5-.013-.51-.012-.5-.011-.51-.009-.5-.009-.51-.007-.5-.006-.51-.004-.5-.004-.51-.002-.5-.001-.51v-.51l.002-.5.003-.51.003-.51.006-.5.006-.51.007-.5.009-.51.01-.51.011-.5.013-.51.013-.51.015-.51.016-.5.017-.51.018-.51.02-.5.021-.51.022-.51.023-.5.024-.51.026-.51.026-.5.028-.51.03-.51.03-.5.032-.51.032-.5.034-.51.035-.51.037-.5.037-.51.039-.51.04-.5.041-.51.042-.5.044-.51.044-.5.046-.51.047-.51.048-.5.05-.51.05-.5.052-.51.053-.5.054-.5.056-.51.056-.5.058-.51.059-.5.06-.5.061-.5.062-.51.064-.5.065-.5.066-.5.067-.51.068-.5.069-.5.071-.5.072-.5.073-.5.074-.5.075-.5.077-.5.078-.5.078-.5.08-.5.082-.5.082-.49.084-.5.084-.5.086-.49.087-.5.088-.5.09-.49.09-.5.092-.49.093-.5.094-.49.095-.5.096-.49.098-.49.099-.49.099-.5.101-.49.103-.49.103-.49.104-.49.106-.49.107-.49.108-.49.109-.49.11-.49.112-.48.112-.49.114-.49.115-.48.116-.49.117-.48.118-.49.12-.48.121-.48.122-.49.123-.48.124-.48.125-.48.127-.48.127-.48.129-.48.13-.48.131-.48.132-.47.134-.48.134-.48.136-.47.137-.48.138-.47.139-.47.14-.48.141-.47.143-.47.144-.47.145-.47.146-.47.147-.47.148-.47.15-.47.15-.46.152-.47.153-.46.154-.47.155-.46.157-.46.157-.47.159-.46.159-.46.161-.46.162-.46.163-.46.165-.45.166-.46.166-.46.168-.45.169-.46.17-.45.171-.45.172-.45.174-.46.175-.44.175-.45.178-.45.178-.45.179-.45.18-.44.182-.45.183-.44.183-.44.185-.45.187-.44.187-.44.188-.44.19-.44.19-.43.192-.44.193-.44.194-.43.196-.43.196-.44.198-.43.198-.43.2-.43.201-.43.202-.42.204-.43.204-.43.205-.42.207-.42.208-.43.209-.42.211-.42.211-.42.212-.42.214-.41.214-.42.216-.42.218-.41.218-.41.219-.41.22-.41.222-.41.223-.41.224-.41.225-.4.226-.41.228-.4.229-.41.229-.4.231-.4.232-.4.233-.39.234-.4.235-.39.237-.4.238-.39.239-.39.24-.39.241-.39.242-.39.244-.39.245-.38.246-.39.247-.38.248-.38.249-.38.25-.38.252-.38.253-.38.254-.37.255-.37.256-.38.258-.37.258-.37.26-.37.261-.36.262-.37.263-.36.265-.37.265-.36.267-.36.268-.36.269-.35.27-.36.272-.36.272-.35.274-.35.276-.35.275-.35.277-.35.279-.34.279-.35.281-.34.282-.34.283-.34.284-.34.286-.33.287-.34.287-.33.29-.34.289-.33.292-.33.292-.32.294-.33.295-.32.296-.33.298-.32.298-.32.299-.31.301-.32.302-.31.303-.32.305-.31.305-.31.307-.31.308-.3.309-.31.309-.3.301-.29.529-.46.578-.39.619-.32.653-.25.676-.16.692-.1h.698l.694.07z" fill="#ff0"/><path d="M274.237 159.489l.348.03.378.06.445.09.494.14.284.11.223.09.35.17.298.16.299.18.305.22.306.24.298.27.291.3.303.36.252.35.249.4.212.42.156.35.149.42.114.42.08.38.055.38.03.36.005.19.001.28-.011.27-.024.27-.036.27-.049.27-.06.27-.073.26-.085.26-.096.26-.108.25-.119.24-.13.24-.141.24-.152.22-.162.22-.171.22-.181.2-.19.2-.199.18-.207.18-.216.17-.222.16-.23.15-.236.13-.242.13-.247.12-.253.1-.257.09-.261.08-.264.07-.268.06-.269.04-.271.04-.273.02h-.546l-.189-.02-.071.04-.144.05-.192.08-.595.2-.27.09-.268.08-.182.06-.187.07-.41.13-.24.08-.252.08-.259.07-.156.05-.153.04-.268.07-.266.07-.266.06-.266.07-.256.05-.257.06-.257.05-.246.05-.246.04-.241.05-.236.04-.241.04-.231.04-.227.04-.441.06-.841.13-.397.07-.388.06-.179.03-.179.03-.179.03-.172.03-.167.03-.161.03-.161.04-.161.03-.157.04-.166.03-.159.04-.159.04-.164.04-.164.04-.158.03-.158.05-.163.04-.163.04-.163.04-.162.05-.156.04-.162.05-.167.05-.156.04-.161.05-.161.05-.16.05-.166.05-.16.05-.16.05-.16.05-.159.06-.165.05-.156.05-.326.12-.325.11-.322.12-.324.12-.325.12-.323.13-.325.12-.324.13-.323.13-.329.14-.328.14-.325.14-.327.14-.33.15-.327.14-.329.15-.331.15-.331.16-.328.15-.306.14-.309.15-.321.16-.333.16-.681.33-.357.17-.364.18-.369.17-.373.17-.202.09-.198.09-.192.09-.202.09-.204.08-.203.09-.209.09-.21.08-.215.08-.216.09-.216.08-.236.09-.21.07-.214.07-.174.05-.194.05-.168.05-.146.04-.148.03-.16.04-.281.06-.268.06-.258.05-.245.05-.359.07-.263.07-.267.06-.269.04-.271.03-.273.03H242.377l-.268-.02-.268-.03-.265-.04-.264-.05h-.006l-.262-.06-.26-.08-.256-.09-.251-.1-.247-.11-.242-.12-.236-.13-.23-.14-.223-.16h-.002l-.217-.16-.21-.18-.201-.18-.193-.19-.184-.2-.175-.21-.165-.21-.155-.23-.145-.23-.134-.23-.124-.25-.112-.24-.101-.26-.09-.25-.078-.26-.066-.27-.053-.26-.042-.27-.03-.27-.017-.27-.005-.28.007-.27.02-.27.032-.27.044-.27.056-.26.069-.27.08-.26.092-.25.103-.25.001-.01.11-.23.12-.23.13-.23.14-.22.149-.22.159-.2.167-.21.176-.19.184-.18.192-.18.2-.17.206-.16.214-.15.22-.14h.004l.235-.14.241-.12.247-.12.251-.1.017-.01.187-.07.19-.06.192-.06.117-.03.184-.04.212-.05.205-.04.182-.04.382-.07.186-.04.185-.04.177-.03.155-.04.051-.01.057-.01.016-.01h.006l.124-.05.125-.05.124-.05.131-.05.13-.05.136-.06.136-.06.137-.06.147-.06.141-.07.136-.06.305-.14.306-.14.31-.15.316-.15.663-.32.336-.17.347-.17.356-.17.358-.17.379-.17.376-.18.377-.17.381-.17.384-.17.382-.17.385-.17.389-.17.387-.16.389-.16.394-.16.396-.16.396-.16.401-.15.399-.15.403-.15.406-.15.405-.14.406-.14.211-.07.203-.07.208-.07.209-.07.209-.06.21-.07.204-.06.21-.07.21-.06.211-.07.217-.06.206-.06.212-.06.218-.06.212-.06.213-.06.213-.05.214-.06.22-.05.22-.06.214-.05.215-.05.222-.05.221-.05.216-.05.226-.05.249-.05.252-.05.251-.05.246-.05.242-.04.235-.05.236-.03.236-.04.444-.08.435-.06.824-.13.392-.06.188-.03.185-.03.174-.03.179-.04.173-.03.167-.03.166-.03.156-.03.154-.04.155-.03.143-.03.142-.04.142-.03.138-.04.043-.01.04-.01.131-.04.136-.04.148-.05.363-.12.2-.07.205-.06.223-.08.22-.07.293-.1.127-.05.237-.1.14-.06.152-.06.172-.06.174-.07.184-.06.195-.07.206-.07.218-.07.231-.07.226-.06.146-.04.149-.04.15-.04.13-.03.15-.03.189-.03.172-.03.178-.03.203-.02.211-.02.244-.02.257-.01h.276l.321.02zm-28.932 21.34l-.141.07.105-.04.084-.05-.048.02zm-2.174-11.34l.271.02.27.05.089.01-.384-.08-.519-.02.273.02zm25.066-3.11l.005.04-.018-.19.013.15zm-.028-.33l.009.11-.013-.26.004.15z" fill="#ff0"/><path d="M276.773 159.979l.364.04.346.06.149.03.259.07.255.07.27.09.458.19.417.2.354.21.275.18.248.19.227.18.19.17.169.15.154.15.131.14.133.14.118.14.103.12.097.12.096.12.092.12.084.11.093.14.141.2.142.22.133.22.127.21.122.22.117.23.114.23.103.22.065.15.058.13.056.14.057.15.06.17.058.18.058.2.06.22.06.27.046.25.034.22.022.17.021.17.018.17.015.16.014.16.011.17.009.16.007.15.005.16.004.15.001.16.001.15-.001.15-.003.14-.003.15-.005.14-.007.16-.014.27-.019.27-.023.27-.025.27-.029.26-.03.25-.032.25-.034.25-.035.23-.037.24-.037.23-.038.22-.037.22-.038.21-.039.21-.073.39-.07.37-.065.34-.062.33-.072.38-.075.39-.075.38-.073.36-.07.34-.067.34-.063.32-.029.15-.027.15-.027.15-.026.15-.023.14-.023.14-.021.13-.019.14-.018.12-.016.13-.015.12-.013.12-.012.12-.01.11-.008.11-.007.11-.006.1-.004.12-.002.07-.002.08-.001.09-.001.09V180.009l.003.19.004.2.007.2.008.21.01.22.011.22.013.23.03.49.032.5.032.53.016.28.015.29.013.29.012.3.009.3.007.31.004.31.001.17-.001.16-.001.17-.002.16-.004.17-.005.17-.006.17-.008.18-.009.17-.01.18-.012.17-.014.18-.016.18-.018.19-.019.18-.022.19-.023.18-.026.19-.023.15-.024.16-.025.15-.026.15-.027.14-.03.15-.055.27-.06.28-.061.26-.062.25-.063.25-.063.23-.062.23-.062.22-.061.22-.114.39-.108.37-.049.17-.047.17-.043.15-.041.15-.037.14-.033.14-.031.12-.027.12-.026.12-.009.04-.01.05-.009.05-.008.05-.008.04-.007.05-.006.04-.006.04-.005.03-.004.04-.004.03-.003.04-.003.03-.001.02-.001.02v.01l.001.08.003.09.004.11.014.32.008.18.008.22.006.24.003.25-.001.16-.002.15-.004.15-.006.17-.009.16-.012.18-.015.18-.021.2-.031.25-.038.25-.042.24-.045.23-.048.22-.048.2-.05.19-.049.18-.047.17-.047.15-.043.15-.042.13-.127.4-.042.13-.003.18-.007.24-.009.23-.013.24-.014.24-.018.23-.02.24-.023.23-.025.24-.029.24-.03.23-.034.23-.036.24-.036.21-.012.15-.024.21-.034.25-.035.2-.042.21-.056.24-.078.28-.111.34-.16.4-.111.23-.136.26-.149.25-.011.02-.125.19-.132.19-.139.18-.012.02-.187.22-.197.22-.208.2-.013.02-.183.16-.189.16-.195.15h-.007l-.18.13-.184.12-.189.11-.007.01-.242.13-.247.12h-.007l-.217.1-.219.08-.224.08h-.007l-.261.08-.263.07h-.008l-.277.06-.279.04-.281.03-.251.02h-.253l-.2-.01-.199-.01-.2-.01h-.009l-.271-.04-.269-.04h-.01l-.202-.05-.201-.05-.199-.05-.212-.07-.383-.14-.181-.09-.191-.09-.189-.1-.185-.1-.018-.01-.208-.13-.202-.14-.197-.14-.018-.02-.161-.13-.157-.13-.153-.14-.183-.17-.294-.33-.232-.29-.185-.26-.142-.21-.119-.2-.102-.18-.096-.18-.12-.24-.102-.23-.08-.19-.066-.16-.052-.13-.063-.17-.007-.02-.043-.1-.104-.27-.09-.28-.077-.29-.062-.29-.048-.29-.033-.29-.02-.29-.004-.3.009-.29.024-.29.039-.3.053-.29.066-.28.081-.29.095-.28.108-.27.122-.27.134-.26.148-.25.143-.23.026-.24.035-.26.04-.25.043-.24.046-.22.049-.21.049-.2.048-.19.049-.17.047-.17.048-.16.077-.24.128-.4.02-.06.017-.06.002-.01-.002-.08-.004-.11-.006-.14-.016-.34-.008-.22-.006-.24-.004-.24v-.16l.002-.15.003-.15.006-.16.008-.17.011-.16.013-.18.015-.16.016-.17.019-.16.019-.16.021-.16.022-.16.024-.15.024-.15.025-.15.027-.14.027-.15.028-.14.031-.15.057-.26.06-.27.062-.25.063-.25.063-.24.062-.23.062-.22.061-.21.059-.21.111-.38.105-.37.047-.16.044-.16.041-.15.038-.14.035-.14.032-.12.028-.13.024-.11.024-.11.008-.04.009-.05.008-.05.007-.04.007-.04.006-.04.009-.07.008-.06.007-.07.007-.06.007-.07.006-.07.005-.07.005-.08.005-.07.004-.08.003-.08.003-.08.003-.08.002-.08.001-.09.001-.09v-.09l-.001-.08-.002-.2-.004-.2-.007-.2-.008-.21-.01-.21-.012-.23-.012-.23-.03-.48-.032-.51-.032-.53-.016-.28-.015-.28-.013-.29-.012-.3-.01-.3-.007-.31-.003-.31-.001-.17v-.16l.001-.17.003-.16.003-.17.006-.18.009-.25.014-.26.016-.25.02-.26.022-.24.024-.25.027-.24.028-.24.03-.23.032-.23.033-.22.034-.23.036-.21.036-.22.037-.21.037-.21.038-.2.038-.21.075-.38.075-.38.073-.36.071-.35.067-.34.063-.32.063-.33.065-.35.068-.36.067-.35.064-.34.03-.16.029-.17.028-.15.026-.16.007-.05-.076-.09-.178-.23-.166-.25-.154-.25-.142-.25-.128-.27-.116-.27-.102-.28-.089-.28-.074-.28-.061-.29-.046-.29-.032-.29-.018-.3-.003-.29.002-.16.011-.26.022-.28.035-.3.053-.34.079-.37.099-.36.091-.27.083-.22.104-.25.126-.27.15-.28.179-.3.182-.27.225-.3.288-.33.308-.31.313-.27.385-.29.43-.27.421-.22.441-.19.458-.16.471-.12.472-.08.466-.04.453-.01.383.02zm-9.269 44.23l.043.1.028.06-.073-.16h.002zm14.534-37.48l.003-.07.001-.02-.004.09z" fill="#ff0"/></g><g><path d="M276.006 687.589l1.76 1.54 1.035 2.1.153 2.34-.753 2.22-1.544 1.76-.401.3-.389.3-.387.31-.385.3-.384.31-.385.3-.383.31-.38.31-.378.31-.377.32-.376.31-.376.32-.374.32-.373.32-.37.32-.369.32-.369.33-.367.32-.364.33-.365.33-.363.33-.36.33-.361.33-.358.34-.358.33-.356.34-.353.34-.353.34-.353.34-.349.35-.349.34-.348.35-.346.34-.344.35-.344.35-.342.36-.34.35-.34.36-.337.35-.336.36-.336.36-.334.36-.333.36-.331.36-.329.37-.328.36-.326.37-.326.37-.325.37-.322.37-.321.37-.321.38-.318.37-.318.38-.315.38-.314.38-.314.38-.311.38-.31.38-.31.39-.308.39-.306.38-.304.39-.303.39-.303.39-.3.39-.3.4-.298.39-.297.4-.294.39-.294.4-.292.4-.291.4-.291.4-.288.41-.286.4-.285.41-.285.4-.283.41-.281.41-.28.41-.279.41-.276.41-.276.42-.275.41-.272.42-.272.42-.271.42-.269.42-.267.42-.266.42-.265.42-.263.42-.262.43-.26.42-.259.43-.258.43-.257.43-.255.43-.253.43-.253.44-.25.43-.25.43-.248.44-.246.43-.245.44-.244.44-.243.44-.241.44-.24.44-.238.45-.237.44-.235.45-.234.44-.233.45-.231.44-.23.45-.229.46-.227.45-.225.45-.225.45-.223.45-.221.46-.22.45-.219.46-.217.46-.216.45-.215.46-.213.46-.212.46-.21.46-.208.47-.208.46-.206.47-.205.46-.203.47-.202.46-.201.47-.198.47-.199.47-.196.47-.194.47-.194.47-.192.47-.191.48-.189.47-.188.48-.186.47-.185.48-.184.48-.182.48-.181.47-.179.48-.178.48-.176.48-.176.49-.173.48-.173.48-.171.49-.169.48-.168.49-.167.48-.165.49-.164.49-.162.48-.162.49-.159.49-.158.49-.157.49-.155.49-.155.5-.152.49-.151.49-.15.5-.148.49-.147.5-.145.49-.144.5-.143.49-.141.5-.14.5-.139.5-.137.5-.135.5-.134.5-.133.5-.131.5-.13.5-.128.5-.128.51-.125.5-.124.5-.123.51-.122.5-.119.51-.119.51-.117.5-.116.51-.114.51-.113.5-.111.51-.11.51-.109.51-.107.51-.106.51-.104.51-.103.51-.101.51-.1.52-.099.51-.097.51-.096.51-.094.52-.093.51-.092.51-.09.52-.088.51-.088.52-.085.51-.085.52-.083.52-.081.51-.08.52-.079.52-.077.51-.076.52-.075.52-.073.52-.071.51-.07.52-.069.52-.067.52-.066.52-.065.52-.063.52-.061.52-.06.52-.059.52-.057.52-.056.53-.055.52-.053.52-.051.52-.05.52-.049.52-.047.53-.046.52-.045.52-.043.52-.041.53-.041.52-.038.52-.038.53-.036.52-.034.52-.033.53-.032.52-.03.53-.029.52-.027.52-.026.53-.024.52-.024.53-.021.52-.02.52-.019.53-.018.52-.015.53-.015.52-.013.53-.012.52-.01.53-.009.52-.007.53-.006.52-.004.53-.004.52-.001.52v.53l.001.52.002.53.004.52.006.53.007.52.008.52.01.53.011.52.013.53.014.52.015.52.017.53.018.52.02.53.021.52.023.52.024.52.025.53.027.52.028.52.03.52.031.53.033.52.034.52.035.52.037.52.038.52.04.52.041.53.042.52.044.52.046.52.047.52.048.52.049.52.052.51.052.52.054.52.055.52.057.52.058.51.06.52.061.52.062.52.064.51.065.52.067.52.068.51.07.51.071.52.072.51.074.52.075.51.077.52.078.51.079.51.081.51.082.51.084.52.085.51.087.51.088.51.089.51.091.51.092.51.094.5.095.51.096.51.098.51.1.5.1.51.102.5.104.51.105.5.106.51.108.5.109.5.111.51.112.5.113.5.115.5.117.5.117.5.119.5.121.5.122.5.123.49.125.5.126.49.127.5.129.5.131.49.132.5.133.49.134.49.136.49.138.49.138.49.141.49.141.49.143.49.145.49.146.49.147.48.149.49.15.49.151.48.153.48.154.49.156.48.157.48.158.48.16.48.161.48.163.48.164.48.165.47.167.48.169.48.169.47.171.48.173.47.174.47.175.47.177.47.177.47.18.47.181.47.182.47.184.46.185.47.186.47.188.46.189.46.19.46.192.47.194.46.194.46.196.46.198.45.199.46.2.46.202.45.203.46.204.45.206.45.208.45.208.45.21.45.211.45.213.45.214.45.216.44.217.45.218.44.22.44.221.45.221.43.224.44.226.44.226.44.228.44.23.43.23.44.232.43.234.43.235.43.236.44.237.42.239.43.24.43.242.42.243.43.244.42.246.42.248.43.248.42.25.41.251.42.254.42.253.42.255.41.257.41.259.42.258.41.261.41.263.41.264.41.264.4.266.4.268.41.269.4.27.4.273.4.273.4.273.4.276.4.277.39.279.4.28.39.282.39.282.39.284.39.285.39.287.39.289.38.288.39.29.38.294.38.293.38.294.38.298.38.297.37.298.38.301.37.301.37.303.37.304.37.305.37.308.37.308.36.31.37.311.36.313.36.313.36.315.36.316.35.319.36.319.36.32.35.322.35.323.35.329.35.777.83.775.83.77.82.766.82.38.4.38.4.378.39.379.4.377.39.375.39.377.39.375.38.375.38.376.38.376.38.374.37.374.37.375.37.375.37.376.36.376.36.376.35.376.36.381.35.185.17.188.17.191.17.191.18.186.16.189.17.193.17.192.17.19.17.188.16.191.16.194.17.192.16.192.17.192.16.193.16.197.16.19.16.191.15.198.17.195.15.196.16.193.15.197.16.197.15.195.15.198.15.2.15.199.15.197.15.201.15.202.15.199.14.199.14.204.15.201.14.201.14.21.15.203.14.203.14.205.14.205.13.21.14.207.14.207.13.209.13.213.14.21.13.212.13.211.13.213.13.214.13.212.13.219.12.217.13.218.13.219.12.216.12.221.12.222.13.223.12.224.12.221.11.227.12.227.12.225.11.23.12.231.11.228.11.23.11.235.11.25.12 1.886 1.39 1.212 2 .354 2.31-.559 2.28-1.387 1.88-2.003 1.21-2.314.36-2.273-.56-.277-.13-.288-.14-.292-.14-.29-.14-.285-.14-.283-.14-.287-.15-.28-.14-.28-.15-.282-.15-.278-.14-.275-.15-.275-.15-.273-.15-.276-.16-.271-.15-.27-.16-.269-.15-.263-.16-.27-.16-.265-.16-.263-.16-.263-.16-.261-.16-.261-.16-.255-.17-.258-.16-.257-.17-.256-.16-.25-.17-.254-.17-.252-.17-.252-.17-.25-.17-.242-.17-.248-.17-.247-.18-.243-.17-.245-.18-.244-.18-.24-.17-.238-.18-.242-.18-.236-.18-.236-.18-.235-.18-.237-.18-.233-.18-.232-.18-.235-.19-.23-.18-.23-.19-.225-.18-.231-.19-.23-.19-.223-.18-.226-.19-.224-.19-.224-.19-.223-.19-.219-.19-.222-.19-.224-.19-.22-.2-.216-.18-.216-.2-.217-.19-.221-.2-.213-.19-.213-.19-.216-.2-.217-.2-.422-.39-.422-.4-.421-.39-.416-.4-.415-.4-.413-.4-.411-.41-.409-.4-.408-.4-.404-.41-.403-.41-.402-.41-.401-.41-.399-.41-.399-.41-.397-.41-.395-.42-.395-.41-.394-.42-.394-.41-.785-.84-.783-.83-.783-.84-.788-.84-.355-.38-.356-.39-.355-.38-.354-.39-.352-.4-.349-.39-.349-.39-.348-.39-.346-.4-.344-.4-.342-.4-.341-.4-.34-.4-.337-.41-.336-.4-.335-.41-.333-.4-.332-.41-.329-.41-.329-.42-.328-.41-.323-.41-.324-.42-.323-.42-.319-.41-.32-.42-.318-.43-.315-.42-.314-.42-.313-.43-.311-.42-.31-.43-.307-.43-.307-.43-.304-.43-.304-.43-.301-.44-.301-.43-.299-.44-.296-.44-.295-.43-.295-.45-.291-.44-.291-.44-.29-.44-.287-.45-.286-.44-.284-.45-.284-.45-.281-.45-.279-.45-.279-.45-.277-.45-.275-.46-.273-.45-.272-.46-.271-.46-.268-.45-.267-.46-.266-.46-.265-.47-.262-.46-.261-.46-.26-.47-.258-.46-.257-.47-.254-.47-.253-.47-.252-.47-.251-.47-.248-.47-.247-.47-.246-.48-.244-.47-.242-.48-.241-.48-.24-.47-.238-.48-.236-.48-.234-.48-.234-.49-.231-.48-.23-.49-.228-.48-.228-.48-.225-.49-.224-.49-.222-.49-.221-.49-.219-.49-.218-.49-.216-.49-.215-.49-.213-.5-.212-.49-.21-.5-.208-.5-.207-.49-.205-.5-.204-.5-.202-.5-.201-.5-.199-.5-.198-.51-.196-.5-.195-.5-.193-.51-.191-.5-.19-.51-.189-.51-.186-.51-.186-.5-.184-.51-.182-.51-.181-.52-.179-.51-.178-.51-.176-.51-.174-.52-.174-.51-.171-.51-.17-.52-.169-.52-.167-.52-.165-.51-.164-.52-.163-.52-.16-.52-.16-.52-.157-.53-.157-.52-.154-.52-.154-.52-.151-.53-.15-.52-.149-.53-.147-.52-.146-.53-.144-.53-.142-.52-.141-.53-.14-.53-.137-.53-.137-.53-.135-.53-.133-.53-.132-.54-.13-.53-.129-.53-.127-.53-.126-.54-.124-.53-.123-.54-.121-.53-.12-.54-.118-.53-.116-.54-.115-.54-.114-.54-.112-.53-.11-.54-.109-.54-.108-.54-.106-.54-.104-.54-.103-.54-.101-.55-.1-.54-.099-.54-.096-.54-.096-.55-.093-.54-.093-.54-.09-.55-.09-.54-.087-.55-.087-.54-.084-.55-.083-.55-.082-.54-.08-.55-.079-.55-.077-.54-.075-.55-.074-.55-.073-.55-.071-.55-.069-.55-.068-.55-.067-.55-.065-.55-.063-.55-.062-.55-.06-.55-.059-.55-.057-.55-.056-.55-.055-.56-.052-.55-.052-.55-.049-.55-.049-.56-.046-.55-.046-.55-.043-.56-.042-.55-.041-.55-.039-.56-.038-.55-.036-.56-.035-.55-.033-.56-.031-.55-.03-.56-.029-.55-.027-.56-.025-.55-.024-.56-.023-.56-.021-.55-.019-.56-.018-.56-.017-.55-.014-.56-.014-.55-.012-.56-.01-.56-.009-.55-.007-.56-.006-.56-.004-.56-.003-.55-.001-.56v-.56l.002-.55.003-.56.005-.56.006-.56.008-.55.009-.56.011-.56.012-.55.014-.56.016-.56.017-.56.018-.55.02-.56.021-.56.023-.55.025-.56.026-.56.027-.55.029-.56.031-.56.032-.55.034-.56.035-.56.036-.55.039-.56.039-.56.041-.55.043-.56.044-.55.046-.56.047-.55.049-.56.05-.55.052-.56.053-.55.055-.56.057-.55.057-.56.06-.55.061-.55.062-.56.064-.55.066-.55.067-.56.068-.55.07-.55.072-.55.073-.56.074-.55.076-.55.078-.55.079-.55.081-.55.082-.55.084-.55.085-.55.087-.55.088-.55.09-.55.091-.55.093-.55.094-.54.096-.55.097-.55.099-.55.101-.54.102-.55.103-.54.105-.55.107-.54.108-.55.11-.54.111-.55.112-.54.114-.54.116-.55.117-.54.119-.54.12-.54.122-.54.123-.54.125-.54.127-.54.128-.54.129-.54.131-.54.133-.54.134-.53.135-.54.137-.54.139-.53.14-.54.142-.53.143-.54.145-.53.146-.53.148-.54.149-.53.151-.53.152-.53.154-.53.156-.53.157-.53.158-.53.16-.53.162-.52.163-.53.165-.53.166-.52.167-.53.17-.52.171-.53.172-.52.174-.52.175-.52.177-.52.179-.52.18-.52.181-.52.184-.52.184-.52.186-.52.188-.51.189-.52.191-.51.192-.52.195-.51.195-.51.197-.52.198-.51.201-.51.201-.51.203-.51.205-.51.206-.5.208-.51.209-.51.212-.5.211-.51.215-.5.216-.5.216-.5.219-.51.22-.5.222-.5.223-.49.225-.5.227-.5.227-.49.23-.5.231-.49.232-.5.235-.49.235-.49.237-.49.239-.49.241-.49.241-.49.244-.49.246-.48.246-.49.247-.48.251-.49.251-.48.253-.48.254-.48.256-.48.258-.48.259-.48.26-.47.262-.48.264-.47.265-.48.267-.47.269-.47.27-.47.272-.47.272-.47.275-.47.277-.46.277-.47.279-.46.281-.46.283-.47.284-.46.286-.46.286-.46.29-.46.29-.45.292-.46.293-.45.295-.46.298-.45.297-.45.299-.45.303-.45.303-.45.304-.44.306-.45.308-.44.308-.44.311-.44.313-.45.314-.43.315-.44.317-.44.319-.43.32-.44.323-.43.323-.43.325-.43.326-.43.328-.43.33-.43.331-.42.333-.43.336-.42.335-.42.336-.42.34-.42.342-.42.341-.41.344-.42.346-.41.347-.41.349-.41.35-.41.352-.41.354-.41.354-.4.356-.41.359-.4.36-.4.362-.4.363-.4.363-.4.367-.39.366-.39.37-.4.372-.39.372-.39.374-.39.375-.38.378-.39.378-.38.381-.39.382-.38.383-.38.387-.37.385-.38.388-.37.391-.38.391-.37.393-.37.394-.37.396-.36.399-.37.399-.36.4-.36.404-.36.403-.36.405-.36.409-.36.409-.35.41-.35.411-.35.413-.35.416-.35.418-.35.419-.34.42-.34.421-.34.422-.34.425-.34.427-.34.428-.33.43-.33.42-.33 2.1-1.03 2.336-.15 2.216.75z" fill="#ff0"/><path d="M261.799 684.789h.527l.249.01.255.01.26.01.255.01.25.01.25.01.249.01.25.02.244.02.245.01.25.02.475.04.48.03.47.05.464.04.461.04.894.09.879.08.427.04.423.04.416.04.408.03.403.03.192.01.197.02.197.01.196.01.19.01.184.01.184.01.189.01.183.01h.183l.181.01H273.902l.278.01.276.02.275.03.274.05.271.06.268.07.264.08.26.09.256.11.25.12.245.13.239.14.231.15.225.17.216.17.209.18.199.19.191.21.181.2.171.22.161.23.151.23.139.24.129.25.117.25.105.25.093.27.081.26.068.27.057.27.043.27.031.28.018.28.005.27-.007.28-.02.28-.033.27-.046.28-.058.27-.071.27-.083.26-.095.26-.107.25-.119.25-.13.25-.141.24-.152.23-.163.23-.173.21-.183.21-.192.2-.201.19-.21.18-.218.17-.226.16-.232.15-.24.14-.246.13-.251.12-.256.1-.261.1-.266.08-.268.07-.272.05-.273.05-.276.03-.276.02h-.765l-.261-.01h-.25l-.25-.01-.25-.01-.245-.01-.251-.01-.251-.01-.245-.02-.241-.01-.24-.02-.241-.01-.246-.02-.474-.04-.472-.04-.465-.04-.459-.04-.458-.04-.893-.09-.881-.08-.428-.04-.425-.04-.42-.04-.41-.03-.414-.03-.195-.02-.201-.01-.2-.01-.195-.02-.194-.01-.195-.01h-.195l-.188-.01-.184-.01h-.188l-.194-.01h-.36l-.182-.01h-.176l-.177.01h-.357l-.17.01-.164.01-.169.01-.192.01-.438.02-.458.03-.458.02-.46.02-.459.02-.459.02-.906.04-.908.03-.449.02-.445.02-.443.02-.441.03-.439.02-.433.02-.427.03-.428.03-.204.02-.213.01-.207.02-.202.02-.207.02-.205.02-.2.02-.199.02-.198.02-.192.02-.197.02-.19.02-.189.03-.193.03-.186.02-.18.03-.179.03-.182.02-.176.04-.174.03-.173.03-.171.03-.164.03-.162.04-.166.03-.152.04-.157.03-.157.04-.099.03-.109.03-.241.06-.248.07-.265.07-.281.08-.303.08-.163.04-.165.04-.176.05-.177.04-.188.05-.198.04-.2.04-.193.04-.212.04-.222.04-.214.03-.225.04-.234.03-.243.02-.244.03-.243.01-.252.02-.252.01-.252.01H240.818l-.277-.02-.276-.03-.274-.04-.271-.05-.269-.07-.266-.08-.262-.09-.257-.1-.252-.12-.247-.13-.24-.14-.234-.14-.227-.16-.219-.17-.211-.18-.202-.19-.194-.2-.184-.21-.174-.21-.165-.23-.153-.23-.143-.23-.132-.25-.121-.25-.108-.25-.097-.26-.085-.27-.073-.26-.06-.27-.047-.28-.035-.27-.022-.28-.01-.27.004-.28.016-.28.029-.27.042-.28.054-.27.067-.27.079-.26.091-.27.104-.25.115-.26.126-.24.138-.24.149-.24.16-.22.169-.22.18-.21.189-.21.199-.19.207-.18.215-.18.224-.16.23-.16.238-.14.243-.13.25-.12.255-.11.26-.1.263-.08.268-.08.271-.05.273-.05.275-.04.276-.02.277-.01h.203l.042-.01h.089l.04-.01h.046l.052-.01.06-.01.05-.01.058-.01.075-.02.067-.01.067-.01.077-.02.086-.02.088-.03.098-.02.1-.03.226-.06.252-.07.273-.07.3-.09.317-.08.174-.04.19-.05.256-.07.261-.06.267-.06.257-.05.263-.06.264-.05.258-.05.26-.05.26-.04.261-.05.256-.04.262-.04.263-.04.257-.03.253-.04.259-.03.259-.03.254-.03.26-.03.255-.03.256-.03.256-.02.25-.02.252-.03.256-.02.252-.02.246-.02.258-.02.493-.03.497-.03.492-.03.486-.03.483-.02.479-.02.476-.02.468-.02.918-.04.9-.04.436-.02.427-.02.421-.02.414-.02.405-.02.416-.02.247-.02.27-.01.276-.01.271-.01.265-.01h.26l.266-.01h.265l.26.01z" fill="#ff0"/><path d="M275.744 686.239h.021l.265.02.264.03.239.03.235.05.197.04.196.05.193.06.019.01.196.06.195.07.192.08.254.11.472.26.232.15.173.12.168.12.163.13.208.17.366.35.323.37.278.37.233.35.181.33.165.33.132.32.097.26.084.26.067.25.053.22.043.21.035.21.031.22.031.29.019.3.007.26-.001.24-.007.22-.011.2-.014.19-.016.17-.017.16-.018.15-.021.16-.036.24-.037.23-.035.2-.051.28-.032.17-.03.18-.03.17-.029.17-.028.17-.027.18-.027.17-.027.18-.025.17-.025.17-.024.18-.023.17-.023.18-.022.17-.043.35-.04.35-.037.36-.036.35-.032.36-.031.36-.029.36-.026.37-.025.39-.025.37-.028.39-.031.38-.034.39-.036.38-.038.39-.04.38-.043.38-.044.38-.047.37-.048.38-.05.37-.052.37-.054.37-.054.37-.057.37-.057.37-.059.36-.061.37-.061.36-.062.36-.063.36-.064.36-.065.36-.065.35-.067.36-.133.7-.135.7-.137.69-.136.69-.137.69-.271 1.35-.132.67-.131.66-.128.66-.125.66-.06.33-.06.32-.058.32-.058.33-.056.32-.055.32-.054.32-.053.32-.051.32-.049.31-.048.32-.047.31-.044.32-.044.31-.041.31-.045.35-.021.16-.03.19-.033.19-.035.18-.037.18-.039.17-.041.17-.041.16-.042.15-.043.15-.045.16-.045.14-.044.14-.049.15-.086.25-.09.25-.089.23-.086.23-.085.21-.082.2-.077.19-.142.35-.064.16-.059.14-.051.13-.046.12-.038.1-.036.1-.009.03-.016.18-.039.28-.052.29-.067.28-.08.28-.093.27-.107.27-.12.27-.132.26-.144.25-.157.24-.168.24-.179.23-.19.21-.201.21-.21.2-.22.19-.228.18-.237.17-.245.15-.252.15-.259.13-.264.12-.27.1-.275.09-.279.08-.283.07-.285.05-.287.04-.289.02-.29.01h-.29l-.289-.02-.289-.03-.286-.05-.284-.06-.28-.07-.277-.09-.272-.1-.267-.11-.261-.13-.255-.13-.248-.16-.24-.16-.232-.17-.224-.19-.214-.19-.205-.21-.194-.21-.184-.23-.173-.23-.161-.24-.15-.25-.137-.25-.125-.27-.112-.26-.099-.28-.086-.27-.072-.28-.059-.29-.044-.28-.031-.29-.017-.29-.003-.29.002-.16.01-.23.015-.23.021-.21.024-.21.029-.21.031-.19.034-.19.036-.18.038-.17.039-.17.042-.17.042-.15.042-.16.045-.15.044-.14.045-.14.044-.14.044-.13.049-.14.084-.23.088-.24.086-.22.084-.21.08-.2.076-.18.143-.35.064-.16.058-.14.053-.14.047-.12.041-.11.034-.09.032-.09.007-.03.01-.03.007-.02.004-.01.035-.27.049-.37.051-.37.053-.37.055-.37.055-.37.058-.36.058-.37.06-.36.06-.36.062-.36.063-.36.064-.36.064-.35.065-.36.067-.35.132-.7.135-.7.137-.69.136-.69.273-1.37.134-.67.134-.67.13-.67.129-.66.125-.66.061-.33.06-.32.059-.33.058-.32.057-.33.055-.32.054-.32.053-.32.052-.32.05-.32.049-.32.047-.31.045-.32.044-.31.042-.32.04-.31.039-.31.037-.31.034-.31.033-.31.031-.31.029-.31.026-.31.025-.3.022-.31.022-.32.027-.42.032-.45.035-.43.037-.45.041-.44.043-.44.047-.44.05-.44.052-.43.029-.23.029-.22.03-.22.03-.22.031-.22.033-.22.033-.22.034-.22.035-.22.036-.22.037-.22.037-.22-.032-.15-.044-.29-.03-.29-.016-.29-.002-.29.012-.29.026-.29.04-.28.054-.29.067-.28.081-.28.094-.27.108-.27.12-.27.133-.25.146-.25.157-.25.169-.23.18-.23.191-.22.201-.21.211-.2.22-.19.229-.17.238-.17.245-.15.252-.15.259-.13.265-.12.271-.1.275-.09.279-.08.283-.06.285-.05.288-.04.289-.02.29-.01h.29zm-.069 41.5l.003-.08.001-.01-.004.09zm-.673-29.52l.244.01-.289-.02-.184-.02.229.03zm-.462-.06l.077.01-.137-.02.06.01zm-.493-.1h.018l-.04-.01.022.01z" fill="#ff0"/></g></svg>