<svg viewBox="0 0 1920 1080" xmlns="http://www.w3.org/2000/svg" fill-rule="evenodd" clip-rule="evenodd" stroke-linecap="round" stroke-linejoin="round" stroke-miterlimit="1.5"><path fill="none" d="M0 0h1920v1080H0z"/><path d="M213.646 175.959c1.031-1.032 0 1.57 0 4.217 0 6.948-.628 14.178 0 21.083 1.718 18.905 3.099 37.924 4.216 56.925 3.411 57.979 1.483 116.34 5.623 174.29 6.611 92.554 10.541 185.439 10.541 278.302 0 9.564-7.717 100.525-6.325 103.309 1.909 3.817 23.782 5.791 28.112 7.028 30.758 8.788 69.906 8.433 101.903 8.433 27.076 0 54.082 2.811 80.82 2.811 2.857 0 21.44 6.671 22.489 5.623.683-.683-.271-1.948-.703-2.812-3.702-7.405-2.767-21.257-3.514-30.219-3.134-37.607-6.588-74.889-10.542-112.445-6.921-65.752-2.647-131.076-7.027-196.779-3.788-56.808-7.028-115.199-7.028-172.182 0-34.285-3.514-68.544-3.514-102.606 0-7.321 1.466-30.159-3.514-35.139-5.856-5.856-22.102-.782-30.22-2.811-36.162-9.041-76.917-4.217-114.553-4.217-14.274 0-34.438 3.045-47.789-1.405-4.829-1.61-20.977.702-19.678.702" fill="none" stroke="#000" stroke-width="10"/><path d="M911.344 161.269l.379.005.198.003.192.004.192.005.192.006.192.007.192.008.191.009.192.009.191.011.192.012.191.012.191.014.191.015.19.016.191.017.191.018.19.019.19.02.19.022.19.022.19.024.19.026.189.026.189.028.19.029.189.03.189.032.189.033.188.035.188.036.188.038.188.039.188.04.187.043.188.044.187.045.187.047.186.049.187.05.186.053.185.054.186.056.185.057.185.06.185.062.184.063.184.066.183.067.184.07.182.072.182.073.182.076.181.079.181.08.18.083.179.085.179.087.178.09.177.092.177.094.176.097.175.1.174.102.173.104.173.107.171.11.17.112.169.114.168.118.167.12.165.122.164.125.163.128.161.131.16.133.158.136.157.139.154.14.153.144.152.147.15.149.147.152.146.154.143.156.141.16.14.162.137.164.134.166.133.169.131.172.128.174.125.176.123.178.121.181.118.182.116.185.113.186.11.19.108.191.105.193.103.194.1.196.097.2.095.2.092.202.089.204.086.205.084.207.081.21.079.211.075.211.073.214.071.215.067.216.066.218.062.22.06.222.057.221.055.224.052.226.05.227.044.217.158.795.154.786.152.786.15.787.147.789.146.789.144.79.141.79.14.792.138.793.135.793.134.794.132.795.13.796.128.796.126.798.124.798.123.799.12.8.118.8.117.801.115.802.113.803.111.804.109.804.108.805.106.805.104.807.102.807.1.808.099.808.097.809.095.81.093.811.092.811.09.812.088.812.086.813.085.814.083.814.082.815.079.816.079.816.076.817.075.817.073.818.072.819.07.819.068.819.067.821.066.82.063.822.063.822.06.822.059.823.058.823.056.824.054.824.054.825.051.826.05.825.049.826.047.827.046.827.044.828.043.828.041.828.04.829.039.83.037.829.036.83.034.831.034.831.031.831.031.832.029.832.028.832.026.833.025.833.024.833.022.834.022.834.02.834.018.835.018.834.016.836.015.835.014.836.012.836.012.836.01.837.009.837.008.837.006.837.006.837.004.838.003.838.003.838v1.677l-.001.839-.002.839-.004.839-.004.839-.006.839-.006.839-.008.84-.009.84-.009.84-.011.84-.012.84-.013.84-.013.84-.015.841-.016.84-.016.841-.018.84-.019.841-.019.84-.02.841-.022.841-.022.841-.023.84-.024.841-.025.841-.026.841-.026.841-.028.84-.028.841-.029.841-.03.841-.031.84-.031.841-.032.84-.034.841-.033.84-.035.841-.036.841-.072 1.679-.076 1.679-.079 1.68-.082 1.678-.084 1.678-.087 1.677-.089 1.677-.092 1.676-.094 1.675-.097 1.673-.099 1.673-.101 1.672-.103 1.671-.105 1.67-.107 1.668-.109 1.667-.111 1.666-.112 1.664-.114 1.663-.116 1.662-.117 1.659-.119 1.659-.12 1.656-.121 1.655-.123 1.653-.123 1.651-.125 1.649-.126 1.647-.126 1.645-.128 1.643-.128 1.641-.129 1.638-.13 1.637-.26 3.264-.263 3.256-.263 3.245-.264 3.234-.264 3.222-.524 6.41-.26 3.185-.257 3.172-.254 3.159-.251 3.144-.124 1.566-.122 1.563-.122 1.559-.12 1.555-.15 1.964-.15 1.965-.148 1.965-.148 1.965-.146 1.965-.146 1.966-.144 1.965-.143 1.966-.143 1.966-.141 1.966-.141 1.967-.14 1.966-.139 1.967-.138 1.966-.137 1.967-.136 1.967-.135 1.968-.135 1.967-.134 1.968-.133 1.967-.132 1.968-.132 1.968-.261 3.937-.258 3.937-.255 3.937-.254 3.938-.25 3.939-.249 3.939-.246 3.939-.244 3.94-.243 3.941-.24 3.941-.239 3.941-.238 3.942-.236 3.942-.236 3.942-.234 3.943-.233 3.943-.232 3.943-.463 7.888-.46 7.889-.922 15.78-.462 7.892-.232 3.946-.232 3.946-.234 3.946-.235 3.946-.235 3.946-.237 3.947-.239 3.946-.24 3.946-.241 3.947-.244 3.946-.245 3.947-.248 3.946-.249 3.947-.252 3.946-.255 3.946-.257 3.946-.26 3.946-.262 3.946-.133 1.973-.133 1.973-.134 1.973-.135 1.972-.135 1.973-.137 1.973-.137 1.972-.138 1.973-.139 1.972-.14 1.973-.141 1.972-.141 1.973-.143 1.972-.144 1.972-.144 1.972-.146 1.971-.083 1.139-.083 1.138-.082 1.138-.081 1.137-.08 1.139-.079 1.138-.079 1.138-.077 1.139-.076 1.138-.076 1.139-.075 1.139-.074 1.139-.074 1.139-.072 1.138-.144 2.279-.14 2.28-.138 2.279-.135 2.28-.133 2.281-.131 2.281-.128 2.281-.127 2.281-.126 2.283-.123 2.282-.122 2.283-.121 2.283-.12 2.283-.118 2.284-.118 2.284-.234 4.57-.232 4.571-.231 4.572-.232 4.572-.234 4.574-.118 2.288-.119 2.287-.12 2.288-.122 2.288-.122 2.288-.124 2.288-.126 2.289-.128 2.289-.129 2.289-.132 2.289-.134 2.289-.136 2.289-.139 2.29-.141 2.29-.145 2.288-.073 1.146-.074 1.145-.075 1.145-.075 1.145-.077 1.145-.077 1.145-.078 1.145-.079 1.145-.08 1.145-.081 1.145-.082 1.145-.082 1.145-.084 1.145-.085 1.146-.086 1.145-.086 1.145-.088 1.145-.089 1.145-.09 1.145-.091 1.146-.092 1.145-.093 1.145-.095 1.145-.095 1.145-.097 1.146-.098 1.145-.099 1.145-.101 1.145-.101 1.145-.103 1.145-.105 1.145-.105 1.146-.107 1.145-.108 1.137-.02.215-.02.23-.022.252-.022.273-.023.294-.024.313-.024.333-.025.348-.052.759-.054.826-.055.891-.056.954-.057 1.013-.057 1.07-.058 1.123-.057 1.174-.057 1.223-.056 1.269-.028.648-.027.66-.027.67-.027.68-.026.688-.026.698-.025.706-.025.714-.024.722-.023.729-.023.736-.022.744-.022.749-.02.756-.02.761-.019.767-.018.772-.017.776-.016.781-.015.784-.015.788-.013.792-.012.794-.01.797-.01.8-.008.8-.007.803-.006.804-.005.805-.003.804-.001.805-.001.805.002.805.002.803.005.802.006.8.007.799.009.796.011.793.013.79.015.787.016.783.018.778.02.775.022.769.024.764.026.758.028.753.029.746.032.739.035.732.036.724.038.717.041.708.043.7.045.693.023.339.024.34.025.337.025.334.026.332.026.329.027.326.027.325.028.321.029.318.029.315.03.312.03.309.031.307.032.303.032.3.033.297.033.293.034.29.034.287.035.283.036.279.036.276.037.273.037.269.038.265.039.26.039.257.039.254.04.249.041.244.041.241.042.236.042.232.042.227.043.223.044.218.043.213.044.209.045.204.045.198.044.193.046.188.045.183.046.177.045.171.046.166.024.084.019.004.217.056.134.037.125.037.124.038.128.041.132.045.137.049.143.054.146.059.156.068.161.074.167.083.178.095.191.11.199.125.207.142.225.169.237.199.242.228.254.272.258.319.251.366.121.216.213.423.011.025.186.485.008.025.138.512.005.026.085.558.003.026.022.557v.026l-.039.548-.004.027-.093.518-.007.028-.136.472-.009.028-.169.427-.096.214-.206.375-.217.331-.214.283-.209.245-.12.127-1.653 1.15-1.972.406h-1.444l-.163-.003-.203-.009-.203-.016-.203-.022-.203-.029-.199-.034-.194-.04-.199-.047-.193-.053-.188-.056-.188-.064-.184-.067-.178-.073-.176-.076-.171-.081-.165-.083-.162-.088-.158-.091-.155-.095-.148-.095-.143-.097-.14-.101-.024-.018-.159-.008-.28-.011-.264-.011-.242-.008-.428-.014-.33-.012-.173-.007-.168-.012-.202-.02-.359-.051-.255-.035-.255-.034-.256-.033-.256-.032-.257-.032-.257-.031-.258-.03-.258-.029-.259-.029-.259-.028-.257-.026-.524-.053-.522-.05-.525-.047-.527-.045-.528-.044-.531-.041-.533-.04-.534-.038-.537-.036-.538-.036-.54-.035-.541-.034-1.092-.066-2.202-.131-1.11-.067-.56-.036-.561-.036-.562-.037-.564-.04-.567-.04-.564-.043-1.679-.13-1.676-.131-1.674-.133-1.674-.134-1.672-.135-1.672-.135-1.671-.137-1.671-.137-3.337-.276-3.336-.278-3.333-.277-3.332-.276-3.331-.273-1.664-.136-1.665-.134-1.664-.134-1.664-.132-1.664-.131-1.665-.13-1.664-.127-1.664-.126-1.665-.124-1.665-.122-1.665-.12-1.665-.118-1.665-.115-1.668-.112-1.142-.076-1.144-.075-1.144-.074-1.143-.073-1.143-.073-1.142-.072-1.143-.071-1.142-.07-1.142-.069-1.142-.068-1.141-.068-1.141-.067-1.141-.066-1.141-.065-1.14-.065-1.14-.063-1.141-.063-1.14-.062-1.139-.062-1.14-.06-1.139-.06-1.138-.059-2.279-.116-2.277-.113-2.276-.109-2.276-.107-2.275-.104-2.275-.101-2.274-.099-2.274-.095-2.273-.093-2.273-.09-2.273-.087-2.272-.084-2.272-.082-2.273-.079-2.271-.077-2.272-.074-2.272-.071-2.272-.069-2.271-.067-2.272-.064-2.272-.061-2.272-.06-2.272-.057-2.272-.054-2.273-.052-2.273-.05-2.273-.048-2.274-.046-2.274-.043-2.274-.041-2.276-.04-2.275-.037-2.276-.035-2.277-.033-2.277-.031-2.279-.029-2.279-.027-2.279-.026-2.281-.023-2.281-.022-2.282-.019-2.284-.019-2.284-.016-2.285-.015-2.286-.012-2.288-.012-2.288-.009-2.29-.009-2.291-.006-2.293-.005-2.293-.004-2.295-.002-2.3-.001h-.518l-.523-.002-.521-.002-.522-.004-.522-.004-.521-.005-.521-.006-.524-.007-1.04-.017-1.041-.018-1.042-.022-1.04-.024-1.04-.026-1.039-.028-1.039-.029-1.038-.03-1.036-.032-1.037-.032-2.069-.066-2.066-.065-1.032-.032-1.03-.031-1.029-.03-1.028-.029-1.027-.028-1.026-.025-1.024-.023-1.023-.022-1.022-.018-1.022-.016-.508-.006-.51-.006-.508-.005-.509-.005-.337-.002-.112.137-.129.16-.284.353-.3.371-.161.199-.165.202-.17.205-.177.211-.183.214-.188.216-.189.212-.106.117-.103.112-.103.11-.106.111-.109.113-.11.112-.113.112-.115.113-.12.115-.12.113-.124.113-.129.115-.131.113-.135.113-.139.114-.144.114-.148.113-.154.113-.157.111-.166.112-.17.11-.177.109-.185.108-.192.106-.201.103-.208.1-.218.097-.228.093-.237.088-.221.073-.148.045-.137.038-.129.034-.135.032-.14.031-.134.026-.142.026-.148.023-.15.019-.149.017-.147.013-.152.01-.16.006-.156.003-.153-.001-.161-.004-.164-.009-.16-.013-.16-.016-.163-.021-.166-.025-.16-.029-.159-.033-.165-.038-.159-.042-.161-.045-.157-.05-.156-.053-.157-.058-.152-.061-.15-.064-.148-.067-.145-.07-.143-.074-.144-.078-.138-.08-.134-.082-.131-.083-.131-.088-.125-.088-.122-.089-.122-.094-.114-.092-.114-.095-.113-.098-.107-.097-.106-.099-.102-.1-.101-.101-.095-.101-.093-.1-.094-.105-.09-.104-.087-.104-.083-.104-.083-.105-.08-.105-.079-.107-.077-.107-.073-.105-.073-.108-.072-.109-.068-.108-.067-.107-.067-.11-.065-.11-.062-.109-.062-.111-.06-.11-.059-.11-.058-.112-.058-.115-.066-.134-.065-.134-.064-.137-.062-.135-.059-.135-.06-.138-.057-.137-.056-.137-.054-.136-.053-.137-.053-.14-.049-.136-.048-.137-.048-.141-.046-.138-.044-.137-.043-.138-.042-.14-.04-.138-.039-.138-.038-.138-.036-.14-.036-.139-.033-.138-.033-.138-.031-.139-.03-.139-.029-.137-.027-.138-.027-.14-.025-.138-.024-.138-.023-.139-.022-.138-.021-.137-.02-.138-.018-.138-.019-.146-.031-.265-.028-.275-.024-.274-.02-.272-.017-.273-.013-.271-.009-.271-.007-.27-.003-.269v-.269l.003-.268.006-.268.009-.266.011-.266.014-.265.017-.265.019-.264.021-.262.024-.262.026-.262.027-.261.03-.26.032-.259.034-.259.036-.259.037-.257.038-.255.041-.257.042-.255.044-.255.044-.253.047-.254.047-.252.049-.252.049-.25.051-.251.052-.249.053-.249.054-.249.054-.247.055-.246.057-.247.057-.248.115-.484.117-.485.119-.481.12-.478.121-.474.122-.471.121-.467.241-.919.236-.906.116-.444.112-.439.111-.434.107-.428.103-.422.1-.416.096-.414.046-.199.044-.199.044-.198.042-.197.041-.195.04-.193.039-.191.036-.188.036-.187.034-.184.033-.181.03-.18.03-.178.028-.175.026-.172.025-.17.023-.167.021-.165.019-.161.018-.16.016-.156.014-.152.013-.151.011-.147.009-.144.008-.14.005-.137.004-.134.003-.131.001-.145v-.705l.002-.723.002-.722.004-.722.004-.722.006-.721.006-.722.008-.721.008-.721.009-.721.01-.72.011-.721.012-.72.012-.72.013-.719.015-.72.015-.719.015-.721.034-1.436.036-1.437.039-1.436.042-1.436.044-1.434.046-1.435.049-1.433.051-1.433.052-1.432.055-1.431.056-1.431.057-1.43.059-1.43.061-1.429.061-1.429.062-1.428.064-1.428.128-2.853.131-2.852.132-2.85.131-2.848.131-2.847.128-2.847.063-1.422.062-1.422.061-1.422.06-1.422.059-1.421.057-1.421.056-1.421.053-1.421.053-1.421.05-1.421.048-1.42.046-1.42.043-1.421.041-1.42.039-1.42.036-1.42.033-1.422.015-.709.015-.71.014-.71.013-.71.013-.71.011-.71.011-.71.01-.71.009-.71.008-.711.007-.71.006-.71.006-.71.004-.711.003-.71.003-.71.001-.71.001-.712-.001-2.587-.003-2.589-.005-2.589-.007-2.589-.008-2.589-.011-2.589-.012-2.59-.013-2.589-.016-2.59-.016-2.59-.018-2.59-.02-2.59-.02-2.59-.022-2.591-.023-2.59-.024-2.591-.026-2.591-.026-2.591-.027-2.591-.028-2.59-.058-5.183-.06-5.183-.063-5.183-.064-5.183-.131-10.369-.132-10.368-.064-5.185-.063-5.185-.06-5.185-.058-5.184-.028-2.593-.027-2.593-.027-2.593-.025-2.592-.024-2.593-.023-2.592-.022-2.593-.021-2.593-.019-2.592-.018-2.593-.017-2.592-.015-2.593-.014-2.593-.012-2.592-.01-2.592-.009-2.593-.007-2.592-.005-2.593-.003-2.592-.001-2.593.002-2.476.003-2.478.005-2.478.007-2.479.009-2.48.009-2.481.011-2.482.012-2.482.026-4.965.026-4.968.027-4.97.012-2.485.012-2.485.01-2.486.01-2.486.008-2.485.007-2.486.004-2.486.003-2.486.001-2.485-.002-2.486-.004-2.485-.008-2.486-.004-1.241-.006-1.242-.006-1.242-.007-1.243-.008-1.241-.009-1.242-.01-1.242-.011-1.242-.011-1.241-.013-1.241-.014-1.241-.014-1.241-.016-1.241-.017-1.241-.018-1.24-.019-1.241-.02-1.24-.022-1.24-.022-1.24-.024-1.239-.026-1.24-.026-1.239-.028-1.238-.029-1.239-.03-1.239-.032-1.238-.034-1.238-.034-1.237-.037-1.238-.037-1.237-.04-1.237-.04-1.236-.043-1.237-.044-1.236-.045-1.235-.048-1.236-.049-1.235-.05-1.235-.052-1.234-.055-1.234-.055-1.234-.058-1.233-.06-1.233-.061-1.233-.063-1.232-.065-1.232-.067-1.232-.069-1.231-.071-1.231-.073-1.23-.075-1.23-.077-1.23-.079-1.229-.082-1.229-.083-1.228-.086-1.228-.087-1.227-.09-1.227-.092-1.227-.095-1.226-.096-1.226-.099-1.225-.102-1.224-.103-1.224-.107-1.224-.108-1.223-.111-1.223-.113-1.222-.116-1.222-.118-1.221-.121-1.22-.124-1.22-.126-1.22-.129-1.219-.131-1.218-.134-1.223-.065-.584-.064-.589-.063-.589-.062-.589-.061-.589-.06-.589-.059-.589-.058-.589-.058-.589-.056-.589-.055-.588-.055-.589-.054-.589-.052-.589-.052-.588-.051-.589-.051-.589-.049-.588-.048-.589-.048-.589-.047-.588-.045-.589-.045-.588-.045-.588-.043-.589-.043-.588-.042-.589-.041-.588-.04-.588-.04-.59-.076-1.175-.074-1.176-.071-1.176-.068-1.176-.065-1.175-.062-1.176-.06-1.176-.056-1.175-.055-1.175-.052-1.175-.049-1.175-.047-1.174-.045-1.175-.042-1.174-.04-1.174-.038-1.174-.036-1.174-.033-1.173-.032-1.174-.03-1.173-.028-1.173-.026-1.172-.024-1.173-.023-1.172-.021-1.172-.019-1.172-.018-1.172-.017-1.172-.015-1.171-.013-1.171-.013-1.171-.011-1.171-.01-1.17-.009-1.17-.008-1.17-.006-1.17-.006-1.17-.005-1.169-.004-1.17-.006-2.336-.004-2.336-.001-2.336v-2.334l.001-2.334.005-4.663.003-2.33.001-2.329.001-2.328-.001-2.327-.003-2.326-.006-2.325-.003-1.161-.005-1.161-.006-1.161-.006-1.161-.007-1.161-.009-1.16-.009-1.16-.011-1.159-.011-1.16-.013-1.158-.015-1.159-.015-1.158-.018-1.158-.018-1.158-.02-1.157-.022-1.157-.023-1.156-.025-1.157-.027-1.156-.029-1.155-.03-1.155-.033-1.155-.034-1.155-.037-1.154-.038-1.153-.041-1.154-.043-1.153-.045-1.152-.048-1.153-.05-1.152-.052-1.151-.055-1.151-.057-1.151-.06-1.151-.063-1.15-.065-1.149-.068-1.149-.071-1.149-.074-1.15-.038-.573-.039-.574-.04-.574-.04-.574-.041-.573-.042-.574-.042-.573-.044-.574-.044-.573-.045-.573-.046-.573-.046-.573-.048-.573-.048-.573-.049-.572-.05-.573-.051-.573-.052-.578-.065-.731-.064-.74-.063-.741-.06-.743-.058-.746-.057-.746-.054-.749-.053-.751-.05-.751-.049-.754-.047-.755-.044-.757-.043-.757-.041-.759-.039-.761-.036-.761-.035-.763-.033-.764-.03-.765-.028-.765-.027-.767-.024-.767-.022-.768-.02-.769-.018-.769-.016-.77-.014-.771-.012-.771-.009-.771-.007-.772-.005-.772-.003-.772-.001-.772.002-.772.003-.772.006-.773.009-.772.01-.772.013-.771.015-.771.017-.772.02-.77.022-.77.024-.769.027-.769.029-.769.031-.767.034-.767.036-.766.038-.764.041-.764.043-.763.046-.762.048-.761.051-.759.053-.758.055-.757.058-.755.061-.754.063-.752.065-.751.068-.749.071-.747.072-.732.021-.225.022-.238.023-.264.023-.287.025-.31.025-.33.025-.349.026-.365.054-.787.055-.844.057-.896.057-.939.058-.977.058-1.006.058-1.028.058-1.042.058-1.051.057-1.051.111-2.076.203-3.853.088-1.664.077-1.415.034-.602.03-.522.027-.439.025-.356.012-.166.014-.165.021-.193.031-.228.027-.142.184-.688.002-.007.667-1.187-.224-1.445.011-.248.059-.46.097-.444.131-.428.162-.406.184-.373.201-.34.21-.306.218-.276.216-.243.215-.217.215-.195.205-.169.2-.152.196-.136.185-.12.181-.108.174-.097.168-.087.165-.08.159-.074.154-.066.151-.062.147-.056.144-.053.142-.049.139-.045.138-.043.135-.041.135-.038.133-.036.132-.034.132-.032.13-.031.131-.03.131-.028.13-.027.139-.027.252-.047.262-.045.265-.042.267-.039.27-.036.273-.034.277-.032.28-.03.284-.028.288-.026.292-.024.295-.023.3-.022.304-.019.308-.019.312-.017.316-.016.319-.014.324-.014.327-.012.33-.011.335-.01.337-.009.341-.008.344-.007.347-.006.35-.004.352-.004.356-.003.357-.003.361-.001h.729l.731.003.741.006.746.009.75.011.753.014.754.016.754.018.753.02.751.022.747.023.742.025.735.026.727.028.719.028.708.029.696.029.682.03.669.031.652.03.636.03 1.211.06 1.126.058 1.03.054 1.719.092.666.036.518.026.189.009.14.006.068.003h10.501l.65-.001.647-.002.648-.003.648-.005.648-.005.649-.007.649-.009.648-.009.649-.01.65-.012.649-.013.65-.014.65-.015.65-.017.65-.017.65-.019.651-.019.651-.021.651-.022.651-.023.651-.023.652-.025.651-.026.652-.027.652-.027.652-.029.653-.03.652-.03.653-.031.653-.033.653-.033.653-.034.653-.035.654-.035.653-.037.654-.037.654-.038.653-.039 1.31-.08 1.309-.083 1.31-.086 1.31-.088 1.311-.091 1.311-.094 1.312-.095 1.312-.098 1.313-.1 1.313-.102 1.314-.104 1.314-.105 1.314-.108 1.315-.108 1.315-.11 1.315-.111 1.316-.113 1.317-.113 1.316-.115 2.634-.23 2.635-.233 2.636-.235 2.637-.234 2.638-.234 2.638-.232 1.32-.115 1.319-.114 1.32-.114 1.319-.112 1.32-.111 1.32-.11 1.32-.109 1.32-.107 1.32-.105 1.32-.104 1.32-.102 1.32-.1 1.32-.097 1.317-.096 3.865-.277 3.867-.279 7.748-.56 3.88-.281 3.883-.279 3.888-.278 3.89-.276 1.947-.137 1.947-.136 1.948-.135 1.949-.134 1.949-.133 1.95-.132 1.95-.13 1.951-.129 1.952-.128 1.952-.126 1.953-.125 1.952-.123 1.954-.121 1.953-.119 1.955-.117 1.954-.115 1.954-.113 1.955-.111 1.955-.108 1.956-.106 1.955-.104 1.956-.101 1.955-.098 1.956-.095 1.955-.093 1.955-.09.979-.044.978-.042.978-.043.977-.041.978-.041.978-.039.977-.039.978-.038.978-.038.977-.036.978-.035.977-.035.978-.034.977-.033.977-.032.978-.031.977-.03.977-.029.977-.028.977-.027.977-.026.976-.026.977-.024.977-.023.976-.022.976-.021.977-.021.976-.019.976-.018.976-.017.975-.015.976-.015.976-.014.975-.012.975-.011.975-.011.975-.009.975-.008.975-.006.974-.006.975-.004.974-.003.974-.002.961-.001.292-.001.284-.003.289-.006.293-.008.298-.011.302-.012.306-.015.309-.017.314-.019.317-.02.321-.023.324-.025.328-.026.331-.028.334-.029.337-.031.339-.033.343-.034.345-.035.348-.036.35-.038.351-.038.715-.081.72-.084.728-.086.735-.089.742-.089.747-.091.753-.09.756-.09.761-.088.762-.086.385-.043.384-.041.384-.04.385-.04.386-.038.385-.037.387-.036.386-.035.387-.033.387-.032.387-.029.387-.029.387-.026.387-.024.388-.023.387-.02.387-.018.387-.015.386-.013.387-.011.386-.008.386-.005.385-.002.386.001zm-.681 10.001l-.311.004-.315.006-.318.009-.321.011-.325.013-.327.015-.331.017-.333.019-.336.022-.339.023-.341.025-.343.026-.346.028-.347.03-.351.031-.352.033-.353.034-.356.036-.357.036-.359.038-.361.039-.36.039-.73.083-.733.085-.737.087-.74.089-.743.09-.746.09-.747.09-.748.089-.749.087-.746.084-.377.042-.375.04-.374.039-.374.038-.374.037-.373.036-.373.034-.373.033-.372.032-.372.029-.371.028-.37.027-.371.024-.369.022-.369.02-.368.018-.367.015-.367.013-.366.01-.365.007-.365.005-.351.001-.974.001-.961.002-.962.003-.962.004-.962.006-.962.006-.963.008-.963.009-.963.01-.964.011-.964.012-.964.014-.964.014-.965.016-.965.017-.965.018-.965.018-.965.02-.966.021-.966.022-.966.023-.967.024-.966.025-.967.026-.967.027-.967.028-.968.029-.967.029-.968.031-.968.032-.968.032-.968.034-.969.034-.968.035-.969.036-.969.037-.969.038-.969.039-.97.039-.969.04-.97.041-.97.042-.97.043-.969.043-1.941.089-1.941.092-1.941.095-1.942.097-1.942.101-1.942.102-1.943.106-1.943.107-1.943.111-1.944.112-1.943.114-1.944.117-1.943.118-1.944.121-1.944.122-1.944.124-1.944.126-1.944.127-1.944.129-1.943.13-1.944.131-1.943.133-1.943.133-1.943.135-1.942.136-1.942.136-3.884.275-3.882.278-3.88.279-3.878.281-7.749.56-3.87.279-3.864.278-1.305.094-1.304.096-1.305.099-1.305.101-1.306.102-1.308.105-1.308.106-1.309.108-1.31.109-1.31.11-1.312.112-1.312.113-1.313.113-1.314.115-2.63.231-2.633.234-2.636.234-2.639.234-2.641.234-2.642.232-1.324.115-1.323.114-1.324.113-1.324.112-1.325.11-1.325.11-1.326.108-1.326.107-1.327.104-1.327.103-1.328.102-1.328.099-1.329.097-1.329.094-1.33.092-1.329.09-1.331.087-1.33.084-1.33.082-.667.039-.665.039-.666.038-.666.037-.666.037-.666.035-.666.035-.666.034-.666.033-.666.032-.666.031-.667.03-.666.029-.667.029-.666.027-.667.026-.667.026-.666.024-.667.023-.667.023-.667.021-.667.02-.667.019-.667.018-.667.017-.667.015-.667.015-.667.013-.667.012-.668.011-.667.01-.667.008-.668.007-.667.006-.667.005-.668.003-.667.002-.665.001h-10.587l-.176-.003-.195-.007-.204-.009-.232-.011-.548-.028-.679-.036-1.716-.092-1.017-.054-1.11-.056-1.194-.059-.623-.03-.64-.03-.655-.03-.668-.029-.681-.029-.692-.028-.701-.028-.709-.026-.716-.026-.721-.024-.724-.023-.727-.021-.728-.019-.728-.018-.725-.015-.722-.013-.717-.011-.711-.009-.702-.005-.696-.003h-.68l-.336.001-.333.002-.329.003-.326.004-.322.004-.317.006-.314.006-.308.007-.304.008-.298.009-.293.01-.288.01-.282.012-.276.013-.269.013-.263.015-.256.015-.248.016-.241.017-.234.018-.225.019-.2.019v.003l.01.266.001.161-.288 1.502.007-.009.114-.331.089-.464.026-.185.006-.062-.002.02-.005.075-.019.281-.025.393-.028.494-.033.582-.076 1.4-.088 1.657-.203 3.854-.112 2.084-.057 1.058-.058 1.058-.059 1.052-.058 1.038-.059 1.019-.059.991-.058.958-.058.918-.057.871-.056.816-.028.39-.027.372-.027.356-.027.341-.026.324-.027.307-.026.29-.025.26-.071.723-.067.711-.065.714-.063.715-.06.718-.058.719-.055.721-.053.723-.051.724-.048.727-.046.727-.044.729-.041.731-.039.732-.037.732-.035.735-.032.735-.03.737-.028.737-.025.738-.024.739-.021.74-.019.74-.016.741-.015.742-.012.742-.01.743-.008.743-.006.743-.003.743-.002.744.001.743.003.744.004.743.007.744.009.743.012.743.013.743.015.742.017.741.02.742.021.74.024.74.025.739.028.738.029.738.031.736.034.735.035.735.038.733.039.732.041.73.043.73.045.727.047.727.049.724.05.723.053.722.054.719.056.718.059.715.059.714.062.712.064.715.053.582.052.587.051.587.05.587.05.588.048.587.048.587.047.588.046.587.045.587.045.587.043.587.043.587.042.587.041.587.041.588.039.587.039.588.076 1.172.072 1.174.07 1.174.067 1.173.064 1.174.061 1.173.058 1.174.056 1.173.053 1.173.051 1.173.049 1.172.046 1.173.043 1.173.042 1.172.039 1.172.037 1.172.035 1.172.033 1.172.031 1.172.029 1.172.027 1.171.025 1.171.024 1.171.022 1.171.02 1.171.019 1.171.018 1.17.015 1.17.015 1.171.013 1.17.012 1.169.011 1.17.009 1.169.009 1.17.007 1.169.006 1.169.006 1.168.004 1.169.004 1.169.006 2.335.003 2.335.001 2.335-.001 2.334-.001 2.332-.003 2.332-.005 4.662-.001 2.329v2.328l.001 2.327.004 2.326.006 2.327.004 1.161.005 1.162.005 1.162.007 1.161.008 1.162.009 1.161.01 1.16.011 1.161.012 1.16.014 1.16.014 1.159.017 1.159.017 1.159.02 1.159.02 1.159.023 1.158.024 1.157.026 1.158.027 1.157.029 1.157.032 1.157.033 1.156.035 1.156.038 1.156.039 1.155.042 1.156.043 1.154.047 1.155.048 1.154.051 1.154.053 1.153.056 1.153.059 1.153.061 1.153.063 1.152.067 1.152.069 1.151.072 1.151.076 1.153.038.573.039.575.041.576.04.575.042.575.043.574.043.575.044.575.045.575.045.574.047.574.047.575.048.574.049.574.05.574.05.574.052.574.052.573.053.574.054.574.055.573.056.574.057.573.057.573.059.573.059.573.06.574.062.572.062.573.064.578.135 1.235.134 1.24.131 1.24.128 1.241.126 1.242.123 1.241.12 1.242.118 1.242.115 1.243.113 1.242.11 1.243.108 1.244.105 1.243.103 1.244.101 1.245.098 1.244.096 1.245.093 1.245.092 1.245.089 1.245.086 1.246.085 1.246.082 1.246.081 1.246.078 1.247.076 1.246.074 1.247.072 1.247.07 1.248.067 1.247.066 1.248.064 1.247.062 1.248.061 1.248.058 1.249.057 1.248.054 1.248.053 1.249.051 1.249.05 1.248.048 1.249.046 1.249.044 1.249.043 1.25.041 1.249.04 1.249.038 1.25.036 1.249.035 1.249.034 1.25.032 1.25.031 1.249.029 1.25.029 1.249.026 1.25.026 1.25.024 1.249.023 1.25.021 1.25.021 1.25.019 1.249.018 1.25.017 1.249.016 1.25.015 1.249.013 1.25.013 1.249.012 1.249.011 1.249.01 1.25.008 1.249.009 1.249.007 1.248.006 1.249.006 1.249.004 1.249.008 2.496.004 2.496.002 2.495-.001 2.495-.003 2.494-.004 2.494-.007 2.492-.008 2.492-.01 2.491-.01 2.49-.012 2.488-.012 2.488-.027 4.972-.026 4.967-.026 4.963-.012 2.478-.011 2.478-.01 2.476-.008 2.474-.007 2.473-.005 2.471-.003 2.469-.002 2.468.001 2.584.003 2.585.005 2.585.007 2.585.009 2.586.01 2.586.012 2.586.014 2.586.015 2.587.017 2.587.018 2.587.019 2.588.021 2.588.022 2.588.023 2.588.024 2.589.025 2.588.026 2.589.027 2.59.028 2.589.058 5.18.061 5.18.062 5.182.065 5.182.131 10.367.131 10.369.064 5.186.063 5.187.061 5.187.058 5.188.028 2.594.027 2.595.026 2.594.025 2.595.024 2.594.023 2.595.022 2.595.021 2.595.02 2.596.018 2.595.016 2.595.015 2.596.014 2.596.012 2.595.011 2.596.008 2.596.007 2.596.005 2.597.003 2.596.001 2.597-.001.724-.001.724-.003.724-.003.724-.005.724-.005.723-.007.723-.007.723-.008.723-.009.722-.01.722-.011.722-.012.722-.012.722-.014.721-.014.721-.015.72-.015.722-.034 1.439-.036 1.44-.039 1.439-.042 1.438-.044 1.437-.047 1.436-.048 1.435-.051 1.435-.053 1.434-.054 1.433-.056 1.432-.058 1.432-.059 1.431-.06 1.43-.061 1.43-.063 1.429-.063 1.429-.129 2.854-.13 2.852-.132 2.851-.131 2.848-.131 2.846-.128 2.846-.063 1.421-.062 1.421-.061 1.421-.06 1.421-.059 1.42-.057 1.42-.056 1.419-.054 1.42-.052 1.419-.05 1.418-.048 1.419-.046 1.418-.044 1.418-.041 1.418-.038 1.418-.036 1.417-.033 1.419-.016.707-.014.709-.014.709-.013.708-.013.709-.011.708-.011.709-.01.708-.009.709-.008.708-.007.708-.006.709-.006.708-.004.709-.004.708-.002.709-.002.708v.727l-.002.234-.004.251-.008.25-.01.251-.014.249-.016.248-.018.248-.021.247-.023.246-.025.246-.028.245-.029.245-.032.244-.033.244-.035.242-.037.243-.038.242-.04.241-.042.241-.043.242-.044.24-.046.239-.047.24-.048.239-.049.239-.051.238-.051.237-.052.238-.054.238-.054.241-.109.467-.113.472-.115.469-.117.468-.119.466-.119.465-.12.463-.24.917-.239.912-.117.45-.115.449-.114.445-.111.442-.109.439-.105.435-.103.434-.049.211-.048.212-.048.212-.046.211-.045.208-.044.209-.043.207-.042.205-.041.204-.039.203-.038.201-.036.2-.035.198-.034.197-.032.194-.03.193-.029.193-.028.19-.026.187-.024.186-.022.185-.021.182-.02.18-.017.178-.016.177-.014.174-.013.172-.01.169-.002.023.011-.012.093-.102.095-.103.095-.101.1-.104.102-.105.107-.106.111-.108.113-.107.12-.109.126-.112.131-.112.138-.113.147-.115.158-.119.167-.117.178-.12.194-.12.207-.12.227-.119.248-.119.267-.113.258-.095.188-.061.162-.047.169-.044.175-.04.179-.035.19-.032.2-.025.199-.018.209-.012.17-.003h.568l.527.002.526.002.526.004.525.004.526.005.525.006.526.007 1.047.016 1.048.019 1.047.022 1.046.024 1.044.026 1.043.027 1.042.03 1.04.03 1.039.032 1.038.032 2.07.065 2.066.066 1.03.032 1.028.031 1.027.03 1.025.029 1.023.027 1.021.026 1.02.023 1.017.021 1.016.019 1.015.016.504.006.506.006.505.005.504.005.504.003.504.002.502.002h.506l2.299.001 2.301.002 2.3.004 2.299.005 2.298.006 2.297.009 2.295.009 2.295.012 2.293.013 2.293.014 2.292.017 2.291.018 2.29.02 2.289.021 2.289.024 2.288.025 2.287.028 2.287.029 2.286.031 2.285.033 2.285.035 2.285.038 2.284.039 2.284.042 2.284.043 2.283.046 2.283.048 2.283.05 2.283.053 2.282.054 2.283.058 2.282.059 2.283.062 2.282.064 2.283.067 2.282.07 2.283.071 2.283.075 2.283.077 2.284.079 2.283.082 2.285.085 2.284.088 2.285.09 2.286.094 2.286.095 2.286.099 2.287.102 2.288.104 2.288.108 2.29.11 2.29.114 2.29.116 1.146.06 1.146.06 1.146.061 1.146.061 1.147.063 1.147.063 1.147.064 1.147.065 1.147.066 1.148.066 1.148.067 1.148.068 1.149.069 1.149.07 1.149.07 1.149.072 1.15.072 1.15.073 1.15.074 1.151.074 1.151.076 1.152.076 1.681.114 1.681.116 1.679.118 1.679.121 1.677.123 1.677.125 1.675.127 1.675.128 1.673.13 1.673.132 1.672.133 1.672.134 1.67.135 1.671.136 3.337.274 3.337.277 3.334.277 3.334.277 3.333.275 1.666.137 1.666.137 1.666.135 1.667.134 1.666.134 1.667.132 1.666.13 1.664.129.538.041.536.038.538.038.54.036.541.035.542.034 1.093.066 2.2.131 1.108.067.558.035.559.036.56.037.562.039.564.04.565.042.566.044.568.047.569.048.571.052.573.054.206.021-.007-.038-.051-.287-.049-.289-.049-.293-.047-.294-.047-.298-.045-.3-.045-.303-.044-.305-.042-.308-.042-.31-.041-.313-.041-.316-.039-.319-.039-.32-.037-.323-.037-.326-.037-.328-.035-.331-.035-.332-.034-.336-.033-.337-.032-.34-.032-.342-.031-.345-.03-.347-.03-.348-.029-.351-.028-.353-.027-.355-.027-.358-.026-.358-.026-.362-.025-.365-.047-.729-.046-.74-.042-.746-.041-.753-.038-.76-.035-.765-.034-.772-.031-.777-.029-.782-.027-.787-.025-.792-.022-.797-.021-.8-.019-.804-.017-.807-.014-.811-.014-.813-.011-.815-.009-.818-.008-.819-.006-.821-.005-.822-.002-.822-.002-.823.001-.823.001-.823.003-.823.005-.821.006-.82.007-.819.009-.817.009-.814.011-.813.013-.809.013-.806.014-.802.016-.799.016-.794.018-.79.018-.785.019-.779.02-.775.021-.768.022-.762.023-.755.023-.749.024-.741.024-.734.025-.725.026-.718.026-.709.027-.7.027-.691.027-.681.028-.672.028-.662.057-1.289.058-1.245.059-1.198.059-1.147.058-1.095.059-1.039.058-.982.056-.92.056-.859.054-.791.027-.374.026-.355.026-.338.025-.321.025-.304.024-.287.024-.269.023-.246.108-1.141.105-1.133.105-1.134.103-1.133.102-1.134.101-1.134.1-1.135.098-1.134.097-1.135.096-1.135.095-1.135.093-1.135.093-1.135.091-1.136.09-1.135.089-1.136.089-1.136.087-1.136.086-1.136.085-1.136.084-1.137.083-1.136.082-1.137.081-1.137.08-1.137.08-1.137.078-1.138.078-1.137.077-1.138.076-1.138.075-1.138.074-1.138.074-1.138.073-1.137.143-2.279.141-2.277.138-2.278.136-2.279.133-2.279.131-2.28.129-2.28.127-2.281.126-2.281.123-2.281.123-2.282.121-2.283.119-2.283.119-2.283.118-2.283.234-4.57.232-4.57.231-4.571.232-4.574.234-4.573.118-2.289.119-2.288.12-2.288.121-2.288.122-2.289.124-2.289.126-2.29.127-2.29.129-2.289.132-2.291.133-2.29.136-2.291.139-2.29.141-2.291.144-2.291.073-1.146.074-1.146.074-1.146.076-1.145.076-1.146.077-1.146.078-1.146.079-1.146.079-1.146.081-1.146.081-1.146.083-1.146.083-1.146.084-1.145.146-1.968.144-1.967.143-1.968.143-1.967.141-1.968.14-1.968.14-1.968.139-1.968.137-1.968.137-1.968.136-1.969.136-1.968.134-1.969.134-1.969.133-1.969.132-1.968.262-3.939.259-3.939.257-3.94.254-3.94.252-3.94.249-3.94.247-3.941.245-3.942.243-3.942.242-3.942.24-3.942.238-3.943.237-3.943.235-3.943.235-3.943.233-3.944.233-3.944.231-3.944.463-7.889.921-15.78.46-7.89.463-7.891.233-3.945.233-3.946.234-3.945.235-3.945.237-3.946.238-3.945.239-3.945.241-3.945.243-3.945.244-3.945.247-3.945.249-3.945.251-3.944.253-3.944.256-3.944.259-3.944.261-3.944.132-1.972.133-1.971.133-1.972.134-1.972.135-1.971.136-1.972.136-1.971.138-1.971.138-1.971.139-1.971.14-1.972.141-1.971.142-1.97.143-1.971.144-1.971.145-1.97.145-1.971.147-1.97.148-1.971.149-1.97.15-1.97.151-1.97.12-1.561.122-1.565.123-1.569.124-1.572.252-3.152.254-3.165.258-3.178.26-3.189.525-6.41.263-3.222.264-3.23.263-3.24.262-3.249.26-3.258.129-1.631.129-1.633.127-1.635.127-1.638.127-1.638.125-1.641.124-1.642.123-1.643.122-1.645.121-1.647.119-1.647.118-1.65.116-1.65.116-1.652.113-1.652.112-1.654.11-1.654.108-1.656.106-1.657.105-1.657.102-1.658.1-1.659.098-1.659.096-1.661.093-1.66.091-1.661.089-1.661.086-1.662.083-1.662.081-1.662.078-1.663.075-1.662.073-1.664.035-.83.034-.831.033-.832.033-.831.032-.831.031-.831.031-.831.029-.831.029-.831.028-.831.027-.83.026-.831.026-.831.024-.83.024-.83.023-.831.022-.83.021-.83.02-.83.019-.829.018-.83.018-.829.016-.829.016-.829.014-.829.014-.828.012-.829.012-.828.01-.828.01-.828.008-.827.008-.827.007-.828.005-.826.004-.827.004-.826.002-.826.001-.825V254.361l-.002-.825-.004-.824-.004-.824-.005-.824-.007-.823-.008-.823-.008-.823-.01-.822-.012-.822-.012-.821-.013-.822-.015-.82-.016-.821-.017-.82-.019-.819-.019-.819-.021-.819-.022-.818-.024-.818-.024-.817-.026-.817-.027-.816-.029-.816-.03-.816-.031-.814-.032-.815-.034-.814-.035-.813-.037-.813-.037-.812-.04-.812-.04-.811-.042-.811-.043-.81-.045-.809-.046-.809-.048-.808-.049-.808-.05-.807-.052-.806-.054-.806-.054-.806-.057-.804-.057-.804-.06-.803-.06-.803-.063-.802-.063-.801-.066-.801-.066-.8-.069-.799-.07-.799-.071-.798-.073-.797-.075-.796-.076-.795-.078-.796-.079-.794-.081-.793-.083-.793-.084-.791-.086-.791-.087-.79-.09-.79-.09-.789-.093-.787-.094-.787-.096-.787-.098-.785-.099-.784-.101-.784-.102-.783-.105-.782-.106-.781-.108-.78-.11-.779-.111-.779-.113-.777-.115-.777-.117-.775-.119-.775-.12-.774-.122-.772-.124-.772-.126-.771-.128-.77-.13-.769-.131-.768-.133-.767-.135-.766-.137-.765-.139-.764-.141-.763-.143-.762-.145-.761-.146-.76-.149-.758-.148-.747-.026-.124-.023-.109-.025-.105-.025-.105-.027-.102-.026-.099-.028-.096-.028-.094-.029-.092-.029-.089-.03-.087-.03-.085-.031-.082-.031-.08-.031-.078-.032-.077-.033-.074-.033-.072-.033-.07-.033-.068-.034-.067-.034-.065-.035-.064-.034-.061-.035-.06-.036-.059-.036-.057-.036-.056-.036-.054-.037-.054-.037-.052-.038-.05-.037-.05-.039-.049-.039-.049-.04-.047-.039-.046-.041-.045-.041-.046-.042-.044-.042-.043-.043-.043-.043-.042-.045-.042-.046-.042-.046-.041-.047-.04-.048-.04-.049-.04-.05-.039-.051-.039-.053-.039-.053-.038-.054-.038-.056-.038-.057-.038-.058-.036-.059-.037-.061-.037-.062-.036-.064-.037-.065-.035-.066-.036-.068-.035-.069-.035-.07-.034-.073-.035-.074-.034-.075-.033-.077-.033-.078-.033-.081-.033-.081-.032-.083-.031-.085-.031-.086-.031-.088-.03-.089-.03-.091-.03-.093-.028-.094-.029-.096-.028-.098-.027-.099-.027-.1-.026-.102-.026-.104-.025-.104-.025-.107-.024-.108-.023-.11-.023-.111-.022-.112-.022-.115-.021-.115-.02-.117-.02-.118-.019-.12-.018-.121-.018-.122-.017-.124-.016-.125-.016-.126-.015-.128-.015-.129-.013-.131-.014-.131-.012-.133-.012-.134-.011-.135-.01-.137-.01-.138-.009-.138-.009-.14-.008-.141-.007-.142-.006-.143-.006-.145-.005-.145-.005-.147-.004-.147-.003-.143-.002-.306-.004-.304-.001-.307.002zM630.32 185.268l.038.416.06.283.126.273-.229-1.108.005.136zm9.762-1.639l.009.02.044-.057.169-.246.065-.111-.287.394zm.512-.815l.029-.059.137-.343.112-.365.082-.379.051-.396.008-.182-.419 1.724z"/></svg>