<svg viewBox="0 0 1921 1080" xmlns="http://www.w3.org/2000/svg" fill-rule="evenodd" clip-rule="evenodd" stroke-linejoin="round" stroke-miterlimit="1.414"><path d="M.13 0h1920v1080H.13z"/><path d="M960.54 796.807c5.856-5.857 5.854-15.355 0-21.21l-13.283-13.282c-5.859-5.859-15.353-5.857-21.21 0l-152.91 152.91c-5.857 5.857-5.859 15.351 0 21.21l13.282 13.282c5.855 5.855 15.353 5.857 21.21 0l152.91-152.91z" fill="#fff"/><path d="M981.751 762.322c-5.856-5.856-15.354-5.855-21.21 0l-13.282 13.283c-5.858 5.858-5.856 15.353 0 21.21l152.91 152.91c5.857 5.856 15.352 5.858 21.21 0l13.283-13.283c5.855-5.855 5.856-15.353 0-21.21l-152.91-152.91z" fill="#fff"/><path d="M978.286 789.968c0-8.282-6.717-14.999-14.997-14.999h-18.785c-8.285 0-14.997 6.717-14.997 14.999V945.33c0 8.286 6.712 14.999 14.997 14.999h18.785c8.28 0 14.997-6.713 14.997-15V789.969z" fill="#fff"/><path d="M460.823 119.675h986.148v655.298H460.823z"/><path d="M1446.973 774.983h-986.15V119.675h986.15v655.308zm-974.15-643.3v631.292h962.15V131.683h-962.15z" fill="#fff"/><path d="M1489.276 134.665c0-8.283-6.707-15.004-14.992-15.004H445.992c-8.285 0-14.992 6.721-14.992 15.004v53.631c0 8.283 6.707 14.992 14.992 14.992h1028.292c8.285 0 14.992-6.71 14.992-14.992v-53.631zM1489.276 706.335c0-8.283-6.707-15.004-14.992-15.004H445.992c-8.285 0-14.992 6.721-14.992 15.004v53.631c0 8.283 6.707 14.992 14.992 14.992h1028.292c8.285 0 14.992-6.71 14.992-14.992v-53.631z" fill="#fff"/><g><text x="4349.14" y="1767.61" font-family="'Boogaloo-Regular','Boogaloo',cursive" font-size="123" fill="#fff" transform="translate(-3655.157 -1277.062)">Problème n°1</text></g></svg>