<svg viewBox="0 0 1921 1080" xmlns="http://www.w3.org/2000/svg" fill-rule="evenodd" clip-rule="evenodd" stroke-linecap="round" stroke-linejoin="round" stroke-miterlimit="1.5"><g transform="translate(.13)"><path d="M0 0h1920v1080H0z"/><clipPath id="a"><path d="M0 0h1920v1080H0z"/></clipPath><g clip-path="url(#a)"><g opacity=".229"><circle cx="1012.19" cy="1265.86" r="612.186" fill="none" stroke="#0f0" stroke-width="6.16" transform="matrix(.81227 0 0 .81227 137.827 42.537)"/><circle cx="1012.19" cy="1265.86" r="612.186" fill="none" stroke="#0f0" stroke-width="9" transform="matrix(.55539 0 0 .55539 397.845 367.721)"/><circle cx="1012.19" cy="1265.86" r="612.186" fill="none" stroke="#0f0" stroke-width="15.6" transform="matrix(.32055 0 0 .32055 635.547 664.996)"/><circle cx="1012.19" cy="1265.86" r="612.186" fill="none" stroke="#0f0" stroke-width="35.75" transform="matrix(.13986 0 0 .13986 818.43 893.712)"/></g><path d="M325.555 1082.04c0-52.85-2.131-130.604 13.61-177.828 58.488-175.464 178.39-330.533 352.027-417.352 50.117-25.058 107.121-37.824 162.405-56.252 22.013-7.338 47.353 1.091 69.861-4.536 58.049-14.513 117.922 5.801 170.572 16.331 16.78 3.356 37.91 2.626 52.62 9.98 17.16 8.579 42.94 15.017 59.88 26.311 34.5 23.001 73.66 43.633 111.6 62.603 33.61 16.804 60.57 45.713 94.36 62.603 6.98 3.492 90.21 120.805 101.61 137.908 9.89 14.824 16.31 33.531 24.5 49.901 22.79 45.578 56.25 139.389 56.25 185.994 0 11.849.38 60.627 4.54 68.957 2.8 5.6 0 35.26 0 32.66" fill="none" stroke="#0f0" stroke-width="14.72" stroke-dasharray="42.32,61.46,0,0"/><circle cx="969.068" cy="1158.37" r="21.234" fill="#0f0" transform="translate(-339.432 -473.266) scale(1.34091)"/><path d="M1034.88 1044l-.03-.09.03.09-.02-.07-.03-.06.06.12-.03-.06-.16-.34-.17-.36-.17-.36-.18-.36-.16-.36-.17-.35-.17-.35-.17-.35-.34-.7-.33-.69-.34-.68-.34-.69-.11-.22-.21-.47-.32-.69-.33-.7-.32-.7-.16-.35-.16-.36-.05-.09-.01-.32-.03-.42-.04-.42-.04-.25-.01-.1-.15-.18-.28-.43-.27-.53-.21-.57-.14-.61-.07-.67.03-.74.14-.71.18-.53.21-.45.27-.45.34-.46.42-.43.49-.4.55-.33.6-.26.62-.17.61-.09.58-.01.54.06h.01l1.56-.19 1.56.87 1.03 1.82.13 1 .08.07.16.15.3.26.32.25.24.16.06.09.18.32.19.31.39.63.38.63.4.64.27.44.12.21.39.67.39.68.4.69.4.7.2.36.21.36.2.36.21.37.2.38.21.38.2.39.22.42.1.2.1.22.1.21.09.21.09.21.08.21.09.22.08.21.08.22.08.22.08.23.08.23.08.24.08.24.08.25.08.25.08.26.08.26.08.27.08.27.09.28.08.28.08.29.09.29.08.3.08.3.09.31.08.31.09.32.08.32.09.33.09.33.08.34.09.33.08.35.09.34.09.35.03.16.05.2.08.35.08.36.09.37.08.36.08.37.08.37.08.38.08.38.08.37.08.39.08.38.07.38.08.39.08.39.07.38.08.4.07.39.07.39.07.39.08.4.07.39.06.4.07.39.07.4.06.39.07.4.06.39.06.4.06.39.06.39.06.39.04.3.01.1.05.39.05.39.04.39.05.38.04.39.04.38.04.38.04.38.03.38.04.38.03.37.03.38.02.37.03.36.02.37.02.36v.08l.01.28.01.36.01.36.01.35v.7l-.01.35v.34l-.02.35-.01.33-.01.17-.01.17-.01.17-.01.17-.01.17-.01.16-.02.17-.01.17-.02.16-.02.15-.01.02-.06.16-.06.16-.06.16-.06.16-.06.16-.07.16-.06.16-.06.16-.07.16-.06.16-.07.16-.07.16-.06.16-.07.16-.07.16-.08.16-.07.16-.08.16-.08.16-.02.06-.04.11-.05.18-.06.18-.06.18-.06.18-.08.19-.08.19-.08.19-.09.19-.1.2-.11.19-.12.21-.13.2-.14.2-.14.21-.17.2-.17.21-.19.21-.2.2-.04.04-.18.15-.25.17-.26.17-.26.17-.28.15-.3.14-.3.13-.3.12-.32.1-.32.09-.32.07-.33.05-.32.04-.33.02-.31.01-.19-.01h-.01l-2.14-.53-1.78-1.18-1.22-1.67-.47-1.97v-.02l1.54-3.31.12-.08-.01-.04-.01-.06-.02.07-.02-.06-.01-.06-.02.07-.01-.07-.02-.08-.02.07-.01-.08-.02-.07-.02.06-.02-.08-.02-.08-.01.06-.02-.09-.03-.06-.03-.07-.04-.06-.03-.07-.03-.07-.04-.08V1071.27l.01-.08v-.08l.01-.08v-.09l.01-.09v-.18l.01-.1v-1.22l-.01-.25-.01-.25-.01-.26-.01-.27-.01-.22-.01-.06-.01-.28-.02-.29-.01-.3-.02-.3-.03-.3-.02-.31-.02-.31-.03-.32-.03-.32-.03-.33-.04-.33-.03-.33-.04-.34-.04-.34-.04-.34-.04-.34-.01-.09-.03-.26-.04-.35-.04-.35-.05-.36-.04-.35-.05-.36-.05-.36-.05-.36-.05-.35-.05-.37-.05-.36-.06-.36-.05-.36-.06-.36-.05-.36-.06-.36-.06-.36-.06-.36-.06-.36-.06-.36-.07-.35-.06-.36-.06-.35-.07-.35-.06-.35-.07-.34-.06-.35-.07-.34-.06-.34-.07-.33-.07-.34-.06-.33-.04-.18-.03-.14-.06-.32-.07-.32-.06-.32-.07-.31-.06-.3-.06-.31-.07-.29-.06-.29-.06-.29-.06-.28-.07-.28-.06-.26-.06-.27-.06-.25-.06-.26-.06-.24-.06-.24-.06-.22-.05-.23-.06-.21-.05-.21-.06-.19-.05-.19-.05-.18-.05-.17-.05-.16-.04-.14-.04-.14-.04-.12-.04-.11-.03-.1-.04-.12.03.07-.04-.1zm4.64 28.22l.03-.05v-.02l-.03.07zm-.01-.01l.01-.01-.01.01zm0-.02l.01-.02-.01.02zm-.03 0l.02-.01v-.06l-.02.07zm.04-.04l-.01.02.01-.01v-.02.01zm-.01.02l.01-.02v-.01l-.01.03zm.19-.5l-.08.13.04-.06-.08.13.05-.05-.07.12.04-.06-.06.12.04-.07-.05.12.04-.06-.05.11.04-.07-.05.1.04-.06-.03.07.03-.05-.03.07h.01l.02-.04-.02.04.01-.01.01-.01v.01-.02.02l3.62-2.16.01-.01.06-.02-.25.02.05-.02-.26.02.06-.02-.26.04.05-.03-.26.05.05-.02-.27.06.06-.03-.27.08.05-.03-.26.09.05-.04-.25.1.04-.03-.24.11.04-.04-.24.13.04-.05-.22.14.04-.05-.22.14.04-.04-.21.14.04-.05-.19.16.03-.06-.18.16.03-.04-.16.14.05-.03-.15.15.05-.04-.15.16.05-.05-.13.16.05-.05-.12.15.04-.05-.11.15.05-.05-.1.14.04-.05-.09.14.05-.05zm-.16.48zm0 0h.01-.01zm-.02-.01zm-9.29-39.71l-.01-.02-.01-.01.02.03zM1150.26 1053.78l-.03-.11.03.1-.03-.09-.02-.06-.02-.06-.09-.19-.09-.2-.09-.19-.09-.2-.08-.19-.08-.2-.08-.19-.08-.2-.07-.19-.07-.2-.08-.19-.06-.2-.07-.19-.07-.19-.06-.2-.06-.19-.06-.2-.06-.19-.06-.19-.05-.2-.05-.19-.06-.19-.05-.19-.05-.2-.04-.19-.05-.19-.05-.19-.04-.19-.04-.19-.04-.19-.04-.19-.04-.19-.04-.19-.04-.19-.04-.19-.06-.37-.07-.38-.06-.37-.06-.37-.05-.37-.06-.37-.05-.36-.05-.37-.04-.36-.04-.36-.05-.36-.04-.36-.03-.35-.04-.35-.04-.35-.03-.35-.07-.68-.06-.68-.06-.66-.06-.65-.06-.64-.03-.31-.03-.31-.04-.3-.03-.3-.03-.3-.03-.29-.04-.29-.03-.28-.04-.27-.04-.28-.04-.26-.04-.26-.04-.25-.04-.25-.04-.25-.02-.11-.03-.12-.02-.11-.02-.12-.02-.11-.03-.11-.02-.11-.02-.1-.03-.11-.03-.11-.07-.3-.08-.31-.02-.1-.05-.21-.08-.31-.08-.32-.08-.31-.08-.31-.08-.31-.17-.63-.16-.63-.17-.62-.18-.63-.18-.63-.18-.63-.18-.63-.18-.63-.19-.63-.19-.64-.19-.63-.2-.63-.19-.64-.2-.63-.2-.64-.21-.63-.2-.64-.21-.64-.21-.63-.21-.64-.21-.64-.21-.63-.22-.64-.22-.64-.21-.64-.22-.64-.22-.64-.22-.64-.22-.63-.22-.64-.45-1.28-.45-1.28-.45-1.27-.9-2.56-.45-1.27-.45-1.28-.45-1.27-.44-1.269-.22-.637-.22-.635-.22-.634-.22-.635-.21-.633-.22-.634-.21-.632-.22-.633-.21-.632-.21-.631-.21-.631-.2-.617-.05-.174-.06-.174-.07-.188-.07-.199-.07-.211-.08-.221-.08-.231-.09-.24-.1-.249-.09-.256-.06-.141-.04-.124-.1-.273-.11-.28-.1-.285-.11-.29-.12-.294-.11-.299-.12-.302-.13-.305-.13-.308-.12-.309-.14-.311-.13-.311-.14-.312-.14-.311-.14-.31-.15-.309-.14-.312-.07-.147-.08-.152-.07-.151-.08-.15-.07-.149-.04-.067-.04-.082-.07-.148-.07-.146-.08-.146-.07-.144-.08-.143-.07-.141-.08-.14-.07-.138-.08-.136-.07-.135-.08-.132-.07-.131-.08-.129-.07-.126-.08-.125-.07-.122-.07-.12-.08-.117-.07-.115-.07-.112-.07-.11-.07-.106-.07-.104-.07-.101-.07-.097-.07-.095-.06-.091-.07-.088-.06-.084-.06-.081-.06-.078-.06-.073-.06-.07-.05-.066-.08-.089.05.054-.08-.085-.07-.08v-.003l.06.057-.06-.097-.06-.094.07.059-.06-.089-.06-.086.08.061-.06-.082-.05-.078.08.063-.06-.074-.05-.071.09.064-.05-.066-.05-.063.1.066-.05-.059-.04-.056.08.05-.05-.043.05.033-.04-.042.05.033-.05-.041.06.034-.05-.041.06.033-.05-.039.06.033-.05-.038.07.033-.06-.038.07.033-.05-.036.07.032-.06-.035.07.031-.05-.034.07.031-.05-.033.07.031-.05-.032.07.03-.05-.031.08.03-.05-.03.07.029-.05-.029.08.028-.05-.028.08.028-.02-.008-.03-.028.08.026-.05-.038.08.026-.04-.038.08.025-.05-.036.09.024-.05-.034.09.022-.05-.033.08.021-.05-.032.09.02-.05-.03.1.018-.06-.029.1.017-.05-.028.09.015-.05-.025.09.013-.05-.025.1.012-.05-.023.09.01-.05-.022.1.008-.06-.02.11.006-.06-.019.1.004-.05-.018.1.003-.06-.016-.01-.003-3.46-2.066-1.43-2.924v-.02l1.49-3.173 3.5-1.718.01-.001.11-.014.16-.011.15-.008.16-.006.15-.003h.15l.16.002.15.005.15.007.15.009.15.011.15.014.15.015.15.017.14.02.15.021.14.022.1.018.04.01.14.039.14.041.13.042.13.043.13.045.13.047.13.047.13.049.12.051.12.051.13.052.12.054.12.054.11.055.12.056.13.066.21.107.22.12.22.122.22.124.2.127.21.129.21.131.19.133.2.135.19.136.2.137.19.14v.005l.17.153.16.161.16.161.16.164.16.164.16.165.15.167.15.168.15.169.14.17.15.171.14.172.14.173.14.174.14.175.14.176.13.177.14.177.13.179.13.179.13.18.13.181.12.182.13.182.12.183.13.184.12.184.12.185.12.185.12.186.12.186.12.187.11.187.12.187.11.188.12.188.11.188.06.104.05.084.11.19.11.189.1.189.11.19.11.194.2.373.2.378.2.376.2.375.19.374.19.371.18.368.18.366.17.362.17.359.17.354.16.35.16.345.15.34.15.334.14.328.14.322.07.147.07.169.12.311.12.303.11.295.11.286.1.279.1.269.1.261.09.252.08.243.08.22.21.612.21.601.21.603.21.604.21.607.22.609.22.61.22.612.22.614.22.616.22.618.23.618.46 1.245.46 1.25.46 1.257.47 1.262.94 2.55.47 1.28.47 1.28.48 1.29.23.65.24.65.24.65.23.65.23.65.24.66.23.65.23.66.23.66.23.65.23.66.23.66.23.67.22.66.23.66.22.67.22.66.22.67.21.67.22.66.21.67.21.68.21.67.2.67.21.67.2.68.2.67.19.68.2.68.18.67.1.34.09.34.1.34.09.34.09.34.06.23.03.11.09.34.08.35.05.17.04.19.05.18.04.18.04.19.04.18.04.18.04.18.04.19.03.19.07.35.07.36.06.36.06.36.05.35.06.36.05.36.05.35.04.35.05.35.04.35.04.35.04.34.04.35.04.34.07.68.07.67.07.67.07.65.07.65.04.31.03.32.04.31.03.3.04.31.04.3.04.3.04.29.04.29.04.28.05.28.04.28.05.27.05.27.05.26.05.26.02.12.03.12.02.13.03.12.03.12.02.12.03.11.03.12.03.11.03.11.03.12.03.1.03.11.03.11.03.1.03.11.03.1.03.1.03.09.03.1.04.09.03.09.03.1.03.08.04.09.03.09.03.08.03.08.04.08.03.08.03.07.04.07.03.08.03.06.04.07.05.11.05.1.07.14.06.14.06.14.06.13.06.14.05.13.06.15.09.24.09.26.08.26.08.25.08.25.06.25.07.25.06.25.06.25.06.24.05.25.05.25.05.25.04.25.05.25.04.25.04.26.04.25.03.26.04.26.03.26.03.26.02.11.01.15.03.26.03.27.03.26.02.27.03.27.02.27.02.27.02.27.02.27.01.28.02.28.02.27.01.28.02.28.01.28.01.28.01.28.01.28.01.29.01.28.01.28v.29l.01.28v.28l.01.29v2.27l-.01.56-.01.57-.01.55-.02.56-.02.54-.02.55-.02.53-.03.53-.03.53-.03.51-.03.5-.04.5-.04.49-.04.47-.02.24-.02.23-.02.23-.03.23-.02.22-.02.22-.03.22-.02.22-.03.21-.03.21-.02.21-.03.21-.03.2-.02.07-.05.13-.08.19-.09.19-.08.19-.08.18-.08.19-.08.18-.08.19-.08.18-.08.19-.08.19-.08.19-.09.2-.1.21-.1.22-.11.23-.12.25-.13.24-.09.18-.09.15-.1.17-.12.17-.12.19-.15.21-.16.21-.19.24-.23.24-.26.27-.32.27-.37.28-.43.29-.51.27-.58.24-.65.19-.71.13-.37.01h-.01l-2.35-.35-1.99-1.17-1.41-1.82-.61-2.27v-.01h.01v-.01l.36-1.84 1.18-1.82 4.08-2.68h.01l.01-.01-.71.09.02-.01-.67.16.01-.01-.6.22.01-.01-.52.25.01-.01-.45.27.01-.01-.38.28.01-.02-.32.27.01-.02-.27.26.01-.02-.22.25.01-.03-.19.23.01-.02-.16.21.01-.03-.14.19.01-.02-.11.17.01-.02-.1.16.01-.03-.09.15.01-.03-.07.13.01-.03-.07.13.01-.04-.08.17.01-.07-.08.2v-.08l-.06.17v-.08l-.05.15.01-.09-.05.13v-.1l-.03.12v-.1l-.03.1v-.11l-.03.1-.01-.08-.02-.07-.02.07-.02-.09-.02-.06-.03-.07-.03-.09-.03-.09-.03-.1-.03-.11-.03-.12-.02-.08v-.04l.02-.12.02-.13.02-.14.02-.14.02-.15.01-.15.02-.16.02-.17.02-.17.02-.17.02-.18.02-.18.02-.18.03-.39.03-.4.04-.42.03-.43.03-.43.02-.45.03-.46.02-.46.02-.48.02-.47.02-.49.01-.49.01-.49.01-.49.01-.49v-1.73l-.01-.24v-.49l-.01-.24v-.24l-.01-.24-.01-.24v-.23l-.01-.23-.01-.24-.01-.23-.01-.22-.01-.23-.02-.22-.01-.22-.01-.22-.02-.21-.01-.21-.02-.21-.02-.2-.01-.2-.02-.2-.02-.19-.02-.19-.01-.1-.01-.08-.02-.18-.02-.18-.02-.16-.02-.17-.02-.16-.03-.15-.02-.14-.02-.15-.02-.13-.03-.13-.02-.11-.02-.12-.02-.1-.02-.09-.02-.09-.03-.12.02.09-.03-.11zm-.02-.07l-.02-.08v-.01l.02.09zm-.01-.05v-.02.02zM1254.27 913.264l.08.108-.07-.097.06.077-.06-.082-.05-.073-.07-.095-.09-.114-.1-.13-.11-.146-.13-.158-.13-.171-.15-.181-.15-.191-.17-.201-.17-.209-.18-.216-.18-.224-.19-.23-.2-.235-.2-.241-.21-.246-.03-.033-.17-.227-.21-.265-.2-.268-.21-.27-.21-.271-.22-.273-.21-.272-.22-.273-.22-.272-.22-.27-.21-.268-.22-.265-.22-.262-.21-.258-.21-.254-.22-.248-.2-.242-.2-.236-.2-.228-.2-.221-.19-.212-.18-.202-.17-.192-.17-.18-.01-.014-.13-.172-.14-.172-.13-.162-.05-.068-.05-.068-.05-.063-.03-.036-.1-.022-1.54-1.098-1.04-1.597-.37-1.921V898.707l.01-.264.04-.289.05-.315.08-.342.12-.368.16-.389.21-.406.26-.411.32-.404.36-.382.42-.346.44-.298.46-.244.45-.188.45-.136.42-.089.39-.051.36-.021.33.002.3.02.27.032.24.041.23.047.2.05.21.063.29.094.27.107.24.105.21.101.19.097.18.094.16.092.15.09.15.087.14.087.13.086.13.085.13.085.13.085.13.085.12.086.13.086.13.087.12.088.13.089.13.095.25.177.26.186.24.176.02.017.25.215.25.22.26.225.26.23.26.235.26.239.27.243.27.247.27.25.27.253.28.256.27.258.27.26.28.261.27.261.28.263.27.262.27.262.28.261.26.259.27.258.26.256.26.254.22.216.03.036.24.259.23.255.22.251.22.246.22.24.21.235.2.23.2.222.18.217.18.209.18.203.16.195.16.189.15.182.15.177.14.173.13.171.14.175.13.188.13.178.18.263.16.233.15.234.16.234.15.235.15.235.15.236.15.235.15.236.15.237.14.237.15.237.14.237.14.237.14.238.14.238.13.238.14.239.13.238.14.239.13.239.13.239.13.239.13.24.13.239.12.24.13.239.12.24.13.24.12.24.12.24.12.24.12.239.12.24.12.24.12.244.22.476.23.479.22.48.22.479.22.478.22.478.21.478.21.476.21.476.2.475.2.475.21.473.17.407.03.065.19.472.2.47.19.471.38.931.38.928.38.921.37.914.37.909.19.448.18.447.19.446.19.443.18.44.19.439.19.435.19.434.19.43.19.428.19.425.2.422.19.419.08.17.12.246.19.419.1.202.1.205.1.204.1.203.1.203.1.202.1.201.1.201.1.199.11.21.29.574.3.586.3.585.29.586.28.585.29.586.28.585.28.586.27.585.27.586.27.585.25.545.02.041.26.587.25.587.26.587.25.587.25.587.24.587.24.587.24.586.24.587.23.587.24.587.22.587.23.586.22.587.23.587.22.586.21.587.22.587.21.586.21.587.21.587.2.586.21.587.2.587.2.586.2.587.19.587.19.586.2.587.18.587.19.587.19.586.18.587.18.587.18.587.18.587.18.587.18.587.17.587.17.588.17.587.17.587.17.588.17.587.16.588.17.588.16.588.16.588.03.116.13.472.16.588.15.589.16.588.15.589.16.589.15.589.15.589.15.59.15.589.15.59.15.59.14.59.15.592.29 1.179.29 1.182.28 1.183.29 1.184.28 1.185.28 1.185.28 1.187.27 1.188.28 1.19.55 2.382.56 2.388.55 2.396.28 1.2.28 1.201.28 1.204.29 1.21.29 1.2.29 1.21.29 1.21.29 1.22.24.98.06.24.15.6.15.61.15.61.16.61.15.62.16.62.06.25.07.26.06.26.06.26.06.26.06.26.05.26.06.25.05.26.05.26.05.26.05.25.05.26.05.26.04.26.05.25.04.26.04.25.04.26.04.26.04.25.04.25.04.26.03.25.04.25.03.26.03.25.04.26.06.49.06.51.05.5.05.49.05.5.05.49.05.49.04.5.04.48.04.49.04.48.04.49.03.48.04.48.07.94.06.94.07.93.06.93.04.45.03.46.04.45.03.44.04.45.04.44.03.44.04.44.05.43.04.43.05.43.04.42.05.43.05.42.03.2.03.21.03.2.02.21.03.2.03.2.03.21.03.2.03.2.04.2.03.2.03.19.04.2.03.2.04.19.03.19.04.2.04.19.04.19.04.19.04.19.04.19.04.19.04.18.05.19.04.18.05.19.05.22.06.22.06.27.05.26.05.26.05.26.04.26.05.26.04.26.03.27.04.26.04.27.03.28.03.28.03.28.03.28.03.29.03.3.02.29.03.3.03.31.02.31.02.31.02.32.02.31.03.33.01.33.02.33.02.33.02.34.01.34.02.35.01.35.02.35.01.35.01.36.01.36.01.36.02.37.01.73.02.74.01.75.01.76.01.77v3.08l-.01.78-.01.77-.01.77-.02.77-.02.77-.02.76-.02.75-.03.75-.03.73-.01.37-.02.37-.01.36-.02.36-.02.35-.02.36-.02.35-.02.34-.02.35-.02.34-.02.34-.03.33-.02.33-.03.33v.07l-.03.25-.03.32-.04.31-.03.31-.04.31-.04.3-.04.3-.03.3-.04.29-.04.28-.05.28-.04.28-.04.28-.05.27-.04.27-.05.27-.05.26-.05.26-.05.26-.06.25-.05.26-.06.25-.07.26-.07.26-.07.27-.08.25-.05.16-.04.14-.04.11-.02.03-.1.13-.1.14-.1.13-.1.15-.11.15-.11.15-.12.17-.12.17-.14.18-.14.19-.15.2-.17.21-.19.22-.22.24-.24.25-.28.27-.31.27-.37.28-.42.29-.48.28-.54.25-.61.22-.67.17-.7.1-.38.01h-.01l-2.48-.45-2.08-1.26-1.47-1.9-.63-2.33v-.01h.01v-.01l1.7-2.8 4.25-3.84h.01l.02-.02-.69.08.02-.02-.66.14.02-.02-.61.2.02-.02-.55.25.01-.03-.48.27.02-.03-.42.28.01-.03-.36.28.01-.03-.3.27.01-.04-.26.27.01-.04-.22.24v-.04l-.18.23v-.04l-.16.21v-.04l-.14.2v-.05l-.11.18-.01-.05-.1.18v-.06l-.09.16-.01-.05-.08.14-.01-.06-.06.14-.01-.06-.06.13-.02-.06-.05.12-.02-.07-.04.11-.02-.07-.04.11-.02-.07-.04.1-.02-.08-.04.1-.02-.08-.03.09-.01-.02.01-.05-.02.09v-.03l.01-.03-.03.11.02-.07.02-.08-.03.11.02-.1.01-.07.01-.08.02-.09.01-.12.02-.12.02-.14.02-.14.02-.16.02-.18.02-.17.02-.19.02-.2.02-.21.02-.22.02-.22.02-.23.02-.24.02-.25.02-.25.01-.26.02-.26.02-.27.01-.21v-.07l.03-.28.02-.29.02-.29.02-.29.03-.31.02-.3.02-.31.02-.32.02-.31.02-.33.02-.32.01-.33.02-.33.02-.33.03-.69.03-.69.03-.7.02-.7.03-.71.02-.72.01-.72.02-.73.01-.72.01-.72.01-.73v-.72l.01-.71v-.71l-.01-.71v-.69l-.01-.69-.01-.68-.01-.33-.01-.33v-.32l-.01-.33-.01-.32-.01-.31-.01-.31-.01-.31-.02-.31-.01-.29-.01-.3-.01-.28-.02-.29-.01-.27-.02-.28-.01-.26-.02-.26-.02-.26-.02-.24-.01-.24-.02-.23-.02-.23-.02-.22-.02-.2-.02-.21-.02-.19-.02-.18-.03-.17-.01-.16-.02-.15-.02-.14-.02-.12-.02-.12-.02-.1-.01-.08-.03-.11-.01-.07-.06-.22-.06-.26-.06-.26-.06-.26-.06-.26-.05-.26-.05-.26-.06-.26-.05-.26-.05-.26-.05-.25-.05-.26-.04-.26-.05-.26-.04-.25-.04-.26-.04-.26-.04-.25-.04-.26-.04-.25-.04-.26-.03-.25-.04-.26-.03-.25-.03-.25-.04-.26-.03-.25-.03-.26-.06-.49-.05-.51-.05-.49-.05-.5-.05-.5-.04-.49-.04-.49-.04-.5-.04-.48-.04-.49-.03-.48-.03-.49-.04-.48-.03-.48-.06-.94-.06-.94-.05-.93-.06-.93-.03-.45-.03-.46-.03-.45-.03-.45-.04-.44-.03-.45-.04-.44-.03-.43-.04-.44-.04-.43-.04-.43-.05-.43-.04-.42-.05-.42-.03-.2-.02-.21-.03-.21-.02-.2-.03-.21-.03-.2-.03-.21-.03-.2-.03-.2-.03-.2-.03-.2-.03-.2-.03-.2-.04-.19-.03-.2-.04-.19-.03-.2-.04-.19-.03-.2-.04-.19-.04-.19-.04-.19-.04-.19-.04-.19-.04-.18-.05-.19-.04-.18-.05-.2-.15-.62-.15-.63-.16-.63-.15-.63-.15-.63-.15-.63-.05-.23-.24-1.01-.29-1.25-.29-1.24-.28-1.23-.28-1.23-.28-1.23-.27-1.22-.27-1.22-.27-1.21-.54-2.409-.53-2.394-.53-2.379-.26-1.182-.26-1.178-.27-1.175-.26-1.171-.27-1.166-.26-1.163-.27-1.159-.27-1.156-.27-1.154-.14-.573-.14-.573-.13-.573-.14-.572-.14-.571-.14-.571-.14-.569-.14-.569-.15-.568-.14-.567-.14-.566-.15-.565-.14-.565-.12-.452-.03-.112-.15-.563-.15-.563-.14-.562-.15-.561-.15-.561-.16-.559-.15-.559-.16-.559-.15-.557-.16-.557-.16-.557-.16-.555-.16-.556-.16-.554-.17-.554-.16-.553-.17-.553-.17-.552-.17-.551-.17-.551-.18-.55-.17-.55-.18-.55-.18-.548-.18-.549-.18-.548-.18-.547-.19-.547-.19-.546-.19-.546-.19-.546-.19-.545-.2-.545-.2-.544-.2-.544-.2-.543-.21-.544-.2-.543-.21-.542-.21-.542-.22-.542-.21-.542-.22-.542-.22-.541-.22-.541-.23-.54-.23-.541-.23-.54-.01-.037-.22-.505-.23-.541-.23-.542-.24-.541-.24-.541-.24-.542-.25-.541-.25-.541-.25-.541-.25-.541-.26-.541-.27-.553-.11-.232-.11-.244-.12-.244-.11-.244-.12-.243-.11-.244-.11-.244-.11-.244-.11-.244-.12-.248-.21-.482-.12-.287-.09-.2-.2-.487-.21-.487-.2-.485-.2-.485-.19-.485-.19-.483-.19-.483-.19-.481-.18-.481-.19-.479-.18-.478-.18-.477-.18-.477-.35-.945-.35-.941-.35-.935-.34-.928-.34-.923-.17-.456-.17-.456-.17-.453-.03-.062-.15-.39-.17-.45-.17-.447-.17-.445-.17-.443-.17-.441-.18-.438-.18-.436-.17-.433-.18-.43-.18-.428-.18-.425-.19-.427-.09-.206-.09-.21-.09-.209-.1-.208-.09-.207-.1-.207-.09-.206-.1-.205-.09-.204-.1-.204-.1-.203-.1-.202-.09-.201-.1-.201-.1-.2-.11-.199-.1-.199-.1-.197-.1-.197-.1-.196-.11-.195-.1-.195-.11-.194-.1-.193-.11-.192-.11-.191-.11-.191-.11-.189-.11-.189-.11-.188-.11-.188-.11-.186-.11-.186-.12-.185-.11-.184-.13-.197.06.086-.06-.084zm-1.13-14.206l-.01.01-1.73 3.45-2.89 1.206.1-.002-.02-.001.36-.032h-.01l.39-.066-.01.002.42-.107-.02.002.44-.155-.01.003.45-.209-.01.005.44-.264-.01.006.42-.315-.01.008.38-.356-.01.008.33-.384-.01.01.29-.397-.01.011.23-.397-.01.012.18-.384-.01.013.13-.364v.015l.09-.339v.016l.07-.31-.01.017.04-.283v.018l.02-.256v.019l.01-.231v.021zM1395.33 839.21l-.04-.066.04.059-.05-.076-.03-.057-.04-.066-.04-.074-.05-.081-.05-.088-.06-.094-.07-.1-.06-.106-.08-.11-.07-.116-.09-.12-.08-.125-.08-.124-.2-.274-.2-.284-.21-.297-.22-.309-.24-.32-.24-.33-.26-.34-.26-.347-.27-.355-.28-.361-.28-.367-.29-.372-.3-.376-.3-.38-.3-.382-.31-.384-.31-.386-.31-.386-.32-.385-.11-.132-.2-.259-.3-.391-.31-.389-.31-.386-.3-.382-.3-.377-.3-.372-.3-.366-.3-.359-.29-.352-.28-.343-.28-.334-.28-.325-.26-.313-.26-.303-.25-.29-.25-.277-.23-.263-.22-.247-.21-.232-.2-.214-.06-.075-.06-.174-.1-.254-.03-.08-.02-.02-.07-.073-.01-.006-1.42-1.045-1.01-1.615-.31-1.927v-.01l.01-.239.06-.504.15-.588.25-.663.41-.707.57-.687.71-.591.78-.438.77-.272.71-.132.61-.031.52.029.42.065.36.081.29.088.25.088.21.087.22.099.26.136.25.141.2.129.18.12.16.113.14.108.13.105.13.104.13.102.12.103.12.103.12.104.12.106.12.108.12.11.12.112.03.031.12.063.32.155.21.099.1.094.27.256.27.266.28.277.29.287.3.297.3.307.31.316.32.325.32.333.33.341.33.348.34.354.34.361.34.367.35.371.35.377.35.38.36.383.35.386.36.389.23.257.12.136.35.399.34.401.34.4.34.399.34.399.33.397.33.394.33.392.32.388.31.385.31.38.3.376.3.37.28.365.28.359.27.352.27.346.25.339.25.328.12.168.12.162.11.16.12.16.11.157.11.157.1.155.11.155.1.154.1.153.1.154.1.154.09.156.1.157.09.161.09.164.09.17.09.158.17.331.16.314.16.314.16.316.15.316.16.316.15.318.16.318.15.319.15.319.16.32.15.321.15.321.15.322.14.322.15.323.15.323.15.324.14.325.15.327.28.649.02.045.27.608.28.655.28.657.27.657.28.659.27.66.28.66.27.661.27.662.27.661.27.663.53 1.322.54 1.323.54 1.321.26.658.27.658.27.656.27.655.27.653.28.652.27.65.27.648.28.645.28.643.28.641.28.641.14.315.15.318.08.193.06.124.14.317.14.317.14.315.14.315.14.314.14.314.15.312.14.312.14.31.15.31.14.309.15.308.15.307.15.305.14.305.15.304.15.303.16.301.15.301.15.299.15.299.16.297.15.296.16.295.16.293.16.293.15.291.16.29.16.288.17.288.16.286.16.284.17.284.16.282.17.28.17.28.17.277.17.277.17.275.17.273.17.272.18.271.17.269.18.267.18.28.21.308.21.323.21.323.22.324.2.325.21.325.21.326.2.327.2.328.21.328.2.329.19.33.2.331.19.331.2.331.19.333.19.333.19.334.19.334.19.335.18.336.19.336.18.337.18.337.18.338.18.339.18.339.17.34.18.34.17.341.18.342.17.342.17.342.16.344.17.343.17.344.16.345.17.345.16.346.16.346.16.347.16.347.16.348.15.348.16.349.15.349.16.349.15.35.15.351.15.35.15.352.14.351.15.353.15.352.14.353.14.353.15.354.14.354.14.355.14.355.14.355.13.356.14.356.13.356.14.357.13.357.13.357.14.358.13.358.13.358.12.359.13.359.13.359.13.36.12.36.13.36.12.361.12.36.12.361.04.095.09.267.11.361.12.362.12.362.12.363.12.362.11.363.12.363.11.367.23.724.22.728.23.729.21.73.22.73.21.731.22.732.2.732.21.733.2.733.21.734.2.734.19.735.2.735.19.735.19.735.19.736.19.736.19.736.18.736.19.736.18.736.18.736.18.736.18.736.17.735.18.736.17.735.18.735.17.736.34 1.466.34 1.467.34 1.464.34 1.462.33 1.458.34 1.456.33 1.452.34 1.449.33 1.444.34 1.441.17.717.17.716.17.716.17.714.17.713.17.711.17.71.18.708.17.707.18.705.18.703.18.702.17.7.18.698.19.696.18.695.19.692.18.691.19.688.19.687.19.684.19.683.2.68.19.677.2.676.2.673.2.671.21.669.02.058.18.608.21.667.11.327.1.331.11.329.11.329.1.328.11.328.11.327.11.336.07.213.08.222.07.223.07.223.07.223.07.223.07.223.06.223.07.224.07.223.06.224.06.224.07.224.06.224.06.225.06.23.12.443.12.449.11.45.11.45.1.451.1.451.11.451.09.451.1.451.09.452.09.452.08.452.09.452.08.452.07.453.08.452.08.453.07.452.07.452.07.453.06.452.06.453.07.452.06.452.05.452.06.452.05.452.06.451.05.452.05.451.05.451.04.451.05.45.04.45.05.45.04.45.04.449.04.449.04.448.04.449.04.447.03.45.07.89.07.891.07.889.06.886.06.885.12 1.757.12 1.75.07.868.06.866.06.861.06.858.07.856.04.423.03.42.04.43.03.42.04.42.04.42.04.42.04.41.04.42.04.41.05.41.04.42.05.41.04.41.05.4.05.41.05.4.05.41.05.4.06.4.05.39.06.4.06.4.06.39.06.39.07.39.06.39.07.38.07.39.07.38.07.38.08.38.07.38.08.37.08.38.08.37.09.37.08.36.09.37.09.36.1.36.09.37.05.17.05.18.05.18.05.17.05.18.05.18.05.17.05.18.06.17.05.18.05.17.06.17.05.18.06.17.06.17.06.2.04.12.05.17.07.24.07.25.05.24.05.23.05.23.05.23.04.23.04.23.04.24.04.25.04.24.04.26.04.26.03.26.04.28.04.28.03.28.04.29.04.3.03.31.04.31.07.64.08.67.07.7.07.71.07.74.08.76.07.78.07.79.07.81.08.83.07.84.07.85.07.86.07.88.07.88.07.88.06.9.07.89.07.9.06.89.07.9.06.89.06.89.06.88.06.88.06.86.06.86.05.85.05.83.06.81.04.8.05.78.05.77.04.74.04.72.04.69.04.67.03.64.04.62.03.58.02.56.03.52.02.49.02.46.02.42.01.39.01.36.01.32v.78l-.01.2-.01.27-.04.35-.06.4-.12.57-.12.35-.26.62v.19l-.01.15v.16l-.01.16v1.04l.01.22.01.23v.24l.01.25.01.24.01.25.02.25.01.26.02.26.01.25.02.26.03.53.04.52.04.52.04.51.08 1 .03.47.04.47.03.44.03.43.02.21.01.2.01.21.01.2.01.21v.2l.01.22v.27l-.01.27-.02.32-.04.36-.06.32-.05.26-.05.23-.05.2-.05.18-.06.18-.05.16-.05.17-.05.16-.06.16-.06.16-.06.16-.06.16-.06.17-.07.16-.07.17-.07.17-.07.16-.07.17-.08.17-.08.18-.09.17-.08.18-.09.18-.09.18-.1.19-.11.18-.1.19v.01l-.13.18-.14.19-.15.2-.15.21-.16.2-.11.13-.09.12-.11.11-.11.13-.11.13-.13.13-.14.14-.15.14-.16.15-.18.16-.2.16-.22.17-.25.18-.28.18-.31.18-.36.18-.4.17-.45.16-.5.14-.56.11-.61.06h-.64l-.68-.07-.67-.14-.66-.2-.62-.28-.57-.32-.51-.36-.44-.37-.38-.38-.32-.38-.26-.36-.22-.35-.19-.32-.15-.31-.12-.29-.1-.27-.09-.26-.07-.24-.06-.22-.05-.22-.04-.21-.03-.19-.03-.19-.02-.19-.01-.18-.02-.17-.01-.17v-.33l-.01-.17.01-.16v-.16l.01-.16.01-.16.01-.17.01-.16.02-.14v-.01l.66-2.34 1.16-1.65-.03-.25-.09-1.01-.05-.53-.05-.56-.05-.57-.04-.58-.03-.29-.02-.3-.02-.3-.02-.3-.02-.3-.02-.3-.01-.31-.02-.3-.01-.31-.02-.3-.01-.31-.01-.3v-.31l-.01-.3v-.65l.01-.26.01-.31.01-.3.01-.3.01-.17.01-.15.02-.16.01-.15.01-.16.02-.16.02-.16.01-.16.03-.17.02-.16.03-.17.03-.17.03-.18.03-.17.04-.18.04-.19.05-.19.05-.2.06-.2.06-.21.01-.03-.01-.34-.02-.41-.02-.46-.02-.5-.02-.53-.03-.56-.03-.6-.03-.62-.03-.66-.04-.68-.04-.7-.03-.73-.05-.75-.04-.77-.05-.79-.04-.8-.05-.82-.05-.83-.05-.84-.06-.86-.05-.86-.06-.87-.06-.88-.05-.88-.07-.88-.05-.88-.07-.88-.06-.88-.06-.88-.07-.87-.06-.86-.07-.85-.06-.85-.07-.83-.06-.82-.07-.8-.07-.78-.06-.77-.07-.75-.07-.72-.06-.7-.07-.68-.06-.64-.07-.62-.06-.59-.03-.27-.03-.27-.03-.27-.04-.25-.03-.24-.03-.23-.03-.22-.02-.21-.03-.2-.03-.19-.02-.17-.03-.16-.02-.14-.02-.13-.03-.11-.01-.09-.02-.07v-.03l-.03-.08-.07-.22-.07-.22-.07-.23-.07-.22-.07-.22-.07-.23-.06-.22-.07-.22-.06-.23-.07-.22-.06-.23-.06-.22-.06-.22-.07-.23-.06-.23-.11-.44-.12-.45-.11-.45-.1-.45-.11-.45-.1-.46-.1-.45-.09-.45-.09-.45-.09-.45-.09-.45-.08-.45-.09-.46-.07-.45-.08-.45-.08-.46-.07-.45-.07-.45-.07-.45-.06-.45-.07-.46-.06-.45-.06-.45-.06-.45-.05-.46-.06-.45-.05-.45-.05-.45-.05-.45-.05-.45-.04-.45-.05-.46-.04-.44-.05-.46-.04-.44-.04-.45-.04-.45-.04-.45-.03-.45-.04-.45-.03-.45-.04-.45-.07-.886-.06-.89-.06-.889-.06-.887-.06-.884-.12-1.758-.11-1.75-.06-.868-.06-.866-.06-.862-.06-.858-.06-.857-.03-.423-.04-.424-.03-.423-.04-.422-.03-.421-.04-.42-.04-.418-.04-.418-.04-.416-.04-.415-.04-.413-.04-.412-.04-.411-.05-.409-.05-.408-.04-.407-.05-.405-.05-.403-.05-.403-.06-.4-.05-.399-.06-.398-.05-.395-.06-.395-.06-.392-.07-.391-.06-.389-.07-.388-.06-.385-.07-.384-.07-.383-.08-.38-.07-.378-.08-.377-.08-.375-.08-.373-.08-.371-.09-.369-.08-.367-.09-.365-.1-.363-.09-.367-.05-.174-.05-.179-.04-.179-.05-.178-.05-.178-.05-.177-.06-.177-.05-.176-.05-.176-.05-.175-.05-.175-.06-.174-.05-.173-.06-.173-.05-.173-.07-.182-.11-.345-.11-.355-.12-.355-.11-.356-.12-.356-.11-.356-.12-.356-.11-.36-.22-.712-.2-.653-.02-.063-.21-.717-.21-.718-.21-.719-.21-.72-.21-.721-.2-.721-.2-.723-.2-.724-.19-.724-.2-.725-.19-.726-.19-.726-.19-.727-.18-.728-.19-.728-.18-.728-.18-.729-.18-.73-.18-.73-.18-.73-.18-.73-.17-.731-.17-.731-.18-.731-.17-.732-.17-.731-.17-.732-.17-.733-.33-1.461-.33-1.463-.33-1.462-.33-1.461-.33-1.46-.33-1.458-.33-1.456-.33-1.454-.33-1.451-.33-1.449-.16-.722-.17-.722-.17-.721-.17-.72-.17-.719-.17-.719-.17-.717-.17-.716-.17-.714-.18-.714-.17-.712-.18-.711-.18-.71-.18-.708-.18-.707-.18-.706-.18-.704-.19-.702-.18-.701-.19-.7-.19-.697-.2-.696-.19-.694-.2-.693-.19-.69-.2-.689-.21-.687-.2-.684-.21-.683-.21-.684-.1-.337-.11-.339-.11-.338-.1-.338-.11-.338-.11-.337-.11-.336-.11-.336-.08-.247-.03-.088-.11-.335-.11-.334-.11-.334-.11-.333-.12-.333-.11-.332-.12-.331-.11-.331-.12-.33-.12-.329-.11-.329-.12-.328-.12-.328-.12-.327-.12-.327-.12-.325-.12-.325-.13-.325-.12-.324-.12-.323-.13-.322-.13-.322-.12-.321-.13-.321-.13-.32-.13-.319-.13-.318-.13-.318-.13-.317-.13-.316-.14-.316-.13-.315-.14-.314-.13-.313-.14-.313-.14-.312-.14-.312-.14-.31-.14-.31-.14-.309-.14-.308-.14-.308-.15-.307-.14-.306-.15-.305-.15-.305-.14-.303-.15-.303-.15-.303-.15-.301-.16-.301-.15-.299-.15-.299-.16-.299-.15-.297-.16-.297-.16-.296-.16-.295-.16-.294-.16-.293-.16-.293-.17-.291-.16-.291-.17-.29-.16-.289-.17-.289-.17-.287-.17-.287-.17-.286-.17-.285-.18-.284-.17-.283-.17-.283-.18-.281-.18-.281-.18-.28-.18-.279-.18-.278-.19-.29-.21-.312-.21-.327-.21-.327-.21-.328-.2-.329-.21-.33-.2-.33-.2-.331-.2-.332-.2-.333-.19-.334-.2-.334-.19-.334-.19-.336-.19-.336-.18-.336-.19-.337-.18-.338-.18-.338-.18-.339-.18-.339-.18-.339-.17-.34-.18-.341-.17-.34-.17-.342-.17-.341-.17-.342-.17-.342-.16-.343-.17-.342-.16-.343-.16-.343-.16-.344-.16-.343-.16-.344-.16-.344-.16-.344-.15-.344-.15-.345-.16-.344-.15-.344-.15-.345-.15-.344-.15-.345-.06-.134-.08-.211-.15-.346-.14-.349-.28-.688-.28-.691-.28-.69-.27-.69-.27-.688-.27-.687-.26-.686-.27-.685-.26-.683-.25-.681-.26-.679-.25-.678-.51-1.347-.5-1.337-.5-1.328-.25-.658-.24-.656-.25-.652-.25-.648-.24-.645-.25-.64-.25-.637-.24-.632-.25-.628-.25-.623-.23-.576-.02-.043-.25-.617-.12-.303-.13-.304-.12-.303-.13-.301-.12-.301-.13-.298-.13-.298-.12-.296-.13-.294-.13-.293-.13-.292-.12-.29-.13-.289-.13-.287-.13-.285-.13-.285-.13-.282-.13-.281-.14-.279-.12-.259-.03-.058.05.086-.05-.091.04.075-.03-.062zm67.33 237.69v-.07l.01.06.02.05-.01-.08.02.04.01.04-.01-.09.02.08-.01-.1.02.07-.02-.1.02.07-.01-.11.02.06-.03-.12.03.06-.03-.13.02.06-.03-.14.02.05-.04-.15.02.05-.04-.17.02.05-.06-.18.02.04-.07-.2.03.04-.09-.22.03.04-.11-.24.02.04-.12-.26.02.03-.15-.28.02.03-.18-.31.02.03-.07-.1.58 1.7.01.1.02.06.01.06.02.07v-.06l.01.07.02.06zm-76.77-252.808l.56-.066.27-.072-.83.138zm1.64-.419l.41-.187.75-.511.06-.064-1.22.762zm1.35-.895l.44-.439.48-.689.15-.309-1.07 1.437zm1.07-1.439l.17-.359.19-.602.09-.516.04-.412-.49 1.889z" fill="#0f0"/><path d="M1554.157 685.376l.02.005 2.68 1.258 1.93 2.125 1 2.695-.11 2.955v.012l-.28.889-.38.847-.28.525-.56.75-.35.389-.23.235-.22.207-.19.163-.16.138-.15.13-.16.135-.17.144-.38.305-.43.354-.5.398-.55.445-.35.278-.26.212-.67.533-.73.576-.78.616-.83.655-.88.695-.92.728-.97.764-2.07 1.619-2.21 1.732-2.34 1.83-2.45 1.914-2.54 1.98-2.61 2.035-2.66 2.072-2.7 2.093-2.71 2.101-2.7 2.095-2.67 2.07-2.63 2.033-2.56 1.979-2.48 1.91-2.37 1.827-1.15.878-1.1.85-1.08.824-1.03.793-1 .76-.95.726-.91.692-.86.653-.81.615-.76.572-.7.533-.65.487-.59.442-.54.398-.48.348-.22.163-.21.149-.19.14-.19.133-.19.128-.16.11-.82.549-.8.532-1.59 1.07-1.6 1.07-1.59 1.076-1.6 1.077-1.59 1.08-1.59 1.084-1.59 1.085-1.6 1.087-1.59 1.09-1.59 1.093-1.6 1.094-1.59 1.096-1.59 1.097-1.6 1.099-1.59 1.1-3.19 2.206-3.19 2.207-6.39 4.427-3.2 2.215-1.61 1.107-1.6 1.107-1.6 1.106-1.61 1.108-1.6 1.106-1.61 1.105-1.61 1.105-1.61 1.103-1.61 1.103-1.62 1.1-1.61 1.1-1.62 1.099-1.62 1.097-1.62 1.095-1.62 1.093-1.62 1.09-1.63 1.089-.81.544-.82.543-.81.543-.82.542-.81.54-.82.542-.82.539-.81.54-.82.538-.82.538-.82.537-.82.536-.82.534-.82.536-.82.534-.82.533-.83.532-.82.53-.82.532-.83.529-.83.529-.82.528-.83.526-.83.526-.82.524-.83.524-.83.524-.83.521-.83.52-.84.52-.83.52-.83.517-.83.517-.84.515-.84.514-.83.513-.84.512-.84.51-.84.51-.84.508-.84.506-.83.502-.62.374-.61.37-.61.375-.61.376-.61.379-.61.38-.61.384-.6.386-.61.388-.61.39-.6.392-.61.394-.6.397-.61.399-.6.4-.6.403-.6.405-.61.406-.6.409-.6.41-.6.412-.6.413-.6.417-.6.418-.6.419-.6.42-.59.423-.6.423-.6.426-.6.427-.6.429-.59.428-.6.433-.6.432-.59.434-.6.435-.6.436-.59.438-.6.439-.59.439-.6.44-.6.443-.59.443-.59.443-1.2.891-1.19.894-1.19.898-1.2.899-1.19.903-1.19.904-2.4 1.814-2.39 1.819-1.2.91-.21.159-.99.751-1.21.912-1.21.91-1.2.91-1.22.909-1.21.906-.61.454-.61.453-.61.452-.61.452-.61.45-.61.45-.61.45-.61.45-.62.448-.61.447-.62.447-.62.447-.61.446-.62.444-.62.442-.62.443-.63.442-.62.44-.62.439-.63.438-.63.437-.62.435-.63.434-.63.433-.63.432-.63.43-.64.428-.63.428-.64.425-.64.424-.63.422-.64.42-.64.42-.65.417-.64.416-.65.414-.65.41-.64.41-.65.409-.65.406-.66.404-.65.402-.66.399-.66.398-.66.394-.66.394-.66.39-.67.389-.66.385-.67.38-5.12 2.926-5.11 2.927-2.56 1.465-2.56 1.466-2.56 1.466-2.56 1.47-2.56 1.47-2.56 1.473-2.56 1.473-2.57 1.476-2.55 1.478-2.56 1.479-2.56 1.482-2.56 1.484-2.56 1.486-2.55 1.489-2.56 1.49-2.55 1.495-1.28.748-1.28.748-1.27.749-1.28.75-1.27.75-1.27.752-1.28.752-1.27.753-1.28.753-1.27.755-1.27.755-1.27.756-1.27.756-1.28.758-1.26.758-1.27.759-1.27.76-1.27.76-1.27.763-1.27.762-1.26.764-1.27.764-1.26.766-1.27.766-1.26.767-1.27.768-1.26.769-1.26.77-1.26.77-1.26.773-1.26.773-1.26.774-1.26.775-1.26.777-1.25.777-1.26.778-1.25.78-1.26.78-1.25.78-1.25.784-1.25.784-1.25.784-1.25.787-1.25.787-1.24.788-1.25.79-1.25.79-1.24.792-1.24.793-1.25.795-1.24.794-1.24.798-1.24.798-1.23.798-1.24.802-1.23.802-1.24.803-1.23.803-1.23.807-1.23.807-1.23.809-.28.18-.95.629-1.23.81-1.22.813-1.23.814-1.22.813-1.23.817-1.22.817-1.21.82-1.22.82-1.22.822-1.21.825-1.22.825-1.21.826-1.21.827-1.21.83-1.21.832-1.21.833-1.2.834-1.21.835-1.2.838-1.2.838-1.2.84-1.2.843-1.19.843-1.2.846-1.19.846-1.2.855-.49.349-.5.354-.51.353-.5.35-.51.35-.5.349-.51.347-.51.346-.52.346-.51.342-.52.344-.51.34-.52.34-.52.339-.52.338-.53.336-.52.335-.53.334-.52.332-.53.332-.53.33-.53.33-.53.329-.54.327-.53.327-.53.325-.54.324-.54.323-.54.322-.54.32-.54.32-.54.318-.54.319-.54.317-.55.316-.54.314-.55.314-.54.313-.55.312-.55.31-.55.31-.55.31-.55.309-.55.307-.55.306-.56.306-.55.304-.55.303-.56.303-.55.303-.56.3-.55.302-.56.298-.56.3-.55.298-.56.297-.56.296-.56.296-.55.294-.56.294-.56.293-.56.294-1.12.58-1.12.58-1.12.577-1.12.575-1.12.57-1.12.57-1.12.565-1.12.564-1.12.56-1.12.559-1.12.556-1.11.553-1.12.553-1.11.548-1.11.548-1.11.545-1.1.544-2.2 1.08-2.2 1.072-2.17 1.066-2.16 1.06-2.15 1.053-1.07.524-1.06.523-1.05.522-1.05.52-1.05.519-1.03.515-.55.277-.54.275-.54.278-.55.28-.54.283-.54.285-.53.288-.54.29-.54.292-.53.293-.54.297-.53.298-.54.302-.53.303-.53.304-.53.307-.53.309-.53.31-.53.314-.53.315-.52.313-.53.32-.53.32-.52.33-.53.32-.52.33-.52.32-.53.33-.52.33-.52.34-.52.33-.52.34-.52.33-.52.34-.52.34-.42.28-.1.06-.52.35-.52.34-.52.34-.52.35-.52.34-.52.35-.52.35-.52.35-.51.35-.52.35-.52.36-.51.35-.52.36-.52.36-.51.35-.52.36-.51.36-.52.36-1.03.73-1.03.72-1.03.73-1.03.73-1.03.74-1.04.74-1.03.74-1.03.74-1.03.74-.97.69-1.1.79-2.08 1.48-1.04.75-1.04.74-1.04.74-1.05.74-1.04.74-1.05.74-1.05.73-.53.37-.53.37-.52.36-.53.37-.53.36-.53.37-.53.36-.53.37-.53.36-.54.36-.53.36-.53.36-.54.36-.54.35-.53.36-.54.36-.54.35-.54.36-.54.35-.54.35-.54.35-.55.35-.54.35-.55.34-.55.35-.54.34-.55.34-.55.35-.55.33-.56.34-.55.34-.55.33-.56.34-.56.33-.36.21-.46.27-.84.49-.84.49-.85.49-.85.5-.85.49-.87.49-.87.5-.87.5-.87.5-1.77 1-1.77 1.01-1.79 1.02-1.8 1.02-.89.51-.9.52-.91.52-.9.51-.9.52-.9.53-.89.52-.9.53-.9.52-.893.53-.892.53-.89.54-.443.26-.442.27-.442.27-.44.26-.44.27-.44.27-.438.27-.437.27-.436.27-.434.27-.434.27-.432.27-.43.27-.43.27-.428.28-.427.27-.425.27-.423.27-.423.28-.42.27-.419.28-.417.27-.415.28-.413.27-.412.28-.41.27-.408.28-.405.28-.404.27-.402.28-.399.28-.397.28-.396.28-.392.27-.39.28-.389.28-.386.28-.383.28-.38.28-.379.28-.128.1-.252.18-.379.27-.377.27-.374.27-.372.28-.368.27-.366.27-.362.28-.36.27-.357.28-.353.27-.35.28-.348.27-.344.28-.34.27-.338.28-.334.28-.33.27-.328.28-.324.28-.32.27-.317.28-.313.28-.309.28-.306.27-.288.27h-.019l-.41.17-.404.2h-.009l-4.905 1.15-2.143-.3-1.549-.87-.014-.02-.905-1.59-.299-2.16 1.235-4.84.004-.01.23-.43.228-.47.011-.02.328-.33.347-.35.35-.34.353-.35.356-.34.36-.34.36-.35.364-.34.367-.34.37-.33.371-.34.374-.34.377-.33.38-.34.381-.33.385-.34.386-.33.39-.33.39-.33.393-.33.395-.33.398-.32.4-.33.401-.33.403-.32.267-.22.141-.1.414-.32.416-.31.418-.32.42-.31.42-.31.423-.31.425-.31.427-.31.427-.3.43-.31.431-.31.432-.3.434-.3.436-.31.436-.3.438-.3.44-.3.44-.3.442-.3.442-.3.444-.3.445-.29.446-.3.447-.29.448-.3.45-.29.448-.29.451-.29.451-.3.452-.29.452-.29.453-.29.454-.28.455-.29.455-.29.455-.28.456-.29.456-.28.456-.29.46-.28.911-.56.916-.56.915-.56.915-.56.915-.55.915-.55.913-.54.912-.55.91-.54.908-.53.91-.54.9-.53 1.8-1.06 1.78-1.04 1.76-1.03 1.74-1.03.86-.5.85-.51.85-.5.84-.49.83-.5.83-.49.82-.49.8-.49.8-.48.44-.27.35-.21.52-.31.51-.32.51-.32.51-.32.52-.32.51-.32.51-.33.51-.33.51-.32.51-.33.51-.34.51-.33.51-.34.51-.34.51-.33.51-.35.51-.34.51-.34.51-.35.5-.34.51-.35.51-.35.51-.35.5-.36.51-.35.51-.35.51-.36.5-.36.51-.36.51-.36.51-.36.5-.36.51-.36.51-.36 1.01-.74 1.02-.73 1.02-.74 1.01-.74 1.02-.74 1.02-.75 1.02-.75 2.05-1.5 1.09-.8.96-.71 1.03-.75 1.03-.76 1.04-.76 1.04-.75 1.04-.76 1.04-.75 1.05-.76 1.04-.75 1.05-.753.53-.377.53-.376.53-.375.53-.374.53-.374.53-.374.53-.373.54-.372.53-.372.54-.37.54-.37.53-.37.54-.37.54-.368.54-.367.55-.366.54-.366.54-.364.11-.073.44-.289.55-.36.55-.359.55-.358.55-.357.55-.355.56-.355.56-.353.55-.352.56-.35.56-.349.56-.348.57-.347.56-.344.57-.344.57-.342.56-.34.57-.338.58-.337.57-.336.58-.333.57-.332.58-.33.58-.328.58-.326.59-.324.58-.322.59-.32.59-.319.59-.316.59-.314.6-.312.59-.309.6-.308.6-.305.6-.3 1.06-.53 1.06-.529 1.06-.528 1.07-.529 1.07-.53 1.07-.53 2.16-1.062 2.17-1.066 2.18-1.069 2.18-1.073 2.2-1.078 1.09-.54 1.1-.542 1.1-.543 1.1-.545 1.1-.546 1.1-.547 1.1-.549 1.1-.55 1.1-.553 1.1-.555 1.09-.555 1.1-.558 1.1-.56 1.09-.56 1.09-.565 1.09-.565 1.09-.569.54-.283.54-.285.54-.286.55-.286.54-.287.53-.287.54-.288.54-.289.54-.289.54-.289.53-.29.54-.29.53-.292.53-.292.53-.293.54-.293.53-.294.52-.294.53-.295.53-.296.52-.296.53-.297.52-.298.53-.298.52-.299.52-.3.51-.3.52-.3.52-.302.51-.303.52-.303.51-.303.51-.305.51-.305.5-.306.51-.306.5-.307.51-.308.5-.309.5-.309.5-.31.49-.31.5-.312.49-.313.49-.313.49-.313.49-.315.48-.315.49-.316.48-.317.48-.318.48-.318.48-.319.47-.32.47-.32.47-.322.47-.322.47-.323.46-.324.46-.324.46-.326.47-.33 1.2-.859 1.21-.862 1.21-.86 1.22-.858 1.21-.856 1.22-.855 1.22-.852 1.22-.852 1.22-.849 1.22-.848 1.22-.846 1.23-.844 1.23-.843 1.22-.84 1.23-.84 1.23-.838 1.23-.837 1.23-.834 1.24-.833 1.23-.832 1.24-.83 1.24-.828 1.24-.827 1.24-.825 1.24-.824 1.24-.822.96-.638.28-.183 1.25-.819 1.24-.817 1.25-.816 1.25-.815 1.24-.813 1.25-.812 1.25-.81 1.26-.809 1.25-.807 1.25-.806 1.26-.805 1.25-.804 1.26-.802 1.26-.8 1.25-.8 1.26-.798 1.26-.797 1.26-.795 1.26-.795 1.27-.793 1.26-.792 1.26-.79 1.27-.79 1.26-.788 1.27-.787 1.27-.786 1.27-.784 1.26-.784 1.27-.782 1.27-.782 1.27-.78 1.27-.779 1.27-.778 1.28-.776 1.27-.776 1.27-.775 1.28-.774 1.27-.772 1.28-.772 1.27-.77 1.28-.77 1.27-.768 1.28-.768 1.28-.767 1.27-.765 1.28-.765 1.28-.764 1.28-.763 1.28-.762 1.28-.76 1.28-.76 1.28-.76 1.28-.759 1.28-.757 1.28-.757 1.29-.756 1.28-.755 1.28-.755 1.28-.753 1.28-.753 1.29-.752 2.56-1.502 2.57-1.498 2.57-1.496 2.56-1.493 2.57-1.49 2.57-1.489 2.57-1.486 2.56-1.483 2.57-1.48 2.57-1.479 2.57-1.477 2.56-1.475 2.57-1.472 2.56-1.47 2.57-1.47 2.56-1.468 5.12-2.93 5.11-2.922.63-.359.61-.357.62-.36.61-.362.62-.365.61-.368.61-.37.62-.373.61-.375.61-.377.61-.38.61-.383.6-.384.61-.387.61-.389.6-.39.61-.395.6-.395.61-.398.6-.4.61-.4.6-.405.6-.406.6-.407.61-.41.6-.41.6-.414.6-.415.6-.417.6-.418.6-.42.6-.422.59-.423.6-.425.6-.426.6-.428.6-.429.59-.43.6-.432.6-.433.59-.435.6-.436.6-.437.59-.438.6-.439.59-.44.6-.442.6-.442.59-.444.6-.443 1.19-.893 1.19-.894 1.19-.898 1.2-.9 1.19-.903.99-.748.21-.157 1.19-.907 2.4-1.818 2.4-1.819 1.2-.91 1.2-.912 1.21-.91 1.21-.91 1.21-.908 1.21-.906.61-.454.61-.452.61-.452.61-.452.61-.45.61-.45.62-.45.61-.449.61-.449.62-.447.62-.446.61-.446.62-.445.62-.444.62-.443.62-.44.62-.442.62-.44.63-.438.62-.438.63-.436.63-.435.62-.433.64-.433.63-.43.63-.43.63-.428.64-.426.63-.425.64-.423.64-.422.64-.42.64-.418.64-.416.65-.415.64-.413.65-.41.65-.409.65-.407.65-.405.65-.403.66-.4.65-.4.65-.39.83-.5.83-.495.81-.496.83-.498.81-.499.82-.5.82-.502.82-.503.82-.504.81-.506.82-.507.81-.508.82-.509.81-.51.82-.512.81-.512.81-.514.82-.515.81-.516.81-.517.81-.519.81-.519.81-.52.81-.522.81-.522.81-.523.81-.525.81-.525.81-.526.81-.527.8-.528.81-.529.81-.53.8-.53.81-.532.81-.533.8-.533.81-.534.8-.535.81-.535.8-.537.8-.536 1.61-1.077 1.61-1.079 1.6-1.082 1.61-1.084 1.6-1.086 1.6-1.089 1.6-1.09 1.6-1.093 1.61-1.095 1.6-1.096 1.59-1.098 1.6-1.099 1.6-1.1 1.6-1.102 1.6-1.103 1.6-1.104 1.59-1.104 3.2-2.21 6.39-4.426 3.2-2.213 3.2-2.21 1.6-1.104 1.59-1.104 1.61-1.103 1.6-1.1 1.6-1.102 1.6-1.099 1.61-1.097 1.6-1.096 1.61-1.095 1.61-1.092 1.61-1.09 1.61-1.089 1.61-1.086 1.61-1.083 1.61-1.08.81-.54.78-.524.06-.038.07-.048.1-.073.13-.094.16-.112.17-.126.42-.308.49-.362.56-.416.62-.466.68-.514.74-.559.8-.602.84-.643.9-.682.94-.719.99-.753 1.02-.786 1.07-.817 1.1-.846 1.14-.872 2.36-1.819 2.47-1.904 2.55-1.972 2.62-2.026 2.67-2.065 2.69-2.088 2.71-2.096 2.68-2.089 2.66-2.066 2.6-2.028 2.54-1.976 2.44-1.907 2.33-1.823 2.2-1.724 2.05-1.61.97-.757.91-.723.87-.686.82-.647.77-.607.71-.565.65-.519.26-.204.34-.268.52-.423.46-.369.39-.312.31-.255.11-.094.09-.076.06-.05.02-.018.03-.024-.02.013.03-.025-.04.035-.09.081-.16.162-.22.227-.42.507-.01.03 2.12-1.929 2.69-1 2.95.111zm-8.37 3.774l-.65 1.705 1.25-2.644-.6.939z" fill="#0f0"/><path d="M515.004 1014.055c.67-.67 2.041-2.304 2.37-2.962 4.332-8.663-23.807 14.045-6.517 18.368 12.382 3.095 30.343-14.97 13.035-20.74-8.635-2.877-24.833 12.523-18.96 21.332 8.348 12.523 28.566.485 23.108-7.703-1.17-1.755-5.483-2.15-7.11-2.962-1.99-.995-3.408-3.185-5.333-4.148-3.463-1.731-9.422 13.124-7.11 16.59 4.645 6.969 22.237-6.098 18.368-11.257-5.813-7.751-12.957 14.734-5.925 7.703" fill="none" stroke="#0f0" stroke-width="14.72" stroke-dasharray="0,.74,0,0"/><text x="96.23" y="151.784" font-family="'Boogaloo-Regular','Boogaloo',cursive" font-size="14.717" fill="#0f0" transform="translate(-235.637 -72.457) scale(6.7947)">W<tspan x="105.457" y="151.784">e</tspan>bpack</text><g><path d="M1015.605 635.496c.67-.67 2.041-2.304 2.37-2.962 4.332-8.663-23.807 14.045-6.517 18.368 12.382 3.095 30.343-14.969 13.035-20.739-8.635-2.878-24.833 12.522-18.96 21.331 8.348 12.523 28.566.485 23.108-7.703-1.17-1.755-5.483-2.149-7.11-2.962-1.99-.995-3.408-3.185-5.333-4.148-3.463-1.73-9.422 13.124-7.11 16.591 4.645 6.968 22.237-6.099 18.368-11.258-5.813-7.75-12.957 14.734-5.925 7.703" fill="none" stroke="#0f0" stroke-width="14.72" stroke-dasharray="0,.74,0,0"/><text x="96.23" y="151.784" font-family="'Boogaloo-Regular','Boogaloo',cursive" font-size="14.717" fill="#0f0" transform="translate(264.964 -451.016) scale(6.7947)">React</text></g><g><path d="M1247.823 752.41c7.36-7.363-14.514-1.989-9.657 7.725 3.766 7.533 18.667.067 13.907-8.497-.88-1.576-2.08-4.902-3.86-5.794-.5-.247-1.03.607-1.16.773-2.523 3.023-9.216 12.402-4.638 15.836 2.608 1.957 13.908-2.694 11.588-5.794-1.17-1.554-10.569-9.744-12.747-8.11-1.879 1.408-7.656 11.11-5.794 13.904 2.098 3.146 9.631 6.971 13.131 4.635 2.65-1.767 1.49-6.205 1.93-8.884.18-1.085 1.6-3.753 1.16-4.635-2.31-4.612-6.18.925-6.18 3.476" fill="none" stroke="#0f0" stroke-width="14.72" stroke-dasharray="0,.74,0,0"/><text x="96.23" y="151.784" font-family="'Boogaloo-Regular','Boogaloo',cursive" font-size="14.717" fill="#0f0" transform="translate(529.305 -332.627) scale(6.7947)">V<tspan x="102.691" y="151.784">u</tspan>e</text></g><g><path d="M685.666 797.479c0-7.731-16.915 13.132-2.318 13.132 2.155 0 4.423.195 6.567 0 2.08-.19 4.664-1.188 6.18-2.704 3.053-3.053-2.169-7.293-3.863-9.27-.132-.153-2.666-4.286-3.09-3.862-1.661 1.66-3.296 4.857-4.249 6.952-.572 1.26-1.652 3.54-1.158 5.022 1.459 4.377 18.32-2.092 17.381-7.725-.716-4.295-18.964-8.155-19.699-1.545-.596 5.37 19.766 9.623 14.678 2.703-9.917-13.486-15.356 7.66-13.519 8.884 1.032.688 11.323 1.789 10.042-.772-1.741-3.482-15.556 1.438-8.883 8.11 2.898 2.899 10.173-2.186 10.042-2.317-.455-.455-1.3-.126-1.931 0-6.614 1.323.868 7.694 3.09 6.953 1.344-.448 2.52-2.134 3.476-3.09 1.556-1.556-.128-1.806.386-3.863.088-.352 2.296-3.68 1.932-3.862-.042-.021-2.318.597-2.318.386 0-.671 3.047-1.631 3.476-.772 2.432 4.863-9.38 14.383-14.291 12.746-1.265-.422-.872-4.35-1.931-5.408-1.094-1.093-3.114-.82-3.863-2.317-2.226-4.454 3.32-9.604 6.953-10.815.257-.086 9.453-.976 7.725-2.704-.603-.603-3.679.092-4.635-.386-.958-.48-.635-2.4-1.545-2.704-7.517-2.505-13.655 8.272-15.064 13.905-1.209 4.838 6.112 11.05 10.043 12.36 2.532.844 6.203-.5 8.111-1.931 4.627-3.471 8.028-3.915 9.656-10.43 1.67-6.68-6.627-14.84-13.132-11.586" fill="none" stroke="#0f0" stroke-width="14.72" stroke-dasharray="0,.74,0,0"/><text x="96.23" y="151.784" font-family="'Boogaloo-Regular','Boogaloo',cursive" font-size="14.717" fill="#0f0" transform="translate(-99.567 -306.599) scale(6.7947)">T<tspan x="101.263" y="151.784">y</tspan>peScript</text></g><g><path d="M960.455 931.677c0-7.731-16.915 13.132-2.318 13.132 2.155 0 4.423.195 6.567 0 2.08-.19 4.664-1.188 6.18-2.704 3.053-3.053-2.17-7.293-3.863-9.27-.132-.153-2.666-4.286-3.09-3.862-1.661 1.66-3.296 4.857-4.25 6.952-.571 1.26-1.651 3.54-1.157 5.022 1.459 4.377 18.32-2.092 17.38-7.725-.715-4.295-18.963-8.155-19.698-1.545-.596 5.37 19.766 9.623 14.678 2.703-9.917-13.486-15.356 7.66-13.52 8.884 1.033.688 11.324 1.789 10.043-.772-1.741-3.482-15.556 1.438-8.883 8.11 2.898 2.899 10.173-2.186 10.042-2.317-.455-.455-1.3-.126-1.931 0-6.614 1.323.868 7.694 3.09 6.953 1.344-.448 2.52-2.134 3.476-3.09 1.556-1.556-.128-1.806.386-3.863.088-.352 2.296-3.68 1.932-3.862-.042-.021-2.318.597-2.318.386 0-.671 3.047-1.631 3.476-.772 2.432 4.863-9.38 14.383-14.291 12.746-1.265-.422-.872-4.35-1.931-5.408-1.094-1.093-3.114-.82-3.863-2.317-2.226-4.454 3.32-9.604 6.953-10.815.257-.086 9.453-.976 7.725-2.704-.603-.603-3.68.092-4.635-.386-.958-.48-.635-2.4-1.545-2.704-7.517-2.505-13.655 8.272-15.064 13.905-1.21 4.838 6.112 11.05 10.043 12.36 2.532.844 6.203-.5 8.11-1.931 4.628-3.471 8.029-3.915 9.657-10.43 1.67-6.68-6.627-14.84-13.132-11.586" fill="none" stroke="#0f0" stroke-width="14.72" stroke-dasharray="0,.74,0,0"/><text x="96.23" y="151.784" font-family="'Boogaloo-Regular','Boogaloo',cursive" font-size="14.717" fill="#0f0" transform="translate(175.222 -172.401) scale(6.7947)">Angular</text></g><g><g opacity=".247"><text x="96.23" y="151.784" font-family="'Boogaloo-Regular','Boogaloo',cursive" font-size="14.717" fill="#fff" transform="translate(-571.281 -877.55) scale(6.7947)">Grunt</text><text x="96.23" y="151.784" font-family="'Boogaloo-Regular','Boogaloo',cursive" font-size="14.717" fill="#fff" transform="translate(125.84 -902.22) scale(6.7947)">Sublime text</text><text x="96.23" y="151.784" font-family="'Boogaloo-Regular','Boogaloo',cursive" font-size="14.717" fill="#fff" transform="translate(960.514 -903.65) scale(6.7947)">ExtJS</text><text x="96.23" y="151.784" font-family="'Boogaloo-Regular','Boogaloo',cursive" font-size="14.717" fill="#fff" transform="translate(-274.528 -819.88) scale(6.7947)">Prototype</text><text x="96.23" y="151.784" font-family="'Boogaloo-Regular','Boogaloo',cursive" font-size="14.717" fill="#fff" transform="translate(58.59 -689.274) scale(6.7947)">CoffeeScript</text><text x="96.23" y="151.784" font-family="'Boogaloo-Regular','Boogaloo',cursive" font-size="14.717" fill="#fff" transform="translate(-572.668 -715.396) scale(6.7947)">jQuer<tspan x="123.898" y="151.784">y</tspan></text><text x="96.23" y="151.784" font-family="'Boogaloo-Regular','Boogaloo',cursive" font-size="14.717" fill="#fff" transform="translate(587.885 -789.529) scale(6.7947)">Mootoools</text><text x="96.23" y="151.784" font-family="'Boogaloo-Regular','Boogaloo',cursive" font-size="14.717" fill="#fff" transform="translate(1023.967 -688.6) scale(6.7947)">GWT</text><text x="96.23" y="151.784" font-family="'Boogaloo-Regular','Boogaloo',cursive" font-size="14.717" fill="#fff" transform="translate(-474.74 -557.62) scale(6.7947)">Flash/Flex</text><text x="96.23" y="151.784" font-family="'Boogaloo-Regular','Boogaloo',cursive" font-size="14.717" fill="#fff" transform="translate(701.324 -558.56) scale(6.7947)">Backbone</text><text x="96.23" y="151.784" font-family="'Boogaloo-Regular','Boogaloo',cursive" font-size="14.717" fill="#fff" transform="translate(-585.221 -404.713) scale(6.7947)">Bower</text><text x="96.23" y="151.784" font-family="'Boogaloo-Regular','Boogaloo',cursive" font-size="14.717" fill="#fff" transform="translate(888.308 -414.163) scale(6.7947)">angular<tspan x="132.788" y="151.784">.</tspan>js</text></g></g></g></g></svg>