<svg viewBox="0 0 1921 1080" xmlns="http://www.w3.org/2000/svg" fill-rule="evenodd" clip-rule="evenodd" stroke-linejoin="round" stroke-miterlimit="1.414"><g transform="translate(-1969.87)"><path d="M1970 0h1920v1080H1970z"/><clipPath id="a"><path d="M1970 0h1920v1080H1970z"/></clipPath><g clip-path="url(#a)"><g fill="none" stroke="#fff" stroke-width="12.99" stroke-linecap="round" stroke-miterlimit="1.5" stroke-dasharray="0,.65,0,0"><path d="M2763.904 973.45c0-9.848-5.65-22.602-8.2-32.805-6.614-26.453-8.513-187.077-2.345-217.921 11.488-57.436-.857-118.857 30.463-171.057 20.637-34.395 55.38-79.75 97.245-90.215 93.431-23.358 180.212-6.777 235.498 76.155 2.209 3.317 9.528 8.664 10.547 11.716 19.158 57.48 18.795 123.19 37.488 179.26 6.446 19.33-2.617 44.583 2.345 64.438 5.087 20.352.521 177.567-9.38 187.46" stroke-width="14.716371"/><path d="M2698.294 980.481c-12.122 0-16.404-129.491-16.404-154.654 0-123.114-8.291-243.608 78.499-330.398 10.669-10.667 35.262-12.945 49.209-19.918 13.206-6.602 24.045-14.366 37.492-21.088 12.922-6.463 76.177-4.665 80.841 0" stroke-width="14.716371"/></g><text x="804.467" y="879.017" font-family="'Boogaloo-Regular','Boogaloo',cursive" font-size="117.822" fill="#fff" transform="translate(1419.99 -749.484) scale(1.74076)">RIP</text><g fill="none" stroke="#fff" stroke-width="14.72" stroke-linecap="round" stroke-miterlimit="1.5" stroke-dasharray="0,.74,0,0"><path d="M2615.136 1079.6c-2.926-1.95-3.576-2.39-.927-3.71M2706.06 1055.48c-13.347 0-.074-8.64 4.639-10.21M2811.829 1065.68c-2.344-.78-2.092-.23-3.711-1.85M2925.02 1036c-3.741-3.75-6.499-8.36-10.206-12.07M2835.024 1018.37c-3.729-3.73-6.533-8.33-12.062-5.57M3034.5 1048.98c0-3.05-1.07-4.68 1.86-3.71M3184.8 1074.96c11.51 0 20.46 1.47 31.55 4.64M3305.41 1048.06c-3.95-.99-7.27-2.86-11.13-.93M3088.31 1023.93c0-1.88-1.38-9.75-4.64-6.49M2963.059 1017.44c-4.456 0-15.772-3.48-15.772 3.71M2973.26 1067.54c-6.276-6.28-11.375-9.28-20.407-9.28M3113.36 1058.26c-4.93-2.46-8.05-.22-12.06 2.79M3165.32 1035.07c0-.96 4.11 5.04 5.56 6.49M3332.32 1067.54c0-2.08 8.37 9.76 11.13 12.06M2548.335 1076.82c-7.285 1.82-9.652 3.15-14.844 8.35"/><path d="M2395.023 1094.24c-6.529 0 21.744-20.45 24.82-22.76 19.224-14.41 41.603-17.26 63.085-25.85 14.211-5.69 30.818-6.67 45.504-10.34 16.406-4.1 32.062-11.82 48.606-16.55 33.261-9.5 69.046-12.67 102.384-23.786 45.693-15.231 94.491-9.716 141.683-17.581 125.279-20.88 258.725-5.902 377.475 23.787 36.95 9.23 83.18 8.38 124.1 18.61 37.16 9.29 152.53 50.12 165.47 88.94 1.69 5.07 7.24 3.88 7.24 8.28"/></g><g><text x="96.23" y="151.784" font-family="'Boogaloo-Regular','Boogaloo',cursive" font-size="14.717" fill="#fff" transform="translate(1398.719 -877.55) scale(6.7947)">Grunt</text><text x="96.23" y="151.784" font-family="'Boogaloo-Regular','Boogaloo',cursive" font-size="14.717" fill="#fff" transform="translate(2095.84 -902.22) scale(6.7947)">Sublime text</text><text x="96.23" y="151.784" font-family="'Boogaloo-Regular','Boogaloo',cursive" font-size="14.717" fill="#fff" transform="translate(2930.514 -903.65) scale(6.7947)">ExtJS</text><text x="96.23" y="151.784" font-family="'Boogaloo-Regular','Boogaloo',cursive" font-size="14.717" fill="#fff" transform="translate(1695.472 -819.88) scale(6.7947)">Prototype</text><text x="96.23" y="151.784" font-family="'Boogaloo-Regular','Boogaloo',cursive" font-size="14.717" fill="#fff" transform="translate(2028.59 -689.274) scale(6.7947)">CoffeeScript</text><text x="96.23" y="151.784" font-family="'Boogaloo-Regular','Boogaloo',cursive" font-size="14.717" fill="#fff" transform="translate(1397.332 -715.396) scale(6.7947)">jQuer<tspan x="123.898" y="151.784">y</tspan></text><text x="96.23" y="151.784" font-family="'Boogaloo-Regular','Boogaloo',cursive" font-size="14.717" fill="#fff" transform="translate(2557.885 -789.529) scale(6.7947)">Mootoools</text><text x="96.23" y="151.784" font-family="'Boogaloo-Regular','Boogaloo',cursive" font-size="14.717" fill="#fff" transform="translate(2993.967 -688.6) scale(6.7947)">GWT</text><text x="96.23" y="151.784" font-family="'Boogaloo-Regular','Boogaloo',cursive" font-size="14.717" fill="#fff" transform="translate(1495.26 -557.62) scale(6.7947)">Flash/Flex</text><text x="96.23" y="151.784" font-family="'Boogaloo-Regular','Boogaloo',cursive" font-size="14.717" fill="#fff" transform="translate(2671.324 -558.56) scale(6.7947)">Backbone</text><text x="96.23" y="151.784" font-family="'Boogaloo-Regular','Boogaloo',cursive" font-size="14.717" fill="#fff" transform="translate(1384.779 -404.713) scale(6.7947)">Bower</text><text x="96.23" y="151.784" font-family="'Boogaloo-Regular','Boogaloo',cursive" font-size="14.717" fill="#fff" transform="translate(2858.308 -414.163) scale(6.7947)">angular<tspan x="132.788" y="151.784">.</tspan>js</text></g></g></g></svg>