<svg viewBox="0 0 1921 1081" xmlns="http://www.w3.org/2000/svg" fill-rule="evenodd" clip-rule="evenodd" stroke-linejoin="round" stroke-miterlimit="1.414"><g transform="translate(-5909.22 .45)"><path fill="#fff" d="M5910 0h1920v1080H5910z"/><clipPath id="a"><path d="M5910 0h1920v1080H5910z"/></clipPath><g clip-path="url(#a)"><path fill="#c52033" d="M6071.93 159.94h468.304v983.438H6071.93z"/><path d="M6541.76 151.3l1.48.4 1.38.65 1.25.87 1.08 1.08.88 1.26.65 1.38.39 1.48.14 1.52 1.34 171.81 1 133.71.3 55.15.03 38.36-.66 89.6-1.04 105.06-2.17 241.78-.81 147.97-.12 1.17-.32 1.13-.51 1.06-.68.95-.83.82h-.01l-.96.65-1.06.48-1.12.29-1.15.08-86.95-.31-133.32-.25-64.31-.06-62.11-.02-64.23.01-57.39.03-1.05-.08-1.01-.28-.49-.22-.47-.22-.86-.6-.75-.74-.61-.86-.45-.96-.28-1.02-.09-1.05-.18-109.8-.41-133.26-.65-133.16-1.75-255.96-.69-117.78-.19-55.24-.04-52.39.33-72.63.46-53.22.17-1.59.44-1.53.7-1.42.93-1.28 1.12-1.11.01.01 1.31-.88 1.43-.64 1.51-.38 1.56-.11 3.92.03 190.33 1.76 270.69 1.28 3.37.01v-2.92l1.52.13zm-263.23 15.78l-180.06 1.76.14.14-17.63.02.13.12.46 65.24.33 69.37-.04 49.82-.19 52.45-.69 111.9-1.75 244.34-.65 127.69-.41 127.94-.19.15v119.31l-.01.01h6.09v.01l60.27.03 58.84.01 56.92-.02 58.92-.06 121.98-.25-.22-.37h92.77l-.07-.07-.81-159.79-2.17-237.7-1.04-103-.66-87.58.03-37.35.3-53.62 1-130.08 1.29-161.67-252.88 1.25z"/><path d="M6142.819 690.325h88.28" fill="#c52033"/><path d="M6233.429 684.795l1.91 1.29 1.29 1.91.47 2.32v.02l-.47 2.32-1.29 1.9-1.91 1.29-2.32.48h-88.3l-2.32-.48-1.9-1.29-1.29-1.9-.48-2.32v-.02l.48-2.32 1.29-1.91 1.9-1.29 2.32-.47h88.3l2.32.47z" fill="#fff"/><circle cx="2205.24" cy="4490.89" r="16.529" fill="#fff" transform="translate(3264.999 -5169.385) scale(1.30482)"/><path fill="#00d8ff" d="M6635.85 159.94h468.304v983.438H6635.85z"/><path d="M7105.68 151.3l1.48.4 1.38.65 1.25.87 1.08 1.08.88 1.26.65 1.38.39 1.48.14 1.52 1.34 171.81 1 133.71.3 55.15.03 38.36-.66 89.6-1.04 105.06-2.17 241.78-.81 147.97-.12 1.17-.32 1.13-.51 1.06-.68.95-.83.82h-.01l-.96.65-1.06.48-1.12.29-1.15.08-86.95-.31-133.32-.25-64.31-.06-62.11-.02-64.23.01-57.39.03-1.05-.08-1.01-.28-.49-.22-.47-.22-.86-.6-.75-.74-.61-.86-.45-.96-.28-1.02-.09-1.05-.18-109.8-.41-133.26-.65-133.16-1.75-255.96-.69-117.78-.19-55.24-.04-52.39.33-72.63.46-53.22.17-1.59.44-1.53.7-1.42.93-1.28 1.12-1.11.01.01 1.31-.88 1.43-.64 1.51-.38 1.56-.11 3.92.03 190.33 1.76 270.69 1.28 3.37.01v-2.92l1.52.13zm-263.23 15.78l-180.06 1.76.14.14-17.63.02.13.12.46 65.24.33 69.37-.04 49.82-.19 52.45-.69 111.9-1.75 244.34-.65 127.69-.41 127.94-.19.15v119.31l-.01.01h6.09v.01l60.27.03 58.84.01 56.92-.02 58.92-.06 121.98-.25-.22-.37h92.77l-.07-.07-.81-159.79-2.17-237.7-1.04-103-.66-87.58.03-37.35.3-53.62 1-130.08 1.29-161.67-252.88 1.25z"/><g><path d="M6706.735 690.325h88.28" fill="#00d8ff"/><path d="M6797.345 684.795l1.91 1.29 1.29 1.91.47 2.32v.02l-.47 2.32-1.29 1.9-1.91 1.29-2.32.48h-88.3l-2.32-.48-1.9-1.29-1.29-1.9-.48-2.32v-.02l.48-2.32 1.29-1.91 1.9-1.29 2.32-.47h88.3l2.32.47z"/><g transform="translate(3828.915 -5169.385) scale(1.30482)"><circle cx="2205.24" cy="4490.89" r="16.529"/></g></g><g><path fill="#3cb884" d="M7199.76 159.94h468.304v983.438H7199.76z"/><path d="M7669.59 151.3l1.48.4 1.38.65 1.25.87 1.08 1.08.88 1.26.65 1.38.39 1.48.14 1.52 1.34 171.81 1 133.71.3 55.15.03 38.36-.66 89.6-1.04 105.06-2.17 241.78-.81 147.97-.12 1.17-.32 1.13-.51 1.06-.68.95-.83.82h-.01l-.96.65-1.06.48-1.12.29-1.15.08-86.95-.31-133.32-.25-64.31-.06-62.11-.02-64.23.01-57.39.03-1.05-.08-1.01-.28-.49-.22-.47-.22-.86-.6-.75-.74-.61-.86-.45-.96-.28-1.02-.09-1.05-.18-109.8-.41-133.26-.65-133.16-1.75-255.96-.69-117.78-.19-55.24-.04-52.39.33-72.63.46-53.22.17-1.59.44-1.53.7-1.42.93-1.28 1.12-1.11.01.01 1.31-.88 1.43-.64 1.51-.38 1.56-.11 3.92.03 190.33 1.76 270.69 1.28 3.37.01v-2.92l1.52.13zm-263.23 15.78l-180.06 1.76.14.14-17.63.02.13.12.46 65.24.33 69.37-.04 49.82-.19 52.45-.69 111.9-1.75 244.34-.65 127.69-.41 127.94-.19.15v119.31l-.01.01h6.09v.01l60.27.03 58.84.01 56.92-.02 58.92-.06 121.98-.25-.22-.37h92.77l-.07-.07-.81-159.79-2.17-237.7-1.04-103-.66-87.58.03-37.35.3-53.62 1-130.08 1.29-161.67-252.88 1.25z"/><g><path d="M7270.65 690.325h88.28" fill="#3cb884"/><path d="M7361.26 684.795l1.91 1.29 1.29 1.91.47 2.32v.02l-.47 2.32-1.29 1.9-1.91 1.29-2.32.48h-88.3l-2.32-.48-1.9-1.29-1.29-1.9-.48-2.32v-.02l.48-2.32 1.29-1.91 1.9-1.29 2.32-.47h88.3l2.32.47z"/><g transform="translate(4392.83 -5169.385) scale(1.30482)"><circle cx="2205.24" cy="4490.89" r="16.529"/></g></g></g><g><text x="2133.3" y="4179.25" font-family="'Boogaloo-Regular','Boogaloo',cursive" font-size="123" fill="#fff" transform="translate(4006.86 -3861.66)">Angular</text></g><g><text x="2180.53" y="4179.25" font-family="'Boogaloo-Regular','Boogaloo',cursive" font-size="123" transform="translate(4570.77 -3861.66)">React</text></g><g><text x="2223.4" y="4179.25" font-family="'Boogaloo-Regular','Boogaloo',cursive" font-size="123" transform="translate(5134.81 -3858.71)">V<tspan x="2277.39" y="4179.25">u</tspan>e</text></g></g></g></svg>