<svg viewBox="0 0 1921 1081" xmlns="http://www.w3.org/2000/svg" fill-rule="evenodd" clip-rule="evenodd" stroke-linejoin="round" stroke-miterlimit="1.414"><g transform="translate(-5909.013 .73)"><path d="M5910 0h1920v1080H5910z"/><clipPath id="a"><path d="M5910 0h1920v1080H5910z"/></clipPath><g clip-path="url(#a)"><path d="M6541.91 150.42l1.63.43 1.53.71 1.38.97 1.2 1.19.96 1.39.72 1.52.43 1.63.15 1.68v983.44l-.15 1.68-.43 1.63-.72 1.53-.96 1.38-1.2 1.19-1.38.97-1.53.71-1.63.44-1.67.15h-468.31l-1.68-.15-1.63-.44-1.53-.71-1.38-.97-1.19-1.19-.97-1.38-.71-1.53-.44-1.63-.14-1.68V159.94l.14-1.68.44-1.63.71-1.52.97-1.39 1.19-1.19 1.38-.97 1.53-.71 1.63-.43 1.68-.15h468.31l1.67.15zm-460.3 19.2v964.09h448.95V169.62h-448.95z" fill="#fff"/><circle cx="2205.24" cy="4490.89" r="16.529" fill="#fff" transform="translate(3264.999 -5169.385) scale(1.30482)"/><path d="M6233.429 684.795l1.91 1.29 1.29 1.91.47 2.32v.02l-.47 2.32-1.29 1.9-1.91 1.29-2.32.48h-88.3l-2.32-.48-1.9-1.29-1.29-1.9-.48-2.32v-.02l.48-2.32 1.29-1.91 1.9-1.29 2.32-.47h88.3l2.32.47zM7105.83 150.42l1.63.43 1.53.71 1.38.97 1.2 1.19.96 1.39.72 1.52.43 1.63.15 1.68v983.44l-.15 1.68-.43 1.63-.72 1.53-.96 1.38-1.2 1.19-1.38.97-1.53.71-1.63.44-1.67.15h-468.31l-1.68-.15-1.63-.44-1.53-.71-1.38-.97-1.19-1.19-.97-1.38-.71-1.53-.44-1.63-.14-1.68V159.94l.14-1.68.44-1.63.71-1.52.97-1.39 1.19-1.19 1.38-.97 1.53-.71 1.63-.43 1.68-.15h468.31l1.67.15zm-460.3 19.2v964.09h448.95V169.62h-448.95z" fill="#fff"/><circle cx="2205.24" cy="4490.89" r="16.529" fill="#fff" transform="translate(3828.915 -5169.385) scale(1.30482)"/><path d="M6797.345 684.795l1.91 1.29 1.29 1.91.47 2.32v.02l-.47 2.32-1.29 1.9-1.91 1.29-2.32.48h-88.3l-2.32-.48-1.9-1.29-1.29-1.9-.48-2.32v-.02l.48-2.32 1.29-1.91 1.9-1.29 2.32-.47h88.3l2.32.47z" fill="#fff"/><g><path d="M7669.74 150.42l1.63.43 1.53.71 1.38.97 1.2 1.19.96 1.39.72 1.52.43 1.63.15 1.68v983.44l-.15 1.68-.43 1.63-.72 1.53-.96 1.38-1.2 1.19-1.38.97-1.53.71-1.63.44-1.67.15h-468.31l-1.68-.15-1.63-.44-1.53-.71-1.38-.97-1.19-1.19-.97-1.38-.71-1.53-.44-1.63-.14-1.68V159.94l.14-1.68.44-1.63.71-1.52.97-1.39 1.19-1.19 1.38-.97 1.53-.71 1.63-.43 1.68-.15h468.31l1.67.15zm-460.3 19.2v964.09h448.95V169.62h-448.95z" fill="#fff"/><circle cx="2205.24" cy="4490.89" r="16.529" fill="#fff" transform="translate(4392.83 -5169.385) scale(1.30482)"/><path d="M7361.26 684.795l1.91 1.29 1.29 1.91.47 2.32v.02l-.47 2.32-1.29 1.9-1.91 1.29-2.32.48h-88.3l-2.32-.48-1.9-1.29-1.29-1.9-.48-2.32v-.02l.48-2.32 1.29-1.91 1.9-1.29 2.32-.47h88.3l2.32.47z" fill="#fff"/></g><g><text x="2133.3" y="4179.25" font-family="'Boogaloo-Regular','Boogaloo',cursive" font-size="123" fill="#fff" transform="translate(4006.86 -3861.66)">Angular</text></g><g><text x="2180.53" y="4179.25" font-family="'Boogaloo-Regular','Boogaloo',cursive" font-size="123" fill="#fff" transform="translate(4570.77 -3861.66)">React</text></g><g><text x="2223.4" y="4179.25" font-family="'Boogaloo-Regular','Boogaloo',cursive" font-size="123" fill="#fff" transform="translate(5134.69 -3861.66)">V<tspan x="2277.39" y="4179.25">u</tspan>e</text></g></g></g></svg>