<svg viewBox="0 0 1921 1081" xmlns="http://www.w3.org/2000/svg" fill-rule="evenodd" clip-rule="evenodd" stroke-linejoin="round" stroke-miterlimit="1.414"><path fill="#fff" d="M.56.45h1920v1080H.56z"/><path d="M162.49 1022.002H630.8V64H162.49v958.002z" fill="#c52033"/><path d="M161.1 1029.883l-1.34-.36-1.27-.595-1.14-.798-.99-.984-.8-1.14-.59-1.266-.36-1.345-.12-1.393.71-649.348L155.47 64l.11-1.218.32-1.178.51-1.11.71-1.004.86-.857 1.01-.702 1.1-.516 1.18-.312 1.22-.107 221.59.175 246.72.146 1.16.108 1.12.302.62.282.44.205.95.672.82.818.67.955.49 1.062.3 1.12.1 1.159-.05 188.388.09 145.808.21 149.403.63 294.081.31 136.925.05 43.397-.12 1.374-.35 1.334-.59 1.247-.79 1.14-.97.974-1.13.799-1.25.585-1.34.36-1.37.117-65.87.068H365.34l-49.45-.916-58.94-1.432-7.18-.156-86-1.617-1.28-.019v4.14l-1.39-.117zm461.77-15.8l.01.01.05-49.74.31-132.258.63-284.671.22-144.883.08-141.435-.06.03V70.683h-3.25v.01l-236.07.136.01.185H169.51v.01l.27 311.908.71 635.067 79.28-1.49 7.18-.157 56.61-1.432 47.23-.915h191.24l.06.078h70.78z"/><path fill="#fff" d="M266.012 1009.032h240v25h-240z"/><g transform="matrix(.58127 0 0 .67444 -2228.171 -6276.621)"><path d="M4730.28 10403.6l-415.44 44.2-57.26 374.2 472.7 4v-422.4z" fill="none"/><clipPath id="a"><path d="M4730.28 10403.6l-415.44 44.2-57.26 374.2 472.7 4v-422.4z"/></clipPath><g clip-path="url(#a)"><g transform="matrix(1.49887 0 0 1.3261 -2183.8 -3507.65)"><circle cx="4609" cy="10808" r="292" fill="#fff"/><path d="M4609.95 10513.2H4613.76l.95.1h2.84l.95.1h1.89l.95.1h1.89l.93.1h.95l.94.1h.94l.94.1.94.1h.93l.94.1.94.1h.93l.94.1.93.1.93.1.94.1h.93l.93.1.93.1.93.1.92.1.93.1.93.1.92.1.92.1.93.2.92.1.92.1.92.1.92.1.92.2.92.1.92.1.91.2.92.1.91.1.92.2.91.1.91.2.91.1.91.2.91.2.91.1.91.2.9.1.91.2.9.2.9.2.91.1.9.2.9.2.9.2.89.2.9.2.9.2.89.2.9.2.89.2.89.2.9.2.89.2.88.2.89.2.89.2.88.2.89.3.88.2.89.2.88.3.88.2.88.2.87.3.88.2.88.3.87.2.88.3.87.2.87.3.87.2.87.3.87.2.87.3.86.3.87.2.86.3.87.3.86.3.86.3.86.2.86.3.85.3.86.3.85.3.86.3.85.3.85.3.85.3.85.3.85.3.84.3.85.3.84.4.84.3.85.3.84.3.83.3.84.4.84.3.83.3.84.4.83.3.83.4.83.3.83.4.83.3.82.3.83.4.82.4.82.3.83.4.81.3.82.4.82.4.82.3.81.4.82.4.81.4.81.4.81.3.8.4.81.4.8.4.81.4.8.4.8.4.8.4.8.4.8.4.79.4.8.4.79.4.79.4.79.4.79.5.79.4.78.4.78.4.79.5.78.4.78.4.78.4.77.5.78.4.77.5.78.4.77.4.77.5.77.4.76.5.77.5.76.4.76.5.76.4.76.5.76.5.76.4.75.5.75.5.76.4.75.5.74.5.75.5.75.5.74.4.74.5.75.5.74.5.73.5.74.5.73.5.74.5.73.5.73.5.73.5.72.5.73.5.72.5.72.6.72.5.72.5.72.5.71.5.72.6.71.5.71.5.71.6.7.5.71.5.7.6.71.5.7.5.7.6.69.5.7.6.69.5.69.6.69.5.69.6.69.6.69.5.68.6.68.5.68.6.68.6.68.6.67.5.67.6.67.6.68.6.66.5.67.6.66.6.67.6.66.6.66.6.65.6.66.5.65.6.65.6.65.6.65.6.65.7.64.6.65.6.64.6.64.6.63.6.64.6.63.6.64.6.63.7.62.6.63.6.62.6.63.7.62.6.62.6.61.7.62.6.61.6.61.7.61.6.61.7.61.6.6.7.6.6.6.7.6.6.6.7.59.6.59.7.59.6.59.7.58.7.59.6.58.7.58.6.58.7.58.7.57.7.57.6.57.7.57.7.57.7.56.7.56.6.57.7.55.7.56.7.55.7.56.7.55.7.55.7.54.7.55.7.54.7.54.7.54.7.53.7.54.7.53.7.53.7.53.7.52.7.52.7.52.8.52.7.52.7.52.7.51.7.51.8.51.7.5.7.51.8.5.7.5.7.5.7.49.8.5.7.49.8.49.7.49.7.48.8.48.7.48.8.48.7.48.8.47.7.48.8.47.7.46.8.47.8.46.7.46.8.46.7.46.8.45.8.45.7.45.8.45.8.44.7.45.8.44.8.43.8.44.7.43.8.44.8.42.8.43.8.43.7.42.8.42.8.41.8.42.8.41.8.41.8.41.8.41.8.4.8.4.8.4.8.4.8.39.8.4.8.38.8.39.8.39.8.38.8.38.8.38.8.37.8.37.8.37.9.37.8.37.8.36.8.36.8.36.8.36.9.35.8.35.8.35.8.35.9.34.8.34.8.34.9.33.8.34.8.33.9.33.8.33.8.32.9.32.8.32.9.32.8.31.9.31.8.31.9.31.8.3.8.3.9.3.9.3.8.29.9.29.8.29.9.29.8.28.9.28.8.28.9.28.9.27.8.27.9.27.9.26.8.26.9.26.9.26.8.26.9.25.9.25.9.25.8.24.9.24.9.24.9.24.8.23.9.24.9.22.9.23.9.22.8.22.9.22.9.22.9.21.9.21.9.21.9.2.9.2.9.2.9.2.8.19.9.19.9.19.9.19.9.18.9.18.9.18.9.17.9.17.9.17.9.17 1 .16.9.16.9.16.9.16.9.15.9.15.9.15.9.14.9.14.9.14 1 .13.9.14.9.13.9.13.9.12.9.12 1 .12.9.12.9.11.9.11 1 .11.9.1.9.1.9.1 1 .1.9.09.9.09.9.09 1 .08.9.08.9.08 1 .08.9.07.9.07 1 .07.9.06.9.06 1 .06.9.05 1 .06.9.05.9.04 1 .04.9.05 1 .03.9.04 1 .03.9.03 1 .02.9.03.9.02 1 .01.9.02 1 .01.9v1l.01.9v2l-.01.9v1l-.01.9-.02 1-.01.9-.02 1-.03.9-.02.9-.03 1-.03.9-.04 1-.03.9-.05 1-.04.9-.04 1-.05.9-.06.9-.05 1-.06.9-.06 1-.06.9-.07.9-.07 1-.07.9-.08.9-.08 1-.08.9-.08.9-.09 1-.09.9-.09.9-.1.9-.1 1-.1.9-.1.9-.11.9-.11 1-.11.9-.12.9-.12.9-.12 1-.12.9-.13.9-.13.9-.14.9-.13.9-.14 1-.14.9-.14.9-.15.9-.15.9-.15.9-.16.9-.16.9-.16.9-.16.9-.17 1-.17.9-.17.9-.17.9-.18.9-.18.9-.18.9-.19.9-.19.9-.19.9-.19.9-.2.8-.2.9-.2.9-.2.9-.21.9-.21.9-.21.9-.22.9-.22.9-.22.9-.22.8-.23.9-.22.9-.24.9-.23.9-.24.8-.24.9-.24.9-.24.9-.25.8-.25.9-.25.9-.26.9-.26.8-.26.9-.26.9-.26.8-.27.9-.27.9-.27.8-.28.9-.28.9-.28.8-.28.9-.29.8-.29.9-.29.8-.29.9-.3.8-.3.9-.3.9-.3.8-.31.8-.31.9-.31.8-.31.9-.32.8-.32.9-.32.8-.32.9-.33.8-.33.8-.33.9-.33.8-.34.8-.34.9-.34.8-.34.8-.35.9-.35.8-.35.8-.35.8-.36.9-.36.8-.36.8-.36.8-.37.8-.37.8-.37.9-.37.8-.37.8-.38.8-.38.8-.38.8-.39.8-.39.8-.38.8-.4.8-.39.8-.4.8-.4.8-.4.8-.4.8-.41.8-.41.8-.41.8-.41.8-.41.8-.42.8-.42.8-.42.8-.43.7-.43.8-.43.8-.43.8-.43.8-.44.7-.43.8-.44.8-.45.8-.44.7-.45.8-.45.8-.45.7-.45.8-.46.8-.46.7-.46.8-.46.7-.47.8-.46.8-.47.7-.48.8-.47.7-.48.8-.48.7-.48.8-.48.7-.48.8-.49.7-.49.7-.49.8-.5.7-.49.7-.5.8-.5.7-.5.7-.51.8-.5.7-.51.7-.51.8-.51.7-.52.7-.52.7-.52.7-.52.8-.52.7-.52.7-.53.7-.53.7-.54.7-.53.7-.53.7-.54.7-.54.7-.54.7-.55.7-.54.7-.55.7-.55.7-.56.7-.55.7-.56.7-.55.7-.57.7-.56.6-.56.7-.57.7-.57.7-.57.7-.57.6-.57.7-.58.7-.58.7-.58.6-.58.7-.59.6-.58.7-.59.7-.59.6-.59.7-.6.6-.59.7-.6.7-.6.6-.6.6-.6.7-.61.6-.61.7-.61.6-.61.7-.61.6-.62.6-.61.7-.62.6-.62.6-.63.7-.62.6-.63.6-.63.6-.62.7-.64.6-.63.6-.64.6-.63.6-.64.6-.64.6-.65.6-.64.7-.65.6-.65.6-.64.6-.66.6-.65.5-.66.6-.65.6-.66.6-.66.6-.67.6-.66.6-.67.6-.67.5-.67.6-.67.6-.67.6-.67.5-.68.6-.68.6-.68.6-.68.5-.68.6-.69.5-.69.6-.69.6-.69.5-.69.6-.69.5-.7.6-.69.5-.7.6-.7.5-.71.5-.7.6-.7.5-.71.5-.71.6-.71.5-.71.5-.72.6-.71.5-.72.5-.72.5-.72.5-.72.6-.72.5-.73.5-.72.5-.73.5-.73.5-.73.5-.74.5-.73.5-.74.5-.73.5-.75.5-.74.5-.74.5-.74.4-.75.5-.75.5-.74.5-.75.5-.76.4-.75.5-.75.5-.76.4-.76.5-.76.5-.76.4-.76.5-.76.4-.77.5-.76.5-.77.4-.77.5-.77.4-.78.4-.77.5-.78.4-.77.5-.78.4-.78.4-.78.4-.78.5-.79.4-.78.4-.79.4-.79.5-.79.4-.79.4-.79.4-.8.4-.79.4-.8.4-.8.4-.8.4-.8.4-.8.4-.81.4-.8.4-.81.4-.8.4-.81.3-.81.4-.81.4-.82.4-.81.4-.82.3-.82.4-.81.4-.82.3-.83.4-.82.3-.82.4-.83.3-.82.4-.83.4-.83.3-.83.3-.83.4-.83.3-.84.4-.83.3-.84.3-.83.4-.84.3-.84.3-.85.3-.84.3-.84.4-.85.3-.85.3-.84.3-.85.3-.85.3-.85.3-.85.3-.86.3-.85.3-.86.3-.85.3-.86.3-.86.2-.86.3-.86.3-.86.3-.87.3-.87.2-.86.3-.87.3-.87.2-.87.3-.87.2-.87.3-.87.2-.88.3-.87.2-.88.3-.87.2-.88.3-.88.2-.88.2-.88.3-.89.2-.88.2-.89.3-.88.2-.89.2-.89.2-.89.2-.89.2-.89.2-.89.2-.89.2-.9.2-.89.2-.9.2-.9.2-.89.2-.9.2-.9.2-.9.2-.91.1-.9.2-.9.2-.91.2-.9.1-.91.2-.91.1-.91.2-.91.2-.91.1-.91.2-.91.1-.92.2-.91.1-.92.1-.91.2-.92.1-.92.1-.92.2-.92.1-.92.1-.92.1-.92.1-.93.2-.92.1-.92.1-.93.1-.93.1-.92.1-.93.1-.93.1-.93.1h-.94l-.93.1-.93.1-.93.1-.94.1h-.93l-.94.1-.94.1h-.93l-.94.1-.94.1h-.94l-.94.1h-.95l-.93.1h-1.89l-.95.1h-1.89l-.95.1h-2.84l-.95.1h-9.52l-.95-.1h-2.84l-.95-.1h-1.89l-.95-.1h-1.88l-.94-.1h-.95l-.94-.1h-.94l-.94-.1-.93-.1h-.94l-.94-.1-.94-.1h-.93l-.94-.1-.93-.1-.93-.1-.93-.1h-.94l-.93-.1-.93-.1-.92-.1-.93-.1-.93-.1-.93-.1-.92-.1-.92-.1-.93-.2-.92-.1-.92-.1-.92-.1-.92-.1-.92-.2-.92-.1-.92-.1-.91-.2-.92-.1-.91-.1-.92-.2-.91-.1-.91-.2-.91-.1-.91-.2-.91-.2-.91-.1-.91-.2-.9-.1-.91-.2-.9-.2-.9-.2-.91-.1-.9-.2-.9-.2-.9-.2-.89-.2-.9-.2-.9-.2-.89-.2-.9-.2-.89-.2-.89-.2-.89-.2-.89-.2-.89-.2-.89-.2-.89-.2-.88-.2-.89-.3-.88-.2-.89-.2-.88-.3-.88-.2-.88-.2-.88-.3-.87-.2-.88-.3-.87-.2-.88-.3-.87-.2-.87-.3-.87-.2-.87-.3-.87-.2-.87-.3-.86-.3-.87-.2-.87-.3-.86-.3-.86-.3-.86-.3-.86-.2-.86-.3-.85-.3-.86-.3-.85-.3-.86-.3-.85-.3-.85-.3-.85-.3-.85-.3-.84-.3-.85-.3-.85-.3-.84-.4-.84-.3-.85-.3-.84-.3-.84-.3-.83-.4-.84-.3-.83-.3-.84-.4-.83-.3-.83-.4-.83-.3-.83-.3-.83-.4-.82-.4-.83-.3-.82-.4-.82-.3-.83-.4-.82-.3-.81-.4-.82-.4-.82-.3-.81-.4-.81-.4-.82-.4-.8-.4-.82-.3-.81-.4-.8-.4-.8-.4-.81-.4-.8-.4-.8-.4-.8-.4-.8-.4-.8-.4-.79-.4-.8-.4-.79-.4-.79-.4-.79-.4-.79-.5-.79-.4-.78-.4-.79-.4-.78-.5-.78-.4-.78-.4-.78-.4-.77-.5-.78-.4-.77-.5-.78-.4-.77-.4-.77-.5-.77-.4-.76-.5-.77-.5-.76-.4-.76-.5-.76-.4-.76-.5-.76-.5-.76-.4-.75-.5-.75-.5-.76-.4-.75-.5-.74-.5-.75-.5-.75-.5-.74-.4-.74-.5-.74-.5-.74-.5-.74-.5-.74-.5-.73-.5-.74-.5-.73-.5-.73-.5-.73-.5-.72-.5-.73-.5-.72-.5-.72-.6-.72-.5-.72-.5-.72-.5-.71-.5-.72-.6-.71-.5-.71-.5-.71-.6-.71-.5-.7-.5-.7-.6-.71-.5-.7-.5-.7-.6-.69-.5-.7-.6-.69-.5-.69-.6-.69-.5-.69-.6-.69-.6-.69-.5-.68-.6-.68-.5-.68-.6-.68-.6-.68-.6-.67-.5-.67-.6-.68-.6-.66-.6-.67-.5-.67-.6-.66-.6-.67-.6-.66-.6-.66-.6-.65-.6-.66-.6-.65-.5-.66-.6-.64-.6-.65-.6-.65-.6-.64-.7-.65-.6-.64-.6-.64-.6-.63-.6-.64-.6-.63-.6-.64-.6-.62-.7-.63-.6-.63-.6-.62-.6-.63-.7-.62-.6-.62-.6-.61-.7-.62-.6-.61-.6-.61-.7-.61-.6-.61-.7-.61-.6-.6-.7-.6-.6-.6-.6-.6-.7-.59-.7-.6-.6-.59-.7-.59-.6-.59-.7-.58-.6-.59-.7-.58-.7-.58-.6-.58-.7-.58-.7-.57-.7-.57-.6-.57-.7-.57-.7-.57-.7-.56-.7-.57-.6-.55-.7-.56-.7-.56-.7-.55-.7-.56-.7-.55-.7-.55-.7-.54-.7-.55-.7-.54-.7-.54-.7-.54-.7-.53-.7-.53-.7-.54-.7-.53-.7-.52-.7-.53-.7-.52-.7-.52-.8-.52-.7-.52-.7-.52-.7-.51-.7-.51-.8-.51-.7-.5-.7-.51-.8-.5-.7-.5-.7-.5-.8-.49-.7-.5-.7-.49-.8-.49-.7-.49-.7-.48-.8-.48-.7-.48-.8-.48-.7-.48-.8-.47-.7-.48-.8-.46-.7-.47-.8-.47-.8-.46-.7-.46-.8-.46-.7-.46-.8-.45-.8-.45-.7-.45-.8-.45-.8-.44-.7-.45-.8-.44-.8-.43-.8-.44-.7-.43-.8-.43-.8-.43-.8-.43-.8-.43-.7-.42-.8-.42-.8-.42-.8-.41-.8-.41-.8-.41-.8-.41-.8-.41-.8-.4-.8-.4-.8-.4-.8-.4-.8-.39-.8-.39-.8-.39-.8-.39-.8-.39-.8-.38-.8-.38-.8-.38-.8-.37-.8-.37-.8-.37-.9-.37-.8-.37-.8-.36-.8-.36-.8-.36-.8-.36-.9-.35-.8-.35-.8-.35-.8-.35-.9-.34-.8-.34-.8-.34-.9-.34-.8-.33-.8-.33-.9-.33-.8-.33-.8-.32-.9-.32-.8-.32-.9-.32-.8-.31-.9-.31-.8-.31-.9-.31-.8-.3-.8-.3-.9-.3-.9-.3-.8-.29-.9-.29-.8-.29-.9-.29-.8-.28-.9-.28-.8-.28-.9-.27-.9-.28-.8-.27-.9-.27-.9-.26-.8-.26-.9-.27-.9-.25-.8-.26-.9-.25-.9-.25-.9-.25-.8-.24-.9-.24-.9-.24-.9-.24-.8-.23-.9-.23-.9-.23-.9-.23-.9-.22-.8-.22-.9-.22-.9-.22-.9-.21-.9-.21-.9-.21-.9-.2-.9-.2-.9-.2-.9-.2-.8-.19-.9-.19-.9-.19-.9-.19-.9-.18-.9-.18-.9-.18-.9-.17-.9-.17-.9-.17-.9-.17-1-.16-.9-.16-.9-.16-.9-.16-.9-.15-.9-.15-.9-.15-.9-.14-.9-.14-.9-.14-1-.13-.9-.14-.9-.13-.9-.13-.9-.12-.9-.12-1-.12-.9-.12-.9-.11-.9-.11-1-.11-.9-.1-.9-.1-.9-.1-1-.1-.9-.09-.9-.09-.9-.09-1-.08-.9-.08-.9-.08-1-.08-.9-.07-.9-.07-1-.07-.9-.06-.9-.06-1-.06-.9-.05-1-.06-.9-.04-.9-.05-1-.04-.9-.05-1-.03-.9-.04-1-.03-.9-.03-1-.02-.9-.03-.9-.01-1-.02-.9-.02-1-.01-.9v-1l-.01-.9v-2l.01-.9v-1l.01-.9.02-1 .02-.9.01-1 .03-.9.02-.9.03-1 .03-.9.04-1 .03-.9.05-1 .04-.9.05-1 .04-.9.06-.9.05-1 .06-.9.06-1 .06-.9.07-.9.07-1 .07-.9.08-.9.08-1 .08-.9.08-.9.09-1 .09-.9.09-.9.1-.9.1-1 .1-.9.1-.9.11-.9.11-1 .11-.9.12-.9.12-.9.12-1 .12-.9.13-.9.13-.9.14-.9.13-.9.14-1 .14-.9.14-.9.15-.9.15-.9.15-.9.16-.9.16-.9.16-.9.16-.9.17-1 .17-.9.17-.9.17-.9.18-.9.18-.9.18-.9.19-.9.19-.9.19-.9.19-.9.2-.8.2-.9.2-.9.2-.9.21-.9.21-.9.21-.9.22-.9.22-.9.22-.9.22-.8.23-.9.23-.9.23-.9.23-.9.24-.8.24-.9.24-.9.24-.9.25-.8.25-.9.25-.9.26-.9.25-.8.27-.9.26-.9.26-.8.27-.9.27-.9.28-.8.27-.9.28-.9.28-.8.28-.9.29-.8.29-.9.29-.8.29-.9.3-.8.3-.9.3-.9.3-.8.31-.8.31-.9.31-.8.31-.9.32-.8.32-.9.32-.8.32-.9.33-.8.33-.8.33-.9.34-.8.33-.8.34-.9.34-.8.34-.8.35-.9.35-.8.35-.8.35-.8.36-.9.36-.8.36-.8.36-.8.37-.8.37-.8.37-.9.37-.8.37-.8.38-.8.38-.8.38-.8.39-.8.39-.8.39-.8.39-.8.39-.8.4-.8.4-.8.4-.8.4-.8.41-.8.41-.8.41-.8.41-.8.41-.8.42-.8.42-.8.42-.8.43-.7.43-.8.43-.8.43-.8.43-.8.44-.7.43-.8.44-.8.45-.8.44-.7.45-.8.45-.8.45-.7.45-.8.46-.8.46-.7.46-.8.46-.7.47-.8.47-.8.46-.7.48-.8.47-.7.48-.8.48-.7.48-.8.48-.7.48-.8.49-.7.49-.7.49-.8.49-.7.5-.8.5-.7.5-.7.5-.7.51-.8.5-.7.51-.7.51-.8.51-.7.52-.7.52-.7.52-.7.52-.8.52-.7.53-.7.52-.7.53-.7.53-.7.54-.7.53-.7.54-.7.54-.7.54-.7.55-.7.54-.7.55-.7.55-.7.56-.7.55-.7.56-.7.56-.7.55-.7.57-.6.56-.7.57-.7.57-.7.57-.7.57-.6.57-.7.58-.7.58-.7.58-.6.58-.7.59-.7.58-.6.59-.7.59-.6.59-.7.59-.6.6-.7.6-.6.6-.7.6-.6.6-.7.61-.6.61-.7.61-.6.61-.7.61-.6.62-.6.61-.7.62-.6.62-.6.63-.7.62-.6.63-.6.62-.6.64-.7.63-.6.63-.6.63-.6.64-.6.64-.6.64-.6.65-.6.64-.6.65-.7.65-.6.65-.6.65-.6.65-.6.66-.5.65-.6.66-.6.66-.6.67-.6.66-.6.67-.6.66-.5.67-.6.68-.6.67-.6.67-.5.68-.6.68-.6.68-.6.68-.5.69-.6.68-.5.69-.6.69-.6.69-.5.69-.6.69-.5.7-.6.69-.5.7-.6.7-.5.71-.5.7-.6.71-.5.7-.5.71-.6.71-.5.71-.5.72-.6.71-.5.72-.5.72-.5.72-.5.72-.6.72-.5.73-.5.72-.5.73-.5.73-.5.73-.5.74-.5.73-.5.74-.5.74-.5.73-.5.75-.5.74-.5.74-.4.75-.5.75-.5.74-.5.75-.5.76-.4.75-.5.75-.5.76-.4.76-.5.76-.5.76-.4.76-.5.76-.4.77-.5.76-.5.77-.4.77-.5.77-.4.78-.4.77-.5.78-.4.77-.5.78-.4.78-.4.78-.4.79-.5.78-.4.78-.4.79-.4.79-.5.79-.4.79-.4.79-.4.8-.4.79-.4.8-.4.8-.4.8-.4.8-.4.8-.4.81-.4.8-.4.81-.4.8-.4.81-.3.81-.4.82-.4.81-.4.81-.4.82-.3.82-.4.82-.4.81-.3.83-.4.82-.3.82-.4.83-.4.82-.3.83-.3.83-.4.83-.3.83-.4.83-.3.84-.4.83-.3.84-.3.84-.4.83-.3.84-.3.85-.3.84-.3.84-.4.85-.3.84-.3.85-.3.85-.3.85-.3.85-.3.85-.3.86-.3.85-.3.86-.3.85-.3.86-.3.86-.2.86-.3.86-.3.87-.3.86-.3.87-.2.86-.3.87-.3.87-.2.87-.3.87-.2.87-.3.87-.2.88-.3.87-.2.88-.3.88-.2.87-.3.88-.2.88-.2.88-.3.89-.2.88-.2.89-.3.88-.2.89-.2.89-.2.89-.2.88-.2.9-.2.89-.2.89-.2.9-.2.89-.2.9-.2.9-.2.89-.2.9-.2.9-.2.9-.2.91-.1.9-.2.9-.2.91-.2.9-.1.91-.2.91-.1.91-.2.91-.2.91-.1.91-.2.91-.1.92-.2.91-.1.92-.1.91-.2.92-.1.92-.1.92-.2.92-.1.92-.1.92-.1.92-.1.93-.2.92-.1.92-.1.93-.1.93-.1.93-.1.92-.1.93-.1.93-.1h.93l.94-.1.93-.1.93-.1.94-.1h.93l.94-.1.94-.1h.93l.94-.1.94-.1h.94l.94-.1h.95l.94-.1h1.88l.95-.1h1.89l.95-.1h2.84l.95-.1h5.71zm-1.88 5.6h-4.67l-.93.1H4599.69l-.93.1h-1.86l-.92.1h-.92l-.93.1h-.92l-.92.1h-.93l-.92.1h-.91l-.92.1-.92.1h-.92l-.92.1-.91.1-.92.1h-.91l-.91.1-.92.1-.91.1-.91.1-.91.1-.91.1-.91.1-.91.1-.9.1-.91.1-.9.1-.91.1-.9.1-.9.2-.91.1-.89.1-.91.1-.89.2-.9.1-.9.1-.89.2-.9.1-.89.2-.9.1-.89.1-.89.2-.89.2-.89.1-.89.2-.89.1-.89.2-.88.2-.89.1-.88.2-.89.2-.88.2-.88.2-.88.1-.88.2-.88.2-.87.2-.88.2-.88.2-.87.2-.87.2-.87.2-.88.2-.86.2-.87.2-.87.3-.87.2-.87.2-.86.2-.86.3-.87.2-.86.2-.86.2-.86.3-.86.2-.86.3-.85.2-.86.3-.85.2-.86.3-.85.2-.85.3-.85.2-.85.3-.85.3-.84.2-.85.3-.84.3-.85.3-.84.2-.84.3-.84.3-.84.3-.84.3-.83.3-.84.2-.83.3-.83.3-.84.3-.83.3-.83.4-.82.3-.83.3-.83.3-.82.3-.82.3-.83.3-.82.4-.82.3-.82.3-.81.3-.82.4-.81.3-.82.3-.81.4-.81.3-.81.4-.81.3-.81.4-.8.3-.81.4-.8.3-.8.4-.8.3-.8.4-.8.4-.8.3-.79.4-.8.4-.79.4-.79.3-.79.4-.79.4-.79.4-.79.4-.78.4-.79.4-.78.3-.78.4-.78.4-.78.4-.77.4-.78.4-.77.5-.78.4-.77.4-.77.4-.77.4-.77.4-.76.4-.77.5-.76.4-.76.4-.76.4-.76.5-.76.4-.76.5-.75.4-.75.4-.75.5-.75.4-.75.5-.75.4-.75.5-.74.4-.74.5-.74.4-.74.5-.74.5-.74.4-.74.5-.73.5-.73.4-.73.5-.73.5-.73.5-.73.4-.72.5-.72.5-.73.5-.72.5-.72.5-.71.5-.72.5-.71.5-.72.5-.71.5-.71.5-.7.5-.71.5-.7.5-.71.5-.7.5-.7.5-.7.5-.69.6-.7.5-.69.5-.69.5-.69.6-.69.5-.69.5-.69.6-.68.5-.68.5-.68.6-.68.5-.68.6-.67.5-.68.5-.67.6-.67.5-.67.6-.67.6-.66.5-.66.6-.67.5-.66.6-.65.6-.66.5-.66.6-.65.6-.65.5-.65.6-.65.6-.65.6-.64.6-.65.5-.63.6-.64.6-.64.6-.64.6-.63.6-.63.6-.63.6-.63.6-.63.6-.62.6-.63.6-.62.6-.62.6-.62.6-.61.6-.62.6-.61.6-.61.6-.61.7-.61.6-.6.6-.61.6-.6.7-.6.6-.6.6-.59.6-.6.7-.59.6-.59.6-.59.7-.58.6-.59.7-.58.6-.58.7-.58.6-.58.6-.57.7-.58.6-.57.7-.56.7-.57.6-.57.7-.56.6-.56.7-.56.7-.56.6-.56.7-.55.7-.55.6-.55.7-.55.7-.54.6-.55.7-.54.7-.54.7-.54.7-.53.7-.54.6-.53.7-.53.7-.53.7-.52.7-.53.7-.52.7-.52.7-.52.7-.51.7-.52.7-.51.7-.51.7-.5.7-.51.7-.5.7-.5.7-.5.7-.5.8-.49.7-.5.7-.49.7-.49.7-.48.7-.49.8-.48.7-.48.7-.48.8-.47.7-.48.7-.47.7-.47.8-.46.7-.47.8-.46.7-.46.7-.46.8-.46.7-.45.8-.45.7-.45.8-.45.7-.45.8-.44.7-.44.8-.44.7-.44.8-.43.7-.43.8-.43.7-.43.8-.43.8-.42.7-.42.8-.42.8-.42.7-.41.8-.41.8-.41.8-.41.7-.4.8-.41.8-.4.8-.4.7-.39.8-.4.8-.39.8-.39.8-.38.8-.39.8-.38.7-.38.8-.38.8-.37.8-.38.8-.37.8-.36.8-.37.8-.36.8-.36.8-.36.8-.36.8-.35.8-.36.8-.34.8-.35.8-.35.9-.34.8-.34.8-.33.8-.34.8-.33.8-.33.8-.33.9-.32.8-.33.8-.32.8-.32.8-.31.9-.31.8-.31.8-.31.9-.31.8-.3.8-.3.8-.3.9-.29.8-.3.9-.29.8-.29.8-.28.9-.28.8-.29.8-.27.9-.28.8-.27.9-.27.8-.27.9-.27.8-.26.9-.26.8-.26.9-.25.8-.26.9-.25.8-.24.9-.25.8-.24.9-.24.9-.24.8-.23.9-.24.8-.23.9-.22.9-.23.8-.22.9-.22.9-.22.8-.21.9-.21.9-.21.9-.2.8-.21.9-.2.9-.2.9-.19.8-.2.9-.18.9-.19.9-.19.8-.18.9-.18.9-.17.9-.18.9-.17.9-.17.9-.16.8-.17.9-.16.9-.16.9-.15.9-.15.9-.15.9-.15.9-.15.9-.14.9-.14.9-.13.9-.13.9-.13.9-.13.9-.13.9-.12.9-.12.9-.12.9-.11.9-.11.9-.11.9-.1.9-.11.9-.09.9-.1.9-.1.9-.09 1-.08.9-.09.9-.08.9-.08.9-.08.9-.08.9-.07 1-.06.9-.07.9-.06.9-.06.9-.06 1-.05.9-.05.9-.05.9-.05.9-.04 1-.04.9-.04.9-.03 1-.03.9-.03.9-.03.9-.02 1-.02.9-.01.9-.02 1-.01.9v.9l-.01 1v1.8l.01 1v.9l.01.9.02 1 .01.9.02.9.02 1 .03.9.03.9.03.9.03 1 .04.9.04.9.04 1 .05.9.05.9.05.9.05.9.06 1 .06.9.06.9.07.9.06.9.07 1 .08.9.08.9.08.9.08.9.09.9.08 1 .09.9.1.9.1.9.09.9.11.9.1.9.11.9.11.9.11.9.12.9.12.9.12.9.13.9.13.9.13.9.13.9.13.9.14.9.14.9.15.9.15.9.15.9.15.9.15.9.16.9.16.9.17.9.16.8.17.9.17.9.18.9.17.9.18.9.18.9.19.8.19.9.18.9.2.9.19.8.2.9.2.9.21.9.2.8.21.9.21.9.21.9.22.8.22.9.22.9.23.8.22.9.23.9.24.8.23.9.24.8.24.9.24.9.25.8.24.9.25.8.26.9.25.8.26.9.26.8.26.9.27.8.27.9.27.8.27.9.28.8.27.9.29.8.28.8.28.9.29.8.29.8.3.9.29.8.3.9.3.8.3.8.31.8.31.9.31.8.31.8.31.9.32.8.32.8.33.8.32.8.33.9.33.8.33.8.34.8.33.8.34.8.34.8.35.9.35.8.34.8.36.8.35.8.36.8.36.8.36.8.36.8.37.8.36.8.37.8.38.8.37.8.38.8.38.8.38.7.39.8.38.8.39.8.39.8.4.8.39.8.4.7.4.8.41.8.4.8.41.7.41.8.41.8.41.8.42.7.42.8.42.8.42.7.43.8.43.8.43.7.43.8.43.7.44.8.44.7.44.8.44.7.45.8.45.7.45.8.45.7.45.8.46.7.46.8.46.7.46.7.47.8.46.7.47.8.47.7.48.7.47.8.48.7.48.7.48.7.49.8.48.7.49.7.49.7.5.7.49.7.5.8.5.7.5.7.5.7.51.7.5.7.51.7.51.7.52.7.51.7.52.7.52.7.52.7.53.7.52.7.53.7.53.7.53.7.54.6.53.7.54.7.54.7.54.7.55.7.54.6.55.7.55.7.55.6.55.7.56.7.56.6.56.7.56.7.56.6.57.7.56.6.57.7.57.7.58.6.57.7.58.6.58.7.58.6.58.6.59.7.58.6.59.7.59.6.59.6.6.7.59.6.6.6.6.6.6.7.61.6.6.6.61.6.61.7.61.6.61.6.61.6.62.6.62.6.62.6.62.6.62.6.63.6.63.6.63.6.63.6.63.6.63.6.64.6.64.6.64.6.63.6.65.5.64.6.65.6.65.6.65.6.65.5.65.6.66.6.66.5.65.6.66.6.67.5.66.6.66.5.67.6.67.6.67.5.67.6.68.5.67.5.68.6.68.5.68.6.68.5.68.5.69.6.69.5.68.5.7.6.69.5.69.5.7.5.69.6.7.5.7.5.7.5.71.5.7.5.71.5.7.5.71.5.71.5.72.5.71.5.72.5.71.5.72.5.72.5.73.5.72.5.72.5.73.4.73.5.73.5.73.5.73.4.73.5.74.5.74.4.74.5.74.5.74.4.74.5.74.4.75.5.75.4.75.5.75.4.75.5.75.4.75.4.76.5.76.4.76.4.76.5.76.4.76.4.77.5.76.4.77.4.77.4.77.4.77.4.77.4.78.5.78.4.77.4.78.4.78.4.78.4.78.3.79.4.78.4.79.4.79.4.79.4.79.4.79.3.79.4.8.4.79.4.8.3.8.4.8.4.8.3.8.4.8.3.81.4.8.3.81.4.81.3.81.4.81.3.81.4.82.3.81.3.82.4.81.3.82.3.82.3.83.4.82.3.82.3.82.3.83.3.83.3.82.3.83.4.83.3.84.3.83.3.83.3.84.2.83.3.84.3.84.3.84.3.84.3.84.2.85.3.84.3.85.3.84.2.85.3.85.3.85.2.85.3.85.2.86.3.85.2.86.3.85.2.86.3.86.2.86.3.86.2.86.2.87.2.86.3.86.2.87.2.87.2.87.3.87.2.86.2.88.2.87.2.87.2.88.2.87.2.88.2.87.2.88.2.88.2.88.1.88.2.88.2.89.2.88.2.89.1.88.2.89.2.89.1.89.2.89.1.89.2.89.2.89.1.9.1.89.2.9.1.89.2.9.1.9.1.9.2.9.1.89.1.91.1.9.2.9.1.91.1.9.1.91.1.9.1.91.1.91.1.91.1.91.1.91.1.91.1.91.1.92.1h.91l.92.1.92.1.91.1h.92l.92.1.92.1h.91l.93.1h.92l.92.1h.92l.93.1h.92l.92.1h1.86l.93.1H4602.47l.93.1H4614.6l.93-.1H4618.31l.93-.1h1.86l.92-.1h.92l.93-.1h.92l.92-.1h.92l.93-.1h.92l.91-.1.92-.1h.92l.92-.1.91-.1.92-.1h.91l.92-.1.91-.1.91-.1.91-.1.91-.1.91-.1.91-.1.91-.1.9-.1.91-.1.9-.1.91-.1.9-.1.9-.2.91-.1.9-.1.89-.1.9-.2.9-.1.9-.1.9-.2.89-.1.9-.2.89-.1.89-.1.89-.2.89-.2.89-.1.89-.2.89-.1.89-.2.88-.2.89-.1.88-.2.89-.2.88-.2.88-.2.88-.1.88-.2.87-.2.88-.2.88-.2.87-.2.88-.2.87-.2.87-.2.88-.2.86-.2.87-.2.87-.3.87-.2.87-.2.86-.2.86-.3.87-.2.86-.2.86-.2.86-.3.86-.2.86-.3.85-.2.86-.3.85-.2.86-.3.85-.2.85-.3.85-.2.85-.3.85-.3.84-.2.85-.3.84-.3.85-.3.84-.2.84-.3.84-.3.84-.3.84-.3.83-.3.84-.3.83-.2.83-.3.84-.3.83-.3.83-.4.82-.3.83-.3.83-.3.82-.3.82-.3.83-.3.82-.4.82-.3.82-.3.81-.3.82-.4.81-.3.82-.3.81-.4.81-.3.81-.4.81-.3.81-.4.8-.3.81-.4.8-.3.8-.4.8-.3.8-.4.8-.4.8-.3.8-.4.79-.4.79-.4.79-.3.79-.4.8-.4.78-.4.79-.4.78-.4.79-.4.78-.3.78-.4.78-.4.78-.4.78-.4.77-.4.78-.5.77-.4.77-.4.77-.4.77-.4.77-.4.76-.4.77-.5.76-.4.76-.4.76-.5.76-.4.76-.4.76-.5.75-.4.75-.4.75-.5.75-.4.75-.5.75-.4.75-.5.74-.4.74-.5.74-.4.75-.5.73-.5.74-.4.74-.5.73-.5.73-.4.73-.5.73-.5.73-.5.73-.4.72-.5.72-.5.73-.5.72-.5.72-.5.71-.5.72-.5.71-.5.72-.5.71-.5.71-.5.7-.5.71-.5.7-.5.71-.5.7-.5.7-.5.7-.5.69-.6.7-.5.69-.5.69-.5.7-.6.68-.5.69-.5.69-.6.68-.5.68-.5.68-.6.68-.5.68-.6.67-.5.68-.5.67-.6.67-.5.67-.6.67-.6.66-.5.66-.6.67-.5.66-.6.65-.6.66-.5.66-.6.65-.6.65-.5.65-.6.65-.6.65-.6.64-.6.64-.5.65-.6.63-.6.64-.6.64-.6.63-.6.63-.6.63-.6.63-.6.63-.6.63-.6.62-.6.62-.6.62-.6.62-.6.62-.6.61-.6.61-.6.61-.6.61-.7.61-.6.6-.6.61-.6.6-.7.6-.6.6-.6.59-.6.6-.7.59-.6.59-.6.59-.7.58-.6.59-.7.58-.6.58-.6.58-.7.58-.6.57-.7.58-.6.57-.7.57-.7.56-.6.57-.7.56-.6.56-.7.56-.7.56-.6.56-.7.55-.7.55-.6.55-.7.55-.7.54-.6.55-.7.54-.7.54-.7.54-.7.53-.7.54-.6.53-.7.53-.7.53-.7.52-.7.53-.7.52-.7.52-.7.52-.7.51-.7.51-.7.52-.7.51-.7.5-.7.51-.7.5-.7.5-.7.5-.7.5-.8.49-.7.5-.7.49-.7.49-.7.48-.7.49-.8.48-.7.48-.7.48-.7.47-.8.48-.7.47-.7.47-.8.46-.7.47-.8.46-.7.46-.7.46-.8.46-.7.45-.8.45-.7.45-.8.45-.7.45-.8.44-.7.44-.8.44-.7.44-.8.43-.7.43-.8.43-.7.43-.8.43-.8.42-.7.42-.8.42-.8.42-.7.41-.8.41-.8.41-.8.41-.7.4-.8.41-.8.4-.8.4-.7.39-.8.4-.8.39-.8.39-.8.38-.8.39-.8.38-.7.38-.8.38-.8.37-.8.38-.8.37-.8.36-.8.37-.8.36-.8.36-.8.36-.8.36-.8.35-.8.36-.8.34-.8.35-.8.35-.9.34-.8.34-.8.33-.8.34-.8.33-.8.33-.8.33-.9.32-.8.33-.8.32-.8.31-.8.32-.9.31-.8.31-.8.31-.9.31-.8.3-.8.3-.8.3-.9.3-.8.29-.9.29-.8.29-.8.28-.9.28-.8.29-.8.27-.9.28-.8.27-.9.27-.8.27-.9.27-.8.26-.9.26-.8.26-.9.25-.8.26-.9.25-.8.24-.9.25-.8.24-.9.24-.9.24-.8.23-.9.24-.8.23-.9.22-.9.23-.8.22-.9.22-.9.22-.8.21-.9.21-.9.21-.9.2-.8.21-.9.2-.9.2-.9.19-.8.2-.9.18-.9.19-.9.19-.8.18-.9.18-.9.18-.9.17-.9.17-.9.17-.9.16-.8.17-.9.16-.9.16-.9.15-.9.15-.9.15-.9.15-.9.15-.9.14-.9.14-.9.13-.9.13-.9.13-.9.13-.9.13-.9.12-.9.12-.9.11-.9.12-.9.11-.9.11-.9.1-.9.11-.9.09-.9.1-.9.1-.9.09-1 .09-.9.08-.9.08-.9.08-.9.08-.9.08-.9.07-1 .07-.9.06-.9.06-.9.06-.9.06-1 .05-.9.06-.9.04-.9.05-.9.04-1 .04-.9.04-.9.03-1 .03-.9.03-.9.03-.9.02-1 .02-.9.01-.9.02-1 .01-.9v-.9l.01-1v-1.8l-.01-1v-.9l-.01-.9-.02-1-.01-.9-.02-.9-.02-1-.03-.9-.03-.9-.03-.9-.03-1-.04-.9-.04-.9-.04-1-.05-.9-.04-.9-.06-.9-.05-.9-.06-1-.06-.9-.06-.9-.06-.9-.07-.9-.07-1-.08-.9-.08-.9-.08-.9-.08-.9-.08-.9-.09-.9-.09-1-.1-.9-.1-.9-.09-.9-.11-.9-.1-.9-.11-.9-.11-.9-.11-.9-.12-.9-.12-.9-.12-.9-.13-.9-.13-.9-.13-.9-.13-.9-.13-.9-.14-.9-.14-.9-.15-.9-.15-.9-.15-.9-.15-.9-.15-.9-.16-.9-.16-.9-.17-.9-.16-.8-.17-.9-.17-.9-.17-.9-.18-.9-.18-.9-.18-.9-.19-.8-.19-.9-.18-.9-.2-.9-.19-.8-.2-.9-.2-.9-.21-.9-.2-.8-.21-.9-.21-.9-.21-.9-.22-.8-.22-.9-.22-.9-.23-.8-.22-.9-.23-.9-.24-.8-.23-.9-.24-.8-.24-.9-.24-.9-.25-.8-.24-.9-.25-.8-.26-.9-.25-.8-.26-.9-.26-.8-.26-.9-.27-.8-.27-.9-.27-.8-.27-.9-.28-.8-.27-.9-.29-.8-.28-.8-.28-.9-.29-.8-.29-.8-.29-.9-.3-.8-.3-.9-.3-.8-.3-.8-.31-.8-.31-.9-.31-.8-.31-.8-.32-.9-.31-.8-.32-.8-.33-.8-.32-.8-.33-.9-.33-.8-.33-.8-.34-.8-.33-.8-.34-.8-.34-.8-.35-.9-.35-.8-.34-.8-.36-.8-.35-.8-.36-.8-.36-.8-.36-.8-.36-.8-.37-.8-.36-.8-.37-.8-.38-.8-.37-.8-.38-.8-.38-.8-.38-.7-.39-.8-.38-.8-.39-.8-.39-.8-.4-.8-.39-.8-.4-.7-.4-.8-.41-.8-.4-.8-.41-.7-.41-.8-.41-.8-.41-.8-.42-.7-.42-.8-.42-.8-.42-.7-.43-.8-.43-.8-.43-.7-.43-.8-.43-.7-.44-.8-.44-.7-.44-.8-.44-.7-.45-.8-.45-.7-.45-.8-.45-.7-.45-.8-.46-.7-.46-.8-.46-.7-.46-.7-.47-.8-.46-.7-.47-.8-.47-.7-.48-.7-.47-.7-.48-.8-.48-.7-.48-.7-.49-.8-.48-.7-.49-.7-.49-.7-.5-.7-.49-.7-.5-.8-.5-.7-.5-.7-.5-.7-.51-.7-.5-.7-.51-.7-.52-.7-.51-.7-.51-.7-.52-.7-.52-.7-.52-.7-.53-.7-.52-.7-.53-.7-.53-.7-.53-.7-.54-.6-.53-.7-.54-.7-.54-.7-.54-.7-.55-.7-.54-.6-.55-.7-.55-.7-.55-.6-.55-.7-.56-.7-.56-.6-.56-.7-.56-.7-.56-.6-.57-.7-.56-.6-.57-.7-.57-.7-.58-.6-.57-.7-.58-.6-.58-.7-.58-.6-.58-.6-.59-.7-.58-.6-.59-.7-.59-.6-.59-.6-.6-.7-.59-.6-.6-.6-.6-.6-.6-.7-.61-.6-.6-.6-.61-.6-.61-.7-.61-.6-.61-.6-.62-.6-.61-.6-.62-.6-.62-.6-.62-.6-.62-.6-.63-.6-.63-.6-.63-.6-.63-.6-.63-.6-.63-.6-.64-.6-.64-.6-.63-.6-.65-.6-.64-.5-.64-.6-.65-.6-.65-.6-.65-.6-.65-.5-.65-.6-.66-.6-.66-.5-.65-.6-.67-.6-.66-.5-.66-.6-.66-.5-.67-.6-.67-.6-.67-.5-.67-.6-.68-.5-.67-.5-.68-.6-.68-.5-.68-.6-.68-.5-.68-.5-.69-.6-.69-.5-.68-.5-.7-.6-.69-.5-.69-.5-.7-.5-.69-.6-.7-.5-.7-.5-.7-.5-.71-.5-.7-.5-.71-.5-.7-.5-.71-.5-.71-.5-.72-.5-.71-.5-.72-.5-.71-.5-.72-.5-.72-.5-.73-.5-.72-.5-.72-.5-.73-.4-.73-.5-.73-.5-.73-.5-.73-.4-.73-.5-.74-.5-.74-.4-.73-.5-.75-.5-.74-.4-.74-.5-.74-.4-.75-.5-.75-.4-.75-.5-.75-.4-.75-.5-.75-.4-.75-.4-.76-.5-.76-.4-.76-.5-.76-.4-.76-.4-.76-.4-.77-.5-.76-.4-.77-.4-.77-.4-.77-.4-.77-.4-.78-.4-.77-.5-.77-.4-.78-.4-.78-.4-.78-.4-.78-.4-.78-.3-.79-.4-.78-.4-.79-.4-.79-.4-.79-.4-.79-.4-.79-.3-.79-.4-.79-.4-.8-.4-.8-.3-.8-.4-.8-.4-.8-.3-.8-.4-.8-.3-.81-.4-.8-.3-.81-.4-.81-.3-.81-.4-.81-.3-.81-.4-.82-.3-.81-.3-.82-.4-.81-.3-.82-.3-.82-.3-.82-.4-.83-.3-.82-.3-.82-.3-.83-.3-.83-.3-.82-.3-.83-.4-.83-.3-.84-.3-.83-.3-.83-.3-.84-.2-.83-.3-.84-.3-.84-.3-.84-.3-.84-.3-.84-.2-.85-.3-.84-.3-.85-.3-.84-.2-.85-.3-.85-.3-.85-.2-.85-.3-.85-.2-.86-.3-.85-.2-.86-.3-.85-.2-.86-.3-.86-.2-.86-.3-.86-.2-.86-.2-.86-.2-.87-.3-.86-.2-.87-.2-.87-.2-.87-.3-.87-.2-.86-.2-.88-.2-.87-.2-.87-.2-.87-.2-.88-.2-.88-.2-.88-.2-.87-.2-.88-.2-.88-.1-.88-.2-.88-.2-.89-.2-.88-.2-.89-.1-.88-.2-.89-.2-.89-.1-.89-.2-.89-.1-.89-.2-.89-.2-.89-.1-.89-.1-.9-.2-.89-.1-.9-.2-.9-.1-.9-.1-.89-.2-.91-.1-.89-.1-.91-.1-.9-.2-.9-.1-.91-.1-.9-.1-.91-.1-.9-.1-.91-.1-.91-.1-.91-.1-.91-.1-.91-.1-.91-.1-.92-.1-.91-.1h-.91l-.92-.1-.91-.1-.92-.1h-.92l-.92-.1-.92-.1h-.91l-.92-.1h-.93l-.92-.1h-.92l-.93-.1h-.92l-.92-.1h-1.86l-.92-.1h-2.79l-.93-.1H4608.07z"/></g></g></g><path d="M2563.27 4632.95l-.01 370.57" fill="none" stroke="#000" stroke-width="25.75" stroke-linecap="square" stroke-miterlimit="2.566" transform="matrix(.70816 0 0 .68985 -1300.201 -2431.65)"/><path fill="#00d8ff" d="M726.41 64h468.304v958H726.41z"/><path d="M1196.1 56.129l1.35.36 1.27.585 1.14.799.98.984.8 1.15.59 1.256.36 1.354.13 1.383-.72 649.358-.26 308.644-.11 1.218-.32 1.188-.52 1.101-.7 1.004-.87.867-1 .701-1.11.507-1.18.321-1.21.107-221.59-.185-246.72-.146-1.16-.097-1.13-.302-.61-.293-.44-.204-.95-.663-.83-.828-.67-.954-.49-1.052-.3-1.13-.1-1.16.05-188.387-.08-145.799-.21-149.413-.64-294.081-.31-136.924L718.5 64l.12-1.373.35-1.335.58-1.247.79-1.13.98-.984 1.13-.789 1.25-.584 1.33-.36 1.38-.127 65.55-.069h198.75l49.24.916 66 1.588 87.46 1.617 1.31.02v-4.14l1.38.126zm-87.64 13.375l-63.61 1.578-47.28.916H805.49l-.06-.069h-71.1v-.01l-.05 49.74-.31 132.258-.64 284.662-.21 144.883-.08 141.444.05-.04v190.454h3.26l236.07-.146-.01-.185h215.29l-.01-.01-.26-311.908-.71-635.058-78.26 1.49z"/><path fill="#fff" d="M842.572 1009.032h240v25h-240z"/><g transform="matrix(.58127 0 0 .67444 -1651.611 -6276.621)"><path d="M4730.28 10403.6l-415.44 44.2-57.26 374.2 472.7 4v-422.4z" fill="none"/><clipPath id="b"><path d="M4730.28 10403.6l-415.44 44.2-57.26 374.2 472.7 4v-422.4z"/></clipPath><g clip-path="url(#b)"><g transform="matrix(1.49887 0 0 1.3261 -2183.8 -3507.65)"><circle cx="4609" cy="10808" r="292" fill="#fff"/><path d="M4609.95 10513.2H4613.76l.95.1h2.84l.95.1h1.89l.95.1h1.89l.93.1h.95l.94.1h.94l.94.1.94.1h.93l.94.1.94.1h.93l.93.1.94.1.93.1.94.1h.93l.93.1.93.1.93.1.92.1.93.1.93.1.92.1.92.1.93.2.92.1.92.1.92.1.92.1.92.2.92.1.92.1.91.2.92.1.91.1.92.2.91.1.91.2.91.1.91.2.91.2.91.1.91.2.9.1.91.2.9.2.9.2.91.1.9.2.9.2.9.2.89.2.9.2.9.2.89.2.9.2.89.2.89.2.9.2.89.2.88.2.89.2.89.2.88.2.89.3.88.2.89.2.88.3.88.2.88.2.87.3.88.2.88.3.87.2.88.3.87.2.87.3.87.2.87.3.87.2.87.3.86.3.87.2.86.3.87.3.86.3.86.3.86.2.86.3.85.3.86.3.85.3.86.3.85.3.85.3.85.3.85.3.85.3.84.3.85.3.84.4.84.3.85.3.84.3.83.3.84.4.84.3.83.3.84.4.83.3.83.4.83.3.83.4.83.3.82.3.83.4.82.4.82.3.83.4.81.3.82.4.82.4.82.3.81.4.81.4.82.4.81.4.81.3.8.4.81.4.8.4.81.4.8.4.8.4.8.4.8.4.8.4.79.4.8.4.79.4.79.4.79.4.79.5.79.4.78.4.78.4.79.4.78.5.78.4.78.4.77.5.78.4.77.5.78.4.77.4.77.5.77.4.76.5.77.5.76.4.76.5.76.4.76.5.76.5.76.4.75.5.75.5.76.4.75.5.74.5.75.5.75.5.74.4.74.5.75.5.74.5.73.5.74.5.73.5.74.5.73.5.73.5.73.5.72.5.73.5.72.5.72.6.72.5.72.5.72.5.71.5.72.6.71.5.71.5.71.6.7.5.71.5.7.6.71.5.7.5.7.6.69.5.7.6.69.5.69.6.69.5.69.6.69.6.68.5.69.6.68.5.68.6.68.6.68.6.67.5.67.6.67.6.68.6.66.5.67.6.66.6.67.6.66.6.66.6.65.6.66.5.65.6.65.6.65.6.65.6.65.7.64.6.65.6.64.6.64.6.63.6.64.6.63.6.64.6.62.7.63.6.63.6.62.6.63.7.62.6.62.6.61.7.62.6.61.6.61.7.61.6.61.7.61.6.6.7.6.6.6.7.6.6.6.7.59.6.59.7.59.6.59.7.58.6.59.7.58.7.58.6.58.7.58.7.57.7.57.6.57.7.57.7.57.7.56.7.57.6.56.7.55.7.56.7.56.7.55.7.55.7.55.7.54.7.55.7.54.7.54.7.54.7.53.7.54.7.53.7.53.7.52.7.53.7.52.7.52.8.52.7.52.7.52.7.51.7.51.8.51.7.5.7.51.8.5.7.5.7.5.7.49.8.5.7.49.8.49.7.49.7.48.8.48.7.48.8.48.7.48.8.47.7.48.8.46.7.47.8.47.8.46.7.46.8.46.7.46.8.45.8.45.7.45.8.45.8.44.7.45.8.44.8.43.8.44.7.43.8.44.8.43.8.42.8.43.7.42.8.42.8.41.8.42.8.41.8.41.8.41.8.41.8.4.8.4.8.4.8.4.8.39.8.4.8.38.8.39.8.39.8.38.8.38.8.38.8.37.8.37.8.37.8.37.9.37.8.36.8.36.8.36.8.36.9.35.8.35.8.35.8.35.9.34.8.34.8.34.9.34.8.33.8.33.9.33.8.33.8.32.9.32.8.32.9.32.8.31.9.31.8.31.9.31.8.3.8.3.9.3.9.3.8.29.9.29.8.29.9.29.8.28.9.28.8.28.9.28.9.27.8.27.9.27.9.26.8.26.9.27.9.25.8.26.9.25.9.25.9.25.8.24.9.24.9.24.9.24.8.23.9.24.9.22.9.23.9.22.8.22.9.22.9.22.9.21.9.21.9.21.9.2.9.2.9.2.9.2.8.19.9.19.9.19.9.19.9.18.9.18.9.18.9.17.9.17.9.17.9.17 1 .16.9.16.9.16.9.16.9.15.9.15.9.15.9.14.9.14.9.14 1 .13.9.14.9.13.9.13.9.12.9.12 1 .12.9.12.9.11.9.11 1 .11.9.1.9.1.9.1 1 .1.9.09.9.09.9.09 1 .08.9.08.9.08 1 .08.9.07.9.07 1 .07.9.06.9.06 1 .06.9.05 1 .06.9.05.9.04 1 .04.9.04 1 .04.9.04 1 .03.9.03 1 .02.9.03.9.02 1 .01.9.02 1 .01.9v1l.01.9v2l-.01.9v1l-.01.9-.02 1-.01.9-.02 1-.03.9-.02.9-.03 1-.03.9-.04 1-.04.9-.04 1-.04.9-.04 1-.05.9-.06.9-.05 1-.06.9-.06 1-.06.9-.07.9-.07 1-.07.9-.08.9-.08 1-.08.9-.08.9-.09 1-.09.9-.09.9-.1.9-.1 1-.1.9-.1.9-.11.9-.11 1-.11.9-.12.9-.12.9-.12 1-.12.9-.13.9-.13.9-.14.9-.13.9-.14 1-.14.9-.14.9-.15.9-.15.9-.15.9-.16.9-.16.9-.16.9-.16.9-.17 1-.17.9-.17.9-.17.9-.18.9-.18.9-.18.9-.19.9-.19.9-.19.9-.19.9-.2.8-.2.9-.2.9-.2.9-.21.9-.21.9-.21.9-.22.9-.22.9-.22.9-.22.8-.23.9-.22.9-.24.9-.23.9-.24.8-.24.9-.24.9-.24.9-.25.8-.25.9-.25.9-.26.9-.25.8-.27.9-.26.9-.26.8-.27.9-.27.9-.27.8-.28.9-.28.9-.28.8-.28.9-.29.8-.29.9-.29.8-.29.9-.3.8-.3.9-.3.9-.3.8-.31.8-.31.9-.31.8-.31.9-.32.8-.32.9-.32.8-.32.9-.33.8-.33.8-.33.9-.33.8-.34.8-.34.9-.34.8-.34.8-.35.9-.35.8-.35.8-.35.8-.36.9-.36.8-.36.8-.36.8-.37.8-.37.8-.37.9-.37.8-.37.8-.38.8-.38.8-.38.8-.39.8-.39.8-.38.8-.4.8-.39.8-.4.8-.4.8-.4.8-.4.8-.41.8-.41.8-.41.8-.41.8-.41.8-.42.8-.42.8-.42.8-.43.7-.42.8-.44.8-.43.8-.43.8-.44.7-.43.8-.44.8-.45.8-.44.7-.45.8-.45.8-.45.7-.45.8-.46.8-.46.7-.46.8-.46.7-.47.8-.46.8-.47.7-.48.8-.47.7-.48.8-.48.7-.48.8-.48.7-.48.8-.49.7-.49.7-.49.8-.5.7-.49.7-.5.8-.5.7-.5.7-.51.8-.5.7-.51.7-.51.8-.51.7-.52.7-.52.7-.52.7-.52.8-.52.7-.53.7-.52.7-.53.7-.54.7-.53.7-.53.7-.54.7-.54.7-.54.7-.55.7-.54.7-.55.7-.55.7-.55.7-.56.7-.56.7-.55.7-.56.7-.57.6-.56.7-.57.7-.57.7-.57.7-.57.6-.57.7-.58.7-.58.7-.58.6-.58.7-.59.7-.58.6-.59.7-.59.6-.59.7-.6.6-.59.7-.6.7-.6.6-.6.6-.6.7-.61.6-.61.7-.61.6-.61.7-.61.6-.62.6-.61.7-.62.6-.62.6-.63.7-.62.6-.63.6-.63.6-.62.7-.64.6-.63.6-.64.6-.63.6-.64.6-.64.6-.65.6-.64.6-.65.7-.65.6-.64.6-.66.6-.65.5-.66.6-.65.6-.66.6-.66.6-.67.6-.66.6-.67.6-.67.5-.67.6-.67.6-.67.6-.67.5-.68.6-.68.6-.68.6-.68.5-.68.6-.69.5-.69.6-.69.6-.69.5-.69.6-.69.5-.7.6-.69.5-.7.6-.7.5-.71.5-.7.6-.7.5-.71.5-.71.6-.71.5-.71.5-.72.6-.71.5-.72.5-.72.5-.72.5-.72.6-.72.5-.73.5-.72.5-.73.5-.73.5-.73.5-.74.5-.73.5-.74.5-.73.5-.75.5-.74.5-.74.5-.74.4-.75.5-.75.5-.74.5-.75.5-.76.4-.75.5-.75.5-.76.4-.76.5-.76.5-.76.4-.76.5-.76.4-.77.5-.76.5-.77.4-.77.5-.77.4-.78.4-.77.5-.78.4-.77.5-.78.4-.78.4-.78.4-.78.5-.79.4-.78.4-.79.4-.79.5-.79.4-.79.4-.79.4-.8.4-.79.4-.8.4-.8.4-.8.4-.8.4-.8.4-.81.4-.8.4-.8.4-.81.4-.81.3-.81.4-.82.4-.81.4-.81.4-.82.3-.82.4-.81.4-.82.3-.83.4-.82.3-.82.4-.83.3-.82.4-.83.4-.83.3-.83.3-.83.4-.83.3-.84.4-.83.3-.84.3-.83.4-.84.3-.84.3-.85.3-.84.3-.84.4-.85.3-.85.3-.84.3-.85.3-.85.3-.85.3-.85.3-.86.3-.85.3-.86.3-.85.3-.86.3-.86.2-.86.3-.86.3-.86.3-.87.3-.87.2-.86.3-.87.3-.87.2-.87.3-.87.2-.87.3-.87.2-.88.3-.87.2-.88.3-.87.2-.88.3-.88.2-.88.2-.88.3-.89.2-.88.2-.89.3-.88.2-.89.2-.89.2-.89.2-.89.2-.89.2-.89.2-.89.2-.9.2-.89.2-.9.2-.9.2-.89.2-.9.2-.9.2-.9.2-.91.1-.9.2-.9.2-.91.2-.9.1-.91.2-.91.1-.91.2-.91.2-.91.1-.91.2-.91.1-.92.2-.91.1-.92.1-.91.2-.92.1-.92.1-.92.2-.92.1-.92.1-.92.1-.92.1-.93.2-.92.1-.92.1-.93.1-.93.1-.92.1-.93.1-.93.1-.93.1h-.94l-.93.1-.93.1-.93.1-.94.1h-.93l-.94.1-.94.1h-.93l-.94.1-.94.1h-.94l-.94.1h-.95l-.93.1h-1.89l-.95.1h-1.89l-.95.1h-2.84l-.95.1h-9.52l-.95-.1h-2.84l-.95-.1h-1.89l-.95-.1h-1.88l-.94-.1h-.95l-.94-.1h-.94l-.94-.1-.94-.1h-.93l-.94-.1-.94-.1h-.93l-.94-.1-.93-.1-.93-.1-.93-.1h-.94l-.93-.1-.93-.1-.92-.1-.93-.1-.93-.1-.93-.1-.92-.1-.92-.1-.93-.2-.92-.1-.92-.1-.92-.1-.92-.1-.92-.2-.92-.1-.92-.1-.91-.2-.92-.1-.91-.1-.92-.2-.91-.1-.91-.2-.91-.1-.91-.2-.91-.2-.91-.1-.91-.2-.9-.1-.91-.2-.9-.2-.9-.2-.91-.1-.9-.2-.9-.2-.9-.2-.89-.2-.9-.2-.9-.2-.89-.2-.9-.2-.89-.2-.89-.2-.89-.2-.89-.2-.89-.2-.89-.2-.89-.2-.88-.2-.89-.3-.88-.2-.89-.2-.88-.3-.88-.2-.88-.2-.88-.3-.87-.2-.88-.3-.87-.2-.88-.3-.87-.2-.87-.3-.87-.2-.87-.3-.87-.2-.87-.3-.86-.3-.87-.2-.87-.3-.86-.3-.86-.3-.86-.3-.86-.2-.86-.3-.85-.3-.86-.3-.85-.3-.86-.3-.85-.3-.85-.3-.85-.3-.85-.3-.84-.3-.85-.3-.85-.3-.84-.4-.84-.3-.85-.3-.84-.3-.84-.3-.83-.4-.84-.3-.83-.3-.84-.4-.83-.3-.83-.4-.83-.3-.83-.3-.83-.4-.82-.4-.83-.3-.82-.4-.82-.3-.83-.4-.82-.3-.81-.4-.82-.4-.82-.3-.81-.4-.81-.4-.82-.4-.81-.4-.81-.3-.81-.4-.8-.4-.8-.4-.81-.4-.8-.4-.8-.4-.8-.4-.8-.4-.8-.4-.79-.4-.8-.4-.79-.4-.79-.4-.79-.4-.79-.5-.79-.4-.78-.4-.79-.4-.78-.5-.78-.4-.78-.4-.78-.4-.77-.5-.78-.4-.77-.5-.78-.4-.77-.4-.77-.5-.77-.4-.76-.5-.77-.5-.76-.4-.76-.5-.76-.4-.76-.5-.76-.5-.76-.4-.75-.5-.75-.5-.76-.4-.75-.5-.74-.5-.75-.5-.75-.5-.74-.4-.74-.5-.74-.5-.75-.5-.73-.5-.74-.5-.73-.5-.73-.5-.74-.5-.73-.5-.73-.5-.72-.5-.73-.5-.72-.5-.72-.6-.72-.5-.72-.5-.72-.5-.71-.5-.72-.6-.71-.5-.71-.5-.71-.6-.71-.5-.7-.5-.7-.6-.71-.5-.7-.5-.7-.6-.69-.5-.7-.6-.69-.5-.69-.6-.69-.5-.69-.6-.69-.6-.69-.5-.68-.6-.68-.5-.68-.6-.68-.6-.68-.6-.67-.5-.67-.6-.67-.6-.67-.6-.67-.5-.67-.6-.66-.6-.67-.6-.66-.6-.66-.6-.65-.6-.66-.6-.65-.5-.66-.6-.64-.6-.65-.6-.65-.7-.64-.6-.65-.6-.64-.6-.64-.6-.63-.6-.64-.6-.63-.6-.64-.6-.62-.7-.63-.6-.63-.6-.62-.6-.63-.7-.62-.6-.62-.6-.61-.7-.62-.6-.61-.6-.61-.7-.61-.6-.61-.7-.61-.6-.6-.7-.6-.6-.6-.6-.6-.7-.59-.7-.6-.6-.59-.7-.59-.6-.59-.7-.58-.7-.59-.6-.58-.7-.58-.6-.58-.7-.58-.7-.57-.7-.57-.6-.57-.7-.57-.7-.57-.7-.56-.7-.57-.6-.55-.7-.56-.7-.56-.7-.55-.7-.56-.7-.55-.7-.55-.7-.54-.7-.55-.7-.54-.7-.54-.7-.54-.7-.53-.7-.53-.7-.54-.7-.53-.7-.53-.7-.52-.7-.52-.7-.52-.8-.52-.7-.52-.7-.52-.7-.51-.7-.51-.8-.51-.7-.5-.7-.51-.8-.5-.7-.5-.7-.5-.8-.49-.7-.5-.7-.49-.8-.49-.7-.49-.7-.48-.8-.48-.7-.48-.8-.48-.7-.48-.8-.47-.7-.48-.8-.46-.7-.47-.8-.47-.8-.46-.7-.46-.8-.46-.7-.46-.8-.45-.8-.45-.7-.45-.8-.45-.8-.44-.7-.45-.8-.44-.8-.43-.8-.44-.7-.43-.8-.43-.8-.44-.8-.42-.8-.43-.7-.42-.8-.42-.8-.42-.8-.41-.8-.41-.8-.41-.8-.41-.8-.41-.8-.4-.8-.4-.8-.4-.8-.4-.8-.39-.8-.39-.8-.39-.8-.39-.8-.39-.8-.38-.8-.38-.8-.38-.8-.37-.8-.37-.8-.37-.9-.37-.8-.37-.8-.36-.8-.36-.8-.36-.8-.36-.9-.35-.8-.35-.8-.35-.8-.35-.9-.34-.8-.34-.8-.34-.9-.34-.8-.33-.8-.33-.9-.33-.8-.33-.8-.32-.9-.32-.8-.32-.9-.32-.8-.31-.9-.31-.8-.31-.9-.31-.8-.3-.8-.3-.9-.3-.9-.3-.8-.29-.9-.29-.8-.29-.9-.29-.8-.28-.9-.28-.8-.28-.9-.28-.9-.27-.8-.27-.9-.27-.9-.26-.8-.26-.9-.26-.9-.26-.8-.26-.9-.25-.9-.25-.9-.25-.8-.24-.9-.24-.9-.24-.9-.24-.8-.23-.9-.23-.9-.23-.9-.23-.9-.22-.8-.22-.9-.22-.9-.22-.9-.21-.9-.21-.9-.21-.9-.2-.9-.2-.9-.2-.9-.2-.8-.19-.9-.19-.9-.19-.9-.19-.9-.18-.9-.18-.9-.18-.9-.17-.9-.17-.9-.17-.9-.17-1-.16-.9-.16-.9-.16-.9-.16-.9-.15-.9-.15-.9-.15-.9-.14-.9-.14-.9-.14-1-.13-.9-.14-.9-.13-.9-.13-.9-.12-.9-.12-1-.12-.9-.12-.9-.11-.9-.11-1-.11-.9-.1-.9-.1-.9-.1-1-.1-.9-.09-.9-.09-.9-.09-1-.08-.9-.08-.9-.08-1-.08-.9-.07-.9-.07-1-.07-.9-.06-.9-.06-1-.06-.9-.05-1-.06-.9-.05-.9-.04-1-.04-.9-.05-1-.03-.9-.04-1-.03-.9-.03-1-.02-.9-.03-.9-.01-1-.02-.9-.02-1-.01-.9v-1l-.01-.9v-2l.01-.9v-1l.01-.9.02-1 .02-.9.01-1 .03-.9.02-.9.03-1 .03-.9.04-1 .03-.9.05-1 .04-.9.04-1 .05-.9.06-.9.05-1 .06-.9.06-1 .06-.9.07-.9.07-1 .07-.9.08-.9.08-1 .08-.9.08-.9.09-1 .09-.9.09-.9.1-.9.1-1 .1-.9.1-.9.11-.9.11-1 .11-.9.12-.9.12-.9.12-1 .12-.9.13-.9.13-.9.14-.9.13-.9.14-1 .14-.9.14-.9.15-.9.15-.9.15-.9.16-.9.16-.9.16-.9.16-.9.17-1 .17-.9.17-.9.17-.9.18-.9.18-.9.18-.9.19-.9.19-.9.19-.9.19-.9.2-.8.2-.9.2-.9.2-.9.21-.9.21-.9.21-.9.22-.9.22-.9.22-.9.22-.8.23-.9.23-.9.23-.9.23-.9.24-.8.24-.9.24-.9.24-.9.25-.8.25-.9.25-.9.26-.9.26-.8.26-.9.26-.9.26-.8.27-.9.27-.9.28-.8.27-.9.28-.9.28-.8.28-.9.29-.8.29-.9.29-.8.29-.9.3-.8.3-.9.3-.9.3-.8.31-.8.31-.9.31-.8.31-.9.32-.8.32-.9.32-.8.32-.9.33-.8.33-.8.33-.9.34-.8.33-.8.34-.9.34-.8.34-.8.35-.9.35-.8.35-.8.35-.8.36-.9.36-.8.36-.8.36-.8.37-.8.37-.8.37-.9.37-.8.37-.8.38-.8.38-.8.38-.8.39-.8.39-.8.39-.8.39-.8.39-.8.4-.8.4-.8.4-.8.4-.8.41-.8.41-.8.41-.8.41-.8.42-.8.41-.8.42-.8.42-.8.43-.7.42-.8.43-.8.44-.8.43-.8.44-.7.43-.8.44-.8.45-.8.44-.7.45-.8.45-.8.45-.7.45-.8.46-.8.46-.7.46-.8.46-.7.47-.8.47-.8.46-.7.48-.8.47-.7.48-.8.48-.7.48-.8.48-.7.48-.8.49-.7.49-.7.49-.8.5-.7.49-.8.5-.7.5-.7.5-.7.51-.8.5-.7.51-.7.51-.8.51-.7.52-.7.52-.7.52-.7.52-.8.52-.7.52-.7.53-.7.53-.7.53-.7.54-.7.53-.7.54-.7.54-.7.54-.7.55-.7.54-.7.55-.7.55-.7.56-.7.55-.7.56-.7.56-.7.55-.7.57-.6.56-.7.57-.7.57-.7.57-.7.57-.6.57-.7.58-.7.58-.7.58-.6.58-.7.58-.6.59-.7.59-.7.59-.6.59-.7.59-.6.6-.7.6-.6.6-.7.6-.6.6-.7.61-.6.61-.7.61-.6.61-.7.61-.6.62-.6.61-.7.62-.6.62-.6.63-.7.62-.6.63-.6.62-.6.64-.7.63-.6.63-.6.64-.6.63-.6.64-.6.64-.6.65-.6.64-.6.65-.7.65-.6.65-.6.65-.6.65-.6.66-.5.65-.6.66-.6.66-.6.67-.6.66-.6.67-.6.66-.5.68-.6.67-.6.67-.6.67-.5.68-.6.68-.6.68-.6.68-.5.69-.6.68-.5.69-.6.69-.6.69-.5.69-.6.69-.5.7-.6.69-.5.7-.6.7-.5.71-.5.7-.6.71-.5.7-.5.71-.6.71-.5.71-.5.72-.6.71-.5.72-.5.72-.5.72-.5.72-.6.72-.5.73-.5.72-.5.73-.5.73-.5.73-.5.74-.5.73-.5.74-.5.73-.5.74-.5.75-.5.74-.5.74-.4.75-.5.75-.5.74-.5.75-.5.76-.4.75-.5.75-.5.76-.4.76-.5.76-.5.76-.4.76-.5.76-.4.77-.5.76-.5.77-.4.77-.5.77-.4.78-.4.77-.5.78-.4.77-.5.78-.4.78-.4.78-.5.79-.4.78-.4.78-.4.79-.4.79-.5.79-.4.79-.4.79-.4.8-.4.79-.4.8-.4.8-.4.8-.4.8-.4.8-.4.81-.4.8-.4.81-.4.8-.4.81-.3.81-.4.82-.4.81-.4.81-.4.82-.3.82-.4.81-.4.82-.3.83-.4.82-.3.82-.4.83-.4.82-.3.83-.3.83-.4.83-.3.83-.4.83-.3.84-.4.83-.3.84-.3.84-.4.83-.3.84-.3.85-.3.84-.3.84-.4.85-.3.84-.3.85-.3.85-.3.85-.3.85-.3.85-.3.86-.3.85-.3.86-.3.85-.3.86-.3.86-.2.86-.3.86-.3.87-.3.86-.3.87-.2.86-.3.87-.3.87-.2.87-.3.87-.2.87-.3.87-.2.88-.3.87-.2.88-.3.88-.2.87-.3.88-.2.88-.2.88-.3.89-.2.88-.2.89-.3.88-.2.89-.2.89-.2.89-.2.88-.2.9-.2.89-.2.89-.2.9-.2.89-.2.9-.2.9-.2.89-.2.9-.2.9-.2.9-.2.91-.1.9-.2.9-.2.91-.2.9-.1.91-.2.91-.1.91-.2.91-.2.91-.1.91-.2.91-.1.92-.2.91-.1.92-.1.91-.2.92-.1.92-.1.92-.2.92-.1.92-.1.92-.1.92-.1.93-.2.92-.1.92-.1.93-.1.93-.1.93-.1.92-.1.93-.1.93-.1h.93l.94-.1.93-.1.93-.1.94-.1h.93l.94-.1.94-.1h.93l.94-.1.94-.1h.94l.94-.1h.95l.94-.1h1.88l.95-.1h1.89l.95-.1h2.84l.95-.1h5.71zm-1.88 5.6h-4.67l-.93.1H4599.69l-.93.1h-1.86l-.92.1h-.92l-.93.1h-.92l-.92.1h-.93l-.92.1h-.91l-.92.1-.92.1h-.92l-.92.1-.91.1-.92.1h-.91l-.91.1-.92.1-.91.1-.91.1-.91.1-.91.1-.91.1-.91.1-.9.1-.91.1-.9.1-.91.1-.9.1-.9.2-.91.1-.89.1-.91.1-.89.2-.9.1-.9.1-.89.2-.9.1-.89.2-.9.1-.89.1-.89.2-.89.2-.89.1-.89.2-.89.1-.89.2-.88.2-.89.1-.88.2-.89.2-.88.2-.88.2-.88.1-.88.2-.88.2-.87.2-.88.2-.88.2-.87.2-.87.2-.87.2-.88.2-.86.2-.87.2-.87.3-.87.2-.87.2-.86.2-.86.3-.87.2-.86.2-.86.2-.86.3-.86.2-.86.3-.85.2-.86.3-.85.2-.86.3-.85.2-.85.3-.85.2-.85.3-.85.3-.84.2-.85.3-.84.3-.85.3-.84.2-.84.3-.84.3-.84.3-.84.3-.83.3-.84.2-.83.3-.83.3-.84.3-.83.3-.83.4-.82.3-.83.3-.83.3-.82.3-.82.3-.83.3-.82.4-.82.3-.82.3-.81.3-.82.4-.81.3-.82.3-.81.4-.81.3-.81.4-.81.3-.81.4-.8.3-.81.4-.8.3-.8.4-.8.3-.8.4-.8.4-.8.3-.79.4-.8.4-.79.4-.79.3-.79.4-.79.4-.79.4-.79.4-.78.4-.79.4-.78.3-.78.4-.78.4-.78.4-.77.4-.78.4-.77.5-.78.4-.77.4-.77.4-.77.4-.77.4-.76.4-.77.5-.76.4-.76.4-.76.4-.76.5-.76.4-.76.5-.75.4-.75.4-.75.5-.75.4-.75.5-.75.4-.75.5-.74.4-.74.5-.74.4-.74.5-.74.5-.74.4-.73.5-.74.5-.73.4-.73.5-.73.5-.73.5-.73.4-.72.5-.72.5-.73.5-.72.5-.72.5-.71.5-.72.5-.71.5-.72.5-.71.5-.71.5-.7.5-.71.5-.7.5-.71.5-.7.5-.7.5-.7.5-.69.6-.7.5-.69.5-.69.5-.69.6-.69.5-.69.5-.69.6-.68.5-.68.5-.68.6-.68.5-.68.6-.67.5-.68.5-.67.6-.67.5-.67.6-.67.6-.66.5-.66.6-.66.5-.67.6-.65.6-.66.5-.66.6-.65.6-.65.5-.65.6-.65.6-.65.6-.64.6-.64.5-.64.6-.64.6-.64.6-.64.6-.63.6-.63.6-.63.6-.63.6-.63.6-.62.6-.63.6-.62.6-.62.6-.62.6-.61.6-.62.6-.61.6-.61.6-.61.7-.61.6-.6.6-.61.6-.6.7-.6.6-.6.6-.59.6-.6.7-.59.6-.59.6-.59.7-.58.6-.59.7-.58.6-.58.6-.58.7-.58.6-.57.7-.58.6-.57.7-.56.7-.57.6-.57.7-.56.6-.56.7-.56.7-.56.6-.56.7-.55.7-.55.6-.55.7-.55.7-.55.6-.54.7-.54.7-.54.7-.54.7-.53.7-.54.6-.53.7-.53.7-.53.7-.52.7-.53.7-.52.7-.52.7-.52.7-.51.7-.52.7-.51.7-.51.7-.5.7-.51.7-.5.7-.5.7-.5.7-.5.8-.49.7-.5.7-.49.7-.49.7-.48.7-.49.8-.48.7-.48.7-.48.8-.47.7-.48.7-.47.7-.47.8-.46.7-.47.8-.46.7-.46.7-.46.8-.46.7-.45.8-.45.7-.45.8-.45.7-.45.8-.44.7-.44.8-.44.7-.44.8-.43.7-.43.8-.43.7-.43.8-.43.8-.42.7-.42.8-.42.8-.42.7-.41.8-.41.8-.41.8-.41.7-.4.8-.41.8-.4.8-.4.7-.39.8-.4.8-.39.8-.39.8-.38.8-.39.8-.38.7-.38.8-.38.8-.37.8-.38.8-.37.8-.36.8-.37.8-.36.8-.36.8-.36.8-.36.8-.35.8-.36.8-.34.8-.35.8-.35.9-.34.8-.34.8-.33.8-.34.8-.33.8-.33.8-.33.9-.32.8-.33.8-.32.8-.32.8-.31.9-.31.8-.31.8-.31.9-.31.8-.3.8-.3.8-.3.9-.29.8-.3.9-.29.8-.29.8-.28.9-.28.8-.29.8-.27.9-.28.8-.27.9-.27.8-.27.9-.27.8-.26.9-.26.8-.26.9-.25.8-.26.9-.25.8-.24.9-.25.8-.24.9-.24.9-.24.8-.23.9-.24.8-.23.9-.22.9-.23.8-.22.9-.22.9-.22.8-.21.9-.21.9-.21.9-.2.8-.21.9-.2.9-.2.9-.19.8-.2.9-.18.9-.19.9-.19.8-.18.9-.18.9-.18.9-.17.9-.17.9-.17.9-.16.8-.17.9-.16.9-.16.9-.15.9-.15.9-.15.9-.15.9-.15.9-.14.9-.14.9-.13.9-.13.9-.13.9-.13.9-.13.9-.12.9-.12.9-.12.9-.11.9-.11.9-.11.9-.1.9-.11.9-.09.9-.1.9-.1.9-.09 1-.09.9-.08.9-.08.9-.08.9-.08.9-.08.9-.07 1-.06.9-.07.9-.06.9-.06.9-.06 1-.05.9-.06.9-.04.9-.05.9-.04 1-.04.9-.04.9-.03 1-.03.9-.03.9-.03.9-.02 1-.02.9-.01.9-.02 1-.01.9v.9l-.01 1v1.8l.01 1v.9l.01.9.02 1 .01.9.02.9.02 1 .03.9.03.9.03.9.03 1 .04.9.04.9.04 1 .05.9.04.9.06.9.05.9.06 1 .06.9.06.9.07.9.06.9.07 1 .08.9.08.9.08.9.08.9.08.9.09.9.09 1 .1.9.1.9.09.9.11.9.1.9.11.9.11.9.11.9.12.9.12.9.12.9.13.9.13.9.13.9.13.9.13.9.14.9.14.9.15.9.15.9.15.9.15.9.15.9.16.9.16.9.17.9.16.8.17.9.17.9.17.9.18.9.18.9.18.9.19.8.19.9.18.9.2.9.19.8.2.9.2.9.21.9.2.8.21.9.21.9.21.9.22.8.22.9.22.9.23.8.22.9.23.9.24.8.23.9.24.8.24.9.24.9.25.8.24.9.25.8.26.9.25.8.26.9.26.8.26.9.27.8.27.9.27.8.27.9.28.8.27.9.29.8.28.8.28.9.29.8.29.8.3.9.29.8.3.9.3.8.3.8.31.8.31.9.31.8.31.8.32.9.31.8.32.8.33.8.32.8.33.9.33.8.33.8.34.8.33.8.34.8.34.8.35.9.35.8.34.8.36.8.35.8.36.8.36.8.36.8.36.8.37.8.36.8.37.8.38.8.37.8.38.8.38.8.38.7.39.8.38.8.39.8.39.8.4.8.39.8.4.7.4.8.41.8.4.8.41.7.41.8.41.8.41.8.42.7.42.8.42.8.42.7.43.8.43.8.43.7.43.8.43.7.44.8.44.7.44.8.44.7.45.8.45.7.45.8.45.7.45.8.46.7.46.8.46.7.46.7.47.8.46.7.47.8.47.7.48.7.47.8.48.7.48.7.48.7.49.8.48.7.49.7.49.7.5.7.49.7.5.8.5.7.5.7.5.7.51.7.5.7.51.7.51.7.52.7.51.7.52.7.52.7.52.7.53.7.52.7.53.7.53.7.53.7.54.6.53.7.54.7.54.7.54.7.54.7.55.6.55.7.55.7.55.6.55.7.56.7.56.6.56.7.56.7.56.6.57.7.56.6.57.7.57.7.58.6.57.7.58.6.58.7.58.6.58.6.59.7.58.6.59.7.59.6.59.6.6.7.59.6.6.6.6.6.6.7.61.6.6.6.61.6.61.7.61.6.61.6.61.6.62.6.62.6.62.6.62.6.62.6.63.6.63.6.63.6.63.6.63.6.63.6.64.6.64.6.64.6.64.6.64.5.64.6.65.6.65.6.65.6.65.5.65.6.66.6.66.5.65.6.66.6.67.5.66.6.66.5.67.6.67.6.67.5.67.6.68.5.67.5.68.6.68.5.68.6.68.5.68.5.69.6.69.5.69.5.69.6.69.5.69.5.7.5.69.6.7.5.7.5.7.5.71.5.7.5.71.5.7.5.71.5.71.5.72.5.71.5.72.5.71.5.72.5.72.5.73.5.72.5.72.5.73.4.73.5.73.5.73.5.73.4.74.5.73.5.74.4.74.5.74.5.74.4.74.5.74.4.75.5.75.4.75.5.75.4.75.5.75.4.75.4.76.5.76.4.76.4.76.5.76.4.76.4.77.5.76.4.77.4.77.4.77.4.77.4.77.4.78.5.78.4.77.4.78.4.78.4.78.4.78.3.79.4.78.4.79.4.79.4.79.4.79.4.79.3.79.4.8.4.79.4.8.3.8.4.8.4.8.3.8.4.8.3.81.4.8.3.81.4.81.3.81.4.81.3.81.4.82.3.81.3.82.4.81.3.82.3.82.3.82.4.83.3.82.3.82.3.83.3.83.3.82.3.83.4.83.3.84.3.83.3.83.2.84.3.83.3.84.3.84.3.84.3.84.3.84.2.85.3.84.3.85.3.84.2.85.3.85.3.85.2.85.3.85.2.86.3.85.2.86.3.85.2.86.3.86.2.86.3.86.2.86.2.87.2.86.3.86.2.87.2.87.2.87.3.87.2.86.2.88.2.87.2.87.2.88.2.87.2.88.2.87.2.88.2.88.2.88.1.88.2.88.2.89.2.88.2.89.1.88.2.89.2.89.1.89.2.89.1.89.2.89.2.89.1.9.1.89.2.9.1.89.2.9.1.9.1.9.2.9.1.89.1.91.1.9.2.9.1.91.1.9.1.91.1.9.1.91.1.91.1.91.1.91.1.91.1.91.1.91.1.92.1h.91l.92.1.92.1.91.1h.92l.92.1.92.1h.91l.93.1h.92l.92.1h.92l.93.1h.92l.92.1h1.86l.93.1H4602.47l.93.1H4614.6l.93-.1H4618.31l.93-.1h1.86l.92-.1h.92l.93-.1h.92l.92-.1h.92l.93-.1h.92l.91-.1.92-.1h.92l.92-.1.91-.1.92-.1h.91l.92-.1.91-.1.91-.1.91-.1.91-.1.91-.1.91-.1.91-.1.9-.1.91-.1.9-.1.91-.1.9-.1.9-.2.91-.1.89-.1.9-.1.9-.2.9-.1.9-.1.9-.2.89-.1.9-.2.89-.1.89-.1.89-.2.89-.2.89-.1.89-.2.89-.1.89-.2.88-.2.89-.1.88-.2.89-.2.88-.2.88-.2.88-.1.88-.2.88-.2.87-.2.88-.2.87-.2.88-.2.87-.2.87-.2.88-.2.86-.2.88-.2.86-.3.87-.2.87-.2.86-.2.86-.3.87-.2.86-.2.86-.2.86-.3.86-.2.86-.3.85-.2.86-.3.85-.2.86-.3.85-.2.85-.3.85-.2.85-.3.85-.3.84-.2.85-.3.84-.3.85-.3.84-.2.84-.3.84-.3.84-.3.84-.3.83-.3.84-.3.83-.2.83-.3.84-.3.83-.3.83-.4.82-.3.83-.3.83-.3.82-.3.82-.3.82-.3.83-.4.82-.3.82-.3.81-.3.82-.4.81-.3.82-.3.81-.4.81-.3.81-.4.81-.3.81-.4.8-.3.81-.4.8-.3.8-.4.8-.3.8-.4.8-.4.8-.3.79-.4.8-.4.79-.4.79-.3.79-.4.8-.4.78-.4.79-.4.78-.4.79-.4.78-.3.78-.4.78-.4.78-.4.78-.4.77-.4.78-.5.77-.4.77-.4.77-.4.77-.4.77-.4.76-.4.77-.5.76-.4.76-.4.76-.5.76-.4.76-.4.76-.5.75-.4.75-.4.75-.5.75-.4.75-.5.75-.4.75-.5.74-.4.74-.5.74-.4.74-.5.74-.5.74-.4.74-.5.73-.5.73-.4.73-.5.73-.5.73-.5.73-.4.72-.5.72-.5.73-.5.72-.5.72-.5.71-.5.72-.5.71-.5.72-.5.71-.5.71-.5.71-.5.7-.5.7-.5.71-.5.7-.5.7-.5.7-.5.69-.6.7-.5.69-.5.69-.5.7-.6.68-.5.69-.5.69-.6.68-.5.68-.5.68-.6.68-.5.68-.6.67-.5.68-.5.67-.6.67-.5.67-.6.67-.6.66-.5.66-.6.67-.5.66-.6.65-.6.66-.5.66-.6.65-.6.65-.5.65-.6.65-.6.65-.6.64-.6.65-.5.64-.6.63-.6.64-.6.64-.6.63-.6.63-.6.63-.6.63-.6.63-.6.63-.6.62-.6.62-.6.62-.6.62-.6.62-.6.61-.6.61-.6.61-.6.61-.7.61-.6.6-.6.61-.6.6-.7.6-.6.6-.6.59-.6.6-.7.59-.6.59-.6.59-.7.58-.6.59-.7.58-.6.58-.6.58-.7.58-.6.57-.7.58-.6.57-.7.57-.7.56-.6.57-.7.56-.6.56-.7.56-.7.56-.6.56-.7.55-.7.55-.6.55-.7.55-.7.55-.6.54-.7.54-.7.54-.7.54-.7.53-.7.54-.6.53-.7.53-.7.53-.7.52-.7.53-.7.52-.7.52-.7.52-.7.51-.7.52-.7.51-.7.51-.7.5-.7.51-.7.5-.7.5-.7.5-.7.5-.8.49-.7.5-.7.49-.7.49-.7.48-.7.49-.8.48-.7.48-.7.48-.7.47-.8.48-.7.47-.7.47-.8.47-.7.46-.8.46-.7.46-.7.46-.8.46-.7.45-.8.45-.7.45-.8.45-.7.45-.8.44-.7.44-.8.44-.7.44-.8.43-.7.43-.8.43-.7.43-.8.43-.8.42-.7.42-.8.42-.8.42-.7.41-.8.41-.8.41-.8.41-.7.4-.8.41-.8.4-.8.4-.7.39-.8.4-.8.39-.8.39-.8.38-.8.39-.8.38-.7.38-.8.38-.8.37-.8.38-.8.37-.8.36-.8.37-.8.36-.8.37-.8.35-.8.36-.8.35-.8.36-.8.34-.8.35-.8.35-.9.34-.8.34-.8.33-.8.34-.8.33-.8.33-.8.33-.9.32-.8.33-.8.32-.8.32-.8.31-.9.31-.8.31-.8.31-.9.31-.8.3-.8.3-.8.3-.9.29-.8.3-.9.29-.8.29-.8.28-.9.28-.8.29-.8.28-.9.27-.8.27-.9.27-.8.27-.9.27-.8.26-.9.26-.8.26-.9.25-.8.26-.9.25-.8.24-.9.25-.8.24-.9.24-.9.24-.8.23-.9.24-.8.23-.9.22-.9.23-.8.22-.9.22-.9.21-.8.22-.9.21-.9.21-.9.2-.8.21-.9.2-.9.2-.9.19-.8.2-.9.18-.9.19-.9.19-.8.18-.9.18-.9.18-.9.17-.9.17-.9.17-.9.16-.8.17-.9.16-.9.16-.9.15-.9.15-.9.15-.9.15-.9.15-.9.14-.9.14-.9.13-.9.13-.9.13-.9.13-.9.13-.9.12-.9.12-.9.12-.9.11-.9.11-.9.11-.9.1-.9.11-.9.09-.9.1-.9.1-.9.09-1 .09-.9.08-.9.08-.9.08-.9.08-.9.08-.9.07-1 .07-.9.06-.9.06-.9.06-.9.06-1 .05-.9.05-.9.05-.9.05-.9.04-1 .04-.9.04-.9.03-1 .03-.9.03-.9.03-.9.02-1 .02-.9.01-.9.02-1 .01-.9v-.9l.01-1v-1.8l-.01-1v-.9l-.01-.9-.02-1-.01-.9-.02-.9-.02-1-.03-.9-.03-.9-.03-.9-.03-1-.04-.9-.04-.9-.04-1-.05-.9-.05-.9-.05-.9-.05-.9-.06-1-.06-.9-.06-.9-.06-.9-.07-.9-.07-1-.08-.9-.08-.9-.08-.9-.08-.9-.08-.9-.09-.9-.09-1-.1-.9-.1-.9-.09-.9-.11-.9-.1-.9-.11-.9-.11-.9-.11-.9-.12-.9-.12-.9-.12-.9-.13-.9-.13-.9-.13-.9-.13-.9-.13-.9-.14-.9-.14-.9-.15-.9-.15-.9-.15-.9-.15-.9-.15-.9-.16-.9-.16-.9-.17-.9-.16-.8-.17-.9-.17-.9-.17-.9-.18-.9-.18-.9-.18-.9-.19-.8-.19-.9-.18-.9-.2-.9-.19-.8-.2-.9-.2-.9-.2-.9-.21-.8-.21-.9-.21-.9-.21-.9-.22-.8-.22-.9-.22-.9-.23-.8-.22-.9-.23-.9-.24-.8-.23-.9-.24-.8-.24-.9-.24-.9-.25-.8-.24-.9-.25-.8-.26-.9-.25-.8-.26-.9-.26-.8-.26-.9-.27-.8-.27-.9-.27-.8-.27-.9-.28-.8-.27-.9-.29-.8-.28-.8-.28-.9-.29-.8-.29-.8-.3-.9-.29-.8-.3-.9-.3-.8-.3-.8-.31-.8-.31-.9-.31-.8-.31-.8-.31-.9-.32-.8-.32-.8-.33-.8-.32-.8-.33-.9-.33-.8-.33-.8-.34-.8-.33-.8-.34-.8-.34-.8-.35-.9-.35-.8-.34-.8-.36-.8-.35-.8-.36-.8-.35-.8-.37-.8-.36-.8-.37-.8-.36-.8-.37-.8-.38-.8-.37-.8-.38-.8-.38-.8-.38-.7-.39-.8-.38-.8-.39-.8-.39-.8-.4-.8-.39-.8-.4-.7-.4-.8-.41-.8-.4-.8-.41-.7-.41-.8-.41-.8-.41-.8-.42-.7-.42-.8-.42-.8-.42-.7-.43-.8-.43-.8-.43-.7-.43-.8-.43-.7-.44-.8-.44-.7-.44-.8-.44-.7-.45-.8-.45-.7-.45-.8-.45-.7-.45-.8-.46-.7-.46-.8-.46-.7-.46-.7-.46-.8-.47-.7-.47-.8-.47-.7-.48-.7-.47-.7-.48-.8-.48-.7-.48-.7-.49-.8-.48-.7-.49-.7-.49-.7-.5-.7-.49-.7-.5-.8-.5-.7-.5-.7-.5-.7-.51-.7-.5-.7-.51-.7-.51-.7-.52-.7-.51-.7-.52-.7-.52-.7-.52-.7-.53-.7-.52-.7-.53-.7-.53-.7-.53-.7-.54-.6-.53-.7-.54-.7-.54-.7-.54-.7-.54-.7-.55-.6-.55-.7-.55-.7-.55-.6-.55-.7-.56-.7-.56-.6-.56-.7-.56-.7-.56-.6-.57-.7-.56-.6-.57-.7-.57-.7-.58-.6-.57-.7-.58-.6-.58-.7-.58-.6-.58-.6-.59-.7-.58-.6-.59-.7-.59-.6-.59-.6-.6-.7-.59-.6-.6-.6-.6-.6-.6-.7-.61-.6-.6-.6-.61-.6-.61-.7-.61-.6-.61-.6-.62-.6-.61-.6-.62-.6-.62-.6-.62-.6-.63-.6-.62-.6-.63-.6-.63-.6-.63-.6-.63-.6-.63-.6-.64-.6-.64-.6-.63-.6-.64-.6-.65-.5-.64-.6-.65-.6-.65-.6-.65-.6-.65-.5-.65-.6-.66-.6-.66-.5-.65-.6-.66-.6-.67-.5-.66-.6-.66-.5-.67-.6-.67-.6-.67-.5-.67-.6-.68-.5-.67-.5-.68-.6-.68-.5-.68-.6-.68-.5-.68-.5-.69-.6-.69-.5-.69-.5-.69-.6-.69-.5-.69-.5-.7-.5-.69-.6-.7-.5-.7-.5-.7-.5-.71-.5-.7-.5-.7-.5-.71-.5-.71-.5-.71-.5-.72-.5-.71-.5-.72-.5-.71-.5-.72-.5-.72-.5-.73-.5-.72-.5-.72-.5-.73-.4-.73-.5-.73-.5-.73-.5-.73-.4-.73-.5-.74-.5-.74-.4-.74-.5-.74-.5-.74-.4-.74-.5-.74-.4-.75-.5-.75-.4-.75-.5-.75-.4-.75-.5-.75-.4-.75-.4-.76-.5-.76-.4-.76-.5-.76-.4-.76-.4-.76-.4-.77-.5-.76-.4-.77-.4-.77-.4-.77-.4-.77-.4-.78-.4-.77-.5-.77-.4-.78-.4-.78-.4-.78-.4-.78-.4-.78-.3-.79-.4-.78-.4-.79-.4-.79-.4-.79-.4-.79-.4-.79-.3-.79-.4-.8-.4-.79-.4-.8-.3-.8-.4-.8-.4-.8-.3-.8-.4-.8-.3-.81-.4-.8-.3-.81-.4-.81-.3-.81-.4-.81-.3-.81-.4-.82-.3-.81-.3-.82-.4-.81-.3-.82-.3-.82-.3-.82-.4-.83-.3-.82-.3-.82-.3-.83-.3-.83-.3-.82-.3-.83-.4-.83-.3-.83-.3-.84-.3-.83-.3-.84-.2-.83-.3-.84-.3-.84-.3-.84-.3-.84-.3-.84-.2-.85-.3-.84-.3-.85-.3-.84-.2-.85-.3-.85-.3-.85-.2-.85-.3-.85-.2-.86-.3-.85-.2-.86-.3-.85-.2-.86-.3-.86-.2-.86-.3-.86-.2-.86-.2-.86-.2-.87-.3-.86-.2-.87-.2-.87-.2-.86-.3-.88-.2-.86-.2-.88-.2-.87-.2-.87-.2-.87-.2-.88-.2-.88-.2-.87-.2-.88-.2-.88-.2-.88-.1-.88-.2-.88-.2-.89-.2-.88-.2-.89-.1-.88-.2-.89-.2-.89-.1-.89-.2-.89-.1-.89-.2-.89-.2-.89-.1-.89-.1-.9-.2-.89-.1-.9-.2-.9-.1-.9-.1-.89-.2-.91-.1-.89-.1-.91-.1-.9-.2-.9-.1-.91-.1-.9-.1-.91-.1-.9-.1-.91-.1-.91-.1-.91-.1-.91-.1-.91-.1-.91-.1-.92-.1-.91-.1h-.91l-.92-.1-.91-.1-.92-.1h-.92l-.91-.1-.93-.1h-.91l-.92-.1h-.93l-.92-.1h-.92l-.93-.1h-.92l-.92-.1h-1.86l-.92-.1h-2.79l-.93-.1H4608.07z"/></g></g></g><path d="M2563.27 4632.95l-.01 370.57" fill="none" stroke="#000" stroke-width="25.75" stroke-linecap="square" stroke-miterlimit="2.566" transform="matrix(.70816 0 0 .68985 -723.641 -2431.65)"/><g><path fill="#3cb884" d="M1290.32 64h468.304v958H1290.32z"/><path d="M1760.01 56.129l1.35.36 1.27.585 1.14.799.98.984.8 1.15.59 1.256.36 1.354.13 1.383-.72 649.358-.26 308.644-.11 1.218-.32 1.188-.52 1.101-.7 1.004-.87.867-1 .701-1.11.507-1.18.321-1.21.107-221.59-.185-246.72-.146-1.16-.097-1.13-.302-.61-.293-.44-.204-.95-.663-.83-.828-.67-.954-.49-1.052-.3-1.13-.1-1.16.05-188.387-.08-145.799-.21-149.413-.64-294.081-.31-136.924-.04-43.398.12-1.373.35-1.335.58-1.247.79-1.13.98-.984 1.13-.789 1.25-.584 1.33-.36 1.38-.127 65.55-.069h198.75l49.24.916 66 1.588 87.46 1.617 1.31.02v-4.14l1.38.126zm-87.64 13.375l-63.61 1.578-47.28.916H1369.4l-.06-.069h-71.1v-.01l-.05 49.74-.31 132.258-.64 284.662-.21 144.883-.08 141.444.05-.04v190.454h3.26l236.07-.146-.01-.185h215.29l-.01-.01-.26-311.908-.71-635.058-78.26 1.49z"/></g><g><path fill="#fff" d="M1406.482 1009.032h240v25h-240z"/><g transform="matrix(.58127 0 0 .67444 -1087.701 -6276.621)"><path d="M4730.28 10403.6l-415.44 44.2-57.26 374.2 472.7 4v-422.4z" fill="none"/><clipPath id="c"><path d="M4730.28 10403.6l-415.44 44.2-57.26 374.2 472.7 4v-422.4z"/></clipPath><g clip-path="url(#c)"><g transform="matrix(1.49887 0 0 1.3261 -2183.8 -3507.65)"><circle cx="4609" cy="10808" r="292" fill="#fff"/><path d="M4609.95 10513.2H4613.76l.95.1h2.84l.95.1h1.89l.95.1h1.89l.93.1h.95l.94.1h.94l.94.1.94.1h.93l.94.1.94.1h.93l.94.1.93.1.93.1.94.1h.93l.93.1.93.1.93.1.92.1.93.1.93.1.92.1.92.1.93.2.92.1.92.1.92.1.92.1.92.2.92.1.92.1.91.2.92.1.91.1.92.2.91.1.91.2.91.1.91.2.91.2.91.1.91.2.9.1.91.2.9.2.9.2.91.1.9.2.9.2.9.2.89.2.9.2.9.2.89.2.9.2.89.2.89.2.9.2.89.2.88.2.89.2.89.2.88.2.89.3.88.2.89.2.88.3.88.2.88.2.87.3.88.2.88.3.87.2.88.3.87.2.87.3.87.2.87.3.87.2.87.3.86.3.87.2.86.3.87.3.86.3.86.3.86.2.86.3.85.3.86.3.85.3.86.3.85.3.85.3.85.3.85.3.85.3.84.3.85.3.84.4.84.3.85.3.84.3.83.3.84.4.84.3.83.3.84.4.83.3.83.4.83.3.83.4.83.3.82.3.83.4.82.4.82.3.83.4.81.3.82.4.82.4.82.3.81.4.82.4.81.4.81.4.81.3.8.4.81.4.8.4.81.4.8.4.8.4.8.4.8.4.8.4.79.4.8.4.79.4.79.4.79.4.79.5.79.4.78.4.78.4.79.5.78.4.78.4.78.4.77.5.78.4.77.5.78.4.77.4.77.5.77.4.76.5.77.5.76.4.76.5.76.4.76.5.76.5.76.4.75.5.75.5.76.4.75.5.74.5.75.5.75.5.74.4.74.5.75.5.74.5.73.5.74.5.73.5.74.5.73.5.73.5.73.5.72.5.73.5.72.5.72.6.72.5.72.5.72.5.71.5.72.6.71.5.71.5.71.6.7.5.71.5.7.6.71.5.7.5.7.6.69.5.7.6.69.5.69.6.69.5.69.6.69.6.69.5.68.6.68.5.68.6.68.6.68.6.67.5.67.6.67.6.68.6.66.5.67.6.66.6.67.6.66.6.66.6.65.6.66.5.65.6.65.6.65.6.65.6.65.7.64.6.65.6.64.6.64.6.63.6.64.6.63.6.64.6.63.7.62.6.63.6.62.6.63.7.62.6.62.6.61.7.62.6.61.6.61.7.61.6.61.7.61.6.6.7.6.6.6.7.6.6.6.7.59.6.59.7.59.6.59.7.58.7.59.6.58.7.58.6.58.7.58.7.57.7.57.6.57.7.57.7.57.7.56.7.57.6.56.7.55.7.56.7.55.7.56.7.55.7.55.7.54.7.55.7.54.7.54.7.54.7.53.7.54.7.53.7.53.7.53.7.52.7.52.7.52.8.52.7.52.7.52.7.51.7.51.8.51.7.5.7.51.8.5.7.5.7.5.7.49.8.5.7.49.8.49.7.49.7.48.8.48.7.48.8.48.7.48.8.47.7.48.8.47.7.46.8.47.8.46.7.46.8.46.7.46.8.45.8.45.7.45.8.45.8.44.7.45.8.44.8.43.8.44.7.43.8.44.8.42.8.43.8.43.7.42.8.42.8.41.8.42.8.41.8.41.8.41.8.41.8.4.8.4.8.4.8.4.8.39.8.4.8.38.8.39.8.39.8.38.8.38.8.38.8.37.8.37.8.37.9.37.8.37.8.36.8.36.8.36.8.36.9.35.8.35.8.35.8.35.9.34.8.34.8.34.9.33.8.34.8.33.9.33.8.33.8.32.9.32.8.32.9.32.8.31.9.31.8.31.9.31.8.3.8.3.9.3.9.3.8.29.9.29.8.29.9.29.8.28.9.28.8.28.9.28.9.27.8.27.9.27.9.26.8.26.9.26.9.26.8.26.9.25.9.25.9.25.8.24.9.24.9.24.9.24.8.23.9.24.9.22.9.23.9.22.8.22.9.22.9.22.9.21.9.21.9.21.9.2.9.2.9.2.9.2.8.19.9.19.9.19.9.19.9.18.9.18.9.18.9.17.9.17.9.17.9.17 1 .16.9.16.9.16.9.16.9.15.9.15.9.15.9.14.9.14.9.14 1 .13.9.14.9.13.9.13.9.12.9.12 1 .12.9.12.9.11.9.11 1 .11.9.1.9.1.9.1 1 .1.9.09.9.09.9.09 1 .08.9.08.9.08 1 .08.9.07.9.07 1 .07.9.06.9.06 1 .06.9.05 1 .06.9.05.9.04 1 .04.9.05 1 .03.9.04 1 .03.9.03 1 .02.9.03.9.02 1 .01.9.02 1 .01.9v1l.01.9v2l-.01.9v1l-.01.9-.02 1-.01.9-.02 1-.03.9-.02.9-.03 1-.03.9-.04 1-.03.9-.05 1-.04.9-.04 1-.05.9-.06.9-.05 1-.06.9-.06 1-.06.9-.07.9-.07 1-.07.9-.08.9-.08 1-.08.9-.08.9-.09 1-.09.9-.09.9-.1.9-.1 1-.1.9-.1.9-.11.9-.11 1-.11.9-.12.9-.12.9-.12 1-.12.9-.13.9-.13.9-.14.9-.13.9-.14 1-.14.9-.14.9-.15.9-.15.9-.15.9-.16.9-.16.9-.16.9-.16.9-.17 1-.17.9-.17.9-.17.9-.18.9-.18.9-.18.9-.19.9-.19.9-.19.9-.19.9-.2.8-.2.9-.2.9-.2.9-.21.9-.21.9-.21.9-.22.9-.22.9-.22.9-.22.8-.23.9-.22.9-.24.9-.23.9-.24.8-.24.9-.24.9-.24.9-.25.8-.25.9-.25.9-.26.9-.26.8-.26.9-.26.9-.26.8-.27.9-.27.9-.27.8-.28.9-.28.9-.28.8-.28.9-.29.8-.29.9-.29.8-.29.9-.3.8-.3.9-.3.9-.3.8-.31.8-.31.9-.31.8-.31.9-.32.8-.32.9-.32.8-.32.9-.33.8-.33.8-.33.9-.33.8-.34.8-.34.9-.34.8-.34.8-.35.9-.35.8-.35.8-.35.8-.36.9-.36.8-.36.8-.36.8-.37.8-.37.8-.37.9-.37.8-.37.8-.38.8-.38.8-.38.8-.39.8-.39.8-.38.8-.4.8-.39.8-.4.8-.4.8-.4.8-.4.8-.41.8-.41.8-.41.8-.41.8-.41.8-.42.8-.42.8-.42.8-.43.7-.43.8-.43.8-.43.8-.43.8-.44.7-.43.8-.44.8-.45.8-.44.7-.45.8-.45.8-.45.7-.45.8-.46.8-.46.7-.46.8-.46.7-.47.8-.46.8-.47.7-.48.8-.47.7-.48.8-.48.7-.48.8-.48.7-.48.8-.49.7-.49.7-.49.8-.5.7-.49.7-.5.8-.5.7-.5.7-.51.8-.5.7-.51.7-.51.8-.51.7-.52.7-.52.7-.52.7-.52.8-.52.7-.52.7-.53.7-.53.7-.54.7-.53.7-.53.7-.54.7-.54.7-.54.7-.55.7-.54.7-.55.7-.55.7-.56.7-.55.7-.56.7-.55.7-.56.7-.57.6-.56.7-.57.7-.57.7-.57.7-.57.6-.57.7-.58.7-.58.7-.58.6-.58.7-.59.6-.58.7-.59.7-.59.6-.59.7-.6.6-.59.7-.6.7-.6.6-.6.6-.6.7-.61.6-.61.7-.61.6-.61.7-.61.6-.62.6-.61.7-.62.6-.62.6-.63.7-.62.6-.63.6-.63.6-.62.7-.64.6-.63.6-.64.6-.63.6-.64.6-.64.6-.65.6-.64.7-.65.6-.65.6-.64.6-.66.6-.65.5-.66.6-.65.6-.66.6-.66.6-.67.6-.66.6-.67.6-.67.5-.67.6-.67.6-.67.6-.67.5-.68.6-.68.6-.68.6-.68.5-.68.6-.69.5-.69.6-.69.6-.69.5-.69.6-.69.5-.7.6-.69.5-.7.6-.7.5-.71.5-.7.6-.7.5-.71.5-.71.6-.71.5-.71.5-.72.6-.71.5-.72.5-.72.5-.72.5-.72.6-.72.5-.73.5-.72.5-.73.5-.73.5-.73.5-.74.5-.73.5-.74.5-.73.5-.75.5-.74.5-.74.5-.74.4-.75.5-.75.5-.74.5-.75.5-.76.4-.75.5-.75.5-.76.4-.76.5-.76.5-.76.4-.76.5-.76.4-.77.5-.76.5-.77.4-.77.5-.77.4-.78.4-.77.5-.78.4-.77.5-.78.4-.78.4-.78.4-.78.5-.79.4-.78.4-.79.4-.79.5-.79.4-.79.4-.79.4-.8.4-.79.4-.8.4-.8.4-.8.4-.8.4-.8.4-.81.4-.8.4-.81.4-.8.4-.81.3-.81.4-.81.4-.82.4-.81.4-.82.3-.82.4-.81.4-.82.3-.83.4-.82.3-.82.4-.83.3-.82.4-.83.4-.83.3-.83.3-.83.4-.83.3-.84.4-.83.3-.84.3-.83.4-.84.3-.84.3-.85.3-.84.3-.84.4-.85.3-.85.3-.84.3-.85.3-.85.3-.85.3-.85.3-.86.3-.85.3-.86.3-.85.3-.86.3-.86.2-.86.3-.86.3-.86.3-.87.3-.87.2-.86.3-.87.3-.87.2-.87.3-.87.2-.87.3-.87.2-.88.3-.87.2-.88.3-.87.2-.88.3-.88.2-.88.2-.88.3-.89.2-.88.2-.89.3-.88.2-.89.2-.89.2-.89.2-.89.2-.89.2-.89.2-.89.2-.9.2-.89.2-.9.2-.9.2-.89.2-.9.2-.9.2-.9.2-.91.1-.9.2-.9.2-.91.2-.9.1-.91.2-.91.1-.91.2-.91.2-.91.1-.91.2-.91.1-.92.2-.91.1-.92.1-.91.2-.92.1-.92.1-.92.2-.92.1-.92.1-.92.1-.92.1-.93.2-.92.1-.92.1-.93.1-.93.1-.92.1-.93.1-.93.1-.93.1h-.94l-.93.1-.93.1-.93.1-.94.1h-.93l-.94.1-.94.1h-.93l-.94.1-.94.1h-.94l-.94.1h-.95l-.93.1h-1.89l-.95.1h-1.89l-.95.1h-2.84l-.95.1h-9.52l-.95-.1h-2.84l-.95-.1h-1.89l-.95-.1h-1.88l-.94-.1h-.95l-.94-.1h-.94l-.94-.1-.93-.1h-.94l-.94-.1-.94-.1h-.93l-.94-.1-.93-.1-.93-.1-.93-.1h-.94l-.93-.1-.93-.1-.92-.1-.93-.1-.93-.1-.93-.1-.92-.1-.92-.1-.93-.2-.92-.1-.92-.1-.92-.1-.92-.1-.92-.2-.92-.1-.92-.1-.91-.2-.92-.1-.91-.1-.92-.2-.91-.1-.91-.2-.91-.1-.91-.2-.91-.2-.91-.1-.91-.2-.9-.1-.91-.2-.9-.2-.9-.2-.91-.1-.9-.2-.9-.2-.9-.2-.89-.2-.9-.2-.9-.2-.89-.2-.9-.2-.89-.2-.89-.2-.89-.2-.89-.2-.89-.2-.89-.2-.89-.2-.88-.2-.89-.3-.88-.2-.89-.2-.88-.3-.88-.2-.88-.2-.88-.3-.87-.2-.88-.3-.87-.2-.88-.3-.87-.2-.87-.3-.87-.2-.87-.3-.87-.2-.87-.3-.86-.3-.87-.2-.87-.3-.86-.3-.86-.3-.86-.3-.86-.2-.86-.3-.85-.3-.86-.3-.85-.3-.86-.3-.85-.3-.85-.3-.85-.3-.85-.3-.84-.3-.85-.3-.85-.3-.84-.4-.84-.3-.85-.3-.84-.3-.84-.3-.83-.4-.84-.3-.83-.3-.84-.4-.83-.3-.83-.4-.83-.3-.83-.3-.83-.4-.82-.4-.83-.3-.82-.4-.82-.3-.83-.4-.82-.3-.81-.4-.82-.4-.82-.3-.81-.4-.81-.4-.82-.4-.8-.4-.82-.3-.81-.4-.8-.4-.8-.4-.81-.4-.8-.4-.8-.4-.8-.4-.8-.4-.8-.4-.79-.4-.8-.4-.79-.4-.79-.4-.79-.4-.79-.5-.79-.4-.78-.4-.79-.4-.78-.5-.78-.4-.78-.4-.78-.4-.77-.5-.78-.4-.77-.5-.78-.4-.77-.4-.77-.5-.77-.4-.76-.5-.77-.5-.76-.4-.76-.5-.76-.4-.76-.5-.76-.5-.76-.4-.75-.5-.75-.5-.76-.4-.75-.5-.74-.5-.75-.5-.75-.5-.74-.4-.74-.5-.74-.5-.74-.5-.74-.5-.74-.5-.73-.5-.74-.5-.73-.5-.73-.5-.73-.5-.72-.5-.73-.5-.72-.5-.72-.6-.72-.5-.72-.5-.72-.5-.71-.5-.72-.6-.71-.5-.71-.5-.71-.6-.71-.5-.7-.5-.7-.6-.71-.5-.7-.5-.7-.6-.69-.5-.7-.6-.69-.5-.69-.6-.69-.5-.69-.6-.69-.6-.69-.5-.68-.6-.68-.5-.68-.6-.68-.6-.68-.6-.67-.5-.67-.6-.68-.6-.66-.6-.67-.5-.67-.6-.66-.6-.67-.6-.66-.6-.66-.6-.65-.6-.66-.6-.65-.5-.66-.6-.64-.6-.65-.6-.65-.6-.64-.7-.65-.6-.64-.6-.64-.6-.63-.6-.64-.6-.63-.6-.64-.6-.62-.7-.63-.6-.63-.6-.62-.6-.63-.7-.62-.6-.62-.6-.61-.7-.62-.6-.61-.6-.61-.7-.61-.6-.61-.7-.61-.6-.6-.7-.6-.6-.6-.6-.6-.7-.59-.7-.6-.6-.59-.7-.59-.6-.59-.7-.58-.6-.59-.7-.58-.7-.58-.6-.58-.7-.58-.7-.57-.7-.57-.6-.57-.7-.57-.7-.57-.7-.56-.7-.57-.6-.55-.7-.56-.7-.56-.7-.55-.7-.56-.7-.55-.7-.55-.7-.54-.7-.55-.7-.54-.7-.54-.7-.54-.7-.53-.7-.53-.7-.54-.7-.53-.7-.52-.7-.53-.7-.52-.7-.52-.8-.52-.7-.52-.7-.52-.7-.51-.7-.51-.8-.51-.7-.5-.7-.51-.8-.5-.7-.5-.7-.5-.8-.49-.7-.5-.7-.49-.8-.49-.7-.49-.7-.48-.8-.48-.7-.48-.8-.48-.7-.48-.8-.47-.7-.48-.8-.46-.7-.47-.8-.47-.8-.46-.7-.46-.8-.46-.7-.46-.8-.45-.8-.45-.7-.45-.8-.45-.8-.44-.7-.45-.8-.44-.8-.43-.8-.44-.7-.43-.8-.43-.8-.43-.8-.43-.8-.43-.7-.42-.8-.42-.8-.42-.8-.41-.8-.41-.8-.41-.8-.41-.8-.41-.8-.4-.8-.4-.8-.4-.8-.4-.8-.39-.8-.39-.8-.39-.8-.39-.8-.39-.8-.38-.8-.38-.8-.38-.8-.37-.8-.37-.8-.37-.9-.37-.8-.37-.8-.36-.8-.36-.8-.36-.8-.36-.9-.35-.8-.35-.8-.35-.8-.35-.9-.34-.8-.34-.8-.34-.9-.34-.8-.33-.8-.33-.9-.33-.8-.33-.8-.32-.9-.32-.8-.32-.9-.32-.8-.31-.9-.31-.8-.31-.9-.31-.8-.3-.8-.3-.9-.3-.9-.3-.8-.29-.9-.29-.8-.29-.9-.29-.8-.28-.9-.28-.8-.28-.9-.27-.9-.28-.8-.27-.9-.27-.9-.26-.8-.26-.9-.27-.9-.25-.8-.26-.9-.25-.9-.25-.9-.25-.8-.24-.9-.24-.9-.24-.9-.24-.8-.23-.9-.23-.9-.23-.9-.23-.9-.22-.8-.22-.9-.22-.9-.22-.9-.21-.9-.21-.9-.21-.9-.2-.9-.2-.9-.2-.9-.2-.8-.19-.9-.19-.9-.19-.9-.19-.9-.18-.9-.18-.9-.18-.9-.17-.9-.17-.9-.17-.9-.17-1-.16-.9-.16-.9-.16-.9-.16-.9-.15-.9-.15-.9-.15-.9-.14-.9-.14-.9-.14-1-.13-.9-.14-.9-.13-.9-.13-.9-.12-.9-.12-1-.12-.9-.12-.9-.11-.9-.11-1-.11-.9-.1-.9-.1-.9-.1-1-.1-.9-.09-.9-.09-.9-.09-1-.08-.9-.08-.9-.08-1-.08-.9-.07-.9-.07-1-.07-.9-.06-.9-.06-1-.06-.9-.05-1-.06-.9-.04-.9-.05-1-.04-.9-.05-1-.03-.9-.04-1-.03-.9-.03-1-.02-.9-.03-.9-.01-1-.02-.9-.02-1-.01-.9v-1l-.01-.9v-2l.01-.9v-1l.01-.9.02-1 .02-.9.01-1 .03-.9.02-.9.03-1 .03-.9.04-1 .03-.9.05-1 .04-.9.05-1 .04-.9.06-.9.05-1 .06-.9.06-1 .06-.9.07-.9.07-1 .07-.9.08-.9.08-1 .08-.9.08-.9.09-1 .09-.9.09-.9.1-.9.1-1 .1-.9.1-.9.11-.9.11-1 .11-.9.12-.9.12-.9.12-1 .12-.9.13-.9.13-.9.14-.9.13-.9.14-1 .14-.9.14-.9.15-.9.15-.9.15-.9.16-.9.16-.9.16-.9.16-.9.17-1 .17-.9.17-.9.17-.9.18-.9.18-.9.18-.9.19-.9.19-.9.19-.9.19-.9.2-.8.2-.9.2-.9.2-.9.21-.9.21-.9.21-.9.22-.9.22-.9.22-.9.22-.8.23-.9.23-.9.23-.9.23-.9.24-.8.24-.9.24-.9.24-.9.25-.8.25-.9.25-.9.26-.9.25-.8.27-.9.26-.9.26-.8.27-.9.27-.9.28-.8.27-.9.28-.9.28-.8.28-.9.29-.8.29-.9.29-.8.29-.9.3-.8.3-.9.3-.9.3-.8.31-.8.31-.9.31-.8.31-.9.32-.8.32-.9.32-.8.32-.9.33-.8.33-.8.33-.9.34-.8.33-.8.34-.9.34-.8.34-.8.35-.9.35-.8.35-.8.35-.8.36-.9.36-.8.36-.8.36-.8.37-.8.37-.8.37-.9.37-.8.37-.8.38-.8.38-.8.38-.8.39-.8.39-.8.39-.8.39-.8.39-.8.4-.8.4-.8.4-.8.4-.8.41-.8.41-.8.41-.8.41-.8.42-.8.41-.8.42-.8.42-.8.43-.7.43-.8.43-.8.43-.8.43-.8.44-.7.43-.8.44-.8.45-.8.44-.7.45-.8.45-.8.45-.7.45-.8.46-.8.46-.7.46-.8.46-.7.47-.8.47-.8.46-.7.48-.8.47-.7.48-.8.48-.7.48-.8.48-.7.48-.8.49-.7.49-.7.49-.8.5-.7.49-.8.5-.7.5-.7.5-.7.51-.8.5-.7.51-.7.51-.8.51-.7.52-.7.52-.7.52-.7.52-.8.52-.7.53-.7.52-.7.53-.7.53-.7.54-.7.53-.7.54-.7.54-.7.54-.7.55-.7.54-.7.55-.7.55-.7.56-.7.55-.7.56-.7.56-.7.55-.7.57-.6.56-.7.57-.7.57-.7.57-.7.57-.6.57-.7.58-.7.58-.7.58-.6.58-.7.59-.7.58-.6.59-.7.59-.6.59-.7.59-.6.6-.7.6-.6.6-.7.6-.6.6-.7.61-.6.61-.7.61-.6.61-.7.61-.6.62-.6.61-.7.62-.6.62-.6.63-.7.62-.6.63-.6.62-.6.64-.7.63-.6.63-.6.63-.6.64-.6.64-.6.64-.6.65-.6.64-.6.65-.7.65-.6.65-.6.65-.6.65-.6.66-.5.65-.6.66-.6.66-.6.67-.6.66-.6.67-.6.66-.5.67-.6.68-.6.67-.6.67-.5.68-.6.68-.6.68-.6.68-.5.69-.6.68-.5.69-.6.69-.6.69-.5.69-.6.69-.5.7-.6.69-.5.7-.6.7-.5.71-.5.7-.6.71-.5.7-.5.71-.6.71-.5.71-.5.72-.6.71-.5.72-.5.72-.5.72-.5.72-.6.72-.5.73-.5.72-.5.73-.5.73-.5.73-.5.74-.5.73-.5.74-.5.74-.5.73-.5.75-.5.74-.5.74-.4.75-.5.75-.5.74-.5.75-.5.76-.4.75-.5.75-.5.76-.4.76-.5.76-.5.76-.4.76-.5.76-.4.77-.5.76-.5.77-.4.77-.5.77-.4.78-.4.77-.5.78-.4.77-.5.78-.4.78-.4.78-.4.79-.5.78-.4.78-.4.79-.4.79-.5.79-.4.79-.4.79-.4.8-.4.79-.4.8-.4.8-.4.8-.4.8-.4.8-.4.81-.4.8-.4.81-.4.8-.4.81-.3.81-.4.82-.4.81-.4.81-.4.82-.3.82-.4.82-.4.81-.3.83-.4.82-.3.82-.4.83-.4.82-.3.83-.3.83-.4.83-.3.83-.4.83-.3.84-.4.83-.3.84-.3.84-.4.83-.3.84-.3.85-.3.84-.3.84-.4.85-.3.84-.3.85-.3.85-.3.85-.3.85-.3.85-.3.86-.3.85-.3.86-.3.85-.3.86-.3.86-.2.86-.3.86-.3.87-.3.86-.3.87-.2.86-.3.87-.3.87-.2.87-.3.87-.2.87-.3.87-.2.88-.3.87-.2.88-.3.88-.2.87-.3.88-.2.88-.2.88-.3.89-.2.88-.2.89-.3.88-.2.89-.2.89-.2.89-.2.88-.2.9-.2.89-.2.89-.2.9-.2.89-.2.9-.2.9-.2.89-.2.9-.2.9-.2.9-.2.91-.1.9-.2.9-.2.91-.2.9-.1.91-.2.91-.1.91-.2.91-.2.91-.1.91-.2.91-.1.92-.2.91-.1.92-.1.91-.2.92-.1.92-.1.92-.2.92-.1.92-.1.92-.1.92-.1.93-.2.92-.1.92-.1.93-.1.93-.1.93-.1.92-.1.93-.1.93-.1h.93l.94-.1.93-.1.93-.1.94-.1h.93l.94-.1.94-.1h.93l.94-.1.94-.1h.94l.94-.1h.95l.94-.1h1.88l.95-.1h1.89l.95-.1h2.84l.95-.1h5.71zm-1.88 5.6h-4.67l-.93.1H4599.69l-.93.1h-1.86l-.92.1h-.92l-.93.1h-.92l-.92.1h-.93l-.92.1h-.91l-.92.1-.92.1h-.92l-.92.1-.91.1-.92.1h-.91l-.91.1-.92.1-.91.1-.91.1-.91.1-.91.1-.91.1-.91.1-.9.1-.91.1-.9.1-.91.1-.9.1-.9.2-.91.1-.89.1-.91.1-.89.2-.9.1-.9.1-.89.2-.9.1-.89.2-.9.1-.89.1-.89.2-.89.2-.89.1-.89.2-.89.1-.89.2-.88.2-.89.1-.88.2-.89.2-.88.2-.88.2-.88.1-.88.2-.88.2-.87.2-.88.2-.88.2-.87.2-.87.2-.87.2-.88.2-.86.2-.87.2-.87.3-.87.2-.87.2-.86.2-.86.3-.87.2-.86.2-.86.2-.86.3-.86.2-.86.3-.85.2-.86.3-.85.2-.86.3-.85.2-.85.3-.85.2-.85.3-.85.3-.84.2-.85.3-.84.3-.85.3-.84.2-.84.3-.84.3-.84.3-.84.3-.83.3-.84.2-.83.3-.83.3-.84.3-.83.3-.83.4-.82.3-.83.3-.83.3-.82.3-.82.3-.83.3-.82.4-.82.3-.82.3-.81.3-.82.4-.81.3-.82.3-.81.4-.81.3-.81.4-.81.3-.81.4-.8.3-.81.4-.8.3-.8.4-.8.3-.8.4-.8.4-.8.3-.79.4-.8.4-.79.4-.79.3-.79.4-.79.4-.79.4-.79.4-.78.4-.79.4-.78.3-.78.4-.78.4-.78.4-.77.4-.78.4-.77.5-.78.4-.77.4-.77.4-.77.4-.77.4-.76.4-.77.5-.76.4-.76.4-.76.4-.76.5-.76.4-.76.5-.75.4-.75.4-.75.5-.75.4-.75.5-.75.4-.75.5-.74.4-.74.5-.74.4-.74.5-.74.5-.74.4-.74.5-.73.5-.73.4-.73.5-.73.5-.73.5-.73.4-.72.5-.72.5-.73.5-.72.5-.72.5-.71.5-.72.5-.71.5-.72.5-.71.5-.71.5-.7.5-.71.5-.7.5-.71.5-.7.5-.7.5-.7.5-.69.6-.7.5-.69.5-.69.5-.69.6-.69.5-.69.5-.69.6-.68.5-.68.5-.68.6-.68.5-.68.6-.67.5-.68.5-.67.6-.67.5-.67.6-.67.6-.66.5-.66.6-.67.5-.66.6-.65.6-.66.5-.66.6-.65.6-.65.5-.65.6-.65.6-.65.6-.64.6-.65.5-.63.6-.64.6-.64.6-.64.6-.63.6-.63.6-.63.6-.63.6-.63.6-.62.6-.63.6-.62.6-.62.6-.62.6-.61.6-.62.6-.61.6-.61.6-.61.7-.61.6-.6.6-.61.6-.6.7-.6.6-.6.6-.59.6-.6.7-.59.6-.59.6-.59.7-.58.6-.59.7-.58.6-.58.7-.58.6-.58.6-.57.7-.58.6-.57.7-.56.7-.57.6-.57.7-.56.6-.56.7-.56.7-.56.6-.56.7-.55.7-.55.6-.55.7-.55.7-.54.6-.55.7-.54.7-.54.7-.54.7-.53.7-.54.6-.53.7-.53.7-.53.7-.52.7-.53.7-.52.7-.52.7-.52.7-.51.7-.52.7-.51.7-.51.7-.5.7-.51.7-.5.7-.5.7-.5.7-.5.8-.49.7-.5.7-.49.7-.49.7-.48.7-.49.8-.48.7-.48.7-.48.8-.47.7-.48.7-.47.7-.47.8-.46.7-.47.8-.46.7-.46.7-.46.8-.46.7-.45.8-.45.7-.45.8-.45.7-.45.8-.44.7-.44.8-.44.7-.44.8-.43.7-.43.8-.43.7-.43.8-.43.8-.42.7-.42.8-.42.8-.42.7-.41.8-.41.8-.41.8-.41.7-.4.8-.41.8-.4.8-.4.7-.39.8-.4.8-.39.8-.39.8-.38.8-.39.8-.38.7-.38.8-.38.8-.37.8-.38.8-.37.8-.36.8-.37.8-.36.8-.36.8-.36.8-.36.8-.35.8-.36.8-.34.8-.35.8-.35.9-.34.8-.34.8-.33.8-.34.8-.33.8-.33.8-.33.9-.32.8-.33.8-.32.8-.32.8-.31.9-.31.8-.31.8-.31.9-.31.8-.3.8-.3.8-.3.9-.29.8-.3.9-.29.8-.29.8-.28.9-.28.8-.29.8-.27.9-.28.8-.27.9-.27.8-.27.9-.27.8-.26.9-.26.8-.26.9-.25.8-.26.9-.25.8-.24.9-.25.8-.24.9-.24.9-.24.8-.23.9-.24.8-.23.9-.22.9-.23.8-.22.9-.22.9-.22.8-.21.9-.21.9-.21.9-.2.8-.21.9-.2.9-.2.9-.19.8-.2.9-.18.9-.19.9-.19.8-.18.9-.18.9-.17.9-.18.9-.17.9-.17.9-.16.8-.17.9-.16.9-.16.9-.15.9-.15.9-.15.9-.15.9-.15.9-.14.9-.14.9-.13.9-.13.9-.13.9-.13.9-.13.9-.12.9-.12.9-.12.9-.11.9-.11.9-.11.9-.1.9-.11.9-.09.9-.1.9-.1.9-.09 1-.08.9-.09.9-.08.9-.08.9-.08.9-.08.9-.07 1-.06.9-.07.9-.06.9-.06.9-.06 1-.05.9-.05.9-.05.9-.05.9-.04 1-.04.9-.04.9-.03 1-.03.9-.03.9-.03.9-.02 1-.02.9-.01.9-.02 1-.01.9v.9l-.01 1v1.8l.01 1v.9l.01.9.02 1 .01.9.02.9.02 1 .03.9.03.9.03.9.03 1 .04.9.04.9.04 1 .05.9.05.9.05.9.05.9.06 1 .06.9.06.9.07.9.06.9.07 1 .08.9.08.9.08.9.08.9.09.9.08 1 .09.9.1.9.1.9.09.9.11.9.1.9.11.9.11.9.11.9.12.9.12.9.12.9.13.9.13.9.13.9.13.9.13.9.14.9.14.9.15.9.15.9.15.9.15.9.15.9.16.9.16.9.17.9.16.8.17.9.17.9.18.9.17.9.18.9.18.9.19.8.19.9.18.9.2.9.19.8.2.9.2.9.21.9.2.8.21.9.21.9.21.9.22.8.22.9.22.9.23.8.22.9.23.9.24.8.23.9.24.8.24.9.24.9.25.8.24.9.25.8.26.9.25.8.26.9.26.8.26.9.27.8.27.9.27.8.27.9.28.8.27.9.29.8.28.8.28.9.29.8.29.8.3.9.29.8.3.9.3.8.3.8.31.8.31.9.31.8.31.8.31.9.32.8.32.8.33.8.32.8.33.9.33.8.33.8.34.8.33.8.34.8.34.8.35.9.35.8.34.8.36.8.35.8.36.8.36.8.36.8.36.8.37.8.36.8.37.8.38.8.37.8.38.8.38.8.38.7.39.8.38.8.39.8.39.8.4.8.39.8.4.7.4.8.41.8.4.8.41.7.41.8.41.8.41.8.42.7.42.8.42.8.42.7.43.8.43.8.43.7.43.8.43.7.44.8.44.7.44.8.44.7.45.8.45.7.45.8.45.7.45.8.46.7.46.8.46.7.46.7.47.8.46.7.47.8.47.7.48.7.47.8.48.7.48.7.48.7.49.8.48.7.49.7.49.7.5.7.49.7.5.8.5.7.5.7.5.7.51.7.5.7.51.7.51.7.52.7.51.7.52.7.52.7.52.7.53.7.52.7.53.7.53.7.53.7.54.6.53.7.54.7.54.7.54.7.55.7.54.6.55.7.55.7.55.6.55.7.56.7.56.6.56.7.56.7.56.6.57.7.56.6.57.7.57.7.58.6.57.7.58.6.58.7.58.6.58.6.59.7.58.6.59.7.59.6.59.6.6.7.59.6.6.6.6.6.6.7.61.6.6.6.61.6.61.7.61.6.61.6.61.6.62.6.62.6.62.6.62.6.62.6.63.6.63.6.63.6.63.6.63.6.63.6.64.6.64.6.64.6.63.6.65.5.64.6.65.6.65.6.65.6.65.5.65.6.66.6.66.5.65.6.66.6.67.5.66.6.66.5.67.6.67.6.67.5.67.6.68.5.67.5.68.6.68.5.68.6.68.5.68.5.69.6.69.5.68.5.7.6.69.5.69.5.7.5.69.6.7.5.7.5.7.5.71.5.7.5.71.5.7.5.71.5.71.5.72.5.71.5.72.5.71.5.72.5.72.5.73.5.72.5.72.5.73.4.73.5.73.5.73.5.73.4.73.5.74.5.74.4.74.5.74.5.74.4.74.5.74.4.75.5.75.4.75.5.75.4.75.5.75.4.75.4.76.5.76.4.76.4.76.5.76.4.76.4.77.5.76.4.77.4.77.4.77.4.77.4.77.4.78.5.78.4.77.4.78.4.78.4.78.4.78.3.79.4.78.4.79.4.79.4.79.4.79.4.79.3.79.4.8.4.79.4.8.3.8.4.8.4.8.3.8.4.8.3.81.4.8.3.81.4.81.3.81.4.81.3.81.4.82.3.81.3.82.4.81.3.82.3.82.3.83.4.82.3.82.3.82.3.83.3.83.3.82.3.83.4.83.3.84.3.83.3.83.3.84.2.83.3.84.3.84.3.84.3.84.3.84.2.85.3.84.3.85.3.84.2.85.3.85.3.85.2.85.3.85.2.86.3.85.2.86.3.85.2.86.3.86.2.86.3.86.2.86.2.87.2.86.3.86.2.87.2.87.2.87.3.87.2.86.2.88.2.87.2.87.2.88.2.87.2.88.2.87.2.88.2.88.2.88.1.88.2.88.2.89.2.88.2.89.1.88.2.89.2.89.1.89.2.89.1.89.2.89.2.89.1.9.1.89.2.9.1.89.2.9.1.9.1.9.2.9.1.89.1.91.1.9.2.9.1.91.1.9.1.91.1.9.1.91.1.91.1.91.1.91.1.91.1.91.1.91.1.92.1h.91l.92.1.92.1.91.1h.92l.92.1.92.1h.91l.93.1h.92l.92.1h.92l.93.1h.92l.92.1h1.86l.93.1H4602.47l.93.1H4614.6l.93-.1H4618.31l.93-.1h1.86l.92-.1h.92l.93-.1h.92l.92-.1h.92l.93-.1h.92l.91-.1.92-.1h.92l.92-.1.91-.1.92-.1h.91l.92-.1.91-.1.91-.1.91-.1.91-.1.91-.1.91-.1.91-.1.9-.1.91-.1.9-.1.91-.1.9-.1.9-.2.91-.1.9-.1.89-.1.9-.2.9-.1.9-.1.9-.2.89-.1.9-.2.89-.1.89-.1.89-.2.89-.2.89-.1.89-.2.89-.1.89-.2.88-.2.89-.1.88-.2.89-.2.88-.2.88-.2.88-.1.88-.2.87-.2.88-.2.88-.2.87-.2.88-.2.87-.2.87-.2.88-.2.86-.2.88-.2.86-.3.87-.2.87-.2.86-.2.86-.3.87-.2.86-.2.86-.2.86-.3.86-.2.86-.3.85-.2.86-.3.85-.2.86-.3.85-.2.85-.3.85-.2.85-.3.85-.3.84-.2.85-.3.84-.3.85-.3.84-.2.84-.3.84-.3.84-.3.84-.3.83-.3.84-.3.83-.2.83-.3.84-.3.83-.3.83-.4.82-.3.83-.3.83-.3.82-.3.82-.3.83-.3.82-.4.82-.3.82-.3.81-.3.82-.4.81-.3.82-.3.81-.4.81-.3.81-.4.81-.3.81-.4.8-.3.81-.4.8-.3.8-.4.8-.3.8-.4.8-.4.8-.3.8-.4.79-.4.79-.4.79-.3.79-.4.8-.4.78-.4.79-.4.78-.4.79-.4.78-.3.78-.4.78-.4.78-.4.78-.4.77-.4.78-.5.77-.4.77-.4.77-.4.77-.4.77-.4.76-.4.77-.5.76-.4.76-.4.76-.5.76-.4.76-.4.76-.5.75-.4.75-.4.75-.5.75-.4.75-.5.75-.4.75-.5.74-.4.74-.5.74-.4.75-.5.73-.5.74-.4.74-.5.73-.5.73-.4.73-.5.73-.5.73-.5.73-.4.72-.5.72-.5.73-.5.72-.5.72-.5.71-.5.72-.5.71-.5.72-.5.71-.5.71-.5.7-.5.71-.5.7-.5.71-.5.7-.5.7-.5.7-.5.69-.6.7-.5.69-.5.69-.5.7-.6.68-.5.69-.5.69-.6.68-.5.68-.5.68-.6.68-.5.68-.6.67-.5.68-.5.67-.6.67-.5.67-.6.67-.6.66-.5.66-.6.67-.5.66-.6.65-.6.66-.5.66-.6.65-.6.65-.5.65-.6.65-.6.65-.6.64-.6.64-.5.65-.6.63-.6.64-.6.64-.6.63-.6.63-.6.63-.6.63-.6.63-.6.63-.6.62-.6.62-.6.62-.6.62-.6.62-.6.61-.6.61-.6.61-.6.61-.7.61-.6.6-.6.61-.6.6-.7.6-.6.6-.6.59-.6.6-.7.59-.6.59-.6.59-.7.58-.6.59-.7.58-.6.58-.6.58-.7.58-.6.57-.7.58-.6.57-.7.57-.7.56-.6.57-.7.56-.6.56-.7.56-.7.56-.6.56-.7.55-.7.55-.6.55-.7.55-.7.54-.6.55-.7.54-.7.54-.7.54-.7.53-.7.54-.6.53-.7.53-.7.53-.7.52-.7.53-.7.52-.7.52-.7.52-.7.51-.7.51-.7.52-.7.51-.7.5-.7.51-.7.5-.7.5-.7.5-.7.5-.8.49-.7.5-.7.49-.7.49-.7.48-.7.49-.8.48-.7.48-.7.48-.7.47-.8.48-.7.47-.7.47-.8.46-.7.47-.8.46-.7.46-.7.46-.8.46-.7.45-.8.45-.7.45-.8.45-.7.45-.8.44-.7.44-.8.44-.7.44-.8.43-.7.43-.8.43-.7.43-.8.43-.8.42-.7.42-.8.42-.8.42-.7.41-.8.41-.8.41-.8.41-.7.4-.8.41-.8.4-.8.4-.7.39-.8.4-.8.39-.8.39-.8.38-.8.39-.8.38-.7.38-.8.38-.8.37-.8.38-.8.37-.8.36-.8.37-.8.36-.8.36-.8.36-.8.36-.8.35-.8.36-.8.34-.8.35-.8.35-.9.34-.8.34-.8.33-.8.34-.8.33-.8.33-.8.33-.9.32-.8.33-.8.32-.8.31-.8.32-.9.31-.8.31-.8.31-.9.31-.8.3-.8.3-.8.3-.9.3-.8.29-.9.29-.8.29-.8.28-.9.28-.8.29-.8.27-.9.28-.8.27-.9.27-.8.27-.9.27-.8.26-.9.26-.8.26-.9.25-.8.26-.9.25-.8.24-.9.25-.8.24-.9.24-.9.24-.8.23-.9.24-.8.23-.9.22-.9.23-.8.22-.9.22-.9.22-.8.21-.9.21-.9.21-.9.2-.8.21-.9.2-.9.2-.9.19-.8.2-.9.18-.9.19-.9.19-.8.18-.9.18-.9.18-.9.17-.9.17-.9.17-.9.16-.8.17-.9.16-.9.16-.9.15-.9.15-.9.15-.9.15-.9.15-.9.14-.9.14-.9.13-.9.13-.9.13-.9.13-.9.13-.9.12-.9.12-.9.12-.9.11-.9.11-.9.11-.9.1-.9.11-.9.09-.9.1-.9.1-.9.09-1 .09-.9.08-.9.08-.9.08-.9.08-.9.08-.9.07-1 .07-.9.06-.9.06-.9.06-.9.06-1 .05-.9.06-.9.04-.9.05-.9.04-1 .04-.9.04-.9.03-1 .03-.9.03-.9.03-.9.02-1 .02-.9.01-.9.02-1 .01-.9v-.9l.01-1v-1.8l-.01-1v-.9l-.01-.9-.02-1-.01-.9-.02-.9-.02-1-.03-.9-.03-.9-.03-.9-.03-1-.04-.9-.04-.9-.04-1-.05-.9-.04-.9-.06-.9-.05-.9-.06-1-.06-.9-.06-.9-.06-.9-.07-.9-.07-1-.08-.9-.08-.9-.08-.9-.08-.9-.08-.9-.09-.9-.09-1-.1-.9-.1-.9-.09-.9-.11-.9-.1-.9-.11-.9-.11-.9-.11-.9-.12-.9-.12-.9-.12-.9-.13-.9-.13-.9-.13-.9-.13-.9-.13-.9-.14-.9-.14-.9-.15-.9-.15-.9-.15-.9-.15-.9-.15-.9-.16-.9-.16-.9-.17-.9-.16-.8-.17-.9-.17-.9-.17-.9-.18-.9-.18-.9-.18-.9-.19-.8-.19-.9-.18-.9-.2-.9-.19-.8-.2-.9-.2-.9-.21-.9-.2-.8-.21-.9-.21-.9-.21-.9-.22-.8-.22-.9-.22-.9-.23-.8-.22-.9-.23-.9-.24-.8-.23-.9-.24-.8-.24-.9-.24-.9-.25-.8-.24-.9-.25-.8-.26-.9-.25-.8-.26-.9-.26-.8-.26-.9-.27-.8-.27-.9-.27-.8-.27-.9-.28-.8-.27-.9-.29-.8-.28-.8-.28-.9-.29-.8-.29-.8-.29-.9-.3-.8-.3-.9-.3-.8-.3-.8-.31-.8-.31-.9-.31-.8-.31-.8-.31-.9-.32-.8-.32-.8-.33-.8-.32-.8-.33-.9-.33-.8-.33-.8-.34-.8-.33-.8-.34-.8-.34-.8-.35-.9-.35-.8-.34-.8-.36-.8-.35-.8-.36-.8-.36-.8-.36-.8-.36-.8-.37-.8-.36-.8-.37-.8-.38-.8-.37-.8-.38-.8-.38-.8-.38-.7-.39-.8-.38-.8-.39-.8-.39-.8-.4-.8-.39-.8-.4-.7-.4-.8-.41-.8-.4-.8-.41-.7-.41-.8-.41-.8-.41-.8-.42-.7-.42-.8-.42-.8-.42-.7-.43-.8-.43-.8-.43-.7-.43-.8-.43-.7-.44-.8-.44-.7-.44-.8-.44-.7-.45-.8-.45-.7-.45-.8-.45-.7-.45-.8-.46-.7-.46-.8-.46-.7-.46-.7-.47-.8-.46-.7-.47-.8-.47-.7-.48-.7-.47-.7-.48-.8-.48-.7-.48-.7-.49-.8-.48-.7-.49-.7-.49-.7-.5-.7-.49-.7-.5-.8-.5-.7-.5-.7-.5-.7-.51-.7-.5-.7-.51-.7-.52-.7-.51-.7-.51-.7-.52-.7-.52-.7-.52-.7-.53-.7-.52-.7-.53-.7-.53-.7-.53-.7-.54-.6-.53-.7-.54-.7-.54-.7-.54-.7-.55-.7-.54-.6-.55-.7-.55-.7-.55-.6-.55-.7-.56-.7-.56-.6-.56-.7-.56-.7-.56-.6-.57-.7-.56-.6-.57-.7-.57-.7-.58-.6-.57-.7-.58-.6-.58-.7-.58-.6-.58-.6-.59-.7-.58-.6-.59-.7-.59-.6-.59-.6-.6-.7-.59-.6-.6-.6-.6-.6-.6-.7-.61-.6-.6-.6-.61-.6-.61-.7-.61-.6-.61-.6-.62-.6-.61-.6-.62-.6-.62-.6-.62-.6-.62-.6-.63-.6-.63-.6-.63-.6-.63-.6-.63-.6-.63-.6-.64-.6-.64-.6-.63-.6-.65-.6-.64-.5-.64-.6-.65-.6-.65-.6-.65-.6-.65-.5-.65-.6-.66-.6-.66-.5-.65-.6-.67-.6-.66-.5-.66-.6-.66-.5-.67-.6-.67-.6-.67-.5-.67-.6-.68-.5-.67-.5-.68-.6-.68-.5-.68-.6-.68-.5-.68-.5-.69-.6-.69-.5-.68-.5-.7-.6-.69-.5-.69-.5-.7-.5-.69-.6-.7-.5-.7-.5-.7-.5-.71-.5-.7-.5-.71-.5-.7-.5-.71-.5-.71-.5-.72-.5-.71-.5-.72-.5-.71-.5-.72-.5-.72-.5-.73-.5-.72-.5-.72-.5-.73-.4-.73-.5-.73-.5-.73-.5-.73-.4-.73-.5-.74-.5-.74-.4-.73-.5-.75-.5-.74-.4-.74-.5-.74-.4-.75-.5-.75-.4-.75-.5-.75-.4-.75-.5-.75-.4-.75-.4-.76-.5-.76-.4-.76-.5-.76-.4-.76-.4-.76-.4-.77-.5-.76-.4-.77-.4-.77-.4-.77-.4-.77-.4-.78-.4-.77-.5-.77-.4-.78-.4-.78-.4-.78-.4-.78-.4-.78-.3-.79-.4-.78-.4-.79-.4-.79-.4-.79-.4-.79-.4-.79-.3-.79-.4-.79-.4-.8-.4-.8-.3-.8-.4-.8-.4-.8-.3-.8-.4-.8-.3-.81-.4-.8-.3-.81-.4-.81-.3-.81-.4-.81-.3-.81-.4-.82-.3-.81-.3-.82-.4-.81-.3-.82-.3-.82-.3-.82-.4-.83-.3-.82-.3-.82-.3-.83-.3-.83-.3-.82-.3-.83-.4-.83-.3-.84-.3-.83-.3-.83-.3-.84-.2-.83-.3-.84-.3-.84-.3-.84-.3-.84-.3-.84-.2-.85-.3-.84-.3-.85-.3-.84-.2-.85-.3-.85-.3-.85-.2-.85-.3-.85-.2-.86-.3-.85-.2-.86-.3-.85-.2-.86-.3-.86-.2-.86-.3-.86-.2-.86-.2-.86-.2-.87-.3-.86-.2-.87-.2-.87-.2-.86-.3-.88-.2-.86-.2-.88-.2-.87-.2-.87-.2-.87-.2-.88-.2-.88-.2-.88-.2-.87-.2-.88-.2-.88-.1-.88-.2-.88-.2-.89-.2-.88-.2-.89-.1-.88-.2-.89-.2-.89-.1-.89-.2-.89-.1-.89-.2-.89-.2-.89-.1-.89-.1-.9-.2-.89-.1-.9-.2-.9-.1-.9-.1-.89-.2-.91-.1-.89-.1-.91-.1-.9-.2-.9-.1-.91-.1-.9-.1-.91-.1-.9-.1-.91-.1-.91-.1-.91-.1-.91-.1-.91-.1-.91-.1-.92-.1-.91-.1h-.91l-.92-.1-.91-.1-.92-.1h-.92l-.92-.1-.92-.1h-.91l-.92-.1h-.93l-.92-.1h-.92l-.93-.1h-.92l-.92-.1h-1.86l-.92-.1h-2.79l-.93-.1H4608.07z"/></g></g></g><path d="M2563.27 4632.95l-.01 370.57" fill="none" stroke="#000" stroke-width="25.75" stroke-linecap="square" stroke-miterlimit="2.566" transform="matrix(.70816 0 0 .68985 -159.731 -2431.65)"/></g><g><text x="2133.3" y="4179.25" font-family="'Boogaloo-Regular','Boogaloo',cursive" font-size="123" fill="#fff" transform="translate(-1902.58 -3950.33)">Angular</text></g><g><text x="2180.53" y="4179.25" font-family="'Boogaloo-Regular','Boogaloo',cursive" font-size="123" transform="translate(-1341.93 -3950.33)">React</text></g><g><text x="2223.4" y="4179.25" font-family="'Boogaloo-Regular','Boogaloo',cursive" font-size="123" fill="#fff" transform="translate(-774.63 -3947.38)">V<tspan x="2277.39" y="4179.25">u</tspan>e</text></g></svg>