<svg viewBox="0 0 1921 1081" xmlns="http://www.w3.org/2000/svg" fill-rule="evenodd" clip-rule="evenodd" stroke-linecap="round" stroke-linejoin="round" stroke-miterlimit="2.566"><g transform="translate(-5909.664 .45)"><path fill="#fff" d="M5910 0h1920v1080H5910z"/><clipPath id="a"><path d="M5910 0h1920v1080H5910z"/></clipPath><g clip-path="url(#a)"><path d="M6077.153 1011.55l119.845.9 81.88.5 57.917.2h66.767l93.4-.3 94.028-.2h68.61l57.079.2 63.093.4 137.696 1 142.227.9 68.758.2 65.005.1 62.397-.2 72.84-.5 153.845-1.3 178.557-1.9h8.135v20h-8.135l-178.557-1.9-153.845-1.3-72.84-.5-62.397-.2-65.005.1-68.758.2-142.227.9-137.696 1-63.093.4-57.08.2h-68.609l-94.028-.2-93.4-.3h-66.767l-57.916.2-81.881.5-119.845.9H6061.94v-20H6077.153zM6084.123 102.5l119.845.9 81.88.5 57.917.2h66.767l93.4-.3 94.028-.2h68.61l57.079.2 63.093.4 137.696 1 142.227.9 68.758.2 65.005.1 62.397-.2 72.84-.5 153.845-1.3 178.557-1.9h8.135v20h-8.135l-178.557-1.9-153.845-1.3-72.84-.5-62.397-.2-65.005.1-68.758.2-142.227.9-137.696 1-63.093.4-57.08.2h-68.609l-94.028-.2-93.4-.3h-66.767l-57.916.2-81.881.5-119.845.9H6068.91v-20H6084.123zM6353.084 180.91l64.45.3 66.23.3 45.39.1 64.97-.1 94.14-.2 95.63-.2 69.48-.2 62.92.2 86.51.2 85.58.3 60.11.1 57.02-.1 81.67-.3 79.87-.2 31-.1 20.62.1 56.09.5 83.83 1 113.31 1.4v4.8l-3.84.1-109.47 1.3-83.83 1-56.09.5-20.62.1-31-.1-79.87-.2-81.67-.3-57.02-.1-60.11.1-85.58.3-86.51.2-62.92.2-69.48-.2-95.63-.2-94.14-.2-64.97-.1-45.39.1-66.23.3-64.45.3-24.5.1h-15.57l-48.48-.5-74.98-.9-114.93-1.5h-5.4v-5.4h5.4l114.93-1.5 74.98-.9 48.48-.5h15.57l24.5.1zM6353.084 320.1l64.45.3 66.23.3 45.39.1 64.97-.1 94.14-.2 95.63-.2 69.48-.2 62.92.2 86.51.2 85.58.3 60.11.1 57.02-.1 81.67-.3 79.87-.2 31-.1 20.62.1 56.09.5 83.83 1 113.31 1.4v4.8l-3.84.1-109.47 1.3-83.83 1-56.09.5-20.62.1-31-.1-79.87-.2-81.67-.3-57.02-.1-60.11.1-85.58.3-86.51.2-62.92.2-69.48-.2-95.63-.2-94.14-.2-64.97-.1-45.39.1-66.23.3-64.45.3-24.5.1h-15.57l-48.48-.5-74.98-.9-114.93-1.5h-5.4v-5.4h5.4l114.93-1.5 74.98-.9 48.48-.5h15.57l24.5.1zM6353.084 459.29l64.45.3 66.23.3 45.39.1 64.97-.1 94.14-.2 95.63-.2 69.48-.2 62.92.2 86.51.2 85.58.3 60.11.1 57.02-.1 81.67-.3 79.87-.2 31-.1 20.62.1 56.09.5 83.83 1 113.31 1.4v4.8l-3.84.1-109.47 1.3-83.83 1-56.09.5-20.62.1-31-.1-79.87-.2-81.67-.3-57.02-.1-60.11.1-85.58.3-86.51.2-62.92.2-69.48-.2-95.63-.2-94.14-.2-64.97-.1-45.39.1-66.23.3-64.45.3-24.5.1h-15.57l-48.48-.5-74.98-.9-114.93-1.5h-5.4v-5.4h5.4l114.93-1.5 74.98-.9 48.48-.5h15.57l24.5.1zM6353.084 598.48l64.45.3 66.23.3 45.39.1 64.97-.1 94.14-.2 95.63-.2 69.48-.2 62.92.2 86.51.2 85.58.3 60.11.1 57.02-.1 81.67-.3 79.87-.2 31-.1 20.62.1 56.09.5 83.83 1 113.31 1.4v4.8l-3.84.1-109.47 1.3-83.83 1-56.09.5-20.62.1-31-.1-79.87-.2-81.67-.3-57.02-.1-60.11.1-85.58.3-86.51.2-62.92.2-69.48-.2-95.63-.2-94.14-.2-64.97-.1-45.39.1-66.23.3-64.45.3-24.5.1h-15.57l-48.48-.5-74.98-.9-114.93-1.5h-5.4v-5.4h5.4l114.93-1.5 74.98-.9 48.48-.5h15.57l24.5.1zM6353.084 737.67l64.45.3 66.23.3 45.39.1 64.97-.1 94.14-.2 95.63-.2 69.48-.2 62.92.2 86.51.2 85.58.3 60.11.1 57.02-.1 81.67-.3 79.87-.2 31-.1 20.62.1 56.09.5 83.83 1 113.31 1.4v4.8l-3.84.1-109.47 1.3-83.83 1-56.09.5-20.62.1-31-.1-79.87-.2-81.67-.3-57.02-.1-60.11.1-85.58.3-86.51.2-62.92.2-69.48-.2-95.63-.2-94.14-.2-64.97-.1-45.39.1-66.23.3-64.45.3-24.5.1h-15.57l-48.48-.5-74.98-.9-114.93-1.5h-5.4v-5.4h5.4l114.93-1.5 74.98-.9 48.48-.5h15.57l24.5.1zM6353.084 876.86l64.45.3 66.23.3 45.39.1 64.97-.1 94.14-.2 95.63-.2 69.48-.2 62.92.2 86.51.2 85.58.3 60.11.1 57.02-.1 81.67-.3 79.87-.2 31-.1 20.62.1 56.09.5 83.83 1 113.31 1.4v4.8l-3.84.1-109.47 1.3-83.83 1-56.09.5-20.62.1-31-.1-79.87-.2-81.67-.3-57.02-.1-60.11.1-85.58.3-86.51.2-62.92.2-69.48-.2-95.63-.2-94.14-.2-64.97-.1-45.39.1-66.23.3-64.45.3-24.5.1h-15.57l-48.48-.5-74.98-.9-114.93-1.5h-5.4v-5.4h5.4l114.93-1.5 74.98-.9 48.48-.5h15.57l24.5.1z"/><g><path d="M6075.725 66.637V63.55v1036.183l-4.295.319-4.295-.319V63.55h8.59v3.087zM7672.365 66.637V63.55v1036.183l-4.295.319-4.295-.319V63.55h8.59v3.087z"/></g><g><path fill="#c52033" stroke="#000" stroke-width="10.0008711" d="M6197.663 87.37l234.25-62.767 30.288 113.035-234.25 62.768z"/><text x="2172.32" y="4179.25" font-family="'Boogaloo-Regular','Boogaloo',cursive" font-size="94" fill="#fff" transform="scale(.76989) rotate(-15 -9969.477 -20342.829)">Angular</text></g><g><path fill="#00d8ff" stroke="#000" stroke-width="10.0008711" d="M6737.733 87.37l234.25-62.767 30.288 113.035-234.25 62.768z"/><text x="2208.42" y="4179.25" font-family="'Boogaloo-Regular','Boogaloo',cursive" font-size="94" transform="matrix(.74365 -.19926 .19926 .74365 4331.943 -2513.256)">React</text></g><g><path fill="#3cb884" d="M7277.793 87.37l234.25-62.767 30.288 113.035-234.25 62.768z"/><path d="M7515.043 19.408l1.761 1.544 1.033 2.099 30.288 113.035.159 2.349-.76 2.196-1.542 1.768-2.096 1.04-234.251 62.767-2.336.148-2.22-.76-1.755-1.523-1.036-2.113L7272 88.923l-.155-2.334.753-2.218 1.544-1.761 2.099-1.033 234.25-62.767 2.334-.155 2.218.753zM7285.138 91.61l27.184 101.45 222.664-59.663-27.183-101.45-222.665 59.663z"/><g><text x="2241.18" y="4179.25" font-family="'Boogaloo-Regular','Boogaloo',cursive" font-size="94" transform="scale(.76989) rotate(-15 -9231.272 -25676.337)">V<tspan x="2282.44" y="4179.25">u</tspan>e</text></g></g></g></g></svg>