<svg viewBox="0 0 1921 1080" xmlns="http://www.w3.org/2000/svg" fill-rule="evenodd" clip-rule="evenodd" stroke-linejoin="round" stroke-miterlimit="1.414"><path d="M.13 0h1920v1080H.13z"/><g fill="none" stroke="#fff" stroke-linecap="round" stroke-miterlimit="1.5"><path d="M417.745 969.652c-.806-.806-1.357 4.058-1.357 5.767 0 5.209-.339 9.92-.339 14.927 0 .8.34 2.374.34 2.374s5.86 1.018 8.82 1.018c2.77 0 11.084-1.005 14.248-1.357 11.292-1.254 27.125-1.529 38.335.34 2.273.378 4.378 1.418 6.785 1.017 20.655-3.442 42.614 3.147 63.439-1.018 6.387-1.277 13.348-.678 19.675-.678.34 0 .778.24 1.018 0 .18-.18-.34-23.01-.34-20.694" stroke-width="14.721501200000002" stroke-dasharray="0,1.02,0,0"/><path d="M349.557 848.542c-.668 0-.678.645-.678 1.357 0 7.307-.679 14.614-.679 22.39 0 17.144 1.849 54.77 13.23 66.152 11.254 11.254 28.607 20.468 45.799 24.765 25.792 6.448 55.526-3.08 81.418 3.393 3.855.963 8.157-.93 11.874 0 7.933 1.983 57.03 2.28 64.796.339 6.444-1.61 14.124.38 20.354-1.696 17.653-5.885 40.576-18.937 47.156-38.674 6.732-20.2 11.347-60.641 7.123-81.758-2.299-11.497.943-24.122-1.356-35.62-2.353-11.764 2.606-29.284-7.124-39.014-12.456-12.455-27.79-21.48-45.46-24.426-15.731-2.621-30.63 2.463-45.458 5.429-28.39 5.677-58.022 9.925-86.168 16.962-5.813 1.453-11.596 4.286-17.301 5.427-10.704 2.142-36.167 5.02-46.138 1.697-3.185-1.062-12.18-3.853-13.91-6.446-.825-1.24-6.161-9.443-7.801-7.802-.952.95 2.318 4.297 2.713 5.088 1.342 2.684.343 6.454 1.697 9.16 3.135 6.271-.579 19.615-2.036 25.443-1.445 5.781-13.395 27.982-17.301 31.89-2.576 2.575-6.973 5.275-8.82 7.123-2.115 2.114-8.437 2.464-9.839-.34-6.379-12.757-4.656-27.106-8.141-41.048-7.9-31.6 2.701-62.735 16.962-91.256 7.709-15.42 14.476-31.298 28.835-42.066 22.559-16.92 67.621-32.794 95.667-36.3 7.497-.937 17.892-5.959 25.444-4.07 18.057 4.514 36.322 7.044 54.28 11.534 17.408 4.352 38.792 9.797 53.26 21.372 27.139 21.711 50.898 65.193 57.672 99.06 2.653 13.264 5.765 30.54 2.375 44.1-1.019 4.075-4.122 8.296-5.429 12.214-1.78 5.345-6.132 10.727-9.159 15.266-1.467 2.2-5.577 7.224-4.41 6.446" stroke-width="15.0023909" stroke-dasharray="0,1.04,0,0"/><path d="M449.295 821.402c0-9.031-10.745 5.578-2.036 8.482 3.926 1.308 14.406-5.393 11.535-10.178-3.632-6.053-11.944-3.409-10.517 3.732 1.007 5.033 9.02.996 8.142-3.393-1.568-7.84-12.282-1.689-13.23 3.053-.976 4.88 8.01 4.056 10.516 3.053M535.803 816.653c-6.012-6.012-13.707 10.312-8.82 13.57 8.084 5.39 12.89-.922 12.89-8.482 0-2.07-2.483-2.214-3.731-2.713-5.753-2.302-6.332 7.085-.34 5.088 1.624-.54-5.428-5.167-5.428 1.018" stroke-width="14.721501200000002" stroke-dasharray="0,1.02,0,0"/></g><path d="M496.28 870.506h.563l.56.01.559.01h.554l.55.02.543.01.712.02.71.01 1.46.03.747.02.754.02.762.02.389.01.39.01.392.02.387.01.395.02.399.01.395.02.402.02.402.02.403.03.408.02.406.03.408.03.412.03.415.03.41.04.415.04.418.04.417.04.42.05.419.05.423.05.425.05.424.06.425.06.419.07.218.04.217.03.219.04.207.03.214.04.225.04.215.04.206.04.216.05.22.04.213.04.214.05.223.05.214.05.21.04.226.06.216.05.212.05.22.06.22.05.214.06.217.05.223.07.216.06.217.06.215.06.216.07.224.06.218.07.213.07.222.07.223.07.216.08.208.07.222.08.226.08.216.08.21.08.215.08.224.09.224.09.218.09.212.09.212.08.216.1.226.1.22.1.202.09.225.1.235.12.223.1.224.11.223.11.222.12.22.11.213.11.226.12.219.12.216.12.223.12.208.12.214.12.216.13.218.12.21.13.206.12.216.13.219.14.204.13.199.12.218.14.21.14.198.13.202.13.21.14.207.14.2.14.198.14.204.14.204.15.2.14.198.14.193.14.2.15.202.15.19.15.194.14.194.15.195.15.197.16.188.15.19.15.193.15.19.16.187.15.185.16.19.16.189.15.183.16.184.16.185.16.184.16.182.16.183.16.182.17.178.16.177.16.178.16.185.17.178.17.172.16.168.16.178.17.184.18.169.16.166.17.172.17.179.17.172.18.158.16.169.17.176.18.167.17.16.17.167.17.17.18.159.17.164.18.163.17.157.17.168.19.165.18.307.34.316.36.312.36.307.35.305.36.303.37.299.36.294.36.29.36.289.37.289.36.282.37.275.36.279.37.274.37.264.36.268.38.263.37.258.36.256.37.254.38.237.35.289.46.254.49.217.5.18.52.143.53.104.54.063.54.024.55-.016.54-.056.55-.095.54-.135.53-.173.52-.211.51-.247.49-.282.46-.316.45-.347.43-.378.39-.405.37-.431.34-.455.31-.476.27-.494.23-.51.2-.524.16-.534.13-.541.08-.546.04-.548.01-.547-.04-.542-.07-.536-.12-.526-.15-.513-.2-.497-.22-.48-.27-.46-.3-.435-.33-.41-.36-.384-.39-.353-.42-.322-.45-.205-.3-.196-.29-.201-.29-.205-.29-.205-.29-.208-.29-.217-.29-.212-.29-.215-.29-.224-.29-.222-.29-.222-.28-.227-.29-.232-.29-.233-.28-.233-.29-.236-.28-.24-.28-.241-.28-.241-.28-.246-.28-.256-.28-.118-.13-.12-.13-.13-.14-.123-.14-.126-.13-.131-.14-.121-.13-.127-.13-.133-.14-.128-.13-.12-.13-.13-.13-.141-.14-.127-.13-.122-.12-.132-.13-.137-.13-.135-.14-.121-.11-.131-.13-.14-.13-.136-.13-.131-.12-.127-.12-.135-.12-.135-.13-.137-.12-.134-.12-.134-.12-.134-.12-.135-.12-.135-.11-.136-.12-.14-.12-.132-.11-.134-.11-.14-.12-.14-.11-.135-.11-.135-.11-.138-.11-.142-.11-.132-.11-.137-.11-.14-.1-.138-.11-.143-.11-.134-.1-.135-.1-.145-.1-.14-.1-.137-.1-.135-.1-.137-.09-.143-.1-.141-.1-.137-.09-.133-.09-.143-.1-.148-.09-.133-.09-.13-.08-.15-.1-.142-.09-.13-.08-.135-.08-.145-.09-.14-.08-.135-.08-.136-.08-.14-.08-.146-.08-.131-.07-.141-.08-.136-.07-.132-.07-.146-.08-.136-.07-.137-.07-.136-.07-.137-.06-.137-.07-.127-.06-.137-.06-.13-.06-.112-.05-.107-.05-.12-.05-.123-.06-.124-.05-.12-.04-.114-.05-.116-.05-.125-.04-.132-.05-.126-.05-.117-.04-.123-.05-.137-.04-.13-.05-.123-.04-.127-.04-.134-.04-.131-.04-.125-.04-.136-.04-.136-.04-.136-.04-.137-.04-.131-.03-.137-.04-.14-.04-.14-.03-.134-.04-.144-.03-.142-.03-.134-.04-.148-.03-.146-.03-.137-.03-.147-.03-.15-.04-.141-.02-.147-.03-.157-.03-.147-.03-.14-.03-.151-.02-.157-.03-.147-.02-.15-.03-.15-.02-.313-.05-.312-.05-.313-.04-.313-.04-.318-.04-.322-.04-.322-.03-.326-.04-.326-.03-.331-.03-.334-.03-.331-.03-.334-.02-.338-.03-.342-.02-.338-.02-.344-.02-.345-.02-.345-.01-.35-.02-.347-.01-.351-.02-.356-.01-.353-.01-.352-.02-.354-.01-.718-.02-.72-.01-.724-.02-1.457-.03-.734-.02-.723-.02-.51-.01-.503-.01-.504-.01h-.503l-.51-.01h-2.556l-.516.01-.516.01-.517.01-.52.01-.52.02-.518.01-.52.02-.523.02-.523.03-.52.02-.522.03-.523.03-.523.03-.525.04-.523.04-.522.04-.522.04-.523.05-.522.05-.524.05-.523.05-.257.03-.264.03-.254.03-.26.03-.264.03-.26.03-.258.04-.26.03-.258.03-.26.04-.258.03-.26.04-.258.03-.253.04-.26.04-.257.04-.254.04-.263.04-.253.04-.252.04-.256.04-.258.05-.258.04-.252.05-.251.04-.253.05-.256.05-.25.04-.251.05-.254.05-.251.05-.25.05-.254.06-.25.05-.243.05-.252.06-.25.05-.244.06-.25.05-.247.06-.243.06-.25.06-.246.06-.24.06-.241.06-.245.07-.246.06-.24.07-.24.06-.241.07-.24.06-.238.07-.237.07-.24.07-.238.07-.236.07-.236.07-.234.08-.232.07-.236.07-.236.08-.228.08-.228.07-.23.08-.232.08-.228.08-.228.08-.23.08-.223.09-.225.08-.226.08-.224.09-.22.08-.222.09-.223.09-.215.09-.22.09-.221.09-.215.09-.216.09-.218.1-.214.09-.213.1-.212.09-.21.1-.213.1-.21.09-.202.1-.212.1-.208.11-.203.1-.207.1-.198.1-.204.11-.204.11-.2.1-.198.11-.198.11-.2.11-.196.11-.187.11-.198.11-.194.11-.19.12-.19.11-.187.12-.193.12-.19.12-.18.11-.184.12-.186.12-.178.12-.184.13-.184.12-.18.13-.178.12-.173.13-.176.12-.175.13-.175.13-.17.13-.17.13-.173.13-.167.14-.163.13-.17.13-.166.14-.167.14-.16.14-.156.13-.167.15-.162.14-.153.14-.157.14-.16.15-.154.14-.147.14-.153.15-.157.15-.145.15-.15.15-.154.16-.14.14-.142.15-.146.16-.146.16-.14.15-.14.16-.144.16-.133.16-.134.15-.141.17-.136.17-.13.16-.13.16-.132.17-.133.17-.127.17-.126.17-.125.17-.128.18-.122.17-.122.17-.125.18-.12.18-.118.18-.118.18-.117.18-.115.19-.113.18-.114.19-.113.19-.11.18-.11.2-.11.19-.106.19-.103.19-.106.2-.104.2-.102.2-.103.21-.097.19-.1.21-.096.21-.096.2-.096.22-.092.2-.094.22-.09.21-.087.22-.09.22-.09.22-.084.22-.094.25-.212.5-.25.49-.282.47-.317.45-.35.42-.378.4-.406.37-.433.33-.455.3-.477.27-.495.24-.511.2-.524.16-.534.12-.542.08-.546.04-.548.01-.546-.04-.543-.08-.535-.12-.525-.15-.513-.2-.497-.23-.478-.26-.458-.3-.435-.34-.41-.36-.382-.39-.352-.42-.32-.45-.288-.46-.252-.49-.216-.5-.18-.52-.14-.53-.102-.54-.062-.54-.022-.55.018-.55.058-.54.097-.54.136-.53.175-.52.116-.31.129-.33.13-.33.13-.32.137-.33.139-.33.138-.32.143-.32.143-.32.145-.31.15-.32.15-.31.155-.32.154-.3.157-.31.159-.3.159-.31.167-.3.166-.3.166-.3.17-.29.172-.3.173-.29.175-.29.179-.29.18-.28.182-.29.184-.28.186-.28.189-.28.186-.27.19-.28.197-.27.192-.27.198-.27.2-.26.202-.27.2-.26.2-.26.209-.26.21-.26.209-.25.205-.24.215-.26.219-.25.21-.24.219-.25.22-.24.219-.24.219-.23.225-.24.233-.24.22-.23.226-.23.235-.23.225-.22.23-.23.24-.22.235-.22.234-.22.237-.21.244-.22.239-.21.234-.21.248-.21.248-.21.242-.2.245-.2.245-.2.252-.2.253-.2.246-.19.254-.2.256-.19.254-.19.254-.19.257-.18.26-.19.259-.18.26-.18.257-.18.259-.17.267-.18.26-.17.267-.17.27-.18.265-.16.262-.17.27-.16.268-.16.272-.16.27-.16.267-.16.279-.16.274-.15.27-.15.276-.15.275-.15.277-.15.275-.14.275-.15.283-.14.277-.14.282-.14.279-.14.276-.13.287-.14.282-.13.279-.13.287-.13.284-.13.284-.13.286-.12.283-.13.287-.12.288-.12.285-.12.286-.12.293-.12.288-.11.287-.11.293-.12.289-.11.29-.11.29-.1.296-.11.289-.1.292-.11.294-.1.29-.1.294-.1.297-.1.298-.1.292-.09.292-.1.297-.09.296-.09.297-.09.296-.09.295-.09.296-.09.298-.08.299-.09.297-.08.297-.08.3-.08.3-.08.296-.08.297-.08.302-.07.304-.08.299-.07.294-.07.304-.08.299-.07.298-.06.305-.07.299-.07.297-.07.307-.06.302-.06.296-.07.302-.06.303-.06.298-.06.303-.06.304-.06.299-.05.303-.06.304-.05.304-.05.299-.06.299-.05.3-.05.306-.05.305-.05.296-.04.304-.05.302-.05.3-.04.306-.04.3-.05.3-.04.304-.04.3-.04.302-.04.3-.04.302-.04.302-.03.298-.04.3-.03.307-.04.297-.03.303-.03.6-.07.599-.05.598-.06.598-.05.598-.05.598-.05.594-.04.593-.04.594-.04.59-.04.59-.03.593-.03.586-.02.584-.03.587-.02.584-.02.58-.01.579-.02.578-.01.576-.01.573-.01H496.28z" fill="#fff"/><g fill="none" stroke="#fff" stroke-width="20.44" stroke-linecap="round" stroke-miterlimit="1.5" stroke-dasharray="0,1.02,0,0"><path d="M1434.08 970.667c0 5.581-.627 11.492-.627 16.88 0 .736-1.548 2.83-.936 3.438 2.34 2.34 7.685.35 10.623.938 9.659 1.931 19.49.12 29.076-1.25 13.446-1.921 36.667-.656 50.012 1.25 10.004 1.43 20.599-.735 30.639.938 5.776.963 20.843-2.909 24.69.938 2.823 2.82 4.695-11.989 4.695-15.943 0-2.117-.72-5.716-.317-5.314M1385.004 945.346c0 3.282 5.819 5.932 10.003 9.066 6.943 5.21 34.766 8.44 44.071 8.44 11.293 0 24.07 2.813 35.327.937 10.206-1.7 33.873-5.353 43.452-3.438 13.828 2.766 38.733 5.257 52.511 2.5 3.133-.625 6.072 1.687 9.068.938 14.44-3.61 30.76 2.313 44.078-6.564 8.052-5.37 11.459-22.076 13.749-31.26 4.573-18.28 5.315-38.443 2.19-57.205-1.427-8.567-.015-17.64-1.246-26.258-1.448-10.114.223-27.138-2.817-36.261-1.382-4.152-8.671-6.679-12.82-8.753-4.667-2.335-9.247-7.175-13.439-10.315-7.39-5.544-17.098-11.51-25.006-16.256-20.844-12.503-28.658-43.104-52.202-50.953-13.858-4.618-28.096 8.1-38.136 15.63-6.64 4.977-16.162 8.034-22.198 14.067-10.292 10.295-22.478 22.18-35.01 29.697-7.109 4.264-13.987 6.51-20.635 10.94-6.042 4.03-20.584 3.425-28.132 5.94-2.52.84-6.763-.737-8.75 1.25-.483.483.936 7.494 1.253 9.066 1.49 7.459 2.672 15.348 1.563 23.132-1.009 7.025-2.752 13.898-3.753 20.944-1.786 12.472 1.225 25.771-1.253 38.137-1.858 9.312 2.182 19.097.317 28.446-1.26 6.29 2.16 22.845-2.506 27.508-.339.344-3.061.375-4.372 1.25-2.146 1.43-5.863 4.56-8.131 5.314-.31.104-16.155-2.79-17.502-3.125-7.627-1.906-17.177 2.097-24.07-2.501-13.828-9.216-13.756-24.394-10.004-39.387 1.8-7.21 7.634-12.422 9.377-19.381 3.357-13.433 5.136-27.312 6.879-41.263 2.34-18.745 7.584-37.028 9.687-55.954 2.628-23.653 3.025-47.262 11.883-69.397 2.665-6.67 8.16-11.952 11.25-18.13 10.156-20.305 25.921-32.67 44.078-45.639 20.102-14.358 39.872-27.15 63.452-35.011 11.128-3.71 39.512-4.772 51.266-2.813 6.338 1.056 12.56 4.384 19.072 5.314 28.989 4.142 58.806 12.85 82.214 31.572 9.967 7.977 23.5 29.779 30.948 40.95 11.775 17.665 22.29 36.537 24.69 58.143 1.634 14.702 3.68 29.36 5.314 44.076 2.161 19.446.865 39.445 4.38 58.768 2.96 16.266 7.058 32.215 9.377 48.452 1.174 8.22 5.812 16.727 4.379 25.32-2.845 17.033-11.82 12.588-22.824 16.255-6.54 2.18-12.547 4.912-19.691 3.126-5.186-1.295-14.405-1.563-19.382-1.563-.705 0-2.268-.273-.936-.937" stroke-width="14.721501200000002"/><path d="M1469.4 818.12c-6.065 0-5.661 7.202 0 5.314 4.616-1.538 3.471-10.316-1.563-10.316-3.753 0-4.977 10.672-3.753 13.13 2.65 5.295 12.813-3.03 11.258-5.628-1.57-2.618-9.745-1.509-11.567.313-.159.157-.605 1.37-.31 1.563 1.786 1.194 11.07.674 12.186-1.563.41-.817-2.967-2.111-3.435-2.5-1.088-.905-3.925-4.63-5.625-4.064-1.102.366-5.61 6.27-4.38 7.502 1.42 1.421 7.477.112 5.943-2.188-4.149-6.218-12.813 3.284-5.632 6.877 3.385 1.693 7.864-4.927 5.941-7.815-3.42-5.13-9.881.58-6.56 5.001 2.095 2.795 7.706-3.124 6.25-5.314-2.066-3.095-8.44.327-8.44 3.439M1551.93 813.744c-2.427 0-4.378-1.956-6.568-.313-2.938 2.203-8.585 12.405-3.752 15.63 7.267 4.844 16.99-3.742 14.383-11.566-1.65-4.945-19.288-.952-12.82 8.752 1.505 2.252 10.37-.412 9.694-3.126-.267-1.071-3.392-5.747-4.689-5.314-1.001.334-2.16 5.8-1.253 6.252 1.095.546 2.197-.63 2.816-1.25 3.824-3.826-3.126-2.377-3.126.312" stroke-width="14.721501200000002"/></g><path d="M1470.46 889.126c19.13 19.138 59.87 12.008 81.68 1.281" fill="none" stroke="#fff" stroke-width="10" stroke-linecap="round" stroke-miterlimit="1.5" stroke-dasharray="0,.5,0,0"/><g><path d="M285.762 83.997s224.3 1.495 381.334 2.359c53.487.294 208.094-10.23 237.3 4.246 23.716 11.754 32.357 14.431 33.093 52.292.525 27.015 2.425 81.59 1.247 108.204-1.736 39.237 1.531 160.981-7.711 180.18-7.296 15.157-78.551 18.049-100.904 15.567-25.817-2.866-147.916 89.013-147.916 89.013s51.817-92.049 27.481-91.597c-53.987 1.003-264.922 1.177-337.38-2.866-24.906-1.39-140.413 14.602-155.84-.96-26.081-26.308-16.663-105.477-14.966-138.148 2.315-44.573-10.069-183.896 10.883-204.834 16.016-16.005 51.898-14.256 73.379-13.456z" fill="none" stroke="#fff" stroke-width="8.59" stroke-linecap="round" stroke-miterlimit="1.5" stroke-dasharray="0,.43,0,0" transform="matrix(-1.1356 0 0 1.00422 2002.71 97.357)"/></g></svg>