<svg viewBox="0 0 1921 1080" xmlns="http://www.w3.org/2000/svg" fill-rule="evenodd" clip-rule="evenodd" stroke-linejoin="round" stroke-miterlimit="1.414"><path d="M.13 0h1920v1080H.13z"/><g fill="none" stroke="#fff" stroke-linecap="round" stroke-miterlimit="1.5"><path d="M417.745 969.652c-.806-.806-1.357 4.058-1.357 5.767 0 5.209-.339 9.92-.339 14.927 0 .8.34 2.374.34 2.374s5.86 1.018 8.82 1.018c2.77 0 11.084-1.005 14.248-1.357 11.292-1.254 27.125-1.529 38.335.34 2.273.378 4.378 1.418 6.785 1.017 20.655-3.442 42.614 3.147 63.439-1.018 6.387-1.277 13.348-.678 19.675-.678.34 0 .778.24 1.018 0 .18-.18-.34-23.01-.34-20.694" stroke-width="14.721501200000002" stroke-dasharray="0,1.02,0,0"/><path d="M349.557 848.542c-.668 0-.678.645-.678 1.357 0 7.307-.679 14.614-.679 22.39 0 17.144 1.849 54.77 13.23 66.152 11.254 11.254 28.607 20.468 45.799 24.765 25.792 6.448 55.526-3.08 81.418 3.393 3.855.963 8.157-.93 11.874 0 7.933 1.983 57.03 2.28 64.796.339 6.444-1.61 14.124.38 20.354-1.696 17.653-5.885 40.576-18.937 47.156-38.674 6.732-20.2 11.347-60.641 7.123-81.758-2.299-11.497.943-24.122-1.356-35.62-2.353-11.764 2.606-29.284-7.124-39.014-12.456-12.455-27.79-21.48-45.46-24.426-15.731-2.621-30.63 2.463-45.458 5.429-28.39 5.677-58.022 9.925-86.168 16.962-5.813 1.453-11.596 4.286-17.301 5.427-10.704 2.142-36.167 5.02-46.138 1.697-3.185-1.062-12.18-3.853-13.91-6.446-.825-1.24-6.161-9.443-7.801-7.802-.952.95 2.318 4.297 2.713 5.088 1.342 2.684.343 6.454 1.697 9.16 3.135 6.271-.579 19.615-2.036 25.443-1.445 5.781-13.395 27.982-17.301 31.89-2.576 2.575-6.973 5.275-8.82 7.123-2.115 2.114-8.437 2.464-9.839-.34-6.379-12.757-4.656-27.106-8.141-41.048-7.9-31.6 2.701-62.735 16.962-91.256 7.709-15.42 14.476-31.298 28.835-42.066 22.559-16.92 67.621-32.794 95.667-36.3 7.497-.937 17.892-5.959 25.444-4.07 18.057 4.514 36.322 7.044 54.28 11.534 17.408 4.352 38.792 9.797 53.26 21.372 27.139 21.711 50.898 65.193 57.672 99.06 2.653 13.264 5.765 30.54 2.375 44.1-1.019 4.075-4.122 8.296-5.429 12.214-1.78 5.345-6.132 10.727-9.159 15.266-1.467 2.2-5.577 7.224-4.41 6.446" stroke-width="15.0023909" stroke-dasharray="0,1.04,0,0"/><path d="M449.295 821.402c0-9.031-10.745 5.578-2.036 8.482 3.926 1.308 14.406-5.393 11.535-10.178-3.632-6.053-11.944-3.409-10.517 3.732 1.007 5.033 9.02.996 8.142-3.393-1.568-7.84-12.282-1.689-13.23 3.053-.976 4.88 8.01 4.056 10.516 3.053M535.803 816.653c-6.012-6.012-13.707 10.312-8.82 13.57 8.084 5.39 12.89-.922 12.89-8.482 0-2.07-2.483-2.214-3.731-2.713-5.753-2.302-6.332 7.085-.34 5.088 1.624-.54-5.428-5.167-5.428 1.018" stroke-width="14.721501200000002" stroke-dasharray="0,1.02,0,0"/></g><path d="M441.906 883.881c5.167 5.597 13.845 8.038 20.844 10.322 9.683 3.16 19.923 3.262 30.02 2.567 16.43-1.13 34.487-3.798 48.803-12.514" fill="none" stroke="#fff" stroke-width="15" stroke-linecap="round" stroke-miterlimit="1.5" stroke-dasharray="0,.75,0,0"/><g fill="none" stroke="#fff" stroke-width="20.44" stroke-linecap="round" stroke-miterlimit="1.5" stroke-dasharray="0,1.02,0,0"><path d="M1434.08 970.667c0 5.581-.627 11.492-.627 16.88 0 .736-1.548 2.83-.936 3.438 2.34 2.34 7.685.35 10.623.938 9.659 1.931 19.49.12 29.076-1.25 13.446-1.921 36.667-.656 50.012 1.25 10.004 1.43 20.599-.735 30.639.938 5.776.963 20.843-2.909 24.69.938 2.823 2.82 4.695-11.989 4.695-15.943 0-2.117-.72-5.716-.317-5.314M1385.004 945.346c0 3.282 5.819 5.932 10.003 9.066 6.943 5.21 34.766 8.44 44.071 8.44 11.293 0 24.07 2.813 35.327.937 10.206-1.7 33.873-5.353 43.452-3.438 13.828 2.766 38.733 5.257 52.511 2.5 3.133-.625 6.072 1.687 9.068.938 14.44-3.61 30.76 2.313 44.078-6.564 8.052-5.37 11.459-22.076 13.749-31.26 4.573-18.28 5.315-38.443 2.19-57.205-1.427-8.567-.015-17.64-1.246-26.258-1.448-10.114.223-27.138-2.817-36.261-1.382-4.152-8.671-6.679-12.82-8.753-4.667-2.335-9.247-7.175-13.439-10.315-7.39-5.544-17.098-11.51-25.006-16.256-20.844-12.503-28.658-43.104-52.202-50.953-13.858-4.618-28.096 8.1-38.136 15.63-6.64 4.977-16.162 8.034-22.198 14.067-10.292 10.295-22.478 22.18-35.01 29.697-7.109 4.264-13.987 6.51-20.635 10.94-6.042 4.03-20.584 3.425-28.132 5.94-2.52.84-6.763-.737-8.75 1.25-.483.483.936 7.494 1.253 9.066 1.49 7.459 2.672 15.348 1.563 23.132-1.009 7.025-2.752 13.898-3.753 20.944-1.786 12.472 1.225 25.771-1.253 38.137-1.858 9.312 2.182 19.097.317 28.446-1.26 6.29 2.16 22.845-2.506 27.508-.339.344-3.061.375-4.372 1.25-2.146 1.43-5.863 4.56-8.131 5.314-.31.104-16.155-2.79-17.502-3.125-7.627-1.906-17.177 2.097-24.07-2.501-13.828-9.216-13.756-24.394-10.004-39.387 1.8-7.21 7.634-12.422 9.377-19.381 3.357-13.433 5.136-27.312 6.879-41.263 2.34-18.745 7.584-37.028 9.687-55.954 2.628-23.653 3.025-47.262 11.883-69.397 2.665-6.67 8.16-11.952 11.25-18.13 10.156-20.305 25.921-32.67 44.078-45.639 20.102-14.358 39.872-27.15 63.452-35.011 11.128-3.71 39.512-4.772 51.266-2.813 6.338 1.056 12.56 4.384 19.072 5.314 28.989 4.142 58.806 12.85 82.214 31.572 9.967 7.977 23.5 29.779 30.948 40.95 11.775 17.665 22.29 36.537 24.69 58.143 1.634 14.702 3.68 29.36 5.314 44.076 2.161 19.446.865 39.445 4.38 58.768 2.96 16.266 7.058 32.215 9.377 48.452 1.174 8.22 5.812 16.727 4.379 25.32-2.845 17.033-11.82 12.588-22.824 16.255-6.54 2.18-12.547 4.912-19.691 3.126-5.186-1.295-14.405-1.563-19.382-1.563-.705 0-2.268-.273-.936-.937" stroke-width="14.721501200000002"/><path d="M1469.4 818.12c-6.065 0-5.661 7.202 0 5.314 4.616-1.538 3.471-10.316-1.563-10.316-3.753 0-4.977 10.672-3.753 13.13 2.65 5.295 12.813-3.03 11.258-5.628-1.57-2.618-9.745-1.509-11.567.313-.159.157-.605 1.37-.31 1.563 1.786 1.194 11.07.674 12.186-1.563.41-.817-2.967-2.111-3.435-2.5-1.088-.905-3.925-4.63-5.625-4.064-1.102.366-5.61 6.27-4.38 7.502 1.42 1.421 7.477.112 5.943-2.188-4.149-6.218-12.813 3.284-5.632 6.877 3.385 1.693 7.864-4.927 5.941-7.815-3.42-5.13-9.881.58-6.56 5.001 2.095 2.795 7.706-3.124 6.25-5.314-2.066-3.095-8.44.327-8.44 3.439M1551.93 813.744c-2.427 0-4.378-1.956-6.568-.313-2.938 2.203-8.585 12.405-3.752 15.63 7.267 4.844 16.99-3.742 14.383-11.566-1.65-4.945-19.288-.952-12.82 8.752 1.505 2.252 10.37-.412 9.694-3.126-.267-1.071-3.392-5.747-4.689-5.314-1.001.334-2.16 5.8-1.253 6.252 1.095.546 2.197-.63 2.816-1.25 3.824-3.826-3.126-2.377-3.126.312" stroke-width="14.721501200000002"/></g><path d="M1470.46 889.126c19.13 19.138 59.87 12.008 81.68 1.281" fill="none" stroke="#fff" stroke-width="10" stroke-linecap="round" stroke-miterlimit="1.5" stroke-dasharray="0,.5,0,0"/><path d="M285.762 83.997s224.3 1.495 381.334 2.359c53.487.294 208.094-10.23 237.3 4.246 23.716 11.754 32.357 14.431 33.093 52.292.525 27.015 2.425 81.59 1.247 108.204-1.736 39.237 1.531 160.981-7.711 180.18-7.296 15.157-78.551 18.049-100.904 15.567-25.817-2.866-147.916 89.013-147.916 89.013s51.817-92.049 27.481-91.597c-53.987 1.003-264.922 1.177-337.38-2.866-24.906-1.39-140.413 14.602-155.84-.96-26.081-26.308-16.663-105.477-14.966-138.148 2.315-44.573-10.069-183.896 10.883-204.834 16.016-16.005 51.898-14.256 73.379-13.456z" fill="none" stroke="#fff" stroke-width="8.59" stroke-linecap="round" stroke-miterlimit="1.5" stroke-dasharray="0,.43,0,0" transform="matrix(1.1356 0 0 1.00422 -77.3 10.313)"/><g><path d="M452.185 852.264c-9.416-5.399-17.112-19.17-21.644-28.499-1.673-3.448-3.224-7.01-3.99-10.79-1.524-7.56-.156-16.8 7.465-20.648 7.167-3.618 14.497.562 16.997 7.675.67 1.903.332 6.246 1.402 7.661.488.63.704-1.436 1.05-2.154.677-1.395 1.375-2.777 2.066-4.166 1.904-3.827 5.724-9.125 10.656-6.89 6.53 2.968 8.19 12.641 7.54 18.982-1.613 15.702-11.232 28.37-20.303 40.564" fill="#fffc00"/></g><g><path d="M534.185 852.264c-9.416-5.399-17.112-19.17-21.644-28.499-1.673-3.448-3.224-7.01-3.99-10.79-1.524-7.56-.156-16.8 7.465-20.648 7.167-3.618 14.497.562 16.997 7.675.67 1.903.332 6.246 1.402 7.661.488.63.704-1.436 1.05-2.154.677-1.395 1.375-2.777 2.066-4.166 1.904-3.827 5.724-9.125 10.656-6.89 6.53 2.968 8.19 12.641 7.54 18.982-1.613 15.702-11.232 28.37-20.303 40.564" fill="#fffc00"/></g></svg>