<svg viewBox="0 0 1921 1080" xmlns="http://www.w3.org/2000/svg" fill-rule="evenodd" clip-rule="evenodd" stroke-linejoin="round" stroke-miterlimit="1.414"><path d="M.13 0h1920v1080H.13z"/><path d="M980.02 756.901c3.66-2.033 7.64-2.282 11.68-2.972 13.26-2.258 24.95-1.083 36.34 6.461M898.41 732.156c3.44-2.249 8.04-2.986 12.01-3.665 11.53-1.97 27.33-2.587 36.97 5.096M932.81 829.673c3.83-1.276 8.11-1.016 12.08-1.235 13.28-.73 28.16 1.761 38.29 11.219" fill="none" stroke="#fff" stroke-width="12.15" stroke-linecap="round" stroke-miterlimit="1.5"/><g fill="none" stroke="#fff" stroke-linecap="round" stroke-miterlimit="1.5"><path d="M883.725 913.708c-.806-.806-1.357 4.058-1.357 5.767 0 5.209-.339 9.92-.339 14.927 0 .8.34 2.374.34 2.374s5.86 1.018 8.82 1.018c2.77 0 11.084-1.005 14.248-1.357 11.292-1.254 27.125-1.529 38.335.34 2.273.378 4.378 1.418 6.785 1.017 20.655-3.442 42.614 3.147 63.439-1.018 6.387-1.277 13.348-.678 19.675-.678.34 0 .778.24 1.018 0 .18-.18-.34-23.01-.34-20.694" stroke-width="14.721501200000002" stroke-dasharray="0,1.02,0,0"/><path d="M815.537 792.598c-.668 0-.678.645-.678 1.357 0 7.307-.679 14.614-.679 22.39 0 17.144 1.849 54.77 13.23 66.152 11.254 11.254 28.607 20.468 45.799 24.765 25.792 6.448 55.526-3.08 81.418 3.393 3.855.963 8.157-.93 11.874 0 7.933 1.983 57.03 2.28 64.796.339 6.444-1.61 14.124.38 20.354-1.696 17.653-5.885 40.576-18.937 47.156-38.674 6.732-20.2 11.347-60.641 7.123-81.758-2.299-11.497.943-24.122-1.356-35.62-2.353-11.764 2.606-29.284-7.124-39.014-12.456-12.455-27.79-21.48-45.46-24.426-15.731-2.621-30.63 2.463-45.458 5.429-28.39 5.677-58.022 9.925-86.168 16.962-5.813 1.453-11.596 4.286-17.301 5.427-10.704 2.142-36.167 5.02-46.138 1.697-3.185-1.062-12.18-3.853-13.91-6.446-.825-1.24-6.161-9.443-7.801-7.802-.952.95 2.318 4.297 2.713 5.088 1.342 2.684.343 6.454 1.697 9.16 3.135 6.271-.579 19.615-2.036 25.443-1.445 5.781-13.395 27.982-17.301 31.89-2.576 2.575-6.973 5.275-8.82 7.123-2.115 2.114-8.437 2.464-9.839-.34-6.379-12.757-4.656-27.106-8.141-41.048-7.9-31.6 2.701-62.735 16.962-91.256 7.709-15.42 14.476-31.298 28.835-42.066 22.559-16.92 67.621-32.794 95.667-36.3 7.497-.937 17.892-5.959 25.444-4.07 18.057 4.514 36.322 7.044 54.28 11.534 17.408 4.352 38.792 9.797 53.26 21.372 27.139 21.711 50.898 65.193 57.672 99.06 2.653 13.264 5.765 30.54 2.375 44.1-1.019 4.075-4.122 8.296-5.429 12.214-1.78 5.345-6.132 10.727-9.159 15.266-1.467 2.2-5.577 7.224-4.41 6.446" stroke-width="15.0023909" stroke-dasharray="0,1.04,0,0"/><path d="M915.275 765.458c0-9.031-10.745 5.578-2.036 8.482 3.926 1.308 14.406-5.393 11.535-10.178-3.632-6.053-11.944-3.409-10.517 3.732 1.007 5.033 9.02.996 8.142-3.393-1.568-7.84-12.282-1.689-13.23 3.053-.976 4.88 8.01 4.056 10.516 3.053M1001.783 760.709c-6.012-6.012-13.707 10.312-8.82 13.57 8.084 5.39 12.89-.922 12.89-8.482 0-2.07-2.483-2.214-3.731-2.713-5.753-2.302-6.332 7.085-.34 5.088 1.624-.54-5.428-5.167-5.428 1.018" stroke-width="14.721501200000002" stroke-dasharray="0,1.02,0,0"/></g><path d="M898.301 891.209c4.213 3.396 33.918-6.44 44.43-9.123 11.904-3.041 33.344-8.317 45.676-9.274 1.709-.132 3.846-.282 5.47.403 8.168 3.462 6.483 16.41-.233 19.054-7.582 2.984-10.463 4.019-16.934 5.233-7.057 1.322-10.94 2.775-17.887 4.477-2.783.683-6.336 1.682-9.145 2.267-.683.142-2.625.173-3.113.613-.464.428 1.026.748 1.538 1.13 1.038.78 2.1 1.577 3.028 2.496 2.625 2.634 3.749 5.834 2.992 9.53-.61 2.979-2.381 5.91-4.53 8.043-.696.691-3.101 1.944-3.394 2.764-.086.235 3.15 2.072 3.48 2.342 2.1 1.75 3.565 4.206 3.406 7.029-.196 3.494-2.076 7.7-4.493 10.236a14.327 14.327 0 0 1-3.175 2.473c-.134.083-1.257.574-1.27.702-.024.262 2.748 1.984 3.077 2.386 1.66 2.007 1.478 4.212 1.05 6.762-.976 5.773-9.291 8.504-14.285 10.5-9.059 3.62-25.737 5.802-36.384 5.36-9.547-.395-24.736-5.85-27.52-8.014-6.19-4.8-12.148-9.65-16.238-16.5-2.613-4.366-9.633-27.32-7.74-35.856 1.965-8.881 5.31-19.213 11.769-25.429 5.69-5.467 15.115-11.52 18.497-18.841 3.126-6.785 3.76-9.664 2.82-16.89-.769-5.853-5.347-16.634.379-20.582 12.014-8.275 22.087 5.507 25.103 14.767.683 2.078 1.037 4.283 1.245 6.453.732 7.909.513 14.38-1.258 22.095-1.746 7.59-11.135 9.55-6.36 13.394z" fill="#ff0"/><path d="M887.227 821.109l.257.003.244.008.256.008.257.013.244.016.256.019.244.02.257.025.244.025.244.031.244.032.245.034.244.038.244.039.244.043.232.045.244.047.245.05.232.053.232.054.231.057.232.06.232.06.232.064.232.066.22.069.232.07.22.071.22.075.22.076.22.076.219.082.22.08.207.084.22.087.208.086.207.09.22.09.195.09.208.094.207.097.208.095.195.099.196.099.207.1.196.102.195.104.195.106.183.105.196.109.183.109.195.11.183.11.184.113.183.113.183.113.17.116.184.118.183.117.171.119.171.12.183.12.171.12.159.122.17.123.172.126.17.123.16.126.17.127.159.128.159.127.158.129.16.129.158.13.159.131.146.13.159.134.158.134.147.132.147.134.146.135.147.135.146.137.147.136.146.136.147.138.134.138.146.138.135.14.146.14.135.139.146.15.256.272.269.284.256.287.269.287.244.288.257.29.244.292.244.293.232.293.232.296.232.296.232.298.22.298.22.3.22.3.219.3.208.303.207.301.208.304.195.303.195.304.196.305.195.306.183.304.183.306.184.308.183.306.17.305.172.308.17.308.171.306.16.308.17.308.159.307.146.308.159.308.146.306.147.308.147.306.134.307.146.309.135.306.122.306.134.306.122.306.134.307.11.305.122.305.123.305.11.304.11.307.097.305.11.304.098.309.097.293.098.293.085.297.086.294.073.292.086.29.073.29.073.289.073.286.061.287.061.285.074.282.048.282.062.28.06.28.05.277.048.276.05.273.048.274.037.27.036.268.049.269.037.266.036.265.025.264.036.26.037.258.024.258.025.256.024.254.037.252.024.248.037.409.037.404.024.403.037.402.024.402.037.4.024.4.024.4.025.397.024.398.025.397.024.397.012.397.025.395.012.395.012.397.012.394v.393l.013.396v.393l.012.393v1.182l-.012.393v.393l-.013.396-.012.393-.012.393-.012.394-.025.394-.012.394-.024.395-.025.394-.024.395-.025.396-.036.394-.037.396-.036.397-.037.395-.037.397-.036.397-.05.397-.048.399-.049.397-.049.399-.049.4-.06.398-.062.402-.06.4-.062.401-.06.403-.074.403-.061.403-.073.404-.074.404-.085.407-.073.407-.086.407-.036.182.244-.062.415-.108.842-.22.855-.224.842-.227.855-.231.855-.233.854-.235.855-.237.855-.239.854-.238.843-.24.842-.239.83-.238.83-.237 1.637-.468 3.138-.906 1.49-.429.72-.207.708-.202.696-.196.671-.19.66-.184.634-.176.623-.17.61-.162.574-.151.293-.076.269-.072 1.16-.296 1.209-.306 1.27-.319 1.306-.327 1.343-.336 1.392-.344 1.428-.35.733-.176.732-.178.745-.18.745-.18.757-.18.757-.18.769-.183.781-.182.782-.18.781-.182.782-.182.793-.18.794-.182.806-.18.793-.179.806-.177.806-.177.806-.175.806-.175.805-.172.818-.171.806-.17.806-.167.806-.165.806-.162.806-.16.805-.158.794-.155.806-.152.793-.15.782-.146.793-.142.782-.139.781-.135.77-.132.769-.127.39-.064.379-.06.378-.062.379-.058.378-.059.367-.057.378-.056.379-.054.366-.054.366-.052.379-.052.354-.05.366-.049.366-.047.366-.047.355-.044.366-.043.354-.043.354-.04.354-.04.342-.037.354-.037.342-.035.354-.033.342-.032.342-.03.342-.03.33-.026.365-.028.391-.028.22-.014.22-.015.244-.012.244-.013.256-.012.257-.008.268-.008.281-.006.293-.002.306.001.305.004.317.008.33.014.342.018.317.023.208.017.183.016.183.019.183.02.196.022.195.025.195.028.196.029.195.032.207.035.208.038.208.04.207.043.22.048.22.051.22.054.22.058.231.063.22.065.232.073.244.075.244.082.232.084.245.092.244.096.232.096.22.096.207.09.208.093.195.095.207.098.196.1.195.101.208.105.183.105.195.108.196.111.195.112.195.115.183.117.184.118.183.12.195.124.183.123.171.126.183.128.171.13.183.131.171.135.171.136.171.136.171.137.171.141.159.143.158.143.16.145.158.147.159.146.158.153.16.15.146.149.146.154.147.156.146.156.147.16.134.155.134.16.147.162.122.158.134.164.134.163.123.166.134.167.122.162.122.17.11.168.122.166.11.172.122.169.11.17.11.174.097.172.11.171.098.174.11.174.098.172.085.172.098.178.097.178.086.176.098.175.085.176.073.176.086.177.085.18.073.177.086.177.073.177.073.178.074.178.06.18.074.18.061.18.073.18.061.173.061.182.061.18.05.181.06.175.05.182.048.181.049.175.049.183.048.176.05.175.036.183.049.182.036.177.037.175.049.184.024.177.037.175.037.184.036.197.049.333.049.357.049.354.036.354.037.354.037.35.024.355.012.354.012.352.013.346v.695l-.013.35-.012.347-.024.345-.012.343-.037.343-.037.343-.036.343-.037.34-.049.339-.049.342-.06.335-.062.335-.073.34-.061.334-.085.334-.074.331-.085.331-.098.335-.098.33-.097.325-.11.326-.11.33-.11.326-.122.324-.122.322-.134.321-.135.321-.146.32-.147.32-.146.315-.159.315-.159.315-.17.312-.184.31-.17.31-.184.289-.097.172-.098.15-.098.155-.11.153-.097.149-.098.151-.11.15-.11.148-.11.154-.11.146-.097.146-.122.147-.11.15-.122.147-.11.143-.122.144-.122.145-.123.146-.122.14-.134.142-.122.143-.134.14-.135.143-.122.133-.146.139-.135.138-.134.136-.146.138-.135.13-.146.133-.147.133-.146.13-.159.132-.146.129-.16.128-.146.125-.158.124-.171.127-.159.124-.159.118-.158.118-.171.123-.171.117-.171.115-.171.112-.183.112-.171.112-.183.112-.184.107-.17.101-.184.105-.195.104-.183.1-.195.098-.184.096-.195.094-.195.092-.196.092-.195.087-.208.086-.195.083-.17.068-.746.29-.683.268-.66.26-.647.25-.622.241-.61.233-.6.227-.585.22-.574.214-.574.207-.55.2-.292.1-.281.098-.269.096-.28.095-.27.093-.28.093-.269.091-.28.09-.269.088-.28.087-.27.087-.28.084-.269.084-.28.083-.27.08-.28.081-.269.08-.28.078-.281.077-.281.076-.281.074-.28.074-.282.074-.28.07-.281.071-.293.071-.281.069-.293.068-.293.067-.293.066-.293.066-.293.066-.305.065-.293.063-.306.064-.305.063-.317.062-.306.063-.317.062-.33.062-.61.119-.318.06-.293.054-.293.056-.28.057-.281.056-.269.056-.269.057-.268.057-.269.056-.256.057-.257.057-.256.058-.256.057-.245.058-.256.058-.244.058-.244.058-.232.059-.489.12-.488.12-.476.124-.476.124-.477.127-.476.128-.488.132-.488.135-.501.136-1.026.282-1.05.292-.537.15-.561.153-.574.155-.586.159-.477.125.037.158.061.336.061.334.049.335.049.336.036.337.037.339.025.338.024.34.024.338.013.338v.34l.012.339-.012.338v.337l-.025.336-.012.337-.024.337-.037.334-.037.335-.036.332-.05.332-.048.33-.049.33-.06.328-.062.32-.061.272-.061.26-.061.26-.061.259-.073.256-.061.257-.074.252-.073.248-.073.25-.086.25-.073.241-.085.245-.086.242-.085.24-.098.238-.085.238-.098.233-.098.233-.098.234-.097.228-.098.227-.11.228-.097.224-.11.223-.11.221-.11.22-.11.218-.11.22-.122.214-.11.212-.122.213-.122.211-.122.211-.122.207-.122.205-.05.095.05.104.146.248.135.246.122.25.134.254.122.257.122.26.122.266.11.267.11.27.11.275.11.277.097.278.098.283.098.286.085.29.086.29.073.295.073.296.073.3.062.303.06.303.062.307.048.307.05.313.036.314.037.314.024.313.024.319.025.32.012.32v.968l-.012.32-.012.316-.025.33-.024.316-.025.317-.036.313-.037.31-.037.308-.048.304-.05.304-.048.301-.061.3-.049.297-.061.295-.073.293-.061.29-.074.288-.073.289-.073.286-.086.284-.073.282-.085.282-.098.28-.085.277-.086.277-.098.273-.097.276-.11.274-.098.268-.11.27-.097.269-.11.266-.122.267-.11.266-.122.262-.122.262-.122.263-.123.258-.122.26-.134.256-.134.256-.135.256-.134.254-.146.253-.147.253-.146.25-.147.25-.146.247-.16.248-.158.245-.146.245-.171.245-.16.243-.158.22.061.239.086.294.06.29.074.288.049.285.06.283.038.278.048.28.037.273.037.269.024.267.024.265.013.258.024.252.012.252v.248l.013.241v.473l-.013.23v.225l-.012.22v.217l-.012.214-.025.21-.012.204-.012.2-.024.2-.013.192-.024.187-.024.205-.037.34-.049.346-.049.331-.049.319-.048.307-.05.336-.06.315-.074.355-.073.348-.085.347-.086.343-.11.342-.097.337-.11.33-.122.33-.122.324-.122.32-.135.315-.134.31-.147.305-.146.3-.147.295-.158.288-.159.286-.159.28-.17.274-.172.269-.17.262-.171.258-.171.254-.184.249-.183.243-.183.237-.183.232-.195.23-.183.224-.196.217-.183.214-.195.209-.196.205-.195.2-.195.198-.196.192-.195.185-.195.187-.196.18-.195.175-.195.174-.196.168-.207.167-.196.162-.195.158-.195.157-.196.152-.195.15-.195.147-.208.143-.195.143-.196.137-.195.136-.195.133-.196.13-.195.129-.195.127-.196.122-.195.12-.183.12-.196.119-.195.115-.195.112-.184.111-.195.11-.195.107-.183.107-.196.102-.183.103-.195.101-.183.098-.183.098-.196.1-.354.182-.366.18-.366.176-.355.171-.354.165-.354.16-.354.156-.342.151-.33.147-.341.143-.33.139-.317.134-.318.13-.317.13-.305.122-.306.121-.293.119-.561.22-1.05.406-.464.184-.464.182-.244.1-.281.108-.281.109-.28.105-.294.105-.28.103-.294.102-.28.1-.294.099-.293.097-.293.097-.293.095-.293.094-.293.093-.293.091-.305.092-.293.09-.305.088-.305.087-.293.087-.306.085-.305.084-.305.083-.318.083-.305.082-.305.08-.318.08-.305.078-.317.078-.318.077-.317.076-.305.076-.318.073-.33.073-.317.074-.317.07-.318.071-.33.07-.317.07-.33.068-.317.067-.33.066-.33.066-.329.064-.33.065-.317.062-.342.064-.33.061-.33.061-.329.06-.33.058-.33.059-.341.057-.33.057-.33.056-.341.055-.33.053-.342.054-.33.053-.341.05-.33.052-.342.05-.342.05-.33.048-.341.048-.342.046-.33.046-.341.046-.342.043-.33.043-.342.043-.342.041-.33.042-.341.04-.342.04-.33.037-.342.038-.341.037-.33.035-.342.035-.33.035-.342.033-.33.033-.341.031-.342.03-.33.03-.33.03-.341.028-.33.026-.33.027-.329.025-.342.024-.33.025-.33.021-.329.022-.33.021-.33.021-.329.018-.317.019-.33.017-.33.016-.317.015-.33.015-.317.014-.318.012-.33.01-.317.012-.317.01-.318.008-.317.007-.317.008-.318.005-.305.004-.318.004-.305.003-.317.002h-.611l-.305-.002-.305-.003-.305-.004-.306-.004-.305-.007-.293-.007-.305-.007-.305-.01-.293-.011-.306-.01-.293-.014-.317-.017-.305-.019-.306-.02-.305-.024-.305-.024-.305-.028-.306-.028-.305-.032-.305-.032-.305-.035-.305-.036-.306-.037-.305-.04-.305-.042-.305-.043-.306-.044-.305-.046-.305-.048-.305-.049-.306-.05-.305-.051-.305-.054-.305-.054-.293-.056-.306-.056-.305-.059-.305-.06-.305-.06-.293-.061-.305-.064-.306-.063-.305-.065-.293-.066-.305-.068-.305-.069-.293-.068-.306-.071-.293-.07-.305-.073-.293-.072-.305-.074-.293-.075-.293-.076-.306-.075-.293-.077-.293-.078-.293-.078-.293-.08-.293-.08-.293-.08-.293-.083-.574-.162-.573-.166-.574-.169-.562-.17-.561-.173-.562-.174-.55-.175-.549-.177-.537-.178-.537-.18-.525-.18-.525-.18-.513-.182-.5-.182-.501-.182-.489-.183-.488-.183-.476-.183-.464-.183-.464-.183-.452-.184-.452-.184-.427-.183-.415-.18-.232-.097-.208-.093-.207-.093-.196-.093-.207-.094-.196-.092-.207-.094-.195-.096-.196-.095-.195-.096-.195-.098-.196-.098-.195-.099-.196-.1-.195-.105-.195-.105-.183-.105-.196-.11-.207-.113-.196-.119-.195-.12-.208-.125-.207-.134-.22-.14-.22-.148-.22-.162-.244-.173-.207-.154-.635-.497-.598-.466-.599-.473-.598-.473-.305-.244-.305-.243-.306-.245-.305-.245-.305-.248-.305-.25-.305-.253-.318-.254-.305-.255-.305-.258-.306-.26-.305-.261-.317-.265-.306-.267-.305-.269-.317-.271-.305-.275-.306-.276-.305-.28-.317-.281-.306-.285-.305-.288-.305-.29-.305-.293-.318-.297-.305-.3-.305-.302-.293-.305-.305-.31-.306-.313-.305-.315-.305-.32-.293-.322-.305-.326-.293-.33-.293-.333-.294-.337-.293-.342-.293-.336-.146-.182-.147-.174-.146-.176-.147-.177-.134-.18-.146-.178-.147-.177-.134-.182-.147-.182-.134-.182-.147-.184-.134-.184-.146-.187-.135-.187-.146-.188-.135-.188-.134-.19-.134-.191-.134-.193-.135-.192-.134-.195-.134-.195-.135-.196-.134-.197-.134-.2-.135-.198-.122-.2-.134-.202-.134-.204-.122-.203-.122-.204-.135-.207-.122-.207-.146-.236-.135-.232-.146-.253-.122-.246-.135-.24-.122-.24-.122-.236-.11-.236-.11-.237-.11-.233-.11-.236-.11-.236-.11-.24-.097-.241-.11-.243-.097-.246-.11-.249-.098-.249-.11-.255-.097-.258-.098-.26-.11-.265-.098-.266-.11-.271-.097-.273-.098-.278-.11-.282-.097-.283-.11-.287-.098-.29-.11-.295-.098-.298-.11-.3-.097-.305-.11-.307-.098-.31-.11-.314-.097-.316-.11-.32-.098-.32-.11-.326-.11-.327-.097-.33-.11-.335-.098-.336-.11-.338-.097-.34-.098-.344-.11-.345-.098-.35-.11-.349-.097-.351-.098-.356-.11-.356-.097-.358-.098-.359-.098-.362-.097-.363-.098-.365-.098-.368-.097-.368-.098-.368-.098-.371-.097-.374-.086-.373-.098-.373-.097-.375-.086-.377-.097-.378-.086-.378-.085-.378-.086-.38-.085-.38-.098-.38-.085-.381-.074-.381-.085-.384-.086-.382-.073-.382-.073-.383-.086-.382-.073-.384-.073-.383-.073-.382-.074-.384-.06-.382-.074-.382-.061-.383-.073-.383-.061-.382-.061-.38-.061-.382-.05-.38-.06-.38-.05-.381-.048-.38-.049-.378-.049-.379-.048-.378-.037-.379-.037-.376-.049-.377-.036-.376-.025-.376-.036-.378-.025-.373-.024-.376-.024-.375-.013-.376-.024-.376-.012-.375v-.375l-.013-.377v-.755l.013-.378v-.381l.012-.366.012-.207.012-.189.013-.192.012-.197.012-.192.012-.193.025-.195.012-.196.024-.196.025-.197.012-.196.024-.2.025-.2.036-.202.025-.202.036-.202.037-.203.037-.208.036-.207.037-.207.049-.208.036-.193.11-.475.098-.46.11-.46.11-.464.11-.467.122-.47.11-.473.122-.475.122-.477.122-.48.134-.48.134-.484.135-.488.134-.487.147-.488.146-.492.147-.492.146-.493.159-.495.159-.497.17-.497.16-.49.085-.257.085-.25.086-.25.097-.25.086-.25.085-.25.098-.25.085-.25.098-.252.085-.252.098-.251.098-.25.097-.252.098-.25.098-.25.11-.252.097-.252.098-.251.11-.25.11-.253.097-.25.11-.25.11-.254.11-.25.11-.25.122-.25.11-.252.122-.252.11-.249.122-.249.122-.251.122-.25.11-.25.134-.249.123-.249.122-.25.134-.247.122-.247.134-.25.135-.247.134-.247.134-.25.135-.246.146-.245.134-.248.147-.245.146-.245.147-.244.146-.246.147-.243.146-.243.16-.243.146-.242.158-.242.16-.243.158-.24.159-.24.17-.24.16-.238.17-.238.171-.238.171-.236.171-.236.183-.237.171-.233.183-.233.183-.233.183-.232.184-.23.183-.232.195-.228.195-.228.196-.227.195-.227.195-.225.196-.224.207-.223.208-.222.208-.22.207-.218.22-.219.207-.216.22-.214.208-.205.183-.17.17-.166.33-.306.33-.311.342-.306.342-.304.33-.3.341-.298.33-.295.342-.292.342-.29.33-.288.341-.285.33-.285.342-.284.66-.556 1.318-1.1.659-.546.317-.267.318-.268.317-.267.306-.265.317-.265.305-.262.305-.262.294-.26.293-.258.293-.258.28-.257.281-.253.281-.252.269-.251.268-.256.122-.117.135-.123.122-.122.134-.122.122-.121.122-.121.122-.121.122-.12.11-.118.122-.119.11-.117.11-.117.11-.117.11-.115.11-.115.11-.113.097-.113.11-.113.098-.11.098-.111.097-.109.086-.108.097-.108.086-.106.085-.105.086-.105.085-.103.086-.101.085-.101.073-.1.074-.097.073-.096.073-.096.061-.094.074-.091.06-.092.062-.09.06-.088.062-.088.049-.083.048-.08.061-.082.05-.082.048-.077.037-.075.049-.074.036-.07.037-.072.036-.068.037-.067.037-.064.024-.06.037-.06.036-.08.122-.266.123-.278.122-.271.122-.263.11-.254.11-.247.097-.239.098-.23.098-.222.097-.216.074-.206.085-.2.073-.19.073-.185.062-.177.06-.17.062-.162.06-.157.05-.15.048-.144.037-.137.037-.129.036-.126.037-.122.036-.116.025-.11.024-.11.025-.105.024-.1.025-.1.012-.099.024-.11.012-.031v-.05l.013-.046v-.048l.012-.05v-.043l.012-.049.012-.052v-.079l.012-.118.013-.104.012-.107v-.11l.012-.115v-.12l.012-.124v-.562l-.012-.157v-.165l-.012-.172v-.18l-.012-.19-.013-.198-.024-.204-.012-.215-.025-.222-.024-.234-.012-.24-.037-.25-.024-.261-.037-.269-.024-.278-.037-.277-.012-.061-.012-.06-.013-.065v-.068l-.012-.079-.024-.083-.012-.087-.013-.082-.048-.215-.037-.222-.049-.238-.061-.257-.061-.27-.061-.287-.061-.299-.073-.309-.16-.667-.17-.706-.17-.738-.086-.39-.098-.396-.086-.405-.097-.413-.086-.422-.085-.43-.098-.438-.085-.447-.086-.441-.036-.24-.05-.234-.036-.234-.049-.235-.036-.238-.037-.24-.037-.243-.036-.243-.037-.248-.036-.248-.025-.25-.037-.253-.024-.254-.037-.257-.024-.26-.024-.26-.025-.266-.024-.266-.012-.268-.025-.271-.012-.274-.012-.276-.012-.278v-.283l-.013-.284v-.576l.013-.292v-.295l.012-.298.012-.303.024-.305.025-.307.024-.31.025-.316.036-.315.05-.319.048-.326.049-.324.06-.33.062-.335.073-.335.073-.339.086-.339.097-.344.086-.326.061-.196.049-.173.06-.178.062-.175.061-.177.061-.18.073-.178.061-.173.074-.18.073-.179.073-.177.073-.183.086-.178.073-.177.086-.179.085-.18.098-.18.085-.177.098-.182.098-.182.097-.178.11-.175.098-.178.11-.178.11-.18.122-.175.11-.175.122-.175.122-.174.122-.176.122-.17.134-.17.122-.17.147-.174.134-.166.134-.165.147-.166.146-.164.147-.163.146-.157.147-.16.159-.158.158-.155.16-.152.158-.152.17-.151.16-.147.17-.146.171-.143.171-.14.171-.137.171-.137.183-.136.183-.133.171-.127.171-.12.232-.16.232-.15.22-.146.232-.146.22-.143.232-.14.232-.139.232-.136.232-.135.232-.13.232-.129.232-.127.232-.123.244-.12.244-.12.232-.116.244-.114.232-.111.244-.107.244-.107.245-.102.244-.1.244-.098.256-.095.245-.092.244-.089.256-.087.257-.083.244-.08.256-.078.244-.075.257-.072.256-.068.257-.066.244-.064.268-.06.245-.056.256-.053.269-.052.256-.048.256-.044.257-.042.256-.039.257-.035.256-.033.256-.03.257-.025.256-.024.257-.02.256-.017.256-.014.257-.012.256-.007.257-.005.256-.003.256.002zm-.366 10.85l-.122.002-.134.004-.122.006-.135.006-.122.01-.134.01-.134.012-.123.012-.134.016-.134.016-.134.018-.123.02-.134.022-.134.023-.134.024-.135.026-.122.028-.134.03-.134.031-.135.033-.134.034-.134.037-.135.038-.134.04-.134.042-.135.042-.134.046-.134.047-.134.048-.147.051-.134.051-.135.054-.134.056-.134.058-.135.06-.146.06-.134.064-.135.065-.146.067-.134.068-.135.071-.134.072-.147.075-.134.075-.146.08-.135.079-.134.082-.147.084-.134.087-.146.088-.135.089-.146.093-.134.094-.147.095-.061.046-.073.048-.061.047-.061.05-.061.048-.061.05-.061.05-.062.052-.06.05-.062.052-.06.053-.05.053-.06.054-.05.055-.06.055-.05.055-.048.056-.061.056-.049.058-.049.057-.049.059-.049.058-.048.06-.037.06-.049.06-.049.06-.036.062-.05.062-.036.062-.049.063-.036.063-.037.065-.036.063-.05.065-.036.066-.037.066-.036.066-.037.067-.024.067-.037.067-.037.069-.024.068-.037.07-.036.07-.025.069-.036.07-.025.071-.024.071-.024.072-.037.072-.025.072-.024.073-.024.074-.025.073-.024.074-.025.075-.036.15-.037.152-.037.153-.036.155-.037.155-.024.158-.037.16-.024.16-.025.161-.012.162-.024.165-.025.165-.012.166-.012.167v.169l-.012.17-.013.17v1.043l.013.177.012.177.012.179v.179l.012.18.025.179.012.18.012.183.025.182.024.181.012.184.025.183.024.183.024.184.025.185.036.184.025.184.024.186.037.185.024.185.037.185.037.186.036.186.061.37.074.372.085.37.073.37.086.369.073.367.085.366.086.364.085.362.16.716.17.705.159.69.085.34.074.335.073.33.073.327.073.32.061.317.061.309.061.305.025.149.024.149.025.146.024.145.025.144.024.141.012.14.025.137.036.336.049.33.037.323.036.318.025.311.036.307.025.301.024.297.025.29.024.287.024.282.013.279.012.273.012.27.012.266v1.282l-.012.248v.246l-.024.244-.013.24-.012.24-.024.238-.025.236-.012.118-.012.117-.024.117-.013.117-.012.116-.024.118-.013.116-.024.115-.012.116-.025.116-.036.231-.049.232-.049.232-.049.231-.049.232-.06.233-.062.233-.06.235-.074.237-.061.236-.073.239-.073.24-.086.243-.085.244-.086.247-.085.25-.098.252-.086.255-.11.257-.097.262-.11.265-.11.268-.11.273-.11.276-.122.28-.122.285-.134.29-.122.293-.147.3-.134.305-.134.309-.147.315-.085.172-.074.17-.085.17-.098.171-.085.169-.086.17-.097.168-.098.169-.098.167-.097.167-.098.167-.098.166-.11.166-.11.167-.11.164-.11.165-.11.164-.109.163-.122.164-.11.162-.122.164-.122.161-.122.163-.122.16-.122.16-.135.162-.122.16-.134.16-.122.158-.135.16-.134.158-.134.157-.134.158-.147.157-.134.157-.135.156-.146.156-.147.155-.134.155-.146.155-.147.154-.146.155-.147.153-.159.154-.146.152-.147.153-.158.153-.147.151-.159.151-.158.15-.147.152-.159.15-.158.15-.159.15-.317.297-.318.297-.317.295-.33.293-.33.293-.33.291-.329.29-.33.289-.33.287-.329.285-.33.285-.341.283-.33.282-.33.28-.342.28-.659.556-1.319 1.096-.647.543-.317.27-.318.267-.317.267-.305.266-.318.265-.293.265-.305.263-.293.262-.293.261-.293.26-.28.26-.282.258-.28.258-.135.128-.134.128-.147.147-.146.149-.159.149-.146.15-.147.152-.146.154-.135.155-.146.157-.147.158-.134.16-.146.16-.135.161-.134.164-.134.165-.147.166-.134.167-.122.169-.135.17-.134.169-.134.172-.122.174-.135.174-.122.176-.134.177-.122.177-.122.18-.122.179-.122.182-.122.182-.123.183-.11.184-.122.186-.122.186-.11.186-.122.19-.11.189-.11.19-.11.19-.11.192-.11.193-.109.193-.11.196-.11.195-.11.195-.097.198-.11.198-.098.198-.11.2-.097.199-.098.201-.11.202-.098.201-.097.204-.098.203-.098.205-.097.204-.086.206-.097.205-.098.208-.086.206-.097.208-.086.209-.097.208-.086.21-.085.21-.086.21-.085.21-.086.212-.085.21-.086.213-.085.213-.086.212-.073.213-.085.213-.086.214-.073.215-.086.213-.073.215-.073.215-.086.215-.073.216-.073.215-.073.216-.074.216-.146.433-.147.433-.134.433-.134.434-.134.434-.135.434-.122.435-.122.433-.134.433-.11.434-.122.432-.122.431-.11.431-.11.43-.11.428-.11.428-.098.426-.097.425-.11.422-.098.421-.085.42-.098.417-.024.101-.025.101-.012.104-.024.105-.013.105-.024.108-.012.108-.025.11-.012.11-.012.112-.012.114-.012.115-.013.114-.012.118-.012.117-.012.12-.013.12v.121l-.012.122-.012.124v.124l-.012.126v.255l-.012.259v1.073l.012.279v.282l.012.284.024.288.013.292.024.296.012.297.025.302.036.304.025.306.024.31.037.312.036.315.037.317.037.319.049.322.036.324.049.326.049.328.049.33.049.332.06.333.05.335.06.337.062.337.048.34.061.34.074.342.06.342.062.344.073.344.073.345.061.345.074.347.073.347.073.346.086.348.073.347.073.348.086.348.073.348.085.347.086.346.085.347.073.347.086.346.098.344.085.344.085.344.086.342.085.34.098.342.086.339.085.337.098.337.097.334.086.334.098.33.085.33.098.328.097.326.098.323.085.321.098.32.098.316.098.314.085.313.098.309.097.306.098.303.098.301.097.297.086.294.097.292.098.288.098.285.085.28.098.278.098.273.085.27.098.266.097.263.086.257.085.254.098.25.086.245.097.24.086.237.085.23.086.228.085.222.086.218.085.21.085.208.086.202.073.196.086.19.085.188.073.18.074.174.085.168.073.163.074.156.073.151.06.144.074.14.073.131.061.125.062.12.073.112.06.106.099.16.085.159.098.158.11.16.097.157.098.156.098.156.097.155.11.154.098.154.097.154.11.152.098.152.11.151.11.15.097.15.11.15.11.148.11.148.098.148.11.146.11.147.11.145.11.146.121.144.11.142.11.145.11.141.122.143.11.142.11.14.122.14.11.14.122.139.232.277.232.275.244.272.232.27.244.268.245.268.244.264.256.262.244.261.257.26.244.257.256.256.257.254.256.253.256.25.27.25.255.248.27.247.268.245.268.243.269.243.269.242.268.24.269.24.268.237.281.237.269.236.28.235.281.234.281.233.281.232.269.232.293.231.28.23.281.23.281.228.28.228.294.228.28.227.575.453.573.452.574.452.586.45.061.05.074.053.085.054.073.055.086.056.098.057.085.057.098.06.097.06.11.061.11.062.122.063.11.064.122.065.134.066.123.066.134.067.134.069.147.068.146.07.147.07.146.071.159.072.159.072.158.073.16.075.17.073.171.076.354.151.354.153.379.155.39.156.391.158.403.16.415.16.427.16.44.162.44.161.451.162.464.163.464.162.476.161.476.162.489.16.488.16.5.158.501.158.513.155.513.154.513.152.513.15.525.148.268.073.257.072.268.072.257.071.268.071.257.07.268.068.269.068.256.068.269.065.268.066.269.065.256.064.269.063.269.061.256.061.269.06.268.06.257.057.268.058.257.055.268.055.257.053.268.053.257.051.256.05.269.049.256.048.256.046.257.044.256.044.257.043.256.04.256.039.245.039.256.037.244.034.257.034.244.032.244.03.244.03.244.026.232.026.244.024.245.024.232.02.232.019.232.018.232.015.232.014.22.013.231.01.245.01.256.008.256.008.257.008.256.006.269.005.256.003.269.004.268.002.269.001H901.024l.269-.003.28-.004.281-.003.281-.005.28-.006.282-.008.293-.007.28-.009.294-.01.28-.01.293-.011.293-.013.293-.012.293-.014.293-.015.306-.016.293-.016.305-.017.293-.018.305-.02.293-.02.305-.02.306-.022.305-.022.305-.023.305-.025.306-.025.305-.026.305-.026.318-.028.305-.028.305-.03.317-.028.306-.03.305-.033.317-.033.306-.033.317-.033.305-.035.318-.035.305-.036.317-.038.318-.037.305-.038.318-.04.305-.04.317-.041.305-.042.318-.041.305-.044.318-.043.305-.045.317-.045.306-.047.305-.046.317-.048.305-.047.306-.05.305-.05.317-.05.306-.05.305-.053.305-.053.305-.052.293-.055.306-.054.305-.056.305-.056.293-.056.305-.058.293-.058.293-.059.293-.058.306-.061.293-.06.293-.062.28-.062.293-.063.293-.064.281-.063.293-.065.281-.066.281-.066.28-.066.282-.067.28-.068.269-.068.28-.07.27-.07.268-.07.269-.07.268-.072.269-.072.256-.073.269-.074.256-.073.257-.074.256-.076.256-.076.245-.077.256-.077.244-.076.244-.079.232-.078.245-.08.244-.078.232-.081.232-.08.232-.082.22-.082.231-.083.22-.083.22-.083.208-.085.22-.084.476-.19.5-.193 1.026-.404.537-.212.269-.107.28-.109.269-.11.28-.114.282-.115.28-.116.281-.118.281-.121.28-.122.282-.125.293-.127.28-.13.281-.13.281-.133.28-.137.27-.138.28-.14.147-.071.134-.072.134-.073.135-.072.134-.075.134-.074.147-.075.122-.077.134-.075.135-.077.134-.078.134-.08.135-.078.122-.08.134-.081.122-.082.134-.082.122-.083.122-.083.123-.085.122-.085.122-.086.122-.087.122-.087.122-.089.122-.088.11-.09.11-.09.122-.092.11-.093.11-.092.11-.094.11-.094.11-.097.097-.096.11-.097.098-.099.097-.099.098-.1.098-.1.097-.102.098-.103.098-.103.085-.105.086-.105.085-.106.086-.107.085-.108.086-.11.073-.11.085-.11.073-.112.074-.113.073-.114.073-.115.061-.115.061-.118.074-.117.06-.118.05-.121.06-.121.05-.121.06-.123.05-.125.036-.124.049-.126.049-.127.036-.128.037-.13.036-.13.025-.132.037-.132.024-.134.024-.135.037-.238.037-.237.036-.233.037-.233.036-.23.025-.228.012-.113.012-.114.013-.112v-.113l.012-.11.012-.112.012-.11v-.11l.012-.11v-.759l-.012-.106v-.106l-.012-.105-.012-.107-.012-.103-.013-.105-.012-.104-.012-.104-.012-.104-.025-.102-.024-.103-.025-.102-.024-.102-.024-.101-.025-.101-.036-.102-.025-.1-.036-.1-.037-.099-.037-.1-.036-.099-.05-.099-.048-.097-.037-.098-.049-.098-.06-.097-.05-.097-.06-.098-.05-.095-.06-.096-.061-.097-.074-.095-.073-.095-.06-.094-.074-.095-.086-.094-.012-.02-.024-.022-.025-.023-.024-.026-.061-.055-.073-.06-.086-.068-.098-.073-.11-.077-.11-.082-.11-.084-.121-.088-.269-.184-.55-.383-.268-.191-.134-.094-.122-.092-.122-.089-.123-.085-.11-.083-.097-.08-.098-.074-.085-.07-.074-.063-.024-.03-.037-.028-.024-.027-.024-.025-.013-.023-.024-.021-.012-.02-.012-.017V951.592l.012-.008v-.008l.024-.017.012-.019.037-.02.024-.021.037-.023.037-.024.049-.025.036-.026.098-.054.11-.055.11-.056.11-.056.11-.054.207-.097.159-.078.06-.03.037-.02.11-.063.11-.064.11-.066.11-.066.098-.067.11-.069.11-.068.097-.07.11-.07.098-.073.11-.072.097-.073.098-.074.11-.076.097-.076.098-.077.098-.077.097-.079.098-.08.098-.08.097-.08.098-.084.098-.081.097-.085.086-.085.098-.086.085-.085.098-.088.085-.088.086-.089.097-.09.086-.09.11-.121.11-.123.11-.124.11-.127.11-.13.11-.131.109-.133.11-.137.098-.137.11-.14.097-.142.11-.143.098-.145.097-.147.098-.149.098-.15.097-.152.098-.153.098-.155.085-.156.098-.158.085-.159.098-.16.085-.16.086-.163.085-.164.086-.165.073-.166.086-.166.073-.167.085-.168.074-.169.073-.17.073-.17.073-.17.061-.172.074-.171.06-.172.062-.174.06-.172.062-.173.06-.174.062-.174.049-.174.049-.173.048-.173.05-.175.048-.173.049-.174.037-.173.048-.172.037-.174.037-.172.036-.17.025-.173.024-.17.037-.17.024-.169.012-.17.025-.167.024-.167.012-.166.013-.166.012-.164v-.132l.012-.132v-.391l-.012-.129v-.13l-.012-.127-.013-.127-.012-.127-.024-.126-.012-.126-.025-.126-.024-.123-.025-.125-.024-.123-.025-.122-.036-.12-.025-.123-.036-.12-.037-.12-.036-.119-.05-.117-.036-.118-.049-.116-.049-.118-.048-.114-.05-.115-.048-.114-.049-.113-.061-.113-.049-.11-.06-.112-.062-.11-.061-.108-.061-.11-.061-.107-.073-.106-.061-.106-.074-.105-.06-.104-.074-.104-.073-.102-.086-.101-.073-.102-.073-.099-.073-.099-.086-.098-.085-.097-.074-.096-.085-.096-.086-.094-.085-.094-.098-.091-.085-.092-.086-.091-.097-.09-.086-.087-.097-.088-.086-.087-.098-.085-.097-.085-.098-.084-.098-.083-.012-.013-.024-.016-.061-.038-.061-.046-.086-.055-.097-.06-.11-.067-.245-.15-.573-.352-.306-.192-.317-.195-.317-.194-.147-.097-.147-.094-.146-.091-.134-.088-.122-.086-.11-.08-.11-.077-.098-.07-.036-.034-.05-.032-.036-.03-.024-.027-.037-.027-.024-.024-.013-.024-.024-.02-.012-.02v-.023l-.012-.007v-.007l.012-.006.012-.039.012-.039.025-.04.024-.04.024-.042.037-.041.024-.042.037-.043.037-.042.036-.044.05-.044.036-.044.049-.044.048-.045.05-.046.048-.046.061-.045.049-.047.061-.046.061-.046.11-.093.122-.094.134-.095.135-.094.122-.094.146-.096.135-.094.134-.092.269-.185.268-.18.134-.087.123-.087.122-.084.11-.082.11-.08.11-.079.097-.074.037-.037.048-.035.037-.036.037-.034.036-.034.037-.033.098-.1.097-.101.11-.104.098-.104.098-.105.097-.106.098-.108.098-.107.085-.11.098-.11.097-.112.086-.112.098-.113.085-.115.098-.114.085-.116.098-.118.085-.118.086-.118.085-.12.086-.12.085-.12.086-.123.085-.123.073-.123.086-.125.073-.124.086-.126.073-.126.073-.127.085-.128.074-.128.073-.13.073-.13.061-.128.074-.131.073-.132.06-.132.074-.132.061-.133.061-.133.061-.133.061-.134.061-.135.061-.135.061-.136.05-.135.06-.136.05-.136.048-.137.049-.137.049-.138.049-.138.048-.138.037-.138.049-.138.036-.139.037-.138.037-.14.036-.138.037-.14.037-.139.024-.139.037-.14.036-.172.025-.173.036-.172.025-.17.024-.17.012-.17.025-.169.012-.167.012-.167.012-.166v-.166l.013-.165v-.49l-.013-.162-.012-.161-.012-.16-.012-.16-.012-.159-.025-.157-.012-.158-.024-.156-.025-.156-.037-.155-.024-.154-.037-.154-.036-.153-.049-.151-.037-.151-.049-.15-.036-.15-.061-.149-.049-.149-.049-.146-.06-.147-.062-.145-.061-.145-.061-.144-.061-.143-.073-.143-.074-.142-.073-.141-.073-.14-.086-.14-.073-.138-.085-.138-.086-.136-.085-.136-.098-.135-.085-.135-.098-.134-.098-.133-.097-.132-.11-.132-.098-.13-.11-.13-.11-.128-.11-.128-.11-.127-.122-.127-.11-.125-.122-.126-.122-.123-.085-.085-.086-.086-.097-.084-.086-.084-.085-.083-.098-.083-.085-.082-.098-.08-.085-.081-.098-.08-.183-.16-.196-.157-.183-.155-.195-.154-.195-.151-.196-.152-.195-.149-.196-.149-.195-.147-.39-.295-.025-.017-.024-.018-.061-.036-.062-.034-.06-.035-.074-.034-.06-.034-.074-.035-.086-.034-.146-.067-.159-.067-.159-.067-.073-.035-.073-.034-.073-.034-.061-.034-.061-.034-.061-.034-.025-.019-.024-.017-.025-.017-.024-.018-.025-.017-.012-.019-.024-.017-.012-.018-.013-.018-.012-.019-.012-.018-.012-.018v-.019l-.012-.018V904.995l.012-.018v-.02l.012-.019.012-.02.012-.019.025-.02.012-.02.024-.02.037-.02.024-.019.025-.018.037-.018.024-.019.037-.017.036-.016.049-.015.037-.016.036-.015.05-.015.048-.014.037-.014.097-.025.098-.025.11-.023.11-.02.11-.02.11-.02.11-.017.121-.017.123-.015.11-.014.122-.015.232-.026.451-.046.208-.022.098-.012.097-.011.086-.011.085-.012.073-.013.061-.013.269-.056.269-.059.28-.06.27-.062.28-.065.28-.066.294-.068.28-.07.294-.07.293-.071.586-.148.598-.15.586-.151.598-.154.586-.154 1.172-.303.574-.148.562-.142.55-.138.524-.132.647-.159.623-.158.61-.156.599-.154.586-.153.561-.152.562-.151.55-.15.537-.147.537-.146 1.038-.29 1.038-.286.512-.14.5-.14.514-.138.513-.137.512-.137.525-.134.513-.134.537-.135.538-.132.268-.065.269-.065.28-.066.281-.065.281-.065.281-.064.293-.065.28-.063.294-.065.305-.064.293-.063.305-.064.306-.062.317-.063.305-.063.318-.062.33-.062.329-.062.598-.114.293-.056.281-.056.28-.057.282-.056.268-.056.269-.057.269-.056.256-.057.269-.057.256-.056.244-.059.257-.057.244-.059.244-.058.244-.059.244-.06.232-.06.232-.06.244-.063.232-.062.232-.064.232-.064.232-.065.232-.066.232-.067.232-.068.22-.07.232-.07.232-.072.232-.072.232-.074.232-.076.244-.077.232-.078.232-.08.244-.081.245-.083.244-.084.244-.087.244-.088.513-.18.513-.19.525-.197.55-.205.573-.213.574-.223.598-.233.635-.241.635-.253.671-.263.708-.274.074-.03.073-.034.085-.033.074-.034.073-.035.085-.037.074-.037.073-.038.073-.039.073-.039.074-.04.073-.042.073-.042.073-.043.074-.044.073-.045.073-.045.061-.047.074-.047.073-.048.06-.049.074-.05.073-.05.061-.051.074-.051.06-.054.062-.053.073-.055.061-.055.061-.054.073-.058.061-.057.061-.058.062-.058.06-.06.062-.06.06-.06.062-.062.06-.061.062-.064.06-.063.05-.063.06-.065.062-.066.049-.066.06-.066.05-.067.06-.069.05-.068.06-.068.05-.07.06-.07.05-.071.048-.071.049-.072.049-.072.048-.074.05-.073.048-.074.049-.075.049-.076.049-.075.097-.153.086-.154.085-.157.086-.158.085-.16.086-.162.073-.164.085-.166.074-.166.06-.168.074-.17.073-.172.061-.172.061-.174.061-.175.05-.176.06-.177.05-.179.048-.179.049-.18.049-.181.036-.182.037-.183.036-.185.037-.183.025-.186.036-.185.025-.186.024-.185.012-.187.025-.187.012-.188.012-.187.012-.188.012-.188V881.924l-.012-.188-.012-.187-.012-.187-.012-.186-.013-.186-.024-.186-.024-.184-.025-.185-.036-.184-.013-.092-.012-.091-.024-.09-.013-.092-.024-.09-.024-.09-.013-.092-.024-.09-.024-.09-.025-.09-.012-.09-.024-.089-.025-.089-.036-.088-.025-.089-.024-.088-.025-.088-.036-.087-.025-.087-.036-.087-.025-.086-.036-.087-.025-.086-.037-.086-.036-.085-.037-.085-.036-.084-.037-.085-.037-.084-.036-.083-.037-.083-.037-.083-.036-.082-.049-.081-.037-.082-.048-.08-.037-.081-.049-.081-.049-.08-.036-.079-.05-.08-.048-.077-.049-.078-.049-.077-.049-.077-.048-.077-.061-.076-.05-.076-.048-.074-.061-.074-.049-.074-.061-.074-.049-.072-.061-.072-.061-.072-.061-.071-.061-.071-.049-.07-.061-.07-.073-.068-.061-.068-.061-.067-.061-.067-.074-.067-.06-.065-.074-.066-.061-.063-.073-.065-.074-.062-.06-.064-.074-.061-.073-.061-.073-.061-.074-.06-.073-.059-.085-.058-.074-.057-.073-.057-.085-.056-.074-.056-.085-.055-.073-.054-.086-.052-.085-.053-.086-.052-.085-.05-.086-.05-.085-.05-.086-.048-.085-.048-.085-.047-.098-.047-.086-.045-.097-.044-.086-.044-.097-.042-.098-.042-.086-.041-.085-.03-.073-.031-.074-.03-.085-.028-.073-.027-.086-.025-.073-.025-.085-.023-.086-.023-.073-.02-.086-.022-.085-.02-.086-.018-.085-.017-.085-.017-.086-.014-.085-.015-.086-.013-.085-.014-.086-.012-.085-.011-.086-.01-.085-.01-.086-.008-.097-.009-.086-.007-.17-.012-.184-.01-.17-.007-.184-.005-.183-.003h-.171l-.183.002-.171.003-.183.005-.171.006-.183.008-.171.01-.171.01-.171.009-.171.01-.33.025-.33.025-.28.023-.293.026-.305.025-.293.028-.306.03-.305.03-.317.033-.306.033-.317.035-.318.037-.33.038-.317.04-.33.04-.329.042-.33.044-.341.045-.33.045-.342.048-.342.049-.342.049-.354.05-.342.053-.354.053-.354.055-.354.055-.354.057-.354.058-.366.058-.72.121-.733.126-.745.128-.745.133-.757.136-.757.14-.757.143-.769.145-.77.15-.78.152-.77.155-.781.157-.781.16-.782.163-.781.163-.794.166-.781.169-.794.17-.781.17-.794.174-.781.173-.782.175-.781.175-.781.178-.77.177-.769.178-.77.177-.768.178-.757.178-.757.179-.745.178-.745.177-.732.177-.733.176-.732.176-.709.174-1.416.344-1.367.34-1.331.332-1.294.324-1.246.313-1.196.303-1.136.292-.256.065-.257.067-.525.14-.561.15-.586.16-.61.169-.636.176-.647.184-.683.192-.696.197-.708.204-1.478.425-3.138.906-1.648.474-.842.24-.843.241-.854.242-.855.243-.867.244-.88.243-.866.242-.879.241-.88.24-.878.238-.88.234-.878.232-.88.228-.427.113-.44.112-.427.11-.44.11-.426.107-.428.108-.427.105-.427.104-.428.103-.415.1-.427.1-.415.098-.415.097-.416.094-.415.092-.403.09-.403.09-.402.087-.391.085-.403.082-.39.08-.391.079-.379.077-.378.073-.379.07-.366.07-.366.066-.367.064-.366.06-.354.06-.342.055-.342.053-.342.05-.342.046-.33.044-.317.042-.317.038-.318.035-.305.032-.305.028-.293.024-.293.022-.134.01-.147.009-.134.007-.134.007-.147.006-.134.005-.122.004-.135.004-.134.002-.122.001-.122.002-.135-.002h-.122l-.11-.003-.122-.004-.122-.004-.11-.005-.122-.007-.11-.007-.11-.008-.097-.01-.11-.01-.098-.01-.11-.014-.097-.013-.098-.013-.098-.016-.097-.016-.086-.018-.085-.019-.098-.02-.085-.02-.086-.022-.073-.023-.085-.025-.074-.025-.073-.026-.073-.028-.074-.028-.073-.03-.06-.031-.062-.032-.073-.033-.049-.035-.061-.036-.061-.036-.049-.038-.049-.04-.11-.09-.11-.089-.097-.088-.086-.087-.048-.044-.05-.043-.036-.044-.049-.043-.036-.043-.037-.044-.037-.042-.036-.043-.037-.043-.037-.041-.036-.043-.025-.043-.036-.041-.025-.042-.036-.042-.025-.042-.024-.042-.025-.041-.024-.042-.024-.041-.025-.04-.024-.042-.012-.041-.025-.04-.012-.042-.024-.04-.013-.04-.012-.042-.012-.04-.012-.04-.013-.041-.012-.04-.012-.04-.012-.041v-.04l-.012-.04v-.04l-.013-.04v-.08l-.012-.04v-.159l.012-.04v-.079l.013-.039v-.04l.012-.04v-.038l.012-.04.012-.04.012-.04v-.04l.013-.038.012-.04.024-.079.037-.08.037-.078.036-.08.037-.08.036-.079.05-.079.048-.08.049-.08.049-.08.049-.08.06-.082.062-.08.06-.08.062-.083.073-.081.061-.083.073-.082.074-.083.073-.084.073-.085.086-.084.073-.084.085-.086.086-.086.17-.174.172-.175.183-.179.183-.182.195-.184.391-.377.208-.194.207-.198.195-.202.208-.205.208-.21.11-.106.097-.107.11-.11.098-.108.11-.11.097-.113.098-.114.11-.115.098-.114.097-.118.11-.118.098-.12.097-.12.098-.123.098-.123.097-.126.098-.125.098-.129.097-.129.086-.13.098-.133.085-.134.098-.135.085-.137.086-.138.085-.14.086-.142.073-.144.085-.145.074-.147.085-.149.073-.15.074-.151.073-.154.06-.157.074-.157.061-.159.061-.161.061-.164.061-.164.05-.166.024-.085.024-.085.037-.084.024-.087.024-.086.013-.086.024-.087.025-.088.024-.089.024-.088.074-.361.085-.36.073-.356.074-.356.073-.353.073-.353.073-.352.061-.349.061-.349.062-.347.06-.345.062-.345.06-.344.05-.343.048-.34.05-.341.048-.34.049-.34.049-.339.036-.338.037-.337.037-.335.036-.337.037-.336.036-.336.025-.334.024-.335.025-.336.024-.334.025-.335.024-.334.012-.335.012-.334.025-.336.012-.335.012-.336v-.335l.012-.337v-.337l.013-.337v-1.358l-.013-.342v-.342l-.012-.343v-.344l-.012-.346-.024-.346-.013-.348-.012-.35-.012-.35-.024-.353-.025-.353-.012-.355-.025-.356-.024-.36-.037-.36-.024-.36-.024-.365-.037-.365-.037-.369-.024-.368-.024-.204-.013-.204-.024-.204-.025-.204-.024-.204-.024-.204-.025-.204-.024-.203-.025-.206-.036-.203-.025-.204-.036-.203-.037-.204-.024-.204-.037-.202-.037-.204-.036-.203-.05-.202-.036-.202-.036-.202-.05-.201-.048-.202-.049-.2-.049-.2-.049-.199-.048-.2-.05-.198-.06-.198-.061-.196-.05-.197-.06-.197-.073-.195-.061-.217-.086-.22-.073-.221-.073-.222-.086-.224-.085-.224-.086-.226-.098-.229-.085-.228-.098-.228-.097-.23-.098-.232-.11-.232-.098-.232-.11-.233-.11-.234-.11-.233-.11-.235-.121-.234-.11-.236-.122-.234-.122-.236-.135-.234-.122-.236-.134-.234-.122-.235-.147-.234-.134-.233-.134-.235-.135-.232-.146-.232-.147-.232-.146-.23-.147-.23-.158-.23-.147-.227-.159-.227-.158-.226-.159-.224-.159-.224-.17-.22-.16-.222-.17-.218-.171-.218-.171-.215-.171-.213-.171-.211-.183-.21-.171-.21-.183-.204-.183-.204-.183-.202-.196-.199-.183-.196-.098-.098-.085-.098-.098-.095-.097-.096-.098-.096-.098-.094-.097-.092-.098-.094-.098-.092-.098-.092-.097-.09-.098-.09-.11-.09-.097-.088-.098-.088-.098-.087-.11-.087-.097-.085-.098-.086-.11-.084-.098-.083-.11-.082-.097-.082-.11-.08-.098-.08-.11-.08-.11-.078-.11-.077-.097-.077-.11-.076-.11-.074-.097-.074-.11-.073-.11-.072-.11-.07-.11-.07-.11-.07-.11-.068-.11-.067-.11-.066-.11-.065-.11-.065-.121-.063-.11-.062-.11-.061-.11-.06-.122-.059-.11-.059-.11-.056-.122-.056-.11-.055-.11-.053-.122-.053-.11-.051-.122-.05-.11-.05-.122-.048-.122-.046-.11-.047-.122-.044-.122-.042-.11-.043-.122-.042-.122-.039-.11-.039-.122-.037-.122-.036-.122-.034-.122-.035-.122-.031-.123-.03-.122-.031-.122-.028-.122-.027-.122-.026-.122-.024-.122-.023-.122-.022-.122-.021-.122-.019-.135-.018-.122-.016-.122-.016-.134-.013-.122-.011-.122-.011-.122-.01-.135-.007-.122-.006-.134-.005-.122-.004-.135-.002h-.122l-.134.001z" fill="#000205"/></svg>