<svg viewBox="0 0 1921 1081" xmlns="http://www.w3.org/2000/svg" fill-rule="evenodd" clip-rule="evenodd" stroke-linejoin="round" stroke-miterlimit="1.414"><path d="M.78.47h1920v1080H.78z"/><path d="M525.698 367.464c-.278-1.322-.088-1.77 1.878-4.319 2.121-2.745 5.314-6.9 4.637-13.293-.4-3.756-1.546-8.196-3.465-12.786 5.722.088 12.427-.196 18.175-1.491 6.97-1.566 11.172-3.492 14.548-5.037 2.732-1.254 4.895-2.237 8.183-2.95 9.355-2.006 28.221-12.113 31.577-27.468 1.186-5.396.874-9.26.244-12.053 6.223-4.976 10.46-14.44 6.345-28.527-2.122-7.26-3.105-12.372-3.884-16.48-.828-4.318-1.478-7.721-3.044-10.92-.299-.625-.76-1.886-1.417-3.621-1.288-3.39-3.173-8.338-5.654-13.958a10.692 10.692 0 0 0-2.291-4.976c-6.725-14.073-16.941-30.648-31.177-38.532-11.064-6.129-13.952-9.125-16.263-11.525-3.2-3.308-5.736-5.559-13.986-8.88l-8.785-3.573c-23.124-9.464-42.987-17.375-51.834-18.426-5.958-.705-13.334-.38-20.459-.06-5.511.243-11.22.487-14.189.08-5.077-.691-11.741.495-18.222 1.655-4.454.8-9.51 1.742-11.904 1.484-.963-.088-2.054-.217-3.274-.366-7.973-.935-21.32-2.515-39.868 1.14-15.47 3.056-21.727 8.134-25.856 11.496-.874.705-2.074 1.682-2.46 1.79-3.6 1.003-34.716 10.04-46.322 26.154-10.02 7.226-28.567 34.472-28.764 34.77-2.122 3.173-5.606 9.81-9.3 16.846-3.58 6.82-7.641 14.548-9.715 17.605-5.607 8.257-12.501 28.642-14.48 34.682-.462 1.41-1.12 2.983-1.844 4.76-3.492 8.494-8.712 21.652-6.258 40.355.034.116.014.244.055.36.637 4.664 1.613 9.572 3.369 14.948l2.976 9.233a774.614 774.614 0 0 0 3.783 11.538c.034.095.06.183.095.278 5.965 17.652 11.016 27.93 22.621 31.59 6.352 2.034 11.267 1.763 15.206 1.56h.224c2.996 9.084 12.426 28.81 39.013 34.234 12.128 2.44 20.907 3.186 27.103 3.593 3.227 7.39 4.705 24.066 4.712 34.912 0 3.729 3.037 6.78 6.779 6.78 3.749 0 6.779-3.051 6.779-6.78 0-2.982-.129-12.405-1.464-22.235 1.823.949 3.823 1.491 5.992 1.491 1.356 0 2.78-.203 4.265-.61 3.972-1.017 7.023-4.135 9.917-8-.996 7.119-1.68 16-1.823 27.592-.061 3.796 2.935 5.22 6.677 5.22h.088c3.709 0 6.732-1.288 6.78-5.017.223-18.032 2.677-34.912 5.348-39.386 4.895-1.153 9.016-4 11.714-8.135 3.004-4.542 4.02-10.644 2.834-15.321-.02-.204-.007-.407-.04-.61.115-.34.88-1.56 2.637-2.509 1.566-.745 4.121-1.423 7.375 0 2.698 1.22 5.43 2.644 8.21 4.136 9.185 4.88 19.612 10.372 31.72 8.27 3.416-.61 5.951-.135 9.158.407 7.375 1.22 15.714 2.644 32.709-6.78 24.791-13.76 37.238-20.675 34.316-34.301v-.034zM449.623 142.14c6.284-.278 13.395-.597 18.263-.02 7.735.914 33.116 11.3 48.287 17.503l8.86 3.606c6.163 2.475 7.274 3.627 9.288 5.715 2.793 2.902 6.623 6.86 19.456 13.979 5.959 3.301 11.158 8.874 15.619 15.212-1.322-.719-2.474-1.45-3.044-2.223-6.08-8.244-12.792-12.223-19.747-11.803-5.254.298-9.227 3.01-11.918 5.64-3.05-1.315-6.318-1.993-9.586-1.796-.529-.983-1.186-2.468-1.708-3.654-2.82-6.413-7.091-16.114-18.453-21.863-9.633-4.867-14.392-4.454-18.792-3.532-1.477.292-2.074.427-5.952-2.48-9.972-7.465-21.055-4.184-29.136-1.797-2.542.752-6.305 1.857-7.098 1.85-5.091-3.721-.366-13.727-.176-14.12 1.864-.055 3.783-.13 5.837-.217zm-49.786 2.772c1.356.156 2.562.305 3.633.407 4.183.38 9.715-.61 15.538-1.647 3.397-.604 7.315-1.288 10.406-1.54-2.359 7.987-2.528 18.637 6.535 25.28 5.66 4.163 12.426 2.15 18.961.217 7.634-2.264 12.948-3.512 17.158-.352 7.383 5.511 11.613 5.965 16.812 4.908 1.94-.407 3.77-.766 9.945 2.359 7.024 3.545 9.749 9.748 12.162 15.219 2.312 5.247 5.749 13.172 14.568 11.775 4.027-.63 8.054 2.868 9.512 6.67 1.349 3.567.42 6.407-2.787 8.44-7.667 4.895-22.018 2.753-34.58-10.724-2.556-2.745-6.854-2.888-9.579-.339a6.774 6.774 0 0 0-.339 9.58c11.64 12.493 24.439 17.401 35.32 17.401 6.338 0 12.019-1.66 16.446-4.467 8.602-5.464 11.816-15.158 8.189-24.71-.658-1.729-1.553-3.302-2.542-4.793.711-.515 1.464-.929 2.21-.97 2.162.007 5.036 2.272 8.033 6.326 3.98 5.389 11.057 7.999 17.3 10.304 2.468.908 5.939 2.21 7.525 3.233 2.928 6.38 5.118 12.135 6.521 15.843.875 2.298 1.519 3.96 1.912 4.766.773 1.573 1.227 3.939 1.905 7.511.793 4.163 1.885 9.857 4.19 17.734 2.501 8.562.176 12.365-1.655 13.972-1.844-.773-4.63-3.952-5.694-12.887-1.078-9.09-4.495-15.877-10.148-20.175-7.349-5.592-15.531-4.515-16.426-4.386a6.78 6.78 0 0 0-5.667 7.735c.569 3.702 4.026 6.223 7.734 5.668.028 0 3.39-.326 6.156 1.782 2.617 1.987 4.257 5.681 4.888 10.983 1.227 10.324 4.664 17.646 10.223 21.74 1.254.922 2.474 1.532 3.66 2.027.502 1.41 1.037 3.234.116 7.43-1.675 7.654-13.816 15.531-21.185 17.11-4.739 1.01-7.911 2.468-10.982 3.871-3.234 1.485-6.291 2.882-11.884 4.136-7.911 1.776-18.86 1.132-23.815.698-3.044-3.6-6.644-6.996-11.016-9.87-.285-.19-.57-.373-.861-.556 9.877-3.634 19.842-10.718 23.754-23.517a6.772 6.772 0 0 0-4.501-8.46c-3.593-1.112-7.376.928-8.46 4.5-3.214 10.495-13.437 14.746-21.125 16.359 2.8-5.112 5.037-11.308 2.319-17.212-1.56-3.41-5.6-4.942-9.01-3.37-3.396 1.567-4.9 5.553-3.335 8.949.366 1.803-3.105 7.274-4.406 9.335-.4.623-.753 1.22-1.119 1.823-4.657-.522-9.585-.149-15.056 1.804-4.854 1.715-10.311.922-15.674-1.187 2.373-.264 4.55-1.708 5.525-4.067a6.785 6.785 0 0 0-1.362-7.301c-.088-1.092.013-4.163 2.38-10.549 7.036-19.049-5.363-47.494-16.88-55.27-5.024-3.39-11.959-4.237-18.067-4.976-2.447-.298-5.857-.711-7.857-1.274 5.518-14.63-.054-26.818-15.375-33.502-.902-.4-1.81-1.078-2.637-1.98-8.793-9.592-22.107-10.148-31.38-6.447-3.96 1.58-6.895 2.278-8.603 2.346.739-.915 1.681-1.932 2.366-2.671 3.667-3.986 11.294-12.277 4.19-20.358-2.814-3.193-6.366-5.294-10.007-6.786 2.346-.935 5.254-1.817 8.833-2.596 9.396 2.223 12.698 8.23 14.664 11.884 1.003 1.87 1.959 3.68 4.1 4.826 6.299 3.35 11.993 1.051 15.396-.366.997-.406 2.481-.874 2.976-.874h.034c.427 0 .651.739 1.22 3.2.943 4.06 2.366 10.033 9.606 14.527 1.424.881 3.248 2.881 5.173 4.99 5.444 5.972 13.714 15.056 28.601 15.056 4.359 0 9.28-.773 14.86-2.644a6.777 6.777 0 0 0 4.284-8.575c-1.186-3.553-5.023-5.485-8.575-4.285-16.29 5.43-22.54-1.423-29.15-8.684-2.583-2.834-5.024-5.511-8.054-7.39-2.36-1.457-2.766-2.867-3.539-6.202-.78-3.383-1.966-8.487-7.253-11.789-6.136-3.823-11.925-1.423-15.376.007-1.335.556-2.182.874-2.759 1.017-.969-1.783-2.474-4.352-4.779-7.037 6.406-.02 11.606.563 15.66 1.037zm-39.841 276.954c-1.66 2.373-4.434 6.372-5.274 6.915-.285.135-.502.135-.617.203-.319-.474-.929-1.695-1.79-4.61-2.44-8.338-9.748-8.813-18.202-9.355-6.23-.407-14.771-.949-27.53-3.593-12.568-2.508-19.937-9.355-24.187-15.66 10.717 3.051 23.387-1.152 32.288-4.135 2.095-.745 3.953-1.356 5.464-1.762 9.423-2.576 17.497-2.983 21.07-1.153 2.725 1.356 7.843 2.712 16.65 5.017 8.209 2.101 24.736 6.372 28.655 8.948-.02 1.153-.319 2.508-1.112 3.729-.861 1.288-2.122 1.694-3.844 1.966-.549.067-1.274.203-2.095.474-.955.068-1.98.068-3.132.068-7.185-.475-11.822 6.44-16.344 12.948zm156.835-66.991c-2.25 2.922-6.02 7.81-4.386 15.43.25 1.172-.936 2.71-2.983 4.473 1.193-7.653-.481-11.606-2.305-14.988-.902-1.675-1.207-2.237-.468-5.471 1.553-6.772.143-13.335-3.959-18.48-4.603-5.769-12.568-9.49-20.31-9.49a6.773 6.773 0 0 0-6.78 6.778c0 3.75 3.031 6.78 6.78 6.78 3.654 0 7.647 1.81 9.714 4.386 1.54 1.932 1.98 4.223 1.343 7.002-1.736 7.573-.156 11.383 1.756 14.928.935 1.729 1.443 2.678.84 6.515-1.512 9.538-1.593 9.741-11.599 17.334-12.568 6.915-17.673 6.033-23.523 5.084-3.797-.678-8.068-1.423-13.79-.406-7.517 1.355-15.042-2.644-22.994-6.915-3.112-1.627-6.169-3.254-9.186-4.61-9.51-4.067-18.14-1.085-23.049 3.118-1.003.882-1.83 1.83-2.59 2.848-6.04-2.644-14.96-5.22-28.071-8.61-5.505-1.423-12.345-3.2-13.89-3.98-6.624-3.362-15.701-2.941-23.755-1.443.319-2.115-.244-4.325-1.912-5.911-.054-.055-5.389-5.417-3.193-13.437.726-1.6 1.35-3.39 2.007-5.497.624-2.014 1.85-5.993 2.874-7.525 1.871-.007 6.135.806 9.044 1.396 3.782.773 8.094 1.634 12.27 1.817 3.22 8.467 10.175 15.036 20.229 18.758 2.122.786 7.579 2.617 12.372 2.617 2.447 0 4.725-.475 6.297-1.824a6.763 6.763 0 0 0 .746-9.552 6.733 6.733 0 0 0-6.732-2.19c-2.135-.19-15.314-1.837-19.849-11.619 1.119-1.044 2.136-2.264 2.909-3.87.921-1.92 1.47-4.366 1.816-6.922 5.254 2.718 10.928 3.966 17.32 2.495 13.376-3.092 29.802-5.64 38.398 2.054.027.027.068.033.095.06.034.028.04.068.074.096 10.338 8.636 6.027 18.534 5.471 19.693a6.782 6.782 0 0 0 2.97 9.063 6.776 6.776 0 0 0 9.125-2.942c3.572-6.975 6.324-23.53-8.868-36.227-.075-.061-.163-.068-.237-.129-13.165-11.402-32.676-8.867-50.078-4.854-7.565 1.729-14.588-5.118-25.3-16.656-2.725-2.935-5.51-5.878-8.426-8.752-8.663-8.555-8.263-17.517-7.7-30.086.169-3.959.352-7.782.236-11.951-.535-19.05-12.846-23.788-19.286-23.788h-.061c-3.722 0-6.745 2.535-6.78 6.257-.033 3.749 2.977 6.345 6.719 6.372.054 0 5.538.17 5.83 11.084.108 3.83-.068 7.566-.224 11.206-.393 8.765-.732 17.714 2.502 26.398-.034.17-.055.258-.088.434-2.034 10.853-5.064 18.073-13.226 18.073-2.42 0-5.275-.827-8.298-1.708-6.25-1.83-14.006-4.088-22.568-.23-3.518 1.572-6.094 4.385-7.464 8.127-3.83 10.549 3.363 26.344 4.84 29.401a6.782 6.782 0 0 0 6.102 3.824c.99 0 1.993-.217 2.949-.678 3.369-1.627 4.78-5.681 3.159-9.05-4-8.305-5.64-17.66-4.034-19.267 3.817-1.708 7.512-.78 13.22.882 3.803 1.105 7.735 2.25 12.087 2.25 13.43 0 19.964-8.894 23.293-17.219 2.488 2.495 4.915 5.071 7.253 7.593 2.536 2.732 5.098 5.464 7.722 8.04.298 3.573.129 9.321-.55 10.921-1.85 1.098-9.754-.501-13.537-1.274-6.427-1.315-12-2.454-16.528-.95-6.677 2.204-9.11 10.04-11.063 16.338-.468 1.498-1.105 3.546-1.437 4.15-.143.25-.156.528-.258.785-.108.258-.298.455-.373.733-.088.305-.081.576-.156.88-.013.089-.034.17-.047.259-3.193 13.24 3.972 22.601 6.352 25.225-.44.149-.84.278-1.302.42-7.721 2.644-20.642 6.982-26.757 2.983-8.1-5.295-14.23-4.997-19.612-4.698-3.423.183-6.4.332-10.392-.95-5.512-1.755-8.854-8.344-13.47-21.794.352-2.129 1.213-4.474 1.878-4.881 0 .007.616-.095 2.121.59 3.417 1.566 7.437.074 8.99-3.322 1.565-3.403.08-7.43-3.322-8.99-6.807-3.138-11.735-1.7-14.677.062-.122.074-.21.176-.325.25l-1.892-5.85a73.058 73.058 0 0 1-2.237-8.616c3.471 4.291 9.308 7.627 15.91 7.627h.346c7.044 0 13.131-3.885 16.69-8.881 2.143-3.003 3.722-7.98 5.39-12.325 4.82-12.534 7.776-17.55 13.62-16.168 3.66.84 7.287-1.37 8.134-5.023.84-3.647-1.43-7.18-5.077-8.026-18.31-4.21-25.198 14.012-29.334 24.77-1.288 3.356-2.623 7.274-3.769 8.874-1.003 1.404-3.234 3.22-5.837 3.22h-.149c-2.888 0-4.976-1.925-5.545-2.677-4.02-5.35-8.264-7.315-11.375-7.478.637-8.175 2.915-14.65 4.996-19.788 1.952 2.135 4.562 3.783 8.162 3.783.8 0 1.64-.075 2.528-.244 10.766-2.048 12.047-11.511 12.982-18.433.753-5.559 1.54-11.307 5.647-16.595 9.112-11.708 16.223-11.457 22.724-10.21 4.78.943 7.769-1.111 9.111-2.42 4.501-4.379 3.37-11.226 2.17-18.486-.448-2.739-1.01-6.156-.828-7.606.936-7.301 11.22-17.294 15.782-18.9 6.21 10.989 13.91 11.992 15.436 12.073l1.336-.034c31.53-1.335 36.058 3.261 36.688 4.712 2.536 5.85 6 8.569 8.78 10.772 3.294 2.623 5.904 4.63 8.229 13.863 2.942 11.7.725 15.775-.02 16.778-.292.387-1.058 1.187-3.37 1.282-3.742.162-6.636 2.86-6.474 6.602.156 3.648 3.153 5.553 6.76 5.553h.304c5.64 0 10.48-1.79 13.647-6.027 4.664-6.27 5.443-14.867 2.298-27.38-3.187-12.658-7.756-17.105-12.948-21.233-2.23-1.776-3.573-2.84-4.76-5.573-5.579-12.873-27.028-13.829-49.399-12.893-.725-.326-2.888-1.6-5.186-6.06-2.44-4.74-7.253-6.983-12.799-6-11.389 2.006-26.174 18.385-27.767 30.736-.434 3.417.21 7.362.902 11.531.223 1.35.528 3.18.711 4.786-9.158-.962-20.486.95-32.038 15.796-6.358 8.175-7.524 16.805-8.379 23.103-.25 1.844-.596 4.406-1.308 5.905-.36-.834-.705-1.81-.942-2.461-.42-1.173-.956-2.617-1.695-4.007 3.295-9.09 6.915-17.795 9.436-21.517 2.509-3.694 6.386-11.09 10.501-18.913 3.37-6.413 6.854-13.043 8.576-15.626 7.247-10.847 21.557-29.211 25.503-31.367l2.542-2.339c6.013-9.403 26.154-17.883 38.695-21.47 3.607-.088 11.898.584 16.453 4.319-.773 1.03-2.02 2.38-2.86 3.295-3.39 3.68-7.607 8.263-6.99 14.14.244 2.32 1.376 5.682 5.383 8.522 7.721 5.491 17.564 1.553 22.845-.563 4.976-1.979 11.938-1.803 16.358 3.017 2.122 2.319 4.55 4.081 7.206 5.234 10.352 4.521 10.65 9.985 7.925 16.798-2.108 5.247-.976 9.016.346 11.247 3.498 5.911 11.247 6.86 18.751 7.769 4.373.528 9.803 1.193 12.121 2.759 7.355 4.962 16.256 27.116 11.748 39.332-4.786 12.941-3.41 19.558-.996 23.002a64.058 64.058 0 0 1-10.359-7.966c-5.47-5.2-10.243-7.47-14.799-8.541 9.728-13.877 5.675-24.215 5.058-25.592-1.498-3.308-5.268-4.69-8.637-3.369-3.37 1.35-5.023 5.254-3.823 8.684.115.326 2.501 7.85-9.769 19.334-3.2.495-6.745 1.736-10.636 3.166-6.698 2.454-15.037 5.478-19.816 3.24-2.156-1.016-3.816-3.26-5.09-6.873-3.784-10.745-4.102-20.582-4.367-28.486-.311-9.464-.664-20.202-10.955-22.134a6.753 6.753 0 0 0-7.91 5.41c-.638 3.382 1.362 6.65 4.548 7.694.515 1.81.664 6.182.766 9.477.278 8.359.65 19.822 5.125 32.54 2.501 7.104 6.576 12.02 12.1 14.63 9.939 4.677 21.206.555 30.263-2.767 2.867-1.05 7.24-2.657 8.541-2.583 1.404.068 2.719.109 3.98.143 7.01.183 10.209.271 16.086 5.857 15.586 14.792 33.191 20.69 47.095 15.7 4.711-1.674 8.603-1.755 12.989-.345l.237.067c.02.007.054.007.081.014 4.488 1.512 9.532 4.59 16.507 9.172 12.047 7.925 16.392 20.561 17.063 26.77.075.882-.21 1.41-1.911 3.62z" fill="#fff" fill-rule="nonzero"/><path d="M457.107 206.778c-.068-3.057-2.203-5.789-5.322-6.474-3.64-.793-7.274 1.512-8.074 5.166-.576 2.617-1.057 11.755 16.772 19.524 11.28 4.922 11.28 4.935 11.165 19.26-.15 18.832 16.04 20.533 29.048 21.869 13.349 1.376 28.48 3.003 38.546 17.714 4.034 5.904 10.088 7.707 14.508 8.92 1.512.421 3.796 1.323 4.223 1.702 0 0 .122.855.122 1.634-.02 3.742 2.997 7.952 6.745 7.952h.028c3.735 0 6.765-4.162 6.779-7.898.047-11.666-9.295-15.375-14.311-16.75-3.518-.97-5.735-1.641-6.908-3.356-13.606-19.904-33.685-21.965-48.349-23.476-15.47-1.587-16.92-2.888-16.873-8.244.156-20.452-2.183-24.31-19.313-31.774-6.461-2.813-8.332-5.077-8.786-5.769zM458.74 350.936c-2.426-2.84-6.71-3.172-9.558-.739a6.777 6.777 0 0 0-.739 9.559c2.929 3.423 5.864 8.026 6.528 10.135-1.606 3.498-.488 6.114.4 7.443 2.658 3.993 7.085 3.247 9.2 2.908 3.084-.474 4.765-.542 5.992.678 1.315 1.22 3.01 1.898 4.712 1.898a6.613 6.613 0 0 0 4.874-2.101c2.603-2.664 2.529-6.962-.156-9.565-3.864-3.743-8.311-4.719-11.958-4.787-1.485-5.321-5.444-10.92-9.294-15.429z" fill="#fff" fill-rule="nonzero"/><path d="M678.721 211.16l.628.01h.627l.627.02.625.01.627.02.627.02.625.02.627.02.626.03.625.03.626.03.627.04.623.04.624.04.624.04.626.05.625.04.623.06.622.05.625.06.622.06.622.06.622.06.621.07.623.07.621.07.62.07.62.08.619.08.619.08.619.09.618.09.615.09.618.09.619.09.616.1.614.1.613.1.617.11.615.11.611.11.611.11.613.11.612.12.609.12.611.12.61.13.608.12.606.13.608.13.606.14.604.13.607.14.605.14.603.15.599.14.603.15.6.15.6.15.601.16.595.16.594.15.891.25.882.24.878.24.875.24.87.25.866.24.863.25.86.25.856.25.852.25.847.25.843.25.843.26.836.25.832.26.831.25.826.26.821.26.818.27.817.26.81.26.807.27.806.26.799.27.797.27.794.27.79.28.786.27.782.27.78.28.776.28.771.28.77.28.765.28.762.28.76.29.754.28.75.29.749.29.745.29.742.3.737.29.735.29.732.3.726.3.727.3.721.3.717.3.716.31.712.31.706.3.707.31.701.31.699.32.696.31.69.32.688.32.689.32.682.32.678.32.678.33.672.32.669.33.667.33.665.33.659.34.657.33.654.34.653.34.649.34.644.34.641.35.639.34.638.35.633.35.627.35.314.18.314.18.313.17.312.18.312.18.308.18.31.18.31.18.308.18.304.18.307.18.306.18.306.19.305.18.301.18.306.19.302.18.3.19.297.18.301.19.303.19.298.18.295.19.297.19.297.19.297.18.294.19.291.19.294.19.293.19.295.2.292.19.288.19.29.19.289.2.285.19.288.19.29.2.287.2.283.19.285.2.287.2.28.19.283.2.285.2.278.2.282.2.279.2.279.2.28.2.277.2.277.2.277.21.275.2.275.2.274.21.274.2.273.21.272.2.274.21.268.21.269.2.271.21.268.21.271.21.265.21.266.21.269.21.263.21.264.21.266.22.264.21.262.21.262.22.262.21.261.22.259.21.259.22.258.22.26.21.258.22.257.22.255.22.255.22.254.22.253.22.257.22.249.22.252.22.253.23.25.22.254.23.248.22.246.22.25.23.247.23.247.23.248.22.242.23.246.23.245.23.245.23.244.23.239.23.244.23.24.23.24.23.242.24.238.23.238.24.238.23.239.24.235.23.235.24.236.24.235.23.234.24.236.24.232.24.229.24.233.24.234.25.23.24.228.24.228.24.23.25.229.24.225.24.228.25.227.25.226.24.224.25.224.25.222.25.225.25.223.25.22.24.223.26.219.25.22.25.223.26.217.25.217.25.218.25.217.26.219.26.215.25.214.26.214.25.214.26.217.26.211.26.212.26.213.26.21.26.212.27.209.26.208.26.211.26.209.27.206.26.208.27.208.26.204.27.206.27.206.26.204.27.202.27.205.27.203.27.202.27.202.27.2.28.2.27.202.27.199.28.197.27.199.28.197.27.198.28.198.28.195.27.195.28.196.28.195.28.192.28.194.28.194.28.191.28.192.29.192.28.191.28.19.29.19.28.188.29.189.29.188.28.189.29.373.58.372.58.37.58.366.58.366.59.363.59.363.6.359.59.357.6.356.6.354.6.352.61.349.61.348.61.346.61.345.62.342.62.34.62.339.62.337.63.334.63.334.63.332.64.328.63.328.64.327.65.324.64.323.65.321.65.319.65.317.66.316.66.314.66.313.67.312.67.309.66.307.68.307.67.304.68.304.68.301.69.3.69.298.69.297.69.296.69.294.7.292.7.291.71.29.7.289.71.286.72.286.71.284.72.282.72.282.73.28.72.279.74.277.73.276.74.275.74.273.74.273.74.271.75.269.75.269.76.268.75.266.76.265.77.264.76.262.77.262.78.261.77.259.78.258.78.257.79.256.78.255.79.254.8.254.8.251.8.251.8.518 1.67.516 1.67.514 1.67.512 1.67.509 1.68.507 1.67.505 1.67.502 1.68.5 1.67.497 1.68.495 1.67.492 1.68.49 1.68.487 1.68.484 1.68.482 1.68.479 1.68.476 1.69.237.84.236.84.236.84.234.85.234.84.234.84.233.84.231.85.231.84.23.84.23.85.228.84.228.85.227.84.227.85.225.84.225.85.224.84.223.85.222.85.221.84.221.85.22.84.219.85.217.85.218.85.216.85.215.84.215.85.214.85.213.85.211.85.211.85.21.85.21.85.208.85.207.85.206.85.206.85.205.85.203.85.203.86.201.85.201.85.2.85.199.86.198.85.196.85.196.86.195.85.194.86.193.85.191.86.191.85.19.86.189.85.188.86.186.86.186.85.184.86.184.86.182.86.182.85.18.86.179.86.179.86.177.86.175.86.175.86.174.86.173.86.171.86.171.86.169.86.168.86.167.86.166.87.165.86.163.86.162.87.162.86.159.86.159.87.158.86.157.87.155.86.154.87.152.86.152.87.151.86.149.87.147.87.191 1.13.19 1.12.189 1.13.188 1.12.188 1.13.186 1.12.185 1.13.185 1.12.184 1.13.183 1.12.182 1.13.181 1.12.18 1.13.179 1.13.179 1.12.177 1.13.177 1.12.176 1.13.175 1.12.174 1.13.174 1.12.172 1.13.171 1.12.171 1.13.17 1.13.168 1.12.169 1.13.167 1.12.166 1.13.165 1.13.165 1.12.164 1.13.162 1.13.162 1.12.161 1.13.16 1.13.16 1.12.158 1.13.157 1.13.157 1.13.156 1.13.155 1.12.154 1.13.153 1.13.152 1.13.152 1.13.15 1.12.15 1.13.148 1.13.148 1.13.147 1.13.147 1.13.145 1.13.144 1.13.144 1.13.142 1.13.142 1.14.141 1.13.14 1.13.139 1.13.138 1.13.138 1.14.136 1.13.135 1.13-.18 2.33-1.06 2.09-1.779 1.52-2.225.73-2.334-.18-2.088-1.06-1.522-1.78-.727-2.22-.134-1.13-.136-1.12-.136-1.13-.137-1.12-.138-1.12-.139-1.13-.139-1.12-.141-1.12-.141-1.12-.143-1.12-.143-1.12-.144-1.12-.145-1.12-.146-1.12-.146-1.12-.148-1.12-.148-1.12-.15-1.12-.15-1.12-.151-1.12-.152-1.12-.152-1.12-.154-1.12-.154-1.12-.156-1.12-.156-1.11-.157-1.12-.158-1.12-.159-1.12-.16-1.12-.16-1.11-.161-1.12-.163-1.12-.163-1.11-.164-1.12-.165-1.12-.166-1.12-.166-1.11-.168-1.12-.168-1.12-.169-1.11-.171-1.12-.171-1.12-.171-1.11-.173-1.12-.174-1.12-.174-1.11-.176-1.12-.176-1.11-.177-1.12-.178-1.12-.178-1.11-.18-1.12-.181-1.12-.181-1.11-.182-1.12-.184-1.11-.184-1.12-.185-1.12-.185-1.12-.187-1.11-.187-1.12-.189-1.11-.189-1.12-.145-.85-.146-.85-.148-.85-.148-.85-.15-.85-.151-.85-.152-.85-.154-.84-.154-.85-.156-.85-.157-.85-.158-.84-.16-.85-.16-.85-.162-.85-.162-.84-.164-.85-.165-.84-.167-.85-.167-.85-.168-.84-.17-.84-.171-.85-.171-.84-.173-.85-.174-.84-.175-.85-.176-.84-.177-.84-.179-.85-.179-.84-.18-.84-.182-.84-.182-.85-.183-.84-.185-.84-.186-.84-.186-.84-.188-.84-.189-.84-.19-.85-.19-.84-.192-.84-.193-.84-.193-.84-.195-.84-.195-.84-.197-.84-.198-.84-.198-.83-.2-.84-.2-.84-.201-.84-.203-.84-.203-.84-.204-.83-.205-.84-.206-.84-.207-.83-.209-.84-.208-.84-.21-.84-.21-.83-.212-.84-.212-.83-.213-.84-.215-.84-.215-.83-.215-.84-.217-.83-.218-.84-.218-.83-.219-.84-.22-.83-.221-.84-.222-.83-.222-.83-.224-.84-.224-.83-.225-.84-.225-.83-.227-.83-.227-.83-.229-.84-.229-.83-.229-.83-.23-.84-.232-.83-.232-.83-.232-.83-.233-.84-.234-.83-.471-1.66-.473-1.66-.477-1.66-.479-1.67-.481-1.66-.485-1.66-.487-1.66-.49-1.66-.492-1.66-.495-1.65-.497-1.66-.5-1.66-.502-1.66-.504-1.65-.507-1.66-.51-1.66-.511-1.65-.513-1.65-.243-.78-.244-.78-.245-.77-.245-.77-.247-.76-.247-.76-.248-.76-.249-.75-.25-.75-.251-.75-.252-.74-.253-.74-.254-.74-.254-.74-.256-.73-.257-.72-.257-.73-.26-.72-.259-.72-.261-.71-.262-.71-.263-.71-.264-.7-.265-.7-.267-.7-.267-.69-.268-.7-.27-.68-.271-.69-.271-.68-.273-.68-.274-.67-.275-.68-.277-.66-.278-.67-.279-.66-.28-.66-.281-.66-.283-.65-.284-.65-.285-.65-.286-.64-.287-.64-.289-.64-.291-.64-.291-.63-.293-.63-.294-.62-.296-.62-.297-.62-.298-.62-.3-.61-.3-.61-.303-.61-.304-.61-.304-.6-.307-.6-.309-.59-.309-.6-.311-.59-.313-.58-.313-.59-.316-.58-.317-.58-.318-.57-.32-.57-.321-.58-.324-.56-.324-.57-.326-.56-.328-.56-.329-.55-.332-.56-.332-.55-.334-.55-.335-.54-.338-.54-.34-.54-.341-.54-.342-.53-.345-.54-.171-.26-.174-.27-.173-.26-.175-.26-.175-.27-.174-.26-.175-.26-.175-.26-.177-.26-.177-.26-.176-.25-.178-.26-.179-.26-.178-.26-.178-.25-.18-.26-.181-.25-.179-.25-.18-.26-.182-.25-.181-.25-.183-.25-.183-.26-.181-.24-.183-.25-.186-.25-.183-.25-.186-.25-.185-.25-.184-.24-.188-.25-.187-.24-.186-.25-.187-.24-.191-.25-.186-.24-.19-.24-.191-.24-.189-.24-.189-.24-.192-.24-.193-.24-.191-.24-.193-.24-.192-.23-.195-.24-.195-.24-.191-.23-.195-.24-.197-.23-.198-.24-.196-.23-.195-.23-.198-.23-.198-.24-.2-.23-.201-.23-.196-.23-.2-.23-.203-.23-.199-.22-.204-.23-.202-.23-.201-.22-.205-.23-.204-.23-.205-.22-.204-.23-.205-.22-.206-.22-.208-.22-.206-.23-.206-.22-.21-.22-.21-.22-.21-.22-.207-.22-.209-.21-.214-.23-.212-.21-.211-.22-.212-.21-.213-.22-.214-.22-.215-.21-.216-.22-.214-.21-.217-.21-.217-.22-.218-.21-.215-.21-.22-.21-.219-.21-.218-.21-.223-.21-.22-.21-.221-.21-.22-.21-.222-.21-.227-.21-.222-.2-.224-.21-.225-.2-.224-.21-.229-.2-.228-.21-.224-.2-.229-.2-.226-.21-.23-.2-.233-.2-.228-.2-.232-.2-.232-.2-.233-.2-.233-.2-.234-.2-.233-.2-.233-.2-.237-.19-.236-.2-.238-.2-.237-.19-.237-.2-.24-.19-.24-.2-.239-.19-.239-.2-.242-.19-.244-.19-.24-.19-.244-.2-.246-.19-.243-.19-.246-.19-.244-.19-.248-.19-.25-.19-.245-.19-.25-.18-.248-.19-.25-.19-.252-.19-.251-.18-.252-.19-.253-.18-.253-.19-.254-.18-.254-.19-.256-.18-.257-.18-.255-.19-.262-.18-.255-.18-.259-.18-.263-.19-.257-.17-.261-.18-.264-.19-.262-.17-.26-.18-.264-.18-.269-.18-.265-.18-.265-.17-.27-.18-.267-.18-.265-.17-.269-.18-.269-.17-.274-.18-.272-.17-.27-.18-.273-.17-.273-.17-.277-.18-.276-.17-.271-.17-.276-.17-.28-.17-.28-.17-.279-.17-.276-.17-.283-.17-.28-.17-.282-.17-.282-.17-.283-.16-.287-.18-.284-.16-.285-.17-.286-.16-.29-.17-.286-.17-.289-.16-.289-.16-.29-.17-.29-.16-.588-.33-.588-.33-.59-.32-.594-.32-.599-.32-.602-.32-.604-.32-.605-.31-.61-.32-.615-.31-.619-.32-.619-.3-.624-.31-.628-.31-.631-.31-.633-.3-.638-.31-.642-.3-.641-.3-.649-.3-.653-.3-.653-.29-.658-.3-.662-.29-.664-.29-.67-.29-.672-.29-.674-.29-.68-.29-.683-.28-.684-.29-.692-.28-.693-.28-.697-.28-.701-.28-.704-.28-.707-.27-.712-.28-.716-.27-.72-.28-.722-.27-.725-.27-.731-.27-.733-.26-.738-.27-.742-.27-.744-.26-.75-.26-.753-.27-.757-.26-.759-.26-.764-.25-.77-.26-.77-.26-.776-.25-.781-.26-.782-.25-.788-.25-.792-.25-.795-.25-.798-.25-.804-.25-.808-.24-.81-.25-.815-.24-.821-.24-.822-.25-.827-.24-.83-.24-.836-.24-.84-.23-.844-.24-.847-.24-.852-.23-.856-.24-.855-.23-.554-.14-.554-.15-.551-.14-.554-.14-.554-.14-.553-.14-.559-.13-.557-.14-.555-.13-.557-.12-.559-.13-.56-.12-.559-.13-.562-.11-.562-.12-.561-.12-.561-.11-.564-.11-.563-.11-.563-.1-.566-.11-.567-.1-.565-.1-.563-.09-.569-.1-.569-.09-.567-.09-.565-.09-.568-.08-.571-.09-.57-.08-.569-.07-.57-.08-.571-.07-.57-.07-.571-.07-.572-.07-.57-.06-.572-.06-.572-.06-.573-.06-.573-.06-.572-.05-.573-.05-.574-.04-.572-.05-.572-.04-.575-.04-.575-.04-.575-.03-.572-.04-.573-.03-.576-.02-.573-.03-.573-.02-.576-.02-.573-.02-.574-.01-.576-.02-.574-.01h-.573l-.574-.01H676.92l-.571.01h-.573l-.576.01-.571.02-.573.01-.575.02-.571.02-.57.02-.572.03-.575.03-.57.03-.572.03-.571.04-.569.04-.572.04-.568.04-.571.05-.57.05-.567.05-.568.06-.569.06-.566.05-.567.07-.568.06-.568.07-.565.07-.564.08-.564.07-.564.08-.565.08-.563.09-.562.08-.562.09-.561.1-.56.09-.56.1-.56.1-.279.06-.28.05-.279.05-.279.05-.279.06-.279.05-.274.06-.283.06-.278.05-.278.06-.278.06-.274.06-.281.06-.278.06-.272.06-.278.06-.277.07-.281.06-.272.06-.277.07-.276.06-.276.07-.275.07-.272.06-.28.07-.275.07-.271.07-.275.07-.279.08-.27.07-.27.07-.278.07-.274.08-.275.07-.272.08-.269.07-.273.08-.274.08-.272.08-.272.07-.268.08-.272.08-.272.09-.272.08-.271.08-.271.09-.271.08-.267.08-.27.09-.27.09-.27.08-.279.1-2.325.27-2.254-.63-1.84-1.45-1.146-2.04-.278-2.32.633-2.26 1.447-1.84 2.041-1.14.29-.1.299-.09.3-.1.3-.1.305-.09.3-.1.301-.09.301-.09.3-.09.301-.09.302-.09.306-.09.302-.09.303-.09.302-.08.302-.09.307-.08.304-.09.303-.08.302-.08.3-.08.308-.09.308-.08.3-.07.305-.08.309-.08.305-.08.3-.07.309-.08.306-.07.305-.08.306-.07.306-.07.311-.07.301-.07.307-.07.306-.07.312-.07.306-.07.303-.06.312-.07.307-.06.308-.07.308-.06.303-.06.313-.07.308-.06.308-.06.309-.06.308-.06.309-.05.309-.06.619-.11.618-.11.62-.11.62-.1.62-.1.621-.09.622-.1.62-.09.622-.08.623-.09.623-.08.624-.08.622-.07.622-.08.625-.06.625-.07.623-.06.626-.07.627-.05.624-.06.624-.05.627-.05.626-.04.627-.05.625-.04.626-.03.629-.04.623-.03.627-.02.628-.03.629-.02.625-.02.626-.02.63-.01.624-.01.627-.01.63-.01h1.879z" fill="#ffff01"/><path d="M905.02 494.6l.353.03.351.06.347.08.342.09.336.12.328.14.319.16.309.17.299.2.286.21.273.22.26.25.244.25.229.28.213.28.195.3.177.31.158.32.14.32.12.34.099.34.08.35.058.35.038.35.017.36-.004.35-.026.36-.046.35-.067.35-.088.34-.135.47-.144.5-.147.49-.15.5-.153.49-.157.5-.16.5-.163.5-.166.51-.169.5-.171.51-.175.51-.177.51-.18.51-.182.51-.185.51-.188.52-.189.52-.193.51-.195.52-.197.52-.199.52-.2.52-.203.52-.205.52-.206.52-.209.52-.21.52-.212.52-.213.52-.215.52-.216.52-.218.52-.219.52-.22.52-.222.52-.224.51-.223.52-.224.51-.226.52-.226.51-.228.51-.228.51-.228.51-.229.5-.23.51-.231.5-.229.5-.232.5-.231.5-.232.49-.231.5-.231.48-.231.49-.233.49-.231.48-.23.48-.23.47-.232.48-.231.47-.228.46-.229.47-.228.46-.227.45-.228.46-.227.45-.224.44-.225.44-.224.44-.222.43-.22.43-.222.43-.217.41-.218.42-.216.41-.214.4-.215.41-.21.39-.21.39-.208.39-.207.38-.204.37-.203.37-.201.37-.201.36-.195.35-.194.35-.194.34-.189.33-.189.33-.188.33-.181.31-.182.32-.181.31-.174.29-.175.29-.174.29-.168.28-.166.27-.166.27-.162.26-.16.26-.155.24-.156.24-.156.24-.149.23-.148.22-.149.22-.145.21-.148.21-.148.21-.142.19-.142.19-.152.2-.152.19-.154.19-.167.2-.173.19-.1.11-.096.1-.12.13-.109.1-.117.12-.126.11-.151.13-.186.15-.198.15-.201.15-.233.15-.305.18-.317.16-.381.17-.247.09-.244.08-.247.07-.25.07-.258.05-.26.04-.295.03-.297.02H882.179l-.278-.01-.277-.02-.276-.03-.018-.01-.339-.06-.334-.08-.329-.1h-.016l-.263-.1-.258-.1-.113-.05-.189-.09-.192-.1-.138-.08-.15-.08-.189-.11-.122-.08-.1-.07-.13-.08-.132-.09-.127-.09-.123-.09-.19-.15-.201-.16-.198-.16-.19-.16-.184-.16-.186-.17-.18-.16-.183-.17-.188-.18-.186-.18-.179-.17-.194-.2-.188-.19-.19-.19-.198-.2-.191-.2-.199-.21-.205-.22-.203-.22-.207-.22-.209-.23-.214-.23-.215-.24-.216-.24-.224-.25-.225-.25-.225-.25-.23-.26-.233-.27-.236-.27-.477-.55-.489-.56-.499-.59-.509-.59-.52-.62-.528-.62-.536-.64-.544-.66-.554-.66-.56-.68-.566-.68-.574-.7-.58-.71-.585-.71-.59-.72-.594-.73-.599-.74-.602-.74-1.212-1.49-1.221-1.51-1.224-1.52-1.225-1.52-2.433-3.02-1.2-1.49-1.183-1.46-1.163-1.44-.571-.7-.565-.69-.559-.69-.55-.67-.54-.66-.533-.65-.524-.64-.512-.62-.501-.61-.495-.59-.219-.28-.202-.29-.185-.31-.166-.31-.148-.33-.127-.33-.108-.34-.088-.34-.067-.35-.047-.35-.025-.36-.005-.35.017-.36.038-.35.058-.35.08-.35.099-.34.12-.34.139-.32.159-.32.177-.31.195-.3.212-.28.229-.27.245-.26.259-.25.273-.22.287-.21.298-.2.309-.17.319-.16.328-.14.336-.12.342-.09.347-.08.351-.06.353-.03.356-.02.355.01.355.02.352.05.349.07.344.09.338.11.332.13.322.15.314.17.303.18.291.21.279.22.266.23.25.26.236.26.503.61.517.62.526.64.533.65.543.66.552.67.558.69.564.69.572.7.579.72 1.171 1.45 1.19 1.47 1.204 1.49 2.434 3.02 1.222 1.51 1.22 1.51 1.213 1.51 1.204 1.48.595.73.591.73.588.72.581.71.576.71.57.69.561.68.556.67.547.67.537.64.53.64.521.62.508.6.497.59.486.57.475.55.46.53.449.52.217.25.075.08.134-.23.176-.31.177-.31.18-.33.185-.33.183-.33.187-.34.19-.34.192-.35.193-.36.196-.36.198-.37.2-.38.201-.38.203-.38.205-.39.205-.39.209-.4.208-.4.211-.41.213-.41.211-.42.214-.42.216-.43.215-.42.215-.43.219-.44.218-.44.219-.44.22-.45.22-.45.219-.45.221-.45.221-.46.221-.46.221-.47.221-.46.222-.47.221-.47.221-.47.221-.48.22-.47.22-.48.22-.48.219-.48.219-.49.219-.48.216-.49.216-.48.216-.49.214-.49.214-.49.214-.49.21-.49.209-.49.21-.49.207-.49.206-.49.204-.5.203-.49.201-.49.2-.49.197-.49.196-.49.194-.48.192-.49.189-.49.188-.48.185-.49.184-.48.18-.48.178-.48.175-.47.173-.48.17-.47.168-.47.165-.47.162-.47.159-.46.156-.46.153-.46.15-.45.146-.46.143-.44.139-.45.138-.44.132-.44.129-.43.125-.43.127-.44.108-.34.127-.33.148-.32.166-.32.184-.3.203-.29.219-.29.235-.26.251-.25.265-.24.279-.22.291-.21.303-.18.314-.17.323-.15.331-.13.338-.11.344-.09.349-.07.352-.04.355-.03.355-.01.356.02z" fill="#ffff01"/><g><path d="M892.997 598.495h2.154l1.082.009h1.073l1.081.008 1.082.009 1.073.008 1.081.009 1.082.017 1.081.009.852.008.851.017.86.017.86.009.852.017.852.017.851.017.852.017.852.017.851.025.86.017.852.026.851.017.852.025 1.703.052 1.695.05 1.703.052 1.695.06 1.703.059 1.695.06 1.694.06 1.695.067 1.695.068 1.694.069 1.686.068 1.695.076 1.686.068 1.686.077 1.695.068 3.364.154 6.736.306 3.355.145 1.678.077 1.686.068 1.67.076 1.677.068 1.677.069 1.67.068 1.677.068 1.67.068 1.677.06 1.669.06 1.67.059 1.668.06 1.67.05 1.668.052 1.661.05.835.018.834.025.826.017.835.026.834.017.835.017.834.017.826.017.835.017.826.017.835.017.834.009.826.017.835.008.826.009.834.008.826.009.826.008.835.009h.826l.835.008H1002.119l.835-.008.826-.009.826-.008.826-.009.826-.008.835-.009.826-.017.826-.008.826-.017.826-.018.834-.017 1.831-.042 1.831-.043 1.84-.042 1.83-.034 1.832-.034 1.839-.043 1.83-.034 1.84-.026 1.831-.034 1.84-.034 1.83-.025 1.84-.026 1.831-.025 1.83-.026 1.84-.017 1.84-.025 1.83-.018 1.84-.017 1.831-.017 1.84-.008 1.83-.017 1.84-.009 1.84-.008 1.839-.009h1.83l1.84-.008H1062.625l1.83.008h1.84l1.84.009 1.814.008h.349l.74-.008h.47l.527-.009h3.372l.384.009h.391l.41.008.4.009.4.008.408.009.418.008.417.009.409.008.425.017.426.018.418.017.425.017.426.017.417.025.418.026.425.025.418.026.417.034.417.034.41.034.416.034.4.043.213.025.205.026.221.025.205.026.204.025.196.034.204.026.222.034.204.034.204.034.222.043.23.042.213.043.213.042.221.043.238.06.247.06.23.059.264.077.239.068.28.093.29.094.29.102.34.136.316.137.34.153.418.213.357.196.264.162.23.136.196.136.281.187.264.205.247.196.298.255.264.239.281.28.315.333.247.29.324.391.298.434.28.426.299.537.247.494.238.562.205.596.17.596.11.528.094.536.06.367.06.366.06.374.059.375.06.366.05.366.052.375.06.375.042.366.05.375.052.366.043.375.042.374.043.367.042.374.043.375.034.375.043.366.034.374.034.375.034.375.025.375.034.374.026.375.034.375.025.374.026.375.026.375.017.374.025.375.017.375.017.375.017.374.017.375.017.375.017.383.009.366.017.383.008.375.009.375.008.374.009.375.008.383v.375l.009.375v2.64l-.009.374v.375l-.008.383-.009.383-.008.375-.009.375-.008.375-.009.383-.017.375-.008.383-.017.374-.017.375-.009.375-.017.383-.017.375-.017.383-.017.375-.025.374-.017.384-.043.757-.043.75-.05.758-.052.758-.05.758-.06.749-.06.758-.068.75-.06.757-.068.758-.068.75-.077.758-.076.749-.069.758-.085.75-.076.757-.086.75-.085.749-.085.758-.085.75-.094.749-.085.75-.093.748-.094.75-.102.74-.094.75-.094.75-.102.74-.102.75-.102.74-.102.742-.103.74-.102.75-.102.74-.213 1.474-.213 1.473-.213 1.465-.213 1.465-.213 1.456-.434 2.895-.213 1.448-.204 1.43-.213 1.423-.204 1.422-.205 1.414-.093.707-.103.698-.093.698-.103.698-.093.699-.094.69-.085.69-.094.69-.093.68-.086.69-.085.681-.085.673-.085.681-.077.673-.076.673-.077.664-.077.664-.068.665-.076.664-.068.656-.069.655-.06.648-.059.647-.06.647-.06.647-.05.639-.051.639-.051.63-.043.63-.043.622-.042.621-.034.622-.034.622-.017.298-.017.315-.068 1.456-.069 1.465-.068 1.464-.068 1.474-.068 1.464-.06 1.465-.06 1.465-.067 1.465-.06 1.464-.06 1.474-.05 1.464-.06 1.465-.06 1.473-.05 1.465-.052 1.465-.051 1.473-.051 1.465-.051 1.465-.051 1.473-.051 1.465-.043 1.473-.051 1.465-.043 1.473-.042 1.465-.051 1.473-.043 1.465-.085 2.938-.077 2.946-.085 2.938-.077 2.938-.076 2.947-.068 2.937-.077 2.947-.068 2.946-.068 2.938-.068 2.947-.069 2.946-.127 5.894-.128 5.901-.136 5.902-.068 2.946-.068 2.955-.069 2.947-.068 2.955-.068 2.955-.077 2.955-.076 2.955-.077 2.955-.076 2.955-.086 2.955-.085 2.963-.042 1.482-.051 1.473-.043 1.482-.043 1.482-.05 1.482-.043 1.481-.051 1.474-.051 1.481-.052 1.482-.05 1.482-.052 1.482-.05 1.481-.06 1.482-.06 1.482-.051 1.482-.06 1.482-.06 1.481-.059 1.482-.06 1.482-.068 1.482-.068 1.481-.06 1.482-.068 1.482-.068 1.49-.068 1.482-.077 1.482-.068 1.482-.076 1.49-.077 1.482-.077 1.481-.076 1.482-.085 1.49-.077 1.482-.085 1.49-.085 1.482-.094 1.49-.085 1.482-.094 1.482-.085 1.49-.102 1.49-.094 1.482-.094 1.49-.102 1.482-.102 1.49-.102 1.482-.11 1.482-.137 2.01-.145 2.01-.145 2.01-.136 2.01-.28 4.019-.273 4.028-.273 4.036-.145 2.019-.136 2.018-.145 2.027-.144 2.026-.145 2.019-.145 2.026-.145 2.027-.153 2.027-.153 2.027-.154 2.027-.076 1.022-.085 1.013-.077 1.013-.085 1.014-.077 1.013-.085 1.014-.085 1.021-.085 1.014-.086 1.013-.085 1.014-.093 1.022-.086 1.013-.093 1.022-.094 1.013-.094 1.014-.093 1.022-.094 1.013-.094 1.013-.102 1.022-.093 1.014-.103 1.013-.102 1.022-.102 1.013-.102.98v.025l-.009.034-.017.239-.025.34-.026.443-.076 1.116-.086 1.362-.05.758-.06.8-.051.835-.06.86-.068.886-.06.911-.068.903-.077.92-.034.468-.042.451-.034.46-.043.46-.042.451-.043.443-.034.452-.043.442-.05.435-.043.434-.043.426-.051.417-.043.417-.05.41-.052.4-.05.391-.06.392-.052.383-.06.375-.033.204-.034.187-.034.188-.034.196-.043.196-.034.187-.043.196-.042.213-.051.204-.051.204-.052.23-.068.239-.068.23-.085.28-.094.29-.11.298-.137.358-.178.4-.222.469-.247.442-.213.358-.204.307-.264.374-.332.418-.29.323-.127.137-.716.69-.187.161-.486.383-.332.213-.979.58h-.009l-.928.417h-.017l-.92.306-.349.094-.698.145-.392.068-.383.076-.375.06-.391.068-.384.068-.366.051-.383.06-.383.06-.383.05-.375.052-.383.05-.392.052-.375.043-.374.042-.384.043-.383.034-.375.034-.374.034-.392.034-.375.034-.374.034-.384.026-.374.025-.384.026-.374.025-.375.017-.383.017-.375.017-.375.017-.374.017-.375.018-.375.008-.374.009-.384.017-.374.008h-.375l-.375.009h-.374l-.367.008h-1.865l-.366-.008h-.374l-.367-.009h-.374l-.366-.008-.367-.009-.366-.008-.74-.017-.733-.026-.724-.026-.732-.025-.724-.034-.724-.034-.715-.034-.724-.034-.716-.034-.715-.043-.707-.034-.707-.043-1.405-.085-2.767-.162-1.363-.085-.673-.034-.672-.042-.673-.035-.664-.034-.656-.034-.656-.034-.647-.034-.647-.025-.639-.026-.63-.025-.63-.017-.63-.017-.307-.009-.307-.009h-.306l-.298-.008-.315-.009h-.903l-.298-.008h-.29l-.29.008h-.306l-1.754.009-1.763.017-1.763.009-1.762.008-3.517.017-3.526.017-3.526.009-3.525.017-3.517.008-3.526.009-7.043.017-3.517.008-3.525.017-3.517.009-3.517.017-3.517.017-1.763.008-1.754.009-1.755.017-1.763.008-1.754.009-1.754.017-1.763.017-1.754.017-1.754.017-1.755.017-1.754.017-1.754.026-1.755.017-1.754.025-1.754.026-1.746.025-1.754.026-1.754.034-1.746.026-1.754.034-1.746.034-1.755.042-1.745.034-1.746.043-1.746.042-1.746.043-1.745.043-1.746.05-1.746.052-1.746.05-1.737.06-1.746.06-1.745.06-1.746.06-1.456.05-1.457.052-1.464.042-1.457.051-1.464.034-1.457.043-1.456.034-1.456.034-1.456.026-1.456.034-1.457.025-1.456.017-1.456.026-1.456.017-1.448.008-1.456.017-1.456.009-1.448.008h-1.448l-1.456.009h-1.456l-1.448-.009h-1.448l-1.447-.008-1.457-.009-1.447-.017-1.448-.008-1.448-.017-1.447-.017-1.448-.026-1.448-.025-1.448-.017-1.456-.035-1.439-.025-1.456-.034-1.44-.034-1.447-.034-1.448-.034-1.447-.043-1.448-.042-1.448-.043-1.448-.051-1.447-.043-1.448-.05-1.448-.052-1.447-.06-1.448-.05-1.44-.06-1.447-.06-1.448-.06-1.447-.06-1.448-.067-1.448-.068-1.448-.068-1.447-.069-1.456-.068-1.448-.076-1.448-.077-1.448-.068-1.447-.077-1.448-.085-1.456-.077-1.448-.085-1.422-.085-.17-.008-.145-.009-.145-.008h-.17l-.17-.009-.162-.008-.375-.009-.383-.008-.4-.009h-.861l-.46-.009h-.476l-.486.009h-.502l-1.048.009-1.09.008-1.132.009-1.167.008-.596.009H805.513l-.64-.009h-.638l-.638-.017-.648-.008-.655-.018-.648-.017-.34-.008-.324-.009-.323-.017-.341-.008-.332-.017-.324-.017-.323-.009-.35-.017-.332-.017-.323-.025-.332-.017-.341-.026-.324-.017-.332-.025-.34-.026-.333-.026-.332-.034-.332-.025-.332-.034-.34-.034-.333-.034-.332-.034-.323-.035-.341-.042-.34-.043-.324-.042-.332-.043-.333-.05-.332-.052-.34-.051-.332-.051-.324-.06-.34-.06-.324-.059-.332-.06-.332-.068-.341-.068-.332-.077-.332-.068-.332-.085-.333-.076-.326-.086-.33-.085-.337-.093-.336-.103-.338-.102-.327-.102-.335-.102-.334-.12-.32-.11-.19-.068-.149-.06-.166-.06-.185-.076-.17-.068-.165-.06-.162-.068-.17-.077-.167-.068-.183-.085-.168-.077-.145-.06-.181-.084-.19-.094-.148-.077-.162-.076-.184-.094-.166-.085-.165-.094-.182-.094-.165-.093-.163-.094-.187-.11-.168-.103-.162-.102-.179-.11-.161-.103-.23-.153-.273-.187-.36-.273-.336-.281-.21-.187-.239-.222-.293-.29-.221-.238-.19-.213-.22-.272-.162-.205-.146-.195-.158-.222-.133-.196-.138-.213-.13-.204-.135-.23-.182-.324-.18-.349-.163-.332-.144-.323-.127-.307-.114-.29-.103-.28-.093-.273-.091-.273-.081-.264-.071-.247-.07-.246-.063-.239-.06-.238-.058-.247-.052-.23-.05-.23-.049-.239-.045-.221-.041-.221-.043-.23-.038-.222-.037-.221-.037-.23-.033-.222-.033-.212-.032-.23-.03-.23-.03-.213-.027-.222-.028-.23-.025-.221-.026-.221-.026-.239-.045-.434-.042-.451-.041-.46-.038-.452-.034-.46-.034-.45-.03-.46-.03-.46-.027-.46-.024-.46-.024-.452-.021-.46-.02-.46-.02-.45-.017-.452-.017-.443-.016-.443-.014-.443-.014-.434-.025-.851-.02-.827-.02-.791-.018-.758-.032-1.38-.014-.605-.017-.545-.007-.238-.008-.221-.008-.205-.007-.17-.007-.145-.006-.11-.005-.069-.005-.06-.086-1.004-.089-1.04-.087-1.03-.086-1.039-.086-1.039-.084-1.038-.083-1.04-.083-1.03-.08-1.039-.082-1.039-.08-1.039-.078-1.03-.079-1.039-.077-1.039-.076-1.03-.076-1.04-.149-2.069-.146-2.07-.144-2.068-.141-2.07-.14-2.06-.135-2.07-.136-2.07-.133-2.06-.132-2.07-.13-2.06-.129-2.061-.127-2.07-.254-4.121-.251-4.114-.25-4.121-.251-4.113-.127-2.053-.127-2.06-.127-2.053-.13-2.06-.127-2.053-.125-2.061-.124-2.06-.119-2.07-.117-2.061-.114-2.06-.113-2.062-.11-2.06-.106-2.061-.105-2.061-.102-2.061-.1-2.061-.098-2.052-.095-2.061-.093-2.061-.091-2.06-.089-2.062-.087-2.06-.085-2.061-.083-2.061-.08-2.061-.08-2.061-.078-2.052-.076-2.061-.074-2.061-.073-2.06-.07-2.062-.07-2.052-.068-2.06-.067-2.062-.065-2.06-.064-2.053-.062-2.06-.063-2.062-.06-2.052-.059-2.06-.058-2.053-.057-2.061-.056-2.052-.055-2.061-.055-2.053-.053-2.06-.106-4.114-.102-4.113-.1-4.104-.099-4.114-.097-4.113-.191-8.21-.191-8.217-.096-4.105-.098-4.104-.098-4.105-.1-4.096-.104-4.105-.105-4.096-.054-2.052-.055-2.044-.055-2.052-.056-2.053-.057-2.044-.059-2.052-.06-2.044-.06-2.044-.061-2.052-.063-2.044-.064-2.052-.066-2.044-.066-2.044-.07-2.044-.068-2.043-.072-2.044-.072-2.052-.075-2.044-.076-2.044-.077-2.044-.08-2.044-.081-2.035-.083-2.044-.085-2.044-.087-2.044-.09-2.043-.09-2.036-.093-2.043-.096-2.044-.098-2.036-.1-2.043-.101-2.036-.104-2.044-.108-2.035-.109-2.035-.111-2.044-.115-2.035-.117-2.036-.119-2.035-.123-2.035-.125-2.035-.127-2.036-.13-2.035-.134-2.035-.069-1.022-.068-1.014-.07-1.022-.07-1.013-.07-1.013-.072-1.022-.073-1.014-.073-1.013-.074-1.022-.074-1.013-.076-1.022-.077-1.014-.077-1.013-.078-1.013-.079-1.022-.08-1.014-.08-1.013-.08-1.014-.083-1.021-.084-1.014-.083-1.013-.085-1.014-.086-1.022-.087-1.013.22-3.04.895-2.206-.312-.29-1.487-2.665-.592-2.989.363-3.031 1.28-2.768 2.074-2.231 2.663-1.49 2.992-.597 2.13-.076 2.124-.086 2.124-.085 2.126-.085 2.124-.085 2.127-.085 2.125-.094 2.126-.085 2.127-.094 2.127-.093 4.258-.188 4.258-.196 4.257-.187 8.525-.392 4.266-.187 4.267-.187 2.137-.094 2.13-.094 2.137-.093 2.137-.094 2.138-.085 2.129-.085 2.146-.094 2.137-.085 2.138-.085 2.137-.077 2.138-.077 2.146-.085 2.137-.076 2.146-.069 2.138-.076 2.146-.068 2.137-.06 2.146-.068 2.146-.06 2.146-.06 1.073-.025 1.073-.025 1.073-.026 1.073-.025 1.073-.026 1.073-.026 1.073-.025 1.073-.017 1.082-.026 1.073-.017 1.073-.017 1.073-.025 1.073-.017 1.081-.017 1.073-.009 1.073-.017 1.073-.017 1.082-.008 1.073-.018 1.073-.008 1.081-.009 1.073-.008 1.073-.009 1.082-.008h1.073l1.082-.009H892.997zm-76.831 367.01l.511.01.51.008.503.008.486.017.255.009.247.008.23.009.256.008.238.017.221.009 1.457.085 1.43.077 1.431.085 1.43.076 1.431.077 1.423.077 1.43.076 1.422.068 1.431.069 1.422.068 1.43.068 1.423.068 1.422.06 1.422.06 1.431.059 1.414.06 1.43.059 1.422.051 1.423.051 1.413.051 1.422.051 1.423.051 1.422.043 1.422.043 1.422.042 1.414.043 1.422.034 1.422.034 1.414.034 1.422.034 1.422.026 1.414.025 1.422.026 1.413.025 1.423.017 1.422.017 1.413.017 1.423.017 1.413.009 1.422.008 1.414.009h1.422l1.422.008h1.414l1.422-.008h1.422l1.414-.009 1.422-.008 1.422-.009 1.414-.017 1.422-.017 1.422-.017 1.414-.025 1.43-.026 1.414-.025 1.422-.026 1.422-.034 1.423-.034 1.422-.043 1.422-.034 1.422-.042 1.43-.051 1.423-.043 1.43-.051 1.763-.068 1.772-.06 1.762-.06 1.772-.05 1.771-.06 1.771-.051 1.772-.051 1.762-.043 1.772-.042 1.771-.043 1.771-.043 1.772-.042 1.763-.034 1.77-.034 1.772-.034 1.771-.034 1.763-.026 1.772-.034 1.77-.026 1.772-.025 1.763-.017 1.771-.026 1.772-.025 1.77-.017 1.764-.017 1.771-.017 1.763-.017 1.771-.017 1.771-.009 1.763-.017 1.771-.009 1.763-.008 1.772-.017 1.762-.009 3.534-.017 3.526-.017 3.526-.008 3.534-.009 3.525-.008 7.043-.026 3.517-.008 3.517-.009 3.517-.008 3.517-.017 3.509-.017 3.508-.017 1.755-.009 1.754-.008 1.754-.017 1.755-.009h2.128l.358.009.34.008h.358l.367.009.349.008.357.009.699.017.715.025.707.026.707.025.698.034.707.034.698.034.716.035.698.034.698.042.698.034.699.043 1.388.085 2.768.162 1.37.085.682.034.681.043.673.034.681.034.673.034.664.034.673.025.656.034.664.017.664.026.647.026.656.017.324.008h.323l.324.009.315.008h.324l.323.009h2.206l.315-.009h.306l.307-.008.307-.009.306-.008.307-.009.306-.008.298-.009.307-.008.306-.017.29-.018.298-.008.298-.026.307-.017.28-.017h.086l.008-.144.034-.426.043-.426.034-.417.06-.86.068-.869.068-.852.06-.851.05-.835.06-.809.051-.775.052-.74.085-1.363.076-1.158.034-.494.034-.435.026-.391.017-.213.017-.179.11-1.022.103-.988.094-.988.102-.996.093-.988.094-.988.094-.996.094-.996.093-.988.094-.997.085-.996.094-.996.085-.997.085-.988.085-.996.085-1.005.085-.996.086-.996.076-.997.085-.996.077-.997.085-1.004.077-.997.077-1.005.153-2 .153-2.002.145-2.001.145-2.01.144-2.01.145-2.01.145-2 .136-2.01.145-2.019.136-2.01.281-4.028.273-4.036.28-4.028.137-2.019.145-2.026.136-2.019.145-2.01.11-1.464.103-1.465.093-1.465.103-1.464.093-1.457.094-1.464.094-1.465.093-1.465.085-1.456.094-1.465.085-1.464.085-1.465.077-1.465.085-1.456.077-1.465.077-1.465.076-1.464.077-1.465.076-1.465.069-1.465.068-1.464.076-1.465.06-1.465.068-1.464.068-1.465.06-1.473.068-1.465.06-1.465.06-1.465.059-1.464.06-1.465.05-1.473.06-1.465.051-1.465.06-1.473.05-1.465.052-1.465.043-1.473.05-1.465.052-1.464.05-1.474.043-1.464.043-1.474.051-1.464.043-1.474.042-1.464.085-2.938.086-2.938.076-2.947.077-2.938.077-2.946.068-2.938.076-2.947.068-2.938.069-2.946.068-2.947.068-2.946.128-5.893.136-5.902.128-5.893.068-2.955.068-2.955.068-2.946.068-2.955.077-2.955.068-2.955.077-2.955.076-2.955.085-2.955.077-2.964.085-2.955.051-1.482.043-1.473.042-1.482.043-1.482.051-1.481.051-1.482.043-1.473.05-1.482.052-1.482.051-1.482.051-1.481.06-1.482.05-1.482.06-1.482.06-1.482.051-1.481.06-1.482.068-1.49.06-1.482.06-1.482.067-1.482.06-1.481.068-1.482.068-1.49.077-1.482.068-1.482.017-.35.017-.357.042-.698.043-.707.043-.707.05-.698.052-.707.05-.707.06-.715.06-.707.06-.707.068-.715.068-.707.068-.715.068-.716.077-.715.077-.715.076-.716.085-.715.077-.715.085-.716.085-.723.085-.716.094-.715.094-.724.085-.715.094-.724.093-.724.103-.724.093-.715.102-.724.103-.724.093-.724.102-.724.103-.723.213-1.448.204-1.448.213-1.448.213-1.447.213-1.448.425-2.904.222-1.44.204-1.447.213-1.447.204-1.44.213-1.447.103-.716.093-.715.102-.724.103-.715.093-.716.094-.715.094-.715.093-.716.094-.706.094-.716.085-.707.094-.715.085-.707.085-.707.076-.706.086-.707.076-.707.077-.698.077-.699.076-.706.068-.699.068-.69.069-.698.068-.698.06-.69.059-.69.051-.69.06-.69.05-.68.052-.69.042-.673.043-.681.043-.682.042-.672.017-.341.017-.34.017-.333.009-.332.017-.34.017-.333.008-.332.017-.332.009-.332.017-.332.008-.332.009-.332.008-.333.009-.332.009-.323v-.332l.008-.324v-.332l.009-.324v-.655l.008-.324v-.324l-.008-.323V627.449l-.009-.323-.008-.315v-.324l-.009-.315-.009-.324-.008-.315-.009-.315-.017-.315-.008-.315-.009-.315-.017-.315-.017-.315-.017-.307-.017-.315-.017-.306-.017-.307-.017-.315-.025-.307-.017-.306-.026-.307-.026-.306-.025-.307-.009-.12-.204-.008-.358-.008-.357-.009-.358-.008-.366-.009-.366-.008h-.35l-.349-.009h-.357l-.34-.008H1071.643l-.452.008-.74.009h-.546l-1.848-.009-1.822-.008-1.814-.009h-7.273l-1.822.009-1.814.008-1.814.009-1.822.008-1.814.009-1.823.017-1.814.017-1.813.017-1.823.017-1.822.017-1.814.026-1.814.025-1.822.026-1.823.025-1.814.026-1.822.025-1.814.034-1.822.034-1.823.034-1.814.035-1.822.034-1.823.042-1.822.034-1.822.043-1.823.042-.86.017-.86.017-.86.017-.86.018-.86.017-.86.008-.86.009-.852.008-.86.009-.86.008h-.86l-.86.009h-4.284l-.86-.009h-.852l-.86-.008-.851-.009-.852-.008-.86-.009-.852-.008-.851-.017-.86-.009-.852-.017-.852-.009-.86-.017-.851-.017-.852-.017-.851-.017-.852-.025-.852-.017-.851-.026-.852-.017-.851-.025-.852-.017-1.703-.052-1.695-.05-1.695-.06-1.703-.051-1.694-.06-1.695-.068-1.695-.06-1.694-.068-1.695-.068-1.686-.068-1.695-.068-1.686-.068-1.686-.077-1.686-.077-1.695-.068-3.372-.153-6.728-.307-3.364-.144-1.677-.077-1.678-.068-1.678-.077-1.677-.068-1.67-.068-1.677-.068-1.669-.068-1.678-.068-1.669-.06-1.677-.06-1.67-.06-1.669-.05-1.669-.051-1.669-.052-1.669-.05-.835-.026-.826-.017-.834-.026-.835-.017-.834-.017-.835-.025-.826-.017-.834-.017-.835-.017-.835-.009-.834-.017-.826-.017-.835-.009-.826-.008-1.056-.017-1.056-.009-1.056-.008-1.056-.009-1.056-.008-1.056-.009h-1.056l-1.056-.008h-6.335l-1.065.008h-1.056l-1.056.009-1.056.008-1.056.009-1.056.008-1.056.009-1.064.008-1.056.017-1.056.009-1.056.017-1.056.017-1.065.017-1.047.017-1.065.017-1.055.017-1.056.026-1.065.017-1.056.025-1.056.017-1.056.026-1.064.025-1.056.026-1.056.026-1.056.025-1.065.026-2.12.06-2.112.059-2.12.06-2.121.068-2.12.068-2.121.068-2.12.076-2.12.077-2.121.077-2.12.076-2.13.086-2.12.076-2.12.085-2.13.086-2.12.093-2.13.085-2.12.094-2.129.085-2.129.094-2.12.094-4.258.187-4.258.196-8.524.383-4.258.196-4.267.187-4.266.188-2.139.093-2.135.094-2.138.094-2.137.093-2.137.085-.242.009.142.57.087 1.03.088 1.031.086 1.03.085 1.031.084 1.03.084 1.04.082 1.03.082 1.03.081 1.03.08 1.031.08 1.03.078 1.04.077 1.03.077 1.03.076 1.03.075 1.031.074 1.03.074 1.031.073 1.03.071 1.031.072 1.039.07 1.03.07 1.03.069 1.031.135 2.061.133 2.06.13 2.07.126 2.061.124 2.061.12 2.06.119 2.062.116 2.06.113 2.07.11 2.06.108 2.062.106 2.06.104 2.061.1 2.061.099 2.061.096 2.06.094 2.062.092 2.07.09 2.06.088 2.06.086 2.053.083 2.061.082 2.06.08 2.062.078 2.06.077 2.061.075 2.061.073 2.061.072 2.06.07 2.062.07 2.052.066 2.061.066 2.06.064 2.062.064 2.052.062 2.06.06 2.062.06 2.06.059 2.053.057 2.06.057 2.053.055 2.06.056 2.062.053 2.052.106 4.113.103 4.113.1 4.114.1 4.113.097 4.104.096 4.114.191 8.209.192 8.21.097 4.104.098 4.105.1 4.104.102 4.097.105 4.104.053 2.044.055 2.052.055 2.044.055 2.052.057 2.053.058 2.044.059 2.043.06 2.053.061 2.044.063 2.043.064 2.053.065 2.044.065 2.043.068 2.044.07 2.044.07 2.044.071 2.044.075 2.043.074 2.044.077 2.044.08 2.044.08 2.044.082 2.044.084 2.035.086 2.044.088 2.044.09 2.035.093 2.044.094 2.035.097 2.044.099 2.035.101 2.044.106 2.035.102 2.035.11 2.044.111 2.036.11 2.035.12 2.035.12 2.036.119 2.035.119 2.035.128 2.035.127 2.061.137 2.07.119 2.06.127 2.061.256 4.122.247 4.113.255 4.113.247 4.114.128 2.052.128 2.06.136 2.053.128 2.044.128 2.052.136 2.053.136 2.043.136 2.053.145 2.044.136 2.043.145 2.044.153 2.053.069 1.013.076 1.022.077 1.022.076 1.022.077 1.022.077 1.021.085 1.014.077 1.022.085 1.022.076 1.022.086 1.013.085 1.022.085 1.022.085 1.013.085 1.022.094 1.056.017.247.017.29.017.272.017.273.008.28.018.282.008.29.009.306.017.613.017.656.034 1.396.017.741.017.767.017.783.025.8.017.4.009.401.017.4.008.4.017.41.017.4.017.4.026.392.017.391.017.392.026.375.025.383.026.358.025.366.026.357.008.111.068.017.196.034.188.034.204.034.204.034.196.026.213.034.222.034.213.026.23.034.22.025.23.026.23.025.24.026.238.025.238.026.247.026.247.017.247.025.255.017.247.017.264.017.264.026.256.017.255.017.273.008.272.017.256.017.28.009.273.017.273.008.272.009.273.008.28.009.273.009.571.017.554.017.57.008.58.009.57.008h3.441l.57-.008 1.14-.009 1.125-.008 1.107-.009 1.09-.008h2.64z" fill="#fff"/><path d="M849.565 658.422l2.7 1.422 2.129 2.189 1.345 2.742.435 3.014-.009.98-.017.97-.008.971-.017.971-.009.97-.008.972-.017 1.95-.017 1.95-.009 1.95-.008 1.942-.009 1.95v5.859l.009 1.95v1.959l.017 1.95.008 1.958.009 1.96.017 1.958.025 1.958.017 1.96.026 1.958.017 1.958.025 1.96.034 1.966.026 1.959.034 1.967.026 1.959.034 1.967.042 1.967.034 1.967.034 1.967.043 1.968.042 1.967.043 1.967.043 1.967.042 1.976.043 1.967.042 1.967.051 1.976.094 3.943.094 3.943.102 3.951.094 3.951.102 3.952.204 7.911.102 3.96.094 3.96.094 3.96.093 3.96.052 1.984.042 1.976.043 1.984.05 1.984.043 1.984.034 1.984.043 1.976.043 1.984.034 1.984.034 1.985.042 1.984.026 1.984.034 1.984.034 1.985.026 1.992.025 1.984.026 1.985.025 1.984.026 1.984.017 1.984.017 1.993.017 1.984.008 1.984.017 1.985.009 1.984v1.993l.008 1.984V843.277l-.008 1.984-.009 1.984-.008 1.993-.009 1.984-.017 1.984-.008.997-.009.987-.008.997-.017.996-.009.988-.008.996-.017.997-.017.988-.009.996-.017.988-.017.996-.017.997-.025.987-.018.997-.017.996-.025.988-.017.996-.026.997-.025.988-.026.996-.025.988-.026.996-.025.996-.026.988-.034.997-.026.987-.034.997-.034.996-.034.988-.034.996-.034.988-.034.997-.034.987-.043.997-.042.996-.034.988-.043.996-.042.988-.043.997-.051.987-.043.997-.042.988-.051.996-.051.988-.052.996-.05.988-.052.996-.05.988-.06.997-.052.987-.06.997-.059.988-.06.988-.059.996-.06.988-.06.996-.067.988-.068.996-.06.988-.068.988-.077.996-.068.988-.068.988-.077.996-.076.988-.077.988-.068.996-.085.98-.707 2.972-1.601 2.597-2.316 1.984-2.82 1.159-3.04.238-2.971-.715-2.598-1.593-1.975-2.316-1.167-2.819-.239-3.04.077-.97.077-.972.068-.962.076-.962.069-.963.068-.97.068-.963.068-.97.068-.963.068-.97.06-.963.068-.97.06-.963.06-.97.059-.972.06-.97.05-.963.06-.97.051-.971.051-.963.06-.97.051-.971.051-.971.043-.97.05-.972.043-.97.051-.971.043-.971.043-.971.042-.97.043-.972.042-.97.034-.971.043-.971.034-.98.043-.97.034-.971.034-.97.034-.98.034-.971.025-.97.034-.972.026-.979.034-.97.026-.98.025-.97.026-.98.025-.971.026-.98.025-.97.026-.98.017-.97.017-.98.026-.979.017-.97.017-.98.017-.971.017-.98.017-.979.017-.979.008-.97.017-.98.009-.98.017-.979.008-.98.009-.978.008-.98.009-.97.017-1.96.017-1.958.008-1.959v-1.958l.009-1.959v-5.884l-.009-1.968-.008-1.967-.009-1.958-.017-1.968-.017-1.967-.017-1.958-.017-1.968-.025-1.967-.017-1.967-.026-1.967-.025-1.967-.034-1.967-.026-1.976-.034-1.967-.034-1.967-.034-1.976-.034-1.967-.043-1.967-.034-1.976-.042-1.967-.043-1.976-.043-1.967-.042-1.976-.043-1.976-.042-1.975-.051-1.967-.094-3.952-.094-3.951-.102-3.952-.094-3.951-.204-7.911-.102-3.952-.094-3.96-.102-3.95-.094-3.96-.102-3.952-.043-1.984-.042-1.976-.051-1.976-.043-1.984-.042-1.976-.043-1.975-.034-1.985-.043-1.975-.042-1.985-.034-1.975-.034-1.984-.034-1.976-.034-1.976-.034-1.984-.026-1.976-.026-1.984-.025-1.976-.026-1.975-.025-1.984-.017-1.976-.017-1.976-.017-1.984-.017-1.976-.009-1.975-.008-1.985-.009-1.975-.008-1.976v-3.951l.008-1.985v-1.975l.009-1.976.017-1.976.008-1.975.017-1.976.009-.988.017-.988.008-.988.009-.987.017-.988.008-.988.52-3.006 1.422-2.7 2.189-2.12 2.742-1.354 3.014-.435 3.006.52zM929.828 660.815l2.716 1.388 2.163 2.163 1.38 2.717.477 3.014v2.265l-.009 2.283-.008 2.273-.009 2.274-.008 2.274-.017 2.274-.017 2.273-.017 2.274-.017 2.274-.017 2.274-.026 2.273-.025 2.274-.026 2.265-.034 2.274-.026 2.265-.025 2.274-.034 2.265-.034 2.274-.034 2.265-.034 2.266-.068 4.53-.069 4.539-.144 9.052-.077 4.53-.068 4.523-.034 2.265-.034 2.257-.026 2.256-.034 2.266-.034 2.256-.025 2.266-.026 2.256-.026 2.257-.025 2.257-.026 2.257-.025 2.256-.017 2.257-.017 2.257-.017 2.256-.009 2.257-.017 2.257-.008 2.248-.009 2.257V792.36l.009 1.124v1.124l.008 1.124v1.124l.009 1.125.008 1.132.009 1.124.008 1.124.009 1.124.008 1.125.009 1.124.017 1.124.008 1.124.017 1.133.009 1.124.017 1.124.017 1.124.017 1.124.017 1.124.026 1.124.017.81.017.808.017.81.017.808.017.81.025.808.017.818.026.809.025.817.034.81.026.808.026.818.034.817.025.818.034.809.034.817.034.818.034.817.034.818.035.817.034.818.042.818.077 1.643.076 1.644.086 1.643.085 1.652.085 1.644.094 1.652.093 1.652.085 1.652.094 1.652.187 3.321.188 3.322.187 3.33.094 1.66.094 1.67.085 1.677.093 1.669.085 1.678.086 1.669.076 1.677.085 1.678.035.843.034.835.042.843.034.843.034.834.034.843.034.843.034.843.035.844.025.843.034.843.026.843.025.843.026.843.025.843.026.843.017.843.025.852.018.843.025.851.017.843.009.844.017.851.008.843.017.852.009.843.008.851v.844l.009.851V898.826l-.009.852v.851l-.008.852-.009.843-.017.851-.008.86-.017.852-.017.843-.026.86-.017.852-.026.851-.034.852-.025.852-.034.851-.034.86-.034.852-.034.852-.043.86-.043.851-.05.852-.043.86-.051.852-.06.86-.051.851-.06.86-.068.852-.06.843-.698 2.964-1.584 2.605-2.316 1.993-2.81 1.175-3.04.256-2.972-.707-2.606-1.584-1.993-2.308-1.175-2.819-.247-3.04.06-.809.059-.792.051-.8.051-.792.051-.8.051-.793.043-.8.043-.8.042-.801.034-.792.034-.8.034-.801.034-.8.034-.801.026-.8.026-.801.025-.81.017-.8.017-.8.017-.81.017-.8.017-.809.009-.8.008-.81.009-.808.008-.8v-.81l.009-.809v-1.618l-.009-.809v-.809l-.008-.809-.009-.817-.008-.81-.009-.808-.017-.81-.008-.817-.017-.809-.017-.817-.017-.818-.017-.809-.017-.817-.026-.818-.026-.809-.017-.817-.034-.818-.025-.818-.026-.817-.025-.818-.034-.817-.026-.818-.034-.817-.034-.826-.034-.818-.034-.817-.034-.826-.034-.818-.034-.826-.043-.817-.077-1.644-.076-1.652-.085-1.644-.086-1.652-.085-1.652-.093-1.652-.086-1.652-.093-1.652-.188-3.313-.187-3.321-.187-3.321-.094-1.67-.094-1.66-.085-1.669-.093-1.67-.086-1.668-.085-1.67-.085-1.668-.085-1.67-.077-1.677-.042-.835-.034-.834-.043-.843-.034-.835-.034-.835-.034-.843-.034-.834-.034-.843-.034-.835-.026-.843-.034-.834-.025-.844-.026-.843-.026-.834-.025-.843-.026-.835-.025-.843-.017-.843-.026-.843-.017-.835-.017-.851-.017-.835-.017-1.14-.017-1.142-.017-1.141-.017-1.141-.017-1.141-.017-1.142-.017-1.14-.009-1.142-.017-1.14-.008-1.142-.009-1.141-.008-1.141-.009-1.141-.008-1.133-.009-1.141-.008-1.141v-1.141l-.009-1.142v-1.132l-.008-1.141v-9.112l.008-2.274.009-2.274.017-2.274.008-2.273.017-2.274.017-2.274.026-2.274.017-2.273.025-2.266.026-2.273.026-2.274.025-2.265.034-2.274.026-2.265.034-2.274.034-2.265.034-2.266.034-2.273.068-4.53.068-4.531.145-9.061.077-4.522.068-4.522.034-2.265.025-2.257.034-2.265.034-2.257.035-2.257.025-2.265.026-2.257.025-2.256.026-2.257.025-2.265.017-2.257.026-2.257.017-2.256.017-2.249.008-2.256.017-2.257.009-2.257v-2.256l.009-2.249v-2.256l.476-3.015 1.388-2.717 2.155-2.163 2.725-1.38 3.015-.476 3.006.477zM1009.085 660.662l2.794 1.234 2.273 2.036 1.533 2.64.639 2.98.068 1.26.068 1.26.068 1.27.068 1.269.06 1.26.06 1.269.06 1.269.05 1.26.06 1.26.051 1.27.051 1.26.043 1.268.05 1.26.043 1.261.043 1.26.043 1.27.042 1.26.034 1.26.034 1.26.034 1.26.034 1.261.035 1.26.025 1.26.026 1.261.025 1.252.026 1.26.025 1.26.017 1.261.026 1.252.017 1.26.017 1.26.017 1.253.008 1.26.017 1.252.009 1.26.009 1.252.008 1.252.009 1.26.008 1.252.009 1.252v1.26l.008 1.252V726.226l-.008 1.26v2.504l-.009 1.251-.008 1.252v1.252l-.009 1.252-.008 1.252-.009 1.252-.017 1.251-.009 1.244-.008 1.252-.017 1.251-.009 1.252-.017 1.252-.034 2.495-.034 2.495-.034 2.504-.042 2.495-.034 2.495-.043 2.496-.051 2.495-.043 2.495-.05 2.495-.043 2.495-.052 2.495-.05 2.487-.103 4.982-.213 9.972-.102 4.982-.051 2.486-.051 2.487-.043 2.495-.05 2.487-.043 2.487-.051 2.495-.043 2.486-.034 2.487-.043 2.495-.034 2.487-.034 2.486-.025 2.496-.017 1.243-.009 1.243-.017 1.252-.008 1.243-.009.716v.724l-.008.723v1.44l-.009.715v1.448l.009.724v1.439l.008.724v.723l.009.716.008 1.456.017 1.44.017 1.447.026 1.448.017 1.456.025 1.447.034 1.448.026 1.448.034 1.456.034 1.456.034 1.448.043 1.456.034 1.456.042 1.457.043 1.456.042 1.456.043 1.456.094 2.921.085 2.93.187 5.85.094 2.938.094 2.938.042 1.465.051 1.473.043 1.473.042 1.474.034 1.473.043 1.473.034 1.473.043 1.482.034 1.473.034 1.482.025 1.482.026 1.473.034 1.482.017 1.482.026 1.482.017 1.49.017 1.482.008.74v.75l.009.74.008.742v1.49l.009.74v2.241l-.009.749v1.482l-.008.75v.749l-.009.74-.008.75-.009.75-.008.749-.009.74-.017.75-.008.74-.528 3.007-1.431 2.7-2.197 2.12-2.742 1.337-3.015.426-3.006-.528-2.7-1.431-2.12-2.197-1.337-2.742-.426-3.015.017-.732.009-.716.008-.723.009-.716.008-.724.009-.723.008-.716v-.724l.009-.715v-1.448l.008-.724V912.451l-.008-.723v-1.44l-.009-.723v-.724l-.008-.724-.009-.724-.017-1.448-.017-1.447-.017-1.448-.025-1.448-.026-1.456-.026-1.448-.034-1.447-.034-1.457-.025-1.456-.043-1.448-.034-1.456-.042-1.456-.035-1.456-.042-1.456-.043-1.457-.042-1.456-.051-1.465-.085-2.92-.094-2.93-.188-5.859-.093-2.93-.094-2.938-.042-1.473-.043-1.473-.043-1.473-.042-1.474-.034-1.473-.043-1.473-.034-1.473-.034-1.482-.034-1.473-.034-1.482-.026-1.473-.025-1.482-.026-1.49-.017-1.482-.025-1.482-.009-1.482-.017-1.481-.008-.75v-.74l-.009-.742V836.27l-.008-.75v-1.482l.008-.75v-1.49l.009-.74v-.75l.008-.74.017-1.261.009-1.26.017-1.261.008-1.252.034-2.512.034-2.512.034-2.512.034-2.504.043-2.512.043-2.504.042-2.504.043-2.503.05-2.495.052-2.504.051-2.495.051-2.495.102-4.99.205-9.964.11-4.982.043-2.487.051-2.487.051-2.478.051-2.486.043-2.478.042-2.487.043-2.478.043-2.478.034-2.487.042-2.478.034-2.478.026-2.478.017-1.235.008-1.235.017-1.235.009-1.243.017-1.235.009-1.243.008-1.235.009-1.235.008-1.235.009-1.243v-1.235l.008-1.235v-1.234l.009-1.235v-4.948l-.009-1.235v-1.235l-.008-1.243v-1.226l-.009-1.243-.008-1.235-.017-1.235-.009-1.235-.008-1.235-.018-1.235-.017-1.234-.017-1.235-.017-1.235-.017-1.235-.025-1.235-.017-1.234-.026-1.235-.025-1.235-.026-1.235-.034-1.235-.025-1.234-.035-1.235-.034-1.235-.034-1.235-.034-1.235-.042-1.234-.034-1.235-.043-1.235-.043-1.235-.05-1.226-.043-1.235-.051-1.243-.051-1.235-.051-1.226-.06-1.235-.051-1.235-.06-1.235-.06-1.235-.068-1.234-.06-1.235-.067-1.235-.068-1.252.306-3.032 1.235-2.793 2.035-2.265 2.64-1.533 2.98-.647 3.032.307z" fill="#fff"/></g><g><path d="M357.136 758.061l.29.01.23.02.179.014.264.015.203.026.202.025.244.038.153.02.218.035.344.068.334.076.316.073.308.081.299.08.298.088.273.086.255.083.272.093.263.093.254.1.254.091.254.1.237.098.245.1.236.106.245.099.243.116.228.096.243.116.244.108.235.115.235.114.235.107.242.124.235.115.235.115.242.124.233.123.235.115.241.133.242.124.25.134.474.256.483.257.482.266.481.274.482.265.488.284.49.275.48.282.488.284.48.282.48.283.48.282.471.282.472.281.463.28.463.28.454.28.455.28.877.537.846.517 1.57.966.718.45.654.398.59.364.263.161.249.143.224.13.2.12.167.098.128.075.097.055.008.001.438.209.551.257.552.257.552.257.551.257.553.248.56.259.552.257.553.248.56.258.553.249.56.25.554.248.56.25.562.25.554.24.561.249.561.25.563.24.56.25.563.241.561.25 1.125.482 1.133.484 1.124.482 1.142.484 1.134.475 1.134.475 1.134.475 1.142.476 1.142.476 1.144.467 1.143.468 1.152.468 1.144.468 1.152.468 1.152.469 1.153.46 1.152.469 1.153.46 1.16.47 2.315.92 2.321.931 2.322.93 2.332.924 2.33.932 2.329.94 1.17.462 1.168.48 1.169.47 1.168.47 1.17.471 1.167.48 1.168.479 1.168.479 1.167.479 1.177.48 1.167.487 1.175.489 1.165.496 1.167.487 1.174.497 1.166.496 1.173.506 1.156.503.587.253.587.253.586.253.586.26.578.252.585.262.587.252.577.26 1.52.678 1.513.676 1.512.676 1.521.677 3.025 1.353 3.032 1.361 3.024 1.361 3.031 1.37 3.024 1.361 3.023 1.37 3.021 1.377 3.023 1.37 3.022 1.377 3.021 1.378 3.014 1.376 3.02 1.386 3.021 1.386 3.012 1.385 3.012 1.386 3.02 1.386 3.012 1.393 3.011 1.394 3.011 1.393 3.011 1.394 3.012 1.393 3.01 1.402 3.01 1.402 3.002 1.393 3.01 1.402 3.01 1.402 3.001 1.409 3.01 1.402 3.002 1.4 3.009 1.411 6.002 2.81 6.01 2.812 6.002 2.819 6.002 2.81 12.003 5.638 6.002 2.81 5.992 2.818 6.003 2.81 5.993 2.81 3.002 1.4 2.993 1.4 3.002 1.4 3.002 1.402 2.993 1.4 3.001 1.4 3.003 1.393 2.994 1.392 3.002 1.4 2.994 1.392 3.003 1.392 2.978 1.381.139.06.162.072.179.082.195.084.472.213.546.23.619.275.7.3.759.318.815.35 1.81.772 2.03.852 4.599 1.95 2.536 1.07 1.32.566 1.346.57 1.37.58 1.4.603 1.42.604 1.442.617 1.458.626 1.476.629 1.481.646 1.499.65 1.499.648 1.506.658 1.514.66 1.506.657 1.514.668 1.496.666.757.334.74.331.748.333.748.333.732.33.74.332.73.331.724.33.731.33.714.33.715.328.714.32.705.327.695.327.695.317.688.325.681.316.674.315.667.315.658.321.653.304.645.312.637.31.63.301.619.308.612.3.602.297.59.296.586.295.575.294.564.285.555.283.543.282.534.28.526.28.513.278.504.277.494.267.473.264.245.142.24.132.23.132.222.13.234.132.223.13.217.13.23.14.216.13.209.13.217.129.211.138.213.129.204.128.201.137.207.128.207.137.202.137.197.136.202.145.189.126.196.145.206.154.2.145.2.153.199.162.19.152.206.171.207.172.204.18.217.198.216.198.213.216.23.234.242.253.237.27.25.297.253.323.151.207.105.15.145.216.162.243.127.213.13.222.16.294.14.275.16.329.153.353.135.334.13.351.113.34.096.312.09.32.082.32.068.3.062.29.054.29.048.29.043.28.034.278.031.27.024.269.02.251.017.251.013.26.007.257.006.241.002.24-.002.241-.003.231-.006.248-.01.23-.011.231-.014.23-.015.221-.018.221-.02.23-.022.228-.022.212-.025.229-.026.211-.028.22-.03.22-.031.218-.034.22-.032.21-.036.218-.037.219-.039.218-.038.21-.041.218-.042.218-.043.21-.044.217-.046.217-.046.218-.047.208-.05.226-.049.208-.05.217-.054.225-.055.225-.106.425-.112.432-.117.44-.12.44-.124.44-.128.447-.132.447-.134.447-.138.446-.141.455-.145.454-.148.454-.15.461-.152.454-.158.47-.16.46-.16.46-.165.47-.167.468-.17.468-.17.468-.175.476-.177.476-.177.467-.18.475-.184.484-.184.475-.185.475-.187.474-.191.483-.19.474-.193.483-.194.482-.194.473-.197.482-.199.482-.197.473-.2.473-.2.482-.2.473-.204.48-.203.473-.2.465-.205.472-.205.472-.204.473-.205.464-.205.463-.204.464-.204.456-.204.455-.206.463-.205.456-.204.446-.405.894-.403.877-.4.86-.396.852-.392.836-.387.818-.38.803-.375.777-.367.761-.358.737-.351.72-.34.687-.333.672-.32.638-.311.622-.3.59-.285.556-.274.533-.262.5-.248.475-.236.443-.225.418-.195.353-1.866 2.413-2.52 1.721-2.93.857-1.827-.055-.032.013-3.034.312-2.983-.644-.594-.228-.598-.228-.596-.237-.597-.228-.596-.237-.594-.236-.598-.229-.597-.237-1.195-.473-1.193-.483-1.184-.48-1.185-.482-1.193-.482-1.184-.49-1.192-.49-1.183-.499-1.182-.498-1.183-.498-1.183-.498-1.181-.506-1.183-.498-1.18-.515-1.182-.507-1.18-.515-1.172-.514-1.18-.523-1.18-.515-1.171-.523-1.17-.53-1.18-.524-1.17-.53-1.178-.533-1.17-.53-1.17-.531-1.17-.54-1.168-.539-1.17-.54-1.168-.538-1.168-.548-1.16-.547-1.167-.548-1.168-.547-1.16-.547-1.166-.556-1.159-.555-1.158-.556-1.167-.556-1.158-.555-1.158-.563-1.157-.564-1.166-.565-1.149-.562-1.157-.564-1.166-.565-1.148-.57-1.157-.564-1.157-.572-1.147-.571-1.157-.572-1.156-.572-1.148-.571-1.147-.58-1.156-.572-1.147-.58-1.147-.579-1.156-.572-1.147-.58-1.146-.579-1.147-.58-1.146-.587-1.147-.58-1.147-.579-2.284-1.166-2.284-1.167-2.283-1.174-2.283-1.175-2.284-1.166-2.275-1.174-2.274-1.174-2.275-1.174-4.54-2.346-4.542-2.346-4.525-2.336-2.258-1.163-2.26-1.164-2.258-1.163-2.259-1.163-2.251-1.154-2.251-1.153-2.253-1.146-2.252-1.145-1.122-.576-1.122-.568-1.123-.568-1.13-.569-1.115-.567-1.122-.567-1.132-.56-1.114-.568-1.124-.56-1.123-.559-1.115-.558-1.124-.56-1.123-.559-1.117-.55-1.124-.55-1.115-.559-.728-.356-.729-.356-.736-.357-.729-.356-.728-.356-.73-.348-.736-.357-.728-.356-.738-.349-.728-.356-.73-.348-.737-.348-.73-.348-.736-.357-1.475-.697-1.468-.688-1.476-.697-1.476-.69-1.468-.687-1.486-.682-1.477-.688-1.479-.672-1.486-.682-1.477-.68-1.487-.673-1.487-.673-1.487-.673-1.487-.673-1.488-.665-1.489-.665-1.487-.673-1.496-.665-1.498-.657-1.488-.665-1.497-.657-1.497-.666-1.498-.657-1.497-.657-1.498-.657-1.506-.658-1.497-.658-1.498-.657-1.507-.65-3.004-1.315-3.013-1.308-3.013-1.308-3.013-1.308-6.026-2.616-3.022-1.309-3.021-1.309-3.021-1.317-1.514-.66-1.507-.658-1.513-.667-1.514-.66-1.505-.666-1.515-.66-1.513-.667-1.505-.667-1.513-.676-1.513-.668-1.391-.618-1.391-.618-1.382-.617-1.39-.627-1.391-.618-1.39-.627-1.381-.625-1.39-.627-1.381-.626-1.382-.625-1.39-.627-1.38-.626-1.381-.634-1.39-.626-1.38-.634-1.382-.626-1.38-.634-1.38-.634-1.38-.634-1.381-.634-2.752-1.268-2.76-1.276-2.75-1.276-2.76-1.276-2.752-1.276-2.75-1.284-2.741-1.283-2.75-1.284-2.75-1.284-2.742-1.283-2.74-1.291-2.75-1.284-2.741-1.292-2.741-1.291-5.482-2.574-5.473-2.582-5.474-2.574-5.465-2.572-.146-.07-.121-.057-.131-.05-.138-.07-.122-.049-.147-.06-.138-.07-.14-.05-.146-.062-.147-.061-.139-.06-.146-.061-.156-.062-.14-.052-.327-.126-.31-.124-.33-.118-.328-.118-.336-.128-.354-.12-.346-.12-.354-.122-.362-.122-.362-.122-.38-.124-.38-.124-.379-.124-.387-.125-.388-.125-.793-.253-1.643-.52-.834-.267-.43-.13-.42-.138-.438-.14-.428-.147-.437-.14-.437-.149-.436-.148-.445-.15-.444-.157-.452-.16-.435-.156-.452-.167-.45-.168-.46-.168-.442-.175-.23-.088-.228-.097-.238-.09-.22-.087-.229-.097-.237-.098-.22-.096-.236-.098-.227-.105-.22-.096-.237-.098-.236-.106-.227-.105-.219-.105-.227-.105-.235-.115-.243-.116-.226-.113-.227-.106-.226-.114-.242-.124-.225-.122-.227-.114-.232-.132-.225-.122-.234-.123-.233-.132-.232-.132-.24-.14-.216-.13-.231-.14-.24-.142-.215-.138-.231-.14-.23-.157-.239-.15-.22-.156-.523-.356-.648-.518-.29-.285-.736-.786-.232-.277-.204-.292-.674-1.07-.006-.018-.462-.984-.006-.026-.293-.817-.098-.321-.15-.654-.084-.508-.053-.401-.035-.408-.014-.31-.011-.25v-.284l.001-.214.002-.223.017-.35.022-.314.028-.297.034-.27.032-.263.028-.228.028-.228.037-.227.037-.227.033-.202.034-.202.064-.378.06-.353.056-.31.093-.47.022-.109.007-.059.031-.185.05-.268.051-.268.059-.268.06-.275.059-.268.058-.267.06-.276.07-.283.069-.283.079-.29.07-.284.079-.299.08-.299.082-.316.09-.315.082-.316.092-.323.092-.332.101-.33.094-.34.103-.348.103-.348.105-.365.104-.356.115-.372.113-.363.116-.38.116-.381.125-.388.117-.389.125-.388.127-.404.127-.405.263-.808.275-.833.276-.841.286-.857.147-.428.15-.445.148-.437.148-.436.158-.444.149-.436.159-.452.157-.444.16-.453.158-.452.16-.452.166-.451.16-.453.168-.46.167-.45.169-.46.167-.452.168-.46.169-.459.176-.45.168-.46.177-.459.177-.458.167-.451.177-.46.176-.45.185-.457.176-.45.176-.45.184-.45.175-.441.184-.45.175-.441.183-.44.183-.442.183-.44.182-.432.183-.433.182-.432.18-.424.19-.423.182-.423.188-.415.18-.415.189-.414.187-.406.18-.407.186-.397.186-.398.187-.397.193-.388.185-.38.185-.39.193-.38.183-.371.192-.371.19-.363.192-.362.19-.354.197-.353.198-.353.189-.346.207-.352.196-.336.195-.328.107-.175.108-.176.105-.158.107-.167.096-.16.115-.166.107-.167.105-.159.115-.166.106-.158.115-.166.114-.166.113-.15.125-.173.123-.165.122-.156.133-.172.132-.164.112-.141.142-.18.15-.17.13-.155.16-.178.15-.17.147-.154.168-.176.176-.176.177-.175.183-.167.185-.174.222-.204.2-.164.21-.172.257-.2.246-.184.263-.182.28-.188.289-.179.333-.199.322-.175.357-.179.418-.188.398-.165.458-.167.446-.134.371-.09.346-.087.386-.072.385-.056.313-.038.348-.034.285-.017.267-.01.318-.003.25-.004zm2.817 21.904l-.15.316-.152.324-.152.325-.152.333-.154.341-.155.35-.155.35-.164.357-.157.367-.156.358-.166.374-.16.384-.157.375-.16.384-.168.39-.16.393-.16.392-.16.4-.162.4-.17.409-.163.409-.16.4-.164.418-.154.41-.163.417-.163.418-.163.417-.155.419-.163.417-.156.427-.163.417-.156.427-.154.419-.156.427-.155.418-.156.427-.154.419-.156.427-.146.42-.155.418-.146.42-.147.419-.146.42-.145.41-.145.411-.137.413-.145.41-.136.404-.136.404-.135.395-.27.799-.26.783-.248.759-.24.76-.114.363-.12.354-.114.364-.113.355-.103.347-.11.338-.102.34-.101.33-.1.323-.092.323-.09.306-.088.307-.089.298-.087.29-.073.24.066.025.344.128.336.127.354.121.353.13.363.122.362.122.37.131.371.124.38.124.379.124.388.125.387.125.388.125.81.255 1.626.519.834.266.421.13.42.137.43.139.429.139.428.147.429.139.436.148.437.149.435.156.437.149.435.157.443.166.444.158.441.175.435.165.23.088.22.088.22.095.23.089.219.096.22.087.23.097.219.096.22.096.235.106.22.096.227.105.228.106.203.093 5.498 2.585 5.473 2.574 5.482 2.582 5.473 2.574 2.741 1.291 2.733 1.282 2.74 1.291 2.734 1.282 2.742 1.283 2.733 1.282 2.734 1.274 2.743 1.274 2.733 1.282 2.744 1.266 2.734 1.274 2.735 1.265 2.744 1.266 2.744 1.266 1.363.632 1.373.624 1.372.633 1.373.625 1.373.625 1.371.633 1.373.624 1.365.624 1.381.625 1.366.615 1.373.625 1.374.616 1.372.625 1.374.616 1.374.616 1.383.617 1.374.616 1.374.616 1.374.617 1.375.607 1.496.666 1.497.665 1.497.658 1.498.657 1.496.665 1.498.658 1.498.657 1.506.658 1.497.657 1.507.65 3.004 1.315 3.013 1.308 3.005 1.307 6.034 2.617 3.014 1.308 3.021 1.309 3.022 1.309 3.012 1.316 1.514.66 1.506.658 1.515.66 1.505.666 1.514.659 1.514.668 1.506.658 1.513.668 1.505.666 1.513.676 1.513.668 1.504.675 1.514.668 1.512.676 1.503.684 1.512.676 1.512.684 1.503.684 1.51.685 1.504.683 1.51.693 1.502.692 1.51.693 1.501.7 1.51.702 1.5.7 1.5.71 1.5.709 1.508.71.745.358.754.359.746.35.753.359.753.367.745.359.754.359.744.366.753.36.744.366.753.368.745.358.753.368.744.366 1.132.56 1.14.562 1.14.57 1.132.56 1.14.562 1.14.57 1.13.57 1.14.57 1.13.568 1.14.57 1.131.569 1.138.578 1.14.57 1.13.578 1.138.578 1.139.578 2.269 1.148 2.267 1.164 2.268 1.156 2.268 1.164 2.267 1.164 2.266 1.173 2.276 1.165 2.266 1.173 4.533 2.337 4.532 2.345 4.533 2.345 2.274 1.174 2.268 1.164 2.266 1.173 2.267 1.164 2.267 1.165 2.268 1.155 2.276 1.166 2.268 1.155 1.13.578 1.14.57 1.13.577 1.138.578 1.14.57 1.13.578 1.139.57 1.13.569 1.14.57 1.131.568 1.14.57 1.14.562 1.13.569 1.141.561 1.132.56 1.14.562 1.141.562 1.132.56 1.142.553 1.132.56 1.141.554 1.133.552 1.142.553 1.133.552 1.142.545 1.143.544 1.134.544 1.142.544 1.134.544 1.144.536 1.144.536 1.135.535 1.143.536 1.135.536 1.145.527 1.136.527 1.145.528 1.146.519 1.136.526 1.145.52 1.138.518 1.146.51 1.139.51 1.146.511 1.147.511 1.138.51 1.148.502 1.14.501 1.148.494 1.14.502 1.148.494 1.142.484 1.149.494 1.14.484 1.152.477 1.15.486 1.142.476 1.151.477 1.142.476 1.153.46 1.144.467 1.15.468 1.149.46.092.037.317-.656.344-.712.351-.73.358-.753.364-.77.369-.787.373-.803.377-.812.38-.828.382-.836.19-.423.19-.423.19-.422.194-.431.192-.431.19-.432.19-.43.192-.44.191-.44.19-.432.188-.44.19-.44.188-.44.184-.432.187-.44.185-.44.183-.441.183-.44.18-.433.18-.441.178-.433.175-.433.174-.434.175-.441.169-.426.168-.425.167-.434.165-.426.161-.418.158-.418.157-.418.154-.41.151-.41.15-.41.145-.403.143-.403.139-.395.135-.386.133-.387.13-.387.126-.371.123-.38.118-.362.114-.355.112-.364.107-.347.102-.34.098-.33.094-.332.09-.315.086-.315.08-.3.077-.299.073-.291.032-.133.005-.017-.083-.053-.176-.1-.392-.22-.4-.212-.413-.231-.432-.234-.446-.235-.464-.238-.479-.248-.49-.258-.505-.26-.516-.26-.529-.263-.545-.274-.554-.274-.565-.276-.576-.286-.587-.278-.597-.289-.606-.298-.616-.29-.63-.301-.634-.293-.639-.311-.649-.303-.657-.305-.666-.305-.682-.316-.673-.315-.683-.308-.698-.318-.69-.325-.708-.311-.706-.328-.707-.319-.715-.32-.724-.321-.723-.33-.724-.321-1.472-.654-1.464-.653-1.482-.647-1.48-.655-1.49-.647-1.482-.647-1.482-.647-1.475-.637-1.466-.627-1.459-.627-1.441-.624-1.427-.606-1.402-.602-1.394-.593-1.36-.58-1.338-.569-1.304-.556-2.528-1.068-4.6-1.942-2.03-.86-1.842-.785-.84-.353-.782-.337-.725-.313-.668-.289-.602-.263-.546-.239-.268-.119-.244-.107-.219-.105-.211-.094-3.028-1.396-3.003-1.392-3.01-1.402-3.003-1.393-3.01-1.402-3.002-1.4-3.001-1.402-3.01-1.402-3.002-1.4-3.002-1.402-3.001-1.4-3.01-1.41-6.001-2.811-6.002-2.819-6.002-2.81-6.001-2.82-12.003-5.628-5.993-2.818-6.002-2.81-6.003-2.81-6.002-2.81-3.001-1.402-2.994-1.4-3.001-1.4-3.002-1.401-3.001-1.401-3.002-1.401-3.003-1.393-3.001-1.4-3.003-1.393-3.003-1.393-3.002-1.392-3.003-1.393-3.004-1.384-3.004-1.384-3.003-1.384-3.004-1.384-3.004-1.384-3.004-1.375-3.014-1.377-3.004-1.376-3.005-1.375-3.006-1.367-3.014-1.368-3.006-1.368-3.015-1.36-3.006-1.366-3.017-1.352-3.006-1.358-3.017-1.352-3.016-1.35-1.504-.676-1.505-.667-1.513-.676-1.505-.666-.552-.249-.561-.25-.562-.25-.562-.24-.561-.25-.562-.241-.562-.25-.562-.24-1.123-.492-1.133-.483-1.133-.483-1.134-.475-1.134-.475-1.133-.483-1.143-.476-1.135-.467-1.142-.476-1.144-.467-1.15-.477-1.144-.468-1.152-.468-1.144-.46-1.152-.468-1.152-.468-1.153-.46-1.152-.47-2.323-.921-2.314-.93-2.321-.93-2.332-.924-2.33-.932-2.322-.93-1.177-.472-1.16-.47-1.17-.47-1.168-.471-1.17-.47-1.167-.48-1.169-.47-1.168-.48-1.176-.48-1.168-.479-1.166-.487-1.176-.489-1.166-.487-1.167-.488-1.174-.497-1.166-.496-1.166-.496-1.174-.497-1.164-.504-.587-.253-.586-.261-.578-.252-.586-.253-.586-.26-.578-.253-.585-.26-.586-.262-.585-.261-.577-.26-.586-.261-.577-.26-.586-.262-.584-.27-.577-.26-.585-.27-.576-.268-.584-.27-.584-.27-.576-.268-.576-.268-.617-.291-.178-.082-.186-.092-.154-.079-.169-.09-.28-.154-.282-.155-.28-.164-.28-.163-.28-.163-.295-.183-.312-.184-.312-.185-.646-.397-.693-.429-.734-.451-1.562-.966-.822-.504-.846-.517-.422-.258-.423-.258-.44-.26-.43-.268-.44-.26-.44-.261-.431-.26-.44-.26-.424-.25-.432-.25-.425-.242-.424-.25-.417-.231-.37-.209-.104.219z" fill="#fff"/><path d="M578.68 914.62l.74.117.725.175.709.234.694.283.662.34.64.379.606.435.576.483.536.521.489.558.448.605.404.625.355.662.294.68.247.708.194.719.132.737.08.74.028.75-.032.742-.092.744-.151.736-.2.713-.26.706-.106.244-.112.278-.137.344-.152.393-.174.442-.19.5-.212.531-.226.573-.484 1.279-.544 1.417-1.228 3.195-.671 1.753-.7 1.844-.734 1.908-.757 1.958-.39.998-.391 1.016-.4 1.014-.393 1.024-.4 1.023-.403 1.032-.41 1.03-.403 1.032-.41 1.022-.409 1.022-.401 1.023-.407 1.005-.408 1.005-.397.989-.404.98-.395.972-.392.947-.39.938-.388.913-.184.45-.193.448-.192.44-.183.44-.19.431-.182.424-.18.415-.18.424-.18.407-.178.399-.177.39-.177.39-.176.381-.166.374-.175.373-.174.365-.164.357-.163.349-.172.348-.161.332-.161.331-.17.331-.159.315-.16.315-.167.314-.166.306-.166.297-.166.305-.174.296-.163.28-.097.16-.097.16-.095.142-.107.167-.096.151-.114.166-.115.166-.105.15-.115.166-.132.173-.135.19-.172.21-.152.187-.16.186-.208.223-.23.255-.253.251-.273.259-.326.277-.333.267-.463.346-.55.353-.58.323-.574.264-.407.172-.235.091-.234.092-.252.097-.242.082-.225.083-.242.082-.25.08-.242.082-.24.074-.241.073-.249.063-.24.074-.24.064-.248.064-.239.056-.248.064-.239.056-.247.056-.247.055-.246.047-.237.047-.246.047-.255.046-.236.04-.255.045-.245.039-.237.039-.261.036-.244.03-.236.031-.262.036-.252.03-.244.029-.253.029-.251.02-.243.022-.252.029-.26.019-.242.013-.243.021-.259.011-.251.02-.259.011-.25.012-.25.012-.268.01-.249.004-.25.012-.258.002-.25.004-.265.001-.258.002-.258.003-.248-.005-.258.002-.265-.007-.257-.006-.256-.006-.265-.007-.266-.007-.265-.007-.255-.014-.257-.006-.264-.016-.273-.016-.255-.015-.273-.016-.264-.016-.264-.015-.263-.024-.264-.016-.28-.026-.263-.024-.264-.015-.263-.024-.28-.026-.28-.035-.27-.025-.264-.024-.27-.033-.27-.034-.28-.026-.27-.033-.271-.034-.27-.033-.288-.036-.278-.042-.262-.033-.279-.034-.278-.043-.286-.044-.557-.078-.564-.087-.555-.094-.563-.095-.571-.097-.572-.096-.57-.105-.57-.113-.579-.106-.578-.115-.585-.124-.578-.114-.584-.132-.586-.124-.592-.134-.593-.133-.593-.133-.592-.142-.6-.143-.599-.151-.599-.152-.6-.151-.607-.152-.606-.161-.607-.161-.605-.17-.615-.161-.614-.17-.613-.18-.621-.18-.614-.17-.62-.188-.622-.18-.628-.189-.62-.188-.621-.188-.636-.2-.628-.197-.627-.198-.636-.207-.626-.206-.635-.207-.635-.208-.634-.215-.643-.217-.634-.216-.642-.217-.642-.225-.633-.224-.641-.225-.65-.226-.64-.234-.641-.234-.649-.234-.648-.244-.64-.233-.648-.243-.648-.244-.647-.251-.647-.243-.647-.252-.647-.251-.654-.262-.647-.251-.654-.261-.646-.26-.654-.261-.646-.26-.653-.27-.644-.269-.654-.27-.653-.269-.644-.268-.652-.278-.652-.278-.653-.278-.643-.277-.651-.287-.652-.278-.643-.285-.65-.286-.643-.286-.65-.295-.643-.285-.65-.295-.642-.294-.641-.294-.642-.294-.649-.303-.641-.294-.632-.301-.65-.304-.64-.302-.632-.301-.63-.31-.641-.302-.631-.31-.631-.31-.631-.31-.631-.31-.631-.309-.63-.318-.623-.309-.63-.318-.613-.316-.621-.317-.622-.317-.621-.317-.612-.325-.613-.316-.612-.324-.612-.325-.612-.325-.604-.323-.603-.323-.604-.324-.603-.323-.594-.331-.603-.332-.587-.322-.594-.33-.585-.33-.594-.331-.586-.33-.577-.329-.585-.338-.577-.33-.567-.335-.578-.33-.567-.335-.568-.337-.56-.335-.558-.335-.56-.335-.559-.335-.55-.334-.55-.343-.542-.333-.543-.333-.541-.342-.541-.341-.534-.332-.533-.34-.524-.34-.525-.34-.516-.338-.524-.34-.507-.337-.516-.338-.507-.346-.499-.336-.499-.336-.498-.345-.499-.336-.49-.344-.48-.343-.482-.334-.473-.342-.48-.342-.465-.34-.464-.341-.464-.341-.464-.34-.448-.34-.455-.339-.447-.347-.438-.337-.44-.337-.428-.345-.44-.338-.42-.343-.421-.344-.422-.336-.412-.342-.404-.342-.404-.342-.396-.34-.395-.341-.395-.35-.387-.339-.386-.348-.37-.337-.377-.347-.362-.337-.184-.177-.185-.169-.184-.177-.176-.176-.176-.168-.176-.176-.176-.168-.176-.176-.176-.176-.168-.167-.174-.185-.167-.175-.169-.166-.167-.175-.167-.176-.167-.175-.166-.183-.16-.166-.157-.182-.167-.176-.16-.174-.157-.182-.15-.173-.159-.174-.149-.182-.157-.182-.15-.173-.158-.183-.14-.18-.15-.182-.158-.182-.14-.18-.141-.181-.14-.18-.15-.182-.147-.198-.125-.17-.14-.19-.14-.188-.139-.189-.131-.188-.133-.18-.138-.197-.13-.196-.123-.187-.123-.187-.131-.187-.128-.214-.123-.186-.122-.196-.121-.195-.15-.25-.175-.313-.188-.358-.171-.348-.161-.363-.138-.343-.137-.351-.12-.341-.097-.33-.092-.303-.078-.336-.08-.319-.06-.29-.055-.316-.05-.29-.042-.279-.033-.287-.035-.279-.024-.286-.02-.26-.01-.259-.01-.267-.003-.258-.004-.24.005-.249.006-.257.005-.248.01-.222.012-.238.021-.238.02-.23.02-.228.02-.23.027-.22.028-.228.028-.228.026-.211.036-.219.035-.218.035-.21.037-.228.034-.21.043-.21.044-.217.043-.21.044-.217.043-.209.052-.208.044-.218.053-.216.051-.209.05-.2.052-.207.051-.209.061-.215.06-.207.053-.217.06-.207.06-.207.06-.207.062-.224.127-.405.13-.422.138-.429.138-.42.138-.42.147-.429.155-.418.147-.428.157-.436.164-.425.156-.427.174-.434.165-.434.174-.433.174-.434.174-.441.182-.433.184-.44.183-.441.183-.44.192-.44.191-.44.192-.44.201-.447.192-.44.201-.446.2-.44.21-.445.201-.447.21-.446.208-.438.21-.446.21-.446.208-.437.218-.445.209-.438.218-.445.217-.436.217-.437.217-.436.217-.437.217-.436.217-.437.224-.427.216-.428.216-.428.225-.427.224-.427.214-.411.223-.419.215-.42.224-.418.213-.403.222-.41.214-.411.22-.393.213-.403.212-.394.22-.394.21-.385.211-.386.21-.378.418-.746.408-.73.406-.714.395-.697.384-.674.38-.648.37-.632.359-.608.356-.59.335-.56.332-.534.161-.263.152-.256.16-.246.15-.247.149-.23.148-.231.14-.223.137-.215.148-.222.136-.198.137-.206.137-.206.126-.182.105-.158.451-.597.498-.556.537-.526.574-.478.603-.432.648-.383.668-.338.687-.284.707-.23.732-.166.736-.124.745-.054.748-.01.74.057.74.109.727.167.718.226.696.275.663.322.648.38.608.428.585.475.537.513.499.55.458.598.411.626.357.653.31.682.257.701.203.72.141.73.089.74.036.751-.024.744-.082.736-.143.738-.192.722-.25.707-.299.676-.356.66-.404.627-.073.111-.064.095-.072.103-.074.11-.084.128-.086.135-.096.151-.105.159-.108.175-.116.175-.118.191-.118.191-.128.208-.13.215-.28.455-.291.487-.312.51-.315.537-.337.567-.338.585-.35.609-.361.633-.364.65-.374.666-.386.69-.197.345-.19.362-.199.353-.19.354-.2.37-.2.37-.2.37-.199.362-.201.378-.203.387-.2.37-.202.387-.202.387-.203.387-.202.386-.202.387-.194.388-.203.395-.204.396-.195.396-.203.395-.195.397-.203.395-.195.396-.195.397-.195.396-.186.398-.195.396-.187.397-.195.397-.177.39-.186.397-.185.389-.178.398-.185.381-.177.39-.168.391-.176.382-.168.382-.166.374-.158.375-.166.375-.157.366-.15.377-.156.358-.147.36-.138.351-.146.35-.138.353-.129.344-.135.335-.118.329-.128.336-.116.32-.108.313-.116.312-.096.297-.106.296-.095.288-.087.281-.085.273-.085.273-.032.116-.042.132-.032.125-.032.116-.032.124-.03.108-.032.116-.03.108-.023.109-.031.116-.021.1.043.066.075.087.083.096.088.114.083.096.083.096.09.105.082.096.097.115.099.107.098.106.09.106.098.106.106.116.106.116.107.108.097.115.107.108.114.117.122.126.105.116.116.109.121.127.115.117.122.118.123.118.13.128.13.127.123.118.123.119.13.127.13.12.277.265.278.25.294.259.285.258.293.268.303.26.31.27.318.271.318.271.327.273.335.273.334.281.344.274.351.284.352.275.367.295.36.284.376.287.376.287.377.287.393.289.393.289.393.297.401.29.41.3.41.29.417.3.427.294.427.301.426.302.434.303.436.294.443.303.451.305.453.296.451.305.468.307.46.305.469.307.477.3.469.306.485.31.485.308.485.309.487.3.502.311.494.302.503.31.51.313.503.302.511.312.512.304.519.313.528.305.52.305.528.314.528.306.537.306.537.307.537.307.546.307.537.307.554.309.546.299.554.309.555.3.554.309.555.3.571.303.563.31.563.3.564.302.571.303.573.293.58.304.572.302.573.294.582.295.58.304.59.296.581.295.59.287.582.295.59.296.59.288.59.296.591.288.6.288.59.288.6.288.6.28.6.29.6.28.6.28.6.28.6.28.61.281.6.272.61.281.601.272.61.273.601.272.611.264.61.273.602.263.603.263.61.265.611.264.611.264.604.255.603.255.612.256.612.256.605.246.612.256.604.246.605.247.604.246.606.238.613.247.597.237.605.238.607.23.605.238.599.228.598.228.606.23.6.22.598.228.599.22.592.21.599.22.592.211.591.21.592.211.592.21.584.202.585.2.593.203.584.2.577.192.577.192.577.191.586.184.57.182.57.182.569.182.57.174.562.18.571.166.563.172.554.163.555.163.555.163.556.155.538.152.548.154.547.153.54.144.54.144.533.135.531.143.524.133.524.134.525.125.517.124.517.124.517.115.501.114.501.113.5.113.503.105.493.104.486.095.485.103.487.086.47.092.47.084.47.084.47.084.454.073.454.073.446.073.456.064.21.035.22.027.22.027.226.037.212.026.203.025.22.028.219.027.211.026.195.024.212.018.203.025.22.027.203.016.195.024.187.015.204.017.212.017.195.016.187.014.196.016.195.016.187.014.196.016.18.005.186.014.18.005.178.014.188.006.18.005.188.006.162.012.17.004.18.005.172-.005.163.003.171.004.171.004.173-.004.154.002.154.001.164-.005.147-.008.163-.005.154.002.139-.009.155-.006.155-.007.139-.009.138-.008.138-.009.147-.007.139-.009.138-.009.122-.019.139-.008.13-.01.122-.02.13-.009.123-.02.104-.012.078-.007.024-.049.128-.276.14-.292.13-.292.15-.308.141-.317.153-.333.144-.334.164-.349.156-.358.165-.366.157-.366.167-.383.169-.391.168-.391.17-.408.18-.407.18-.415.172-.417.365-.873.366-.881.378-.906.38-.922.384-.948.384-.957.394-.964.396-.98.388-.99.398-.998.4-1.006.398-1.006.4-1.006.39-1.016.4-1.006.39-1.007.39-.999.38-.991.388-.99.747-1.942.731-1.891.698-1.828.662-1.745 1.228-3.195.546-1.434.505-1.302.228-.598.223-.556.203-.533.19-.491.175-.442.163-.417.158-.376.125-.319.315-.673.365-.659.41-.618.46-.595.497-.548.545-.516.573-.47.619-.43.647-.374.667-.33.694-.266.714-.22.732-.167.743-.106.744-.054.746.007.739.065z" fill="#fff"/></g></svg>