<svg viewBox="0 0 1920 1081" xmlns="http://www.w3.org/2000/svg" fill-rule="evenodd" clip-rule="evenodd" stroke-linejoin="round" stroke-miterlimit="1.414"><path d="M0 .17h1920v1080H0z"/><path d="M1063.676 600.571h1.84l1.839.009 1.814.008h.357l.733-.008h.468l.537-.009h3.364l.391.009h.392l.392.008.4.009.409.008.408.009.418.008.417.009.417.008.417.017.426.018.418.017.425.017.426.017.417.025.426.026.417.025.418.026.417.034.417.034.41.034.416.034.4.043.23.025.205.026.187.025.222.026.204.025.196.034.204.026.205.034.221.034.221.034.213.043.205.034.23.05.213.043.221.043.238.06.247.06.23.059.256.077.272.076.256.085.29.094.306.11.298.12.34.145.367.17.366.179.4.221.239.145.196.12.298.204.264.179.221.17.213.162.29.247.306.28.281.282.307.315.298.349.272.349.281.383.315.494.281.503.256.51.238.563.205.596.178.638.111.511.085.511.06.367.068.374.051.366.06.367.06.374.05.366.052.375.06.375.042.366.05.375.052.366.043.375.042.374.043.375.042.366.043.375.034.375.043.374.034.366.034.375.034.375.025.375.034.374.026.375.034.375.025.374.026.375.026.375.017.374.025.375.017.375.017.375.017.374.017.375.017.375.017.383.009.375.017.374.008.375.009.375.008.374.009.375.008.383v.375l.009.375v2.64l-.009.374v.384l-.008.374-.009.375-.008.383-.009.375-.008.375-.009.383-.017.375-.008.374-.017.383-.017.375-.009.375-.017.383-.017.375-.017.383-.017.375-.025.374-.017.384-.043.757-.043.75-.05.758-.052.758-.05.758-.06.749-.06.758-.068.758-.06.75-.068.757-.068.75-.077.758-.076.749-.069.758-.085.75-.076.757-.086.75-.085.749-.085.75-.085.757-.094.75-.085.75-.093.748-.094.75-.102.74-.094.75-.102.75-.094.74-.102.75-.102.74-.102.742-.103.74-.102.741-.102.75-.213 1.473-.213 1.473-.213 1.465-.213 1.465-.213 1.456-.434 2.895-.213 1.448-.204 1.43-.213 1.423-.204 1.422-.205 1.414-.093.707-.103.698-.093.698-.103.698-.093.699-.094.69-.094.69-.085.69-.093.68-.086.69-.085.681-.085.673-.085.681-.077.673-.076.673-.077.664-.077.664-.068.665-.076.664-.068.656-.069.655-.06.648-.059.655-.06.639-.06.647-.05.639-.051.639-.051.63-.043.63-.043.622-.042.621-.034.622-.034.622-.017.298-.017.315-.068 1.456-.069 1.465-.068 1.464-.068 1.474-.068 1.464-.06 1.465-.06 1.465-.067 1.465-.06 1.464-.06 1.474-.05 1.464-.06 1.465-.06 1.473-.05 1.465-.052 1.465-.051 1.473-.051 1.465-.051 1.465-.051 1.473-.051 1.465-.043 1.473-.051 1.465-.043 1.473-.042 1.465-.051 1.473-.043 1.465-.085 2.938-.077 2.946-.085 2.938-.077 2.938-.076 2.947-.068 2.937-.077 2.947-.068 2.946-.068 2.947-.068 2.938-.069 2.946-.127 5.894-.128 5.901-.136 5.902-.068 2.946-.068 2.955-.069 2.947-.068 2.955-.068 2.955-.077 2.955-.076 2.955-.077 2.955-.076 2.955-.086 2.963-.085 2.955-.042 1.482-.051 1.473-.043 1.482-.043 1.482-.05 1.482-.043 1.481-.051 1.474-.051 1.481-.052 1.482-.05 1.482-.052 1.482-.05 1.481-.06 1.482-.06 1.482-.051 1.482-.06 1.482-.06 1.481-.059 1.482-.06 1.482-.068 1.482-.068 1.481-.06 1.482-.068 1.482-.068 1.49-.068 1.482-.077 1.482-.068 1.482-.076 1.49-.077 1.482-.077 1.481-.076 1.482-.085 1.49-.077 1.482-.085 1.49-.085 1.482-.085 1.49-.094 1.482-.094 1.482-.085 1.49-.102 1.49-.094 1.482-.094 1.49-.102 1.482-.102 1.49-.102 1.482-.11 1.482-.137 2.018-.145 2.002-.145 2.01-.136 2.01-.28 4.019-.273 4.028-.273 4.036-.145 2.019-.136 2.026-.145 2.019-.144 2.018-.145 2.027-.145 2.026-.145 2.027-.153 2.027-.153 2.027-.154 2.027-.076 1.022-.085 1.013-.077 1.013-.085 1.014-.077 1.013-.085 1.022-.085 1.013-.085 1.014-.086 1.013-.093 1.022-.085 1.014-.086 1.013-.093 1.022-.094 1.013-.094 1.014-.093 1.022-.094 1.013-.094 1.013-.102 1.022-.093 1.014-.103 1.013-.102 1.022-.102 1.013-.102.98v.025l-.009.034-.017.239-.025.34-.026.443-.076 1.116-.086 1.362-.05.758-.06.8-.051.835-.06.86-.068.886-.06.903-.068.92-.077.91-.034.46-.042.46-.034.46-.043.46-.042.451-.043.443-.034.452-.043.442-.05.435-.043.434-.043.426-.051.417-.043.417-.05.41-.052.4-.05.391-.06.392-.052.383-.06.375-.033.196-.034.195-.034.196-.034.188-.043.196-.034.187-.043.196-.042.213-.051.204-.051.213-.06.23-.06.23-.068.238-.085.273-.094.29-.11.306-.145.358-.17.391-.222.46-.238.434-.222.375-.213.324-.247.34-.272.358-.358.409-.46.477-.485.434-.281.221-.869.605-.238.145-.239.136-1.166.545h-.009l-1.32.409-.17.042-.511.103-.383.068-.392.076-.375.06-.383.068-.383.06-.383.068-.383.051-.375.06-.383.05-.375.052-.383.05-.384.052-.374.043-.383.042-.384.034-.374.043-.384.034-.383.042-.383.026-.375.034-.383.034-.375.026-.374.025-.384.026-.374.025-.383.017-.375.017-.375.017-.375.017-.374.017-.375.018-.383.008-.366.009-.384.017-.374.008h-.375l-.366.009h-.375l-.375.008h-1.865l-.374-.008h-.358l-.375-.009h-.374l-.366-.008-.367-.009-.374-.008-.733-.017-.724-.026-.732-.026-.732-.025-.724-.034-.724-.034-.715-.034-.724-.034-.716-.034-.715-.043-.707-.034-.707-.043-1.405-.085-2.767-.162-1.371-.085-.673-.034-.664-.042-.673-.035-.664-.034-.656-.034-.656-.034-.647-.034-.639-.025-.647-.026-.639-.025-.621-.017-.63-.017-.307-.009-.298-.009h-.315l-.307-.008-.298-.009h-.911l-.298-.008h-.29l-.29.008h-.306l-1.754.009-1.763.017-1.763.009-1.762.008-3.517.017-3.526.017-3.526.009-3.525.017-3.517.008-3.526.009-7.043.017-3.517.017-3.525.008-3.517.009-3.517.017-3.517.017-1.763.008-1.754.009-1.755.017-1.763.008-1.754.009-1.763.017-1.754.017-1.754.017-1.754.017-1.755.017-1.754.017-1.754.026-1.755.017-1.754.025-1.746.026-1.754.025-1.754.026-1.754.034-1.746.026-1.754.034-1.746.034-1.746.042-1.754.034-1.746.043-1.746.042-1.746.043-1.745.043-1.746.05-1.746.052-1.746.05-1.737.06-1.746.06-1.745.06-1.746.06-1.456.05-1.457.052-1.464.042-1.457.043-1.456.042-1.465.043-1.456.034-1.456.034-1.456.026-1.456.034-1.457.025-1.456.017-1.456.026-1.456.017-1.448.008-1.456.017-1.448.009-1.456.008h-1.456l-1.448.009h-1.448l-1.456-.009h-1.448l-1.447-.008-1.457-.009-1.447-.017-1.448-.008-1.448-.017-1.447-.017-1.448-.026-1.448-.025-1.448-.017-1.456-.035-1.439-.025-1.448-.034-1.447-.034-1.448-.034-1.448-.034-1.447-.043-1.448-.042-1.448-.043-1.448-.051-1.447-.043-1.448-.05-1.448-.052-1.447-.06-1.44-.05-1.456-.06-1.439-.06-1.448-.06-1.456-.06-1.44-.067-1.447-.068-1.448-.068-1.456-.069-1.447-.068-1.448-.076-1.448-.077-1.448-.068-1.447-.077-1.448-.085-1.456-.077-1.448-.085-1.44-.085-.152-.008-.145-.009-.153-.008h-.162l-.17-.009-.154-.008-.383-.009-.383-.008-.4-.009h-.861l-.46-.009h-.476l-.486.009h-.502l-1.048.009-1.09.008-1.132.009-1.167.008-.596.009H804.733l-.64-.009h-.638l-.638-.008-.656-.017-.647-.018-.656-.017-.332-.008-.324-.009-.332-.017-.332-.008-.324-.017-.332-.017-.332-.009-.324-.017-.349-.017-.323-.025-.332-.017-.333-.026-.332-.017-.34-.025-.324-.026-.34-.026-.333-.034-.332-.025-.34-.034-.324-.034-.34-.034-.333-.034-.323-.035-.341-.042-.332-.043-.332-.042-.332-.043-.341-.05-.332-.052-.332-.051-.332-.051-.324-.06-.332-.05-.34-.069-.333-.06-.323-.068-.341-.068-.332-.077-.324-.068-.34-.085-.333-.076-.326-.086-.339-.093-.328-.085-.337-.103-.327-.093-.336-.111-.336-.11-.334-.111-.31-.111-.182-.06-.185-.076-.166-.06-.168-.068-.167-.068-.165-.06-.166-.068-.166-.077-.167-.068-.166-.076-.185-.077-.166-.077-.165-.076-.167-.086-.165-.076-.185-.094-.166-.085-.164-.085-.165-.094-.182-.094-.166-.093-.167-.102-.182-.103-.163-.102-.165-.102-.165-.102-.181-.11-.24-.163-.254-.178-.313-.23-.33-.273-.31-.272-.253-.239-.232-.238-.213-.23-.203-.222-.19-.23-.176-.221-.188-.255-.149-.205-.123-.187-.135-.205-.123-.195-.128-.222-.189-.332-.189-.366-.158-.332-.138-.307-.132-.315-.114-.29-.103-.28-.096-.282-.087-.264-.08-.264-.074-.247-.068-.246-.065-.247-.06-.239-.056-.23-.053-.238-.051-.23-.047-.23-.045-.23-.043-.221-.04-.23-.04-.222-.037-.221-.036-.23-.034-.222-.033-.221-.032-.221-.03-.222-.03-.221-.028-.222-.027-.23-.025-.221-.026-.221-.026-.239-.045-.434-.042-.451-.041-.46-.038-.452-.034-.46-.034-.45-.03-.46-.03-.46-.026-.46-.025-.46-.024-.46-.021-.452-.02-.46-.02-.45-.018-.452-.016-.443-.016-.443-.014-.443-.014-.434-.025-.851-.02-.827-.02-.791-.018-.758-.032-1.38-.015-.605-.016-.545-.007-.238-.008-.221-.008-.205-.007-.17-.007-.145-.007-.11-.004-.069-.005-.06-.086-1.004-.089-1.04-.087-1.03-.086-1.039-.086-1.039-.084-1.038-.083-1.04-.083-1.03-.08-1.039-.082-1.039-.08-1.03-.078-1.04-.079-1.038-.077-1.03-.076-1.04-.076-1.038-.149-2.07-.146-2.07-.144-2.068-.141-2.061-.14-2.07-.135-2.069-.136-2.07-.133-2.06-.132-2.07-.13-2.06-.129-2.061-.127-2.07-.254-4.121-.251-4.114-.25-4.121-.251-4.113-.127-2.053-.127-2.06-.127-2.053-.13-2.06-.127-2.053-.126-2.061-.123-2.06-.119-2.062-.117-2.069-.115-2.06-.112-2.062-.11-2.06-.106-2.061-.105-2.061-.102-2.061-.1-2.061-.098-2.052-.095-2.061-.093-2.061-.091-2.06-.09-2.062-.086-2.06-.085-2.061-.083-2.061-.08-2.061-.08-2.061-.078-2.052-.076-2.061-.074-2.061-.073-2.06-.07-2.062-.07-2.052-.068-2.06-.067-2.062-.065-2.06-.064-2.053-.062-2.06-.063-2.062-.06-2.052-.059-2.06-.058-2.053-.057-2.061-.056-2.052-.055-2.061-.055-2.061-.053-2.052-.106-4.114-.102-4.113-.1-4.104-.099-4.114-.097-4.113-.191-8.21-.191-8.217-.096-4.105-.098-4.104-.098-4.105-.1-4.096-.104-4.105-.105-4.096-.054-2.052-.055-2.044-.055-2.052-.056-2.053-.057-2.044-.059-2.052-.06-2.044-.06-2.044-.061-2.052-.063-2.044-.064-2.044-.066-2.052-.066-2.044-.07-2.044-.068-2.043-.072-2.044-.072-2.052-.075-2.044-.076-2.044-.077-2.044-.08-2.044-.081-2.035-.083-2.044-.085-2.044-.087-2.044-.09-2.043-.09-2.036-.093-2.043-.096-2.044-.098-2.036-.1-2.043-.101-2.036-.104-2.044-.108-2.035-.109-2.035-.111-2.044-.114-2.035-.118-2.036-.119-2.035-.123-2.035-.125-2.035-.127-2.036-.13-2.035-.134-2.044-.069-1.013-.068-1.014-.07-1.022-.07-1.013-.07-1.013-.072-1.022-.073-1.014-.073-1.022-.074-1.013-.074-1.013-.076-1.014-.077-1.022-.076-1.013-.079-1.013-.079-1.022-.08-1.014-.08-1.013-.08-1.022-.083-1.013-.083-1.014-.084-1.013-.085-1.014-.086-1.013-.087-1.022.22-3.04.895-2.206-.314-.29-1.486-2.665-.591-2.989.364-3.031 1.28-2.768 2.075-2.24 2.664-1.482 2.992-.596 2.126-.076 2.125-.086 2.126-.085 2.124-.085 2.124-.085 2.125-.085 2.126-.094 2.128-.085 2.127-.094 2.126-.093 4.258-.188 4.258-.196 4.257-.187 8.525-.392 4.266-.187 4.267-.187 2.137-.094 2.13-.094 2.137-.093 2.137-.094 2.138-.085 2.137-.085 2.138-.094 2.137-.085 2.138-.085 2.137-.077 2.138-.077 2.146-.085 2.137-.076 2.146-.069 2.138-.076 2.146-.068 2.137-.06 2.146-.068 2.146-.06 2.138-.06 1.081-.025 1.073-.025 1.073-.026 1.073-.025 1.073-.026 1.073-.026 1.073-.025 1.073-.017 1.073-.026 1.082-.017 1.073-.017 1.073-.025 1.073-.017 1.073-.017 1.081-.009 1.073-.017 1.073-.017 1.073-.008 1.082-.018 1.073-.008 1.081-.009 1.073-.008 1.073-.009 1.082-.008h1.073l1.082-.009H894.37l1.082.009h1.073l1.081.008 1.082.009 1.081.008 1.073.009 1.082.017 1.081.009.852.008.851.017.86.017.852.009.86.017.852.017.851.017.852.017.852.017.851.025.86.017.852.026.851.017.852.025 1.703.052 1.695.05 1.703.052 1.695.06 1.703.059 1.695.06 1.694.06 1.695.067 1.695.068 1.686.069 1.694.068 1.695.076 1.686.068 1.686.077 1.687.068 3.372.154 6.736.306 3.355.145 1.678.077 1.686.068 1.67.076 1.677.068 1.677.069 1.67.068 1.677.068 1.67.068 1.677.06 1.669.06 1.67.059 1.668.06 1.67.05 1.66.052 1.669.05.835.018.834.025.835.017.834.026.826.017.835.017.826.017.834.017.835.017.826.017.835.017.826.009.834.017.835.008.826.009.834.008.826.009.826.008.835.009h.826l.835.008H1001.339l.835-.008.826-.009.826-.008.826-.009.835-.008.826-.009.826-.017.826-.008.826-.017.826-.018.834-.017 1.831-.042 1.831-.043 1.831-.042 1.84-.034 1.83-.034 1.84-.043 1.83-.034 1.84-.026 1.831-.034 1.831-.034 1.84-.025 1.84-.026 1.83-.025 1.84-.026 1.83-.017 1.84-.025 1.83-.018 1.832-.017 1.84-.017 1.839-.008 1.83-.017 1.84-.009 1.84-.008 1.839-.009h1.83l1.84-.008H1061.845l1.83.008zm-39.463 364.89h.707l.358.009.357.008h.35l.357.009.358.008.357.009.699.017.715.025.707.026.698.025.716.034.706.034.699.034.698.035.707.034.698.042.698.034.707.043 1.38.085 2.768.162 1.37.085.682.034.681.043.673.034.681.034.673.034.664.034.673.025.664.034.656.026.656.017.655.026.665.017.315.008h.323l.324.009.315.008h.324l.323.009h2.206l.306-.009h.315l.307-.008.307-.009.306-.008.315-.009.298-.008.298-.009.307-.008.298-.017.298-.018.307-.017.29-.017.297-.017.29-.017h.085l.008-.153.034-.417.043-.426.034-.417.06-.86.068-.869.068-.852.06-.851.05-.835.06-.809.051-.775.052-.74.085-1.363.076-1.15.034-.502.034-.443.026-.383.017-.205.017-.178.11-1.03.103-.989.094-.988.102-.996.093-.988.094-.988.094-.996.094-.996.093-.988.094-.997.085-.996.094-.996.085-.997.085-.988.085-.996.085-.996.085-1.005.086-.996.076-.997.085-.996.077-1.005.085-.996.077-.997.077-1.005.153-2 .153-2.002.145-2.001.145-2.01.144-2.01.145-2.001.145-2.01.136-2.018.145-2.01.136-2.01.281-4.028.273-4.036.28-4.028.137-2.019.145-2.026.136-2.019.145-2.01.11-1.464.103-1.465.093-1.465.103-1.464.093-1.457.094-1.464.094-1.465.093-1.456.085-1.465.094-1.465.085-1.464.085-1.465.077-1.465.085-1.456.077-1.465.077-1.465.076-1.464.077-1.465.076-1.465.069-1.465.068-1.464.076-1.465.06-1.465.068-1.464.068-1.465.06-1.465.068-1.473.06-1.465.06-1.465.059-1.464.06-1.465.05-1.473.06-1.465.051-1.465.06-1.473.05-1.465.052-1.465.043-1.464.05-1.474.052-1.464.05-1.474.043-1.464.043-1.474.051-1.464.043-1.474.042-1.464.085-2.938.086-2.938.076-2.947.077-2.938.077-2.946.068-2.938.076-2.947.068-2.938.069-2.946.068-2.947.068-2.946.128-5.893.136-5.902.128-5.893.068-2.955.068-2.955.068-2.946.068-2.955.077-2.955.068-2.955.077-2.955.076-2.955.085-2.955.077-2.964.085-2.955.043-1.482.05-1.473.043-1.482.043-1.482.051-1.481.051-1.482.043-1.473.05-1.482.052-1.482.051-1.482.051-1.481.06-1.482.05-1.482.06-1.482.06-1.482.051-1.481.06-1.482.068-1.49.06-1.482.06-1.482.067-1.482.06-1.481.068-1.482.068-1.49.077-1.482.068-1.482.017-.35.017-.357.042-.698.043-.707.043-.698.05-.707.052-.707.05-.707.06-.715.06-.707.06-.707.068-.715.068-.707.068-.715.068-.716.077-.715.077-.715.076-.716.085-.715.077-.715.085-.716.085-.715.085-.724.094-.715.094-.724.085-.715.094-.724.093-.724.103-.724.093-.715.102-.724.103-.724.093-.724.102-.724.103-.723.213-1.448.204-1.448.213-1.448.213-1.447.213-1.448.425-2.904.222-1.44.204-1.447.213-1.447.204-1.44.213-1.447.103-.716.093-.715.102-.715.094-.724.102-.716.094-.715.094-.715.093-.716.094-.706.094-.716.085-.707.094-.715.085-.707.085-.707.076-.706.086-.707.076-.707.077-.698.077-.707.076-.698.068-.699.068-.698.069-.69.068-.698.06-.69.059-.69.051-.69.06-.69.05-.68.052-.69.042-.673.043-.681.043-.682.042-.68.017-.333.017-.332.017-.34.009-.333.017-.332.017-.34.008-.333.017-.332.009-.332.017-.332.008-.332.009-.332.008-.333.009-.323.009-.332v-.332l.008-.324v-.332l.009-.324v-.647l.008-.324v-.332l-.008-.323V627.149l-.009-.323-.008-.315v-.324l-.009-.315-.009-.315-.008-.324-.009-.315-.017-.315-.008-.315-.009-.315-.017-.315-.017-.315-.017-.307-.017-.315-.017-.306-.017-.307-.017-.315-.025-.307-.017-.306-.026-.307-.026-.306-.025-.307-.009-.12-.204-.008-.358-.008-.357-.009-.358-.008-.366-.009-.358-.008h-.357l-.358-.009h-.35l-.34-.008H1070.872l-.46.008-.74.009h-.546l-1.848-.009-1.822-.008-1.814-.009h-7.273l-1.822.009-1.814.008-1.814.009-1.822.008-1.814.009-1.814.017-1.823.017-1.822.017-1.814.017-1.814.017-1.822.026-1.823.025-1.813.026-1.823.025-1.814.026-1.822.025-1.814.034-1.822.034-1.823.034-1.814.035-1.822.034-1.823.042-1.822.034-1.822.043-1.831.042-.852.017-.86.017-.86.017-.86.018-.86.017-.86.008-.86.009-.852.008-.869.009-.851.008h-.86l-.86.009h-4.284l-.86-.009h-.852l-.86-.008-.851-.009-.852-.008-.86-.009-.852-.008-.86-.017-.851-.009-.852-.017-.852-.009-.851-.017-.86-.017-.852-.017-.851-.017-.852-.025-.852-.017-.851-.026-.852-.017-.851-.025-.852-.017-1.695-.052-1.703-.05-1.695-.06-1.703-.051-1.694-.068-1.695-.06-1.695-.06-1.694-.068-1.695-.068-1.686-.068-1.695-.068-1.686-.068-1.695-.077-1.677-.077-1.695-.068-3.372-.153-6.728-.307-3.355-.144-1.686-.077-1.678-.068-1.678-.077-1.669-.068-1.677-.068-1.678-.068-1.669-.068-1.678-.068-1.669-.06-1.677-.06-1.67-.06-1.669-.05-1.669-.051-1.669-.052-1.669-.05-.835-.026-.826-.017-.834-.026-.835-.017-.834-.017-.835-.025-.826-.017-.834-.017-.835-.017-.835-.009-.826-.017-.834-.009-.835-.017-.834-.008-1.048-.017-1.056-.009-1.056-.008-1.056-.009-1.056-.008-1.056-.009h-1.056l-1.056-.008H892.2l-1.056-.009-1.056.009h-2.112l-1.056.008h-1.065l-1.056.009-1.056.008-1.056.009-1.056.008-1.056.009-1.056.008-1.064.017-1.056.009-1.056.017-1.056.017-1.065.017-1.056.017-1.056.017-1.055.017-1.056.026-1.065.017-1.056.025-1.056.017-1.056.026-1.064.025-1.056.026-1.056.026-1.065.025-1.056.026-2.12.06-2.12.059-2.113.06-2.12.068-2.12.068-2.121.068-2.12.076-2.12.077-2.121.077-2.13.076-2.12.086-2.12.076-2.12.085-2.13.086-2.12.093-2.13.085-2.12.094-2.129.094-2.129.085-2.12.094-4.258.187-4.258.196-8.524.383-4.258.196-4.267.187-4.266.188-2.14.093-2.134.094-2.136.094-2.138.093-2.138.085-.241.009.14.57.088 1.03.088 1.031.086 1.03.085 1.031.084 1.04.084 1.03.082 1.03.082 1.03.081 1.03.08 1.031.08 1.03.078 1.04.077 1.03.078 1.03.075 1.03.075 1.031.074 1.03.074 1.031.073 1.03.071 1.031.072 1.039.07 1.03.07 1.03.069 1.031.135 2.061.133 2.07.13 2.06.125 2.061.125 2.061.12 2.06.119 2.062.116 2.06.113 2.07.11 2.06.108 2.062.106 2.06.104 2.061.1 2.061.099 2.061.096 2.06.094 2.062.092 2.06.09 2.07.088 2.06.086 2.062.083 2.052.082 2.06.08 2.062.078 2.06.077 2.061.075 2.061.073 2.061.072 2.06.07 2.062.069 2.052.067 2.061.066 2.06.064 2.062.064 2.052.061 2.06.062 2.062.06 2.06.058 2.053.057 2.06.057 2.053.055 2.06.056 2.062.053 2.052.106 4.113.103 4.113.1 4.114.1 4.113.097 4.104.096 4.114.191 8.209.192 8.21.097 4.104.098 4.105.1 4.104.102 4.097.105 4.104.053 2.044.055 2.052.055 2.053.055 2.043.057 2.053.058 2.044.059 2.043.06 2.053.062 2.044.062 2.043.063 2.053.066 2.044.065 2.043.068 2.044.07 2.044.07 2.044.071 2.044.075 2.043.074 2.044.077 2.044.08 2.044.08 2.044.082 2.044.084 2.035.086 2.044.088 2.044.09 2.035.093 2.044.094 2.035.097 2.044.099 2.035.101 2.044.106 2.035.102 2.035.11 2.044.111 2.036.11 2.035.12 2.035.12 2.036.119 2.035.119 2.035.128 2.035.127 2.061.137 2.07.119 2.06.127 2.061.256 4.122.247 4.113.255 4.113.247 4.114.128 2.052.128 2.06.136 2.053.128 2.044.128 2.052.136 2.053.136 2.043.136 2.053.145 2.044.136 2.043.145 2.044.153 2.044.069 1.022.076 1.022.077 1.022.076 1.022.077 1.022.077 1.021.085 1.014.077 1.022.085 1.022.076 1.022.086 1.013.085 1.022.085 1.022.085 1.013.085 1.022.094 1.056.017.247.017.29.017.272.017.273.008.28.018.282.008.29.009.306.017.613.017.656.034 1.396.017.75.017.758.017.783.025.8.009.4.017.401.017.4.008.409.017.4.017.4.017.4.026.393.017.391.017.392.026.375.025.374.026.375.025.358.026.349.008.12.068.016.188.034.196.034.204.034.204.034.205.034.213.026.213.034.213.026.221.034.23.025.23.026.23.025.238.026.23.025.256.026.238.026.247.017.247.025.247.017.264.017.255.017.256.026.264.017.264.017.264.008.264.017.272.017.273.009.264.017.28.008.273.009.273.008.28.009.273.009.562.017.571.017.562.008.57.009h.571l.58.008h2.87l.57-.008 1.14-.009 1.125-.008 1.107-.009 1.09-.008h2.64l.511.008.51.009.503.008.477.009.264.017.247.008.247.009.239.008.238.017.239.009 1.439.085 1.43.077 1.431.085 1.43.076 1.431.077 1.423.077 1.43.068 1.422.076 1.431.069 1.422.068 1.43.068 1.423.068 1.422.06 1.422.06 1.423.059 1.43.06 1.422.059 1.422.051 1.423.051 1.413.051 1.422.051 1.423.051 1.422.043 1.422.043 1.422.042 1.414.043 1.422.034 1.422.034 1.414.034 1.422.034 1.422.026 1.414.025 1.422.026 1.413.025 1.423.017 1.422.017 1.413.017 1.423.017 1.413.009 1.422.008 1.414.009h1.422l1.422.008h1.414l1.422-.008h1.422l1.414-.009 1.422-.008 1.422-.009 1.414-.017 1.422-.017 1.422-.017 1.414-.025 1.43-.026 1.414-.025 1.422-.026 1.422-.034 1.423-.034 1.422-.043 1.422-.034 1.422-.042 1.43-.051 1.423-.043 1.43-.051 1.763-.068 1.772-.06 1.762-.06 1.772-.05 1.771-.06 1.771-.051 1.772-.051 1.762-.043 1.772-.042 1.771-.043 1.771-.043 1.763-.042 1.772-.034 1.77-.034 1.772-.034 1.771-.034 1.772-.026 1.763-.034 1.77-.026 1.772-.025 1.763-.017 1.771-.026 1.772-.017 1.762-.025 1.772-.017 1.771-.017 1.763-.017 1.771-.017 1.771-.009 1.763-.017 1.771-.009 1.763-.008 1.772-.017 1.762-.009 3.534-.017 3.526-.017 3.534-.008 3.526-.009 3.525-.008 7.043-.026 3.517-.008 3.517-.009 3.517-.008 3.517-.017 3.509-.017 3.508-.017 1.755-.009 1.754-.008 1.754-.017 1.755-.009h.34l.366-.008.358.008h.35z" fill="#fff"/><path d="M848.785 658.122l2.7 1.422 2.129 2.189 1.345 2.733.435 3.023-.009.971-.017.98-.008.97-.017.971-.009.97-.008.972-.017 1.95-.017 1.95-.009 1.95-.008 1.942-.009 1.95v5.859l.009 1.95v1.959l.017 1.95.008 1.958.017 1.96.009 1.958.025 1.958.017 1.96.026 1.958.017 1.958.025 1.96.034 1.966.026 1.959.034 1.967.026 1.959.034 1.967.042 1.967.034 1.967.034 1.967.043 1.968.042 1.967.043 1.967.043 1.967.042 1.976.043 1.967.042 1.967.051 1.976.094 3.943.094 3.943.102 3.951.094 3.951.102 3.952.204 7.911.102 3.96.094 3.96.094 3.96.093 3.96.052 1.984.042 1.976.043 1.984.05 1.984.043 1.984.034 1.984.043 1.976.043 1.984.034 1.984.034 1.985.042 1.984.026 1.984.034 1.984.034 1.985.026 1.992.025 1.984.026 1.985.025 1.984.026 1.984.017 1.984.017 1.993.017 1.984.008 1.984.017 1.985.009 1.992v1.985l.008 1.984V842.977l-.008 1.984-.009 1.984-.008 1.984-.009 1.993-.017 1.984-.008.997-.009.987-.008.997-.017.996-.009.988-.008.996-.017.997-.017.988-.009.996-.017.988-.017.996-.017.997-.025.987-.018.997-.017.996-.025.988-.017.996-.026.988-.025.997-.026.996-.025.988-.026.996-.025.996-.026.988-.034.997-.026.987-.034.997-.034.996-.034.988-.034.996-.034.988-.034.997-.034.996-.043.988-.042.996-.034.988-.043.996-.042.988-.043.997-.051.987-.043.997-.042.988-.051.996-.051.988-.052.996-.05.988-.052.996-.05.988-.06.997-.052.987-.06.997-.059.988-.06.988-.059.996-.06.988-.06.996-.067.988-.068.996-.06.988-.068.988-.077.996-.068.988-.068.988-.077.996-.076.988-.077.988-.068.996-.085.98-.707 2.972-1.601 2.597-2.316 1.976-2.82 1.167-3.04.238-2.971-.707-2.598-1.6-1.975-2.317-1.167-2.819-.239-3.04.077-.97.077-.972.068-.962.076-.962.069-.971.068-.962.068-.963.068-.97.068-.963.068-.97.06-.963.068-.97.06-.972.06-.962.059-.97.06-.963.05-.97.06-.972.051-.97.051-.963.06-.97.051-.971.051-.971.043-.97.05-.972.043-.97.051-.971.043-.971.043-.971.042-.97.043-.972.042-.97.043-.971.034-.971.034-.98.043-.97.034-.971.034-.97.034-.98.034-.971.025-.97.034-.98.026-.971.034-.97.026-.98.025-.97.026-.98.025-.971.026-.98.025-.97.026-.98.017-.97.017-.98.026-.979.017-.97.017-.98.017-.971.017-.98.017-.979.017-.979.008-.97.017-.98.009-.98.017-.979.008-.98.009-.978.008-.98.009-.97.017-1.96.017-1.958.008-1.959v-1.958l.009-1.967v-5.876l-.009-1.968-.008-1.967-.009-1.958-.017-1.968-.017-1.967-.017-1.958-.017-1.968-.025-1.967-.017-1.967-.026-1.967-.025-1.967-.034-1.967-.026-1.968-.034-1.975-.034-1.967-.034-1.976-.034-1.967-.043-1.967-.034-1.976-.042-1.967-.043-1.976-.043-1.976-.042-1.967-.043-1.976-.042-1.975-.051-1.967-.094-3.952-.094-3.951-.102-3.952-.094-3.951-.204-7.911-.102-3.952-.094-3.96-.102-3.95-.094-3.96-.102-3.952-.043-1.984-.042-1.976-.051-1.976-.043-1.984-.042-1.976-.043-1.984-.034-1.976-.043-1.975-.042-1.985-.034-1.975-.034-1.984-.034-1.976-.034-1.976-.034-1.984-.026-1.976-.026-1.984-.025-1.976-.026-1.975-.025-1.984-.017-1.976-.017-1.976-.017-1.984-.017-1.976-.009-1.975-.008-1.985-.009-1.975-.008-1.976v-3.96l.008-1.976v-1.975l.009-1.976.017-1.976.008-1.975.017-1.976.009-.988.017-.988.008-.988.009-.987.017-.988.008-.988.52-3.006 1.422-2.7 2.189-2.12 2.742-1.354 3.014-.435 3.006.52zM929.048 660.515l2.716 1.388 2.163 2.163 1.38 2.717.477 3.014v2.265l-.009 2.283-.008 2.273-.009 2.274-.008 2.274-.017 2.274-.017 2.273-.017 2.274-.017 2.274-.017 2.274-.026 2.273-.025 2.274-.026 2.265-.025 2.274-.035 2.265-.025 2.274-.034 2.265-.034 2.274-.034 2.265-.034 2.266-.068 4.539-.069 4.53-.144 9.052-.068 4.53-.077 4.523-.034 2.265-.034 2.257-.026 2.256-.034 2.266-.034 2.256-.025 2.257-.026 2.265-.026 2.257-.025 2.257-.026 2.257-.025 2.256-.017 2.257-.017 2.257-.017 2.256-.009 2.257-.017 2.257-.008 2.248-.009 2.257V792.06l.009 1.124v1.124l.008 1.124v1.124l.009 1.125.008 1.132.009 1.124.008 1.124.009 1.124.008 1.125.009 1.124.017 1.124.008 1.132.017 1.125.009 1.124.017 1.124.017 1.124.017 1.124.017 1.124.026 1.124.017.81.017.808.017.81.017.808.017.81.025.808.017.818.026.809.025.809.034.817.026.81.026.817.034.817.025.818.034.809.034.817.034.818.034.817.034.818.035.817.034.818.042.818.077 1.643.085 1.644.077 1.643.085 1.652.093 1.644.086 1.652.093 1.652.085 1.652.094 1.652.187 3.321.188 3.322.187 3.33.094 1.669.094 1.66.085 1.678.093 1.669.085 1.678.086 1.669.076 1.677.085 1.678.035.843.034.835.042.843.034.843.034.834.034.843.034.843.034.843.035.844.025.843.034.843.026.843.025.843.026.843.025.843.026.843.017.852.025.843.018.843.025.843.017.851.009.844.017.851.008.843.017.852.009.843.008.851v.844l.009.851V898.526l-.009.852v.851l-.008.852-.009.851-.017.852-.008.852-.017.851-.017.852-.026.851-.017.852-.026.851-.034.852-.025.852-.034.851-.034.86-.034.852-.034.852-.043.86-.043.851-.05.852-.043.86-.051.852-.06.86-.051.851-.06.86-.068.852-.06.843-.698 2.972-1.592 2.606-2.308 1.984-2.819 1.175-3.04.256-2.963-.707-2.606-1.584-1.993-2.316-1.175-2.81-.247-3.04.06-.81.059-.792.051-.8.051-.792.051-.8.051-.793.043-.8.043-.8.042-.793.034-.8.034-.8.034-.801.034-.8.034-.801.026-.8.026-.801.025-.81.017-.8.017-.8.017-.81.017-.8.017-.809.009-.8.008-.81.009-.808.008-.8v-.81l.009-.809v-1.618l-.009-.809v-.809l-.008-.809-.009-.817-.008-.81-.009-.808-.017-.818-.008-.809-.017-.809-.017-.817-.017-.818-.017-.809-.017-.817-.026-.818-.026-.809-.017-.817-.034-.818-.025-.818-.026-.817-.025-.818-.034-.817-.026-.818-.034-.817-.034-.826-.034-.818-.034-.817-.034-.826-.034-.818-.034-.826-.043-.817-.077-1.644-.076-1.652-.085-1.644-.086-1.652-.085-1.652-.093-1.652-.086-1.652-.093-1.652-.188-3.313-.187-3.321-.187-3.321-.094-1.67-.094-1.66-.093-1.669-.085-1.67-.086-1.668-.085-1.67-.085-1.668-.085-1.67-.077-1.669-.042-.843-.034-.834-.043-.843-.034-.835-.034-.835-.034-.843-.034-.834-.034-.843-.034-.835-.026-.843-.034-.834-.025-.844-.026-.843-.026-.834-.025-.843-.026-.843-.025-.835-.017-.843-.026-.843-.017-.843-.017-.835-.017-.843-.017-1.14-.017-1.142-.017-1.141-.017-1.141-.017-1.141-.017-1.142-.017-1.14-.009-1.142-.017-1.14-.008-1.142-.009-1.141-.008-1.141-.009-1.141-.008-1.133-.009-1.141-.008-1.141v-1.141l-.009-1.142v-1.132l-.008-1.141v-9.112l.008-2.274.009-2.274.017-2.274.008-2.273.017-2.274.017-2.274.026-2.274.017-2.273.025-2.266.026-2.273.026-2.274.025-2.265.034-2.274.026-2.265.034-2.274.034-2.265.034-2.266.034-2.273.068-4.53.068-4.531.145-9.061.077-4.522.068-4.522.034-2.265.025-2.257.034-2.265.034-2.257.035-2.265.025-2.257.026-2.257.025-2.256.026-2.257.025-2.265.017-2.257.026-2.257.017-2.256.017-2.249.008-2.256.017-2.257.009-2.257v-2.256l.009-2.249v-2.265l.476-3.006 1.388-2.717 2.164-2.163 2.716-1.38 3.015-.476 3.006.477zM1008.305 660.362l2.794 1.234 2.273 2.036 1.533 2.64.639 2.98.068 1.26.068 1.26.068 1.27.068 1.269.06 1.26.06 1.269.06 1.269.05 1.26.06 1.26.051 1.27.051 1.26.043 1.268.05 1.26.043 1.261.043 1.26.043 1.27.042 1.26.034 1.26.034 1.26.034 1.26.034 1.261.035 1.26.025 1.26.026 1.261.025 1.252.026 1.26.025 1.26.017 1.261.026 1.252.017 1.26.017 1.26.017 1.253.008 1.26.017 1.252.009 1.252.009 1.26.008 1.252.009 1.26.008 1.252.009 1.252v1.26l.008 1.252v5.016l-.008 1.252v1.252l-.009 1.251-.008 1.252v1.252l-.009 1.252-.008 1.252-.009 1.252-.017 1.251-.009 1.244-.008 1.252-.017 1.251-.009 1.252-.017 1.252-.034 2.495-.034 2.495-.034 2.504-.042 2.495-.034 2.495-.043 2.496-.051 2.495-.043 2.495-.05 2.495-.043 2.495-.052 2.495-.05 2.487-.103 4.982-.213 9.972-.102 4.982-.051 2.486-.051 2.487-.043 2.495-.05 2.487-.043 2.487-.051 2.495-.043 2.486-.034 2.487-.043 2.495-.034 2.487-.034 2.486-.025 2.496-.017 1.243-.009 1.243-.017 1.252-.008 1.243-.009.716v.724l-.008.723v1.44l-.009.723v1.44l.009.724v1.439l.008.724v.723l.009.724.008 1.44.017 1.447.017 1.448.026 1.448.017 1.456.025 1.447.034 1.448.026 1.448.034 1.456.034 1.456.034 1.448.043 1.456.034 1.456.042 1.457.043 1.456.042 1.456.043 1.456.094 2.921.085 2.93.187 5.85.094 2.938.094 2.938.042 1.465.051 1.473.043 1.473.042 1.474.034 1.473.043 1.473.034 1.473.043 1.482.034 1.473.034 1.482.025 1.474.026 1.481.034 1.482.017 1.482.026 1.482.017 1.49.017 1.482.008.74v.75l.009.74.008.742v1.49l.009.74v2.241l-.009.74v1.5l-.008.74v.75l-.009.74-.008.75-.009.75-.008.749-.009.74-.017.75-.008.74-.528 3.007-1.431 2.7-2.197 2.12-2.742 1.337-3.015.426-3.006-.528-2.7-1.431-2.12-2.197-1.337-2.742-.426-3.015.017-.732.009-.716.008-.723.009-.716.008-.724.009-.723.008-.716v-.724l.009-.723v-1.44l.008-.724V912.151l-.008-.723v-1.44l-.009-.723v-.724l-.008-.724-.009-.724-.017-1.448-.017-1.447-.017-1.448-.025-1.448-.026-1.448-.026-1.456-.034-1.447-.034-1.457-.025-1.447-.043-1.457-.034-1.456-.042-1.456-.035-1.456-.042-1.456-.043-1.457-.042-1.464-.051-1.457-.085-2.92-.094-2.93-.188-5.859-.093-2.93-.094-2.938-.042-1.473-.043-1.473-.043-1.473-.042-1.474-.034-1.473-.043-1.473-.034-1.473-.034-1.482-.034-1.473-.034-1.482-.026-1.482-.025-1.473-.026-1.482-.017-1.49-.025-1.482-.009-1.482-.017-1.481-.008-.75v-.74l-.009-.742v-2.231l-.008-.75.008-.74v-2.24l.009-.74v-.75l.008-.74.017-1.261.009-1.26.017-1.261.008-1.26.034-2.504.034-2.512.034-2.512.034-2.504.043-2.512.043-2.504.042-2.504.043-2.503.05-2.495.052-2.504.051-2.495.051-2.495.102-4.99.205-9.964.11-4.982.043-2.487.051-2.487.051-2.478.051-2.486.043-2.478.042-2.487.043-2.478.043-2.478.034-2.478.042-2.487.034-2.478.026-2.478.017-1.235.008-1.235.017-1.235.009-1.243.017-1.235.009-1.243.008-1.235.009-1.235.008-1.235.009-1.243v-1.235l.008-1.235v-1.234l.009-1.235v-4.948l-.009-1.235v-1.235l-.008-1.234v-1.235l-.009-1.243-.008-1.235-.009-1.235-.017-1.235-.008-1.235-.018-1.235-.017-1.234-.017-1.235-.017-1.235-.017-1.235-.025-1.235-.017-1.234-.026-1.235-.025-1.235-.026-1.235-.034-1.235-.025-1.234-.035-1.235-.034-1.235-.034-1.235-.034-1.235-.042-1.234-.034-1.235-.043-1.235-.043-1.235-.05-1.226-.043-1.235-.051-1.243-.051-1.235-.051-1.226-.06-1.235-.051-1.235-.06-1.235-.06-1.243-.068-1.226-.06-1.235-.067-1.235-.068-1.243.306-3.04 1.235-2.785 2.035-2.274 2.632-1.533 2.989-.647 3.031.307z" fill="#fff"/><g><path d="M1119.182 533.7l.261-.003.256.008.264.006h.254l.256.008.275.01.267.014.258.016.26.017.277.018.27.021.254.028.27.021.28.027.265.032.272.03.276.037.435.053.221.038 1.528.405.195.066.193.085 1.222.587.362.205.36.251.822.63.013.013.8.773.19.203.379.453.318.438.245.356.195.319.148.264.134.25.115.221.099.2.107.224.135.305.122.29.108.279.092.256.085.24.083.234.08.224.064.204.066.211.063.203.064.204.11.358.1.335.093.31.128.461.03.107.02.057.054.179.076.262.075.263.07.273.068.265.067.266.067.265.07.273.066.284.065.285.06.295.068.292.063.303.062.303.066.311.06.322.069.32.063.33.067.337.058.341.069.346.064.357.066.365.067.365.067.365.062.376.064.384.067.391.068.392.059.395.073.408.062.403.068.419.068.418.127.84.129.868.13.876.13.894.06.448.063.457.064.457.066.464.058.468.066.464.058.468.058.467.06.476.062.475.06.476.054.478.06.476.054.478.055.486.056.487.053.478.056.487.056.486.045.481.055.487.048.489.048.49.053.477.047.49.045.48.048.49.037.484.045.481.037.485.045.48.034.477.042.473.034.476.034.476.034.476.031.468.031.468.031.468.029.46.02.463.028.46.018.455.025.452.017.455.015.447.023.444.011.438.012.44.012.438v.434l.01.43.005.423-.002.426-.005.418.004.414-.008.41-.008.41-.016.412-.01.401-.022.397-.01.401-.03.4-.024.388-.027.38-.018.205-.02.197-.02.197-.012.195-.02.197-.032.192-.02.197-.023.189-.028.2-.023.189-.028.2-.029.2-.036.202-.03.192-.04.195-.036.202-.044.206-.037.203-.044.205-.044.206-.053.209-.057.219-.057.22-.06.21-.066.223-.07.233-.074.225-.074.225-.095.242-.091.25-.095.241-.118.277-.111.248-.121.269-.15.288-.154.281-.16.283-.183.3-.204.317-.222.314-.236.328-.284.346-.302.343-.322.34-.299.278-.322.287-.308.254-.27.205-.295.214-.3.197-.287.184-.269.159-.266.14-.222.115-.208.101-.24.113-.243.104-.235.102-.184.066-.174.07-.256.092-.172.052-.152.055-.252.08-.313.085-.34.085-.3.07-.312.066-.319.069-.298.052-.282.046-.266.04-.284.039-.288.03-.26.03-.261.029-.28.027-.263.022-.248.016-.266.013-.275.017-.25.007-.255.02-.27.005-.266.013-.261.003h-.253l-.278.008-.26.003-.262.002-.261.003-.264-.005-.273-.003-.272-.002-.272-.003-.264-.005-.283-.008-.528-.01-.558-.019-.55-.02-.553-.03-.558-.018-.555-.037-.56-.026-.565-.034-.555-.037-.556-.037-.555-.038-.556-.037-.548-.04-.547-.04-.54-.042-.542-.051-.537-.035-.524-.048-1.025-.087-.987-.082-1.838-.159-.831-.075-.767-.07-.698-.058-.316-.024-.278-.018-.259-.016-.232-.017-.186-.015-.156-.008-.11-.005-.009.002-.484.01-.609.018-.608.018-.609.018-.616.02-.6.016-.606.026-.616.02-.606.026-.616.021-.606.026-.605.026-.614.029-.613.028-.606.026-.61.037-.614.029-.614.029-.61.036-.614.03-.61.036-.614.029-1.221.073-1.23.077-1.23.076-1.228.077-1.219.081-1.234.087-1.235.088-1.227.084-1.234.087-1.232.096-1.231.095-1.24.098-1.232.096-1.24.098-1.24.098-1.236.106-1.24.098-1.237.107-1.247.1-2.482.216-2.493.21-2.492.21-2.498.221-2.5.213-2.504.205-1.253.112-1.256.104-1.258.096-1.256.104-1.256.104-1.258.095-1.26.096-1.258.096-1.258.096-1.267.099-1.261.088-1.262.088-1.272.082-1.262.088-1.264.08-1.272.083-1.267.071-1.265.08-.648.032-.63.035-.637.037-.64.03-.639.037-.632.026-.63.035-.64.03-1.663.076-1.655.075-1.655.074-1.663.077-3.31.15-3.32.143-3.314.14-3.32.144-3.316.133-3.316.133-3.319.124-3.315.133-3.319.125-3.318.125-3.311.121-3.321.117-3.322.117-3.313.114-3.314.113-3.313.114-3.324.109-3.317.106-3.316.106-3.316.105-3.316.106-3.32.098-3.319.098-3.308.103-3.319.098-3.32.097-3.313.087-3.32.098-3.31.095-3.322.09-6.625.182-6.633.184-6.628.174-6.625.182-13.256.348-6.625.181-6.62.171-6.625.182-6.617.18-3.311.094-3.304.092-3.31.095-3.312.095-3.303.092-3.31.095-3.31.103-3.3.1-3.31.095-3.3.1-3.309.103-3.297.108h-.154l-.15.01-.197.006-.22.015-.517.022-.592.039-.675.033-.762.045-.82.057-.885.053-1.972.124-2.19.148-4.984.32-2.746.183-1.434.086-1.458.095-1.485.095-1.523.09-1.539.097-1.565.096-1.585.095-1.6.1-1.615.087-1.627.1-1.633.086-1.642.087-1.649.09-1.641.088-1.652.083-1.636.076-.827.042-.818.038-.81.035-.81.036-.81.035-.81.036-.802.032-.794.03-.802.033-.786.027-.794.03-.774.031-.773.023-.772.022-.764.028-.757.016-.75.024-.747.022-.74.01-.728.016-.722.022-.713.01-.709.008-.7.014-.69.003-.68.007-.674.005h-.66l-.655-.002-.648-.004-.63-.002-.621-.004-.615-.007-.608-.019-.592-.006-.58-.02-.573-.021-.564-.016-.547-.022-.281-.017-.266-.014-.264-.015-.26-.016-.266-.013-.268-.022-.25-.01-.263-.024-.257-.017-.245-.021-.244-.022-.254-.027-.249-.02-.236-.024-.235-.025-.247-.03-.259-.034-.229-.027-.232-.034-.257-.036-.241-.03-.231-.045-.245-.04-.244-.04-.231-.043-.251-.056-.254-.054-.256-.053-.282-.072-.248-.065-.28-.081-.281-.08-.296-.094-.327-.11-.302-.118-.338-.133-.355-.154-.346-.165-.235-.115-.221-.12-.22-.121-.18-.108-.241-.149-.244-.157-.255-.18-.253-.182-.283-.224-.293-.24-.296-.264-.265-.25-.224-.218-.24-.25-.229-.252-.205-.234-.208-.252-.185-.232-.179-.235-.178-.244-.157-.224-.156-.233-.148-.228-.138-.222-.136-.223-.135-.232-.127-.226-.112-.204-.113-.213-.114-.222-.106-.215-.104-.216-.099-.209-.098-.218-.093-.21-.091-.213-.086-.204-.087-.213-.082-.206-.08-.207-.078-.207-.08-.216-.074-.208-.07-.2-.073-.21-.07-.21-.069-.21-.067-.212-.067-.211-.062-.204-.06-.204-.063-.213-.061-.213-.06-.214-.056-.206-.059-.214-.056-.215-.055-.216-.055-.215-.052-.208-.053-.216-.051-.217-.051-.217-.052-.225-.099-.435-.093-.437-.093-.446-.09-.447-.086-.449-.087-.457-.082-.459-.081-.46-.077-.46-.078-.47-.075-.47-.071-.472-.073-.48-.067-.473-.07-.49-.064-.484-.063-.484-.063-.493-.061-.493-.06-.494-.056-.496-.058-.503-.055-.505-.052-.497-.051-.506-.05-.506-.053-.515-.046-.508-.046-.508-.047-.516-.043-.51-.044-.517-.043-.518-.039-.51-.04-.52-.036-.511-.038-.52-.035-.512-.036-.52-.032-.513-.033-.513-.034-.521-.03-.514-.028-.506-.029-.513-.029-.515-.025-.506-.025-.506-.025-.507-.022-.498-.025-.506-.021-.499-.019-.49-.021-.5-.039-.98-.033-.964-.029-.949-.028-.939-.025-.922-.021-.905-.02-.889-.015-.862-.013-.845-.01-.82-.01-.8-.004-.767-.004-.749v-.714l-.002-.696.002-.66.007-.627.005-.598.01-.564.009-.537.012-.501.012-.475.015-.403.584-2.992 1.48-2.67 2.231-2.079 1.664-.774.024-.026 2.573-1.64 2.954-.763.63-.062.636-.064.639-.056.636-.064.643-.057.634-.054.637-.065.648-.059 1.272-.11 1.282-.104 1.275-.101 1.283-.105 1.274-.101 1.278-.094 1.285-.096 1.28-.086 1.278-.093 1.291-.08 1.273-.084 1.283-.077 1.283-.078 1.283-.077 1.284-.078 1.286-.07 1.286-.069 1.28-.058 1.287-.07 1.28-.058 1.284-.051 1.29-.062 1.283-.05 1.284-.05 1.292-.054 1.284-.05 1.286-.043 1.287-.043 1.286-.043 1.29-.034 1.279-.04 1.289-.034 1.29-.035 1.289-.035 1.281-.031 1.293-.027 1.284-.023 1.284-.024 1.293-.027 1.284-.023 1.287-.016 1.288-.016 1.292-.026 1.282-.005 1.287-.016 1.287-.015 1.29-.008 1.288-.016 1.29-.007 1.29-.008 1.282-.005 1.282-.004 1.29-.008 1.285.003 1.29-.008 1.285.004 1.284.003 1.29-.008 1.285.004 1.285.003 1.285.003 1.288.011 1.285.004 1.285.003 2.564.017 2.568.026 2.564.017 2.565.017 2.567.026 2.56.028 2.56.028 2.559.028 5.11.06 5.111.06 5.092.056 2.54.026 2.541.026 2.541.026 2.54.026 2.53.02 2.53.021 2.527.013 2.526.013 1.261.012 1.258.004 1.258.003 1.258.004 1.258.004h1.266l1.255-.003 1.25.006 1.255-.004 1.255-.004 1.255-.004 1.247-.002 1.256-.004 1.244-.01 1.252-.012 1.247-.001.81-.009.811-.008.81-.009.82-.011.81-.009.81-.008.816-.02.81-.008.817-.02.81-.008.808-.017 1.634-.03.808-.017 1.632-.04 1.62-.043 1.632-.04 1.628-.046 1.629-.047 1.618-.052 1.633-.058 1.626-.055 1.634-.058 1.626-.055 1.63-.065 1.632-.066 1.63-.066 1.631-.066 1.629-.074 1.628-.073 1.639-.07 1.628-.073 1.633-.085 1.628-.074 1.633-.084 1.636-.077 1.634-.085 1.633-.084 1.633-.085 1.641-.088 1.633-.084 1.634-.085 1.638-.096 3.275-.172 3.28-.183 3.279-.183 3.28-.184 6.559-.366 3.288-.186 3.287-.186 3.29-.178 1.65-.09 1.641-.088 1.652-.082 1.65-.09 1.644-.08 1.65-.09 1.651-.083 1.644-.08 1.655-.074 1.653-.083 1.52-.071 1.52-.072 1.513-.069 1.523-.063 1.52-.072 1.524-.063 1.515-.061 1.523-.064 1.515-.06 1.515-.061 1.524-.064 1.515-.06 1.526-.056 1.515-.061 1.518-.053 1.515-.06 1.519-.053 1.518-.053 1.518-.053 1.518-.052 3.028-.103 3.039-.097 3.03-.095 3.04-.097 3.03-.095 3.035-.086 3.025-.084 3.034-.087 3.026-.083 3.034-.087 3.029-.076 3.033-.086 3.03-.076 3.028-.076 6.054-.159 6.05-.148 6.046-.157 6.03-.15.16-.012.145.002.14-.013.142-.006h.154l.15-.009.148-.016.15-.009.151-.008.167-.014.15-.009.16-.011.166-.014.148-.017.35-.034.34-.031.34-.04.346-.042.366-.04.362-.047.363-.048.37-.051.38-.054.378-.053.395-.06.394-.059.395-.059.403-.062.403-.062.83-.133 1.693-.27.865-.135.443-.077.445-.068.438-.066.454-.071.456-.063.457-.064.457-.063.464-.066.468-.058.467-.058.476-.061.47-.05.478-.053.487-.056.473-.042.253-.027.24-.013.252-.026.236-.021.248-.016.255-.019.24-.013.247-.016.248-.016.266-.013.25-.008.232-.01.266-.014.259-.01.242-.005h.253l.259-.01.26-.004.262-.002.256.008zm-16.324 48.215l.302.01.329.01.324.02.323.02.324.02.345.031.362.025.364.033.753.057.812.073.858.074 1.83.161.96.083.988.082.493.041.502.038.502.038.505.047.51.035.51.035.5.038.5.03.51.036.49.033.489.025.49.033.478.02.423.02-.005-.242-.007-.35-.01-.358-.01-.358-.013-.366-.016-.374-.019-.382-.018-.382-.014-.393-.024-.398-.024-.398-.017-.401-.027-.406-.03-.415-.03-.414-.025-.425-.033-.422-.033-.422-.035-.43-.036-.43-.03-.442-.045-.427-.03-.441-.05-.444-.038-.438-.042-.446-.041-.447-.042-.446-.05-.443-.04-.447-.053-.451-.042-.446-.052-.452-.05-.443-.052-.452-.05-.443-.052-.451-.05-.444-.052-.451-.057-.44-.05-.444-.057-.44-.058-.441-.057-.44-.055-.433-.055-.433-.062-.43-.055-.432-.06-.422-.06-.422-.057-.413-.116-.835-.128-.814-.11-.792-.127-.787-.061-.376-.051-.37-.062-.376-.058-.368-.064-.357-.053-.352-.061-.349-.058-.34-.056-.333-.06-.322-.06-.322-.058-.314-.055-.306-.052-.298-.043-.247-.078.01-.35.034-.373.042-.362.048-.374.043-.379.053-.378.054-.39.048-.387.057-.386.056-.403.062-.403.063-.403.062-.402.062-.838.136-1.694.269-.856.133-.435.074-.438.065-.446.069-.445.068-.449.06-.446.069-.456.063-.449.06-.467.059-.457.063-.46.055-.467.058-.47.05-.474.042-.454.045-.252.026-.237.021-.248.016-.236.021-.24.013-.236.021-.248.016-.24.013-.247.016-.242.005-.24.013-.258.01-.24.014-.225-.001-6.082.16-6.046.156-6.058.152-6.046.156-3.029.076-3.018.08-3.028.076-3.018.081-3.026.084-3.018.08-3.015.09-3.023.091-3.017.081-3.023.092-3.012.097-3.02.1-3.013.096-3.02.1-1.502.047-1.507.058-1.51.05-1.507.058-1.507.057-1.51.05-1.508.058-1.507.058-1.496.063-1.507.058-1.516.06-1.504.067-1.499.055-1.504.066-1.505.066-1.504.065-1.512.07-1.505.065-1.504.066-1.502.074-1.636.077-1.636.076-1.633.085-1.633.085-1.636.077-1.634.084-1.633.085-1.641.088-1.633.084-1.639.096-3.274.172-3.28.183-3.28.184-6.559.366-3.28.183-3.287.186-3.288.186-3.282.175-1.65.09-1.64.088-1.65.09-1.644.08-1.65.09-1.652.083-1.64.088-1.653.082-1.644.08-1.655.074-1.652.082-1.655.075-1.644.08-1.655.074-1.65.063-1.655.075-1.658.066-1.65.064-1.658.066-1.65.063-1.66.059-1.653.055-1.66.059-1.656.047-1.656.048-1.663.05-1.659.04-1.658.039-1.659.04-.834.016-.835.018-.824.022-.837.009-.835.017-.827.014-.834.018-.83.006-.834.017-.83.006-.834.017-.83.007-.837.009-.83.006-1.271.01-1.263.007-1.274.002-1.271.01-1.263.007-1.274.002-1.266-.001-1.274.002-1.266-.001-1.274.002-1.266-.001-1.277-.006-1.274.002-1.27-.01-1.276-.005-1.274.002-2.546-.015-2.548-.024-2.546-.015-2.548-.023-2.549-.023-2.551-.03-2.549-.024-2.56-.028-5.1-.054-5.102-.063-5.103-.062-2.56-.028-2.548-.023-2.551-.031-2.549-.023-2.549-.023-2.545-.015-2.557-.02-2.546-.016-1.268-.009-1.274.002-1.27-.009-1.276-.006h-1.266l-1.277-.007-1.274.002h-1.266l-1.274.001h-1.266l-1.274.001-1.263.007-1.274.002-1.271.01-1.263.007-1.271.01-1.272.01-1.263.007-1.268.018-1.263.007-1.268.018-1.26.015-1.269.018-1.26.015-1.266.026-1.265.026-1.258.023-1.265.026-1.257.023-1.263.034-1.263.034-1.254.032-1.263.034-1.254.03-1.26.043-1.252.039-1.26.042-1.256.05-1.252.04-1.257.05-1.249.047-1.254.058-1.245.055-1.254.058-1.246.055-1.254.058-1.252.066-1.243.064-1.248.074-1.243.063-1.248.074-1.238.08-1.248.073-1.245.083-1.238.079-1.234.087-1.243.09-1.243.09-1.234.088-1.24.098-1.229.103-1.237.098-1.232.104-.1.009.011.728.012.791.013.81.019.833.02.852.023.869.027.885.028.894.032.91.034.92.02.463.019.463.019.464.022.47.022.472.023.471.023.471.026.479.024.47.027.479.028.478.029.478.03.478.027.469.032.477.032.477.033.476.035.476.034.467.037.475.036.466.037.466.039.465.04.465.042.465.04.455.043.455.045.454.046.454.045.445.047.444.047.435.049.435.05.434.052.425.052.424.053.415.053.406.055.405.057.405.055.387.06.395.057.377.06.377.057.359.064.366.06.35.061.339.065.338.061.322.065.32.063.304.066.302.064.293.032.134.003.016.102.01.204.008.442.023.45.012.475.02.495.014.504.01.52.005.535.008.555.01.571.004.577.003.591-.003h.61l.616-.003.631-.008.643-.003.647-.013.664-.01.678-.007.68-.017.697-.013.7-.014.709-.018.716-.02.732-.026.724-.023.743-.02.75-.024.76-.026.748-.032.767-.029.775-.032.778-.024.783-.035.775-.032.791-.038.794-.03.8-.04.793-.03.8-.04 1.609-.077 1.614-.087 1.625-.082 1.615-.087 1.614-.087 1.614-.087 1.604-.092 1.592-.097 1.585-.095 1.568-.089 1.547-.099 1.523-.09 1.512-.096 1.477-.092 1.45-.092 1.414-.088 2.739-.18 4.981-.329 2.209-.145 1.99-.122.91-.061.85-.05.788-.046.727-.042.656-.035.595-.03.285-.012.266-.014.267-.013.223-.008 3.324-.108 3.309-.103 3.319-.098 3.308-.103 3.32-.098 3.31-.095 3.311-.095 3.32-.097 3.31-.095 3.312-.095 3.31-.095 3.323-.09 6.625-.182 6.625-.182 6.628-.173 6.628-.174 13.253-.356 6.628-.174 6.617-.179 6.625-.182 6.625-.181 3.31-.095 3.304-.092 3.311-.095 3.311-.095 3.311-.095 3.311-.095 3.309-.103 3.31-.095 3.309-.103 3.308-.103 3.308-.103 3.309-.103 3.305-.11 3.305-.112 3.306-.11 3.305-.112 3.306-.11 3.31-.123 3.303-.119 3.302-.119 3.303-.119 3.3-.127 3.307-.13 3.3-.127 3.305-.137 3.3-.128 3.301-.145 3.297-.135 3.302-.146 3.302-.146 1.647-.072 1.644-.08 1.655-.074 1.644-.08.606-.025 1.227-.058.61-.037.614-.028.61-.037.614-.029.603-.034 1.23-.076 1.231-.069 1.227-.084 1.23-.076 1.229-.077 1.226-.084 1.235-.088 1.223-.092 1.235-.087 1.232-.096 1.242-.09 1.232-.095 1.24-.098 1.228-.104 1.24-.098 1.24-.098 1.237-.106 1.24-.099 2.49-.218 2.484-.207 2.492-.21 2.498-.221 2.5-.213 2.493-.21 1.256-.104 1.256-.104 1.255-.104 1.256-.104 1.256-.104 1.259-.095 1.255-.104 1.259-.096 1.267-.099 1.258-.096 1.262-.088 1.27-.09 1.26-.088 1.262-.088 1.272-.083 1.265-.08 1.264-.08 1.272-.082 1.268-.072 1.275-.075.64-.029.63-.035.64-.029.63-.034.64-.03.64-.029.641-.03.633-.026.64-.029.64-.03.633-.026.635-.018.64-.03.644-.02.643-.022.636-.019.635-.018.643-.021.644-.022.68-.016.173.002.197-.007h.226l.175.01z" fill="#fff"/><path d="M937.48 474.128l.699.004.697.005.698.005.698.004.692.015.69.008.7.012.685.019.693.015.684.018.685.019.684.018.685.018.68.03.679.028.676.022.68.029.67.032.68.029.672.032.663.035.674.04.663.035.659.045.663.035.658.046.65.049.658.045.659.046.642.051.65.05.642.05.642.052.645.06.626.057.637.062.637.062.626.057.629.066.62.068.622.068.62.068.614.07.612.072.605.073.608.082.597.077.605.074.591.087.597.077.592.087.584.09.58.083.584.09.576.094.567.096.568.096.576.093.56.099.559.099.551.102.555.11.543.104.544.105.546.113.528.11.538.115.53.119.52.113.533.126.512.117.514.124.514.124.499.13.509.135.498.13.501.137.482.136.494.14.466.142.252.073.244.076.233.07.244.076.244.076.214.068.244.076.247.084.225.073.225.074.228.081.236.079.228.081.239.087.228.082.217.076.22.084.22.085.23.09.228.08.223.093.209.08.223.092.222.092.212.087.22.085.215.095.223.092.206.098.215.096.215.095.204.09.217.103.215.096.21.106.206.098.21.106.207.098.201.109.21.106.201.11.21.105.194.112.201.11.205.116.201.11.197.119.204.117.196.12.197.12.196.12.246.156.284.188.352.254.302.237.29.23.312.269.259.242.236.233.256.261.237.26.201.235.207.251.197.247.182.233.18.252.167.24.156.233.147.237.159.242.134.223.128.235.126.226.118.23.112.212.11.232.107.224.101.208.1.227.092.211.086.214.088.222.085.213.082.206.077.217.078.216.074.209.074.209.067.21.066.212.066.212.066.211.064.204.055.206.059.214.055.206.058.215.056.206.05.217.055.206.048.21.047.209.047.209.05.217.04.212.047.209.04.212.047.21.04.211.042.22.04.212.036.231.076.416.074.435.065.437.069.446.065.438.06.448.05.444.06.448.053.452.047.462.052.452.04.465.047.462.039.465.04.466.041.473.031.468.034.476.034.476.034.476.026.479.026.479.026.479.021.49.026.478.021.49.018.482.013.493.02.49.014.492.01.485.012.492.013.493.01.485.005.495.01.485.005.495.002.488.001.487.002.488.002.487.002.488v.48l-.007.49v.479l-.01.482v.48l-.012.474-.004.472-.012.474-.004.471-.014.467-.007.463-.015.466-.01.456-.017.458-.01.455-.012.448-.02.45-.015.44-.015.439-.019.431-.039.855-.036.835-.043.82-.04.801-.04.774-.05.75-.047.73-.047.705-.053.687-.049.65-.05.624-.033.31-.021.297-.032.292-.026.28-.027.28-.03.274-.023.261-.036.257-.027.254-.027.253-.033.238-.024.235-.041.24-.029.2-.133.717-.182.707-.234.689-.285.67-.34.646-.386.617-.432.588-.47.556-.513.517-.553.478-.586.434-.612.39-.644.347-.665.291-.69.246-.707.198-.71.136-.729.087-.721.031-.733-.028-.724-.076-.716-.134-.707-.182-.69-.234-.673-.293-.645-.34-.617-.385-.585-.425-.56-.478-.516-.512-.475-.545-.443-.584-.392-.62-.337-.639-.302-.67-.235-.685-.197-.707-.136-.71-.088-.729-.034-.73.023-.721.085-.727.01-.121.018-.106.019-.124.016-.132.018-.151.016-.16.018-.178.023-.189.02-.197.022-.216.02-.224.025-.235.017-.232.019-.25.045-.532.043-.567.05-.596.04-.62.049-.65.037-.683.04-.7.039-.729.033-.744.035-.763.035-.79.022-.396.01-.402.016-.412.016-.413.008-.41.013-.42.015-.412.01-.428.013-.42.01-.43.01-.428.008-.436.007-.437.007-.436.007-.437.007-.436-.003-.442.007-.437.004-.444-.003-.442.004-.444-.004-.442.005-.444-.004-.442-.004-.442-.003-.441-.012-.44-.004-.44-.012-.44-.003-.441-.012-.44-.017-.427-.009-.43-.017-.429-.008-.43-.017-.429-.025-.425-.014-.42-.022-.417-.02-.409-.027-.406-.019-.409-.024-.398-.032-.395-.025-.398-.03-.388-.037-.384-.024-.371-.034-.377-.04-.365-.029-.36-.045-.355-.031-.342-.04-.338-.047-.336-.033-.322-.05-.317-.039-.312-.044-.3-.049-.29-.046-.282-.046-.282-.027-.126-.019-.13-.024-.117-.026-.126-.024-.118-.024-.118-.024-.118-.024-.118-.027-.1-.02-.11-.027-.099-.003-.008-.065-.03-.109-.052-.117-.049-.13-.062-.117-.049-.117-.049-.12-.056-.135-.051-.128-.054-.125-.046-.147-.057-.127-.053-.136-.052-.139-.059-.143-.048-.147-.056-.155-.054-.146-.056-.155-.053-.144-.048-.154-.054-.155-.053-.165-.059-.163-.05-.155-.054-.162-.05-.174-.056-.173-.056-.152-.045-.182-.053-.173-.055-.163-.051-.363-.106-.363-.105-.371-.103-.382-.108-.38-.1-.386-.097-.399-.102-.406-.1-.406-.1-.414-.096-.422-.093-.425-.102-.433-.099-.438-.088-.45-.093-.448-.093-.446-.085-.465-.088-.468-.095-.465-.088-.482-.081-.48-.082-.485-.09-.489-.079-.5-.084-.497-.076-.508-.08-.505-.074-.516-.078-.524-.076-.522-.067-.524-.075-.532-.073-.54-.07-.537-.061-.548-.067-.549-.067-.548-.067-.556-.064-.553-.056-.564-.061-.573-.058-.572-.059-.572-.058-.57-.05-.588-.053-.577-.047-.588-.053-.589-.052-.593-.042-.596-.05-.602-.038-.593-.042-.605-.047-.61-.036-.611-.044-.618-.033-.61-.036-.617-.033-.617-.033-.626-.03-.617-.034-.634-.027-.623-.022-.633-.028-.63-.019-.634-.027-.64-.017-.63-.02-.65-.02-.638-.017-.639-.017-.647-.014-.643-.005-.647-.014-.655-.01-.652-.003-.644-.006-.652-.003-.654-.01h-1.32l-.65.005h-.66l-.656.008h-.66l-.665.011-.657.008-.665.011-.657.008-.663.02-.665.01-.662.02-.662.018-.662.02-.67.02-.663.02-.66.027-.661.019-.668.03-.667.03-.66.027-.664.038-.667.03-.657.034-.656.035-.665.038-.664.038-.654.043-.665.038-.661.046-.654.043-.662.046-.65.051-.662.046-.65.051-.652.051-.65.051-.648.06-.66.053-.639.057-.648.059-.645.067-.648.059-.637.064-.645.067-.637.064-.634.073-.637.064-.635.072-.623.078-.634.072-.623.077-.624.078-.623.077-.623.078-.613.082-.62.086-.613.083-.612.082-.602.088-.601.088-.602.087-.606.1-.591.092-.59.093-.591.093-.591.093-.58.098-.577.106-.588.101-.569.103-.568.104-.57.103-.565.111-.55.106-.566.11-.55.107-.548.113-.547.114-.536.118-.54.111-.527.116-.526.124-.528.116-.517.121-.518.121-.506.126-.507.126-.506.127-.49.12-.496.132-.488.128-.477.134-.48.125-.465.14-.477.133-.457.136-.45.133-.45.133-.447.141-.439.139-.439.138-.428.144-.203.063-.209.074-.208.075-.212.066-.208.074-.2.072-.201.071-.2.072-.201.071-.201.071-.198.08-.192.069-.193.068-.181.074-.193.069-.198.079-.181.074-.182.074-.19.076-.173.071-.182.074-.173.07-.182.074-.174.071-.17.08-.174.07-.163.076-.174.071-.162.076-.163.076-.163.076-.157.066-.155.073-.155.073-.16.084-.162.076-.14.068-.146.07-.152.081-.146.07-.139.068-.136.076-.144.078-.135.075-.131.065-.136.076-.128.072-.136.076-.12.07-.127.072-.12.07-.12.07-.12.07-.111.067-.117.077-.12.07-.096.061-.103.065-.11.074-.108.075-.104.065-.05.036v.053l.01.305.003.315.018.328.004.342.016.347.012.366.021.363.011.385.019.382.024.399.02.409.021.417.025.425.025.425.03.44.023.445.026.452.033.449.065.944.068.952.069.98.074.994.083 1.02.086 1.027.08 1.038.087 1.054.097 1.059.092 1.07.095 1.078.095 1.078.094 1.079.103 1.075.098 1.086.103 1.075.1 1.068.105 1.056.097 1.06.204 2.07.203 2.015.189 1.95.191 1.856.337 3.406.155 1.527.134 1.39.064.637.053.605.054.559.049.516.045.481.033.45.038.41.029.334.023.724-.029.733-.084.727-.134.716-.193.702-.233.689-.296.666-.34.645-.386.617-.432.588-.482.551-.512.517-.556.47-.586.434-.62.393-.64.336-.672.294-.685.235-.71.19-.71.135-.732.08-.72.031-.734-.028-.726-.085-.717-.133-.702-.193-.688-.234-.666-.296-.646-.34-.617-.385-.59-.44-.549-.474-.517-.512-.477-.553-.427-.59-.392-.62-.337-.639-.294-.672-.235-.685-.197-.707-.128-.714-.088-.728-.013-.267-.025-.298-.032-.368-.041-.42-.042-.473-.054-.532-.05-.57-.058-.621-.138-1.352-.15-1.51-.336-3.407-.187-1.868-.202-1.962-.198-2.027-.204-2.097-.1-1.067-.106-1.083-.098-1.086-.109-1.092-.1-1.094-.104-1.102-.095-1.105-.103-1.103-.093-1.097-.093-1.097-.1-1.094-.087-1.08-.087-1.082-.089-1.062-.078-1.057-.084-1.046-.075-1.022-.072-1.014-.063-.99-.037-.484-.029-.487-.026-.479-.034-.476-.023-.47-.028-.46-.028-.46-.023-.445-.023-.444-.022-.444-.017-.428-.017-.428-.014-.42-.014-.42-.016-.4-.009-.404-.013-.393-.01-.385-.003-.388-.005-.369-.005-.369.003-.372.001-.352.009-.356v-.353l.012-.348.015-.34.012-.347.022-.343.02-.323.02-.197.01-.176.019-.178.023-.189.017-.178.024-.189.028-.2.028-.2.036-.203.034-.21.043-.233.052-.235.057-.247.067-.268.078-.29.085-.292.115-.34.127-.352.164-.402.199-.432.238-.474.32-.548.41-.598.386-.49.271-.305.174-.197.177-.19.173-.197.18-.182.176-.19.175-.17.18-.181.179-.182.177-.162.19-.177.187-.184.194-.168.172-.152.193-.168.198-.18.188-.157.188-.157.196-.16.196-.16.2-.153.19-.15.199-.151.207-.155.193-.142.2-.152.21-.147.2-.144.21-.147.197-.134.218-.15.213-.139.196-.133.205-.136.215-.131.22-.142.208-.128.213-.14.216-.13.21-.12.223-.134.219-.123.223-.134.219-.123.218-.123.218-.123.227-.126.229-.118.226-.126.221-.115.23-.118.229-.117.23-.118.22-.115.232-.11.246-.124.224-.107.232-.11.232-.11.24-.112.24-.112.232-.11.243-.105.24-.113.235-.101.251-.108.243-.105.235-.101.243-.105.251-.108.254-.099.243-.105.254-.1.237-.093.251-.107.254-.1.249-.089.254-.099.262-.102.253-.1.257-.091.265-.095.246-.096.264-.095.257-.091.265-.094.265-.095.26-.083.264-.094.257-.092.267-.086.284-.092.524-.178.543-.175.538-.165.546-.167.554-.17.554-.171.557-.162.56-.155.565-.165.568-.157.579-.152.567-.157.582-.144.587-.155.581-.144.582-.144.597-.15.593-.138.6-.142.603-.133.604-.134.603-.133.611-.137.615-.128.614-.129.625-.123.614-.128.625-.124.628-.115.633-.126.628-.115.639-.11.644-.121.63-.108.647-.112.647-.113.642-.103.658-.107.65-.105.66-.1.652-.097.66-.1.661-.1.664-.091.671-.095.664-.091.671-.095.666-.084.675-.086.674-.087.674-.086.686-.082.677-.078.685-.082.68-.07.685-.082.688-.073.688-.074.691-.065.688-.073.691-.066.69-.065.703-.06.69-.066.702-.06.694-.057.702-.06.694-.058.704-.052.697-.05.704-.051.705-.053.697-.049.707-.044.708-.044.707-.044.7-.042.71-.036.708-.044.702-.033.71-.036.703-.034.713-.028.702-.033.705-.025.713-.028.714-.029.705-.025.7-.014.705-.025.716-.02.708-.018.7-.014.708-.017.711-.01.7-.014.703-.006.703-.007.703-.006.703-.006.703-.007.705.002.695-.004.698.005z" fill="#fff"/></g></svg>