<svg viewBox="0 0 1921 1081" xmlns="http://www.w3.org/2000/svg" fill-rule="evenodd" clip-rule="evenodd" stroke-linejoin="round" stroke-miterlimit="1.414"><path d="M.81.99h1920v1080H.81z"/><path d="M1227.729 148.467h1.61l1.6.01 1.6.01 1.6.01 1.6.01 1.61.02 1.6.02 1.6.02 1.61.02 1.6.03 1.6.02 1.6.03 1.61.03 1.6.04 1.6.03 1.6.04 1.61.04 1.6.05 1.6.05 1.61.05 1.6.05 1.6.05 1.6.06 1.6.06 1.61.07 1.6.06 1.21.05 1.22.06 1.21.05 1.21.06 1.21.06 1.21.06 1.21.07 1.21.07 1.21.06 1.22.08 1.21.07 1.21.08 1.22.08 1.21.08 1.21.09.61.04.59.05h.08l.14.01.45.03.6.03.73.04.82.04.44.03.46.03.46.02.48.03.48.04.49.03.48.04.48.04.48.04.24.02.24.02.23.03.23.02.23.02.23.03.22.03.22.02.22.03.22.03.22.04.21.03.22.03.23.04.22.05.24.05.24.05.23.06.15.04.16.05.17.06.16.05.16.06.22.09.24.1.24.12.26.14.35.21.35.25.16.13.48.43.02.01.44.5.01.02.55.8.01.02.32.68.1.24.13.41.12.49.09.34.08.34.07.35.08.34.08.35.07.35.08.35.07.36.07.35.06.36.07.36.07.36.06.36.06.37.06.37.06.36.06.37.06.38.05.37.05.38.06.37.05.38.05.38.05.38.04.39.05.39.04.38.05.39.04.39.04.4.04.39.04.4.04.39.03.4.04.41.03.4.03.4.04.41.03.4.03.41.02.41.03.41.03.42.02.41.03.42.02.42.02.42.02.42.02.42.02.42.02.43.02.42.01.43.02.43.01.43.02.43.01.43.01.44.01.43.01.44.01.44.01.44.01.44v.44l.01.44v.44l.01.45v1.34l.01.45-.01.9v.9l-.01.91-.01.92-.01.91-.01.92-.02.92-.02.93-.02.93-.03.93-.03.94-.03.94-.03.94-.03.94-.04.94-.04.95-.04.95-.04.95-.04.95-.05.95-.05.96-.05.95-.05.96-.05.96-.05.96-.06.96-.06.95-.05.96-.06.96-.06.96-.06.96-.06.96-.07.96-.06.95-.07.96-.06.96-.13 1.9-.13 1.9-.14 1.89-.13 1.89-.28 3.74-.26 3.69-.14 1.82-.13 1.81-.12 1.79-.13 1.77-.12 1.75-.05.86-.06.87-.06.85-.05.85-.05.84-.05.84-.05.83-.05.83-.05.81-.05.81-.04.81-.04.79-.04.79-.04.78-.03.78-.04.76-.03.76-.03.75-.02.74-.03.73-.02.72-.02.71-.02.71-.01.69-.02.68-.01.68v.66l-.01.66v1.27l.01 1.04.01 1.04.01 1.04v1.04l.02 1.04.01 1.04.01 1.04.01 1.04.02 1.04.02 1.04.01 1.04.02 1.04.02 1.04.02 1.04.02 1.04.02 1.04.02 1.05.03 1.04.02 1.04.03 1.04.02 1.04.03 1.04.03 1.04.03 1.04.03 1.05.03 1.04.06 2.08.07 2.08.06 2.09.07 2.08.08 2.09.07 2.08.08 2.09.08 2.08.08 2.09.08 2.08.09 2.09.08 2.09.09 2.08.09 2.09.08 2.09.18 4.18.18 4.18.37 8.36.18 4.19.09 2.09.09 2.09.09 2.1.08 2.09.09 2.09.08 2.1.09 2.09.08 2.1.08 2.1.07 2.09.08 2.1.07 2.1.07 2.1.07 2.1.06 2.1.07 2.09.03 1.05.03 1.05.03 1.06.02 1.05.03 1.05.03 1.05.02 1.05.03 1.05.02 1.05.02 1.05.02 1.06.02 1.05.02 1.05.02 1.05.02 1.05.02 1.05.01 1.06.02 1.05.01 1.05.01 1.06.01.94.01.94.01.95.01.94v.94l.01.94v6.6l-.01.94v.95l-.01.94-.01.94-.01.94v.94l-.01.94-.01.95-.01.94-.02.94-.01.94-.01.94-.02.94-.03 1.88-.03 1.88-.04 1.88-.04 1.88-.04 1.88-.04 1.88-.05 1.88-.05 1.88-.05 1.88-.05 1.87-.05 1.88-.06 1.88-.05 1.87-.06 1.88-.06 1.88-.06 1.87-.06 1.87-.12 3.75-.24 7.49-.12 3.74-.13 3.74-.05 1.87-.06 1.87-.06 1.87-.06 1.87-.05 1.87-.05 1.86-.05 1.87-.05 1.87-.05 1.87-.05 1.86-.04 1.87-.04 1.86-.04 1.87-.04 1.86-.03 1.86-.03 1.87-.02.93-.01.93-.01.93-.02.93-.01.93-.01.93-.01.93v.93l-.01.93-.01.93-.01.94v1.85l-.01.94V521.857l-.01 2.59-.01 2.6v2.59l-.01 2.59-.02 2.59-.01 2.6-.02 2.59-.01 2.59-.02 2.6-.02 2.59-.02 2.59-.02 2.59-.03 2.59-.02 2.6-.03 2.59-.02 2.59-.03 2.59-.03 2.59-.03 2.59-.03 2.6-.03 2.59-.07 5.18-.06 5.18-.07 5.18-.07 5.18-.08 5.18-.14 10.36-.07 5.18-.08 5.17-.07 5.18-.07 5.18-.06 5.17-.07 5.18-.03 2.59-.03 2.59-.03 2.58-.03 2.59-.03 2.59-.03 2.58-.02 2.59-.03 2.59-.02 2.58-.03 2.59-.02 2.59-.02 2.58-.02 2.59-.01 2.58-.02 2.59-.01 2.58V686.047l.01.37v.38l.01.39.01.4.01.41.01.42.02.43.01.44.02.44.02.46.02.47.02.47.03.48.02.49.03.5.03.5.02.51.06 1.05.07 1.07.07 1.1.07 1.12.07 1.15.08 1.16.16 2.39.16 2.46.17 2.52.09 1.28.08 1.29.09 1.3.08 1.31.08 1.31.08 1.32.08 1.33.07 1.33.04.66.04.67.03.67.03.66.04.67.03.67.03.66.03.67.03.67.03.66.02.66.03.67.02.66.02.66.02.66.02.65.02.66.02.66.01.65.01.65.02.64.01.65v.64l.01.64v.64l.01.63v.63l-.01.63v.62l-.01.63v.61l-.02.62-.01.61-.02.6-.01.61-.02.59-.03.6-.02.59-.03.58-.03.58-.04.57-.01.29-.02.29-.02.28-.02.28-.03.29-.02.27-.02.28-.02.28-.03.28-.02.27-.03.28-.03.27-.02.27-.03.27-.03.27-.03.26-.03.27-.04.27-.03.26-.03.26-.04.26-.03.26-.04.26-.04.25-.04.26-.04.25-.04.25-.04.26-.05.25-.04.24-.04.25-.05.25-.05.24-.05.25-.05.24-.05.24-.06.24-.05.24-.06.23-.05.24-.06.23-.06.24-.07.23-.06.23-.06.23-.07.23-.07.22-.07.23-.07.23-.08.22-.07.22-.08.23-.08.22-.07.18-.82 1.49v.01l-1.36 1.31-.01.01-1.14.62-.01.01-.79.26-.59.12-.27.05-.42.03h-.68l-.15-.01-.14-.01-.14-.01-.25-.02-.26-.02-.26-.03-.27-.03-.29-.03-.29-.04-.3-.04-.62-.08-.65-.08-.64-.08-.63-.09-1.13-.16-.88-.12-.27-.03-.06-.01h-.03l-.7-.08-.73-.08-.72-.07-.73-.08-.73-.07-.72-.07-.73-.07-.73-.07-.73-.06-.73-.06-.72-.07-.73-.06-.73-.06-.73-.05-.73-.06-.73-.05-.73-.06-.73-.05-.73-.05-.73-.05-.73-.04-.73-.05-.73-.04-.73-.05-.73-.04-.73-.04-.73-.04-.74-.04-.73-.03-.73-.04-.73-.04-.74-.03-.73-.03-.73-.03-.74-.03-.73-.03-.73-.03-.74-.03-.73-.02-.74-.03-.74-.02-.73-.03-.74-.02-.73-.02-.74-.02-.74-.02-.73-.02-.74-.02-1.48-.04-1.47-.03-1.48-.03-1.48-.03-1.48-.02-1.49-.03-1.48-.02-1.49-.02-2.86-.04-2.86-.03-2.87-.03-2.86-.03-2.86-.02-2.87-.03-2.86-.02-2.87-.02-2.86-.01-2.86-.01-2.87-.01-2.86-.01-2.86-.01h-11.46l-2.86.01h-2.87l-2.86.01-2.86.01-2.87.02-2.86.01-2.86.02-2.87.01-2.86.02-2.87.02-2.86.03-2.87.02-2.86.03-2.87.02-2.86.03-2.87.03-2.86.03-2.87.03-2.86.03-2.87.04-2.86.03-2.87.04-2.86.04-2.87.03-2.87.04-5.73.08-5.73.08-5.74.09-5.73.08-5.74.09-11.47.17-11.47.18-5.74.09-5.74.08-6.06.09-6.06.09-6.07.09-6.06.08-6.06.08-6.07.08-6.06.08-6.07.07-6.06.08-6.07.07-6.06.07-6.07.07-6.07.06-6.06.06-6.07.06-6.07.06-6.06.06-6.07.06-6.07.05-6.07.05-6.07.05-6.06.04-6.07.05-6.07.04-6.07.04-6.07.04-6.07.03-6.07.04-6.07.03-6.07.03-6.07.03-6.07.02-6.06.02-6.07.02-6.07.02-6.07.01-6.07.02-6.07.01-6.07.01h-6.07l-6.07.01h-18.205l-6.069-.01h-6.068l-6.068-.01-6.068-.02-6.068-.01-6.068-.02-6.067-.02-6.067-.02-6.067-.02-6.067-.03-6.066-.03-6.066-.03-6.065-.04-6.066-.03-6.065-.04-6.065-.04-6.064-.05-6.063-.04-6.064-.05-6.063-.05-1.803-.02-1.803-.02-1.803-.02-1.802-.01-1.802-.03-1.803-.02-1.802-.02-1.802-.02-1.802-.03-1.801-.02-1.801-.03-1.802-.03-1.802-.03-1.8-.03-1.801-.03-1.8-.03-1.802-.03-1.801-.03-1.8-.04-1.8-.03-3.6-.07-3.6-.07-3.598-.08-3.599-.08-3.598-.08-3.598-.08-3.597-.09-3.596-.08-3.597-.09-3.596-.09-3.595-.09-3.595-.09-3.595-.1-3.595-.09-7.187-.19-7.186-.19-7.186-.19-7.184-.19-3.591-.09-3.591-.09-3.592-.09-3.591-.09-3.59-.09-3.591-.08-3.59-.09-3.591-.08-3.589-.08-3.59-.08-3.59-.08-3.59-.07-3.59-.07-1.795-.03-1.794-.04-1.794-.03-1.795-.03-1.794-.03-1.796-.03-1.794-.03-1.795-.03-1.794-.03-1.795-.02-1.794-.03-1.795-.02-1.794-.03-1.795-.02-1.795-.02-1.794-.02-1.795-.02-1.794-.02-1.794-.02-1.796-.01-1.794-.02-1.794-.01-1.796-.02-1.794-.01-1.794-.01-1.794-.01h-1.795l-1.796-.01-1.794-.01h-10.769l-1.795.01-1.795.01h-1.796l-2.408.01-2.409.02-2.408.01-2.409.02-2.409.01-2.409.02-2.409.01-2.409.02-2.408.02-2.409.02-2.409.02-2.409.02-2.407.02-2.409.03-2.409.02-2.408.02-2.408.03-2.409.03-2.408.02-2.408.03-2.409.03-2.408.03-2.408.03-2.408.03-2.408.04-2.408.03-2.408.04-2.408.03-2.408.04-2.408.04-2.408.04-2.407.04-2.409.04-2.408.04-2.407.04-2.408.04-2.407.05-2.408.05-2.408.04-2.408.05-2.407.05-2.407.05-2.408.05-2.408.05-2.407.06-2.408.05-2.407.05-2.408.06-2.407.06-2.407.06-2.407.06-2.408.06-2.407.06-2.407.06-2.407.06-2.408.07-2.407.06-2.407.07-2.407.07-2.407.07-2.407.07-2.408.07-2.406.07-2.412.08-.518.01-.762.03-.988.02-1.198.03-1.39.04-1.566.04-1.727.04-1.87.04-1.998.05-2.108.04-2.2.05-2.277.04-2.338.05-1.186.02-1.195.02-1.203.02-1.205.01-1.209.02-1.209.02-1.208.01-1.204.02-1.199.01-1.191.01-1.18.01-1.169.01h-1.157l-1.139.01H245.139l-1.029-.01h-1.003l-.974-.02-.939-.01-.462-.01h-.448l-.439-.01-.434-.01-.428-.01-.415-.01-.402-.01-.396-.02-.386-.01-.376-.01-.371-.02-.356-.01-.342-.02-.336-.02-.331-.02-.317-.02-.313-.02-.298-.02-.29-.03-.289-.02-.276-.03-.279-.03-.26-.04-.155-.02-.139-.02-.142-.02-.144-.03-.128-.02-.151-.03-.157-.03-.166-.04-.174-.04-.189-.05-.233-.07-.198-.07-.259-.09-.321-.14-.305-.14-.399-.22-.238-.16-.444-.32-.02-.02-.512-.46-.201-.21-.323-.39-.246-.35-.19-.31-.151-.27-.121-.24-.1-.22-.078-.19-.066-.17-.062-.18-.051-.15-.045-.14-.042-.14-.041-.15-.062-.23-.056-.24-.051-.23-.047-.23-.042-.22-.041-.23-.038-.23-.036-.23-.035-.24-.035-.24-.033-.24-.032-.25-.032-.26-.032-.26-.03-.27-.031-.28-.03-.28-.029-.28-.029-.29-.029-.3-.029-.31-.028-.31-.029-.32-.055-.64-.054-.68-.054-.69-.053-.71-.051-.73-.051-.75-.051-.77-.049-.78-.048-.79-.048-.81-.046-.82-.046-.82-.045-.84-.044-.84-.042-.85-.042-.86-.041-.85-.04-.86-.039-.86-.038-.86-.036-.85-.036-.85-.034-.85-.034-.84-.032-.83-.031-.82-.029-.81-.029-.8-.027-.78-.026-.77-.025-.76-.023-.73-.022-.72-.02-.69-.019-.67-.018-.65-.016-.63-.015-.59-.013-.58-.012-.54-.01-.51-.009-.48-.007-.45-.006-.42-.003-.39-.002-.35-.001-.32.002-.3.004-.25.02-.88.017-.85.016-.86.014-.86.013-.85.011-.86.01-.86.009-.86.007-.85.006-.86.005-.86.003-.86.002-.85v-1.72l-.002-.86-.003-.86-.004-.86-.005-.85-.007-.86-.008-.86-.008-.86-.01-.86-.011-.86-.012-.86-.013-.86-.014-.86-.014-.86-.016-.86-.017-.86-.018-.86-.018-.86-.02-.86-.02-.86-.021-.86-.022-.86-.023-.86-.023-.86-.049-1.72-.052-1.72-.054-1.73-.057-1.72-.059-1.72-.062-1.73-.063-1.72-.065-1.73-.066-1.73-.068-1.72-.069-1.73-.07-1.73-.071-1.73-.145-3.46-.145-3.46-.146-3.46-.144-3.47-.072-1.73-.07-1.74-.069-1.73-.069-1.74-.066-1.74-.066-1.74-.063-1.73-.062-1.74-.059-1.74-.058-1.74-.054-1.75-.053-1.74-.049-1.74-.024-.87-.022-.88-.023-.87-.021-.87-.02-.87-.02-.87-.018-.88-.018-.87-.017-.87-.016-.88-.015-.87-.014-.88-.013-.87-.012-.87-.011-.88-.01-.87-.008-.88-.008-.87-.006-.88-.006-.87-.004-.88-.003-.88-.001-.83-.001-.83.001-.83.002-.83.003-.83.005-.83.005-.83.006-.83.008-.83.009-.82.009-.83.011-.83.012-.83.013-.83.013-.83.015-.83.015-.83.017-.82.017-.83.018-.83.019-.83.02-.83.021-.82.022-.83.022-.83.023-.82.049-1.66.051-1.65.054-1.65.056-1.65.059-1.66.061-1.65.064-1.65.065-1.65.067-1.65.069-1.65.07-1.64.071-1.65.073-1.65.074-1.64.075-1.65.152-3.29.154-3.29.31-6.57.154-3.28.076-1.64.075-1.64.074-1.64.073-1.64.072-1.64.07-1.64.069-1.63.068-1.64.065-1.64.064-1.64.062-1.63.059-1.64.057-1.63.055-1.64.052-1.63.049-1.63.024-.82.022-.81.022-.82.022-.82.02-.81.02-.82.018-.81.018-.82.018-.82.016-.81.015-.82.014-.81.014-.82.012-.81.012-.82.01-.81.01-.82.008-.81.008-.82.006-.81.006-.88.004-.88.003-.89.001-.88v-.88l-.001-.89-.002-.88-.004-.88-.005-.88-.006-.89-.008-.88-.009-.88-.009-.89-.011-.88-.013-.89-.013-.88-.014-.88-.015-.89-.017-.88-.017-.89-.019-.88-.019-.89-.02-.88-.022-.89-.022-.88-.023-.89-.024-.88-.025-.89-.025-.88-.027-.89-.027-.89-.028-.88-.058-1.77-.061-1.78-.063-1.77-.066-1.78-.068-1.77-.07-1.78-.072-1.77-.074-1.78-.076-1.78-.076-1.77-.078-1.78-.079-1.78-.16-3.56-.162-3.56-.163-3.57-.162-3.56-.08-1.79-.08-1.78-.078-1.79-.077-1.78-.076-1.79-.075-1.79-.073-1.79-.071-1.78-.069-1.79-.067-1.79-.065-1.79-.062-1.8-.059-1.79-.029-.89-.028-.9-.027-.9-.026-.89-.026-.9-.024-.9-.024-.9-.023-.89-.022-.9-.021-.9-.02-.9-.019-.89-.018-.9-.017-.9-.016-.9-.015-.9-.014-.9-.013-.9-.012-.9-.01-.9-.01-.9-.008-.9-.007-.9-.006-.9-.004-.9-.003-.9-.002-.9-.001-.9.001-.9.003-.9.003-.93.005-.94.005-.93.006-.93.008-.93.008-.93.009-.94.01-.93.011-.93.011-.93.013-.93.013-.93.014-.93.015-.93.016-.93.016-.94.035-1.86.039-1.86.04-1.86.044-1.86.046-1.86.049-1.86.051-1.86.054-1.86.056-1.86.058-1.86.06-1.86.061-1.86.064-1.86.065-1.86.067-1.85.068-1.86.07-1.86.071-1.86.072-1.85.073-1.86.075-1.86.075-1.85.152-3.71.155-3.71.156-3.71.314-7.41.156-3.7.153-3.71.076-1.85.076-1.85.074-1.85.074-1.85.072-1.85.071-1.84.07-1.85.069-1.85.067-1.85.066-1.85.063-1.84.063-1.85.06-1.84.058-1.85.057-1.85.054-1.84.051-1.85.05-1.84.047-1.84.044-1.84.019-.84.018-.84.016-.84.014-.84.014-.83.012-.84.011-.84.009-.84.009-.84.007-.84.006-.84.005-.83.004-.84.002-.84.002-.84v-1.68l-.002-.84-.002-.84-.003-.84-.005-.84-.005-.85-.006-.84-.007-.84-.007-.84-.008-.84-.019-1.69-.022-1.68-.025-1.69-.026-1.68-.029-1.69-.031-1.69-.032-1.69-.034-1.68-.035-1.7-.037-1.68-.037-1.7-.076-3.38-.077-3.39-.076-3.39-.037-1.7-.036-1.7-.035-1.69-.034-1.7-.032-1.7-.031-1.7-.028-1.7-.027-1.71-.023-1.7-.022-1.7-.018-1.71-.008-.85-.008-.85-.006-.86-.006-.85-.005-.85-.004-.85-.003-.86-.002-.85-.001-.86v-.85l.001-.86.003-.85.003-.86.004-.85.006-.86.006-.85.008-.86.009-.85.011-.86.011-.86.013-.85.015-.86.016-.85.017-.86.018-.86.02-.86.022-.86.023-.85.024-.86.026-.86.028-.86.03-.86.031-.85.032-.86.035-.86.036-.86.038-.86.039-.86.042-.86.043-.86.046-.86.047-.86.049-.86.051-.86.053-.87.055-.85.602-2.26 1.423-1.86 2.025-1.18 2.321-.31 2.262.61 1.616 1.23 1.161-.08 1.197-.08 1.196-.08 1.197-.08 1.196-.08 1.196-.07 1.195-.08 1.198-.07 1.197-.08 1.196-.07 1.196-.07 1.197-.07 1.197-.07 1.197-.07 1.196-.07 1.197-.07 1.197-.06 1.198-.07 1.197-.06 1.197-.06 1.197-.06 1.197-.06 1.198-.06 1.197-.06 1.198-.06 1.197-.05 1.198-.06 1.198-.05 1.198-.06 1.197-.05 1.198-.05 1.197-.05 1.198-.05 1.199-.05 1.197-.05 1.198-.04 1.199-.05 1.198-.05 1.198-.04 1.197-.04 1.2-.05 1.198-.04 1.197-.04 1.199-.04 1.198-.04 1.199-.03 1.199-.04 1.198-.04 1.198-.03 1.199-.04 1.198-.03 1.199-.04 1.2-.03 1.198-.03 1.199-.03 1.198-.03 1.199-.03 1.199-.03 1.198-.03 1.2-.02 1.199-.03 1.199-.03 2.397-.05 2.399-.04 2.398-.04 2.398-.04 2.398-.04 2.398-.03 2.399-.04 2.398-.03 2.399-.02 2.399-.03 2.398-.02 2.398-.02 2.399-.01 2.399-.02 2.399-.01 2.399-.01 2.398-.01h2.399l2.399-.01h7.195l2.399.01h2.398l2.399.01 2.398.01 2.399.01 2.398.02 2.398.01 2.398.02 2.398.02 2.398.01 2.398.02 2.397.03 2.398.02 2.398.02 2.397.03 2.398.03 2.397.02 2.396.03 2.397.03 2.396.03 2.397.03 2.397.04 2.396.03 2.397.03 4.79.07 4.791.08 4.789.07 4.789.08 4.788.07 9.572.16 9.569.16 4.782.08 4.781.07 4.78.08 4.779.07 4.777.07 4.776.07 2.387.03 2.386.04 2.387.03 2.386.03 2.386.03 2.385.03 2.384.02 2.385.03 2.385.03 2.383.02 2.383.02 2.382.02 2.382.02 2.383.02 2.381.02 2.381.01 2.38.02 2.38.01 2.38.01 2.377.01h1.536l1.536.01h1.536l1.536-.01h1.535l1.536-.01h1.535l1.536-.01 1.537-.02 1.536-.01 1.537-.01 1.536-.02 1.536-.02 1.538-.02 1.536-.02 1.537-.03 1.537-.02 1.538-.03 1.537-.03 1.537-.03 1.538-.03 1.537-.04 1.539-.03 1.538-.04 1.537-.04 1.538-.03 1.538-.04 1.54-.05 1.538-.04 1.539-.04 1.538-.05 1.539-.04 1.539-.05 1.539-.05 1.54-.05 1.539-.05 1.539-.05 1.54-.05 1.54-.05 1.541-.06 1.539-.05 1.539-.06 3.082-.11 3.081-.12 3.082-.11 3.082-.12 3.083-.13 3.083-.12 3.084-.13 3.085-.12 3.085-.13 6.172-.26 6.173-.26 3.088-.13 3.088-.12 3.09-.13 3.089-.13 3.089-.12 3.092-.12 3.091-.12 3.092-.12 3.091-.11 1.547-.06 1.547-.06 1.547-.05 1.546-.06 1.548-.05 1.547-.05 1.547-.05 1.547-.06 1.549-.04 1.548-.05 1.547-.05 1.548-.05 1.548-.04 1.549-.05 1.549-.04 1.548-.04 1.549-.04 1.55-.04 1.549-.04 1.548-.03 1.551-.04 1.55-.03 1.549-.04 1.55-.03 1.551-.03 1.55-.02 1.55-.03 1.551-.02 1.551-.03 1.551-.02 1.551-.02 1.552-.02 1.551-.01 1.551-.02 1.553-.01 1.552-.01 1.552-.01h1.552l1.552-.01h4.659l2.329.01 2.328.01 2.329.01 2.329.01 2.328.02 2.328.02 2.328.02 2.328.03 2.328.02 2.327.03 2.328.04 2.327.03 2.328.04 2.326.04 2.327.04 2.327.04 2.326.05 2.327.05 2.326.05 2.326.05 2.327.06 2.326.06 2.325.05 2.326.06 2.325.07 2.326.06 2.325.07 2.32.06 2.33.07 2.33.07 2.32.08 2.32.07 2.33.08 2.32.07 2.33.08 2.32.08 2.32.08 2.33.08 2.32.09 2.33.08 2.32.09 2.32.08 2.32.09 2.33.09 2.32.09 2.32.09 2.33.09 2.32.09 4.64.19 4.64.19 4.65.19 4.64.19 4.64.19 4.65.2 9.28.39 9.28.39 4.64.2 4.64.19 4.63.19 4.64.19 4.64.19 4.63.19 2.32.09 2.32.09 2.32.09 2.32.09 2.32.09 2.31.09 2.32.09 2.32.08 2.31.09 2.32.08 2.32.08 2.31.08 2.32.08 2.32.08 2.31.08 2.32.07 2.32.08 2.31.07 2.32.07 2.32.07 2.31.07 2.32.07 2.31.06 2.32.06 2.31.06 2.32.06 2.31.06 2.32.06 2.31.05 2.32.05 2.31.05 2.32.05 2.31.04 2.32.05 2.31.04 2.31.03 2.32.04 2.31.03 2.32.04 2.31.02 2.31.03 2.32.02 2.31.03 2.31.01 2.32.02 2.31.01 2.31.01 2.32.01h3.08l1.03-.01h1.03l1.02-.01h1.03l1.03-.01 1.03-.01 1.03-.02 1.03-.01 1.02-.01 1.03-.02 1.03-.02 1.03-.02 1.03-.02 1.03-.02 1.03-.02 1.03-.03 1.03-.02 1.03-.03 1.02-.03 1.03-.03 1.03-.03 1.03-.03 1.03-.03 1.03-.04 1.03-.03 1.03-.04 1.03-.03 1.03-.04 1.03-.04 1.04-.04 1.03-.04 1.03-.04 1.03-.04 1.03-.05 1.03-.04 1.03-.05 1.03-.04 1.03-.05 1.03-.05 2.07-.1 2.06-.1 2.06-.1 2.07-.11 2.06-.1 2.07-.12 2.06-.11 2.07-.11 2.07-.12 2.06-.11 2.07-.12 2.07-.12 2.06-.12 4.14-.25 4.14-.24 4.14-.25 4.15-.25 2.07-.12 2.07-.12 2.08-.12 2.07-.12 2.08-.11 2.07-.12 2.08-.12 2.08-.11 2.07-.11 2.08-.11 2.08-.1 2.08-.11 2.08-.1 2.08-.1 1.04-.05 1.04-.04 1.04-.05 1.04-.05 1.04-.04 1.04-.04 1.04-.05 1.04-.04 1.04-.04 1.05-.04 1.04-.04 1.04-.04 1.04-.04 1.05-.03 1.04-.04 1.04-.03 1.6-.06 1.59-.05 1.6-.04 1.59-.05 1.6-.05 1.6-.05 1.59-.04 1.6-.05 1.6-.04 1.6-.04 1.59-.04 1.6-.04 1.6-.04 1.6-.04 1.6-.03 1.6-.04 1.6-.03 1.59-.03 1.6-.03 1.6-.03 1.6-.03 1.6-.03 1.6-.02 1.6-.02 1.61-.02 1.6-.02 1.6-.02 1.6-.02 1.6-.01 1.6-.01 1.6-.02 1.6-.01h1.6l1.61-.01h6.4zm-493.265 10.22h-1.537l-1.537.01h-1.538l-1.538.01-1.537.01-1.536.01-1.538.02-1.537.01-1.537.02-1.538.02-1.539.02-1.537.02-1.537.03-1.539.02-1.538.03-1.538.03-1.538.03-1.54.03-1.538.04-1.538.03-1.539.04-1.539.04-1.539.03-1.539.04-1.539.05-1.539.04-1.539.04-1.54.05-1.54.04-1.54.05-1.54.05-1.539.05-1.54.05-1.541.05-1.539.05-1.54.06-1.541.05-1.541.06-1.54.05-1.54.06-3.083.11-3.082.12-3.083.12-3.083.12-3.084.12-3.084.13-3.084.13-3.085.12-3.086.13-6.172.26-6.174.26-3.088.12-3.088.13-3.089.13-3.089.12-3.091.12-3.09.13-3.091.11-3.091.12-3.091.12-1.547.05-1.547.05-1.546.06-1.546.05-1.547.05-1.547.06-1.547.05-1.547.05-1.547.05-1.547.04-1.548.05-1.548.04-1.548.05-1.548.04-1.547.04-1.548.04-1.549.04-1.549.04-1.549.04-1.548.03-1.549.03-1.549.04-1.549.03-1.55.03-1.549.02-1.549.03-1.55.02-1.551.03-1.549.02-1.55.02-1.551.01-1.55.02-1.551.01-1.55.02-1.551.01h-1.551l-1.551.01h-1.553l-1.551.01h-1.551l-1.551-.01h-1.552l-2.389-.01-2.387-.01-2.388-.01-2.389-.02-2.388-.01-2.389-.02-2.388-.02-2.39-.02-2.39-.02-2.389-.02-2.39-.03-2.39-.02-2.389-.03-2.391-.02-2.391-.03-2.391-.03-2.39-.03-2.391-.03-2.391-.04-2.392-.03-4.782-.07-4.783-.07-4.784-.07-4.784-.08-4.784-.07-4.785-.08-9.57-.16-9.57-.16-4.786-.07-4.785-.08-4.785-.07-4.785-.08-4.785-.07-2.392-.03-2.392-.03-2.392-.04-2.392-.03-2.392-.03-2.392-.03-2.392-.03-2.392-.02-2.392-.03-2.391-.03-2.391-.02-2.391-.02-2.392-.03-2.391-.02-2.391-.02-2.39-.01-2.391-.02-2.391-.01-2.389-.02-2.39-.01-2.39-.01-2.389-.01h-2.39l-2.39-.01H355.837l-2.388.01h-2.388l-2.388.01-2.388.01-2.388.01-2.386.01-2.387.02-2.387.02-2.386.02-2.386.03-2.386.02-2.386.03-2.384.03-2.385.04-2.385.03-2.384.04-2.384.05-2.383.04-2.384.05-1.192.03-1.191.02-1.19.03-1.192.03-1.191.03-1.191.02-1.191.03-1.191.04-1.191.03-1.19.03-1.19.03-1.191.04-1.19.03-1.191.04-1.191.03-1.189.04-1.189.04-1.191.03-1.189.04-1.19.05-1.191.04-1.187.04-1.19.04-1.19.05-1.189.04-1.189.05-1.188.04-1.19.05-1.188.05-1.189.05-1.189.05-1.188.05-1.189.05-1.188.06-1.187.05-1.188.05-1.188.06-1.188.06-1.187.05-1.188.06-1.187.06-1.188.06-1.187.07-1.187.06-1.186.06-1.187.07-1.187.06-1.186.07-1.187.07-1.185.07-1.187.07-1.186.07-1.187.07-1.185.07-1.184.08-1.186.07-1.186.08-1.186.08-1.185.07-1.184.08-1.184.08-.665.05-.005.11-.037.83-.035.84-.034.83-.032.84-.03.84-.028.83-.027.84-.026.83-.024.84-.022.84-.021.83-.02.84-.018.84-.017.84-.015.83-.014.84-.013.84-.011.84-.01.83-.009.84-.008.84-.007.84-.005.84-.004.84-.003.84-.003.84-.001.84v.84l.001.84.002.84.003.84.004.84.005.84.005.84.007.84.007.84.008.84.018 1.69.021 1.68.024 1.69.026 1.68.029 1.69.03 1.69.032 1.68.034 1.69.035 1.69.036 1.69.037 1.69.075 3.39.077 3.39.076 3.39.038 1.69.036 1.7.035 1.7.035 1.7.032 1.7.031 1.7.029 1.7.027 1.7.025 1.71.022 1.7.019 1.7.008.86.008.85.007.85.006.86.005.85.005.85.003.86.002.85.002.85v1.71l-.002.86-.003.85-.003.86-.005.85-.006.86-.008.85-.008.86-.01.86-.011.85-.013.86-.013.86-.015.85-.017.86-.018.86-.019.85-.045 1.87-.047 1.86-.05 1.85-.052 1.86-.055 1.86-.057 1.86-.058 1.86-.061 1.86-.063 1.86-.064 1.85-.066 1.86-.067 1.86-.069 1.86-.071 1.85-.071 1.86-.073 1.86-.073 1.85-.075 1.86-.076 1.85-.076 1.86-.154 3.71-.156 3.71-.313 7.41-.156 3.7-.155 3.71-.152 3.7-.075 1.85-.074 1.85-.073 1.85-.072 1.85-.071 1.85-.069 1.84-.068 1.85-.066 1.85-.065 1.85-.064 1.84-.061 1.85-.059 1.85-.058 1.84-.055 1.85-.053 1.85-.051 1.84-.048 1.84-.046 1.85-.044 1.84-.04 1.85-.038 1.84-.035 1.84-.016.92-.016.92-.014.92-.014.93-.013.92-.013.92-.011.92-.011.92-.01.92-.009.92-.008.92-.007.92-.006.92-.006.92-.004.92-.003.92-.003.88-.001.88.001.88.002.89.003.88.004.89.006.88.007.88.008.89.009.88.01.88.012.89.012.88.014.89.015.88.016.89.016.88.018.89.019.88.02.89.021.88.021.89.023.88.023.89.025.88.025.89.026.89.027.88.027.89.028.88.059 1.78.062 1.77.064 1.78.066 1.77.069 1.78.07 1.77.073 1.78.074 1.77.076 1.78.077 1.78.078 1.78.079 1.78.08 1.78.161 3.56.163 3.56.162 3.57.161 3.56.079 1.79.078 1.79.077 1.78.076 1.79.074 1.79.073 1.78.071 1.79.068 1.79.067 1.79.064 1.79.061 1.79.059 1.79.028.9.028.9.027.89.025.9.026.9.024.89.023.9.023.9.021.9.021.89.02.9.018.9.018.9.017.9.015.89.015.9.013.9.013.9.011.9.01.9.009.9.007.9.007.9.005.9.003.9.003.9.001.9v.9l-.001.9-.003.9-.005.91-.005.9-.007.83-.007.83-.009.83-.01.83-.01.83-.012.82-.013.83-.013.83-.015.83-.016.83-.016.83-.017.83-.019.83-.019.82-.02.83-.02.83-.022.83-.022.82-.023.83-.024.83-.05 1.65-.053 1.66-.055 1.65-.057 1.65-.06 1.65-.063 1.65-.064 1.66-.066 1.65-.068 1.64-.07 1.65-.07 1.65-.073 1.65-.073 1.65-.075 1.64-.075 1.65-.076 1.64-.154 3.29-.31 6.57-.154 3.29-.151 3.28-.075 1.64-.074 1.64-.072 1.64-.071 1.63-.07 1.64-.068 1.64-.067 1.63-.065 1.64-.062 1.64-.061 1.63-.058 1.63-.056 1.64-.053 1.63-.051 1.63-.048 1.64-.023.81-.022.82-.021.81-.02.82-.02.82-.019.81-.018.82-.017.81-.016.82-.015.81-.015.82-.013.81-.012.81-.012.82-.011.81-.009.82-.009.81-.007.82-.006.81-.006.81-.004.82-.003.81-.002.81-.001.82.001.81.001.81.003.86.004.86.005.86.007.86.007.86.009.86.009.86.011.86.012.86.013.86.013.86.015.86.016.86.016.86.018.86.018.86.02.86.02.86.021.86.022.87.022.86.023.86.049 1.72.052 1.73.054 1.72.057 1.72.059 1.73.061 1.72.063 1.73.065 1.73.066 1.72.068 1.73.069 1.73.07 1.73.071 1.73.145 3.46.145 3.46.146 3.46.144 3.47.072 1.73.07 1.74.07 1.73.068 1.74.067 1.73.065 1.74.064 1.74.061 1.74.06 1.74.057 1.74.055 1.74.053 1.74.049 1.74.024.87.023.87.022.87.022.88.02.87.02.87.019.87.018.87.017.88.016.87.015.87.014.88.013.87.012.87.011.88.01.87.009.87.008.88.006.87.006.88.004.87.003.88.002.87v1.75l-.002.88-.004.88-.004.87-.006.88-.008.88-.008.87-.011.88-.011.88-.013.87-.015.88-.016.88-.018.88-.019.85-.002.16-.002.19.001.25.001.3.004.34.005.38.006.43.008.45.01.49.012.53.012.55.015.58.016.61.017.63.019.66.02.68.021.71.023.72.024.74.026.76.027.77.028.78.029.8.03.81.032.82.033.83.034.83.035.84.036.84.037.84.038.85.04.84.04.84.041.84.042.83.043.83.043.82.045.8.045.8.046.78.047.77.048.75.048.74.049.72.049.69.05.68.05.65.051.62.051.6.025.29.014.14.246.01.362.01.377.01.385.01.393.01.406.01.421.01.43.01h.434l.906.02.939.01h.971l1.004.01h4.269l1.121-.01h1.137l1.153-.01 1.168-.01 1.177-.01 1.186-.01 1.192-.02 1.196-.01 1.2-.02 1.198-.02 1.198-.01 1.192-.02 1.186-.02 1.178-.02 2.323-.04 2.264-.05 2.188-.04 2.096-.05 1.986-.04 1.861-.05 1.717-.04 1.558-.04 1.381-.03 1.186-.03.976-.03.748-.02.505-.02 2.408-.07 2.413-.07 2.412-.07 2.413-.08 2.413-.06 2.412-.07 2.413-.07 2.413-.07 2.413-.06 2.412-.07 2.413-.06 2.413-.06 2.413-.06 2.412-.06 2.413-.06 2.413-.06 2.413-.05 2.412-.06 2.413-.05 2.413-.05 2.412-.06 2.413-.05 2.413-.05 2.413-.05 2.412-.04 2.413-.05 2.413-.05 2.413-.04 2.413-.05 2.412-.04 2.413-.04 2.412-.04 2.413-.04 2.413-.04 2.413-.04 2.413-.04 2.413-.03 2.412-.04 2.413-.03 2.413-.03 2.413-.04 2.412-.03 2.413-.03 2.413-.03 2.413-.02 2.413-.03 2.413-.03 2.412-.02 2.414-.03 2.412-.02 2.413-.03 2.413-.02 2.413-.02 2.413-.02 2.413-.02 2.413-.02 2.413-.02 2.412-.01 2.414-.02 2.412-.01 2.413-.02 2.414-.01 2.413-.02 2.414-.01h1.804l1.805-.01 1.804-.01h10.826l1.804.01 1.802.01h1.803l1.804.01 1.804.01 1.803.02 1.802.01 1.802.01 1.803.02 1.801.01 1.803.02 1.802.02 1.802.02 1.802.02 1.801.02 1.801.02 1.801.03 1.802.02 1.801.03 1.801.02 1.8.03 1.801.03 1.8.03 1.8.03 1.8.03 1.801.03 1.8.03 1.8.04 1.8.03 3.598.07 3.599.08 3.598.07 3.598.08 3.597.08 3.597.09 3.597.08 3.596.09 3.596.08 3.595.09 3.595.09 3.595.1 3.594.09 7.188.19 7.187.19 7.186.19 7.185.18 3.592.1 3.592.09 3.591.09 3.592.09 3.591.09 3.591.09 3.592.09 3.591.08 3.591.08 3.591.08 3.59.08 3.591.08 3.59.07 3.591.07 1.795.04 1.796.03 1.794.03 1.795.03 1.796.03 1.795.04 1.796.02 1.795.03 1.794.03 1.796.03 1.796.02 1.795.03 1.795.02 1.795.02 1.795.03 1.796.02 1.795.02 1.796.01 1.795.02 1.795.02 6.058.05 6.059.05 6.059.04 6.059.05 6.06.04 6.06.04 6.06.03 6.061.04 6.061.03 6.061.03 6.062.03 6.062.02 6.063.02 6.062.02 6.063.02 6.063.01 6.063.02 6.064.01h6.064l6.063.01h18.198l6.06-.01h6.06l6.07-.01 6.06-.01 6.07-.02 6.06-.01 6.07-.02 6.06-.02 6.07-.02 6.06-.02 6.07-.03 6.06-.03 6.07-.03 6.06-.04 6.07-.03 6.06-.04 6.07-.04 6.06-.04 6.06-.05 6.07-.04 6.06-.05 6.07-.05 6.06-.05 6.07-.06 6.06-.05 6.06-.07 6.06-.06 6.07-.06 6.06-.06 6.06-.07 6.06-.07 6.06-.07 6.07-.08 6.06-.07 6.06-.08 6.06-.08 6.06-.08 6.06-.08 6.05-.09 6.06-.09 6.06-.08 5.74-.09 5.73-.09 11.48-.17 11.47-.18 5.74-.09 5.74-.08 5.73-.09 5.74-.08 5.74-.08 2.87-.03 2.87-.04 2.87-.04 2.87-.03 2.87-.04 2.87-.03 2.87-.04 2.87-.03 2.87-.03 2.87-.03 2.87-.03 2.87-.02 2.87-.03 2.87-.02 2.87-.03 2.87-.02 2.87-.02 2.87-.01 2.88-.02 2.87-.01 2.87-.02 2.87-.01 2.87-.01h2.87l2.88-.01H1205.689l2.87.01 2.87.01 2.88.01 2.87.01 2.87.02 2.88.01 2.87.02 2.88.03 2.87.02 2.88.03 2.87.03 2.88.04 2.87.03 1.5.02 1.5.02 1.49.03 1.5.02 1.5.03 1.5.03 1.5.04 1.5.03.75.02.75.02.75.02.75.02.75.02.75.03.75.02.75.03.75.02.75.03.75.03.75.03.75.03.75.03.75.03.75.03.75.04.76.03.75.04.75.04.75.04.75.04.75.04.76.04.75.05.75.04.76.05.75.05.75.05.75.05.76.05.75.06.76.06.75.05.75.06.76.06.75.07.76.06.75.07.76.06.75.07.76.08.75.07.76.07.75.08.76.08.76.08.78.08.13.02.15.02.33.04.89.13.31.04.04-.2.03-.2.02-.2.03-.21.03-.21.03-.21.03-.21.02-.22.03-.21.02-.23.03-.22.02-.22.02-.23.03-.23.02-.23.02-.24.02-.24.02-.23.02-.24.02-.25.02-.24.02-.25.01-.25.02-.24.02-.25.03-.52.03-.52.02-.52.02-.53.02-.54.02-.54.02-.55.01-.56.02-.56.01-.56v-.58l.01-.58v-.58l.01-.59v-.59l-.01-.59v-.6l-.01-.61v-.61l-.01-.61-.01-.62-.02-.62-.01-.62-.02-.63-.01-.62-.02-.64-.02-.63-.02-.63-.02-.64-.03-.64-.02-.65-.03-.64-.03-.64-.03-.65-.03-.65-.03-.65-.03-.65-.03-.65-.04-.65-.03-.65-.04-.65-.07-1.31-.08-1.3-.07-1.3-.09-1.29-.08-1.3-.08-1.28-.09-1.28-.08-1.27-.17-2.51-.16-2.46-.16-2.4-.08-1.18-.08-1.16-.07-1.14-.07-1.12-.07-1.1-.06-1.07-.03-.53-.02-.53-.03-.51-.03-.51-.02-.51-.02-.5-.03-.49-.02-.49-.02-.47-.01-.48-.02-.46-.01-.46-.02-.45-.01-.44-.01-.44v-.43l-.01-.42v-1.22l.01-2.6.02-2.59.01-2.59.02-2.6.02-2.59.03-2.59.02-2.59.02-2.6.03-2.59.02-2.59.03-2.59.03-2.59.03-2.59.03-2.6.03-2.59.03-2.59.07-5.18.06-5.18.07-5.18.07-5.18.08-5.18.07-5.18.15-10.36.07-5.18.07-5.17.07-5.18.06-5.17.07-5.18.03-2.59.03-2.59.03-2.58.03-2.59.03-2.59.02-2.58.03-2.59.02-2.59.03-2.58.02-2.59.02-2.59.02-2.58.02-2.59.01-2.58.02-2.59.01-2.59.02-2.58.01-2.58v-2.59l.01-2.58.01-2.59v-4.47l.01-.94v-1.89l.01-.94.01-.94.01-.94v-.95l.01-.94.01-.94.02-.94.01-.94.01-.94.01-.94.02-.95.03-1.88.03-1.88.04-1.88.04-1.88.04-1.88.05-1.88.04-1.88.05-1.88.05-1.87.05-1.88.05-1.88.06-1.87.06-1.88.05-1.88.06-1.87.06-1.88.12-3.74.12-3.75.25-7.49.12-3.74.06-1.87.06-1.87.06-1.87.05-1.87.06-1.87.05-1.86.06-1.87.05-1.87.05-1.86.05-1.87.04-1.86.04-1.87.05-1.86.03-1.87.04-1.86.03-1.86.03-1.87.02-.93.01-.93.01-.93.02-.93.01-.93.01-.93.01-.93.01-.93v-.93l.01-.93.01-.93v-.93l.01-.93v-6.51l-.01-.93v-.93l-.01-.92-.01-.93-.01-.93-.01-.93-.01-1.04-.01-1.04-.02-1.04-.01-1.04-.02-1.04-.02-1.04-.01-1.04-.02-1.04-.02-1.05-.03-1.04-.02-1.04-.02-1.04-.03-1.04-.02-1.04-.03-1.04-.02-1.04-.03-1.04-.03-1.04-.03-1.05-.03-1.04-.06-2.08-.06-2.08-.07-2.09-.07-2.08-.07-2.09-.08-2.08-.07-2.09-.08-2.08-.08-2.09-.09-2.08-.08-2.09-.08-2.09-.09-2.08-.09-2.09-.09-2.09-.09-2.09-.18-4.18-.36-8.36-.18-4.18-.18-4.19-.09-2.09-.09-2.09-.09-2.1-.08-2.09-.09-2.1-.08-2.09-.08-2.1-.08-2.09-.08-2.1-.08-2.1-.07-2.1-.07-2.09-.07-2.1-.06-2.1-.07-2.1-.03-1.05-.03-1.05-.03-1.05-.02-1.05-.03-1.05-.03-1.05-.02-1.06-.03-1.05-.02-1.05-.03-1.05-.02-1.05-.02-1.05-.02-1.05-.02-1.06-.02-1.05-.01-1.05-.02-1.05-.01-1.05-.02-1.06-.01-1.05-.01-1.05-.01-1.06-.01-1.05-.01-1.05-.01-1.05-.01-1.06v-1.38l.01-.71.01-.71.01-.72.01-.72.01-.74.02-.74.02-.75.03-.76.02-.76.03-.78.03-.77.03-.79.04-.79.04-.8.04-.81.04-.81.04-.82.04-.82.05-.83.05-.84.05-.84.05-.85.05-.85.05-.86.06-.86.06-.87.05-.87.06-.88.12-1.77.13-1.78.12-1.81.13-1.81.14-1.83.27-3.69.27-3.73.13-1.88.14-1.88.13-1.89.13-1.89.06-.95.07-.95.06-.94.06-.95.06-.95.06-.94.06-.95.06-.94.05-.95.06-.94.06-.94.05-.94.05-.95.05-.93.05-.94.04-.93.05-.94.04-.93.04-.92.04-.93.04-.92.04-.92.03-.92.03-.91.03-.91.02-.91.03-.9.02-.9.02-.89.02-.89.01-.89.02-.88v-.87l.01-.87v-.87l.01-.86-.01-.43v-1.28l-.01-.42v-.42l-.01-.42v-.42l-.01-.41-.01-.42v-.41l-.01-.41-.02-.41-.01-.41-.01-.41-.01-.4-.01-.41-.02-.4-.01-.4-.02-.39-.02-.4-.01-.39-.02-.4-.02-.39-.02-.38-.02-.39-.03-.38-.02-.39-.02-.38-.03-.38-.03-.37-.02-.37-.03-.38-.03-.37-.03-.36-.03-.37-.03-.36-.03-.36-.04-.36-.03-.36-.04-.35-.03-.35-.04-.35-.04-.35-.04-.34-.04-.34-.04-.34-.04-.34-.05-.33-.04-.33-.05-.33-.04-.33-.05-.32-.05-.32-.05-.32-.05-.31-.05-.32-.06-.31-.04-.24-.3-.02-.44-.03-.44-.03-.44-.03-.44-.03-.42-.02-.42-.03-.79-.04-.72-.04-.61-.03-.48-.03-.21-.01-.18-.01-.62-.05-.59-.04-1.19-.09-1.18-.08-1.19-.08-1.18-.07-1.19-.08-1.19-.06-1.18-.07-1.19-.07-1.19-.06-1.19-.06-1.18-.06-1.2-.06-1.19-.06-1.19-.05-1.2-.05-1.58-.07-1.58-.06-1.58-.06-1.58-.05-1.59-.06-1.58-.05-1.58-.05-1.58-.05-1.59-.04-1.58-.04-1.58-.04-1.59-.04-1.58-.03-1.59-.03-1.58-.03-1.58-.03-1.59-.02-1.59-.02-1.58-.02-1.59-.02-1.58-.02-1.59-.01-1.59-.01-1.58-.01-1.59-.01h-7.93l-1.59.01h-1.59l-1.58.01-1.59.01-1.59.02-1.59.01-1.59.02-1.58.01-1.59.03-1.59.02-1.59.02-1.59.02-1.59.03-1.58.03-1.59.02-1.59.03-1.59.04-1.59.03-1.59.03-1.59.04-1.59.04-1.58.03-1.59.04-1.59.04-1.59.05-1.59.04-1.59.04-1.59.05-1.59.04-1.59.05-1.59.05-1.58.05-1.59.05-1.59.05-1.03.03-1.03.04-1.03.03-1.03.04-1.03.04-1.03.04-1.03.04-1.03.04-1.04.04-1.03.04-1.03.05-1.03.04-1.03.05-1.03.04-1.03.05-1.03.05-2.07.1-2.06.1-2.06.1-2.07.11-2.06.1-2.07.11-2.06.12-2.07.11-2.07.12-2.07.11-2.06.12-2.07.12-2.07.12-2.07.13-4.14.24-4.14.25-4.14.24-4.14.25-2.08.12-2.07.12-2.07.12-2.08.11-2.08.12-2.07.11-2.08.12-2.07.11-2.08.11-2.08.1-2.08.11-2.08.1-2.08.1-1.04.05-1.04.04-1.04.05-1.04.05-1.04.04-1.04.04-1.04.05-1.04.04-1.05.04-1.04.04-1.04.04-1.04.04-1.04.04-1.04.03-1.05.04-1.04.03-1.04.04-1.05.03-1.04.03-1.04.03-1.05.03-1.04.02-1.04.03-1.05.02-1.04.03-1.04.02-1.05.02-1.04.02-1.05.02-1.04.01-1.05.02-1.04.01-1.05.02-1.04.01-1.05.01h-1.04l-1.05.01h-1.05l-1.04.01h-3.14l-2.33-.01-2.33-.01-2.33-.01-2.32-.02-2.33-.02-2.33-.02-2.33-.02-2.32-.03-2.33-.03-2.32-.03-2.33-.03-2.33-.04-2.32-.04-2.33-.04-2.33-.04-2.32-.04-2.33-.05-2.32-.05-2.33-.05-2.32-.06-2.33-.05-2.32-.06-2.33-.06-2.32-.06-2.33-.06-2.32-.07-2.33-.07-2.32-.06-2.32-.07-2.33-.07-2.32-.08-2.33-.07-2.32-.08-2.33-.08-2.32-.07-2.32-.09-2.33-.08-2.32-.08-2.32-.08-2.32-.09-2.33-.08-2.32-.09-2.32-.09-2.32-.09-2.33-.09-2.32-.09-2.32-.09-2.32-.09-4.65-.19-4.64-.19-4.64-.19-4.64-.19-4.65-.19-4.64-.2-9.28-.39-9.28-.39-4.64-.2-4.64-.19-4.64-.2-4.63-.18-4.64-.19-4.64-.19-2.32-.09-2.32-.09-2.31-.09-2.32-.09-2.32-.09-2.32-.09-2.32-.08-2.31-.09-2.32-.08-2.32-.08-2.32-.09-2.31-.08-2.32-.08-2.32-.07-2.31-.08-2.32-.08-2.32-.07-2.31-.07-2.32-.07-2.32-.07-2.315-.07-2.316-.06-2.316-.07-2.316-.06-2.316-.06-2.316-.06-2.316-.06-2.315-.05-2.316-.05-2.316-.05-2.315-.05-2.316-.05-2.315-.04-2.315-.04-2.316-.04-2.315-.04-2.314-.03-2.315-.04-2.315-.03-2.315-.02-2.314-.03-2.314-.02-2.315-.02-2.314-.02-2.314-.01-2.314-.01-2.315-.01-2.314-.01h-3.072z" fill="#fff"/><path d="M517.028 201.317h4.831l4.831.01 4.832.01 4.83.01 4.83.02 4.831.01 4.83.02 4.83.02 4.829.02 4.83.02 4.829.02 9.658.04 9.658.04 9.657.05 9.657.05 9.656.04 9.657.05 4.827.02 4.829.02 4.828.02 4.828.02 4.828.01 4.828.02 4.828.01 4.828.01 4.828.01 4.828.01 4.829.01 4.828.01h14.486l4.829-.01 4.829-.01 4.829-.01h2.414l2.415-.01 2.414-.01 2.415-.01 2.415-.01 2.415-.01 2.415-.01 2.414-.01 3.083-.01 3.084-.02 3.084-.02 3.083-.02 3.084-.02 3.083-.03 3.084-.02 3.084-.02 3.084-.03 3.084-.03 3.084-.03 3.085-.03 3.084-.03 3.085-.03 3.084-.03 3.085-.04 3.085-.03 3.085-.04 3.084-.04 3.085-.03 3.086-.04 3.089-.04 3.08-.04 3.09-.04 3.08-.05 3.09-.04 6.17-.09 6.17-.08 6.17-.1 6.17-.09 6.18-.1 6.17-.1 6.17-.1 6.18-.1 6.17-.1 6.17-.11 6.18-.1 12.35-.21 12.35-.21 12.35-.21 6.18-.11 6.17-.1 6.18-.1 6.17-.1 6.18-.1 6.18-.1 6.18-.1 6.17-.09 6.18-.09 6.18-.09 6.18-.09 3.09-.04 3.09-.04 3.08-.04 3.09-.04 3.09-.04 3.09-.04 3.09-.04 3.09-.04 3.09-.03 3.09-.03 3.09-.04 3.09-.03 3.09-.03 3.09-.03 3.09-.03 3.09-.03 3.09-.03 3.09-.02 3.09-.03 3.09-.02 3.09-.02 3.09-.02 3.09-.02 3.09-.02 3.09-.02 3.09-.01 3.09-.02 3.09-.01 3.09-.01 3.09-.01 3.09-.01h3.09l3.09-.01h15.45l3.09.01h3.09l3.09.01 3.09.01 3.09.01 3.09.02 3.09.01 3.09.02 2.89.02 2.9.02 2.89.02 2.89.03 2.9.03 2.89.03 2.9.03 2.89.04 2.9.03 2.89.04 2.9.05 2.89.04 2.9.05 2.89.05 2.9.05 2.9.06 2.89.06 2.9.06 2.89.06 2.9.07 2.89.07 2.9.07 2.89.08 2.9.08 2.89.08 2.9.08 2.89.09 2.9.09 2.89.09 1.44.05 1.45.05 1.45.05 1.44.05 1.45.05 1.45.05.72.02.73.03.73.03.72.03.73.03.72.03.73.03.73.03.72.04.73.03 1.45.07 1.45.07 1.45.08 1.45.07 1.44.08 1.45.09 1.45.08 1.45.09 1.45.09 1.44.09 1.39.09.15.01.45.02.63.03.36.01.37.02.37.02.36.02.36.02.33.02.17.02.18.01.16.02.2.02.21.03.19.03.25.05.4.1.25.08.92.39.01.01 1.18.81v.01l1 1.14.68 1.36.31 1.45.05.46.04.47.04.48.04.47.04.47.03.47.04.47.04.47.03.48.04.47.03.47.03.47.04.47.03.47.03.48.03.47.03.47.02.47.03.47.03.47.02.48.03.47.05.94.04.94.04.95.04.94.04.94.03.95.03.94.03.94.02.94.02.95.02.94.02.94.01.94.01.95.01.94.01.94.01.94v2.83l-.01.94v.94l-.01.94-.01.94-.01.94-.02.94-.01.94-.02.94-.02.94-.02.94-.02.94-.03.94-.02.94-.03.94-.03.94-.03.93-.03.94-.04.94-.03.94-.04.93-.03.94-.04.94-.04.94-.04.93-.04.94-.04.94-.04.93-.05.94-.04.93-.09 1.87-.1 1.87-.09 1.87-.1 1.87-.1 1.86-.1 1.87-.21 3.72-.2 3.72-.11 1.86-.1 1.85-.1 1.86-.1 1.85-.09 1.85-.1 1.86-.09 1.84-.04.93-.05.92-.04.92-.04.93-.04.92-.04.92-.04.92-.04.92-.03.92-.04.92-.03.92-.04.92-.03.92-.03.92-.03.91-.03.92-.02.92-.03.91-.02.92-.02.91-.02.92-.02.91-.02.91-.01.92-.01.91-.02.91v.91l-.01.92-.01.9v3.64l.01.91.01.94.01.95.01.94.01.94.01.95.01.95.02.94.01.94.02.95.01.95.02.94.02.95.02.94.02.95.02.94.02.95.03.94.02.95.03.95.02.94.03.95.03.94.05 1.9.06 1.89.07 1.89.06 1.9.07 1.89.06 1.9.08 1.9.07 1.89.07 1.9.08 1.9.08 1.89.08 1.9.08 1.9.08 1.9.08 1.9.16 3.8.34 7.6.16 3.81.09 1.9.08 1.91.08 1.9.08 1.91.07 1.9.08 1.91.08 1.91.07 1.9.07 1.91.07 1.91.07 1.91.06 1.91.07 1.91.06 1.91.06 1.91.02.95.03.96.03.96.02.95.03.96.02.96.02.95.03.96.02.96.02.95.02.96.02.96.01.96.02.95.02.96.01.96.01.96.02.96.01.95.01.96.01.96.01.96v.96l.01.96v.96l.01.96v3.83l-.01 1.08v1.08l-.01 1.08v1.07l-.01 1.08-.01 1.08-.01 1.08-.01 1.07-.01 1.08-.01 1.07-.01 1.08-.02 1.08-.01 1.07-.02 1.08-.02 1.08-.01 1.07-.02 1.08-.02 1.07-.02 1.08-.02 1.08-.02 1.07-.02 1.08-.05 2.15-.05 2.15-.05 2.15-.06 2.15-.06 2.14-.06 2.15-.06 2.15-.06 2.15-.07 2.14-.07 2.15-.07 2.15-.07 2.14-.08 2.15-.07 2.15-.08 2.14-.08 2.15-.08 2.14-.08 2.14-.09 2.15-.08 2.14-.08 2.14-.18 4.29-.17 4.28-.17 4.28-.18 4.29-.18 4.28-.17 4.28-.17 4.27-.09 2.14-.08 2.14-.09 2.14-.08 2.14-.08 2.14-.08 2.13-.08 2.14-.08 2.14-.07 2.13-.08 2.14-.07 2.14-.07 2.13-.07 2.14-.06 2.13-.07 2.14-.06 2.13-.06 2.14-.06 2.13-.03 1.39-.04 1.39-.03 1.39-.04 1.39-.03 1.39-.03 1.39-.03 1.39-.03 1.39-.03 1.39-.03 1.39-.03 1.39-.02 1.4-.03 1.38-.02 1.4-.05 2.78-.05 2.78-.04 2.78-.04 2.78-.04 2.79-.03 2.78-.03 2.78-.03 2.79-.03 2.78-.03 2.78-.02 2.79-.03 2.78-.02 2.79-.02 2.78-.02 2.79-.01 2.78-.02 2.79-.01 2.79-.02 2.78-.01 2.79-.01 2.78-.02 5.58-.02 5.57-.01 1.47V680.847l.01 1.47.01 1.47v1.47l.01 1.47.01 1.47.03 2.94.02 2.95.02 2.91v.02l.01.11.01.4.01.54.01.3v.31l.01.33v.8l-.01.17v.17l-.01.19-.01.22-.03.27-.04.32-.06.31-.08.35-.06.21-.24.66-.01.01-.55.99-.01.01-1.62 1.6-.64.37-1.17.44-.26.07-.27.07-.27.07-.26.06-.27.06-.27.07-.27.06-.27.06-.27.06-.28.06-.26.06-.27.05-.27.06-.27.05-.27.05-.28.05-.27.05-.28.05-.27.05-.27.05-.28.04-.27.04-.27.05-.28.04-.27.04-.28.04-.27.04-.28.04-.27.03-.29.04-.27.03-.27.04-.28.03-.28.03-.28.03-.27.03-.28.03-.28.03-.28.02-.28.03-.27.02-.28.03-.28.02-.28.02-.28.02-.27.02-.29.02-.28.02-.28.02-.28.01-.28.02-.27.01-.28.02-.28.01-.28.01-.29.01-.28.02-.29.01-.55.01-.56.02-.57.01h-.57l-.56.01H1226.189l-.56-.01-.57-.01-.56-.01-.57-.01-.57-.02-.56-.01-.57-.03-.57-.02-.56-.02-.57-.03-.57-.03-.57-.03-.57-.03-.57-.04-.56-.04-.57-.03-.57-.04-.57-.04-.56-.05-.57-.04-.57-.05-.56-.05-.57-.05-.57-.05-.56-.05-.57-.05-.56-.06-.57-.05-.56-.06-.56-.06-.57-.05-.56-.06-.56-.06-.56-.06-.57-.07-1.11-.12-1.12-.13-1.11-.13-1.11-.13-1.11-.13-1.1-.13-2.19-.26-1.09-.13-1.08-.13-1.08-.12-1.07-.13-1.07-.12-1.06-.12-1.05-.12-.53-.05-.52-.06-.52-.05-.52-.06-.52-.05-.51-.05-.51-.05-.51-.05-.51-.05-.51-.04-.5-.05-.51-.04-.49-.04-.5-.04-.5-.04-.49-.04-.49-.03-.49-.03-.49-.04-.48-.02-.48-.03-.48-.03-.47-.02-.48-.02-.46-.02-.47-.02-1-.03-1-.04-1-.03-1-.03-1-.03-1-.03-1-.03-1-.03-.99-.02-1-.03-1.01-.03-1-.02-1-.02-1-.03-1-.02-1-.02-1-.02-1-.02-2-.04-2-.03-2.01-.03-2-.03-2-.03-2.01-.02-2-.02-2.01-.02-2-.02-2.01-.01-2-.01-2.01-.01-2.01-.01-2.01-.01-2-.01h-2.01l-2.01-.01H1104.899l-4.03.01h-10.07l-2.01-.01H1084.759l-2.02-.01-2.01-.01-2.02-.01h-2.02l-2.01-.02-2.02-.01-2.02-.02-2.01-.01-2.02-.02-2.02-.03-2.02-.02-2.02-.03-2.02-.03-2.02-.03-2.02-.03-1.01-.02-1.01-.02-1.01-.02-1.01-.02-1.01-.02-1.01-.03-2.11-.04-2.11-.05-2.12-.04-2.11-.05-2.12-.04-2.11-.05-2.11-.04-2.12-.04-2.11-.04-2.11-.03-2.12-.04-2.11-.04-2.11-.03-2.12-.04-2.11-.03-2.11-.03-2.12-.03-2.11-.03-2.11-.04-2.12-.02-2.11-.03-2.12-.03-2.11-.02-2.11-.03-2.12-.03-2.11-.02-2.11-.02-2.12-.02-2.11-.02-2.12-.02-2.11-.02-2.11-.02-2.12-.02-2.11-.02-2.11-.01-2.12-.02-4.22-.03-4.23-.02-4.23-.03-4.23-.02-4.23-.02-4.22-.01-4.23-.01-4.23-.01-4.23-.01-4.23-.01h-12.68l-4.23.01h-4.23l-4.23.01-4.23.01-4.22.01-4.23.02-4.23.01-4.23.02-4.23.02-4.23.02-4.23.02-4.23.02-4.23.02-4.23.03-4.23.03-4.24.02-4.23.03-4.23.03-4.23.03-8.46.06-8.47.07-8.46.06-8.47.07-8.463.07-16.935.14h-.852l-.851.01-.852.01-.851.01-.85.01-.852.01-.85.02-.852.01-.852.01-.852.02-.851.01-.85.02-1.705.04-1.704.03-1.704.04-1.705.05-1.705.04-1.705.05-1.705.05-1.707.05-1.706.05-1.706.06-1.707.06-1.708.05-1.708.06-1.709.06-1.708.06-1.709.07-3.421.12-6.845.25-3.426.13-3.427.12-1.715.07-1.715.06-1.716.05-1.717.06-1.717.06-1.717.05-1.718.06-1.719.05-1.719.05-1.72.04-1.721.05-1.722.04-1.72.04-1.723.04-1.723.03-.861.02-.862.02-.864.01-.863.02-.862.01-.862.01-.862.01-.864.01-.864.01-.862.01-.864.01-.864.01h-.864l-.864.01h-1.728l-.866.01h-1.729l-.866-.01h-1.73l-.867-.01h-.864l-.867-.01-.866-.01-.867-.01-.867-.01-.866-.01-.869-.01-.867-.02-.865-.01-.869-.02-.866-.02-2.248-.05-2.247-.05-2.247-.04-2.247-.05-2.247-.04-2.247-.05-2.247-.04-2.246-.04-2.247-.04-2.248-.04-2.248-.04-2.247-.04-2.247-.03-2.247-.04-2.248-.03-2.248-.04-2.247-.03-2.248-.03-2.248-.03-2.248-.03-2.248-.03-2.248-.03-2.248-.03-2.248-.02-2.248-.03-2.248-.02-2.249-.03-2.248-.02-2.249-.02-2.248-.02-2.248-.02-2.249-.02-4.497-.04-4.498-.04-4.498-.03-4.498-.03-4.498-.02-4.498-.03-4.499-.02-4.499-.02-4.499-.02-4.499-.02-4.499-.01-4.5-.01-4.499-.01-4.5-.01-4.5-.01h-4.5l-4.501-.01H510.524l-4.501-.01h-18.004l-9.003.01h-9.003l-9.004.01h-45.023l-4.502-.01-4.503-.01h-4.502l-4.503-.01-4.503-.01-4.503-.02-4.502-.01-4.501-.02h-5.641l-1.126.01h-1.129l-1.129.01-1.129.01-1.128.01-1.129.01-1.129.01-1.13.02-1.128.01-1.13.02-1.13.02-1.129.02-1.13.02-1.13.02-1.131.02-1.129.03-1.131.02-1.131.03-1.13.02-1.132.03-1.131.03-1.131.03-1.131.03-1.13.03-1.134.04-1.132.03-1.13.03-2.265.07-2.265.08-2.265.07-2.266.08-2.266.08-2.266.08-2.268.09-2.269.08-2.268.09-2.268.09-4.54.18-4.541.17-4.524.18h-.091l-.121.01-.157.01-.182.02-.212.02-.237.02-.261.03-.277.03-.303.03-.313.04-.685.08-.741.09-.793.1-.838.1-.876.11-.91.11-.932.11-.482.05-.485.06-.484.05-.492.06-.495.05-.496.05-.499.05-.5.05-.502.05-.501.04-.497.04-.501.05-.503.03-.496.04-.495.03-.486.03-.249.01-.248.02-.246.01-.238.01-.237.01-.249.01-.24.01-.232.01h-.479l-.233.01h-1.163l-.231-.01h-.237l-.227-.01-.226-.01-.225-.01-.223-.01-.23-.02-.221-.01-.229-.02-.227-.03-.218-.02-.237-.03-.227-.03-.227-.03-.227-.03-.23-.04-.24-.05-.243-.05-.234-.06-.237-.06-.264-.07-.236-.07-.144-.05-.138-.04-.14-.05-.117-.05-.143-.05-.144-.06-.123-.05-.172-.08-.151-.07-.129-.06-.155-.08-.157-.09-.16-.09-.163-.1-.163-.1-.166-.11-.144-.11-.17-.12-.192-.16-.258-.22-.314-.31-.154-.17-.363-.46-.104-.14-.213-.33-.17-.32-.107-.21-.111-.25-.091-.23-.067-.18-.07-.21-.081-.27-.071-.28-.054-.24-.044-.23-.035-.21-.03-.2-.025-.19-.022-.19-.019-.18-.018-.18-.015-.18-.014-.18-.012-.19-.011-.18-.01-.19-.009-.18-.008-.19-.007-.2-.007-.2-.011-.4-.008-.41-.006-.43-.003-.45-.002-.46.001-.47.003-.48.004-.5.006-.51.007-.52.009-.53.01-.54.012-.56.012-.56.014-.57.015-.57.032-1.17.036-1.19.037-1.21.04-1.21.08-2.43.08-2.38.037-1.15.035-1.13.032-1.08.028-1.05.013-.49.011-.49.01-.47.009-.45.007-.44.006-.42.004-.4.002-.37.001-.36-.001-.33-.002-.31-.004-.29-.013-.7-.012-.73-.011-.72-.01-.72-.009-.72-.008-.72-.007-.72-.006-.72-.005-.72-.004-.72-.003-.72-.002-.72-.002-.72-.001-.72.001-.72.001-.71.001-.72.003-.72.007-1.44.011-1.44.013-1.43.015-1.44.018-1.43.02-1.44.022-1.43.025-1.43.026-1.43.028-1.43.029-1.44.03-1.43.032-1.43.033-1.43.034-1.43.07-2.85.072-2.85.146-5.7.071-2.85.035-1.42.034-1.42.033-1.42.032-1.42.03-1.42.029-1.42.028-1.41.026-1.42.025-1.42.022-1.41.02-1.42.018-1.41.016-1.42.013-1.41.01-1.41.008-1.42.003-.7.002-.71.001-.7v-1.41l-.001-.71-.002-.7-.003-.71-.004-.7-.005-.7-.005-.71-.007-.7-.007-.71-.009-.7-.009-.7-.01-.71-.012-.7-.012-.7-.014-.7-.014-.71-.016-.7-.017-.7-.017-.7-.019-.71-.021-.7-.021-.7-.022-.7-.024-.7-.034-.94-.035-.93-.037-.94-.039-.93-.041-.94-.043-.93-.044-.94-.046-.94-.048-.93-.049-.94-.051-.93-.053-.94-.054-.94-.055-.93-.058-.94-.058-.94-.06-.94-.061-.93-.063-.94-.064-.94-.065-.94-.067-.93-.067-.94-.069-.94-.07-.94-.071-.94-.072-.94-.074-.93-.074-.94-.075-.94-.076-.94-.077-.94-.078-.94-.079-.94-.079-.94-.08-.94-.163-1.88-.166-1.89-.167-1.88-.17-1.88-.172-1.89-.173-1.88-.175-1.89-.175-1.88-.353-3.78-.354-3.78-.177-1.89-.175-1.89-.175-1.89-.174-1.9-.172-1.89-.171-1.9-.168-1.89-.166-1.9-.164-1.9-.081-.95-.08-.95-.079-.95-.078-.95-.078-.95-.076-.95-.076-.95-.075-.95-.073-.96-.073-.95-.072-.95-.07-.95-.069-.96-.069-.95-.067-.95-.065-.96-.065-.95-.063-.96-.062-.95-.06-.96-.059-.95-.057-.96-.056-.95-.055-.96-.053-.96-.051-.95-.05-.96-.048-.96-.046-.95-.045-.96-.042-.96-.041-.96-.039-.96-.038-.96-.035-.96-.033-.96-.032-.96-.029-.96-.027-.96-.025-.96-.023-.96-.021-.97-.019-.96-.016-.96-.014-.96-.012-.97-.009-.96-.008-.97-.004-.96-.002-.96v-1.06l.002-1.05.004-1.05.005-1.06.008-1.05.01-1.05.011-1.05.013-1.05.015-1.05.016-1.05.019-1.06.02-1.05.021-1.05.024-1.05.024-1.05.027-1.05.028-1.05.029-1.05.031-1.05.033-1.05.034-1.05.035-1.05.037-1.05.038-1.04.039-1.05.041-1.05.042-1.05.043-1.05.044-1.05.046-1.04.047-1.05.048-1.05.049-1.05.05-1.05.051-1.04.052-1.05.054-1.05.054-1.04.055-1.05.056-1.05.057-1.04.058-1.05.059-1.04.059-1.05.061-1.04.061-1.05.124-2.09.127-2.09.13-2.09.132-2.09.134-2.09.136-2.08.138-2.09.14-2.08.14-2.09.142-2.08.142-2.09.287-4.16.287-4.17.287-4.16.142-2.08.142-2.08.141-2.08.139-2.07.138-2.08.136-2.08.134-2.07.133-2.08.13-2.07.127-2.08.125-2.07.061-1.04.061-1.03.059-1.04.059-1.04.058-1.03.058-1.04.056-1.03.055-1.04.055-1.03.053-1.04.053-1.04.051-1.03.051-1.03.049-1.04.049-1.03.047-1.04.046-1.03.045-1.04.044-1.03.042-1.03.041-1.04.04-1.03.039-1.03.037-1.04.036-1.03.035-1.03.029-.92.029-.92.027-.92.025-.93.025-.92.023-.92.022-.92.021-.92.019-.93.019-.92.017-.92.016-.92.015-.93.014-.92.012-.92.012-.93.01-.92.01-.92.008-.93.007-.92.006-.92.005-.93.004-.92.004-.93.002-.92.001-.93v-.92l-.001-.92-.001-.93-.003-.93-.003-.92-.005-.93-.005-.92-.006-.93-.007-.92-.008-.93-.009-.93-.009-.92-.01-.93-.011-.93-.012-.92-.013-.93-.027-1.85-.03-1.86-.033-1.85-.036-1.85-.038-1.86-.04-1.86-.043-1.85-.045-1.86-.047-1.86-.048-1.85-.051-1.86-.053-1.86-.054-1.86-.056-1.86-.057-1.86-.058-1.85-.06-1.87-.06-1.85-.062-1.86-.062-1.87-.063-1.86-.129-3.72-.129-3.72-.131-3.73-.13-3.72-.129-3.73-.128-3.73-.062-1.86-.062-1.86-.061-1.87-.06-1.86-.058-1.87-.057-1.86-.056-1.86-.055-1.87-.053-1.86-.051-1.87.394-2.3 1.247-1.98 1.91-1.36 2.283-.52 2.307.4 1.982 1.24 1.353 1.91.085.38.121-.1 2.258-.61 1.071-.08 1.074-.07 1.072-.07 1.072-.07 1.073-.07 1.073-.06 1.073-.07 1.072-.06 1.071-.06 1.071-.06 1.072-.05 1.07-.06 1.071-.05 1.071-.05 1.07-.05 1.07-.05 1.07-.05 1.069-.05 1.069-.04 1.069-.04 1.069-.04 1.068-.04 1.069-.04 1.068-.04 1.069-.03 1.067-.04 1.067-.03 1.068-.03 1.067-.03 1.067-.03 1.067-.03 1.066-.02 1.067-.03 1.065-.02 1.067-.03 1.066-.02 1.065-.02 1.065-.02 1.066-.02 1.065-.01 1.064-.02 1.065-.02 1.065-.01 1.064-.02 1.064-.01 1.064-.01 1.065-.01 1.063-.01 1.063-.01 1.064-.01h1.065l1.063-.01 2.124-.01 2.125-.01 2.125-.01h8.494l2.123.01 2.122.01h2.122l2.121.01 2.121.01 2.121.01 2.121.02 4.239.02 4.239.03 4.239.02 4.238.03 2.118.01 2.118.01h2.12l2.118.01 2.118.01h10.593l2.119-.01 2.121-.01 1.059-.01 1.06-.01h1.058l1.06-.01 1.061-.01 1.059-.01 1.059-.01 1.062-.02 2.418-.02 2.419-.03 2.419-.02 2.418-.03 2.419-.02 2.419-.03 2.418-.02 2.418-.02 2.419-.02 2.418-.02 2.418-.01 2.418-.02 2.418-.02 2.417-.01 2.418-.01 2.418-.02 2.417-.01 2.417-.01 2.417-.01 2.418-.01 2.417-.01 2.417-.01 2.416-.01h2.418l4.833-.01 4.833-.01 4.833-.01H512.196l4.832.01zm-6.498 490.02h9.006l4.504.01h4.504l4.504.01 4.504.01 4.504.01 4.504.01 4.504.01 4.505.02 4.504.02 4.505.02 4.504.02 4.505.03 4.505.02 4.505.03 4.504.04 4.506.03 4.504.04 2.253.02 2.252.02 2.253.02 2.253.02 2.252.02 2.253.03 2.252.02 2.253.03 2.253.03 2.252.02 2.253.03 2.253.03 2.252.03 2.253.03 2.252.03 2.254.03 2.252.04 2.253.03 2.252.04 2.253.03 2.253.04 2.253.04 2.252.04 2.252.04 2.254.04 2.253.05 2.252.04 2.253.04 2.252.05 2.253.05 2.253.04 2.25.05.851.02.848.02.852.01.85.02.848.01.849.01.85.01.85.01.849.01.849.01h.851l.85.01h1.7l.849.01h1.701l.849-.01h1.701l.85-.01h.851l.85-.01.85-.01.852-.01.85-.01.85-.01.852-.01.852-.01.851-.01.85-.02.85-.01.851-.02.852-.01 1.703-.04 1.703-.03 1.705-.04 1.704-.05 1.703-.04 1.705-.05 1.706-.05 1.705-.05 1.705-.05 1.707-.06 1.707-.05 1.707-.06 1.708-.06 1.708-.06 1.708-.06 3.419-.12 3.421-.13 6.846-.25 3.426-.13 1.715-.06 1.715-.06 1.715-.06 1.716-.06 1.716-.06 1.717-.05 1.718-.06 1.718-.05 1.719-.05 1.719-.05 1.721-.05 1.72-.05 1.722-.04 1.722-.04 1.722-.04 1.722-.04.865-.01.862-.02.862-.02.862-.01.862-.01.864-.02.862-.01.864-.01.865-.01.862-.01.864-.01h.862l16.938-.14 8.47-.07 8.47-.07 8.46-.06 8.47-.07 8.47-.06 4.23-.03 4.23-.03 4.24-.03 4.23-.02 4.24-.03 4.23-.03 4.23-.02 4.24-.02 4.23-.02 4.23-.02 4.24-.02 4.23-.02 4.23-.01 4.24-.02 4.23-.01 4.24-.01 4.23-.01h4.24l4.23-.01h12.71l4.23.01 4.24.01 4.23.01 4.23.01 4.24.01 4.24.02 4.23.02 4.24.03 4.23.02 4.24.03 2.12.02 2.12.01 2.11.02 2.12.02 2.12.02 2.12.02 2.12.02 2.11.02 2.12.02 2.12.02 2.12.03 2.12.02 2.12.03 2.12.02 2.11.03 2.12.03 2.12.03 2.12.03 2.12.03 2.12.03 2.12.03 2.12.04 2.11.03 2.12.04 2.12.03 2.12.04 2.12.04 2.12.04 2.12.04 2.12.04 2.12.04 2.12.04 2.12.05 2.12.04 2.12.05 2.11.05 1 .02 1.01.02 1 .02 1 .02 1 .02 1 .02 2 .03 2 .04 2.01.03 2 .02 2.01.03 2 .02 2 .02 2.01.01 2.01.02 2 .01 2.01.02 2 .01h2.01l2.01.01 2.01.01h4.02l2 .01H1100.859l4.03-.01H1125.019l2.02.01h2.01l2.02.01 2.01.01 2.02.01 2.02.01 2.01.01 2.02.02 2.02.01 2.02.02 2.01.02 2.02.03 2.02.02 2.02.03 2.02.03 2.02.04 2.02.03 1.01.02 1.01.02 1.01.02 1.01.03 1.01.02 1.01.02 1.01.03 1.01.02 1.01.03 1.01.03 1.01.02 1.01.03 1.01.03 1.01.03 1.02.04 1.01.03 1.01.03 1.01.04.52.02.52.02.52.02.52.03.52.03.53.03.53.03.52.03.53.04.53.04.53.04.53.04.53.04.54.04.53.05.53.05.54.04.53.05.54.05.54.06.54.05.53.05.54.06.54.06.54.05.55.06 1.08.12 1.09.13 1.08.12 1.09.13 1.09.13 1.1.13 1.09.13 2.19.26 1.09.13 1.1.13 1.09.13 1.1.12 1.09.13 1.09.12.54.06.55.05.54.06.55.06.54.06.54.05.54.06.55.05.54.05.54.05.54.05.53.05.54.04.54.05.54.04.53.05.54.04.53.04.53.03.53.04.53.04.53.03.53.03.52.03.53.03.52.02.53.02.52.02.52.02.51.02.52.01.52.02.51.01h.51l.51.01h1.52l.51-.01h.5l.49-.01.5-.01.5-.02.25-.01.24-.01.24-.01.25-.01.25-.01.24-.01.25-.01.24-.02.24-.01.24-.02.24-.01.24-.02.24-.02.25-.01.23-.02.24-.02.24-.02.24-.02.24-.03.23-.02.24-.02.23-.02.24-.03.23-.03.23-.02.23-.03.24-.03.23-.03.23-.03.23-.03.23-.03.23-.03.22-.03.23-.04.23-.03.22-.04.23-.03.09-.02-.01-1.26-.02-2.95-.03-2.95-.01-1.47-.01-1.48v-1.48l-.01-1.48-.01-1.48v-5.93l.01-1.48.02-5.58.02-5.58.01-2.79.01-2.79.02-2.79.01-2.79.02-2.79.01-2.79.02-2.79.02-2.79.02-2.79.03-2.79.02-2.8.03-2.79.03-2.79.03-2.79.03-2.8.03-2.79.04-2.79.04-2.8.04-2.79.05-2.79.05-2.8.02-1.39.03-1.4.03-1.4.02-1.4.03-1.39.03-1.4.03-1.4.03-1.4.03-1.39.04-1.4.03-1.4.03-1.4.04-1.39.04-1.4.05-2.15.06-2.15.07-2.15.06-2.14.07-2.15.07-2.15.07-2.15.07-2.14.07-2.15.08-2.14.08-2.15.08-2.14.08-2.15.08-2.14.08-2.15.09-2.14.08-2.14.09-2.15.17-4.28.17-4.28.18-4.29.18-4.28.17-4.28.17-4.28.18-4.27.08-2.14.08-2.14.09-2.14.08-2.13.08-2.14.08-2.14.07-2.13.08-2.14.07-2.14.08-2.13.07-2.14.07-2.14.06-2.13.07-2.13.06-2.14.06-2.14.06-2.13.05-2.13.05-2.14.05-2.13.05-2.14.02-1.06.02-1.07.02-1.07.02-1.06.02-1.07.02-1.07.01-1.06.02-1.07.02-1.07.01-1.06.02-1.07.01-1.06.01-1.07.01-1.07.01-1.06.01-1.07.01-1.07.01-1.06v-1.07l.01-1.06v-1.07l.01-1.07v-3.77l-.01-.95v-.94l-.01-.94v-.95l-.01-.94-.01-.95-.01-.94-.01-.95-.01-.94-.02-.95-.01-.94-.02-.95-.01-.94-.02-.95-.02-.94-.02-.95-.02-.94-.02-.95-.02-.94-.02-.95-.03-.95-.02-.94-.03-.95-.02-.95-.03-.94-.03-.95-.05-1.89-.06-1.89-.07-1.9-.06-1.89-.07-1.9-.07-1.89-.07-1.9-.07-1.9-.08-1.89-.08-1.9-.07-1.9-.08-1.89-.08-1.9-.08-1.9-.08-1.9-.17-3.8-.33-7.61-.17-3.8-.08-1.91-.08-1.9-.08-1.91-.08-1.9-.08-1.91-.08-1.9-.07-1.91-.07-1.91-.08-1.91-.07-1.9-.06-1.91-.07-1.91-.06-1.91-.06-1.91-.06-1.91-.03-.96-.02-.96-.03-.95-.02-.96-.03-.95-.02-.96-.02-.96-.03-.95-.02-.96-.02-.96-.02-.96-.01-.95-.02-.96-.02-.96-.01-.96-.02-.95-.01-.96-.01-.96-.01-.96-.01-.96-.01-.95-.01-.97-.01-.93v-3.75l.01-.94.01-.93.01-.94.01-.94.01-.93.02-.94.01-.93.02-.94.02-.94.02-.93.03-.94.02-.94.03-.93.03-.94.03-.93.03-.94.03-.93.03-.94.04-.93.04-.94.03-.93.04-.94.04-.93.04-.94.04-.93.05-.94.04-.93.04-.93.05-.94.09-1.86.09-1.87.1-1.87.1-1.86.1-1.86.1-1.87.1-1.86.21-3.72.2-3.72.1-1.85.1-1.86.1-1.85.1-1.86.09-1.85.09-1.85.04-.93.05-.92.04-.93.04-.92.04-.92.04-.93.04-.92.04-.92.03-.93.04-.92.03-.92.03-.92.03-.92.03-.92.03-.92.03-.92.03-.92.02-.92.02-.92.02-.92.02-.92.02-.91.01-.92.02-.92.01-.91.01-.92.01-.91v-.92l.01-.91v-2.74l-.01-.92-.01-.91-.01-.91-.01-.91-.01-.91-.02-.91-.01-.91-.03-.91-.02-.91-.03-.91-.02-.91-.04-.9-.03-.91-.04-.9-.04-.91-.04-.9-.04-.91-.03-.45-.02-.45-.03-.46-.03-.45-.02-.45-.03-.45-.03-.45-.03-.45-.03-.45-.03-.46-.02-.28-.11-.01-1.43-.09-1.42-.09-1.43-.08-1.43-.08-1.43-.09-1.43-.08-1.42-.07-1.43-.08-1.43-.07-1.42-.07-.71-.03-.72-.03-.71-.03-.71-.03-.72-.03-.71-.03-.71-.03-.72-.03-.71-.02-.71-.03-1.44-.05-1.44-.05-1.44-.05-1.44-.05-1.44-.05-1.44-.04-2.88-.1-2.88-.09-2.89-.08-2.88-.09-2.88-.08-2.88-.07-2.89-.08-2.88-.07-2.88-.07-2.89-.07-2.88-.06-2.89-.06-2.88-.06-2.89-.06-2.88-.05-2.89-.05-2.88-.05-2.89-.04-2.88-.05-2.89-.04-2.88-.03-2.89-.04-2.88-.03-2.88-.03-2.89-.03-2.88-.03-2.89-.02-2.88-.02-2.88-.02-3.08-.02-3.09-.01-3.08-.02-3.08-.01-3.09-.01-3.08-.01h-3.08l-3.09-.01h-15.42l-3.08.01h-3.08l-3.09.01-3.08.01-3.09.01-3.08.01-3.09.02-3.08.01-3.08.02-3.09.02-3.08.02-3.09.02-3.08.02-3.09.02-3.08.03-3.09.02-3.09.03-3.08.03-3.09.03-3.08.03-3.09.03-3.08.03-3.09.04-3.08.03-3.09.03-3.09.04-3.08.04-3.09.04-3.08.04-3.09.03-3.09.05-3.08.04-3.09.04-6.17.09-6.17.08-6.18.1-6.17.09-6.17.1-6.18.09-6.17.1-6.17.11-6.18.1-6.17.1-6.18.1-12.35.22-12.35.21-12.35.21-6.17.1-6.18.11-6.17.1-6.18.1-6.18.1-6.17.1-6.18.1-6.18.09-6.17.09-6.18.09-6.18.09-3.08.04-3.09.05-3.09.04-3.09.04-3.087.04-3.089.04-3.088.03-3.089.04-3.088.04-3.089.03-3.088.04-3.089.03-3.088.03-3.089.03-3.088.03-3.089.03-3.089.03-3.088.02-3.088.03-3.09.02-3.088.03-3.089.02-3.089.02-3.088.02-3.088.02-3.089.01-2.42.01-2.418.01-2.419.01-2.418.01-2.419.01-2.419.01-2.418.01h-2.419l-4.836.01-4.835.01-4.836.01h-14.503l-4.833-.01-4.834-.01-4.833-.01-4.832-.01-4.833-.01-4.832-.01-4.831-.02-4.831-.01-4.831-.02-4.831-.02-4.83-.02-4.83-.02-9.66-.05-9.658-.04-9.657-.05-9.657-.05-9.655-.04-9.655-.04-4.828-.02-4.827-.02-4.827-.02-4.827-.02-4.826-.02-4.827-.01-4.827-.02-4.826-.01-4.827-.01-4.826-.01h-4.826l-4.827-.01H497.71l-4.827.01-4.826.01-4.826.01h-2.413l-2.413.01-2.414.01-2.412.01-2.413.01-2.413.01-2.414.01-2.413.01-2.413.02-2.413.01-2.414.01-2.413.02-2.413.02-2.414.01-2.413.02-2.413.02-2.414.02-2.413.02-2.413.03-2.414.02-2.414.02-2.413.03-2.414.03-2.415.02-1.068.02-1.07.01-1.07.01-1.069.01-1.068.01h-1.07l-1.068.01-1.069.01-2.134.01-2.134.01h-10.654l-2.128-.01-2.127-.01h-2.125l-2.126-.01-2.124-.01-4.245-.03-4.242-.02-4.239-.03-4.237-.02-2.116-.02-2.116-.01-2.115-.01-2.115-.01h-2.114l-2.114-.01-2.112-.01H350.994l-2.11.01-2.11.01-2.111.01-1.054.01h-1.053l-1.054.01-1.054.01-1.055.01-1.054.01-1.053.01-1.055.01-1.054.02-1.053.01-1.054.02-1.053.01-1.054.02-1.053.02-1.053.02-1.054.02-1.053.02-1.053.02-1.054.03-1.052.02-1.053.03-1.053.03-1.053.02-1.053.03-1.052.03-1.053.04-1.054.03-1.052.04-1.052.03-1.052.04-1.054.04-1.053.04-1.052.04-1.053.04-1.053.05-1.053.04-1.051.05-1.053.05-1.052.05-1.052.06-1.054.05-1.052.06-1.053.05-1.054.06-1.052.06-1.052.07-1.051.06-1.054.07-1.053.06-1.053.07-1.053.07-1.056.08-2.322-.3-.198-.11.01.33.058 1.86.06 1.85.061 1.86.061 1.86.063 1.86.127 3.72.129 3.72.13 3.72.13 3.73.13 3.72.129 3.73.063 1.87.063 1.86.061 1.87.061 1.87.06 1.86.059 1.87.057 1.87.056 1.87.054 1.87.053 1.87.051 1.86.049 1.87.048 1.87.045 1.88.043 1.86.041 1.88.038 1.87.036 1.87.033 1.87.031 1.87.027 1.87.013.94.012.94.011.93.01.94.01.94.008.93.008.94.007.94.007.93.005.94.004.94.004.94.003.93.001.94.001.94v.93l-.001.94-.002.94-.004.94-.004.93-.005.94-.006.94-.008.93-.008.94-.009.94-.011.94-.012.94-.013.93-.013.94-.016.94-.016.94-.017.93-.019.94-.02.94-.021.94-.022.93-.024.94-.025.94-.026.94-.028.94-.028.93-.031.94-.035 1.05-.036 1.05-.038 1.05-.039 1.05-.041 1.05-.042 1.04-.043 1.05-.044 1.05-.046 1.05-.046 1.04-.048 1.05-.049 1.05-.05 1.04-.051 1.05-.052 1.05-.053 1.04-.054 1.05-.056 1.05-.056 1.04-.056 1.05-.058 1.04-.059 1.05-.059 1.05-.061 1.04-.061 1.05-.062 1.04-.125 2.09-.128 2.09-.131 2.09-.133 2.08-.135 2.09-.137 2.09-.139 2.08-.14 2.09-.141 2.08-.142 2.09-.142 2.08-.287 4.17-.288 4.16-.286 4.16-.142 2.08-.141 2.08-.14 2.08-.139 2.08-.137 2.07-.136 2.08-.133 2.08-.131 2.07-.129 2.08-.127 2.07-.123 2.08-.061 1.03-.059 1.04-.059 1.03-.059 1.04-.057 1.04-.056 1.03-.056 1.04-.055 1.03-.053 1.04-.053 1.03-.052 1.04-.05 1.04-.05 1.03-.048 1.03-.047 1.04-.047 1.03-.045 1.04-.044 1.03-.042 1.04-.042 1.03-.04 1.03-.038 1.04-.038 1.03-.036 1.04-.035 1.03-.033 1.03-.032 1.03-.031 1.04-.029 1.03-.027 1.03-.026 1.03-.025 1.04-.022 1.03-.022 1.03-.019 1.03-.018 1.03-.017 1.04-.014 1.03-.013 1.03-.011 1.03-.009 1.03-.008 1.03-.006 1.03-.003 1.03-.002 1.03v1.03l.002.94.004.93.007.94.009.93.012.93.013.94.016.93.018.94.021.93.022.94.024.93.027.94.028.93.031.94.032.93.035.94.036.93.038.94.04.94.042.93.043.94.046.93.047.94.048.93.05.94.052.94.054.94.054.93.057.94.058.94.059.93.061.94.062.94.063.94.065.93.065.94.067.94.069.94.069.94.071.93.071.94.073.94.074.94.075.94.075.94.077.94.077.94.079.94.079.94.079.94.163 1.88.164 1.88.168 1.88.169 1.89.171 1.88.173 1.89.174 1.88.176 1.89.176 1.89.353 3.77.354 3.78.176 1.89.175 1.9.174 1.89.173 1.9.171 1.89.169 1.9.166 1.89.164 1.9.082.95.08.95.08.95.078.95.078.95.077.95.076.95.076.96.074.95.073.95.072.95.071.95.07.96.069.95.067.95.067.96.065.95.064.96.062.95.061.95.06.96.058.96.057.95.055.96.054.95.052.96.05.96.049.95.047.96.045.96.044.96.042.95.04.96.038.96.036.96.035.96.024.73.023.72.022.72.021.72.019.72.019.72.017.72.016.73.015.71.014.73.013.72.011.72.011.72.01.72.008.72.008.72.006.72.006.72.005.72.004.72.003.72.002.72.001.71v1.44l-.001.72-.002.72-.003.72-.008 1.43-.011 1.44-.013 1.43-.016 1.44-.018 1.43-.02 1.44-.023 1.43-.025 1.43-.026 1.43-.028 1.43-.029 1.44-.031 1.42-.032 1.43-.033 1.43-.035 1.43-.034 1.43-.072 2.85-.145 5.7-.072 2.85-.07 2.84-.034 1.42-.033 1.42-.031 1.43-.031 1.42-.029 1.41-.027 1.42-.026 1.42-.024 1.42-.022 1.41-.02 1.42-.018 1.41-.015 1.42-.013 1.41-.01 1.41-.007 1.42-.003.7-.001.71-.001.7-.001.71.001.71.002.7.002.71.003.7.004.71.005.7.006.7.006.71.008.7.009.71.01.7.01.7.012.71.013.71.005.36.003.38.001.39-.001.41-.003.43-.004.44-.007.45-.007.47-.01.48-.01.5-.012.51-.013.52-.029 1.07-.032 1.1-.036 1.15-.038 1.16-.079 2.39-.081 2.42-.039 1.2-.037 1.19-.035 1.17-.031 1.15-.015.55-.013.56-.012.54-.011.52-.01.52-.008.5-.007.49-.006.48-.004.46v.09h.052l.193-.01h.19l.185-.01.201-.01.203-.01.198-.01.2-.01.203-.01.424-.02.428-.03.435-.03.436-.04.446-.03.454-.04.455-.04.457-.05.459-.04.462-.05.464-.05.461-.05.462-.05.464-.05.457-.05.453-.05.908-.11.886-.11.862-.1.833-.1.802-.1.764-.09.723-.09.351-.04.332-.04.328-.03.313-.03.305-.04.296-.02.291-.03.28-.02.278-.02h.157l.113-.01 4.556-.18 4.541-.18 4.543-.17 2.274-.09 2.275-.09 2.273-.08 2.276-.09 2.276-.08 2.277-.08 2.277-.08 2.279-.08 2.279-.07 2.278-.07 1.142-.04 1.14-.03 1.139-.03 1.141-.03 1.141-.04 1.141-.03 1.141-.03 1.14-.02 1.143-.03 1.141-.03 1.141-.02 1.143-.03 1.141-.02 1.143-.02 1.142-.02 1.143-.02 1.142-.02 1.143-.02 1.144-.01 1.142-.02 1.143-.01 1.144-.01 1.144-.01 1.144-.01 1.142-.01h1.144l1.146-.01H380.009l4.5.02 4.498.01 4.498.02 4.498.01 4.498.01H407l4.499.01 4.5.01H461.003l9.004-.01h9.004l9.004-.01h18.012l4.503.01zM792.037 752.957l.525.12.512.16.495.22.475.25.449.3.421.33.389.37.355.41.316.43.276.47.234.48.19.51.143.51.096.53.049.54v.54l-.029.65-.028.64-.026.64-.025.64-.024.65-.023.64-.022.64-.021.64-.02.65-.019.64-.017.64-.017.64-.016.65-.014.64-.014.64-.013.65-.011.64-.011.64-.01.65-.009.64-.007.65-.007.64-.006.64-.006.65-.004.64-.003.65-.003.64-.002.65-.001.64v.65l.001.64.001.65.003.64.003.65.004.64.004.65.012 1.29.014 1.29.017 1.29.019 1.3.022 1.29.025 1.29.027 1.3.029 1.29.032 1.3.033 1.29.035 1.3.038 1.3.039 1.29.041 1.3.042 1.3.044 1.3.045 1.3.047 1.29.048 1.3.049 1.3.05 1.3.05 1.31.104 2.6.107 2.6.108 2.61.109 2.61.109 2.61.108 2.61.107 2.62.105 2.61.051 1.31.05 1.31.05 1.31.048 1.31.047 1.31.046 1.31.045 1.31.042 1.3.005.14.006.13.007.15.007.14.009.16.01.16.011.16.012.17.028.36.031.38.035.39.039.41.042.43.045.45.047.46.05.47.053.49.055.5.114 1.03.119 1.07.123 1.11.062.56.061.58.062.58.061.58.06.59.059.6.057.6.057.61.054.6.052.61.05.62.047.61.045.61.021.32.02.3.019.31.019.31.017.31.017.31.015.31.015.31.013.31.013.31.011.31.01.3.008.31.008.31.006.3.005.31.003.31.002.3.001.31-.001.3-.003.31-.004.3-.006.3-.008.3-.009.3-.012.31-.013.3-.015.29-.017.3-.019.3-.022.29-.023.3-.027.3-.028.29-.031.29-.033.3-.036.29-.039.29-.042.29-.045.29-.047.29-.052.29-.055.29-.058.28-.061.29-.064.28-.037.15-.036.15-.037.14-.037.14-.041.15-.039.14-.041.14-.044.15-.043.14-.044.14-.049.15-.046.14-.051.15-.052.14-.051.14-.056.15-.054.13-.058.15-.061.15-.059.14-.064.14-.067.15-.063.13-.069.15-.078.16-.069.13-.07.14-.085.15-.082.15-.076.13-.085.14-.095.16-.075.11-.08.13-.081.12-.083.12-.092.13-.075.11-.086.12-.096.13-.089.12-.079.1-.088.11-.102.13-.093.11-.081.09-.093.11-.106.12-.096.11-.096.11-.097.1-.098.1-.099.11-.087.09-.114.11-.1.1-.102.1-.103.09-.103.1-.104.09-.105.1-.12.1-.09.08-.107.09-.108.09-.113.09-.211.17-.22.17-.222.17-.232.17-.226.16-.22.15-.23.15-.231.15-.234.14-.236.14-.237.14-.239.14-.24.13-.233.12-.244.13-.254.12-.238.12-.248.11-.25.12-.251.11-.252.11-.244.1-.256.1-.257.11-.248.09-.259.1-.261.09-.262.09-.264.09-.255.09-.265.08-.268.08-.259.08-.26.08-.28.08-.272.07-.255.07-.274.07-.276.07-.277.07-.278.06-.261.06-.28.06-.282.06-.273.06-.284.05-.284.05-.277.05-.278.05-.288.05-.28.05-.281.04-.291.05-.292.04-.284.04-.285.04-.295.03-.296.04-.288.03-.289.03-.29.03-.291.03-.3.03-.293.03-.302.02-.294.02-.295.03-.305.02-.288.01-.306.02-.307.02-.29.01-.3.02-.309.01-.301.01-.302.01h-.302l-.303.01-.312.01h-2.149l-.307-.01-.301-.01h-.308l-.309-.01-.31-.01-.317-.02-.31-.01-.303-.01-.31-.02-.319-.02-.303-.01-.312-.02-.319-.02-.304-.02-.304-.03-.32-.02-.312-.03-.305-.02-.312-.03-.313-.03-.32-.03-.305-.03-.304-.03-.321-.04-.304-.03-.312-.03-.313-.04-.304-.04-.312-.04-.312-.04-.312-.04-.303-.04-.312-.04-.311-.05-.303-.04-.31-.05-.31-.05-.302-.05-.31-.05-.309-.05-.301-.05-.309-.06-.3-.05-.299-.06-.315-.05-.299-.06-.298-.06-.306-.06-.305-.06-.296-.06-.296-.07-.303-.06-.303-.07-.294-.06-.293-.07-.301-.07-.292-.07-.299-.07-.291-.07-.289-.07-.297-.08-.288-.07-.288-.08-.294-.08-.285-.07-.285-.08-.292-.08-.283-.08-.281-.09-.289-.08-.28-.09-.279-.08-.278-.09-.277-.08-.284-.09-.274-.09-.274-.1-.273-.09-.279-.09-.27-.1-.261-.09-.276-.1-.267-.09-.266-.1-.264-.1-.263-.1-.27-.11-.253-.1-.259-.1-.266-.11-.257-.11-.247-.1-.254-.11-.261-.11-.251-.12-.25-.11-.24-.11-.248-.12-.254-.12-.236-.11-.243-.12-.241-.12-.24-.12-.238-.13-.238-.12-.235-.13-.226-.13-.232-.13-.231-.13-.23-.13-.228-.14-.218-.13-.224-.14-.231-.14-.214-.14-.211-.14-.219-.14-.216-.15-.215-.15-.213-.15-.203-.15-.202-.15-.209-.16-.206-.16-.203-.17-.203-.16-.193-.17-.191-.16-.197-.18-.195-.17-.191-.18-.184-.18-.181-.18-.186-.19-.183-.19-.175-.19-.172-.19-.176-.2-.173-.21-.165-.2-.162-.21-.164-.22-.16-.22-.141-.2-.085-.12-.08-.13-.071-.11-.071-.11-.078-.12-.068-.12-.068-.11-.074-.13-.066-.12-.064-.11-.071-.14-.063-.12-.061-.11-.067-.14-.059-.12-.063-.14-.058-.13-.063-.14-.074-.18-.065-.17-.057-.16-.06-.18-.075-.25-.068-.26-.055-.24-.047-.22-.041-.22-.036-.21-.031-.2-.029-.2-.027-.21-.024-.2-.023-.2-.022-.21-.019-.21-.019-.21-.018-.22-.017-.22-.016-.22-.015-.23-.014-.24-.014-.24-.013-.25-.013-.25-.011-.25-.012-.27-.02-.53-.018-.56-.017-.58-.014-.61-.012-.62-.011-.65-.009-.67-.006-.69-.006-.71-.003-.74-.002-.75v-.77l.001-.79.003-.81.005-.83.005-.85.008-.87.008-.88.011-.9.011-.92.013-.93.014-.95.015-.97.017-.98.017-.99.019-1.01.02-1.02.021-1.03.022-1.05.024-1.05.024-1.07.051-2.18.055-2.21.058-2.25.062-2.28.064-2.31.068-2.34.069-2.36.072-2.37.074-2.39.075-2.4.077-2.41.079-2.41.079-2.41.08-2.4.161-4.77.161-4.71.16-4.61.156-4.48.15-4.32.142-4.14.133-3.91.062-1.86.06-1.8.055-1.72.052-1.65.049-1.57.044-1.49.04-1.4.035-1.31.03-1.22.026-1.11.01-.52.01-.49.008-.46.006-.44.005-.41.004-.37.002-.34.001-.33.025-.54.074-.53.121-.52.167-.52.213-.49.256-.47.298-.45.336-.42.373-.39.407-.35.436-.32.463-.27.485-.24.505-.19.519-.14.53-.09.536-.05h.539l.536.05.529.1.519.14.504.19.484.24.462.28.434.31.405.36.371.39.335.42.295.45.255.47.21.5.165.51.119.53.071.53.023.54-.001.35-.003.39-.004.41-.005.44-.007.46-.008.49-.01.51-.011.54-.026 1.14-.031 1.24-.036 1.33-.04 1.42-.045 1.5-.048 1.58-.053 1.66-.056 1.74-.059 1.8-.063 1.87-.133 3.91-.142 4.14-.151 4.33-.155 4.48-.16 4.6-.161 4.71-.161 4.76-.08 2.4-.079 2.4-.078 2.41-.077 2.4-.075 2.39-.074 2.38-.071 2.37-.069 2.35-.067 2.33-.065 2.3-.061 2.27-.058 2.24-.054 2.2-.051 2.15-.024 1.06-.023 1.05-.022 1.04-.021 1.02-.02 1.01-.019 1-.017.98-.016.97-.016.95-.013.94-.013.92-.011.9-.01.88-.009.87-.007.85-.006.83-.004.81-.003.79-.001.77v.75l.002.72.003.71.005.67.007.66.008.63.01.61.011.58.013.56.015.53.016.49.019.48.009.22.01.21.01.21.011.2.011.19.011.18.011.18.012.16.012.16.011.14.012.13.012.13.005.04.033.04.04.05.038.05.041.05.051.05.055.06.052.06.056.05.066.07.07.07.067.06.07.06.074.07.085.07.089.08.085.07.089.07.092.07.095.07.108.08.11.08.107.08.11.08.113.07.117.08.128.09.132.08.119.08.13.08.142.08.136.08.14.08.142.09.146.08.158.08.151.09.155.08.158.08.16.08.164.08.166.09.177.08.164.08.174.08.185.09.18.08.182.08.177.07.187.08.197.09.192.08.186.08.197.07.207.09.193.07.203.08.206.08.207.07.21.08.203.07.222.08.216.08.209.07.22.07.221.07.224.08.217.07.226.07.229.07.23.07.232.07.225.07.235.06.237.07.23.06.24.07.241.07.234.06.244.06.245.07.239.06.248.06.249.06.242.06.252.06.244.05.254.06.255.06.248.05.249.06.258.05.259.05.252.05.252.06.262.05.262.05.248.04.264.05.264.05.258.04.266.05.259.04.259.04.268.05.261.04.261.04.269.04.262.04.263.03.27.04.263.03.264.04.264.03.272.04.264.03.537.06.257.02.546.06.257.03.265.02.265.02.537.05.257.02.273.02.272.01.256.02.264.02.272.01.255.02.263.01.271.01.262.01.254.01.261.01.261.01.26.01h.268l.26.01h1.786l.245-.01h.252l.251-.01.251-.01h.249l.24-.01.247-.02.255-.01.236-.01.236-.01.251-.02.233-.01.24-.02.239-.02.229-.02.236-.02.226-.02.233-.02.232-.03.23-.02.229-.03.218-.03.217-.02.223-.03.222-.03.212-.03.209-.04.217-.03.215-.04.203-.03.211-.04.209-.03.198-.04.196-.04.202-.04.192-.04.189-.04.205-.05.185-.04.182-.05.18-.04.177-.05.194-.05.172-.05.161-.04.177-.05.174-.06.162-.05.159-.05.166-.05.154-.05.151-.06.148-.05.145-.05.152-.06.139-.06.136-.05.142-.06.131-.06.126-.05.124-.06.12-.06.127-.06.105-.05.111-.06.116-.06.104-.06.101-.05.098-.06.094-.06.09-.05.087-.06.084-.05.089-.06.078-.06.065-.05.07-.05.068-.05.07-.06.025-.02.03-.02.028-.03.044-.04.013-.01.027-.02.026-.02.026-.03.023-.02.025-.02.023-.03h.009l.035-.04.02-.02.021-.02.019-.02.02-.03.017-.01.006-.01.018-.02.028-.04.015-.01.004-.01.015-.02.025-.03.012-.02h.004l.012-.02.022-.03h.003l.011-.02.01-.01.01-.02.009-.01.007-.02.009-.01.01-.02h.001l.007-.02.013-.03.007-.01.009-.02.013-.03.01-.03.01-.02.015-.04.011-.03.014-.04.012-.03.013-.04.015-.05.013-.03.015-.05.015-.05.014-.05.015-.05.015-.05.014-.05.015-.06.014-.06.015-.06.013-.05.031-.13.029-.14.028-.14.028-.14.027-.16.026-.16.025-.16.024-.17.024-.17.022-.18.021-.18.02-.19.018-.2.017-.19.017-.21.015-.2.013-.21.012-.22.011-.21.01-.22.009-.23.007-.23.006-.23.004-.23.004-.24.002-.24.001-.24-.001-.25-.001-.25-.003-.25-.004-.25-.005-.26-.006-.25-.008-.26-.008-.26-.01-.27-.01-.26-.012-.27-.012-.27-.014-.27-.015-.27-.015-.27-.016-.27-.017-.28-.018-.27-.019-.28-.04-.56-.043-.56-.046-.56-.048-.56-.051-.56-.052-.57-.055-.56-.055-.57-.058-.56-.058-.56-.059-.56-.06-.55-.06-.55-.12-1.1-.12-1.07-.115-1.04-.057-.51-.054-.51-.053-.5-.051-.49-.049-.48-.046-.48-.044-.46-.04-.46-.037-.45-.033-.43-.016-.22-.015-.22-.013-.21-.012-.21-.011-.21-.01-.21-.009-.21-.007-.19-.043-1.31-.044-1.3-.045-1.29-.047-1.3-.048-1.3-.049-1.31-.05-1.3-.051-1.29-.104-2.61-.106-2.6-.109-2.61-.109-2.61-.109-2.61-.108-2.61-.107-2.62-.104-2.61-.051-1.31-.051-1.31-.049-1.31-.048-1.31-.047-1.31-.046-1.31-.044-1.31-.043-1.32-.041-1.31-.04-1.31-.038-1.31-.036-1.32-.034-1.31-.032-1.32-.029-1.31-.028-1.32-.025-1.31-.022-1.32-.02-1.32-.017-1.31-.015-1.32-.011-1.32-.005-.66-.004-.66-.003-.66-.002-.66-.002-.66-.001-.66v-.66l.001-.66.002-.66.003-.66.003-.66.005-.66.005-.66.006-.66.007-.66.008-.66.01-.67.01-.66.011-.66.012-.66.013-.66.014-.66.015-.66.016-.67.017-.66.018-.66.019-.66.021-.67.021-.66.023-.66.024-.67.025-.66.026-.66.027-.66.028-.67.03-.66.048-.53.096-.53.143-.52.189-.5.233-.49.276-.46.317-.44.354-.4.389-.38.421-.33.449-.3.474-.25.495-.21.512-.17.525-.12.533-.07.538-.03.538.03.533.07z" fill="#fff"/><path d="M490.872 920.747h.171l2.248.05 2.249.05 4.499.12 8.999.22 4.499.11 2.248.05 2.251.05 2.248.05 2.246.05 2.248.05 2.249.05 2.247.04 2.247.04 2.245.05 2.244.03 2.245.04 2.244.03 2.244.03 1.12.02 2.243.02 2.24.02 2.243.02 1.119.01h1.117l2.239.01 2.238.01h4.473l1.117-.01 4.374-.01 4.376-.02 4.376-.02 4.377-.03 4.377-.02 4.378-.03 4.378-.03 4.379-.03 4.379-.03 4.379-.04 4.38-.03 4.38-.04 4.381-.04 4.381-.03 8.763-.08 8.764-.09 8.766-.08 8.766-.08 8.768-.08 8.768-.08 4.386-.04 4.385-.04 4.385-.04 4.385-.03 4.385-.04 4.386-.03 4.386-.04 4.386-.03 4.387-.02 4.385-.03 4.386-.03 4.387-.02 4.387-.02 4.387-.02 4.386-.01 4.387-.01 4.387-.01 2.194-.01H760.118l2.194-.01h2.194l2.194.01h4.386l4.388.01 4.386.01 2.193.01h2.195l4.386.02 2.193.01 2.195.02 4.386.02 4.391.03 2.19.02 2.19.02 2.2.02 2.19.02 2.19.02 2.2.02 2.19.03 2.19.03 2.2.02 2.19.03 2.19.03 2.2.03 4.38.06 2.19.04 2.2.03 2.19.04 2.19.04 2.19.04 2.35.04 2.33.05 2.34.05 2.34.06 2.34.05 2.34.06 2.34.06 2.33.06 2.34.06 2.33.06 2.34.07 2.33.06 4.67.14 4.67.13 4.66.13 2.34.07 2.33.06 2.33.07 2.33.06 2.33.06 2.33.06 2.33.06 2.33.05 2.32.05 2.33.05 2.33.05 3.49.07 1.16.02 2.32.04 1.17.02 1.16.02 1.16.01 1.16.02 1.16.01 1.16.02 1.16.01 2.33.02 1.16.01 2.32.02h1.16l1.16.01h6.96l1.16-.01h1.16l1.16-.01 1.15-.01 1.16-.01 1.16-.01 1.16-.01 1.16-.01 1.15-.02 1.16-.02 1.16-.02 1.16-.02 1.16-.02 1.15-.03 1.16-.02 1.16-.03 1.15-.03 1.16-.03 1.15-.03 1.16-.04 1.16-.03 1.15-.04 1.16-.04 1.15-.05 1.16-.04 1.15-.05 1.16-.05 1.15-.05 1.16-.05 1.15-.05 1.16-.06 1.15-.06 1.15-.06 1.15-.06 1.16-.07 1.15-.07 1.16-.07 1.15-.07 1.15-.07 1.16-.08 1.14-.08 1.16-.08 1.15-.08 1.15-.09.74-.06.75-.06.74-.06.74-.06.75-.06.74-.06.75-.07.75-.07.74-.06.75-.07.75-.07.74-.07 1.51-.14 1.5-.15 1.5-.14 1.51-.15 3.01-.29 1.51-.15 1.52-.15 1.52-.14 1.51-.15.77-.07.76-.07.76-.07.76-.06.77-.07.76-.07.76-.06.77-.07.76-.06.77-.06.77-.06.76-.06.77-.06.77-.05.77-.06.76-.05.77-.05.78-.05.77-.05.77-.04.77-.04.78-.05.77-.03.78-.04.77-.03.77-.03.78-.03.78-.03.77-.02.78-.02.78-.02.78-.02 1.05-.01 1.06-.02h.53l.53-.01h.54l.52-.01h3.21l.54.01h.54l.54.01.54.01.54.01.53.01.55.02.54.01.54.02.55.02.53.02.55.02.55.03h.05l-.04-.09-.15-.27-.15-.28-.15-.27-.15-.27-.15-.28-.15-.27-.15-.27-.16-.27-.31-.55-.31-.55-.31-.54-.32-.54-.31-.54-.33-.55-.32-.54-.32-.53-.33-.54-.34-.54-.33-.54-.33-.54-.34-.53-.34-.54-.34-.54-.35-.53-.34-.53-.35-.54-.35-.53-.35-.54-.36-.53-.35-.53-.36-.53-.36-.54-.36-.53-.36-.53-.36-.53-.37-.53-.36-.53-.37-.53-.37-.53-.37-.53-.37-.53-.37-.53-.38-.53-.38-.53-.37-.53-.38-.53-.76-1.06-.76-1.06-.76-1.07-.76-1.06-.77-1.06-1.54-2.14-.77-1.07-.78-1.07-.77-1.08-.77-1.08-.77-1.08-.39-.54-.38-.54-.39-.54-.38-.55-.38-.54-.39-.55-.38-.55-.38-.54-.38-.55-.38-.55-.38-.55-.38-.56-.38-.55-.37-.56-.38-.55-.37-.56-.37-.56-.37-.56-.38-.56-.36-.56-.37-.57-.37-.56-.36-.57-.36-.57-.37-.57-.36-.57-.35-.57-.36-.58-.35-.58-.36-.57-.35-.58-.35-.59-.34-.58-.35-.59-.34-.59-.34-.59-.34-.58-.33-.6-.17-.3-.16-.29-.17-.3-.16-.3-.17-.3-.16-.3-.16-.3-.17-.31-.16-.29-.16-.31-.16-.3-.16-.3-.16-.31-.16-.3-.15-.31-.16-.31-.16-.31-.16-.32-.16-.32-.15-.33-.16-.33-.16-.32-.15-.34-.16-.34-.16-.34-.15-.34-.16-.34-.15-.35-.15-.35-.16-.36-.15-.35-.16-.37-.15-.36-.15-.36-.16-.37-.15-.37-.15-.37-.16-.37-.31-.75-.3-.76-.31-.77-.31-.78-.32-.78-.31-.79-.31-.79-.63-1.6-.64-1.61-.32-.81-.32-.81-.33-.81-.33-.81-.33-.81-.33-.82-.17-.4-.16-.4-.17-.4-.17-.4-.17-.4-.17-.41-.17-.39-.17-.4-.17-.4-.17-.39-.18-.4-.17-.39-.17-.39-.18-.39-.17-.39-.18-.38-.17-.39-.18-.38-.18-.38-.18-.37-.18-.38-.17-.37-.18-.37-.19-.37-.18-.36-.18-.36-.18-.36-.18-.36-.19-.35-.18-.35-.19-.35-.18-.34-.19-.34-.18-.33-.19-.34-.19-.32-.18-.33-.19-.32-.19-.31-.19-.31-.19-.31-.19-.31-.09-.14-.1-.15-.09-.15-.1-.15-.09-.14-.1-.14-.09-.15-.1-.14-.09-.14-.1-.14-.09-.14-.1-.13-.09-.14-.1-.13-.09-.13-.1-.14-.09-.12-.1-.13-.09-.13-.1-.13-.09-.12-.1-.13-.09-.12-.1-.11-.09-.13-.1-.12-.09-.11-.1-.11-.09-.12-.1-.11-.09-.11-.09-.11-.09-.1-.1-.11-.09-.1-.09-.11-.1-.1-.09-.1-.09-.1-.09-.09-.1-.1-.09-.09-.09-.09-.09-.09-.09-.09-.09-.09-.09-.08-.09-.08-.09-.09-.09-.08-.08-.07-.1-.08-.09-.08-.08-.07-.09-.08-.08-.07-.09-.07-.09-.06-.08-.07-.03-.02h-.01l-.01-.01-.04-.02-.02-.01-.05-.02-.04-.02-.04-.01-.06-.02-.06-.03-.07-.02-.06-.02-.07-.02-.08-.03-.09-.02-.08-.03-.09-.02-.1-.03-.1-.02-.1-.02-.11-.03-.11-.03-.11-.02-.13-.02-.13-.03-.11-.02-.13-.02-.14-.03-.13-.02-.14-.02-.15-.02-.14-.02-.15-.02-.16-.02-.15-.02-.16-.02-.16-.02-.16-.02-.18-.02-.17-.01-.16-.02-.18-.02-.18-.01-.18-.01-.18-.02-.19-.01-.18-.01-.2-.01-.19-.02-.19-.01-.2-.01h-.2l-.2-.01-.2-.01-.21-.01h-.21l-.2-.01-.43-.01-.43-.01h-2.27l-.47.01-.48.01-.48.01-.49.02-.5.01-.49.02-.51.02-.51.02-.51.03-.52.02-.52.03-.52.03-.53.04-.53.03-.53.04-.54.03-.53.04-.55.04-.54.05-.55.04-.54.04-.55.05-.55.05-.56.05-.55.05-.55.05-.55.05-.56.05-.56.06-.55.05-.56.06-.55.05-.55.06-1.11.12-1.1.12-1.1.12-1.09.12-1.08.12-1.07.13-1.06.12-1.05.13-1.03.12-1.02.12-1.99.24-1.91.23-.92.11-.9.11-.87.1-.85.1-.82.09-.8.09-.76.08-.37.04-.37.04-.36.03-.35.04-.34.03-.34.03-.32.03-.33.02-.31.03-.3.02-.3.02-.3.02-.29.01-.26.02-.61.02-.61.03-.6.02-.6.02-.6.02-.6.02-.6.02-.6.01-.6.02-.6.01-.6.01-.59.01-.6.02h-.6l-.6.01-.6.01h-.6l-.59.01h-.6l-.6.01h-2.98l-.6-.01h-.59l-.6-.01h-.59l-.6-.01h-.59l-.6-.01-1.19-.02-1.18-.02-1.19-.02-1.19-.03-1.18-.03-1.19-.03-1.18-.03-1.18-.03-1.19-.04-1.18-.04-1.18-.04-1.18-.04-1.18-.04-1.18-.04-2.35-.09-2.35-.09-2.35-.09-2.34-.09-2.35-.08-1.17-.05-1.17-.04-1.16-.04-1.17-.04-1.17-.04-1.17-.03-1.16-.04-1.16-.03-1.17-.03-1.16-.04-1.16-.02-1.17-.03-1.16-.02-1.16-.02-1.16-.02h-.58l-.57-.01-.59-.01h-1.15l-.58-.01h-4.05l-.57.01h-.58l-.58.01h-.58l-.57.01-.53.01-.54.01-.53.01-.53.01-.54.01-.53.02-.54.01-.53.01-.53.02-.54.02-.53.01-.54.02-1.07.04-1.07.04-1.07.04-1.07.04-1.07.05-1.08.05-1.07.05-1.08.06-1.07.05-1.08.06-1.08.06-1.07.06-1.08.06-1.08.07-1.08.06-1.08.06-2.17.14-2.16.13-2.18.14-2.17.13-2.17.13-1.09.07-1.09.06-1.09.07-1.09.06-1.1.06-1.09.06-1.09.06-1.1.06-1.09.06-1.1.05-1.1.05-1.1.05-1.1.05-1.09.04-1.1.05-1.11.04-1.09.03-.56.02-.55.02-.55.01-.56.02-.55.01-.55.01-.55.02-.55.01-.56.01-.55.01-.55.01h-.56l-.55.01-.55.01h-1.11l-.56.01h-2.221l-.557-.01h-.554l-.557-.01h-.557l-.554-.01-.559-.01-.557-.01-.557-.01-.552-.01-2.285-.52-1.915-1.34-1.255-1.98-.403-2.3.51-2.29 1.346-1.91 1.976-1.26 2.306-.4.536.01.53.01.53.01.527.01.533.01h.53l.53.01h.532l.53.01H802.579l.53-.01h1.06l.54-.01h.53l.53-.01.53-.01.54-.01.53-.01.53-.01.54-.01.53-.01.53-.02.54-.01.53-.02.53-.01.54-.02 1.07-.04 1.07-.03 1.07-.05 1.07-.04 1.08-.05 1.07-.04 1.07-.05 1.08-.06 1.07-.05 1.08-.06 1.07-.06 1.08-.06 1.08-.06 1.08-.06 1.08-.06 1.08-.07 1.08-.06 2.16-.14 2.17-.13 2.17-.14 2.18-.13 2.17-.13 1.09-.07 1.09-.06 1.09-.07 1.1-.06 1.09-.06 1.09-.06 1.1-.06 1.09-.06 1.1-.05 1.09-.05 1.1-.06 1.1-.04 1.1-.05 1.1-.04 1.1-.05 1.1-.03.55-.02.56-.02.55-.02.55-.01.55-.02.55-.01.55-.01.56-.02.55-.01.56-.01.55-.01.55-.01h.6l.6-.01.6-.01h.59l.6-.01h4.18l.6.01h1.19l.59.01.6.01.6.01 1.18.01 1.19.02 1.19.03 1.18.02 1.19.03 1.19.03 1.18.03 1.18.04 1.19.03 1.18.04 1.18.04 1.18.04 1.18.04 1.18.04 1.17.04 2.36.09 2.35.09 2.34.09 2.35.09 2.34.09 1.17.04 1.16.04 1.17.04 1.17.04 1.17.04 1.16.03 1.17.03 1.16.04 1.16.03 1.16.02 1.17.03 1.16.02 1.16.02 1.16.02.58.01h.57l.58.01h.58l.58.01h.58l.58.01h2.89l.57-.01h.58l.58-.01h.57l.58-.01h.58l.57-.01.58-.01.57-.01.58-.02.58-.01.57-.01.57-.02.58-.02.58-.01.57-.02.57-.02.58-.02.57-.03.57-.02.19-.01.21-.01.21-.02.23-.01.25-.02.26-.02.27-.02.28-.03.29-.02.31-.03.31-.03.33-.03.34-.04.34-.03.73-.08.75-.09.8-.08.82-.1.86-.1.88-.11.91-.1 1.91-.23 1.99-.24 1.02-.13 1.04-.12 1.06-.13 1.08-.12 1.09-.13 1.1-.12 1.11-.13 1.13-.12 1.13-.13 1.13-.11.57-.07.58-.05.57-.06.57-.06.58-.05.57-.06.58-.05.57-.05.58-.06.57-.05.58-.05.57-.05.58-.04.57-.05.57-.04.57-.04.57-.05.57-.04.57-.03.56-.04.57-.03.56-.04.56-.03.55-.03.56-.02.55-.03.55-.02.54-.02.54-.02.54-.01.54-.02.53-.01.53-.01h2.59l.51.01.5.01.25.01.25.01.24.01.25.01.25.01.24.01.24.01.24.01.25.02.23.01.24.02.24.01.23.02.24.02.23.02.23.02.24.02.23.02.22.03.23.02.24.03.22.02.23.03.22.03.22.03.23.04.21.03.22.03.22.04.22.04.22.04.22.04.21.04.21.04.22.05.21.05.21.04.22.05.21.06.2.05.22.06.2.06.21.06.21.06.2.07.22.07.2.07.21.07.2.08.22.08.2.08.2.09.21.1.2.09.22.1.2.1.2.11.22.12.2.12.2.12.21.13.21.14.21.15.18.13.19.14.17.14.17.13.17.14.16.13.17.14.17.14.15.14.16.13.16.15.17.15.15.14.16.14.15.15.16.15.15.15.15.15.15.15.15.15.15.16.15.16.14.15.15.16.15.15.14.16.15.17.14.15.14.16.14.17.14.16.14.17.14.16.13.17.14.17.14.17.13.16.13.17.14.18.13.17.13.17.14.18.12.17.13.17.13.18.13.18.13.17.13.18.12.18.13.18.12.18.12.18.13.19.12.18.12.18.13.19.12.18.12.19.12.18.12.19.12.19.23.37.23.39.23.38.23.38.23.39.23.39.22.39.22.39.22.4.22.4.21.4.22.4.21.4.21.4.21.41.21.41.21.41.2.41.2.41.2.41.21.42.19.42.2.41.2.42.19.42.19.42.19.42.2.42.19.42.18.43.19.42.19.42.18.42.18.43.18.42.19.43.18.42.17.43.18.42.18.42.17.43.18.42.34.84.35.84.33.84.34.83.33.83.33.83.64 1.62.63 1.6.31.79.31.77.3.77.3.75.3.74.3.73.29.72.15.35.14.35.15.35.14.34.14.33.14.34.14.33.14.32.14.32.14.31.14.31.13.31.14.3.13.3.14.28.13.29.13.28.13.27.13.27.13.26.13.26.13.25.14.28.14.27.15.28.14.28.15.27.14.28.15.27.15.28.15.28.14.27.15.28.15.27.15.27.16.28.15.27.15.27.31.55.31.55.32.54.31.55.32.54.32.54.33.54.32.54.33.54.33.54.34.54.33.54.34.54.34.53.34.54.35.53.34.54.35.53.35.54.35.53.36.53.35.54.36.53.36.53.36.53.36.53.37.54.36.53.37.53.36.53.38.53.37.53.37.53.37.53.38.53.37.53.38.53.37.53.76 1.07.76 1.06.76 1.06.77 1.06.77 1.07 1.54 2.13.77 1.07.77 1.08.78 1.07.77 1.08.77 1.08.38.54.39.54.38.54.38.55.39.54.38.55.38.54.38.55.38.55.38.55.38.55.38.55.38.56.37.55.38.56.37.55.38.56.37.56.37.56.36.56.37.57.37.56.36.57.36.57.37.57.36.57.35.57.36.58.35.57.35.58.35.58.35.58.35.58.34.59.34.58.34.59.34.6.33.58.17.3.17.3.16.3.16.3.17.3.16.3.17.3.16.3.16.3.16.3.16.3.16.31.16.3.15.3.16.31.16.3.15.31.16.3.15.31.16.3.15.32.15.31.15.3.15.31.15.31.15.32.15.3.14.32.15.31.15.31.14.32.15.31.14.31.14.32.14.32.14.31.14.32.14.32.14.32.15.36.08.18.08.23.08.23.08.27.07.29.07.3.05.32.04.35.02.37v.39l-.02.42-.06.43-.08.45-.13.45-.16.47-.2.46-.24.44-.27.42-.3.4-.34.37-.3.29-.35.3-.36.26-.36.23-.29.16-.28.14-.34.15-.32.12-.25.08-.23.07-.3.07-.21.04-.21.04-.2.02-.19.03-.24.02-.18.01-.17.01-.17.01h-.32l-.16-.01h-.1l-.15-.01-.15-.01-.15-.01-.24-.02-.24-.03-.24-.03-.24-.04-.22-.03-.22-.04-.2-.04-.21-.04-.2-.04-.22-.05-.21-.04-.18-.05-.19-.04-.39-.09-.37-.09-.36-.09-.36-.1-.32-.08-.31-.08-.32-.07-.14-.04-.12-.02-.13-.03-.12-.03-.11-.02-.1-.02-.1-.02-.08-.02-.07-.01-.04-.01h-.04l-.03-.01-.47-.03-.49-.03-.5-.03-.5-.03-.49-.02-.49-.03-.5-.02-.51-.02-.49-.02-.5-.01-.5-.02-.5-.01-.51-.01-.5-.01-.5-.01-.51-.01h-.5l-.51-.01h-3.05l-.51.01h-.51l-.51.01h-.52l-1.03.02-1.02.01-.74.02-.73.01-.74.02-.73.03-.74.02-.73.03-.74.03-.74.03-.74.03-.73.04-.74.04-.74.04-.75.04-.74.05-.73.04-.74.05-.75.05-.74.05-.74.06-.74.05-.75.06-.74.06-.74.06-.75.06-.74.06-.75.07-.75.06-.74.07-.75.06-.75.07-.75.07-.75.07-1.5.14-1.5.15-1.5.14-1.51.15-3.02.29-1.51.15-1.51.15-1.52.14-1.51.15-.77.07-.76.07-.76.07-.76.07-.76.06-.76.07-.77.07-.76.06-.76.06-.77.06-.76.07-.77.05-1.18.09-1.17.09-1.18.08-1.18.08-1.17.08-1.18.08-1.18.07-1.17.07-1.18.07-1.17.07-1.18.06-1.18.07-1.18.06-1.17.05-1.18.06-1.17.05-1.18.05-1.17.05-1.18.05-1.18.05-1.17.04-1.18.04-1.17.04-1.18.04-1.17.03-1.18.03-1.17.04-1.18.03-1.18.02-1.17.03-1.17.03-1.18.02-1.17.02-1.18.02-1.17.02-1.18.01-1.17.02-1.17.01-1.18.01-1.17.01-1.17.01-1.18.01h-1.17l-1.18.01H934.329l-1.18-.01-1.17-.01h-1.17l-1.17-.01-1.18-.01-1.17-.01-1.17-.01-1.17-.01-1.17-.02-1.17-.01-1.18-.02-1.17-.01-1.17-.02-1.17-.02-1.17-.02-1.17-.02-1.17-.02-1.18-.02-2.33-.05-2.35-.05-2.34-.05-2.33-.05-2.34-.06-2.34-.06-2.34-.06-2.34-.06-2.34-.06-2.33-.06-2.34-.07-2.33-.06-4.67-.13-4.67-.14-4.66-.13-2.33-.07-2.33-.06-2.33-.06-2.33-.07-2.33-.06-2.33-.06-2.33-.05-2.33-.06-2.32-.05-2.33-.05-2.32-.05-1.17-.02-1.16-.02-2.18-.04-2.19-.04-2.18-.04-2.19-.03-2.18-.04-2.19-.03-2.19-.03-2.18-.03-2.19-.03-2.18-.03-2.19-.03-2.19-.02-2.19-.03-2.18-.02-2.19-.02-2.18-.02-2.19-.02-2.19-.02-2.19-.02-2.183-.01-2.188-.02-2.188-.01-2.188-.01-2.186-.02-2.188-.01-2.19-.01-2.188-.01h-2.187l-2.188-.01-2.19-.01h-2.188l-2.188-.01h-6.567l-2.189-.01h-2.188l-2.189.01h-6.568l-2.189.01-4.38.01-4.379.01-4.38.01-4.38.02-4.38.02-4.38.02-4.381.03-4.382.03-4.381.02-4.381.03-4.381.04-4.382.03-4.382.04-4.382.03-4.382.04-4.383.04-4.382.03-8.766.09-8.766.08-8.766.08-8.766.08-8.767.09-8.766.08-4.384.03-4.383.04-4.383.04-4.383.03-4.384.04-4.383.03-4.383.03-4.383.03-4.383.03-4.383.02-4.383.03-4.382.02-4.383.02-4.384.01-1.129.01h-5.649l-1.13-.01h-1.129l-1.13-.01h-1.133l-1.13-.01-1.128-.01-1.13-.01-1.13-.01-1.131-.01-1.13-.01-1.128-.02-1.131-.01-1.128-.01-1.131-.02-2.26-.03-2.258-.04-2.26-.04-2.258-.04-2.257-.04-2.258-.04-2.256-.05-2.256-.05-2.257-.05-2.256-.05-2.253-.05-2.254-.06-4.505-.11-8.999-.22-4.495-.11-2.245-.05-2.246-.05-.076-.01h-.513l-.241.01h-.26l-.286.01-.31.02-.323.01-.328.01-.357.02-.367.02-.373.02-.8.05-.836.05-.878.05-.909.06-.931.06-.485.02-.487.03-.478.03-.493.02-.507.03-.502.02-.496.02-.509.02-.509.02-.509.01-.508.02-.512.01-.517.01h-.508l-.512.01h-.515l-.247-.01h-.773l-.243-.01-.255-.01h-.267l-.24-.01-.252-.01-.263-.01-.236-.01-.249-.02-.26-.01-.246-.02-.244-.01-.257-.02-.242-.02-.241-.02-.253-.03-.239-.02-.251-.03-.25-.03-.234-.03-.248-.03-.232-.03-.246-.04-.244-.04-.244-.04-.242-.04-.227-.05-.257-.05-.241-.05-.24-.06-.239-.05-.239-.06-.239-.07-.239-.07-.256-.07-.238-.08-.239-.08-.257-.1-.216-.08-.135-.05-.164-.07-.129-.05-.095-.05-.131-.05-.129-.07-.131-.06-.13-.06-.131-.07-.131-.07-.097-.05-.132-.08-.166-.09-.131-.08-.099-.06-.133-.09-.133-.09-.132-.09-.164-.12-.105-.08-1.093-1.07-.787-1.31-.448-1.59.003-1.65.261-1.1h.003l.266-.66.091-.19.139-.25.081-.14.128-.21.149-.25.163-.26.176-.28.371-.59.37-.59.324-.51.321-.5.37-.59.382-.6.383-.6.383-.61.384-.6.385-.6.768-1.2.771-1.2.772-1.19.772-1.2.772-1.19.773-1.19.772-1.18 1.543-2.38.769-1.18.768-1.18.766-1.19.763-1.17.429-.67.427-.67.425-.66.424-.67.422-.67.42-.67.42-.67.417-.67.416-.67.416-.67.414-.68.412-.67.411-.68.411-.68.409-.67.408-.68.406-.68.405-.68.405-.68.403-.68.401-.68.403-.69.4-.68.399-.69.397-.68.397-.69.398-.68.395-.69.394-.69.394-.69.393-.69.392-.69.391-.69.391-.69.389-.69.39-.7.388-.69.388-.69.388-.7.385-.69.386-.7.386-.7.77-1.39.767-1.4.766-1.4.764-1.4.763-1.4.762-1.41.761-1.41.76-1.41.759-1.41.759-1.41.756-1.41.177-.33.2-.38.225-.43.248-.47.568-1.1.648-1.25.724-1.41.794-1.53.422-.82.438-.84.452-.87.466-.89.479-.92.492-.94.504-.95.516-.98.526-.99.537-1.01.545-1.02.555-1.03.563-1.04.568-1.04.289-.53.29-.53.29-.53.293-.53.293-.53.295-.53.297-.53.297-.53.298-.53.3-.53.3-.53.301-.53.303-.53.302-.53.304-.53.304-.52.304-.53.305-.52.305-.52.305-.52.306-.52.306-.51.305-.51.306-.5.306-.51.306-.5.305-.5.304-.49.305-.49.305-.49.304-.48.303-.47.303-.47.303-.47.301-.46.301-.46.301-.45.299-.45.299-.44.298-.43.298-.44.297-.42.295-.41.295-.42.292-.4.149-.2.145-.2.146-.19.147-.2.15-.2.143-.18.144-.19.148-.19.148-.19.145-.18.141-.18.148-.19.147-.18.143-.17.146-.18.146-.17.145-.18.146-.17.148-.17.145-.16.145-.17.148-.16.144-.16.149-.16.148-.16.148-.16.149-.15.148-.16.154-.15.149-.15.15-.14.155-.15.156-.15.15-.14.158-.14.165-.15.159-.13.162-.14.162-.14.163-.13.174-.13.175-.13.178-.13.181-.13.175-.12.187-.13.2-.12.204-.13.2-.11.205-.12.22-.12.226-.11.222-.1.24-.1.262-.11.256-.09.224-.08.177-.05.152-.05.126-.03.159-.04.161-.04.132-.02.167-.04.168-.03.138-.02.145-.02.329-.03.297-.04.297-.03.302-.03.298-.04.293-.03.298-.03.303-.03.299-.03.301-.02.593-.06.599-.05.599-.04.598-.05.601-.04.599-.04.597-.03.601-.04.601-.02.599-.03.6-.03.604-.02.601-.02.599-.01.603-.02.601-.01.603-.01.602-.01h3.012l.603.01.602.01.604.01.604.01.602.01.602.02.605.02.603.01.601.03.604.02.602.02.602.03.605.03.603.03.603.03.603.03.602.03.601.04.602.03.602.04.605.04.6.04.601.04.603.04.6.04.601.05.602.04.601.05.599.04.599.05.602.05.602.05 1.195.1 1.196.1 1.196.1 1.194.11 1.192.11 1.191.1 1.188.11 1.187.11 2.367.22 2.359.22 1.174.11 1.173.11 1.17.1 1.167.1 1.164.1 1.161.1 1.158.09.576.05.578.05.575.04.575.04.574.05.573.04.573.04.57.04.57.03.571.04.568.04.565.03.567.03.567.04.563.03.562.03.562.02.561.03.561.02.557.03.556.02.558.02.555.02.552.01.553.02.552.01.549.01.551.01.547.01.546.01h.945l.945.01h5.68l.947-.01.947-.01.946-.01.948-.01.949-.01.948-.01.947-.02.947-.01.949-.02.949-.02.948-.02.949-.02.949-.03.948-.02.949-.03.95-.02.95-.03.949-.03.95-.03.949-.03.949-.03.953-.03.95-.03.949-.04.951-.03.951-.04 1.903-.07 1.903-.07 1.904-.08 1.904-.08 1.906-.08 1.907-.09 1.906-.08 1.907-.09 1.908-.09 3.82-.17 3.822-.18 1.912-.09 1.913-.08 1.914-.09 1.915-.08 1.915-.09 1.918-.08 1.917-.08 1.918-.07 1.919-.08.961-.03.959-.04.961-.03.962-.04.958-.03.962-.03.963-.03.96-.03.962-.03.963-.03.962-.03.962-.03.963-.02.964-.02.963-.03.963-.02.964-.02.964-.02.965-.01.965-.02.964-.01.965-.02.965-.01.966-.01.965-.01.967-.01h.965l.968-.01H715.879l.968.01.968.01h.967l.971.01.968.02.969.01.971.02.969.02.97.01.969.03.971.02.973.03.969.03.972.03.973.03.971.04.973.04.966.04 2.275.55 1.89 1.38 1.219 2 .36 2.31-.552 2.28-1.381 1.89-1.999 1.22-2.313.36-.951-.04-.942-.04-.944-.04-.943-.03-.944-.03-.945-.03-.942-.02-.944-.03-.945-.02-.945-.02-.944-.02-.944-.01-.945-.01-.946-.02-.943-.01h-.946l-.946-.01-.944-.01h-3.784l-.945.01h-.947l-.946.01-.947.01-.947.01-.947.01-.947.01-.948.02-.947.01-.947.02-.948.02-.948.02-.948.02-.948.02-.948.03-.949.02-.949.03-.95.02-.947.03-.95.03-.951.03-.948.03-.949.03-.952.03-.95.04-.949.03-.952.04-.95.03-1.902.08-1.903.07-1.904.08-1.904.08-1.905.08-1.906.09-1.907.08-1.907.09-1.909.09-3.82.17-3.822.18-1.913.09-1.913.08-1.915.09-1.916.08-1.915.09-1.918.08-1.918.08-1.919.07-1.919.08-.961.03-.961.04-.962.03-.961.03-.959.04-.962.03-.964.03-.962.03-.962.03-.962.02-.963.03-.963.03-.964.02-.964.02-.964.02-.964.03-.964.01-.964.02-.966.02-.966.02-.966.01-.964.01-.966.01-.968.01-.966.01-.967.01H612.599l-.97-.01h-.97l-.588-.01-.588-.01-.586-.01-.59-.01-.588-.02-.589-.01-.592-.02-.59-.02-.588-.02-.591-.02-.592-.03-.591-.02-.59-.03-.592-.03-.592-.03-.593-.03-.591-.04-.591-.03-.595-.04-.592-.03-.591-.04-.593-.04-.595-.04-.592-.04-.593-.05-.593-.04-.594-.04-.594-.05-.592-.05-.595-.04-1.186-.1-1.187-.1-1.187-.1-1.186-.11-1.187-.1-1.186-.11-1.186-.11-2.368-.22-2.367-.22-1.181-.11-1.181-.11-1.178-.1-1.178-.11-1.176-.1-1.175-.11-1.173-.1-1.174-.09-.583-.05-.582-.05-.585-.04-.584-.05-.582-.04-.582-.05-.582-.04-.581-.04-.579-.04-.581-.04-.58-.04-.576-.04-.578-.03-.577-.03-.578-.04-.576-.03-.575-.03-.573-.03-.574-.03-.57-.02-.573-.03-.572-.02-.569-.02-.572-.02-.568-.02-.566-.02-.567-.01-.567-.01-.564-.02-.563-.01h-.563l-.563-.01H549.282l-.556.01-.553.01-.554.01-.552.01-.553.02-.55.02-.547.02-.549.02-.547.02-.545.03-.543.03-.546.03-.542.03-.538.04-.541.04-.536.04-.536.05-.541.05-.264.02-.267.03-.262.02-.266.03-.271.03-.266.03-.247.02-.013.01-.058.05-.055.05-.063.06-.072.07-.068.06-.071.07-.079.07-.08.08-.078.08-.084.09-.086.09-.088.09-.09.1-.091.1-.096.1-.094.11-.1.11-.101.12-.098.11-.103.12-.104.12-.106.13-.106.13-.111.14-.109.13-.109.13-.117.15-.114.15-.113.14-.113.15-.12.15-.12.16-.117.15-.119.16-.122.17-.123.16-.121.17-.251.34-.253.35-.256.37-.258.36-.261.38-.264.39-.267.39-.27.4-.271.41-.273.42-.276.42-.276.43-.28.43-.281.44-.281.45-.283.45-.285.46-.287.46-.287.47-.288.47-.288.47-.289.48-.292.49-.29.49-.29.49-.292.49-.292.5-.292.5-.292.5-.292.51-.291.5-.292.51-.291.51-.291.52-.291.51-.289.51-.289.52-.288.51-.288.52-.286.51-.286.52-.284.51-.283.52-.282.51-.279.51-.558 1.03-.549 1.01-.543 1.01-.534 1-.526.99-.516.97-.507.96-.496.94-.484.92-.472.9-.46.88-.447.86-.432.83-.417.81-.79 1.53-.723 1.4-.652 1.26-.576 1.11-.26.5-.241.47-.221.41-.198.37-.765 1.43-.763 1.42-.764 1.42-.765 1.42-.766 1.41-.768 1.42-.771 1.42-.772 1.41-.774 1.42-.778 1.41-.779 1.42-.391.7-.392.71-.393.71-.393.7-.394.71-.395.7-.396.71-.397.7-.397.71-.399.7-.4.71-.4.7-.402.7-.404.71-.403.7-.404.7-.406.7-.408.7-.409.7-.41.7-.41.7-.413.7-.414.7-.413.7-.417.7-.418.69-.419.7-.42.7-.421.69-.424.7-.425.69-.426.69-.427.7-.43.69-.431.69-.432.7-.435.69-.436.69-.437.69-.44.69-.441.68-.442.69-.773 1.2-.772 1.19-.773 1.19-.773 1.19-1.543 2.37-.77 1.18-.768 1.19-.767 1.18-.765 1.18-.763 1.18-.76 1.18-.201.32.37-.01h.447l.445-.01.452-.01.46-.01.461-.02.461-.01.46-.02.472-.02.464-.02.455-.02.465-.03.474-.02.458-.03.452-.03.918-.05.896-.05.875-.06.857-.05.823-.05.412-.02.396-.02.386-.02.391-.02.374-.01.362-.02.361-.01.361-.01h.351l.331-.01H490.695l.177.01z" fill="#fff"/></svg>