<svg viewBox="0 0 1921 1081" xmlns="http://www.w3.org/2000/svg" fill-rule="evenodd" clip-rule="evenodd" stroke-linecap="round" stroke-linejoin="round" stroke-miterlimit="2.566"><path fill="#fff" d="M.85.5h1920v1080H.85z"/><path d="M1447.89 456.643l1.04.41h.01l1.56 1.13 1.12 1.55v.01l.61 2.14.05.47.08.95.08.94.03.47.08.94.07.94.03.48.03.47.04.48.03.47.06.94.03.47.02.47.06.94.02.48.03.47.05.94.04.95.04.94.04.94.04.95.03.94.03.94.03.94.02.94.02.95.02.94.02.94.01.94.01.94.01.94.01.95.01.94v2.82l-.01.95v.94l-.01.94-.01.94-.02.94-.01.94-.01.94-.02.94-.02.94-.02.94-.02.94-.03.94-.02.94-.03.94-.03.94-.03.93-.03.94-.07 1.88-.03.94-.04.93-.04.94-.04.94-.04.93-.04.94-.04.94-.04.94-.05.93-.04.93-.09 1.87-.1 1.87-.09 1.87-.1 1.87-.1 1.86-.1 1.87-.21 3.72-.2 3.72-.11 1.86-.1 1.86-.1 1.85-.1 1.85-.09 1.85-.1 1.85-.09 1.85-.04.93-.05.92-.04.92-.04.93-.04.92-.04.92-.04.92-.04.92-.03.92-.04.92-.03.92-.04.92-.03.92-.03.91-.03.93-.03.91-.02.92-.03.91-.02.92-.02.91-.02.92-.02.91-.02.91-.01.92-.01.91-.02.91v.91l-.01.92-.01.9v3.64l.01.91.01.94.01.95.01.94.01.95.01.94.01.95.02.94.01.95.03 1.89.04 1.89.04 1.89.02.94.02.95.03.94.02.95.05 1.89.06 1.9.05 1.89.06 1.89.07 1.89.06 1.9.07 1.89.06 1.9.08 1.89.07 1.9.07 1.9.08 1.9.08 1.89.08 1.9.08 1.9.08 1.9.08 1.9.16 3.8.34 7.6.16 3.81.08 1.9.17 3.81.08 1.91.07 1.9.08 1.91.08 1.91.07 1.9.07 1.91.07 1.91.07 1.91.07 1.91.06 1.91.06 1.91.06 1.91.02.95.06 1.92.02.95.03.96.02.96.05 1.91.02.96.04 1.91.02.96.01.95.02.96.03 1.92.01.96.03 1.91.02 1.92.01.96v.96l.01 1.92.01.96v3.84l-.01 1.07v1.08l-.01 1.08v1.07l-.01 1.08-.01 1.08-.01 1.08-.01 1.07-.01 1.08-.01 1.08-.02 1.07-.01 1.08-.01 1.07-.02 1.08-.02 1.08-.01 1.07-.02 1.08-.02 1.08-.02 1.07-.02 1.08-.02 1.07-.03 1.08-.04 2.15-.05 2.15-.05 2.15-.06 2.15-.06 2.14-.06 2.15-.06 2.15-.06 2.15-.07 2.14-.07 2.15-.07 2.15-.07 2.15-.08 2.14-.07 2.15-.08 2.14-.08 2.14-.08 2.15-.08 2.14-.09 2.15-.08 2.14-.08 2.14-.18 4.29-.17 4.28-.17 4.28-.18 4.28-.18 4.29-.17 4.28-.17 4.27-.09 2.14-.08 2.14-.09 2.14-.08 2.14-.08 2.13-.08 2.14-.08 2.14-.08 2.14-.07 2.13-.08 2.14-.07 2.14-.07 2.13-.07 2.14-.06 2.13-.07 2.14-.06 2.13-.06 2.14-.06 2.13-.03 1.39-.04 1.39-.03 1.39-.04 1.39-.03 1.39-.03 1.39-.03 1.39-.03 1.39-.03 1.39-.03 1.39-.03 1.39-.02 1.39-.03 1.4-.02 1.39-.05 2.78-.05 2.78-.04 2.78-.04 2.78-.04 2.79-.03 2.78-.03 2.78-.03 2.79-.03 2.78-.03 2.78-.02 2.79-.03 2.78-.02 2.79-.02 2.78-.02 2.79-.01 2.78-.02 2.79-.01 2.79-.02 2.78-.01 2.79-.01 2.78-.02 5.58-.02 5.57-.01 1.47V936.483l.01 1.47.01 1.47v1.47l.01 1.47.01 1.47.03 2.94.02 2.95.02 2.9v.04l.01.12.01.38.01.54.01.31v.3l.01.33v.81l-.01.17v.15l-.01.18-.01.25-.03.26-.03.25-.06.38-.11.42-.06.18-.18.52-.01.01-.74 1.3-.56.65-1.95 1.3-2.29.46h.75l.24-.06.28-.08-.28.08-.23.06h-.04l-.27.07-.29.07-.24.06-.27.06-.29.06-.27.06-.26.06-.28.06-.27.05-.26.06-.27.05-.27.05-.28.05-.27.05-.27.05-.29.05-.28.05-.25.04-.27.04-.28.05-.27.04-.3.04-.25.04-.28.04-.3.04-.25.03-.28.04-.28.03-.28.04-.27.03-.28.03-.28.03-.26.03-.28.03-.3.03-.26.02-.28.03-.3.02-.52.05-.28.02-.31.02-.28.02-.26.02-.29.02-.28.02-.28.01-.27.02-.28.01-.31.02-.26.01-.26.01-.29.01-.29.02-.28.01-.56.01-.57.02-.56.01h-.56l-.56.01H1423.62l-.57-.01h-.56l-.57-.02-.58-.01-.56-.02-.56-.01-.57-.03-.56-.02-.58-.02-.57-.03-.55-.03-.58-.03-.57-.03-.56-.04-.57-.03-.57-.04-.57-.04-.57-.05-.56-.04-.56-.04-.58-.05-.57-.05-.56-.05-.56-.05-.58-.05-.56-.05-.56-.06-.57-.05-.56-.06-.56-.06-.57-.05-.56-.06-.55-.06-.57-.06-.57-.06-1.12-.13-1.11-.13-1.11-.13-1.11-.13-1.11-.13-1.1-.13-2.19-.26-1.09-.13-1.08-.13-1.08-.12-1.08-.13-1.06-.12-1.06-.12-1.06-.12-.52-.05-.51-.06-.53-.05-.52-.06-.51-.05-.52-.05-.51-.05-.52-.05-.5-.05-.5-.04-.51-.05-.51-.04-.49-.04-.5-.04-.5-.04-.49-.04-.49-.03-.5-.03-.47-.04-.48-.02-.5-.03-.47-.03-.47-.02-.47-.02-.47-.02-.47-.02-1-.03-1-.04-1-.03-1-.03-1-.03-1-.03-1-.03-.99-.03-1-.02-1-.03-1.01-.03-1-.02-.99-.02-1.01-.03-1-.02-1-.02-1-.02-1-.02-2-.04-2-.03-2.01-.03-2-.03-2-.03-2.01-.02-2-.02-2.01-.02-2-.02-2.01-.01-2.01-.01-2-.01-2.01-.01-2-.01-2.01-.01h-2.01l-2.01-.01H1302.32l-4.03.01h-10.07l-2.01-.01h-2.02l-2.01-.01h-2.02l-2.01-.01-2.02-.01-2.02-.01-2.01-.01-2.02-.01-2.02-.01-2.01-.02-2.02-.02-2.02-.02-2.02-.03-2.02-.03-2.02-.02-2.02-.04-2.01-.03-1.02-.02-1.01-.02-1.01-.02-1.01-.02-1.01-.02-1.01-.03-2.11-.04-2.12-.05-2.11-.04-2.11-.05-2.11-.04-2.12-.04-2.11-.05-2.11-.04-2.12-.04-2.11-.03-2.12-.04-2.11-.04-2.11-.03-2.12-.04-2.11-.03-2.11-.03-2.12-.03-2.11-.03-2.11-.03-2.12-.03-2.11-.03-2.12-.03-2.11-.03-2.11-.02-2.11-.02-2.12-.03-2.11-.02-2.12-.02-2.11-.02-2.11-.02-2.12-.02-2.11-.02-2.12-.02-2.11-.02-2.11-.01-2.12-.02-4.22-.03-4.23-.02-4.23-.03-4.23-.02-4.22-.02-4.23-.01-4.23-.01-4.23-.01-4.23-.01-4.23-.01h-12.68l-4.23.01h-4.23l-4.23.01-4.23.01-4.23.01-4.22.02-4.23.01-4.23.02-4.23.02-4.23.02-4.23.02-4.23.02-4.23.02-4.23.03-4.23.03-4.24.02-4.22.03-4.24.03-4.23.03-8.46.06-8.47.07-8.46.06-8.47.07-8.462.07-16.933.14h-.854l-.851.01-.85.01-.851.01-.85.01-.857.01-.851.02-.85.01-.85.01-.85.02-.85.01-.85.02-1.71.04-1.704.03-1.702.04-1.703.05-1.706.04-1.706.05-1.705.05-1.706.05-1.705.05-1.71.06-1.708.06-1.705.05-1.705.06-1.712.06-1.712.06-1.706.07-3.418.12-6.848.25-3.425.13-3.427.12-1.718.07-1.711.06-1.716.06-1.718.05-1.716.06-1.72.05-1.717.06-1.72.05-1.72.05-1.718.04-1.72.05-1.721.04-1.72.04-1.723.04-1.727.03-.86.02-.856.02-.865.01-.863.02-.863.01-.864.01-.864.01-.864.01-.863.01-.864.01-.857.01-.864.01h-.871l-.864.01h-1.721l-.871.01h-1.73l-.864-.01h-1.729l-.864-.01h-.872l-.864-.01-.865-.01-.866-.01-.864-.01-.872-.01-.865-.01-.865-.02-.872-.01-.872-.02-.862-.02-2.245-.05-2.247-.05-2.25-.04-2.246-.05-2.245-.04-2.248-.05-2.246-.04-2.247-.04-2.248-.04-2.247-.04-2.248-.04-2.247-.04-2.247-.03-2.245-.04-2.25-.03-2.25-.04-2.243-.03-2.25-.03-2.248-.03-2.247-.03-2.251-.03-2.248-.03-2.244-.03-2.25-.02-2.25-.03-2.247-.02-2.248-.03-2.248-.02-2.247-.02-2.251-.02-2.248-.02-2.247-.02-4.498-.04-4.498-.04-4.5-.03-4.496-.03-4.498-.02-4.498-.03-4.5-.02-4.497-.02-4.5-.02-4.498-.01-4.501-.02-4.5-.01-4.498-.01-4.5-.01-4.5-.01h-4.501l-4.5-.01H707.947l-4.5-.01h-9.002l-9.003.01h-18.006l-9.003.01H640.424l-9.005.01-4.504-.01h-13.507l-4.502-.01h-4.502l-4.504-.01-4.503-.01-4.502-.01-4.502-.02-4.504-.01-4.5-.02h-6.77l-1.125.01-1.127.01-1.13.01-1.132.01-1.125.01-1.131.01-1.131.02-1.126.01-1.131.02-1.131.02-1.125.02-1.132.02-1.136.02-1.125.02-1.127.03-1.135.02-1.132.03-1.13.02-1.131.03-1.126.03-1.131.03-1.136.03-1.13.03-1.132.04-1.136.03-1.128.03-2.264.07-2.267.08-2.263.07-2.264.08-2.267.08-2.27.08-2.265.09-2.27.08-2.268.09-2.266.09-4.541.18-4.541.17-4.524.18h-.1l-.11.01-.153.01-.176.02-.223.02-.242.02-.261.03-.278.03-.294.03-.314.04-.692.08-.735.09-.792.1-.84.1-.88.11-.905.11-.94.11-.476.05-.476.06-.503.05-.491.06-.48.05-.493.05-.505.05-.503.05-.503.05-.5.04-.497.04-.506.05-.504.03-.487.04-.494.03-.504.03-.248.01-.222.02-.247.01-.244.01-.244.01-.241.01-.24.01-.267.01h-.208l-.236.01H485.31l-.254-.01h-.221l-.22-.01-.218-.01-.215-.01-.248-.01-.213-.02-.213-.01-.247-.02-.245-.03-.208-.02-.21-.02-.245-.04-.247-.03-.207-.04-.212-.03-.247-.05-.251-.05-.262-.06-.215-.06-.257-.07-.258-.08-.098-.03-.196-.06-.1-.04-.068-.02-.203-.08-.2-.08-.09-.04-.088-.04-.213-.1-.112-.06-.192-.09-.213-.12-.095-.06-.126-.07-.126-.08-.192-.13-.224-.16-.133-.1-.187-.15-.191-.17-.053-.04-.387-.39-.01-.01-.522-.66-.085-.12-.095-.15-.026-.05-.343-.64-.01-.02-.05-.11-.116-.28-.06-.18-.061-.17-.1-.34-.062-.25-.05-.23-.048-.24-.038-.23-.026-.18-.025-.18-.024-.2-.02-.2-.016-.17-.015-.17-.013-.17-.012-.18-.012-.2-.011-.2-.008-.19-.007-.16-.008-.19-.008-.22-.01-.4-.008-.41-.005-.43-.005-.45-.001-.46v-.47l.003-.48.005-.5.006-.51.007-.52.009-.54.01-.53.012-.56.013-.56.013-.57.015-.57.032-1.17.035-1.19.038-1.21.04-1.22.08-2.42.08-2.38.037-1.15.035-1.13.032-1.08.028-1.04.012-.5.012-.49.01-.47.009-.45.007-.44.006-.41.003-.4.003-.39V927.273l-.002-.3-.005-.3-.012-.71-.012-.72-.011-.72-.01-.72-.01-.72-.007-.72-.007-.72-.006-.72-.005-.72-.004-.72-.003-.72-.002-.72-.001-.72-.001-.71v-1.44l.003-.73.002-.71.007-1.44.01-1.44.014-1.43.015-1.44.018-1.43.02-1.44.023-1.43.023-1.43.027-1.43.027-1.43.03-1.43.03-1.44.032-1.43.034-1.42.033-1.44.07-2.85.073-2.85.145-5.7.07-2.85.036-1.42.034-1.42.033-1.42.032-1.42.03-1.42.029-1.42.028-1.41.027-1.42.024-1.42.022-1.41.02-1.42.018-1.41.016-1.42.013-1.41.01-1.41.008-1.42.002-.7.002-.71.002-.7v-1.41l-.002-.7-.002-.71-.002-.71-.004-.7-.004-.71-.006-.7-.007-.7-.007-.71-.008-.7-.01-.7-.01-.7-.012-.71-.013-.7-.013-.71-.015-.7-.015-.7-.016-.7-.02-.7-.018-.71-.02-.7-.021-.7-.022-.7-.024-.7-.033-.94-.036-.93-.038-.94-.038-.94-.041-.93-.043-.93-.044-.94-.046-.93-.048-.94-.05-.94-.051-.93-.052-.94-.054-.94-.055-.93-.058-.94-.058-.94-.06-.94-.061-.93-.063-.94-.064-.94-.066-.94-.066-.94-.067-.93-.07-.94-.07-.94-.071-.94-.072-.94-.072-.93-.075-.94-.075-.94-.076-.94-.077-.94-.078-.94-.078-.94-.08-.94-.081-.94-.162-1.89-.165-1.87-.17-1.89-.168-1.88-.172-1.88-.173-1.89-.174-1.89-.176-1.88-.353-3.78-.354-3.78-.177-1.89-.176-1.89-.174-1.89-.174-1.89-.173-1.9-.17-1.9-.17-1.89-.164-1.9-.164-1.9-.081-.95-.08-.95-.08-.95-.077-.95-.078-.95-.077-.95-.075-.95-.075-.95-.074-.96-.072-.95-.071-.95-.071-.95-.07-.95-.068-.96-.067-.96-.065-.95-.065-.95-.063-.96-.061-.95-.061-.95-.06-.96-.057-.96-.056-.95-.054-.96-.052-.96-.052-.95-.05-.96-.048-.96-.046-.95-.044-.96-.044-.96-.04-.96-.04-.96-.037-.96-.035-.96-.034-.96-.03-.96-.03-.96-.027-.96-.026-.96-.022-.96-.021-.96-.02-.97-.015-.96-.015-.97-.011-.96-.01-.96-.007-.97-.004-.96-.002-.97v-1.05l.002-1.05.003-1.05.006-1.06.008-1.05.009-1.05.012-1.05.013-1.05.015-1.05.016-1.06.019-1.05.02-1.05.02-1.05.024-1.05.026-1.05.026-1.05.028-1.05.029-1.05.03-1.05.034-1.05.034-1.05.035-1.05.037-1.04.038-1.06.039-1.04.04-1.05.043-1.05.043-1.05.044-1.04.046-1.05.047-1.05.048-1.05.049-1.05.05-1.04.05-1.05.053-1.05.053-1.04.055-1.05.056-1.05.055-1.05.057-1.04.058-1.05.059-1.04.059-1.05.06-1.05.062-1.04.124-2.09.127-2.09.13-2.09.132-2.09.134-2.09.136-2.08.138-2.09.139-2.08.14-2.09.143-2.08.142-2.09.287-4.16.287-4.17.287-4.16.142-2.08.142-2.08.14-2.08.14-2.08.138-2.07.136-2.08.134-2.07.132-2.08.13-2.07.128-2.08.125-2.07.06-1.04.06-1.04.062-1.03.058-1.04.058-1.03.058-1.04.056-1.03.055-1.04.055-1.03.053-1.04.053-1.03.05-1.04.052-1.03.049-1.04.049-1.03.047-1.04.046-1.03.045-1.04.044-1.03.042-1.03.04-1.04.04-1.03.04-1.04.038-1.03.036-1.03.033-1.03.03-.92.029-.92.027-.93.026-.92.024-.92.023-.92.022-.92.02-.92.02-.92.019-.93.017-.92.017-.92.014-.92.014-.93.012-.92.012-.93.01-.92.009-.92.009-.93.007-.92.007-.93.004-.92.004-.92.003-.93.003-.92V555.053l-.001-.92-.003-.92-.004-.93-.004-.93-.005-.92-.006-.93-.007-.92-.008-.93-.01-.92-.008-.93-.01-.93-.012-.92-.011-.93-.013-.93-.027-1.85-.03-1.85-.033-1.86-.035-1.86-.038-1.85-.041-1.85-.043-1.86-.045-1.86-.046-1.86-.05-1.85-.051-1.86-.052-1.86-.054-1.86-.055-1.86-.058-1.85-.058-1.86-.06-1.87-.06-1.85-.062-1.86-.062-1.87-.063-1.86-.128-3.72-.13-3.72-.131-3.73-.13-3.72-.13-3.73-.127-3.73-.062-1.86-.062-1.86-.061-1.87-.06-1.86-.058-1.87-.058-1.86-.056-1.87-.054-1.86-.052-1.86-.051-1.87.394-2.3 1.247-1.99 1.91-1.35 2.283-.52 2.307.4 1.982 1.24 1.353 1.91.085.37.119-.09 2.259-.61 1.069-.08 1.074-.07 1.074-.07 1.074-.07 1.074-.07 1.073-.06 1.068-.06 1.073-.07 1.073-.06 1.068-.06 1.072-.05 1.073-.06 1.072-.05 1.067-.05 1.067-.05 1.078-.05 1.067-.05 1.066-.05 1.072-.04 1.072-.04 1.066-.04 1.066-.04 1.072-.04 1.066-.04 1.07-.03 1.067-.04 1.066-.03 1.07-.03 1.066-.03 1.065-.03 1.07-.03 1.067-.02 1.065-.03 1.065-.02 1.065-.03 1.065-.02 1.065-.02 1.07-.02 1.065-.02 1.065-.01 1.064-.02 1.06-.02 1.07-.01 1.065-.01 1.058-.02 1.07-.01 1.065-.01 1.06-.01 1.064-.01 1.064-.01h1.065l1.064-.01 2.123-.01 2.126-.01 2.123-.01h8.497l4.242.02h2.123l4.242.02 2.12.02 2.12.01 8.479.05 4.239.02 6.359.04 2.117.01 4.236.01 2.118.01H609.875l2.12-.01 2.123-.01 1.055-.01 1.059-.01h1.063l1.059-.01 1.059-.01 1.06-.01 1.059-.01 1.062-.01 2.418-.03 2.42-.03 2.417-.02 2.418-.03 2.42-.02 2.417-.03 2.42-.02 2.419-.02 2.419-.02 2.418-.01 2.415-.02 2.419-.02 2.417-.02 2.419-.01 2.419-.01 2.416-.02 2.418-.01 2.417-.01 2.415-.01 2.42-.01 2.419-.01 4.83-.01 2.419-.01 4.833-.01 4.833-.01 4.833-.01h14.495l4.832.01h4.832l4.832.01 4.83.01 4.83.01 4.832.02 4.829.01 4.83.02 4.83.02 9.658.04 4.83.01 19.316.09 19.315.1 9.656.04 9.657.05 4.827.02 4.829.02 9.656.04 4.829.01 4.826.02 4.828.01 4.829.01 4.829.01 4.827.01 4.829.01 9.657.01h9.656l4.828-.01 4.83-.01 4.83-.01h2.414l2.413-.01 2.417-.01 2.414-.01 2.415-.01h2.414l2.415-.02 2.416-.01 3.083-.01 3.083-.02 3.084-.02 3.084-.02 3.082-.02 3.085-.03 3.084-.02 3.082-.02 3.085-.03 3.084-.03 3.084-.03 3.085-.03 3.085-.03 3.084-.03 3.083-.03 3.084-.04 3.087-.03 3.085-.04 3.085-.04 3.084-.03 3.085-.04 3.08-.04 3.09-.04 3.09-.04 3.08-.04 3.09-.05 6.17-.09 6.17-.08 6.17-.1 6.17-.09 6.18-.1 6.17-.1 6.17-.1 6.18-.1 6.17-.1 6.17-.11 6.18-.1 12.35-.21 12.35-.21 12.35-.21 6.18-.11 6.17-.1 6.18-.1 6.17-.11 6.18-.1 6.18-.09 6.18-.1 6.17-.09 6.18-.09 6.18-.09 6.18-.09 3.09-.04 3.09-.04 3.08-.04 3.09-.04 3.1-.04 3.08-.04 3.09-.04 3.09-.04 3.09-.03 3.09-.04 3.09-.03 3.09-.03 3.09-.03 3.09-.03 3.09-.03 3.09-.03 3.09-.03 3.09-.02 3.09-.03 3.09-.02 3.09-.02 3.09-.02 3.09-.02 3.09-.02 3.09-.02 3.09-.01 3.09-.02 3.09-.01 3.09-.01 3.09-.01 3.09-.01h3.09l3.09-.01h3.09l3.09-.01h3.09l6.18.01 6.18.01 6.18.02 3.09.01 3.09.02 3.09.01 3.09.02 2.9.02 2.89.02 2.89.02 2.89.03 2.9.03 2.89.03 2.9.03 2.89.04 2.9.03 2.89.05 2.9.04 2.89.04 2.9.05 2.89.05 2.9.05 2.89.06 2.9.06 2.9.06 2.89.07 2.9.06 2.89.07 2.9.07 2.9.08 2.89.08 2.89.08 2.9.08 2.89.09 2.9.09 5.78.19 1.45.05 1.45.05 1.44.05 1.44.05.73.02.73.03.73.03 2.17.09.74.03.72.03.72.03.73.04 1.45.07 1.45.07 1.45.07 1.45.08 1.45.08 2.89.17 1.45.09 1.45.09 1.44.09 1.39.09.16.01.45.02.61.02.36.02.39.02.37.02.36.02.35.02.32.03.18.01.18.01.11.02.22.02.24.03.67.14-.12-.04.09.02.21.06zm-154.9 8.38l-3.08.01h-3.09l-3.08.01h-3.08l-3.09.01-3.08.01-3.09.01-3.08.01-3.09.02-3.08.01-3.08.02-3.09.02-3.09.02-3.08.02-3.08.02-3.09.02-3.08.03-3.09.02-3.09.03-3.08.03-3.08.03-3.09.03-3.09.03-3.08.03-3.09.03-3.08.04-3.09.03-3.08.04-3.09.04-3.09.04-3.08.03-3.09.05-3.09.03-3.08.05-3.09.04-6.17.08-6.17.09-6.18.1-6.17.09-6.17.1-6.18.09-6.17.1-6.17.1-6.18.11-6.17.1-6.18.1-12.35.21-12.35.22-12.35.21-6.17.1-6.18.11-6.17.1-6.18.1-6.18.1-6.17.1-6.18.1-6.18.09-6.17.09-6.18.09-6.18.09-3.08.04-3.09.05-3.09.04-3.09.04-3.087.04-3.09.04-3.086.03-3.09.04-3.088.04-3.087.03-3.088.04-3.091.03-3.087.03-3.09.03-3.088.03-3.088.03-3.088.03-3.088.03-3.09.02-3.088.02-3.09.03-3.09.02-3.086.02-3.088.02-3.09.02-3.088.01-2.418.01-2.42.01-2.42.01-2.418.01-2.42.01-2.416.01-2.418.01h-2.421l-4.834.01-4.836.01-4.835.01h-14.504l-4.834-.01-4.833-.01-4.833-.01-4.833-.01-4.832-.01-4.832-.01-4.832-.02-4.831-.01-4.83-.02-4.83-.02-4.832-.02-4.828-.02-9.661-.05-9.657-.04-9.658-.05-9.657-.05-9.655-.04-9.655-.05-4.827-.01-4.828-.02-4.827-.02-4.826-.02-4.828-.02-4.827-.01-4.825-.02-4.828-.01-4.826-.01-4.825-.01h-4.827l-4.826-.01h-14.48l-4.825.01-4.828.01-4.824.01-2.411.01-4.83.01-2.413.01-2.411.01-2.415.01-2.413.01-2.412.01-2.416.02-2.411.01-2.413.01-2.413.02-2.413.02-2.416.02-2.413.01-2.414.02-2.413.02-2.411.02-2.413.03-2.415.02-2.413.03-2.416.02-2.411.03-2.415.02-1.07.02-1.07.01-1.07.01-1.07.01-1.07.01h-1.063l-1.07.01-1.072.01-2.132.01-2.133.01H599.26l-2.13-.01-2.127-.01h-2.125l-2.128-.01-2.123-.01-4.244-.03-4.242-.02-4.238-.03-4.237-.02-2.118-.01-2.115-.02-2.115-.01-2.116-.01h-2.111l-2.116-.01-2.115-.01h-8.443l-2.111.01-2.11.01-2.111.01-1.054.01h-1.054l-1.053.01-1.053.01-1.06.01-1.052.01-1.05.01-1.057.01-1.053.02-1.05.01-1.06.02-1.052.01-1.054.02-1.054.02-1.047.02-1.054.02-1.054.02-1.054.02-1.054.03-1.055.02-1.055.03-1.048.03-1.054.02-1.055.03-1.05.03-1.054.04-1.054.03-1.05.04-1.054.03-1.05.04-1.055.04-1.055.04-1.051.04-1.05.04-1.054.05-1.056.04-1.045.05-1.056.05-1.056.05-1.051.06-1.05.05-1.051.06-1.057.05-1.051.06-1.051.06-1.057.07-1.052.06-1.052.07-1.052.06-1.052.07-1.052.07-1.058.08-2.323-.3-.197-.11.01.33.059 1.86.059 1.85.06 1.86.062 1.86.062 1.86.127 3.72.13 3.72.13 3.72.13 3.73.13 3.72.129 3.73.063 1.87.063 1.87.06 1.86.062 1.87.06 1.87.058 1.86.058 1.87.056 1.87.054 1.87.053 1.86.052 1.87.049 1.87.047 1.87.045 1.88.043 1.86.04 1.88.039 1.87.036 1.87.033 1.87.03 1.87.028 1.87.013.94.023 1.87.02 1.88.009.93.008.94.006.94.012 1.87.004.94.004.93.003.94.002 1.88v.93l-.001.94-.003.94-.003.93-.004.94-.005.94-.007.94-.006.93-.01.94-.008.94-.011.94-.012.94-.013.93-.013.94-.015.94-.017.94-.018.93-.018.94-.02.94-.021.94-.022.94-.024.93-.025.94-.026.94-.028.94-.028.93-.031.94-.034 1.05-.037 1.05-.038 1.05-.04 1.05-.04 1.05-.042 1.04-.042 1.05-.045 1.05-.046 1.05-.046 1.04-.048 1.05-.05 1.05-.05 1.04-.05 1.05-.053 1.05-.053 1.05-.054 1.04-.055 1.05-.055 1.04-.057 1.05-.058 1.05-.06 1.04-.058 1.05-.061 1.04-.061 1.04-.061 1.05-.126 2.09-.128 2.09-.132 2.09-.133 2.08-.134 2.09-.137 2.09-.14 2.09-.14 2.08-.14 2.08-.141 2.09-.143 2.08-.287 4.17-.288 4.16-.286 4.16-.142 2.08-.141 2.08-.141 2.08-.138 2.08-.137 2.07-.136 2.08-.133 2.08-.132 2.07-.128 2.07-.127 2.08-.123 2.07-.061 1.04-.06 1.04-.058 1.03-.058 1.04-.058 1.04-.056 1.03-.056 1.04-.055 1.03-.053 1.04-.053 1.03-.051 1.04-.051 1.04-.05 1.03-.048 1.04-.047 1.03-.047 1.03-.044 1.04-.044 1.03-.043 1.04-.042 1.03-.04 1.03-.038 1.04-.038 1.03-.036 1.04-.035 1.03-.034 1.03-.031 1.03-.03 1.04-.03 1.03-.027 1.03-.026 1.04-.025 1.03-.022 1.03-.022 1.03-.02 1.03-.017 1.03-.017 1.04-.014 1.03-.013 1.03-.011 1.03-.01 1.03-.007 1.03-.006 1.03-.004 1.03-.001 1.03v1.97l.006.93.007.94.01.93.01.93.015.94.015.93.018.94.02.93.023.94.025.93.026.94.029.93.029.94.033.93.035.94.036.94.038.93.04.94.042.93.044.94.045.93.046.94.05.93.05.94.05.94.054.94.055.93.056.94.058.93.06.94.06.94.062.94.128 1.88.066.93.068.94.068.94.069.94.142 1.88.073.93.073.94.075.94.076.94.076.94.078.94.158 1.88.079.94.163 1.88.164 1.88.167 1.88.17 1.89.17 1.88.348 3.77.175 1.89.177 1.89.707 7.55.176 1.89.175 1.9.175 1.89.172 1.9.17 1.89.17 1.9.167 1.89.163 1.9.082.95.08.95.08.95.079.95.155 1.9.15 1.91.075.95.145 1.9.07.96.07.95.07.95.134 1.9.065.96.064.96.062.95.06.96.119 1.9.057.96.055.96.053.95.052.96.05.95.05.96.048.96.044.96.044.95.042.97.04.95.038.96.037.96.033.96.025.73.046 1.44.02.72.019.72.019.72.017.73.016.72.015.71.013.73.013.72.012.72.01.72.01.72.009.72.008.71.007.73.006.72.003.72.004.72.003.72.002.71.002.72v1.44l-.002.72-.002.72-.003.72-.006 1.43-.011 1.44-.014 1.44-.016 1.43-.018 1.43-.02 1.44-.023 1.43-.024 1.43-.027 1.43-.028 1.44-.03 1.42-.03 1.43-.032 1.44-.034 1.42-.034 1.43-.034 1.43-.072 2.85-.145 5.7-.072 2.85-.07 2.84-.034 1.42-.033 1.43-.032 1.42-.03 1.42-.03 1.41-.026 1.42-.027 1.42-.023 1.42-.022 1.41-.02 1.42-.018 1.41-.015 1.42-.013 1.41-.01 1.41-.007 1.42-.003.7-.001.71-.001.7v2.12l.003.7.008 1.42.005.7.006.7.007.71.007.7.009.71.01.7.01.7.012.71.013.72.005.34.003.39v.8l-.003.42-.004.44-.006.46-.008.47-.01.49-.01.49-.012.51-.013.52-.03 1.06-.032 1.11-.035 1.14-.037 1.17-.08 2.39-.081 2.42-.04 1.2-.036 1.19-.035 1.17-.031 1.15-.014.55-.014.56-.012.53-.011.54-.01.52-.01.49-.005.49-.006.48-.004.45v.1h.238l.19-.01.192-.01.194-.01.197-.01.198-.01.226-.01.203-.01.409-.02.427-.03.445-.04.436-.03.438-.03.455-.04.456-.04.456-.05.456-.04.456-.05.467-.05.476-.05.462-.05.446-.05.466-.05.46-.05.9-.11.89-.11.857-.1.832-.1.803-.1.77-.09.716-.09.349-.04.343-.04.327-.03.313-.03.299-.04.285-.02.298-.03.283-.02.288-.02.165-.01h.097l4.556-.18 4.54-.18 4.544-.17 2.274-.09 2.275-.09 2.274-.08 2.276-.09 2.274-.08 2.277-.08 2.279-.08 2.279-.08 2.277-.07 2.28-.07 1.144-.04 1.135-.03 1.142-.03 1.14-.03 1.137-.03 1.14-.04 1.148-.03 1.14-.02 1.142-.03 1.142-.03 1.135-.02 1.147-.03 1.146-.02 1.136-.02 1.142-.02 1.146-.02 1.14-.02 1.143-.02 1.146-.01 1.142-.02 1.14-.01 1.147-.01 1.142-.01 1.14-.01 1.148-.01h1.146l1.146-.01h5.715l4.502.02 4.498.01 4.497.02 4.5.01 4.497.01 4.499.01 8.999.01H626.92l4.5.01 9-.01H658.426l9.004-.01H685.437l9.005-.01h9.006l9.007.01 9.007.01h4.504l4.503.01 9.009.02 9.008.03 4.504.01 4.504.02 4.506.02 4.504.02 4.504.03 4.506.02 4.505.03 4.506.04 4.503.03 4.504.04 2.255.02 2.252.02 2.25.02 2.254.02 2.253.02 2.253.03 2.254.02 2.25.03 2.253.02 2.255.03 2.253.03 2.25.03 2.254.03 6.757.09 2.254.04 2.25.03 2.255.04 4.505.07 4.506.08 4.505.08 2.25.05 2.254.04 2.255.04 2.253.05 2.249.05 2.253.04 2.255.05.855.02.845.02.845.02 1.703.02.844.01.85.01.853.01.85.01.852.01h.845l1.7.01 1.703.01h1.7l.845-.01H882.616l.85-.01h.844l.85-.01.857-.01.85-.01.85-.01.85-.01.85-.01.85-.01.85-.01.85-.02.85-.01.857-.02.853-.01 1.7-.04 1.702-.03 1.706-.04 1.702-.05 1.706-.04 1.705-.05 1.706-.05 1.705-.05 1.705-.05 1.705-.06 1.709-.05 1.705-.06 1.708-.06 1.71-.06 1.706-.06 3.42-.12 3.422-.13 6.844-.25 3.429-.13 1.716-.06 1.712-.06 1.712-.06 1.718-.06 1.719-.06 1.716-.05 1.716-.06 1.719-.05 1.719-.05 1.719-.06 1.72-.04 1.72-.05 1.723-.04 1.723-.04 1.724-.04 1.716-.04.865-.01.863-.02.864-.02.864-.01.864-.01.864-.02.856-.01.865-.01.864-.01.864-.01.865-.01h.86l16.938-.14 8.47-.07 8.47-.07 8.46-.06 8.47-.07 8.47-.06 4.23-.03 4.23-.03 4.24-.03 4.23-.02 4.23-.03 4.24-.03 4.23-.02 4.24-.02 4.23-.02 4.23-.02 4.24-.02 4.23-.02 4.23-.01 4.24-.02 4.23-.01 4.24-.01 4.23-.01h4.24l4.23-.01h12.71l8.46.02 4.24.01 4.23.01 4.24.01 4.24.02 4.23.02 4.24.03 4.23.02 4.24.03 2.12.02 2.12.01 2.11.02 2.12.02 4.24.04 2.11.02 4.24.04 4.24.05 2.12.02 2.12.03 6.35.08 4.24.06 6.36.09 2.12.04 2.11.03 2.12.03 4.24.08 4.24.08 2.12.03 2.12.05 2.12.04 2.12.04 2.12.05 2.12.04 2.12.05 2.11.05 1.01.02 2 .04 1 .02 1 .02 1 .02 2 .03 2 .04 2.01.02 2 .03 2.01.03 2 .02 2.01.02 2 .02 2 .01 4.02.02 4.01.02 4.02.01 4.02.01 4.01.01h8.05l4.02-.01h20.13l2.02.01 4.03.01 2.01.01 2.02.01 2.02.01 2.01.01 2.02.01 4.03.04 2.02.02 2.02.03 2.02.02 2.02.03 2.02.03 2.02.04 2.02.03 1.01.02 1.01.02 1.01.02 1.01.03 1.01.02 1.01.02 1.01.03 1.01.02 1.01.03 1.01.03 1.01.02 1.01.03 1.01.03 2.03.07 1.01.03 1.01.03 1.01.04.52.02.52.02.52.02.53.03.52.03.51.03.53.03.54.03.52.04.53.04.53.04.53.04.53.04.54.04.53.05.52.05.54.04.55.05.53.06.54.05.53.05.54.05.54.06.54.06.55.05.54.07 1.08.11 1.08.13 1.1.12 1.09.13 1.08.13 1.1.13 1.09.13 2.19.26 1.09.13 1.1.13 1.09.12 1.1.13 1.09.13 1.09.12.54.06.54.05.55.06.55.06.54.05.54.06.54.05.55.06 1.08.1.53.05.55.05.54.05.53.04.53.04.54.05.54.04.53.04.53.04.53.03.53.04 1.06.06.52.03.53.03.53.02.51.02.52.02.53.02.52.02.52.01.51.02.5.01h.52l.51.01h2.02l.51-.01.5-.01.49-.01.5-.02.24-.01.24-.01.24-.01.27-.01.26-.01.21-.01.24-.01.27-.02.23-.01.24-.02.24-.01.26-.02.24-.02.21-.01.24-.02.51-.05.21-.01.24-.03.25-.02.21-.02.24-.02.25-.03.23-.03.24-.02.23-.03.23-.03.23-.03.22-.03.26-.03.2-.03.23-.03.25-.03.21-.04.22-.03.23-.04.22-.03.1-.02-.01-1.26-.02-2.95-.03-2.95-.01-1.47-.01-1.48v-1.48l-.01-1.48-.01-1.48v-5.93l.01-1.48.02-5.58.02-5.58.01-2.79.02-2.79.01-2.78.01-2.8.02-2.79.01-2.79.02-2.79.02-2.79.02-2.79.03-2.79.02-2.8.03-2.79.03-2.79.03-2.79.03-2.8.03-2.79.04-2.79.04-2.8.05-2.79.04-2.79.05-2.8.02-1.4.03-1.39.03-1.4.02-1.4.03-1.39.03-1.4.03-1.4.03-1.4.03-1.39.04-1.4.03-1.4.03-1.4.04-1.39.04-1.4.05-2.15.06-2.15.07-2.15.06-2.14.07-2.15.07-2.15.07-2.15.07-2.14.07-2.15.08-2.15.08-2.14.08-2.14.08-2.15.08-2.14.08-2.15.09-2.14.08-2.14.09-2.15.17-4.28.17-4.29.18-4.28.18-4.28.17-4.27.17-4.28.18-4.28.08-2.14.08-2.14.09-2.13.08-2.14.08-2.14.08-2.14.07-2.13.08-2.14.07-2.14.08-2.13.07-2.14.07-2.14.06-2.13.06-2.14.07-2.13.06-2.14.06-2.13.05-2.13.05-2.14.05-2.13.05-2.14.02-1.06.02-1.07.02-1.07.02-1.06.02-1.07.02-1.06.01-1.07.02-1.07.02-1.07.01-1.06.02-1.07.01-1.06.01-1.07.01-1.07.01-1.06.01-1.07.01-1.07.01-1.06v-1.07l.01-1.06v-1.07l.01-1.07v-3.77l-.01-.95v-.94l-.01-.95v-.94l-.01-.94-.01-.95-.01-.94-.01-.95-.01-.94-.02-.95-.01-.94-.02-.95-.01-.94-.02-.95-.02-.94-.02-.95-.02-.94-.02-.95-.02-.94-.02-.95-.03-.95-.02-.94-.03-.95-.02-.95-.03-.94-.03-.94-.06-1.9-.05-1.9-.07-1.89-.06-1.89-.07-1.9-.07-1.89-.07-1.9-.07-1.9-.08-1.89-.08-1.9-.07-1.9-.08-1.89-.08-1.9-.08-1.9-.09-1.9-.16-3.8-.33-7.61-.17-3.8-.08-1.91-.08-1.9-.08-1.91-.08-1.9-.08-1.91-.08-1.9-.07-1.91-.07-1.91-.08-1.91-.07-1.9-.06-1.91-.07-1.91-.06-1.91-.06-1.91-.06-1.91-.02-.96-.03-.96-.03-.95-.02-.96-.03-.95-.02-.96-.03-.96-.02-.96-.02-.95-.02-.96-.02-.95-.01-.96-.02-.96-.02-.96-.01-.96-.02-.95-.01-.96-.01-.96-.01-.96-.01-.96-.01-.95-.01-.96-.01-.94v-3.75l.01-.94.01-.93.01-.94.01-.94.01-.93.02-.94.01-.93.02-.94.02-.94.02-.93.03-.94.02-.94.03-.93.03-.94.03-.93.03-.94.03-.93.03-.94.04-.93.03-.94.04-.93.04-.94.04-.94.04-.93.04-.93.04-.94.05-.93.04-.93.05-.94.09-1.86.09-1.87.1-1.87.1-1.86.1-1.87.1-1.86.1-1.86.21-3.72.2-3.72.1-1.86.1-1.85.1-1.85.1-1.86.09-1.85.09-1.85.04-.93.05-.92.04-.93.04-.92.04-.92.04-.93.04-.92.04-.93.03-.92.04-.92.06-1.84.03-.92.03-.92.03-.92.03-.92.03-.92.02-.92.02-.92.02-.92.02-.92.02-.91.01-.92.02-.92.01-.91.01-.92.01-.91v-.92l.01-.91v-2.74l-.01-.91-.01-.92-.01-.91-.01-.91-.01-.91-.02-.91-.01-.91-.03-.91-.02-.91-.02-.91-.03-.91-.04-.9-.03-.91-.04-.9-.04-.91-.04-.9-.05-.91-.02-.46-.02-.45-.03-.44-.03-.46-.02-.45-.03-.45-.03-.45-.03-.46-.03-.45-.03-.45-.02-.28h-.1l-1.44-.1-1.42-.09-1.43-.08-1.43-.08-1.43-.09-1.42-.08-1.43-.07-1.43-.08-1.43-.07-1.42-.07-.71-.03-.72-.03-.72-.03-.7-.03-.71-.03-.72-.03-.71-.03-.72-.03-.71-.02-.71-.03-1.44-.05-1.45-.05-1.43-.05-1.44-.05-1.44-.05-1.44-.04-2.88-.1-2.88-.09-2.89-.08-2.88-.09-2.88-.08-2.88-.07-2.89-.08-2.88-.07-2.88-.07-2.89-.07-2.88-.06-2.89-.06-2.88-.06-2.89-.06-2.88-.05-2.89-.05-2.88-.05-2.89-.04-2.88-.05-2.89-.04-2.88-.03-2.89-.04-2.88-.03-2.88-.03-2.89-.03-2.88-.03-2.89-.02-2.88-.02-2.88-.02-3.08-.02-3.08-.01-3.09-.02-3.08-.01-3.09-.01-3.08-.01h-3.08l-3.09-.01h-3.08l-3.08-.01h-3.09zm152.4 3.33h.05-.05z"/><text x="2363.08" y="16783.7" font-family="'Boogaloo-Regular','Boogaloo',cursive" font-size="86.183" transform="translate(-1638.46 -16177.357)">W<tspan x="2417.12" y="16783.7">e</tspan>b Component</text><text x="2463.57" y="16783.7" font-family="'Boogaloo-Regular','Boogaloo',cursive" font-size="86.183" transform="translate(-2361.8 -16613.4)">Attributs</text><text x="2458.87" y="16783.7" font-family="'Boogaloo-Regular','Boogaloo',cursive" font-size="86.183" transform="translate(-1891.13 -16613.5)">Méthodes</text><text x="2423.45" y="16783.7" font-family="'Boogaloo-Regular','Boogaloo',cursive" font-size="86.183" transform="translate(-950.84 -16613.5)">Événements</text><text x="2472.53" y="16783.7" font-family="'Boogaloo-Regular','Boogaloo',cursive" font-size="86.183" transform="translate(-1436.33 -16613.5)">&lt;slot&gt;</text><text x="2449.05" y="16783.7" font-family="'Boogaloo-Regular','Boogaloo',cursive" font-size="86.183" transform="translate(-2352.62 -16469.5)">Propriétés</text><text x="2387.21" y="16783.7" font-family="'Boogaloo-Regular','Boogaloo',cursive" font-size="86.183" transform="translate(-1342.9 -16469.5)">--custom-prop</text><path d="M425.29 148c101 47.3 133.44 180.4 151.61 281.1M552.75 410.2c-.34-.3-1.75-3.1-2.45-2.4-.99 1 27.3 23.7 27.61 23.4.46-.5 8.13-19.7 12.23-25.9 1.66-2.5 9.64-12.7 7.68-10.8M437.38 286.2c46.96 23.1 63.34 94.5 76.57 141.4" fill="none" stroke="#2d87b4" stroke-width="9"/><path d="M489 413.1c-.88 0 2.09 1.7 3 2.4 2.16 1.6 22.77 19.8 24.17 19.8.08 0-.32-.4-.3-.5.24-.5 3.42-11 3.51-11.6.25-1.5 3.74-16.1 5.04-18.7.43-.8 1.18-3.4.9-3.1M684.835 196.2c37.99 69.2 45.95 163.4 42.16 241.4" fill="none" stroke="#2d87b4" stroke-width="9"/><path d="M711.435 418.8c-.8.8 2.67 5 3.37 6.1 1.96 3.2 3.96 6.2 5.8 9.4 1.71 3 2.46 6.5 4.86 9 .21.2 3.32-5.9 3.56-6.4 2.04-4.1 4.13-8.1 6.17-12.2 1.14-2.2 5.24-8.4 5.24-8.6" fill="none" stroke="#2d87b4" stroke-width="9"/><g><path d="M773.403 439.9c3.03-70.7-.98-177-33.17-240.2M739.233 199.3c-.46 0-.99-1.2-1.21-.9-1.37 1.3-1.8 16.5-1.8 19.5 0 2-1.97 10.6-.9 8.4M739.753 196.1c-.09 0 2.76 2.5 3.94 3.1 3.25 1.6 6.92 2.9 9.77 5.3 3.32 2.8 6.06 6.2 9.14 9.3 1.01 1 2.08 1.9 3.05 2.9.32.3 1.52 1.7 1.52 1.6" fill="none" stroke="#677f62" stroke-width="9"/></g><g><path d="M1023.47 151.6c-85.6 67.2-94.43 189.7-79.92 290M918.98 421.9c-.69 0 .89-.1 1.12.2.67.6 1.22 1.7 1.93 2.4 2.78 2.8 5.45 4.9 8.69 7.2 3.29 2.4 7.37 5.1 9.96 8.2.8 1 2.01 2 2.58 3.1.13.2 1.38 2.5 1.6 2.2 1.89-1.9 2.21-6.4 3.06-8.8 1.63-4.6 4.44-9.1 7.23-13 1.59-2.3 2.82-5.2 4.02-7.6.34-.7 1.94-4.2 1.29-2.9" fill="none" stroke="#2d87b4" stroke-width="9"/></g><g><path d="M1023.99 304.5c-42.39 34.7-31.58 89.8-24.12 137.2M977.82 420.8c-.93 0 1.19.9 1.77 1.4 1.9 1.9 4.06 3.6 5.95 5.5 3.59 3.6 7.75 7 10.93 10.9 1.1 1.4 1.4 2.9 2.42 3.9.43.4.69 1.9 1.12 1.4 4.85-4.8 9.83-14.4 14.47-20.9 1.81-2.5 3.2-4.9 4.83-7.5.42-.7 2.09-3 2.09-1.9" fill="none" stroke="#2d87b4" stroke-width="9"/></g><g><path d="M1482 682.6c38.1-10.5 81.36-29.9 104.5-63.9 50.53-74 59.44-311.9 61.94-411.9M1646.18 207.9c0-1 .61-2.8.61-2.8s-2.32 4.6-3.68 6.8c-2.97 4.7-5.92 9.3-8.89 14.1-1.28 2-3.08 4-4.29 5.8-.55.8-2.13 2.1-1.84 2.1M1647.1 204.5c-.23 0 7.29 9.9 9.81 12 4.15 3.4 4.79 10.6 8.59 13.2 1.02.6 2.02 3.6 2.76 3.6" fill="none" stroke="#677f62" stroke-width="9"/></g></svg>