<svg viewBox="0 0 1921 1081" xmlns="http://www.w3.org/2000/svg" fill-rule="evenodd" clip-rule="evenodd" stroke-linecap="round" stroke-linejoin="round" stroke-miterlimit="2.566"><path fill="#fff" d="M.13.5h1920v1080H.13z"/><path d="M1447.17 456.643l.91.34.01.01 1.64 1.14 1.17 1.6v.01l.61 2.14.05.47.04.47.04.48.04.47.04.47.03.47.04.47.04.47.03.48.04.47.03.47.03.47.04.48.03.47.03.46.03.48.03.47.02.47.03.47.03.47.02.48.03.47.05.94.04.95.04.94.04.94.04.94.03.95.03.94.03.94.02.95.02.94.02.94.02.94.01.94.01.95.01.94.01.94.01.94v2.82l-.01.95v.94l-.01.94-.01.94-.01.94-.02.94-.01.94-.02.94-.02.94-.02.94-.02.94-.03.94-.02.94-.03.94-.03.93-.03.94-.03.94-.04.94-.03.94-.04.93-.03.94-.04.94-.04.94-.04.93-.04.94-.04.94-.04.93-.05.94-.04.93-.09 1.87-.1 1.87-.09 1.87-.1 1.87-.1 1.86-.1 1.87-.21 3.72-.2 3.72-.11 1.86-.1 1.85-.1 1.86-.1 1.85-.09 1.86-.1 1.84-.09 1.85-.04.93-.05.92-.04.92-.04.93-.04.92-.04.92-.04.92-.04.92-.03.92-.04.92-.03.92-.04.92-.03.92-.03.92-.03.92-.03.91-.02.92-.03.91-.02.92-.02.91-.02.92-.02.91-.02.91-.01.92-.01.91-.02.91v.91l-.01.92-.01.9v3.64l.01.91.01.94.01.95.01.94.01.94.01.95.01.95.02.94.01.95.02.94.01.95.02.94.02.95.02.94.02.95.02.94.02.95.03.94.02.95.03.95.02.94.03.95.03.95.05 1.89.06 1.89.07 1.89.06 1.9.07 1.89.06 1.9.08 1.89.07 1.9.07 1.9.08 1.9.08 1.89.08 1.9.08 1.9.08 1.9.08 1.9.16 3.8.34 7.6.16 3.81.09 1.9.08 1.91.08 1.9.08 1.91.07 1.9.08 1.91.08 1.91.07 1.9.07 1.91.07 1.91.07 1.91.07 1.91.06 1.91.06 1.91.06 1.91.02.95.03.96.03.96.02.95.03.96.02.96.05 1.91.02.96.02.95.02.96.02.96.01.95.02.96.02.96.01.96.01.96.02.96.01.95.01.96.01.96.01.96v.96l.01.96v.96l.01.96v3.84l-.01 1.07v1.08l-.01 1.07v1.08l-.01 1.08-.01 1.08-.01 1.08-.01 1.07-.01 1.08-.01 1.08-.01 1.07-.02 1.08-.01 1.07-.02 1.08-.02 1.08-.01 1.07-.02 1.08-.02 1.08-.02 1.07-.02 1.08-.02 1.07-.02 1.08-.05 2.15-.05 2.15-.05 2.15-.06 2.15-.06 2.14-.06 2.15-.06 2.15-.06 2.15-.07 2.14-.07 2.15-.07 2.15-.07 2.15-.08 2.14-.07 2.15-.08 2.14-.08 2.14-.08 2.15-.08 2.14-.09 2.15-.08 2.14-.08 2.14-.18 4.29-.17 4.28-.17 4.28-.18 4.28-.18 4.29-.17 4.28-.17 4.27-.09 2.14-.08 2.14-.09 2.14-.08 2.14-.08 2.13-.08 2.14-.08 2.14-.08 2.14-.07 2.13-.08 2.14-.07 2.14-.07 2.13-.07 2.14-.06 2.13-.07 2.14-.06 2.13-.06 2.14-.06 2.13-.03 1.39-.04 1.39-.03 1.39-.04 1.39-.03 1.39-.03 1.39-.03 1.39-.03 1.39-.03 1.39-.03 1.39-.03 1.39-.02 1.39-.03 1.39-.02 1.4-.05 2.78-.05 2.78-.04 2.78-.04 2.78-.04 2.79-.03 2.78-.03 2.78-.03 2.79-.03 2.78-.03 2.78-.02 2.79-.03 2.78-.02 2.79-.02 2.78-.02 2.79-.01 2.78-.02 2.79-.01 2.79-.02 2.78-.01 2.79-.01 2.78-.02 5.58-.02 5.57-.01 1.47V936.483l.01 1.47.01 1.47v1.47l.01 1.47.01 1.47.03 2.94.02 2.95.02 2.9v.03l.01.12.01.39.01.54.01.31v.31l.01.32v.81l-.01.16v.17l-.01.19-.01.21-.03.29-.03.27-.05.28-.1.42-.07.25-.28.71v.02l-.51.89-.01.01-1.19 1.29h-.01l-1.76.98-1.98.34h.75l.23-.06.29-.08-.51.14h-.04l-.27.07-.29.07-.24.06-.27.06-.29.06-.27.06-.27.06-.26.06-.27.05-.27.06-.27.05-.27.05-.28.05-.27.05-.27.05-.29.05-.28.05-.25.04-.28.04-.27.05-.27.04-.3.04-.25.04-.28.04-.3.04-.25.03-.28.04-.28.03-.28.04-.27.03-.28.03-.28.03-.26.03-.28.03-.3.03-.26.02-.28.03-.3.02-.26.03-.26.02-.28.02-.31.02-.28.02-.26.02-.29.02-.28.02-.28.01-.27.02-.28.01-.31.02-.26.01-.26.01-.29.01-.29.02-.28.01-.56.01-.57.02-.56.01h-.56l-.56.01H1422.9l-.57-.01h-.56l-.57-.02-.58-.01-.56-.02-.56-.01-.57-.03-.56-.02-.58-.02-.57-.03-.55-.03-.58-.03-.57-.03-.56-.04-.57-.03-.57-.04-.57-.04-.57-.05-.56-.04-.56-.04-.58-.05-.57-.05-.56-.05-.56-.05-.58-.05-.56-.05-.56-.06-.57-.05-.56-.06-.56-.06-.57-.05-.56-.06-.55-.06-.57-.06-.57-.06-1.12-.13-1.11-.13-1.11-.13-1.11-.13-1.11-.13-1.1-.13-2.19-.26-1.09-.13-1.08-.13-1.08-.12-1.08-.13-1.06-.12-1.06-.12-1.06-.12-.52-.05-.51-.06-.53-.05-.51-.06-.52-.05-.52-.05-.51-.05-.52-.05-.5-.05-.5-.04-.51-.05-.51-.04-.49-.04-.5-.04-.5-.04-.49-.04-.49-.03-.5-.03-.47-.04-.48-.02-.5-.03-.47-.03-.47-.02-.47-.02-.47-.02-.47-.02-1-.03-1-.04-1-.03-1-.03-1-.03-1-.03-1-.03-.99-.03-1-.02-1-.03-1.01-.03-1-.02-.99-.02-1.01-.03-1-.02-1-.02-1-.02-1-.02-2-.04-2-.03-2.01-.03-2-.03-2-.03-2.01-.02-2-.02-2.01-.02-2-.02-2.01-.01-2.01-.01-2-.01-2.01-.01-2-.01-2.01-.01h-2.01l-2.01-.01H1301.6l-4.03.01h-10.07l-2.01-.01h-2.02l-2.01-.01h-2.02l-2.01-.01-2.02-.01-2.02-.01-2.01-.01-2.02-.01-2.02-.01-2.01-.02-2.02-.02-2.02-.02-2.02-.03-2.02-.03-2.02-.02-2.02-.04-2.01-.03-1.02-.02-1.01-.02-1.01-.02-1.01-.02-1.01-.02-1.01-.03-2.11-.04-2.11-.05-2.12-.04-2.11-.05-2.11-.04-2.12-.04-2.11-.05-2.11-.04-2.12-.04-2.11-.03-2.12-.04-2.11-.04-2.11-.03-2.12-.04-2.11-.03-2.11-.03-2.12-.03-2.11-.03-2.11-.03-2.12-.03-2.11-.03-2.12-.03-2.11-.03-2.11-.02-2.11-.02-2.12-.03-2.11-.02-2.12-.02-2.11-.02-2.11-.02-2.12-.02-2.11-.02-2.12-.02-2.11-.02-2.11-.01-2.12-.02-4.22-.03-4.23-.02-4.23-.03-4.23-.02-4.22-.02-4.23-.01-4.23-.01-4.23-.01-4.23-.01-4.22-.01H1114.08l-4.23.01h-4.23l-4.23.01-4.23.01-4.23.01-4.22.02-4.23.01-4.23.02-4.23.02-4.23.02-4.23.02-4.23.02-4.23.02-4.23.03-4.23.03-4.24.02-4.22.03-4.24.03-4.23.03-8.46.06-8.47.07-8.46.06-8.47.07-8.461.07-16.934.14h-.854l-.851.01-.851.01-.85.01-.85.01-.857.01-.851.02-.85.01-.85.01-.85.02-.85.01-.85.02-1.71.04-1.703.03-1.703.04-1.703.05-1.706.04-1.706.05-1.705.05-1.706.05-1.705.05-1.71.06-1.708.06-1.705.05-1.705.06-1.712.06-1.712.06-1.706.07-3.418.12-6.848.25-3.425.13-3.426.12-1.72.07-1.711.06-1.715.06-1.718.05-1.716.06-1.718.05-1.72.06-1.718.05-1.72.05-1.718.04-1.72.05-1.723.04-1.72.04-1.723.04-1.726.03-.86.02-.856.02-.864.01-.864.02-.863.01-.864.01-.864.01-.864.01-.863.01-.864.01-.857.01-.864.01h-.871l-.864.01h-1.721l-.872.01h-1.728l-.865-.01h-1.729l-.864-.01h-.872l-.864-.01-.865-.01-.865-.01-.865-.01-.872-.01-.865-.01-.865-.02-.872-.01-.873-.02-.862-.02-2.243-.05-2.248-.05-2.25-.04-2.246-.05-2.245-.04-2.247-.05-2.247-.04-2.248-.04-2.247-.04-2.248-.04-2.247-.04-2.247-.04-2.248-.03-2.245-.04-2.25-.03-2.247-.04-2.245-.03-2.25-.03-2.248-.03-2.247-.03-2.251-.03-2.248-.03-2.245-.03-2.247-.02-2.251-.03-2.248-.02-2.248-.03-2.248-.02-2.248-.02-2.25-.02-2.248-.02-2.246-.02-4.5-.04-4.498-.04-4.497-.03-4.498-.03-4.497-.02-4.5-.03-4.498-.02-4.498-.02-4.5-.02-4.498-.01-4.501-.02-4.5-.01-4.498-.01-4.5-.01-4.5-.01h-4.501l-4.5-.01H707.227l-4.5-.01h-9.002l-9.003.01h-18.006l-9.003.01H639.704l-9.005.01-4.504-.01H612.688l-4.502-.01h-4.502l-4.504-.01-4.503-.01-4.502-.01-4.503-.02-4.503-.01-4.5-.02h-6.77l-1.126.01-1.125.01-1.132.01-1.131.01-1.125.01-1.131.01-1.131.02-1.126.01-1.131.02-1.131.02-1.126.02-1.131.02-1.136.02-1.125.02-1.126.03-1.137.02-1.131.03-1.13.02-1.131.03-1.126.03-1.131.03-1.136.03-1.131.03-1.131.04-1.135.03-1.13.03-2.263.07-2.267.08-2.264.07-2.264.08-2.266.08-2.27.08-2.265.09-2.268.08-2.27.09-2.266.09-4.541.18-4.541.17-4.524.18h-.099l-.112.01-.152.01-.176.02-.223.02-.243.02-.261.03-.277.03-.294.03-.314.04-.692.08-.736.09-.791.1-.84.1-.88.11-.905.11-.94.11-.476.05-.476.06-.502.05-.492.06-.48.05-.493.05-.504.05-.504.05-.503.05-.5.04-.497.04-.507.05-.503.03-.487.04-.495.03-.502.03-.25.01-.221.02-.246.01-.245.01-.243.01-.242.01-.24.01-.266.01h-.21l-.235.01H484.59l-.253-.01h-.222l-.22-.01-.217-.01-.216-.01-.248-.01-.213-.02-.213-.01-.246-.02-.246-.03-.21-.02-.207-.02-.246-.04-.247-.03-.207-.04-.21-.03-.25-.05-.252-.05-.257-.06-.215-.06-.264-.07-.257-.08-.095-.03-.187-.06-.1-.04-.087-.03-.192-.07-.192-.08-.098-.04-.101-.04-.2-.1-.113-.06-.19-.09-.202-.12-.123-.07-.11-.06-.112-.07-.224-.15-.205-.15-.118-.09-.223-.17-.19-.17-.034-.03-.387-.39-.011-.01-.521-.66-.048-.07-.132-.2-.09-.15-.28-.54-.01-.02-.05-.11-.096-.24-.08-.21-.074-.22-.081-.28-.068-.27-.058-.26-.04-.21-.035-.21-.03-.2-.024-.18-.024-.2-.02-.19-.015-.17-.016-.18-.014-.19-.012-.17-.011-.19-.01-.19-.01-.19-.007-.18-.007-.19-.007-.21-.011-.4-.008-.41-.006-.43-.003-.45-.001-.46v-.47l.003-.48.004-.5.006-.51.007-.52.009-.53.01-.54.012-.56.012-.56.014-.57.015-.57.032-1.17.036-1.19.037-1.21.04-1.22.08-2.42.08-2.38.037-1.15.035-1.13.032-1.08.028-1.04.012-.5.012-.49.01-.47.008-.45.008-.44.006-.42.004-.4.002-.38V927.273l-.002-.3-.005-.3-.012-.71-.012-.71-.011-.72-.01-.73-.01-.72-.007-.72-.007-.72-.006-.72-.005-.72-.004-.72-.003-.72-.002-.72-.002-.71-.001-.73v-.72l.002-.71v-.72l.004-.73.008-1.43.009-1.44.014-1.43.015-1.44.018-1.43.02-1.44.022-1.43.024-1.43.027-1.43.027-1.43.03-1.43.03-1.44.033-1.43.032-1.42.034-1.44.07-2.85.072-2.85.146-5.7.07-2.85.036-1.42.034-1.42.033-1.42.032-1.42.03-1.42.029-1.42.028-1.41.026-1.42.025-1.42.022-1.41.02-1.42.018-1.41.016-1.42.013-1.41.01-1.41.008-1.42.003-.7.002-.71v-.7l.002-.71-.001-.7-.001-.71-.002-.7-.003-.71-.004-.7-.004-.71-.006-.7-.006-.7-.008-.71-.008-.7-.01-.7-.01-.71-.012-.7-.012-.7-.014-.71-.014-.7-.016-.7-.017-.7-.017-.7-.02-.71-.02-.7-.021-.7-.022-.7-.024-.7-.034-.94-.035-.93-.037-.94-.04-.93-.04-.94-.042-.93-.045-.94-.046-.93-.048-.94-.05-.94-.05-.93-.053-.94-.054-.94-.055-.93-.058-.94-.058-.94-.06-.94-.061-.93-.063-.94-.064-.94-.065-.94-.067-.94-.067-.93-.07-.94-.07-.94-.071-.94-.071-.94-.073-.93-.075-.94-.075-.94-.076-.94-.077-.94-.078-.94-.08-.94-.078-.94-.08-.94-.163-1.88-.166-1.89-.167-1.88-.17-1.88-.172-1.88-.173-1.89-.175-1.89-.175-1.88-.354-3.78-.353-3.78-.177-1.89-.176-1.89-.174-1.89-.174-1.89-.172-1.9-.171-1.9-.168-1.89-.166-1.9-.164-1.9-.081-.95-.08-.95-.08-.95-.077-.95-.078-.95-.076-.95-.076-.95-.075-.95-.074-.96-.072-.95-.072-.95-.07-.95-.07-.95-.068-.96-.067-.95-.065-.96-.065-.95-.063-.96-.061-.95-.061-.96-.06-.95-.056-.96-.057-.95-.054-.96-.053-.96-.051-.95-.05-.96-.048-.96-.046-.95-.045-.96-.043-.96-.041-.96-.04-.96-.036-.96-.035-.96-.033-.96-.032-.96-.03-.96-.026-.96-.025-.96-.023-.96-.021-.96-.02-.97-.015-.96-.015-.97-.011-.96-.01-.96-.006-.97-.005-.96-.002-.97v-1.05l.002-1.05.004-1.05.006-1.05.007-1.06.009-1.05.012-1.05.013-1.05.015-1.05.017-1.06.018-1.05.02-1.05.02-1.05.024-1.05.026-1.05.026-1.05.028-1.05.029-1.05.03-1.05.034-1.05.034-1.05.035-1.05.036-1.04.039-1.06.039-1.04.04-1.05.043-1.05.043-1.05.044-1.05.046-1.04.047-1.05.048-1.05.049-1.05.05-1.04.05-1.05.053-1.05.054-1.04.054-1.05.055-1.05.056-1.05.057-1.04.058-1.05.059-1.04.059-1.05.06-1.05.062-1.04.124-2.09.127-2.09.13-2.09.132-2.09.134-2.09.136-2.08.138-2.09.139-2.08.14-2.09.143-2.08.142-2.09.287-4.16.287-4.17.287-4.16.142-2.08.142-2.08.14-2.08.14-2.07.138-2.08.136-2.08.134-2.07.133-2.08.13-2.07.127-2.08.125-2.07.06-1.04.062-1.04.059-1.03.059-1.04.058-1.03.057-1.04.057-1.03.056-1.04.054-1.03.053-1.04.053-1.03.05-1.04.052-1.03.049-1.04.049-1.03.047-1.04.046-1.03.045-1.03.044-1.04.042-1.03.04-1.04.04-1.03.04-1.03.037-1.03.036-1.04.035-1.03.029-.92.029-.92.027-.92.026-.92.024-.93.023-.92.022-.92.02-.92.02-.92.019-.93.017-.92.016-.92.015-.92.014-.93.012-.92.012-.93.01-.92.009-.92.009-.93.007-.92.006-.92.005-.93.004-.92.003-.93.003-.92v-2.77l-.001-.93-.003-.93-.003-.92-.005-.93-.005-.92-.006-.93-.007-.92-.008-.93-.01-.93-.008-.92-.01-.93-.011-.93-.012-.92-.013-.93-.027-1.85-.03-1.85-.033-1.86-.036-1.85-.037-1.86-.041-1.86-.043-1.85-.044-1.86-.048-1.86-.048-1.85-.051-1.86-.053-1.86-.054-1.86-.056-1.86-.057-1.85-.058-1.86-.06-1.86-.06-1.86-.062-1.86-.062-1.87-.064-1.86-.127-3.72-.13-3.72-.131-3.73-.13-3.72-.13-3.73-.127-3.73-.062-1.86-.062-1.86-.061-1.87-.06-1.86-.058-1.87-.058-1.86-.055-1.86-.055-1.87-.053-1.86-.051-1.87.394-2.3 1.247-1.99 1.91-1.35 2.283-.52 2.308.4 1.98 1.24 1.355 1.91.085.38.12-.1 2.258-.61 1.069-.08 1.074-.07 1.074-.07 1.074-.07 1.073-.07 1.074-.06 1.068-.06 1.073-.07 1.073-.06 1.068-.06 1.072-.05 1.073-.06 1.072-.05 1.067-.05 1.067-.05 1.078-.05 1.067-.05 1.066-.05 1.072-.04 1.072-.04 1.066-.04 1.067-.04 1.07-.04 1.067-.04 1.07-.03 1.067-.04 1.065-.03 1.07-.03 1.067-.03 1.066-.03 1.07-.03 1.066-.02 1.065-.03 1.065-.02 1.065-.03 1.065-.02 1.065-.02 1.07-.02 1.065-.02 1.065-.01 1.065-.02 1.059-.02 1.07-.01 1.065-.01 1.059-.02 1.07-.01 1.064-.01 1.059-.01 1.065-.01 1.064-.01h1.065l1.064-.01 2.123-.01 2.126-.01 2.123-.01h8.498l2.12.01 2.12.01h2.124l4.242.02 2.122.02 2.119.01 4.24.02 4.239.03 4.238.02 4.24.03 2.119.01 2.117.01h2.119l2.117.01 4.239.01h8.472l2.12-.01 2.122-.01 1.056-.01 1.059-.01h1.064l1.059-.01 1.059-.01 1.059-.01 1.059-.01 1.062-.01 2.418-.03 2.42-.03 2.417-.02 2.418-.03 2.419-.02 2.418-.03 2.42-.02 2.42-.02 2.418-.02 2.418-.01 2.415-.02 2.418-.02 2.418-.02 2.418-.01 2.42-.01 2.416-.02 2.418-.01 2.418-.01 2.415-.01 2.42-.01 2.417-.01 4.83-.01 2.419-.01 4.835-.01 4.832-.01 4.833-.01h14.495l4.832.01h4.832l4.832.01 9.66.02 4.832.02 4.829.01 4.83.02 4.83.02 4.83.02 4.829.02 4.83.01 9.658.05 9.657.04 9.658.05 9.656.05 9.657.04 9.656.05 4.828.02 4.829.02 4.826.02 9.658.03 4.828.02 4.827.01 4.829.01 4.828.01 4.828.01 4.829.01 4.828.01h14.485l4.829-.01 4.83-.01 4.83-.01h2.413l2.414-.01 2.416-.01 2.414-.01 2.415-.01h2.414l2.414-.02 2.417-.01 3.083-.01 3.082-.02 3.084-.02 3.085-.02 3.082-.02 3.085-.03 3.084-.02 3.082-.02 3.085-.03 3.084-.03 3.084-.03 3.085-.03 3.085-.03 3.084-.03 3.083-.03 3.085-.04 3.086-.03 3.085-.04 3.085-.04 3.085-.03 3.085-.04 3.089-.04 3.08-.04 3.09-.04 3.08-.04 3.09-.05 6.17-.09 6.17-.08 6.17-.1 6.17-.09 6.18-.1 6.17-.1 6.17-.1 6.18-.1 6.17-.1 6.17-.11 6.18-.1 12.35-.21 12.35-.21 12.35-.21 6.18-.11 6.17-.1 6.18-.1 6.17-.11 6.18-.1 6.18-.09 6.18-.1 6.17-.09 6.18-.09 6.18-.09 6.18-.09 3.09-.04 3.09-.04 3.08-.04 3.09-.04 3.09-.04 3.09-.04 3.09-.04 3.09-.04 3.09-.03 3.09-.04 3.09-.03 3.09-.03 3.09-.03 3.09-.03 3.09-.03 3.09-.03 3.09-.03 3.09-.02 3.09-.03 3.09-.02 3.09-.02 3.09-.02 3.09-.02 3.09-.02 3.09-.02 3.09-.01 3.09-.02 3.09-.01 3.09-.01 3.09-.01 3.09-.01h3.09l3.09-.01h3.09l3.09-.01h3.09l6.18.01 6.18.01 6.18.02 3.09.01 3.09.02 3.09.01 3.09.02 2.9.02 2.89.02 2.89.02 2.89.03 2.9.03 2.89.03 2.9.03 2.89.04 2.9.03 2.89.05 2.9.04 2.89.04 2.9.05 2.89.05 2.9.05 2.89.06 2.9.06 2.9.06 2.89.07 2.9.06 2.89.07 2.9.07 2.9.08 2.89.08 2.89.08 2.9.08 2.89.09 2.9.09 5.78.19 1.45.05 4.33.15.73.02.73.03.73.03 2.17.09.74.03.72.03.72.03.73.04 1.45.07 1.45.07 1.45.07 2.9.16 2.89.17 1.45.09 1.45.09 1.44.09 1.39.09.16.01.45.02.61.02.36.02.39.02.37.02.36.02.35.02.32.03.18.01.18.01.11.02.22.02.22.03h.02l.64.13-.09-.03.1.03.2.05zm-735.435 490.33l9.008.01h4.503l4.503.01 9.009.02 4.504.01 4.504.02 4.504.01 4.504.02 4.506.02 9.008.05 4.506.02 4.505.03 4.505.04 4.504.03 4.504.04 2.254.02 6.757.06 4.506.05 6.757.07 2.255.03 4.504.06 2.252.03 2.253.03 4.506.06 2.253.04 2.25.03 2.255.04 4.505.07 4.505.08 4.506.08 2.252.05 2.252.04 2.256.04 4.5.1 2.254.04 2.255.05.855.02.845.02.845.02.85.01.852.01.845.01.85.01.853.01 1.702.02h.844l1.702.01 1.702.01h1.7l.845-.01H881.896l.85-.01h.844l.85-.01.857-.01.85-.01.85-.01.85-.01.85-.01.85-.01.85-.01.85-.02.85-.01.857-.02.853-.01 1.699-.04 1.703-.03 1.706-.04 1.703-.05 1.705-.04 1.705-.05 1.706-.05 1.705-.05 1.705-.05 1.705-.06 1.709-.05 1.705-.06 1.708-.06 1.71-.06 1.707-.06 3.419-.12 3.422-.13 6.844-.25 3.429-.13 1.716-.06 1.712-.06 1.712-.06 1.719-.06 1.718-.06 1.716-.05 1.716-.06 1.718-.05 1.72-.05 1.719-.06 1.72-.04 1.719-.05 1.724-.04 1.723-.04 1.724-.04 1.717-.04.863-.01.864-.02.864-.02.864-.01.864-.01.864-.02.857-.01.864-.01.864-.01.864-.01.864-.01h.86l16.939-.14 8.47-.07 8.47-.07 8.46-.06 8.47-.07 8.47-.06 4.23-.03 4.23-.03 4.24-.03 4.23-.02 4.23-.03 4.24-.03 4.23-.02 4.24-.02 4.23-.02 4.23-.02 4.24-.02 4.23-.02 4.23-.01 4.24-.02 4.23-.01 4.24-.01 4.23-.01h4.24l4.23-.01h12.71l8.46.02 4.24.01 4.23.01 4.24.01 4.24.02 4.23.02 4.24.03 4.23.02 4.24.03 4.23.03 2.12.02 2.12.02 2.12.02 2.12.02 2.11.02 2.12.02 2.12.02 4.24.05 2.12.02 2.12.03 2.12.02 2.11.03 2.12.03 4.24.06 6.36.09 2.12.04 2.11.03 2.12.03 2.12.04 2.12.04 4.24.08 2.12.03 2.12.05 2.12.04 2.12.04 4.24.09 2.12.05 2.11.05 1.01.02 1 .02 1 .02 2 .04 1 .02 2 .03 2 .04 4.01.05 2.01.03 2 .02 2 .02 2.01.02 2 .01 2.01.01 2.01.01 4.01.02 4.02.01 4.02.01 4.01.01h8.05l4.02-.01h20.13l2.02.01 4.03.01 2.01.01 2.02.01 2.02.01 2.01.01 2.02.01 2.02.02 2.01.02 2.02.02 2.02.03 2.02.02 2.02.03 2.02.03 2.02.04 2.02.03 1.01.02 1.01.02 1.01.02 1.01.03 1.01.02 1.01.02 1.01.03 2.02.05 2.02.05 1.01.03 1.01.03 1.01.03 1.02.04 1.01.03 1.01.03 1.01.04.52.02.52.02.52.02.53.03.52.03.51.03.53.03.54.03.52.04.53.04.53.04.53.04.53.04.54.04.53.05.52.05.55.04.54.05.53.06.54.05.53.05.54.05.54.06.54.06.55.05.54.07 1.08.11 1.08.13 1.1.12 1.09.13 1.08.13 1.1.13 1.09.13 2.19.26 1.09.13 1.1.13 1.09.12 1.1.13 1.09.13 1.09.12.54.06.54.05 1.1.12 1.08.11.54.05.55.06 1.08.1.53.05 1.09.1.53.04.53.04.54.05.54.04.53.04.53.04.53.03.53.04.53.03.53.03.52.03.53.03.53.02.51.02.52.02.53.02.52.02.52.01.51.02.5.01h.52l.51.01h2.02l.51-.01.5-.01.49-.01.5-.02.24-.01.24-.01.24-.01.27-.01.26-.01.22-.01.23-.01.27-.02.23-.01.24-.02.24-.01.26-.02.24-.02.21-.01.24-.02.25-.02.26-.03.21-.01.24-.03.25-.02.21-.02.24-.02.25-.03.23-.03.24-.02.23-.03.23-.03.23-.03.22-.03.26-.03.2-.03.23-.03.25-.03.21-.04.22-.03.23-.04.22-.03.1-.02-.01-1.26-.02-2.95-.03-2.95-.01-1.47-.01-1.48v-1.48l-.01-1.48-.01-1.48v-5.93l.01-1.48.02-5.58.02-5.58.01-2.79.01-2.79.02-2.78.01-2.8.02-2.79.01-2.79.02-2.79.02-2.79.02-2.79.03-2.79.02-2.8.03-2.79.03-2.79.03-2.79.03-2.8.03-2.79.04-2.79.04-2.8.04-2.79.05-2.79.05-2.8.02-1.39.03-1.4.03-1.4.02-1.4.03-1.39.03-1.4.03-1.4.03-1.4.03-1.39.04-1.4.03-1.4.03-1.4.04-1.39.04-1.4.05-2.15.06-2.15.07-2.15.06-2.14.07-2.15.07-2.15.07-2.15.07-2.14.07-2.15.08-2.14.08-2.15.08-2.14.08-2.15.08-2.14.08-2.15.09-2.14.08-2.14.09-2.15.17-4.28.17-4.29.18-4.28.18-4.28.17-4.27.17-4.28.18-4.28.08-2.14.08-2.14.09-2.13.08-2.14.08-2.14.08-2.14.07-2.13.08-2.14.07-2.14.08-2.13.07-2.14.07-2.14.06-2.13.07-2.14.06-2.13.06-2.14.06-2.13.05-2.13.05-2.14.05-2.13.05-2.14.02-1.06.02-1.07.02-1.07.02-1.06.02-1.07.02-1.06.01-1.07.02-1.07.02-1.07.01-1.06.02-1.07.01-1.06.01-1.07.01-1.07.01-1.06.01-1.07.01-1.07.01-1.06v-1.07l.01-1.06v-1.07l.01-1.07v-3.77l-.01-.95v-.94l-.01-.94v-.95l-.01-.94-.01-.95-.01-.94-.01-.95-.01-.94-.02-.95-.01-.94-.02-.95-.01-.94-.02-.95-.02-.94-.02-.95-.02-.94-.02-.95-.02-.94-.02-.95-.03-.95-.02-.94-.03-.95-.02-.95-.03-.94-.03-.94-.06-1.9-.05-1.89-.07-1.9-.06-1.89-.07-1.9-.07-1.89-.07-1.9-.07-1.9-.08-1.89-.08-1.9-.07-1.9-.08-1.89-.08-1.9-.08-1.9-.08-1.9-.17-3.8-.33-7.61-.17-3.8-.08-1.91-.08-1.9-.08-1.91-.08-1.9-.08-1.91-.08-1.9-.07-1.91-.07-1.91-.08-1.91-.07-1.9-.06-1.91-.07-1.91-.06-1.91-.06-1.91-.06-1.91-.03-.96-.02-.96-.03-.95-.02-.96-.03-.95-.02-.96-.02-.96-.03-.95-.02-.96-.02-.96-.02-.95-.01-.96-.02-.96-.02-.96-.01-.96-.02-.95-.01-.96-.01-.96-.01-.96-.01-.96-.01-.95-.01-.96-.01-.94v-3.75l.01-.94.01-.93.01-.94.01-.94.01-.93.02-.94.01-.93.02-.94.02-.94.02-.93.03-.94.02-.94.03-.93.03-.94.03-.93.03-.94.03-.93.03-.94.04-.93.04-.94.03-.93.04-.94.04-.93.04-.94.04-.93.05-.94.04-.93.04-.93.05-.94.09-1.86.09-1.87.1-1.87.1-1.86.1-1.87.1-1.86.1-1.86.21-3.72.2-3.72.1-1.85.1-1.86.1-1.85.1-1.86.09-1.85.09-1.85.04-.93.05-.92.04-.93.04-.92.04-.92.04-.93.04-.92.04-.92.03-.93.04-.92.03-.92.03-.92.03-.92.03-.92.03-.92.03-.92.03-.92.02-.92.02-.92.02-.92.02-.92.02-.91.01-.92.02-.92.01-.91.01-.92.01-.91v-.92l.01-.91v-2.74l-.01-.91-.01-.92-.01-.91-.01-.91-.01-.91-.02-.91-.01-.91-.03-.91-.02-.91-.03-.91-.02-.91-.04-.9-.03-.91-.04-.9-.04-.91-.04-.9-.05-.91-.02-.45-.02-.46-.03-.45-.03-.45-.02-.45-.03-.45-.03-.45-.03-.45-.03-.46-.03-.45-.02-.28h-.1l-1.44-.1-1.42-.09-1.43-.08-1.43-.08-1.43-.09-1.42-.08-1.43-.07-1.43-.08-1.43-.07-1.42-.07-.71-.03-.72-.03-.72-.03-.7-.03-.71-.03-.72-.03-.71-.03-.72-.03-.71-.02-.71-.03-1.44-.05-1.44-.05-1.44-.05-1.44-.05-1.44-.05-1.44-.04-2.88-.1-2.88-.09-2.89-.08-2.88-.09-2.88-.08-2.88-.07-2.89-.08-2.88-.07-2.88-.07-2.89-.07-2.88-.06-2.89-.06-2.88-.06-2.89-.06-2.88-.05-2.89-.05-2.88-.05-2.89-.04-2.88-.05-2.89-.04-2.88-.03-2.89-.04-2.88-.03-2.88-.03-2.89-.03-2.88-.03-2.89-.02-2.88-.02-2.88-.02-3.08-.02-3.09-.01-3.08-.02-3.08-.01-3.09-.01-3.08-.01h-3.08l-3.09-.01h-3.08l-3.08-.01h-3.09l-3.08.01h-3.09l-3.08.01h-3.08l-3.09.01-3.08.01-3.09.01-3.08.01-3.09.02-3.08.01-3.08.02-3.09.02-3.09.02-3.08.02-3.08.02-3.09.02-3.08.03-3.09.02-3.09.03-3.08.03-3.08.03-3.09.03-3.09.03-3.08.03-3.09.03-3.08.04-3.09.03-3.08.04-3.09.04-3.09.04-3.08.03-3.09.05-3.09.03-3.08.05-3.09.04-6.17.08-6.17.09-6.18.1-6.17.09-6.17.1-6.18.09-6.17.1-6.17.1-6.18.11-6.17.1-6.18.1-12.35.21-12.35.22-12.35.21-6.17.1-6.18.11-6.17.1-6.18.1-6.18.1-6.17.1-6.18.1-6.18.09-6.17.09-6.18.09-6.17.09-3.09.04-3.09.05-3.09.04-3.09.04-3.087.04-3.088.04-3.09.03-3.088.04-3.088.04-3.087.03-3.088.04-3.09.03-3.09.03-3.087.03-3.09.03-3.087.03-3.088.03-3.088.03-3.09.02-3.088.02-3.09.03-3.088.02-3.09.02-3.087.02-3.09.02-3.088.01-2.417.01-2.42.01-2.42.01-2.418.01-2.42.01-2.416.01-2.418.01h-2.421l-4.835.01-4.835.01-4.835.01H882.733l-4.833-.01-4.833-.01-4.833-.01-4.833-.01-4.831-.01-4.833-.01-4.832-.02-4.831-.01-4.83-.02-4.831-.02-4.831-.02-4.83-.02-9.66-.05-9.657-.04-9.657-.05-9.657-.05-9.656-.04-9.654-.05-4.827-.01-4.828-.02-4.827-.02-4.826-.02-4.828-.02-4.826-.01-4.827-.02-4.827-.01-4.826-.01-4.825-.01h-4.827l-4.826-.01h-14.479l-4.826.01-4.827.01-4.825.01-2.412.01-4.83.01-2.412.01-2.411.01-2.415.01-2.413.01-2.413.01-2.415.02-2.411.01-2.413.01-2.413.02-2.413.02-2.416.02-2.413.01-2.413.02-2.414.02-2.411.02-2.413.03-2.414.02-2.414.03-2.416.02-2.412.03-2.414.02-1.07.02-1.07.01-1.07.01-1.07.01-1.07.01H615.6l-1.07.01-1.072.01-2.132.01-2.132.01H598.54l-2.13-.01-2.127-.01h-2.125l-2.128-.01-2.124-.01-4.243-.03-4.241-.02-4.24-.03-4.236-.02-2.117-.01-2.116-.02-2.115-.01-2.116-.01h-2.112l-2.115-.01-2.115-.01h-8.443l-2.111.01-2.11.01-2.112.01-1.053.01h-1.053l-1.054.01-1.053.01-1.06.01-1.053.01-1.047.01-1.06.01-1.053.02-1.048.01-1.06.02-1.053.01-1.053.02-1.054.02-1.048.02-1.055.02-1.054.02-1.054.02-1.054.03-1.054.02-1.054.03-1.05.03-1.053.02-1.055.03-1.05.03-1.054.04-1.054.03-1.05.04-1.055.03-1.05.04-1.054.04-1.055.04-1.05.04-1.05.04-1.056.05-1.056.04-1.044.05-1.056.05-1.056.05-1.051.06-1.05.05-1.051.06-1.057.05-1.051.06-1.052.06-1.057.07-1.051.06-1.052.07-1.052.06-1.052.07-1.052.07-1.058.08-2.322-.3-.198-.11.01.33.058 1.86.06 1.85.06 1.86.062 1.86.063 1.86.126 3.72.13 3.72.13 3.72.13 3.73.13 3.72.128 3.73.064 1.87.063 1.87.06 1.86.062 1.87.06 1.87.059 1.86.057 1.87.056 1.87.054 1.87.053 1.86.05 1.87.05 1.87.048 1.87.045 1.88.043 1.87.04 1.87.039 1.87.036 1.87.033 1.87.03 1.87.028 1.87.013.94.012.94.01.93.01.94.01.94.009.93.008.94.007.94.007.93.005.94.004.94.004.93.003.94v.94l.002.94v.93l-.001.94-.003.94-.003.94-.004.93-.005.94-.006.94-.008.93-.008.94-.01.94-.01.94-.012.94-.012.93-.015.94-.014.94-.017.94-.017.93-.02.94-.02.94-.02.94-.023.94-.023.93-.025.94-.026.94-.028.94-.03.93-.03.94-.034 1.05-.036 1.05-.038 1.05-.04 1.05-.04 1.05-.042 1.04-.043 1.05-.044 1.05-.046 1.05-.046 1.04-.048 1.05-.05 1.05-.05 1.04-.05 1.05-.052 1.05-.053 1.05-.054 1.04-.055 1.05-.057 1.04-.057 1.05-.057 1.04-.06 1.05-.058 1.05-.061 1.04-.061 1.05-.062 1.04-.125 2.09-.13 2.09-.13 2.09-.133 2.08-.134 2.09-.137 2.09-.14 2.08-.14 2.09-.14 2.09-.142 2.08-.142 2.08-.287 4.17-.288 4.16-.286 4.16-.142 2.08-.142 2.08-.14 2.08-.138 2.08-.137 2.07-.136 2.08-.133 2.08-.131 2.07-.13 2.07-.125 2.08-.124 2.08-.061 1.03-.06 1.04-.058 1.03-.06 1.04-.056 1.04-.056 1.03-.056 1.04-.055 1.03-.053 1.04-.053 1.04-.051 1.03-.051 1.04-.05 1.03-.048 1.04-.048 1.03-.046 1.03-.045 1.04-.043 1.03-.043 1.04-.042 1.03-.04 1.03-.038 1.04-.038 1.03-.036 1.04-.035 1.03-.033 1.03-.032 1.03-.031 1.04-.03 1.03-.026 1.03-.026 1.04-.025 1.03-.023 1.03-.021 1.03-.02 1.03-.017 1.03-.017 1.04-.014 1.03-.013 1.03-.011 1.03-.01 1.03-.007 1.03-.005 1.03-.004 1.03-.002 1.03v1.03l.002.94.005.93.006.94.009.93.01.93.015.94.016.93.018.94.02.93.023.94.024.93.027.94.028.93.03.94.033.93.035.94.036.94.038.93.04.94.042.93.043.94.046.93.047.94.048.93.05.94.052.94.053.94.056.93.056.94.058.93.059.94.06.94.063.94.063.94.064.93.066.94.068.94.068.94.069.94.07.94.072.94.073.93.074.94.074.94.076.94.077.94.077.94.079.94.079.94.079.94.163 1.88.164 1.88.167 1.88.17 1.89.17 1.88.174 1.89.174 1.88.176 1.89.176 1.89.707 7.55.176 1.89.175 1.9.174 1.89.173 1.9.17 1.89.17 1.9.166 1.89.165 1.9.08.95.08.95.08.95.079.95.078.95.077.95.077.96.075.95.074.95.073.95.072.95.07.95.07.96.07.95.067.95.067.96.065.95.064.95.062.96.06.96.06.95.059.95.057.96.055.96.053.95.053.96.05.96.049.95.047.96.046.96.043.96.042.96.04.95.038.96.036.96.035.96.024.73.023.72.022.72.02.72.02.72.019.72.017.73.016.72.015.71.014.73.012.72.012.72.01.72.01.72.009.72.008.72.006.72.006.72.005.72.004.72.003.72.002.71v.72l.002.72-.001.72-.001.72-.002.72-.003.72-.008 1.43-.011 1.44-.013 1.43-.016 1.44-.018 1.43-.02 1.44-.023 1.43-.025 1.43-.026 1.43-.028 1.43-.03 1.43-.03 1.43-.032 1.43-.033 1.43-.035 1.43-.034 1.43-.072 2.85-.145 5.7-.073 2.85-.07 2.84-.033 1.42-.032 1.43-.033 1.42-.03 1.42-.03 1.41-.026 1.42-.026 1.42-.024 1.42-.022 1.41-.02 1.42-.018 1.41-.015 1.42-.013 1.41-.01 1.41-.007 1.42-.003.7-.001.71-.001.71-.001.7v.7l.003.71.002.71.003.7.004.71.005.7.006.7.006.71.008.7.009.71.009.7.01.7.013.71.013.72.005.34.003.39v.8l-.003.43-.004.44-.006.45-.01.47-.008.48-.01.5-.012.51-.013.52-.03 1.06-.031 1.11-.036 1.15-.038 1.17-.08 2.38-.08 2.42-.04 1.2-.036 1.19-.035 1.17-.031 1.15-.015.55-.013.55-.012.54-.011.54-.01.51-.01.5-.005.49-.006.48-.004.46v.09h.239l.189-.01.192-.01.194-.01.197-.01.198-.01.226-.01.203-.01.408-.02.427-.03.445-.04.437-.03.439-.03.454-.04.456-.04.456-.05.456-.04.456-.05.467-.05.477-.05.46-.05.447-.05.467-.05.459-.05.9-.11.89-.11.857-.1.832-.1.802-.1.77-.09.717-.09.349-.04.342-.04.328-.03.313-.03.3-.04.284-.02.298-.03.284-.02.287-.02.165-.01h.096l4.557-.18 4.54-.18 4.544-.17 2.275-.09 2.274-.09 2.273-.08 2.277-.09 2.274-.08 2.277-.08 2.279-.08 2.28-.08 2.277-.07 2.279-.07 1.144-.04 1.136-.03 1.14-.03 1.142-.03 1.136-.03 1.14-.04 1.148-.03 1.14-.02 1.142-.03 1.14-.03 1.138-.02 1.146-.03 1.146-.02 1.136-.02 1.142-.02 1.146-.02 1.14-.02 1.143-.02 1.146-.01 1.142-.02 1.14-.01 1.147-.01 1.14-.01 1.143-.01 1.146-.01h1.147l1.146-.01H576.71l4.5.02 4.498.01 8.997.03 4.498.01 4.498.01h4.499l4.5.01h4.498l13.5.01 9.002-.01h18.004l9.004-.01h18.008l9.006-.01h9.005l9.007.01zm732.936-478.62h.05-.05z"/><text x="2363.08" y="16783.7" font-family="'Boogaloo-Regular','Boogaloo',cursive" font-size="86.183" transform="translate(-1639.18 -16177.357)">W<tspan x="2417.12" y="16783.7">e</tspan>b Component</text><text x="2463.57" y="16783.7" font-family="'Boogaloo-Regular','Boogaloo',cursive" font-size="86.183" transform="translate(-2362.52 -16613.4)">Attributs</text><text x="2449.05" y="16783.7" font-family="'Boogaloo-Regular','Boogaloo',cursive" font-size="86.183" transform="translate(-2353.34 -16469.5)">Propriétés</text><path d="M424.57 148c101 47.3 133.44 180.4 151.61 281.1M552.03 410.2c-.34-.3-1.75-3.1-2.45-2.4-.99 1 27.3 23.7 27.61 23.4.46-.5 8.13-19.7 12.23-25.9 1.66-2.5 9.64-12.7 7.68-10.8" fill="none" stroke="#2d87b4" stroke-width="9"/><g><path d="M436.66 286.2c46.96 23.1 63.34 94.5 76.57 141.4M488.28 413.1c-.88 0 2.09 1.7 3 2.4 2.16 1.6 22.77 19.8 24.17 19.8.08 0-.32-.4-.3-.5.24-.5 3.42-11 3.51-11.6.25-1.5 3.74-16.1 5.04-18.7.43-.8 1.18-3.4.9-3.1" fill="none" stroke="#2d87b4" stroke-width="9"/></g></svg>