<svg viewBox="0 0 1921 1081" xmlns="http://www.w3.org/2000/svg" fill-rule="evenodd" clip-rule="evenodd" stroke-linecap="round" stroke-linejoin="round" stroke-miterlimit="2.566"><path fill="#fff" d="M.56.5h1920v1080H.56z"/><path d="M1447.66 456.663l.85.32.01.01 1.69 1.19 1.12 1.56.61 2.14.05.47.04.48.04.47.04.47.04.47.03.47.04.47.04.48.03.47.04.47.03.47.03.47.04.47.03.48.03.47.03.47.03.47.02.48.03.46.03.47.02.48.03.47.05.94.04.94.04.95.04.94.04.94.03.95.03.94.03.94.02.95.02.94.02.94.02.94.01.94.01.95.01.94.01.94.01.94v2.82l-.01.95v.94l-.01.94-.01.94-.01.94-.02.94-.01.94-.02.94-.02.94-.02.94-.02.94-.03.94-.02.94-.03.94-.03.94-.03.93-.03.94-.04.94-.03.94-.04.93-.03.94-.04.94-.04.94-.04.93-.04.94-.04.94-.04.93-.05.94-.04.94-.09 1.86-.1 1.87-.09 1.87-.1 1.87-.1 1.86-.1 1.87-.21 3.72-.2 3.72-.11 1.86-.1 1.86-.1 1.85-.1 1.85-.09 1.85-.1 1.86-.09 1.85-.04.92-.05.92-.04.92-.04.93-.04.92-.04.92-.04.92-.04.92-.03.92-.04.92-.03.92-.04.92-.03.92-.03.92-.03.91-.03.92-.02.92-.03.91-.02.92-.02.91-.02.92-.02.91-.02.91-.01.92-.01.91-.02.91v.91l-.01.92-.01.91V580.183l.01.91.01.94.01.95.01.94.01.94.01.95.01.94.02.95.01.95.02.94.01.95.02.94.02.95.02.94.02.95.02.94.02.95.03.94.02.95.03.95.02.94.03.95.03.95.05 1.89.06 1.89.07 1.9.06 1.89.07 1.9.06 1.89.08 1.9.07 1.89.07 1.9.08 1.9.08 1.89.08 1.9.08 1.9.08 1.9.08 1.9.16 3.8.34 7.6.16 3.81.09 1.9.08 1.91.08 1.9.08 1.91.07 1.9.08 1.91.08 1.91.07 1.9.07 1.91.07 1.91.07 1.91.07 1.91.06 1.91.06 1.91.06 1.91.02.95.03.96.03.96.02.95.03.96.02.96.03.95.02.96.02.96.02.95.02.96.02.96.01.95.02.96.02.96.01.96.01.96.02.95.01.96.01.96.01.96.01.96v.96l.01.96v.96l.01.96v3.84l-.01 1.07v1.08l-.01 1.08v1.07l-.01 1.08-.01 1.08-.01 1.08-.01 1.07-.01 1.08-.01 1.07-.01 1.08-.02 1.08-.01 1.08-.02 1.07-.02 1.08-.01 1.07-.02 1.08-.02 1.08-.02 1.07-.02 1.07-.02 1.08-.03 1.08-.04 2.15-.05 2.15-.05 2.15-.06 2.15-.06 2.14-.06 2.15-.06 2.15-.06 2.15-.07 2.14-.07 2.15-.07 2.15-.07 2.15-.08 2.14-.08 2.15-.07 2.14-.08 2.14-.08 2.15-.08 2.14-.09 2.15-.08 2.14-.08 2.14-.18 4.29-.17 4.28-.17 4.28-.18 4.29-.18 4.28-.17 4.28-.17 4.27-.09 2.14-.08 2.14-.09 2.14-.08 2.14-.08 2.14-.08 2.13-.08 2.14-.08 2.14-.07 2.13-.08 2.14-.07 2.14-.07 2.13-.07 2.14-.06 2.13-.07 2.14-.06 2.14-.06 2.13-.06 2.13-.03 1.39-.04 1.39-.03 1.39-.04 1.39-.03 1.39-.03 1.39-.03 1.39-.03 1.39-.03 1.39-.03 1.39-.03 1.39-.02 1.39-.03 1.4-.02 1.38-.05 2.79-.05 2.78-.04 2.78-.04 2.78-.04 2.78-.03 2.79-.03 2.78-.03 2.79-.03 2.78-.03 2.78-.02 2.79-.03 2.78-.02 2.79-.02 2.78-.02 2.79-.01 2.78-.02 2.79-.01 2.78-.02 2.79-.01 2.79-.01 2.78-.02 5.58-.02 5.57-.01 1.47V936.483l.01 1.47.01 1.47v1.47l.01 1.47.01 1.47.03 2.94.02 2.95.02 2.9v.03l.01.12.01.39.01.54.01.31v.31l.01.32v.81l-.01.16v.16l-.01.2-.01.23-.03.27-.03.27-.05.28-.1.42-.07.25-.37.9v.01l-.42.71-.08.11-.08.11-1.32 1.29-1.65.82-1.83.29h.76l.23-.06.27-.07-.49.13h-.04l-.27.07-.26.06-.27.07-.29.06-.27.06-.24.06-.3.06-.26.06-.27.05-.27.06-.27.05-.27.05-.28.05-.29.06-.25.04-.27.05-.3.05-.25.04-.27.04-.28.05-.27.04-.3.04-.28.04-.25.04-.28.04-.27.03-.28.04-.28.03-.28.04-.27.03-.28.03-.28.03-.26.03-.28.03-.3.03-.28.02-.26.03-.28.02-.28.03-.28.02-.29.02-.26.02-.28.02-.28.02-.29.02-.28.02-.28.01-.29.02-.26.01-.28.02-.29.01-.26.01-.29.01-.31.02h-.27l-.54.02-.58.02-.56.01h-.57l-.56.01h-1.69l-.57-.01h-.57l-.56-.02-.57-.01-.57-.02-.56-.01-.57-.03-.57-.02-.57-.02-.56-.03-.58-.03-.56-.03-.56-.03-.57-.04-.57-.03-.57-.04-.57-.04-.57-.04-.56-.05-.56-.04-.58-.05-.57-.05-.56-.05-.56-.05-.58-.05-.56-.05-.56-.06-.57-.05-.56-.06-.56-.06-.57-.05-.56-.06-.57-.06-.56-.07-.56-.06-1.11-.12-1.12-.13-1.11-.13-1.12-.13-1.1-.13-1.1-.13-2.19-.26-1.09-.13-1.08-.13-1.08-.12-1.08-.13-1.06-.12-1.06-.12-1.06-.12-.52-.05-.51-.06-.52-.05-.54-.06-.5-.05-.52-.05-.51-.05-.51-.05-.51-.05-.51-.04-.5-.05-.5-.04-.5-.04-.51-.04-.49-.04-.49-.04-.49-.03-.49-.03-.49-.04-.47-.02-.48-.03-.49-.03-.47-.02-.47-.02-.47-.02-.47-.02-1-.03-1-.04-1-.03-1-.03-1-.03-1-.03-1-.03-.99-.03-1-.02-1-.03-1.01-.03-1-.02-.99-.02-1.01-.03-1-.02-1-.02-1-.02-1-.02-2-.04-2-.03-2.01-.03-2-.03-2-.03-2.01-.02-2-.02-2.01-.02-2.01-.02-2-.01-2-.01-2.01-.01-2.01-.01-2-.01-2.01-.01h-2.01l-2.01-.01H1302.03l-4.03.01h-10.07l-2.01-.01H1281.89l-2.02-.01-2.01-.01-2.02-.01-2.02-.01-2.01-.01-2.02-.01-2.02-.02-2.01-.01-2.02-.02-2.02-.03-2.02-.02-2.02-.03-2.02-.03-2.02-.03-2.01-.03-1.02-.02-1.01-.02-1.01-.02-1-.02-1.02-.02-1.01-.03-2.11-.04-2.11-.05-2.12-.04-2.11-.05-2.12-.04-2.11-.05-2.11-.04-2.12-.04-2.11-.04-2.11-.03-2.12-.04-2.11-.04-2.12-.03-2.11-.04-2.11-.03-2.11-.03-2.12-.03-2.11-.03-2.11-.04-2.12-.02-2.11-.03-2.12-.03-2.11-.02-2.11-.03-2.12-.02-2.11-.03-2.11-.02-2.12-.02-2.11-.02-2.12-.02-2.11-.03-2.11-.01-2.12-.02-2.11-.02-2.12-.01-2.11-.02-4.22-.03-4.23-.02-4.23-.03-4.23-.02-4.23-.02-4.22-.01-4.23-.01-4.23-.01-4.23-.01h-4.22l-4.23-.01h-8.46l-4.23.01h-4.23l-4.23.01-4.23.01-4.23.01-4.22.02-4.23.01-4.23.02-4.23.02-4.23.02-4.23.02-4.23.02-4.23.02-4.23.03-4.23.02-4.23.03-4.24.03-4.23.03-4.23.03-8.46.06-8.47.06-8.46.07-8.47.07-8.462.07-16.933.14h-.854l-.851.01-.851.01-.857.01-.843.01-.85.01-.858.02-.85.01-.85.01-.85.02-.85.01-.85.02-1.71.04-1.703.03-1.703.04-1.706.05-1.703.04-1.706.05-1.705.05-1.706.05-1.705.05-1.706.06-1.712.06-1.708.05-1.705.06-1.705.06-1.712.06-1.71.07-3.42.12-6.845.25-3.426.13-3.425.12-1.716.07-1.72.06-1.711.05-1.715.06-1.72.06-1.717.05-1.72.06-1.718.05-1.72.05-1.718.04-1.72.05-1.723.04-1.722.04-1.72.04-1.724.03-.863.02-.857.02-.863.01-.87.02-.857.01-.864.01-.864.01-.856.01-.872.01-.863.01-.864.01h-.864l-.857.01-.864.01H880.653l-1.722.01h-.871l-.864-.01h-1.73l-.864-.01h-.872l-.864-.01-.865-.01-.865-.01-.872-.01-.865-.01-.865-.01-.872-.02-.858-.01-.872-.02-.87-.02-2.246-.05-2.247-.05-2.245-.04-2.247-.05-2.247-.04-2.247-.05-2.247-.04-2.248-.04-2.247-.04-2.248-.04-2.247-.04-2.247-.04-2.248-.03-2.247-.04-2.248-.03-2.244-.04-2.251-.03-2.247-.03-2.248-.03-2.248-.03-2.247-.03-2.25-.03-2.246-.03-2.248-.02-2.25-.03-2.248-.02-2.248-.03-2.248-.02-2.248-.02-2.25-.02-2.248-.02-2.247-.02-4.498-.04-4.5-.03-4.496-.04-4.498-.03-4.497-.02-4.5-.03-4.498-.02-4.498-.02-4.5-.02-4.5-.01-4.5-.02-4.497-.01-4.5-.01-4.501-.01-4.5-.01h-4.5l-4.5-.01H707.657l-4.502-.01h-9l-9.003.01h-18.006l-9.003.01h-45.023l-4.502-.01h-4.503l-4.504-.01-4.503-.01-4.502-.01-4.503-.02-4.502-.01-4.501-.02H571.46l-1.131.01h-1.126l-1.131.01-1.126.01-1.125.01-1.136.01-1.126.01-1.126.02-1.136.01-1.126.02-1.126.02-1.136.02-1.126.02-1.131.02-1.13.02-1.132.03-1.131.02-1.125.03-1.136.02-1.131.03-1.131.03-1.131.03-1.126.03-1.136.03-1.131.03-1.13.04-1.137.03-2.261.07-2.264.08-2.266.07-2.265.08-2.266.08-2.27.08-2.265.09-2.27.08-2.267.09-2.267.09-4.541.18-4.541.17-4.524.18h-.099l-.112.01-.177.01-.152.02-.221.02-.245.02-.24.03-.297.03-.294.03-.315.04-.691.08-.736.09-.798.1-.832.1-.875.11-.911.11-.941.11-.487.05-.464.06-.49.05-.504.06-.48.05-.493.05-.517.05-.491.05-.491.05-.512.04-.51.05-.494.03-.491.04-.498.04-.495.03-.504.03-.248.01-.221.02-.247.01-.272.01-.216.01-.242.01-.24.01-.24.01h-.471l-.233.01H485.02l-.224-.01h-.252l-.22-.01-.217-.01-.217-.01-.248-.01-.213-.02-.246-.01-.211-.02-.211-.02-.244-.03-.21-.02-.245-.03-.247-.04-.207-.03-.251-.05-.25-.05-.168-.03-.257-.06-.303-.08-.218-.06-.213-.06-.148-.05-.186-.06-.084-.03-.097-.04-.19-.07-.194-.08-.097-.04-.102-.04-.197-.1-.201-.1-.102-.05-.11-.06-.217-.13-.11-.06-.112-.07-.224-.15-.205-.15-.118-.09-.223-.17-.19-.17-.034-.03-.682-.74-.011-.01-.17-.22-.15-.22-.296-.51-.037-.07-.086-.17-.118-.26-.075-.19-.081-.21-.08-.25-.074-.25-.067-.27-.055-.24-.043-.23-.036-.21-.03-.2-.025-.19-.023-.19-.018-.17-.017-.19-.016-.18-.014-.19-.012-.18-.011-.18-.01-.19-.01-.19-.007-.18-.007-.19-.007-.21-.011-.4-.008-.41-.006-.43-.003-.45-.001-.46v-.47l.003-.48.004-.5.006-.51.007-.52.009-.53.01-.55.012-.54.012-.57.014-.57.015-.57.032-1.17.036-1.19.037-1.21.04-1.21.08-2.43.08-2.38.037-1.15.035-1.13.032-1.08.028-1.05.013-.49.01-.49.01-.47.01-.45.007-.44.005-.42.005-.4.002-.38V927.273l-.002-.3-.005-.3-.012-.7-.012-.73-.011-.72-.01-.72-.01-.72-.007-.72-.007-.72-.006-.72-.005-.72-.004-.72-.003-.72-.002-.72-.002-.71-.001-.73v-.72l.002-.72.002-.71.002-.72.008-1.44.01-1.44.013-1.43.015-1.44.018-1.43.02-1.44.022-1.43.025-1.43.026-1.43.027-1.43.03-1.44.03-1.43.033-1.43.032-1.42.034-1.44.07-2.85.072-2.85.146-5.7.07-2.85.036-1.42.034-1.42.033-1.42.032-1.42.03-1.42.029-1.42.028-1.42.026-1.41.025-1.42.022-1.41.02-1.42.018-1.41.016-1.42.013-1.41.01-1.41.008-1.42.003-.7.002-.71v-2.82l-.002-.7-.003-.71-.004-.7-.005-.71-.005-.7-.007-.7-.007-.71-.01-.7-.008-.7-.01-.71-.012-.7-.012-.7-.013-.7-.015-.71-.016-.7-.017-.7-.017-.7-.02-.71-.02-.7-.021-.7-.022-.7-.024-.7-.034-.94-.035-.93-.037-.94-.04-.93-.04-.94-.042-.93-.045-.94-.046-.93-.048-.94-.05-.94-.05-.93-.053-.94-.054-.94-.055-.93-.057-.94-.06-.94-.06-.93-.06-.94-.063-.94-.064-.94-.065-.94-.067-.93-.067-.94-.07-.94-.07-.94-.07-.94-.072-.94-.074-.94-.074-.94-.075-.93-.076-.94-.077-.94-.078-.94-.08-.94-.078-.94-.08-.94-.163-1.88-.166-1.89-.168-1.88-.17-1.88-.171-1.88-.173-1.89-.175-1.89-.175-1.88-.353-3.78-.354-3.78-.177-1.89-.175-1.89-.175-1.89-.174-1.9-.172-1.89-.171-1.9-.168-1.89-.166-1.9-.164-1.9-.081-.95-.08-.95-.08-.95-.077-.95-.078-.95-.076-.95-.076-.95-.074-.95-.074-.95-.073-.96-.072-.95-.07-.95-.07-.96-.067-.95-.067-.95-.066-.96-.065-.95-.063-.96-.061-.95-.061-.96-.06-.95-.056-.96-.057-.95-.054-.96-.053-.96-.051-.95-.05-.96-.048-.96-.046-.95-.045-.97-.042-.95-.041-.96-.04-.96-.037-.96-.035-.96-.033-.96-.032-.96-.03-.96-.026-.96-.025-.96-.023-.96-.021-.97-.02-.96-.015-.96-.014-.96-.012-.97-.01-.96-.006-.97-.005-.96-.002-.97v-1.05l.002-1.05.004-1.05.006-1.06.007-1.05.009-1.05.012-1.05.013-1.05.015-1.05.017-1.06.018-1.05.019-1.05.022-1.05.024-1.05.024-1.05.027-1.05.028-1.05.029-1.05.03-1.05.034-1.05.034-1.05.035-1.05.037-1.05.038-1.04.039-1.05.04-1.05.043-1.05.043-1.05.044-1.05.046-1.04.047-1.05.048-1.05.049-1.05.05-1.05.05-1.04.053-1.05.054-1.05.054-1.04.055-1.05.056-1.05.057-1.04.058-1.05.059-1.04.059-1.05.06-1.05.062-1.04.124-2.09.128-2.09.129-2.09.132-2.09.134-2.09.136-2.08.138-2.09.139-2.08.14-2.09.143-2.08.142-2.09.287-4.16.287-4.17.287-4.16.142-2.08.142-2.08.14-2.08.14-2.07.138-2.08.136-2.08.135-2.07.13-2.08.13-2.08.129-2.07.125-2.07.06-1.04.06-1.03.06-1.04.06-1.04.058-1.03.058-1.04.056-1.03.055-1.04.055-1.03.053-1.04.053-1.04.05-1.03.052-1.03.049-1.04.049-1.03.047-1.04.046-1.03.045-1.03.044-1.04.042-1.03.042-1.04.039-1.03.039-1.03.037-1.04.036-1.03.035-1.03.03-.92.028-.92.027-.92.025-.93.025-.92.023-.92.022-.92.02-.92.02-.93.019-.92.017-.92.016-.92.015-.93.014-.92.012-.92.012-.93.01-.92.009-.92.009-.93.007-.92.006-.93.006-.92.003-.92.004-.93.002-.92v-2.77l-.001-.93-.003-.93-.004-.92-.004-.93-.005-.92-.006-.93-.007-.92-.008-.93-.01-.92-.008-.93-.01-.93-.011-.93-.012-.92-.013-.93-.027-1.85-.03-1.86-.033-1.85-.036-1.85-.038-1.86-.04-1.86-.043-1.85-.044-1.86-.048-1.86-.048-1.85-.051-1.86-.053-1.86-.054-1.86-.056-1.86-.057-1.85-.058-1.87-.06-1.86-.06-1.86-.062-1.86-.062-1.86-.063-1.86-.13-3.72-.128-3.72-.131-3.73-.13-3.72-.13-3.73-.127-3.73-.062-1.86-.062-1.86-.061-1.87-.06-1.86-.058-1.87-.058-1.86-.056-1.86-.054-1.87-.053-1.86-.051-1.87.394-2.3 1.247-1.98 1.91-1.36 2.283-.52 2.308.4 1.98 1.24 1.355 1.91.084.38.12-.1 2.259-.61 1.069-.08 1.074-.07 1.074-.07 1.074-.07 1.073-.07 1.068-.06 1.074-.07 1.073-.06 1.073-.06 1.073-.06 1.067-.05 1.073-.06 1.072-.05 1.067-.05 1.067-.05 1.073-.05 1.072-.05 1.072-.05 1.066-.04 1.066-.04 1.073-.04 1.07-.04 1.067-.04 1.066-.04 1.07-.03 1.067-.04 1.066-.03 1.07-.03 1.066-.03 1.066-.03 1.07-.03 1.066-.02 1.059-.03 1.07-.02 1.072-.03 1.059-.02 1.065-.02 1.07-.02 1.065-.02 1.065-.01 1.065-.02 1.059-.02 1.065-.01 1.07-.02 1.065-.01 1.064-.01 1.059-.01 1.064-.01 1.07-.01 1.059-.01h1.059l1.067-.01 2.126-.01 2.126-.01 2.126-.01h6.372l4.244.01 4.243.01 4.242.02 4.24.03 4.24.02 4.239.03 4.239.02 4.24.03 2.119.01 2.116.01 2.117.01h2.12l2.12.01H609.586l2.12-.01 2.123-.01 1.055-.01 1.059-.01h1.064l1.059-.01 1.053-.01 1.065-.01 1.065-.01 1.056-.01 2.417-.03 2.419-.03 2.419-.03 2.42-.02 2.417-.02 2.419-.03 2.42-.02 2.418-.02 2.416-.02 2.418-.02 2.42-.01 2.419-.02 2.416-.02 2.418-.01 2.417-.01 2.418-.02 2.418-.01 2.418-.01 2.417-.01 2.418-.01 2.415-.01 2.417-.01h2.418l2.416-.01 4.835-.01 4.832-.01 4.832-.01H709.329l4.83.01h4.832l4.832.01 9.66.02 9.662.03 4.83.02 4.829.02 4.83.01 4.83.03 4.829.02 9.658.04 9.657.05 9.658.04 9.656.05 9.657.04 9.657.05 4.828.02 9.656.04 9.656.03 4.828.02 4.827.01 4.83.01 4.827.02h4.828l4.829.01 4.827.01h14.486l4.83-.01 4.829-.01 4.83-.01h2.412l2.415-.01 2.416-.01 2.414-.01 2.415-.01h2.414l2.414-.02 2.417-.01 3.083-.01 3.082-.02 3.084-.02 3.085-.02 3.082-.02 3.084-.03 3.085-.02 3.082-.02 3.085-.03 3.084-.03 3.085-.03 3.084-.03 3.085-.03 3.084-.03 3.083-.03 3.085-.04 3.086-.03 3.085-.04 3.085-.04 3.085-.03 3.084-.04 3.09-.04 3.08-.04 3.09-.04 3.08-.05 3.09-.04 6.17-.09 6.17-.08 6.17-.1 6.17-.09 6.18-.1 6.17-.1 6.17-.1 6.18-.1 6.17-.1 6.17-.1 6.18-.11 12.35-.21 12.35-.21 12.35-.21 6.18-.11 6.17-.1 6.18-.1 6.17-.11 6.18-.09 6.18-.1 6.18-.1 6.17-.09 6.18-.09 6.18-.09 6.18-.09 3.09-.04 3.09-.04 3.08-.04 3.1-.04 3.08-.04 3.09-.04 3.09-.04 3.09-.04 3.09-.03 3.09-.03 3.09-.04 3.09-.03 3.09-.03 3.09-.03 3.09-.03 3.09-.03 3.09-.03 3.09-.02 3.09-.03 3.09-.02 3.09-.02 3.09-.02 3.09-.02 3.09-.02 3.09-.02 3.09-.01 3.09-.02 3.09-.01 3.09-.01 3.09-.01 3.09-.01h3.09l3.09-.01h15.45l6.18.01 6.18.02 3.09.01 3.09.02 3.09.01 3.09.02 2.89.02 2.9.02 2.89.02 2.89.03 2.9.03 2.89.03 2.9.03 2.89.04 2.9.03 2.89.05 2.9.04 2.89.04 2.9.05 2.89.05 2.9.06 2.89.05 2.9.06 5.79.12 2.9.07 2.89.07 2.9.07 2.9.08 2.89.08 2.89.08 2.9.08 2.89.09 2.9.09 2.89.09 1.44.05 1.45.05 1.45.05 1.44.05 1.45.05 1.45.05.72.02 1.46.06 2.17.09.73.03.73.03 1.45.07 1.45.07 1.45.07 1.45.08 1.45.07 1.45.08 1.45.09 1.44.08 1.45.09 1.44.09 1.45.09 1.39.09.14.01.46.02.63.03.35.01.39.02.37.02.36.02.35.02.33.03.12.01.17.01.24.02.22.03.15.02h.02l.64.13-.1-.03.13.03.24.07zm-320.46 488.54h4.24l4.24.01 4.23.01 4.24.01 4.23.01 4.23.02 4.24.02 4.24.03 4.23.02 4.24.03 2.12.02 2.12.01 2.11.02 2.12.02 2.12.02 2.12.02 2.12.02 2.11.02 2.12.02 2.12.02 2.12.03 2.12.02 4.23.05 2.13.03 2.11.03 2.12.02 2.12.04 2.12.03 2.12.03 2.11.03 2.13.03 4.23.07 2.12.04 4.24.08 2.12.04 2.12.04 2.12.04 4.24.08 2.12.05 2.12.04 4.23.1 1.01.02.99.02 1.01.02 1 .02 1 .02 1 .02 2 .03 2 .03 2.01.03 2 .03 2.01.02 2 .03 2 .02 2.01.01 2.01.02 2 .01 2.01.01 4.01.02 4.02.02h4.02l4.01.01h8.04l4.03-.01h20.13l2.02.01 4.03.01 2.01.01 2.02.01 2.02.01 2.01.01 2.02.02 4.03.03 2.02.02 2.02.03 2.02.02 2.02.03 2.02.03 2.02.04 2.02.03 1.01.02 1.01.02 1.02.02 1 .03 1.01.02 1.01.02 1.01.03 1.01.02 1.01.03 2.02.05 1.01.03 1.01.03 1.01.03 1.02.04 1.01.03 1.01.03 1.01.04.52.02.52.02.52.02.53.03.51.03.53.02.53.04.52.03.53.04.53.04.53.03.54.05.52.04.53.04.54.05.53.05.54.04.53.05.54.05.54.06.53.05.55.06.53.05.54.06.55.05.54.07 1.08.11 1.08.13 1.1.12 1.09.13 1.08.13 1.1.13 1.09.13 2.19.26 1.09.13 1.1.13 1.09.12 1.09.13 1.1.12 1.09.13 1.09.11 1.09.12 1.08.11.54.06.55.05 1.08.1.53.05 1.09.1.53.04.53.04.54.05.54.04.53.04.53.04.53.03.53.04.52.03.54.03.53.03.51.02.54.03.52.02.51.02.53.02.52.02.51.01.52.02.52.01h.5l.51.01H1425.45l.5-.01.5-.01.48-.01.52-.02.25-.01.22-.01.24-.01.27-.01.24-.01.24-.01.26-.01.24-.02.23-.01.24-.02.24-.01.24-.02.23-.02.26-.01.24-.02.23-.02.24-.02.23-.02.26-.03.23-.02.21-.02.24-.02.25-.03.23-.03.24-.02.23-.03.23-.03.23-.03.23-.03.22-.03.23-.03.25-.03.23-.03.21-.04.22-.03.23-.03.22-.04.1-.02-.01-1.26-.02-2.95-.03-2.95-.01-1.47-.01-1.48v-1.48l-.01-1.48-.01-1.48v-5.93l.01-1.48.02-5.58.02-5.58.01-2.79.01-2.79.02-2.79.01-2.79.02-2.79.01-2.79.02-2.79.02-2.79.02-2.79.03-2.79.02-2.8.03-2.79.03-2.79.03-2.79.03-2.8.03-2.79.04-2.79.04-2.79.04-2.8.05-2.79.05-2.8.02-1.39.03-1.4.03-1.4.02-1.4.03-1.39.03-1.4.03-1.4.03-1.4.03-1.39.04-1.4.03-1.4.03-1.4.04-1.39.04-1.4.05-2.15.06-2.15.07-2.15.06-2.14.07-2.15.07-2.15.07-2.15.07-2.14.07-2.15.08-2.14.08-2.15.08-2.14.08-2.15.08-2.14.08-2.15.09-2.14.08-2.14.09-2.15.17-4.28.17-4.28.18-4.29.18-4.28.17-4.28.17-4.28.18-4.27.08-2.14.08-2.14.09-2.14.08-2.14.08-2.13.08-2.14.07-2.13.08-2.14.07-2.14.08-2.13.07-2.14.07-2.13.06-2.14.07-2.14.06-2.13.06-2.14.06-2.13.05-2.13.05-2.14.05-2.13.05-2.14.02-1.06.02-1.07.02-1.07.02-1.06.02-1.07.02-1.07.01-1.06.02-1.07.02-1.07.01-1.06.02-1.07.01-1.06.01-1.07.01-1.07.01-1.06.01-1.07.01-1.07.01-1.06v-1.07l.01-1.06v-1.07l.01-1.07v-3.77l-.01-.95v-.94l-.01-.94v-.95l-.01-.94-.01-.95-.01-.94-.01-.95-.01-.94-.02-.95-.01-.94-.02-.95-.02-.94-.01-.95-.02-.94-.02-.95-.02-.94-.02-.95-.02-.94-.02-.95-.03-.95-.02-.94-.03-.95-.02-.95-.03-.94-.03-.95-.05-1.89-.06-1.89-.07-1.9-.06-1.89-.07-1.9-.07-1.89-.07-1.9-.07-1.9-.08-1.89-.08-1.9-.07-1.9-.08-1.9-.08-1.89-.08-1.9-.08-1.9-.17-3.8-.33-7.61-.17-3.8-.08-1.91-.08-1.9-.08-1.91-.08-1.9-.08-1.91-.08-1.9-.07-1.91-.07-1.91-.08-1.91-.07-1.9-.06-1.91-.07-1.91-.06-1.91-.06-1.92-.06-1.9-.03-.96-.02-.95-.03-.96-.02-.96-.03-.95-.02-.96-.02-.96-.03-.95-.02-.96-.02-.96-.02-.95-.01-.96-.02-.96-.02-.96-.01-.96-.02-.95-.01-.96-.01-.96-.01-.96-.01-.96-.01-.95-.01-.96-.01-.94v-3.75l.01-.94.01-.93.01-.94.01-.94.01-.93.02-.94.01-.94.02-.93.02-.94.02-.93.03-.94.02-.94.03-.93.03-.94.03-.93.03-.94.03-.93.03-.94.04-.93.04-.94.03-.93.04-.94.04-.93.04-.94.04-.93.05-.94.04-.93.04-.94.05-.93.09-1.86.09-1.87.1-1.87.1-1.86.1-1.86.1-1.87.1-1.86.21-3.72.2-3.72.1-1.85.1-1.86.1-1.85.1-1.86.09-1.85.09-1.85.04-.93.05-.92.04-.93.04-.92.04-.92.04-.93.04-.92.04-.92.03-.92.04-.93.03-.92.03-.92.03-.92.03-.92.03-.92.03-.92.03-.92.02-.92.02-.92.02-.92.02-.92.02-.91.01-.92.02-.92.01-.91.01-.92.01-.91v-.92l.01-.91v-2.74l-.01-.91-.01-.92-.01-.91-.01-.91-.01-.91-.02-.91-.01-.91-.03-.91-.02-.91-.03-.91-.02-.91-.04-.9-.03-.91-.04-.9-.04-.91-.04-.91-.04-.9-.03-.45-.02-.45-.03-.46-.03-.45-.02-.45-.03-.45-.03-.45-.03-.45-.03-.45-.03-.45-.02-.29-.1-.01-1.43-.09-1.43-.09-1.43-.08-1.43-.09-1.43-.08-1.42-.08-1.43-.07-1.43-.08-1.43-.07-1.42-.07-.72-.03-.71-.03-.71-.03-.71-.03-.71-.03-.72-.03-.71-.03-.72-.03-.71-.02-.71-.03-1.44-.05-1.44-.05-1.44-.05-1.44-.05-1.44-.05-1.44-.04-2.88-.1-2.88-.09-2.89-.08-2.88-.09-2.88-.08-2.88-.07-2.89-.08-2.88-.07-2.89-.07-2.88-.07-2.88-.06-2.89-.06-2.88-.06-2.89-.06-2.88-.05-2.89-.05-2.88-.05-2.89-.04-2.88-.05-2.89-.04-2.88-.04-2.89-.03-2.88-.03-2.88-.03-2.89-.03-2.88-.03-2.88-.02-2.89-.02-2.88-.02-3.08-.02-3.09-.01-3.08-.02-3.08-.01-3.09-.01-3.08-.01h-3.08l-3.09-.01h-15.42l-3.08.01h-3.08l-3.09.01-3.08.01-3.09.01-3.08.01-3.09.02-3.08.01-3.08.02-3.09.02-3.09.02-3.08.02-3.08.02-3.09.02-3.08.03-3.09.02-3.09.03-3.08.03-3.08.03-3.09.03-3.09.03-3.08.03-3.09.03-3.08.04-3.09.03-3.08.04-3.09.04-3.09.04-3.08.04-3.09.03-3.09.05-3.08.04-3.09.04-6.17.09-6.17.08-6.18.1-6.17.09-6.17.1-6.18.09-6.17.1-6.17.1-6.18.11-6.17.1-6.18.1-12.35.22-12.35.21-12.35.21-6.17.1-6.18.11-6.17.1-6.18.1-6.18.1-6.17.1-6.18.1-6.18.09-6.17.09-6.18.09-6.18.09-3.08.04-3.09.05-3.09.04-3.09.04-3.087.04-3.088.04-3.09.03-3.088.04-3.088.04-3.086.03-3.09.04-3.09.03-3.088.03-3.088.03-3.088.03-3.09.03-3.087.03-3.088.03-3.091.02-3.087.02-3.09.03-3.088.02-3.09.02-3.087.02-3.09.02-3.088.01-2.417.01-2.42.02h-2.42l-2.418.01-2.42.01-2.416.01-2.42.01h-2.42l-4.834.01-4.836.01-4.834.01h-14.503l-4.835-.01-4.833-.01h-4.833l-4.833-.02-4.831-.01-4.832-.01-4.833-.02-4.831-.01-4.83-.02-4.831-.02-4.83-.02-4.83-.02-9.66-.05-9.658-.04-9.657-.05-9.657-.04-9.656-.05-9.654-.04-4.828-.02-4.827-.03-4.826-.01-4.828-.02-4.826-.02-4.826-.01-4.828-.02-4.827-.01-4.826-.01-4.825-.01h-4.828l-4.826-.01h-14.477l-4.827.01-4.828.01-4.824.01-2.414.01h-2.413l-2.412.01-2.415.01-2.413.01-2.413.01-2.413.01-2.413.01-2.413.02-2.413.01-2.413.01-2.415.02-2.414.01-2.41.02-2.414.02-2.416.02-2.413.02-2.411.02-2.413.03-2.416.02-2.412.02-2.414.03-2.414.03-2.414.02-1.074.02-1.065.01-1.065.01-1.075.01-1.07.01h-1.064l-1.07.01-1.072.01-2.132.01-2.132.01H598.966l-2.125-.01h-2.126l-2.127-.01-2.128-.01-2.124-.01-4.243-.03-4.241-.02-4.24-.03-4.236-.02-2.117-.01-2.116-.02-2.115-.01-2.116-.01h-2.115l-2.112-.01-2.112-.01h-8.448l-2.11.01-2.11.01-2.108.01-1.05.01h-1.06l-1.058.01-1.048.01-1.054.01-1.058.01-1.054.01-1.053.01-1.048.02-1.054.01-1.06.02-1.053.01-1.054.02-1.054.02-1.048.02-1.054.02-1.06.02-1.048.02-1.048.03-1.06.02-1.054.03-1.05.03-1.053.02-1.055.03-1.05.03-1.054.04-1.054.03-1.05.04-1.054.03-1.055.04-1.05.04-1.05.04-1.055.04-1.056.04-1.05.05-1.05.04-1.05.05-1.056.05-1.056.05-1.051.06-1.05.05-1.057.06-1.051.05-1.051.06-1.052.06-1.051.07-1.057.06-1.052.07-1.052.06-1.052.07-1.052.08-1.058.07-2.323-.3-.197-.11.01.33.058 1.86.06 1.85.06 1.86.062 1.86.062 1.86.128 3.72.129 3.72.26 7.45.13 3.72.129 3.73.063 1.87.062 1.86.063 1.87.06 1.87.06 1.86.059 1.87.057 1.87.056 1.87.055 1.87.052 1.87.05 1.86.05 1.87.048 1.87.045 1.87.043 1.87.04 1.87.039 1.88.036 1.87.033 1.87.03 1.87.028 1.87.013.94.012.94.01.93.01.94.01.94.009.93.008.94.008.94.006.93.005.94.004.94.004.93.003.94v.94l.002.94v.93l-.001.94-.002.94-.004.94-.004.93-.005.94-.006.94-.008.94-.008.93-.01.94-.01.94-.012.94-.012.93-.014.94-.016.94-.016.94-.017.93-.02.94-.02.94-.02.94-.022.93-.024.94-.025.94-.026.94-.028.94-.028.93-.031.94-.035 1.05-.036 1.05-.038 1.05-.04 1.05-.04 1.05-.042 1.04-.043 1.05-.044 1.05-.046 1.05-.046 1.04-.048 1.05-.05 1.05-.05 1.05-.05 1.04-.052 1.05-.053 1.04-.054 1.05-.055 1.05-.056 1.04-.057 1.05-.058 1.05-.06 1.04-.058 1.04-.061 1.05-.06 1.05-.062 1.04-.126 2.09-.13 2.09-.13 2.09-.132 2.08-.135 2.09-.137 2.09-.14 2.08-.14 2.09-.14 2.09-.142 2.08-.142 2.08-.287 4.17-.288 4.16-.286 4.16-.142 2.08-.141 2.08-.141 2.08-.138 2.08-.137 2.07-.136 2.08-.133 2.08-.132 2.07-.128 2.08-.127 2.07-.123 2.07-.06 1.04-.061 1.04-.058 1.03-.06 1.04-.056 1.04-.056 1.03-.056 1.04-.055 1.03-.053 1.04-.053 1.03-.052 1.04-.05 1.03-.05 1.04-.048 1.04-.048 1.03-.046 1.03-.045 1.04-.043 1.03-.043 1.04-.041 1.03-.041 1.03-.038 1.04-.038 1.03-.036 1.04-.035 1.03-.033 1.03-.032 1.03-.031 1.04-.028 1.03-.028 1.03-.026 1.03-.024 1.04-.024 1.03-.021 1.03-.02 1.03-.017 1.03-.017 1.04-.014 1.03-.013 1.03-.011 1.03-.01 1.03-.007 1.03-.006 1.03-.003 1.03-.002 1.03v1.03l.002.94.004.93.007.94.009.93.012.93.013.94.016.93.018.94.02.93.023.94.024.93.027.94.028.93.03.94.033.93.035.94.036.93.038.94.04.94.042.93.043.94.046.93.046.94.049.93.05.94.052.94.053.94.055.93.057.94.058.94.059.93.06.94.062.94.064.94.065.93.066.94.067.94.068.94.069.94.07.93.073.94.072.94.074.94.075.94.075.94.077.94.077.94.079.94.079.94.079.94.163 1.88.165 1.88.166 1.89.17 1.88.17 1.88.174 1.89.175 1.88.175 1.89.176 1.89.354 3.77.353 3.78.176 1.89.175 1.9.174 1.89.173 1.9.17 1.89.17 1.9.166 1.89.164 1.9.082.95.08.95.08.95.078.95.078.95.077.95.076.95.076.95.074.96.073.95.072.95.07.96.07.95.07.95.067.95.066.96.066.95.064.96.062.95.06.95.06.96.059.96.057.95.055.96.054.95.052.96.05.96.049.95.047.96.046.96.043.96.042.95.04.97.038.95.036.96.034.96.025.73.023.72.022.72.02.72.02.72.019.72.017.73.016.71.015.72.014.73.012.72.012.71.01.73.01.72.009.72.008.72.006.72.006.72.005.72.004.72.003.72.002.71v2.88l-.002.72-.003.72-.008 1.43-.011 1.44-.013 1.43-.016 1.44-.018 1.43-.02 1.44-.023 1.43-.025 1.43-.026 1.43-.028 1.44-.03 1.43-.03 1.42-.032 1.43-.034 1.43-.033 1.43-.036 1.43-.071 2.85-.145 5.7-.072 2.85-.07 2.84-.034 1.42-.033 1.42-.031 1.43-.031 1.42-.03 1.41-.026 1.42-.026 1.42-.024 1.42-.022 1.41-.02 1.42-.018 1.41-.015 1.42-.013 1.41-.01 1.41-.007 1.42-.002.7-.002.71-.001.71-.001.7v.7l.003.71.002.71.003.7.004.71.005.7.006.7.007.71.007.7.009.71.01.7.01.7.012.71.013.71.005.35.003.38v.81l-.003.43-.004.44-.006.45-.008.47-.01.48-.01.5-.012.5-.013.53-.03 1.07-.031 1.1-.036 1.15-.038 1.16-.08 2.39-.08 2.42-.04 1.2-.036 1.19-.035 1.17-.031 1.15-.015.56-.013.54-.012.54-.011.53-.01.52-.008.5-.007.5-.006.47-.004.46v.09h.052l.186-.01h.19l.192-.01.22-.01.17-.01.199-.01.226-.01.203-.01.409-.02.427-.03.432-.03.448-.04.452-.03.442-.04.443-.04.469-.05.469-.04.444-.05.466-.05.476-.05.45-.04.458-.06.479-.05.447-.05.9-.11.883-.1.864-.11.839-.1.796-.1.77-.09.716-.09.35-.04.34-.04.309-.03.334-.04.297-.03.287-.02.322-.03.26-.02.287-.02h.163l.097-.01 4.557-.18 4.54-.18 4.544-.17 2.275-.09 2.274-.09 2.273-.08 2.277-.09 2.274-.08 2.277-.08 2.279-.08 2.277-.08 2.28-.07 2.28-.07 1.138-.03 1.14-.04 1.142-.03 1.136-.03 1.146-.04 1.142-.03 1.14-.03 1.142-.02 1.136-.03 1.146-.03 1.142-.02 1.14-.03 1.142-.02 1.14-.02 1.148-.02 1.136-.02 1.147-.02 1.146-.02 1.136-.01 1.146-.02 1.147-.01 1.136-.01 1.146-.01 1.147-.01 1.14-.01h1.148l1.14-.01H577.14l4.5.02 4.499.01 8.997.03 4.498.01 4.498.01h4.498l4.5.01h45.005l9.004-.01h18.008l9.004-.01h4.504l13.51.01 9.006.01h4.505l4.504.01 9.007.02 4.506.01 4.504.02 4.503.01 4.504.02 4.506.02 9.008.05 4.506.02 4.505.03 4.505.04 4.504.03 4.504.04 2.254.02 6.757.06 4.506.05 6.757.08 2.256.02 2.25.03 2.253.03 2.252.03 2.253.03 2.253.03 2.25.03 2.256.04 4.505.07 4.505.07 4.505.08 4.506.08 2.252.05 2.252.04 2.253.04 2.252.05 2.255.04 4.505.1.848.02 2.548.05.85.01.853.01.844.01.852.01 1.702.02h.844l1.702.01 1.702.01h.843l1.708-.01H882.32l.85-.01h.857l.85-.01.85-.01.85-.01.844-.01.857-.01.85-.01.85-.01.857-.01.842-.02.85-.01.857-.02.85-.01 1.703-.04 1.706-.03 1.702-.04 1.703-.05 1.705-.04 1.706-.05 1.705-.05 1.705-.05 1.705-.05 1.705-.05 1.705-.06 1.708-.06 1.712-.06 1.705-.06 1.707-.06 3.42-.12 3.422-.13 6.846-.25 3.427-.13 1.714-.06 1.712-.06 1.718-.06 1.719-.06 1.715-.06 1.712-.05 1.72-.06 1.719-.05 1.719-.06 1.719-.04 1.72-.05 1.723-.05 1.72-.04 1.723-.04 1.724-.04 1.717-.04.863-.01.864-.02.864-.02.864-.01.863-.01.858-.02.864-.01.87-.01.858-.01.864-.01.864-.01h.86l16.94-.14 8.47-.07 8.47-.07 8.46-.07 8.47-.06 8.47-.06 4.23-.03 4.23-.03 4.24-.03 4.23-.03 4.24-.02 4.23-.03 4.23-.02 4.24-.02 4.23-.02 4.23-.02 4.24-.02 4.23-.02 4.23-.01 4.24-.02 4.23-.01 4.24-.01 4.23-.01h4.24l4.23-.01h4.24l8.46.01z" fill="red"/><text x="2363.08" y="16783.7" font-family="'Boogaloo-Regular','Boogaloo',cursive" font-size="86.183" transform="translate(-1638.75 -16177.357)">W<tspan x="2417.12" y="16783.7">e</tspan>b Component</text><text x="2472.53" y="16783.7" font-family="'Boogaloo-Regular','Boogaloo',cursive" font-size="86.183" transform="translate(-1638.75 -15972.2)">&lt;slot&gt;</text><text x="2352.43" y="16783.7" font-family="'Boogaloo-Regular','Boogaloo',cursive" font-size="86.183" fill="red" transform="translate(-1669.56 -16515.7)">Isolation du CSS</text><g><path fill="none" stroke="#000" stroke-width="6.6" d="M621.06 687h679v207h-679z"/></g></svg>