<svg viewBox="0 0 1921 1081" xmlns="http://www.w3.org/2000/svg" fill-rule="evenodd" clip-rule="evenodd" stroke-linejoin="round" stroke-miterlimit="1.414"><path fill="#fff" d="M.78.5h1920v1080H.78z"/><path d="M285.218 201.447l1.353 1.91.086.38.13-.1 2.259-.61 1.064-.08 1.068-.07 1.074-.07 1.074-.07 1.068-.07 1.073-.06 1.079-.07 1.068-.06 1.067-.06 1.079-.06 1.073-.05 1.067-.06 1.067-.05 1.073-.05 1.072-.05 1.067-.05 1.072-.05 1.072-.05 1.066-.04 1.066-.04 1.072-.04 1.072-.04 1.066-.04 1.066-.04 1.066-.03 1.071-.04 1.071-.03 1.06-.03 1.071-.03 1.071-.03 1.06-.03 1.065-.02 1.071-.03 1.071-.02 1.059-.03 1.065-.02 1.071-.02 1.065-.02 1.064-.02 1.059-.01 1.065-.02 1.07-.02 1.065-.01 1.065-.02 1.064-.01 1.059-.01 1.065-.01 1.07-.01 1.059-.01 1.064-.01h1.064l1.059-.01 2.129-.01 2.126-.01 2.126-.01h6.372l4.241.01 2.126.01h2.12l2.121.01 2.121.01 2.118.01 2.123.01 4.241.03 4.239.03 4.237.02 4.238.03 2.118.01 2.122.01 2.117.01 4.237.01H412.426l2.118-.01 2.116-.01 1.061-.01h1.064l1.053-.01 1.059-.01 1.065-.01 1.059-.01 1.059-.01 1.064-.02 2.416-.02 2.418-.03 2.422-.03 2.418-.02 2.416-.02 2.418-.03 2.421-.02 2.418-.02 2.416-.02 2.418-.02 2.421-.01 2.416-.02 2.418-.02 2.42-.01 2.415-.01 2.418-.02 2.418-.01 2.418-.01 2.417-.01 2.415-.01 2.418-.01 2.417-.01 2.418-.01h2.417l4.832-.01 4.835-.01 4.832-.01H512.166l4.833.01 9.661.01 4.831.01 4.831.01 4.831.02 9.66.03 4.83.02 4.828.01 4.831.03 4.829.02 9.658.04 9.658.05 9.656.04 9.658.05 9.656.05 9.657.04 4.828.02 4.828.02 4.828.02 9.655.03 4.829.02 4.829.01 4.826.02h4.829l4.828.01 9.657.02h14.487l4.828-.01 4.829-.01 4.827-.01h2.416l2.416-.01 2.414-.01h2.414l2.414-.02h2.415l2.414-.02 2.417-.01 3.083-.01 3.082-.02 3.083-.02 3.084-.02 3.086-.02 3.082-.02 3.083-.03 3.086-.03 3.084-.02 3.083-.03 3.085-.03 3.084-.03 3.083-.03 3.084-.03 3.087-.04 3.085-.03 3.084-.03 3.085-.04 3.083-.03 3.087-.04 3.085-.04 3.089-.04 3.08-.04 3.09-.04 3.08-.05 3.09-.04 6.17-.08 6.17-.09 6.17-.1 6.17-.09 6.18-.1 6.17-.1 6.17-.1 6.18-.1 6.17-.1 6.17-.11 6.18-.1 12.35-.21 12.35-.21 12.35-.21 6.18-.11 6.17-.1 6.18-.1 6.17-.1 6.18-.1 6.18-.1 6.18-.1 6.17-.09 6.18-.1 6.18-.08 6.18-.09 3.09-.04 3.09-.04 3.08-.04 3.1-.04 3.08-.04 3.09-.04 3.09-.04 3.09-.03 3.09-.04 3.09-.03 3.09-.04 3.09-.03 3.09-.03 3.09-.03 3.09-.03 3.09-.03 3.09-.03 3.09-.02 3.09-.03 3.09-.02 3.09-.02 3.09-.02 3.09-.02 3.09-.02 3.09-.02 3.09-.01 3.09-.02 3.09-.01 3.09-.01 3.09-.01 3.09-.01h3.09l3.09-.01h15.45l6.18.01 3.09.01 6.18.02 3.09.02 3.09.01 3.09.02 2.89.02 2.9.02 2.89.02 2.89.03 5.79.06 2.9.03 2.89.04 2.9.03 2.89.04 2.9.05 2.89.04 2.9.05 2.89.05 2.9.05 2.9.06 2.89.06 2.9.06 2.89.06 2.9.07 2.89.07 2.9.07 2.89.08 2.9.08 2.89.08 2.9.08 2.89.09 2.9.09 2.89.09 1.45.05 2.89.1 1.44.05 1.45.05 1.45.05 1.45.05 1.45.06.73.03.73.03.72.03.73.03 1.45.07 1.45.07 1.45.07 1.45.08 1.45.07 1.45.08 1.44.09 1.45.08 2.89.18 1.45.09 1.39.09.14.01.46.02.63.03.35.01.37.02.37.02.38.02.35.02.32.02.18.02.18.01.18.02.22.03.14.02.11.01.1.02.77.19.81.31h.01l1.69 1.19 1.12 1.56.61 2.15.05.46.04.48.04.47.04.47.04.47.03.47.04.47.04.47.03.47.04.48.03.47.03.47.04.47.03.47.03.48.03.47.03.47.02.47.03.47.03.47.02.48.03.47.05.94.04.94.04.95.04.94.04.94.03.95.03.94.03.94.02.94.02.95.02.94.02.94.01.94.01.95.01.94.01.94.01.94v2.83l-.01.94v.94l-.01.94-.01.94-.01.94-.02.94-.01.94-.02.94-.02.94-.02.94-.02.94-.03.94-.02.94-.03.94-.03.94-.03.93-.03.94-.04.94-.03.94-.04.94-.03.93-.04.94-.04.94-.04.93-.04.94-.04.94-.04.93-.05.94-.04.94-.09 1.86-.1 1.87-.09 1.87-.1 1.87-.1 1.86-.1 1.87-.21 3.72-.2 3.72-.11 1.86-.1 1.86-.1 1.85-.1 1.85-.09 1.85-.1 1.85-.09 1.86-.04.92-.05.92-.04.92-.04.93-.04.92-.04.92-.04.92-.04.92-.03.92-.04.92-.03.92-.04.92-.03.92-.03.92-.03.91-.03.92-.02.92-.03.91-.02.92-.02.91-.02.92-.02.91-.02.91-.01.92-.01.91-.02.91v.91l-.01.91-.01.92V324.057l.01.91.01.94.01.95.01.94.01.95.01.94.01.95.02.94.01.94.02.95.01.95.02.94.02.95.02.94.02.95.02.94.02.95.03.94.02.95.03.95.02.94.03.95.03.94.05 1.9.06 1.89.07 1.9.06 1.89.07 1.89.06 1.9.08 1.9.07 1.89.07 1.9.08 1.9.08 1.89.08 1.9.08 1.9.08 1.9.08 1.9.17 3.8.33 7.6.16 3.81.09 1.9.08 1.91.08 1.9.08 1.91.07 1.9.08 1.91.08 1.91.07 1.9.07 1.91.07 1.91.07 1.91.07 1.91.06 1.91.06 1.91.06 1.91.02.95.03.96.03.96.02.95.03.96.02.96.02.95.03.96.02.96.02.95.02.96.02.96.01.96.02.95.02.96.01.96.01.96.02.95.01.96.01.96.01.96.01.96v.96l.01.96v.96l.01.95v3.84l-.01 1.08v1.08l-.01 1.08v1.07l-.01 1.08-.01 1.08-.01 1.08-.01 1.07-.01 1.08-.01 1.07-.01 1.08-.02 1.08-.01 1.07-.02 1.08-.02 1.08-.01 1.07-.02 1.08-.02 1.07-.02 1.08-.02 1.08-.02 1.07-.02 1.08-.05 2.15-.05 2.15-.05 2.15-.06 2.14-.06 2.15-.06 2.15-.06 2.15-.06 2.15-.07 2.14-.07 2.15-.07 2.15-.07 2.14-.08 2.15-.07 2.15-.08 2.14-.08 2.15-.08 2.14-.08 2.14-.09 2.15-.08 2.14-.08 2.14-.18 4.29-.17 4.28-.17 4.29-.18 4.28-.18 4.28-.17 4.28-.17 4.27-.09 2.14-.08 2.14-.09 2.14-.08 2.14-.08 2.13-.08 2.14-.08 2.14-.08 2.14-.07 2.13-.08 2.14-.07 2.14-.07 2.13-.07 2.14-.06 2.13-.07 2.14-.06 2.13-.06 2.14-.06 2.13-.03 1.39-.04 1.39-.03 1.39-.04 1.39-.03 1.39-.03 1.39-.03 1.39-.03 1.39-.03 1.39-.03 1.39-.03 1.39-.02 1.4-.03 1.38-.02 1.39-.05 2.79-.05 2.78-.04 2.78-.04 2.78-.04 2.79-.03 2.78-.03 2.78-.03 2.79-.03 2.78-.03 2.78-.02 2.79-.03 2.78-.02 2.79-.02 2.78-.02 2.79-.01 2.78-.02 2.79-.01 2.79-.02 2.78-.01 2.79-.01 2.79-.02 5.57-.02 5.57-.01 1.47V680.357l.01 1.47.01 1.47v1.47l.01 1.47.01 1.47.03 2.94.02 2.95.02 2.91v.02l.01.11.01.41.01.53.01.3v.32l.01.32v.8l-.01.16v.18l-.01.19-.01.21-.03.26-.04.32-.07.4-.09.35-.03.1-.25.7-.01.01-.55.99-.01.01-1.62 1.6-1.81.81-.26.07-.27.07-.26.06-.27.07-.26.06-.29.07-.27.06-.24.06-.3.06-.27.06-.24.05-.29.06-.27.06-.27.05-.3.06-.25.04-.27.05-.29.05-.25.05-.28.04-.27.05-.27.04-.3.05-.28.04-.25.04-.27.04-.28.04-.28.04-.27.03-.28.04-.28.03-.28.04-.27.03-.28.03-.28.03-.28.03-.28.03-.26.02-.28.03-.28.03-.28.02-.28.03-.28.02-.29.02-.26.02-.28.02-.3.02-.27.02-.26.02-.3.01-.29.02-.26.01-.28.02-.29.01-.29.01-.28.01-.27.01-.28.01-.56.02-.56.02-.56.01-.58.01h-2.25l-.57-.01-.57-.01-.56-.01-.57-.01-.56-.01-.57-.02-.58-.02-.56-.03-.56-.02-.57-.03-.58-.03-.56-.03-.56-.03-.58-.04-.57-.04-.56-.03-.57-.04-.56-.05-.57-.04-.57-.05-.57-.04-.56-.05-.57-.05-.57-.05-.56-.05-.56-.05-.57-.06-.57-.05-.56-.06-.56-.06-.57-.05-.56-.06-.56-.06-.57-.06-.56-.07-1.11-.12-1.12-.13-1.11-.12-1.12-.14-1.1-.13-1.1-.13-2.19-.26-1.09-.13-1.09-.13-1.07-.12-1.07-.13-1.07-.12-1.06-.12-1.05-.12-.52-.05-.52-.06-.53-.05-.53-.06-.51-.05-.51-.05-.5-.05-.52-.05-.51-.05-.51-.04-.51-.05-.49-.04-.5-.04-.51-.04-.48-.04-.5-.03-.5-.04-.47-.04-.49-.02-.49-.03-.47-.03-.48-.03-.49-.02-.46-.02-.47-.02-.48-.02-.99-.03-1-.04-.99-.03-1.01-.03-1-.03-1-.03-1-.03-.99-.03-1.01-.02-1-.03-.99-.03-1-.02-1.01-.02-1-.03-1-.02-1-.02-1-.02-1-.02-2-.04-2-.03-2.01-.03-2-.03-2-.02-2.01-.03-2-.02-2.01-.02-2-.01-2.01-.02-2-.01-2.01-.01-2.01-.01-2-.01-2.01-.01h-2.01l-2.01-.01H1104.869l-4.03.01h-10.07l-2.01-.01H1084.729l-2.02-.01-2.01-.01h-2.02l-2.02-.01-2.01-.02-2.02-.01-2.02-.02-2.01-.01-2.02-.02-2.02-.03-2.02-.02-2.02-.03-2.02-.03-2.02-.03-2.02-.03-1.01-.02-1.01-.02-1-.02-1.02-.02-1.01-.02-1-.03-2.12-.04-2.11-.05-2.12-.04-2.11-.05-2.12-.04-2.11-.05-2.11-.04-2.12-.04-2.11-.04-2.11-.03-2.12-.04-2.11-.04-2.12-.03-2.11-.04-2.11-.03-2.11-.03-2.12-.03-2.11-.04-2.11-.03-2.12-.02-2.11-.03-2.12-.03-2.11-.02-2.12-.03-2.11-.03-2.11-.02-2.11-.02-2.12-.02-2.11-.03-2.11-.01-2.12-.02-2.11-.02-2.11-.02-2.12-.02-2.12-.01-2.11-.02-4.22-.03-4.23-.02-4.23-.03-4.23-.02-4.23-.01-4.22-.02-4.23-.01-4.23-.01-4.23-.01h-4.23l-4.22-.01h-8.46l-4.23.01h-4.23l-4.23.01-4.23.01-4.23.01-4.22.02-4.23.01-4.23.02-4.23.02-4.23.02-4.23.02-4.23.02-4.23.02-4.23.03-4.23.02-4.24.03-4.23.03-4.23.03-4.23.03-8.46.06-8.47.07-8.46.06-8.47.07-8.463.07-16.94.14h-.847l-.851.01-.85.01-.851.01-.857.01-.843.01-.851.02-.857.01-.85.01-.85.02-.857.01-.85.02-1.7.03-1.703.04-1.706.04-1.706.05-1.703.04-1.706.05-1.705.05-1.706.05-1.709.05-1.705.06-1.705.06-1.709.05-1.709.06-1.708.06-1.708.06-1.709.07-3.421.12-6.844.25-3.427.13-3.428.12-1.714.07-1.715.06-1.715.05-1.718.06-1.719.06-1.715.05-1.716.06-1.719.05-1.722.05-1.72.04-1.719.05-1.723.04-1.723.04-1.719.04-1.724.03-.863.02-.864.02-.863.01-.857.01-.863.02-.864.01-.864.01-.863.01-.857.01-.864.01-.871.01-.864.01h-.857l-.864.01H683.491l-.858.01H680.033l-.864-.01h-.865l-.871-.01h-.858l-.871-.01-.865-.01-.865-.01-.872-.01-.865-.01-.865-.01-.865-.02-.872-.01-.866-.02-.862-.02-2.253-.05-2.247-.05-2.245-.04-2.247-.05-2.25-.04-2.244-.05-2.247-.04-2.248-.04-2.247-.04-2.247-.04-2.245-.04-2.25-.04-2.248-.03-2.247-.04-2.248-.03-2.247-.04-2.248-.03-2.247-.03-2.248-.03-2.248-.03-2.247-.03-2.248-.03-2.248-.03-2.25-.02-2.248-.03-2.245-.02-2.251-.03-2.25-.02-2.248-.02-2.245-.02-2.248-.02-2.251-.02-4.498-.04-4.496-.04-4.498-.03-4.499-.03-4.499-.02-4.497-.03-4.498-.02-4.5-.02-4.499-.02-4.498-.02-4.5-.01-4.5-.01-4.499-.01-4.5-.01-4.5-.01h-4.501l-4.499-.01h-4.501l-4.501-.01h-22.505l-9.002.01h-9.004l-9.004.01h-45.022l-4.503-.01-4.504-.01h-4.502l-4.502-.01-4.503-.01-4.503-.02-4.503-.01-4.496-.02H374.298l-1.131.01h-1.126l-1.131.01-1.131.01-1.125.01-1.126.01-1.131.01-1.126.02-1.131.01-1.131.02-1.126.02-1.136.02-1.131.02-1.126.02-1.131.02-1.131.02-1.125.03-1.136.03-1.131.02-1.126.03-1.136.03-1.131.03-1.131.03-1.131.03-1.131.04-1.13.03-1.131.03-2.267.07-2.264.08-2.267.07-2.266.08-2.264.08-2.266.09-2.271.08-2.267.08-2.266.09-2.271.09-4.539.17-4.541.18-4.525.18h-.064l-.149.01-.147.01-.202.02-.199.02-.223.02-.28.03-.279.03-.292.03-.325.04-.674.08-.743.09-.799.1-.839.1-.868.11-.911.11-.934.11-.482.05-.488.06-.478.05-.492.06-.504.05-.493.05-.493.05-.503.05-.502.05-.5.04-.498.04-.495.04-.503.04-.511.04-.495.03-.464.03-.249.01-.274.02-.22.01-.245.01-.27.01-.215.01-.24.01h-.238l-.238.01h-.235l-.233.01H287.859l-.223-.01h-.221l-.251-.01-.218-.01-.25-.01-.214-.01-.214-.02-.246-.02-.212-.01-.209-.02-.246-.03-.245-.03-.209-.03-.207-.03-.248-.03-.248-.05-.211-.04-.253-.05-.211-.05-.26-.06-.265-.08-.212-.06-.236-.08-.092-.03-.096-.03-.184-.07-.096-.04-.097-.04-.196-.08-.098-.05-.201-.08-.196-.11h-.01l-.211-.11-.211-.13-.11-.06-.207-.13-.127-.09-.126-.09-.294-.22-.125-.11-.085-.07-.093-.08-.731-.78-.032-.04-.031-.04-.392-.57-.042-.07-.106-.19-.135-.26-.119-.27-.122-.3-.043-.12-.055-.15-.1-.35-.069-.27-.054-.24-.043-.23-.036-.21-.03-.2-.025-.19-.021-.18-.02-.19-.018-.18-.015-.18-.014-.19-.012-.18-.011-.18-.01-.18-.009-.19-.008-.2-.008-.19-.006-.2-.011-.4-.008-.41-.006-.44-.003-.44-.002-.46.001-.47.003-.48.004-.5.006-.51.007-.52.009-.53.01-.55.012-.55.012-.55.014-.58.015-.57.032-1.17.036-1.19.037-1.21.039-1.21.081-2.43.08-2.38.037-1.16.035-1.12.032-1.08.028-1.04.013-.5.011-.49.01-.47.009-.45.007-.44.005-.42.005-.4.002-.37.001-.36-.001-.33-.002-.31-.004-.29-.013-.71-.012-.71-.011-.73-.01-.72-.009-.72-.008-.72-.007-.72-.006-.72-.005-.72-.004-.72-.003-.72-.003-.72-.001-.72-.001-.72.001-.72.001-.71.001-.73.003-.71.007-1.44.011-1.44.013-1.43.015-1.44.018-1.43.02-1.44.022-1.43.025-1.43.026-1.43.028-1.43.029-1.44.03-1.43.032-1.43.033-1.42.034-1.44.07-2.85.072-2.85.146-5.7.071-2.85.035-1.42.034-1.42.033-1.42.032-1.42.03-1.42.03-1.42.027-1.41.026-1.42.025-1.42.022-1.41.02-1.42.018-1.41.016-1.42.013-1.41.01-1.41.008-1.42.003-.7.002-.71.001-.7v-1.41l-.001-.71-.002-.7-.003-.71-.004-.7-.004-.7-.006-.71-.007-.7-.007-.71-.008-.7-.01-.7-.01-.71-.012-.7-.012-.7-.014-.7-.014-.71-.016-.7-.017-.7-.017-.7-.019-.71-.02-.7-.022-.7-.022-.7-.024-.7-.034-.94-.035-.93-.037-.94-.039-.93-.041-.94-.043-.93-.044-.94-.046-.94-.048-.93-.049-.94-.051-.93-.053-.94-.054-.94-.056-.93-.057-.94-.058-.94-.06-.94-.061-.93-.063-.94-.064-.94-.065-.93-.067-.94-.067-.94-.069-.94-.07-.94-.071-.94-.072-.94-.074-.93-.074-.95-.075-.93-.076-.94-.077-.94-.078-.94-.079-.94-.079-.94-.08-.94-.163-1.88-.166-1.89-.167-1.88-.17-1.88-.172-1.89-.173-1.88-.175-1.89-.175-1.88-.353-3.78-.354-3.78-.177-1.89-.175-1.89-.175-1.89-.174-1.9-.172-1.89-.171-1.89-.168-1.9-.167-1.9-.163-1.9-.081-.95-.08-.95-.079-.95-.078-.95-.078-.95-.076-.95-.076-.95-.075-.95-.073-.96-.073-.95-.071-.95-.071-.95-.069-.96-.069-.95-.067-.95-.065-.96-.065-.95-.063-.95-.062-.96-.06-.96-.059-.95-.057-.96-.056-.95-.055-.96-.053-.96-.051-.95-.05-.96-.048-.96-.046-.95-.045-.96-.042-.96-.041-.96-.039-.96-.038-.96-.035-.96-.033-.96-.032-.96-.029-.96-.027-.96-.025-.96-.023-.96-.021-.97-.019-.96-.016-.96-.014-.96-.012-.97-.009-.96-.008-.97-.004-.96-.002-.96v-1.06l.002-1.05.004-1.05.005-1.05.008-1.06.01-1.05.011-1.05.013-1.05.015-1.05.016-1.05.019-1.06.02-1.05.021-1.05.024-1.05.024-1.05.027-1.05.028-1.05.029-1.05.031-1.05.033-1.05.034-1.05.035-1.05.037-1.05.038-1.04.039-1.05.041-1.05.042-1.05.043-1.05.044-1.05.046-1.05.047-1.04.048-1.05.049-1.05.05-1.05.051-1.04.052-1.05.054-1.05.054-1.04.055-1.05.056-1.05.057-1.04.058-1.05.059-1.04.059-1.05.061-1.04.061-1.05.124-2.09.127-2.09.13-2.09.132-2.09.134-2.09.136-2.08.138-2.09.139-2.09.141-2.08.142-2.08.142-2.09.287-4.16.287-4.17.287-4.16.142-2.08.142-2.08.14-2.08.14-2.07.138-2.08.136-2.08.134-2.07.132-2.08.13-2.07.128-2.08.125-2.07.061-1.04.06-1.03.06-1.04.059-1.04.058-1.03.058-1.04.056-1.03.055-1.04.055-1.03.053-1.04.053-1.04.051-1.03.051-1.03.049-1.04.049-1.03.047-1.04.046-1.03.045-1.04.044-1.03.042-1.03.041-1.04.04-1.03.039-1.03.037-1.04.036-1.03.035-1.03.029-.92.029-.92.027-.92.025-.92.025-.93.023-.92.022-.92.021-.92.019-.93.019-.92.017-.92.016-.92.015-.93.014-.92.012-.92.012-.93.01-.92.01-.92.008-.93.007-.92.006-.92.005-.93.004-.92.004-.93.002-.92.001-.93v-.92l-.001-.93-.001-.92-.003-.93-.004-.92-.004-.93-.005-.92-.006-.93-.007-.92-.008-.93-.009-.93-.009-.92-.01-.93-.011-.92-.012-.93-.013-.93-.027-1.85-.03-1.86-.033-1.85-.036-1.86-.038-1.85-.04-1.86-.043-1.85-.044-1.86-.047-1.86-.049-1.85-.051-1.86-.053-1.86-.054-1.86-.056-1.86-.057-1.86-.058-1.86-.06-1.86-.06-1.85-.062-1.87-.062-1.86-.063-1.86-.129-3.72-.129-3.72-.131-3.73-.13-3.72-.129-3.73-.128-3.73-.062-1.86-.062-1.86-.061-1.87-.059-1.86-.059-1.87-.057-1.86-.056-1.87-.055-1.86-.053-1.86-.051-1.87.394-2.3 1.247-1.99 1.91-1.35 2.282-.52 2.308.39 1.982 1.25zm93.614 489.32h1.143l4.504.02 4.498.01 4.498.02 4.497.01 4.5.01 8.997.01 13.5.01H460.974l9.003-.01h9.003l9.005-.01H510.5l4.503.01h4.503l9.008.01 9.008.02 4.504.01 4.503.01 4.505.01 4.505.02 9.008.04 4.505.02 4.506.03 4.504.02 4.504.03 4.505.03 4.506.04 4.504.04 2.251.02 2.253.02 2.256.02 6.754.07 2.255.02 2.253.03 2.251.03 4.506.05 2.252.03 2.254.03 2.252.03 2.253.03 4.506.07 2.252.03 2.253.04 6.758.11 2.253.04 2.252.04 2.253.04 2.252.04 6.757.14 2.255.05 2.252.05 2.246.04.855.02.852.02.844.01 1.704.03 1.695.02.852.01.851.01 2.546.02h.851l.851.01h2.545l.857-.01h1.694l.851-.01h.857l.85-.01.844-.01.85-.01.857-.01.85-.01.85-.01.85-.01.85-.01.856-.02.85-.01.85-.02.85-.01 1.703-.04 1.706-.03 1.702-.04 1.702-.05 1.706-.04 1.705-.05 1.702-.05 1.706-.05 1.708-.05 1.709-.06 1.705-.05 1.705-.06 1.708-.06 1.708-.06 1.71-.06 3.418-.12 3.42-.13 6.848-.25 3.425-.13 1.715-.06 1.715-.06 1.715-.06 1.715-.06 1.716-.06 1.719-.05 1.719-.06 1.716-.05 1.719-.06 1.719-.04 1.72-.05 1.723-.05 1.72-.04 1.72-.04 1.723-.04 1.728-.04.863-.01.857-.02.864-.02.864-.01.857-.01.864-.02.87-.01.858-.01.864-.01.864-.01.864-.01h.867l16.933-.14 8.47-.07 8.46-.07 8.47-.06 8.47-.07 8.47-.06 4.23-.03 4.23-.03 4.24-.03 4.23-.02 4.24-.03 4.23-.03 4.23-.02 4.24-.02 4.23-.02 4.23-.02 4.24-.02 4.23-.02 4.23-.01 4.24-.02 4.23-.01 4.24-.01 4.23-.01h4.24l4.23-.01h8.47l8.47.01 4.24.01 4.23.01 4.23.01 4.24.02 4.23.01 4.24.02 4.24.03 4.23.02 4.24.03 2.12.02 2.12.01 2.11.02 2.12.02 6.35.06 2.13.02 2.11.02 2.12.02 2.12.02 2.12.03 2.11.03 2.12.02 2.12.03 2.12.03 2.12.03 2.12.03 4.24.06 4.24.06 2.12.04 2.11.04 2.12.03 2.12.04 2.12.04 2.12.03 4.24.09 4.24.08 2.12.05 2.12.04 2.12.05 2.11.05 1.01.02 1 .02.99.02 2.01.04 1 .02 2 .04 2 .03 2.01.03 2 .02 2 .03 2.01.02 2 .02 2.01.01 2.01.02 2 .01 2.01.02 2 .01 4.02.01 2.01.01h4.02l4.01.01h8.05l4.02-.01h18.12l4.03.01 4.03.01 2.01.01 2.02.01 2.02.01 2.01.01 4.04.03 2.02.02 2.01.02 2.02.03 2.02.02 2.02.03 2.02.03 2.02.04 2.02.03 2.02.04 2.02.05 3.03.07 1.02.02 1.01.03 2.01.05 1.01.03 1.01.03 3.04.1 1.01.03 1.02.04.51.02.52.02.53.02.51.03.52.03.54.03.51.03.53.03.54.04.52.04.52.03.55.05.52.04.53.04.55.05.52.05.54.04.53.05.53.05.55.06.54.05.54.06.53.05.54.06.54.05.55.06 1.08.12 1.08.13 1.09.12 1.1.13 1.09.13 1.08.13 1.1.13 2.19.26 1.1.13 1.09.13 1.09.13 1.09.12 1.1.12 1.09.13 1.09.12.54.05.55.06.54.06.54.05.54.06.55.05.53.05 1.09.1.54.05.53.04.54.05.54.04.53.05 1.07.08.53.03.54.04.53.04.51.03.54.03.53.03.51.03.53.02.53.02.52.02.52.02.51.02.52.01.52.02.52.01h.5l.51.01H1228.289l.49-.01.5-.01.5-.01.5-.02.24-.01.26-.01.25-.01.24-.01.24-.01.24-.01.26-.01.24-.02.21-.01.26-.02.26-.01.22-.02.23-.02.26-.01.24-.02.23-.02.24-.02.23-.02.24-.02.23-.03.26-.02.23-.03.23-.02.23-.03.24-.02.23-.03.23-.03.23-.02.23-.04.22-.02.23-.04.23-.03.23-.03.25-.04.22-.03.21-.03.22-.04.1-.02-.01-1.26-.02-2.95-.03-2.95-.01-1.47-.01-1.48v-1.48l-.01-1.48-.01-1.48v-5.93l.01-1.48.02-5.58.02-5.58.01-2.79.01-2.78.02-2.8.01-2.79.02-2.79.01-2.79.02-2.79.02-2.79.02-2.79.03-2.79.02-2.79.03-2.8.03-2.79.03-2.79.03-2.79.03-2.8.04-2.79.04-2.8.04-2.79.05-2.8.05-2.79.02-1.4.03-1.39.03-1.4.02-1.4.03-1.39.03-1.4.03-1.4.03-1.4.03-1.39.04-1.4.03-1.4.03-1.39.04-1.4.04-1.4.05-2.15.06-2.15.07-2.15.06-2.14.07-2.15.07-2.15.07-2.15.07-2.14.07-2.15.08-2.14.08-2.15.08-2.14.08-2.15.08-2.14.08-2.15.09-2.14.08-2.14.09-2.15.17-4.28.17-4.28.18-4.29.18-4.28.17-4.28.17-4.28.18-4.27.08-2.14.08-2.14.09-2.14.08-2.13.08-2.14.08-2.14.07-2.13.08-2.14.07-2.14.08-2.13.07-2.14.07-2.13.06-2.14.07-2.13.06-2.14.06-2.14.06-2.13.05-2.13.05-2.14.05-2.13.05-2.14.02-1.06.02-1.07.02-1.07.02-1.06.02-1.07.02-1.07.01-1.06.02-1.07.02-1.06.01-1.07.02-1.07.01-1.06.01-1.07.01-1.07.01-1.07.01-1.06.01-1.07.01-1.06v-1.07l.01-1.07v-1.06l.01-1.07v-3.77l-.01-.94v-.95l-.01-.94v-.95l-.01-.94-.01-.95-.01-.94-.01-.95-.01-.94-.02-.95-.01-.94-.02-.95-.02-.94-.01-.95-.02-.94-.02-.95-.02-.94-.02-.95-.02-.95-.02-.94-.03-.95-.02-.94-.03-.95-.02-.95-.03-.94-.03-.95-.05-1.89-.06-1.9-.07-1.89-.06-1.89-.07-1.9-.07-1.89-.07-1.9-.07-1.89-.08-1.9-.08-1.9-.07-1.9-.08-1.9-.08-1.89-.08-1.9-.08-1.9-.17-3.8-.33-7.61-.17-3.8-.08-1.91-.08-1.9-.08-1.91-.08-1.9-.08-1.91-.08-1.9-.07-1.91-.07-1.91-.08-1.91-.07-1.91-.06-1.9-.07-1.91-.06-1.91-.06-1.92-.06-1.91-.03-.95-.02-.96-.03-.95-.02-.96-.03-.96-.02-.95-.02-.96-.03-.96-.02-.95-.02-.96-.02-.96-.01-.95-.02-.96-.02-.96-.01-.96-.02-.95-.01-.96-.01-.96-.01-.96-.01-.96-.01-.96-.01-.96-.01-.93v-3.75l.01-.93.01-.94.01-.94.01-.94.01-.93.02-.94.01-.94.02-.93.02-.94.02-.93.03-.94.02-.93.03-.94.03-.94.03-.93.03-.94.03-.93.03-.94.04-.93.04-.94.03-.94.04-.93.04-.94.04-.93.04-.93.05-.94.04-.93.04-.93.05-.94.09-1.87.09-1.86.1-1.87.1-1.86.1-1.86.1-1.87.1-1.86.21-3.72.2-3.72.1-1.85.1-1.86.1-1.85.1-1.86.09-1.85.09-1.85.04-.93.05-.92.04-.93.04-.92.04-.92.04-.93.04-.92.04-.92.03-.93.04-.92.03-.92.03-.92.03-.92.03-.92.03-.92.03-.92.03-.92.02-.92.02-.92.02-.92.02-.92.02-.91.01-.92.02-.92.01-.91.01-.92.01-.91v-.92l.01-.91v-2.74l-.01-.91-.01-.92-.01-.91-.01-.91-.01-.91-.02-.91-.01-.91-.03-.91-.02-.91-.03-.91-.02-.91-.04-.9-.03-.91-.04-.91-.04-.9-.04-.9-.05-.91-.02-.45-.02-.45-.03-.46-.03-.45-.02-.45-.03-.45-.03-.45-.03-.45-.03-.45-.03-.46-.02-.28-.11-.01-1.42-.09-1.43-.08-1.43-.09-1.43-.08-1.43-.09-1.42-.08-1.43-.07-1.43-.07-1.43-.08-1.42-.06-.72-.04-.71-.03-.71-.03-.72-.03-.71-.03-.7-.03-.72-.03-.72-.03-.72-.02-.71-.03-1.43-.05-1.44-.05-1.44-.05-1.44-.05-1.44-.05-1.44-.04-2.88-.1-2.88-.09-2.89-.08-2.88-.09-2.88-.08-2.88-.07-2.89-.08-2.88-.07-2.89-.07-2.88-.07-2.88-.06-2.89-.06-2.88-.06-2.89-.06-2.88-.05-2.89-.05-2.88-.05-2.89-.04-2.88-.05-2.89-.04-2.88-.04-2.89-.03-2.88-.03-2.88-.03-2.89-.03-2.88-.03-2.89-.02-2.88-.02-2.88-.02-3.08-.02-3.09-.01-3.08-.02-3.08-.01-3.09-.01-3.08-.01h-3.08l-3.09-.01h-15.42l-3.08.01h-3.09l-3.08.01-3.08.01-3.09.01-3.08.01-3.09.02-3.08.01-3.08.02-3.09.02-3.08.02-3.09.02-3.08.02-3.09.02-3.08.03-3.09.02-3.09.03-3.08.03-3.09.03-3.08.03-3.09.03-3.08.03-3.09.04-3.08.03-3.09.03-3.09.04-3.08.04-3.09.04-3.08.04-3.09.03-3.09.05-3.08.04-3.09.04-6.17.09-6.17.08-6.17.09-6.18.1-6.17.1-6.18.09-6.17.1-6.17.11-6.18.1-6.17.1-6.18.1-12.35.22-12.35.21-12.35.21-6.17.1-6.18.11-6.18.1-6.17.1-6.18.1-6.17.1-6.18.1-6.18.09-6.17.1-6.18.08-6.18.09-3.08.04-3.09.05-3.09.04-3.09.04-3.087.04-3.089.03-3.087.04-3.09.04-3.089.04-3.088.03-3.089.03-3.086.04-3.089.03-3.09.03-3.089.03-3.088.03-3.09.03-3.088.02-3.086.03-3.091.03-3.09.02-3.086.02-3.088.02-3.09.02-3.089.02-3.089.01-2.417.01-2.42.02h-2.419l-2.419.02h-2.419l-2.419.01-2.417.01h-2.417l-4.838.01-4.836.01-4.835.01h-14.503l-4.834-.01-4.833-.01-4.833-.01h-4.832l-4.833-.02-4.832-.01-4.831-.02-4.832-.01-4.83-.02-4.831-.02-4.83-.02-4.831-.02-9.659-.04-9.658-.05-9.657-.05-9.656-.04-9.657-.05-9.655-.04-4.827-.02-4.826-.03-4.828-.01-4.827-.02-4.826-.02-4.828-.01-4.826-.02-4.826-.01-4.826-.01-4.827-.01h-4.827l-4.825-.01H497.68l-4.827.01-4.825.01-4.828.01h-2.412l-2.413.01-2.412.01-2.413.01-2.415.01-2.413.01-2.413.01-2.413.01-2.413.02-2.415.01-2.411.01-2.413.02-2.415.02-2.411.01-2.414.02-2.416.02-2.413.02-2.411.02-2.414.03-2.416.02-2.413.02-2.412.03-2.413.03-2.418.02-1.066.02-1.07.01-1.07.01-1.065.01-1.07.01-1.075.01h-1.064l-1.066.01-2.138.01-2.135.01H401.805l-2.126-.01h-2.128l-2.128-.01-2.122-.01-2.124-.01-4.246-.03-4.243-.02-4.239-.03-4.235-.03-2.114-.01-2.119-.01-2.115-.01-2.115-.01h-2.115l-2.11-.01h-2.115l-2.115-.01h-6.333l-2.109.01-2.11.01-2.106.01-1.059.01h-1.053l-1.054.01-1.059.01-1.048.01-1.053.01-1.059.01-1.053.01-1.054.02-1.054.01-1.048.02-1.053.01-1.059.02-1.054.02-1.054.02-1.049.02-1.053.02-1.06.02-1.049.03-1.048.02-1.055.03-1.059.03-1.049.02-1.049.03-1.06.04-1.049.03-1.05.03-1.054.04-1.056.03-1.055.04-1.049.04-1.05.04-1.055.04-1.055.04-1.051.05-1.05.04-1.056.05-1.05.05-1.051.05-1.056.06-1.056.05-1.051.06-1.045.05-1.057.06-1.057.06-1.046.07-1.052.06-1.057.07-1.052.06-1.052.07-1.058.08-1.063.07-2.322-.3-.187-.11.01.33.059 1.86.059 1.85.061 1.86.061 1.86.062 1.86.128 3.72.129 3.72.26 7.45.13 3.73.129 3.72.063 1.87.062 1.86.062 1.87.061 1.87.06 1.86.059 1.87.057 1.87.056 1.87.054 1.87.053 1.87.051 1.87.05 1.86.047 1.87.045 1.87.043 1.87.041 1.88.038 1.87.036 1.87.033 1.87.031 1.87.027 1.87.013.94.012.94.011.93.01.94.01.94.008.93.008.94.007.94.007.93.005.94.004.94.004.94.002.93.002.94.001.94v.93l-.001.94-.002.94-.004.94-.004.93-.005.94-.006.94-.008.94-.008.93-.01.94-.01.94-.012.93-.012.94-.014.94-.015.94-.017.94-.017.93-.019.94-.02.94-.021.94-.022.94-.024.93-.025.94-.026.94-.028.94-.028.93-.031.94-.035 1.05-.036 1.05-.038 1.05-.039 1.05-.041 1.05-.042 1.04-.043 1.05-.044 1.05-.046 1.05-.046 1.04-.048 1.05-.049 1.05-.05 1.05-.051 1.04-.052 1.05-.053 1.04-.054 1.05-.056 1.05-.056 1.04-.057 1.05-.057 1.04-.059 1.05-.059 1.05-.061 1.04-.061 1.05-.062 1.04-.125 2.09-.129 2.09-.13 2.09-.133 2.09-.135 2.08-.137 2.09-.139 2.09-.14 2.08-.141 2.08-.142 2.09-.142 2.08-.287 4.17-.288 4.16-.286 4.16-.142 2.08-.141 2.08-.141 2.08-.138 2.08-.137 2.07-.136 2.08-.133 2.08-.131 2.07-.129 2.08-.126 2.07-.124 2.08-.061 1.03-.059 1.04-.059 1.03-.059 1.04-.057 1.04-.056 1.03-.056 1.04-.054 1.03-.054 1.04-.053 1.03-.052 1.04-.05 1.04-.05 1.03-.048 1.03-.047 1.04-.047 1.03-.045 1.04-.043 1.03-.043 1.04-.042 1.03-.04 1.03-.038 1.04-.038 1.03-.036 1.04-.035 1.03-.033 1.03-.032 1.03-.031 1.04-.029 1.03-.027 1.03-.026 1.03-.025 1.04-.022 1.03-.022 1.03-.019 1.03-.018 1.03-.017 1.04-.014 1.03-.013 1.03-.011 1.03-.009 1.03-.008 1.03-.005 1.03-.004 1.03-.002 1.03v1.03l.002.94.004.93.007.94.009.93.012.94.013.93.016.93.018.94.02.93.023.94.024.93.027.94.028.93.031.94.032.93.035.94.036.93.038.94.04.93.042.94.043.94.046.93.046.94.049.93.05.94.052.94.054.93.054.94.057.94.058.94.059.93.061.94.061.94.064.93.065.95.065.93.067.94.069.94.069.94.071.94.071.94.073.93.074.94.075.94.075.94.077.94.077.94.079.94.079.94.08.94.162 1.88.164 1.88.168 1.89.169 1.88.171 1.88.173 1.89.174 1.88.176 1.89.176 1.89.353 3.77.354 3.78.176 1.89.175 1.9.174 1.89.173 1.9.171 1.89.169 1.9.166 1.89.165 1.9.081.95.08.95.08.95.078.95.078.95.077.95.076.96.075.94.075.96.073.95.072.95.071.95.07.96.069.95.067.95.067.96.065.95.064.96.062.95.061.95.06.96.058.95.057.96.055.96.054.95.052.96.05.96.049.95.047.96.045.96.044.96.042.96.04.95.038.96.036.96.035.96.024.73.023.72.022.72.021.72.019.72.019.72.017.72.016.73.015.72.014.72.013.72.011.72.011.72.01.72.008.72.008.72.006.72.006.72.005.72.004.72.003.72.002.72.001.71v1.44l-.001.72-.002.72-.003.72-.008 1.43-.011 1.44-.013 1.43-.016 1.44-.018 1.43-.02 1.44-.023 1.43-.025 1.43-.026 1.43-.028 1.43-.03 1.44-.03 1.42-.032 1.44-.034 1.42-.034 1.43-.034 1.43-.072 2.85-.145 5.7-.072 2.85-.07 2.84-.034 1.43-.033 1.42-.031 1.42-.031 1.41-.029 1.43-.027 1.41-.026 1.42-.024 1.42-.022 1.41-.02 1.42-.018 1.41-.015 1.42-.013 1.41-.01 1.41-.007 1.42-.003.7-.001.71-.001.71-.001.7.001.71.001.7.003.71.003.7.004.71.005.7.006.7.006.71.008.7.009.71.01.7.01.7.012.71.013.71.005.36.003.38.001.39-.001.41-.003.43-.004.44-.007.45-.007.47-.009.48-.011.5-.012.51-.013.52-.029 1.07-.032 1.1-.036 1.15-.038 1.16-.079 2.39-.081 2.42-.039 1.2-.037 1.19-.035 1.17-.031 1.15-.015.55-.013.55-.012.55-.011.52-.01.52-.008.5-.007.5-.006.47-.004.46v.09h.051l.188-.01h.189l.219-.01.167-.01.196-.01.225-.01.175-.01.202-.01.447-.03.427-.02.42-.03.436-.04.452-.03.454-.04.455-.04.457-.05.456-.04.468-.05.467-.05.452-.05.462-.05.47-.05.454-.05.454-.05.906-.11.883-.11.871-.1.832-.1.796-.1.762-.09.734-.09.339-.04.343-.04.326-.03.294-.03.32-.04.308-.02.272-.03.289-.02.251-.02h.134l.162-.01 4.555-.18 4.541-.18 4.544-.17 2.271-.09 2.277-.09 2.276-.08 2.271-.09 2.277-.08 2.279-.08 2.277-.08 2.277-.08 2.279-.07 2.278-.07 1.141-.04 1.141-.03 1.141-.03 1.141-.03 1.141-.04 1.141-.02 1.136-.04 1.147-.02 1.141-.03 1.136-.03 1.147-.02 1.141-.03 1.141-.02 1.146-.02 1.142-.02 1.136-.02 1.146-.02 1.142-.02 1.141-.01 1.146-.02 1.142-.01 1.146-.01 1.147-.01 1.141-.01 1.141-.01h1.146l1.142-.01h4.575zm871.717-490.21l.07.02-.08-.02-.07-.03.08.03z"/><text x="2363.08" y="16783.7" font-family="'Boogaloo-Regular','Boogaloo',cursive" font-size="86.183" transform="translate(-1835.911 -16433.483)">W<tspan x="2417.12" y="16783.7">e</tspan>b Component</text></svg>