<?xml version="1.0" encoding="iso-8859-1"?>
<!-- Generator: Adobe Illustrator 23.0.3, SVG Export Plug-In . SVG Version: 6.00 Build 0)  -->
<svg version="1.1" id="Marks" xmlns="http://www.w3.org/2000/svg" xmlns:xlink="http://www.w3.org/1999/xlink" x="0px" y="0px"
	 viewBox="0 0 447.37 115.468" style="enable-background:new 0 0 447.37 115.468;" xml:space="preserve">
<g id="Logo_on_White_1_">
	<g>
		<path style="fill:#39396D;" d="M143.816,53.601c-4.721,0-7.907,3.6-7.907,8.143c0,4.543,3.245,8.202,7.848,8.202
			c2.891,0,5.192-1.003,6.962-2.773l3.659,5.311c-2.242,2.479-6.314,4.249-10.798,4.249c-8.378,0-14.869-6.727-14.869-14.929
			c0-8.261,6.491-14.987,14.751-14.987c4.838,0,8.674,1.652,11.152,4.249l-4.13,5.133C148.714,54.487,146.589,53.601,143.816,53.601
			z"/>
		<path style="fill:#39396D;" d="M159.804,35.31h7.199v40.596h-7.199V35.31z"/>
		<path style="fill:#39396D;" d="M173.55,61.803c0-8.261,6.136-14.987,14.279-14.987c8.084,0,14.22,6.254,14.22,14.397
			c0,0.885-0.059,1.888-0.177,2.36h-20.947c0.708,3.953,3.717,6.786,8.084,6.786c2.832,0,5.251-1.239,6.904-2.95l3.717,4.897
			c-2.125,2.478-6.137,4.425-10.916,4.425C179.923,76.732,173.55,70.005,173.55,61.803z M181.044,59.03h13.63
			c-0.826-4.013-3.363-6.078-6.727-6.078C184.348,52.953,181.87,55.431,181.044,59.03z"/>
		<path style="fill:#39396D;" d="M233.439,47.642l-10.208,28.264h-9.323l-10.267-28.264h7.907l7.198,21.832l7.317-21.832H233.439z"
			/>
		<path style="fill:#39396D;" d="M235.442,61.803c0-8.261,6.136-14.987,14.279-14.987c8.084,0,14.22,6.254,14.22,14.397
			c0,0.885-0.059,1.888-0.177,2.36h-20.947c0.708,3.953,3.717,6.786,8.084,6.786c2.832,0,5.251-1.239,6.904-2.95l3.717,4.897
			c-2.125,2.478-6.137,4.425-10.916,4.425C241.814,76.732,235.442,70.005,235.442,61.803z M242.936,59.03h13.63
			c-0.826-4.013-3.363-6.078-6.727-6.078C246.24,52.953,243.762,55.431,242.936,59.03z"/>
		<path style="fill:#39396D;" d="M277.333,75.906h-7.199V47.642h7.199v3.068c1.593-2.36,3.953-3.895,6.903-3.895
			c1.888,0,3.422,0.531,4.543,1.416l-3.009,6.845c-0.944-0.767-2.36-1.239-3.717-1.239c-2.891,0-4.72,2.419-4.72,6.255V75.906z"/>
		<path style="fill:#39396D;" d="M319.99,53.601c-4.721,0-7.907,3.6-7.907,8.143c0,4.543,3.245,8.202,7.848,8.202
			c2.891,0,5.192-1.003,6.962-2.773l3.659,5.311c-2.242,2.479-6.313,4.249-10.798,4.249c-8.378,0-14.869-6.727-14.869-14.929
			c0-8.261,6.491-14.987,14.751-14.987c4.838,0,8.674,1.652,11.152,4.249l-4.13,5.133C324.887,54.487,322.763,53.601,319.99,53.601z
			"/>
		<path style="fill:#39396D;" d="M335.977,35.31h7.199v40.596h-7.199V35.31z"/>
		<path style="fill:#39396D;" d="M349.724,61.803c0-8.261,6.491-14.987,14.692-14.987s14.751,6.727,14.751,14.987
			c0,8.202-6.55,14.929-14.751,14.929S349.724,70.005,349.724,61.803z M371.91,61.744c0-4.543-3.127-8.143-7.435-8.143
			c-4.367,0-7.553,3.6-7.553,8.143c0,4.543,3.186,8.202,7.553,8.202C368.782,69.946,371.91,66.288,371.91,61.744z"/>
		<path style="fill:#39396D;" d="M392.499,62.924c0,4.13,2.419,6.904,6.019,6.904c3.599,0,6.019-2.773,6.019-6.904V47.642h7.199
			v15.813c0,7.907-5.251,13.158-13.217,13.158S385.3,71.362,385.3,63.455V47.642h7.199V62.924z"/>
		<path style="fill:#39396D;" d="M447.37,35.31v40.596h-7.258v-3.068c-2.065,2.419-4.957,3.895-8.615,3.895
			c-7.494,0-13.571-6.137-13.571-14.929c0-8.556,5.724-14.987,13.571-14.987c3.717,0,6.608,1.357,8.615,3.658V35.31H447.37z
			 M440.112,61.744c0-4.543-3.127-8.143-7.435-8.143c-4.367,0-7.553,3.6-7.553,8.143c0,4.543,3.186,8.202,7.553,8.202
			C436.984,69.946,440.112,66.288,440.112,61.744z"/>
	</g>
	<polygon style="fill:#AB2B4A;" points="99.998,28.865 99.998,86.599 89.296,72.794 83.335,57.734 83.331,57.734 88.993,42.463 	"/>
	<polygon style="fill:#E87A68;" points="0.004,28.865 0.004,86.599 9.464,73.212 16.667,57.734 16.671,57.734 9.348,43.05 	"/>
	<polygon style="fill:#D74D4E;" points="83.331,57.734 51.816,59.734 16.667,57.734 31.335,28.865 50.001,0 70.297,31.692 	"/>
	<polygon style="fill:#BD3246;" points="99.998,28.865 83.331,57.734 50.001,0 	"/>
	<polygon style="fill:#F19175;" points="50.001,0 16.667,57.734 0,28.865 	"/>
	<polygon style="fill:#CF3942;" points="83.331,57.734 71.94,82.663 50.001,115.468 27.424,81.561 16.667,57.734 	"/>
	<polygon style="fill:#E0625B;" points="50.001,115.468 0,86.599 16.667,57.734 	"/>
	<polygon style="fill:#9A244F;" points="49.997,115.468 99.998,86.599 83.331,57.734 	"/>
</g>
</svg>
