<?xml version="1.0" encoding="UTF-8" standalone="no"?>
<!DOCTYPE svg PUBLIC "-//W3C//DTD SVG 1.1//EN" "http://www.w3.org/Graphics/SVG/1.1/DTD/svg11.dtd">
<svg width="100%" height="100%" viewBox="0 0 1921 1081" version="1.1" xmlns="http://www.w3.org/2000/svg" xmlns:xlink="http://www.w3.org/1999/xlink" xml:space="preserve" xmlns:serif="http://www.serif.com/" style="fill-rule:evenodd;clip-rule:evenodd;stroke-linejoin:round;stroke-miterlimit:1.41421;">
    <g transform="matrix(1,0,0,1,-4074,-4812)">
        <g id="brain-patterns" transform="matrix(1,0,0,1,-1835.49,4812.13)">
            <rect x="5910" y="0" width="1920" height="1080"/>
            <clipPath id="_clip1">
                <rect x="5910" y="0" width="1920" height="1080"/>
            </clipPath>
            <g clip-path="url(#_clip1)">
                <g transform="matrix(1.65958,0,0,1.65958,-4577.84,-128.818)">
                    <g id="path4" transform="matrix(10.2243,0,0,10.2243,6387.8,-9663.69)">
                        <path d="M82.789,997.851C82.141,996.925 81.528,996.05 81.164,995.43C79.783,993.074 79.671,992.778 80.213,990.068C80.712,987.571 80.025,985.238 79.298,982.769C79.079,982.025 78.855,981.263 78.656,980.472L78.558,980.067C74.564,963.36 59.721,959.662 47.972,959.5C47.76,959.497 47.551,959.496 47.342,959.496C21.766,959.496 15.236,981.211 14.972,988.886C14.724,996.048 18.549,1005.12 21.211,1008.99C23.747,1012.68 25.68,1020.19 25.911,1027.24C26.137,1034.11 17.702,1047.83 17.617,1047.97C17.327,1048.44 17.471,1049.06 17.941,1049.35C18.105,1049.45 18.287,1049.5 18.466,1049.5C18.801,1049.5 19.128,1049.33 19.318,1049.02C19.678,1048.44 28.155,1034.65 27.909,1027.18C27.667,1019.77 25.591,1011.83 22.859,1007.86C20.346,1004.2 16.738,995.668 16.969,988.955C16.979,988.679 18.716,961.496 47.313,961.496C47.521,961.496 47.734,961.498 47.944,961.501C64.001,961.722 73.646,968.125 76.613,980.532L76.717,980.958C76.921,981.775 77.153,982.564 77.379,983.334C78.064,985.657 78.654,987.663 78.252,989.676C77.597,992.948 77.831,993.698 79.44,996.443C79.844,997.132 80.479,998.04 81.152,999C82.435,1000.83 84.375,1003.6 84.441,1004.73C84.517,1006.02 84.151,1006.44 82.484,1007C81.267,1007.4 80.456,1008.06 80.071,1008.95C79.826,1009.52 79.654,1010.45 80.227,1011.7C80.415,1012.1 80.449,1012.47 80.326,1012.78C80.195,1013.11 79.878,1013.39 79.456,1013.56L78.284,1014.03L79.008,1015.06C79.765,1016.14 79.765,1016.47 79.002,1017.23C77.389,1018.84 77.919,1020.25 78.204,1021L78.284,1021.22C78.453,1021.73 78.821,1025.13 77.221,1025.97C76.356,1026.42 73.963,1026.73 71.852,1027C68.695,1027.41 65.711,1027.79 64.451,1028.81C62.141,1030.69 61.085,1034.41 61.759,1038.28C61.952,1039.39 61.681,1040.38 61.305,1041.75C60.884,1043.28 60.36,1045.19 60.317,1048C60.307,1048.55 60.748,1049 61.3,1049C61.306,1049 61.311,1049 61.316,1049C61.862,1049 62.307,1048.57 62.316,1048.03C62.355,1045.47 62.822,1043.78 63.233,1042.28C63.644,1040.79 63.999,1039.49 63.729,1037.94C63.177,1034.76 63.956,1031.79 65.712,1030.36C66.53,1029.7 69.753,1029.29 72.107,1028.98C74.714,1028.65 76.967,1028.36 78.153,1027.74C80.965,1026.26 80.547,1021.69 80.181,1020.59C80.15,1020.5 80.114,1020.4 80.075,1020.3C79.843,1019.68 79.715,1019.34 80.416,1018.64C81.841,1017.22 81.744,1015.94 81.201,1014.83C81.643,1014.48 81.98,1014.03 82.184,1013.51C82.413,1012.94 82.576,1012.01 82.043,1010.86C81.831,1010.4 81.785,1010.02 81.906,1009.74C82.092,1009.31 82.666,1009.05 83.116,1008.89C84.811,1008.33 86.606,1007.49 86.436,1004.61C86.345,1003.03 84.867,1000.81 82.789,997.851Z" style="fill:white;fill-rule:nonzero;"/>
                    </g>
                    <g transform="matrix(0.918768,0,0,0.918768,557.906,35.8043)">
                        <g id="path6" transform="matrix(10.2243,0,0,10.2243,6387.8,-9663.69)">
                            <path d="M63.644,998.355C63.603,998.16 63.631,998.094 63.921,997.718C64.234,997.313 64.705,996.7 64.605,995.757C64.546,995.203 64.377,994.548 64.094,993.871C64.938,993.884 65.927,993.842 66.775,993.651C67.803,993.42 68.423,993.136 68.921,992.908C69.324,992.723 69.643,992.578 70.128,992.473C71.508,992.177 74.291,990.686 74.786,988.421C74.961,987.625 74.915,987.055 74.822,986.643C75.74,985.909 76.365,984.513 75.758,982.435C75.445,981.364 75.3,980.61 75.185,980.004C75.063,979.367 74.967,978.865 74.736,978.393C74.692,978.301 74.624,978.115 74.527,977.859C74.337,977.359 74.059,976.629 73.693,975.8C73.642,975.516 73.525,975.273 73.355,975.066C72.363,972.99 70.856,970.545 68.756,969.382C67.124,968.478 66.698,968.036 66.357,967.682C65.885,967.194 65.511,966.862 64.294,966.372L62.998,965.845C59.587,964.449 56.657,963.282 55.352,963.127C54.473,963.023 53.385,963.071 52.334,963.118C51.521,963.154 50.679,963.19 50.241,963.13C49.492,963.028 48.509,963.203 47.553,963.374C46.896,963.492 46.15,963.631 45.797,963.593C45.655,963.58 45.494,963.561 45.314,963.539C44.138,963.401 42.169,963.168 39.433,963.707C37.151,964.158 36.228,964.907 35.619,965.403C35.49,965.507 35.313,965.651 35.256,965.667C34.725,965.815 30.135,967.148 28.423,969.525C26.945,970.591 24.209,974.61 24.18,974.654C23.867,975.122 23.353,976.101 22.808,977.139C22.28,978.145 21.681,979.285 21.375,979.736C20.548,980.954 19.531,983.961 19.239,984.852C19.171,985.06 19.074,985.292 18.967,985.554C18.452,986.807 17.682,988.748 18.044,991.507C18.049,991.524 18.046,991.543 18.052,991.56C18.146,992.248 18.29,992.972 18.549,993.765L18.988,995.127C19.186,995.746 19.368,996.301 19.546,996.829C19.551,996.843 19.555,996.856 19.56,996.87C20.44,999.474 21.185,1000.99 22.897,1001.53C23.834,1001.83 24.559,1001.79 25.14,1001.76C25.152,1001.76 25.161,1001.76 25.173,1001.76C25.615,1003.1 27.006,1006.01 30.928,1006.81C32.717,1007.17 34.012,1007.28 34.926,1007.34C35.402,1008.43 35.62,1010.89 35.621,1012.49C35.621,1013.04 36.069,1013.49 36.621,1013.49C37.174,1013.49 37.621,1013.04 37.621,1012.49C37.621,1012.05 37.602,1010.66 37.405,1009.21C37.674,1009.35 37.969,1009.43 38.289,1009.43C38.489,1009.43 38.699,1009.4 38.918,1009.34C39.504,1009.19 39.954,1008.73 40.381,1008.16C40.234,1009.21 40.133,1010.52 40.112,1012.23C40.103,1012.79 40.545,1013 41.097,1013C41.102,1013 41.106,1013 41.11,1013C41.657,1013 42.103,1012.81 42.11,1012.26C42.143,1009.6 42.505,1007.11 42.899,1006.45C43.621,1006.28 44.229,1005.86 44.627,1005.25C45.07,1004.58 45.22,1003.68 45.045,1002.99C45.042,1002.96 45.044,1002.93 45.039,1002.9C45.056,1002.85 45.169,1002.67 45.428,1002.53C45.659,1002.42 46.036,1002.32 46.516,1002.53C46.914,1002.71 47.317,1002.92 47.727,1003.14C49.082,1003.86 50.62,1004.67 52.406,1004.36C52.91,1004.27 53.284,1004.34 53.757,1004.42C54.845,1004.6 56.075,1004.81 58.582,1003.42C62.239,1001.39 64.075,1000.37 63.644,998.36L63.644,998.355ZM52.422,965.117C53.349,965.076 54.398,965.029 55.116,965.114C56.257,965.249 60.001,966.781 62.239,967.696L63.546,968.228C64.455,968.593 64.619,968.763 64.916,969.071C65.328,969.499 65.893,970.083 67.786,971.133C68.665,971.62 69.432,972.442 70.09,973.377C69.895,973.271 69.725,973.163 69.641,973.049C68.744,971.833 67.754,971.246 66.728,971.308C65.953,971.352 65.367,971.752 64.97,972.14C64.52,971.946 64.038,971.846 63.556,971.875C63.478,971.73 63.381,971.511 63.304,971.336C62.888,970.39 62.258,968.959 60.582,968.111C59.161,967.393 58.459,967.454 57.81,967.59C57.592,967.633 57.504,967.653 56.932,967.224C55.461,966.123 53.826,966.607 52.634,966.959C52.259,967.07 51.704,967.233 51.587,967.232C50.836,966.683 51.533,965.207 51.561,965.149C51.836,965.141 52.119,965.13 52.422,965.117ZM45.078,965.526C45.278,965.549 45.456,965.571 45.614,965.586C46.231,965.642 47.047,965.496 47.906,965.343C48.407,965.254 48.985,965.153 49.441,965.116C49.093,966.294 49.068,967.865 50.405,968.845C51.24,969.459 52.238,969.162 53.202,968.877C54.328,968.543 55.112,968.359 55.733,968.825C56.822,969.638 57.446,969.705 58.213,969.549C58.499,969.489 58.769,969.436 59.68,969.897C60.716,970.42 61.118,971.335 61.474,972.142C61.815,972.916 62.322,974.085 63.623,973.879C64.217,973.786 64.811,974.302 65.026,974.863C65.225,975.389 65.088,975.808 64.615,976.108C63.484,976.83 61.367,976.514 59.514,974.526C59.137,974.121 58.503,974.1 58.101,974.476C57.697,974.852 57.674,975.485 58.051,975.889C59.768,977.732 61.656,978.456 63.261,978.456C64.196,978.456 65.034,978.211 65.687,977.797C66.956,976.991 67.43,975.561 66.895,974.152C66.798,973.897 66.666,973.665 66.52,973.445C66.625,973.369 66.736,973.308 66.846,973.302C67.165,973.303 67.589,973.637 68.031,974.235C68.618,975.03 69.662,975.415 70.583,975.755C70.947,975.889 71.459,976.081 71.693,976.232C72.125,977.173 72.448,978.022 72.655,978.569C72.784,978.908 72.879,979.153 72.937,979.272C73.051,979.504 73.118,979.853 73.218,980.38C73.335,980.994 73.496,981.834 73.836,982.996C74.205,984.259 73.862,984.82 73.592,985.057C73.32,984.943 72.909,984.474 72.752,983.156C72.593,981.815 72.089,980.814 71.255,980.18C70.171,979.355 68.964,979.514 68.832,979.533C68.286,979.617 67.912,980.128 67.996,980.674C68.08,981.22 68.59,981.592 69.137,981.51C69.141,981.51 69.637,981.462 70.045,981.773C70.431,982.066 70.673,982.611 70.766,983.393C70.947,984.916 71.454,985.996 72.274,986.6C72.459,986.736 72.639,986.826 72.814,986.899C72.888,987.107 72.967,987.376 72.831,987.995C72.584,989.124 70.793,990.286 69.706,990.519C69.007,990.668 68.539,990.883 68.086,991.09C67.609,991.309 67.158,991.515 66.333,991.7C65.166,991.962 63.551,991.867 62.82,991.803C62.371,991.272 61.84,990.771 61.195,990.347C61.153,990.319 61.111,990.292 61.068,990.265C62.525,989.729 63.995,988.684 64.572,986.796C64.734,986.268 64.436,985.709 63.908,985.548C63.378,985.384 62.82,985.685 62.66,986.212C62.186,987.76 60.678,988.387 59.544,988.625C59.957,987.871 60.287,986.957 59.886,986.086C59.656,985.583 59.06,985.357 58.557,985.589C58.056,985.82 57.834,986.408 58.065,986.909C58.119,987.175 57.607,987.982 57.415,988.286C57.356,988.378 57.304,988.466 57.25,988.555C56.563,988.478 55.836,988.533 55.029,988.821C54.313,989.074 53.508,988.957 52.717,988.646C53.067,988.607 53.388,988.394 53.532,988.046C53.69,987.668 53.597,987.247 53.331,986.969C53.318,986.808 53.333,986.355 53.682,985.413C54.72,982.603 52.891,978.407 51.192,977.26C50.451,976.76 49.428,976.635 48.527,976.526C48.166,976.482 47.663,976.421 47.368,976.338C48.182,974.18 47.36,972.382 45.1,971.396C44.967,971.337 44.833,971.237 44.711,971.104C43.414,969.689 41.45,969.607 40.082,970.153C39.498,970.386 39.065,970.489 38.813,970.499C38.922,970.364 39.061,970.214 39.162,970.105C39.703,969.517 40.828,968.294 39.78,967.102C39.365,966.631 38.841,966.321 38.304,966.101C38.65,965.963 39.079,965.833 39.607,965.718C40.993,966.046 41.48,966.932 41.77,967.471C41.918,967.747 42.059,968.014 42.375,968.183C43.304,968.677 44.144,968.338 44.646,968.129C44.793,968.069 45.012,968 45.085,968C45.086,968 45.088,968 45.09,968C45.153,968 45.186,968.109 45.27,968.472C45.409,969.071 45.619,969.952 46.687,970.615C46.897,970.745 47.166,971.04 47.45,971.351C48.253,972.232 49.473,973.572 51.669,973.572C52.312,973.572 53.038,973.458 53.861,973.182C54.385,973.007 54.668,972.441 54.493,971.917C54.318,971.393 53.752,971.108 53.228,971.285C50.825,972.086 49.903,971.075 48.928,970.004C48.547,969.586 48.187,969.191 47.74,968.914C47.392,968.699 47.332,968.491 47.218,967.999C47.103,967.5 46.928,966.747 46.148,966.26C45.243,965.696 44.389,966.05 43.88,966.261C43.683,966.343 43.558,966.39 43.473,966.411C43.33,966.148 43.108,965.769 42.768,965.373C43.713,965.37 44.48,965.456 45.078,965.526ZM39.201,1006.38C38.956,1006.73 38.547,1007.32 38.423,1007.4C38.381,1007.42 38.349,1007.42 38.332,1007.43C38.285,1007.36 38.195,1007.18 38.068,1006.75C37.708,1005.52 36.63,1005.45 35.383,1005.37C34.464,1005.31 33.204,1005.23 31.322,1004.84C29.468,1004.47 28.381,1003.46 27.754,1002.53C29.335,1002.98 31.204,1002.36 32.517,1001.92C32.826,1001.81 33.1,1001.72 33.323,1001.66C34.713,1001.28 35.904,1001.22 36.431,1001.49C36.833,1001.69 37.588,1001.89 38.887,1002.23C40.098,1002.54 42.536,1003.17 43.114,1003.55C43.111,1003.72 43.067,1003.92 42.95,1004.1C42.823,1004.29 42.637,1004.35 42.383,1004.39C42.302,1004.4 42.195,1004.42 42.074,1004.46C41.933,1004.47 41.782,1004.47 41.612,1004.47C40.552,1004.4 39.868,1005.42 39.201,1006.38L39.201,1006.38ZM62.336,996.498C62.004,996.929 61.448,997.65 61.689,998.774C61.726,998.947 61.551,999.174 61.249,999.434C61.425,998.305 61.178,997.722 60.909,997.223C60.776,996.976 60.731,996.893 60.84,996.416C61.069,995.417 60.861,994.449 60.256,993.69C59.577,992.839 58.402,992.29 57.26,992.29C56.707,992.29 56.26,992.737 56.26,993.29C56.26,993.843 56.707,994.29 57.26,994.29C57.799,994.29 58.388,994.557 58.693,994.937C58.92,995.222 58.985,995.56 58.891,995.97C58.635,997.087 58.868,997.649 59.15,998.172C59.288,998.427 59.363,998.567 59.274,999.133C59.051,1000.54 59.039,1000.57 57.563,1001.69C55.709,1002.71 54.956,1002.58 54.093,1002.44C53.533,1002.34 52.903,1002.23 52.059,1002.38C50.95,1002.58 49.84,1001.99 48.667,1001.36C48.208,1001.12 47.757,1000.88 47.312,1000.68C45.909,1000.08 44.636,1000.52 43.912,1001.14C43.764,1001.27 43.642,1001.41 43.53,1001.56C42.639,1001.17 41.323,1000.79 39.389,1000.29C38.577,1000.08 37.568,999.818 37.34,999.703C36.363,999.207 35.024,999.269 33.836,999.49C33.883,999.178 33.8,998.852 33.554,998.618C33.546,998.61 32.759,997.819 33.083,996.636C33.19,996.4 33.282,996.136 33.379,995.825C33.471,995.528 33.652,994.941 33.803,994.715C34.079,994.714 34.708,994.834 35.137,994.921C35.695,995.035 36.331,995.162 36.947,995.189C37.422,996.438 38.448,997.407 39.931,997.956C40.244,998.072 41.049,998.342 41.756,998.342C42.117,998.342 42.453,998.272 42.685,998.073C43.105,997.715 43.155,997.083 42.795,996.664C42.543,996.368 42.158,996.255 41.802,996.341C41.487,996.313 39.543,996.07 38.874,994.627C39.039,994.473 39.189,994.293 39.303,994.056C39.439,993.773 39.52,993.412 39.571,993.035C40.346,993.436 41.183,993.62 42.126,993.403C44.099,992.947 46.522,992.571 47.79,993.706C47.794,993.71 47.8,993.711 47.804,993.715C47.809,993.719 47.81,993.725 47.815,993.729C49.34,995.003 48.704,996.463 48.622,996.634C48.377,997.123 48.572,997.721 49.06,997.971C49.206,998.046 49.362,998.081 49.515,998.081C49.878,998.081 50.229,997.883 50.406,997.537C50.933,996.508 51.339,994.066 49.098,992.193C49.087,992.184 49.074,992.183 49.063,992.174C47.121,990.492 44.243,990.866 41.676,991.458C40.56,991.713 39.524,990.703 37.944,989.001C37.542,988.568 37.131,988.134 36.701,987.71C35.423,986.448 35.482,985.126 35.565,983.272C35.59,982.688 35.617,982.124 35.6,981.509C35.521,978.699 33.705,978 32.755,978C32.752,978 32.749,978 32.746,978C32.197,978 31.751,978.374 31.746,978.923C31.741,979.476 32.185,979.859 32.737,979.863C32.745,979.863 33.554,979.888 33.597,981.498C33.613,982.063 33.587,982.614 33.564,983.151C33.506,984.444 33.456,985.764 33.933,987.045C33.928,987.07 33.925,987.083 33.92,987.109C33.62,988.71 33.173,989.775 31.969,989.775C31.612,989.775 31.191,989.653 30.745,989.523C29.823,989.253 28.679,988.92 27.416,989.489C26.897,989.721 26.517,990.136 26.315,990.688C25.75,992.244 26.811,994.574 27.029,995.025C27.202,995.381 27.558,995.589 27.929,995.589C28.075,995.589 28.223,995.557 28.364,995.489C28.861,995.249 29.069,994.651 28.83,994.154C28.24,992.929 27.998,991.549 28.235,991.312C28.798,991.06 29.343,991.197 30.185,991.442C30.746,991.605 31.326,991.774 31.968,991.774C33.949,991.774 34.913,990.462 35.404,989.234C35.771,989.602 36.129,989.982 36.474,990.354C36.848,990.757 37.226,991.16 37.613,991.54C37.657,992.067 37.632,992.915 37.532,993.151C37.259,993.313 36.093,993.077 35.535,992.963C34.587,992.769 33.765,992.601 33.097,992.823C32.112,993.148 31.753,994.304 31.465,995.233C31.396,995.454 31.302,995.756 31.253,995.845C31.232,995.882 31.23,995.923 31.215,995.961C31.199,995.999 31.171,996.028 31.16,996.069C31.147,996.114 31.148,996.154 31.137,996.199C31.135,996.212 31.132,996.224 31.13,996.237C30.659,998.19 31.716,999.571 32.067,999.958C32.002,999.98 31.943,999.999 31.875,1000.02C30.736,1000.41 28.83,1001.05 27.928,1000.46C26.733,999.679 25.829,999.723 25.035,999.767C24.53,999.794 24.091,999.816 23.502,999.627C22.689,999.368 22.196,998.396 21.515,996.412C21.567,996.098 21.694,995.752 21.792,995.692C21.792,995.693 21.883,995.678 22.105,995.779C22.609,996.01 23.202,995.79 23.431,995.289C23.662,994.787 23.443,994.193 22.941,993.963C21.937,993.5 21.21,993.712 20.776,993.972C20.758,993.983 20.745,993.998 20.728,994.009L20.449,993.146C20.303,992.7 20.199,992.279 20.119,991.875C20.631,992.508 21.492,993 22.466,993C22.484,993 22.5,993 22.517,993C23.556,993 24.454,992.427 24.979,991.69C25.295,991.247 25.528,990.513 25.774,989.872C26.485,988.023 26.921,987.283 27.783,987.487C28.323,987.611 28.858,987.285 28.983,986.746C29.107,986.208 28.772,985.687 28.234,985.562C25.533,984.941 24.517,987.629 23.907,989.216C23.717,989.711 23.52,990.289 23.351,990.525C23.203,990.732 22.874,991 22.49,991C22.483,991 22.475,991 22.468,991C22.042,991 21.734,990.716 21.65,990.605C21.057,989.816 20.431,989.526 19.972,989.502C20.066,988.296 20.402,987.341 20.709,986.583C20.997,986.898 21.382,987.141 21.913,987.141C22.031,987.141 22.155,987.13 22.286,987.105C23.874,986.803 24.063,985.407 24.201,984.386C24.312,983.566 24.428,982.718 25.034,981.938C26.378,980.211 27.427,980.248 28.386,980.432C29.091,980.571 29.532,980.268 29.73,980.075C30.394,979.429 30.227,978.419 30.05,977.348C29.984,976.944 29.901,976.44 29.928,976.226C30.066,975.149 31.583,973.675 32.256,973.438C33.172,975.059 34.308,975.207 34.533,975.219L34.73,975.214C39.381,975.017 40.049,975.695 40.142,975.909C40.516,976.772 41.027,977.173 41.437,977.498C41.923,977.885 42.308,978.181 42.651,979.543C43.085,981.269 42.758,981.87 42.648,982.018C42.605,982.075 42.492,982.193 42.151,982.207C41.599,982.231 41.172,982.629 41.196,983.181C41.219,983.719 41.661,984 42.193,984C42.208,984 42.223,984 42.238,984C43.07,984 43.784,983.736 44.251,983.111C44.939,982.186 45.054,980.918 44.59,979.072C44.12,977.205 43.446,976.549 42.68,975.94C42.351,975.678 42.153,975.521 41.978,975.118C41.155,973.219 37.991,973.078 34.691,973.216C34.584,973.168 34.265,972.98 33.926,972.322C33.566,971.623 32.856,971.292 32.038,971.437C30.358,971.733 28.177,974.149 27.942,975.971C27.878,976.475 27.973,977.057 28.075,977.672C28.108,977.871 28.153,978.141 28.18,978.378C26.829,978.236 25.158,978.518 23.454,980.708C22.516,981.914 22.344,983.187 22.218,984.116C22.181,984.388 22.13,984.766 22.025,984.987C21.972,984.864 21.921,984.72 21.886,984.624C21.824,984.451 21.745,984.238 21.636,984.033C22.122,982.692 22.656,981.408 23.028,980.859C23.398,980.314 23.97,979.223 24.577,978.069C25.074,977.123 25.588,976.145 25.842,975.764C26.911,974.164 29.022,971.455 29.604,971.137L29.979,970.792C30.866,969.405 33.837,968.154 35.687,967.625C36.219,967.612 37.442,967.711 38.114,968.262C38,968.414 37.816,968.613 37.692,968.748C37.192,969.291 36.57,969.967 36.661,970.834C36.697,971.176 36.864,971.672 37.455,972.091C38.594,972.901 40.046,972.32 40.825,972.008C41.559,971.716 42.586,971.742 43.238,972.453C43.551,972.795 43.909,973.055 44.301,973.225C45.828,973.892 45.872,974.698 45.47,975.703C45.159,976.477 45.326,977.033 45.521,977.362C46.037,978.234 47.18,978.374 48.287,978.508C48.932,978.586 49.733,978.684 50.075,978.915C51.16,979.647 52.473,982.915 51.808,984.717C51.102,986.626 51.305,987.602 51.661,988.11C51.107,987.769 50.582,987.361 50.133,986.935C49.326,986.168 48.622,985.833 47.95,985.675C49.385,983.628 48.787,982.103 48.696,981.9C48.475,981.412 47.919,981.208 47.422,981.403C46.925,981.602 46.681,982.178 46.858,982.684C46.875,982.732 47.227,983.842 45.417,985.536C44.945,985.609 44.422,985.792 43.848,986.003C42.86,986.365 41.63,986.811 40.925,986.481C40.607,986.331 40.362,986 40.174,985.467C39.616,983.882 39.569,982.431 39.53,981.265C39.484,979.869 39.432,978.285 37.914,978C37.365,977.897 36.849,978.256 36.747,978.798C36.653,979.297 36.948,979.779 37.418,979.933C37.494,980.2 37.516,980.845 37.531,981.331C37.572,982.564 37.627,984.255 38.287,986.131C38.656,987.179 39.257,987.904 40.072,988.289C41.538,988.979 43.2,988.371 44.536,987.881C44.959,987.726 45.604,987.489 45.796,987.5C46.003,987.51 46.197,987.516 46.383,987.521C47.417,987.548 47.889,987.561 48.756,988.385C51.055,990.567 53.652,991.437 55.703,990.701C56.398,990.454 56.972,990.442 57.619,990.65L57.654,990.66C57.657,990.661 57.662,990.661 57.666,990.662C58.328,990.885 59.072,991.339 60.101,992.015C61.878,993.184 62.519,995.048 62.618,995.964C62.629,996.094 62.587,996.172 62.336,996.498Z" style="fill:white;fill-rule:nonzero;"/>
                        </g>
                        <g id="path8" transform="matrix(10.2243,0,0,10.2243,6387.8,-9663.69)">
                            <path d="M53.526,974.652C53.516,974.201 53.201,973.798 52.741,973.697C52.204,973.58 51.668,973.92 51.55,974.459C51.465,974.845 51.394,976.193 54.024,977.339C55.688,978.065 55.688,978.067 55.671,980.18C55.649,982.958 58.037,983.209 59.956,983.406C61.925,983.609 64.157,983.849 65.642,986.019C66.237,986.89 67.13,987.156 67.782,987.335C68.005,987.397 68.342,987.53 68.405,987.586C68.405,987.586 68.423,987.712 68.423,987.827C68.42,988.379 68.865,989 69.418,989C69.419,989 69.421,989 69.422,989C69.973,989 70.42,988.386 70.422,987.835C70.429,986.114 69.051,985.567 68.311,985.364C67.792,985.221 67.465,985.122 67.292,984.869C65.285,981.933 62.323,981.629 60.16,981.406C57.878,981.172 57.664,980.98 57.671,980.19C57.694,977.173 57.349,976.604 54.822,975.503C53.869,975.088 53.593,974.754 53.526,974.652Z" style="fill:white;fill-rule:nonzero;"/>
                        </g>
                        <g id="path10" transform="matrix(10.2243,0,0,10.2243,6387.8,-9663.69)">
                            <path d="M53.767,995.917C53.409,995.498 52.777,995.449 52.357,995.808C51.938,996.166 51.888,996.798 52.248,997.218C52.68,997.723 53.113,998.402 53.211,998.713C52.974,999.229 53.139,999.615 53.27,999.811C53.662,1000.4 54.315,1000.29 54.627,1000.24C55.082,1000.17 55.33,1000.16 55.511,1000.34C55.705,1000.52 55.955,1000.62 56.206,1000.62C56.468,1000.62 56.728,1000.52 56.925,1000.31C57.309,999.917 57.298,999.283 56.902,998.899C56.332,998.347 55.676,998.203 55.138,998.193C54.919,997.408 54.335,996.582 53.767,995.917Z" style="fill:white;fill-rule:nonzero;"/>
                        </g>
                    </g>
                </g>
                <g id="path61" serif:id="path6" transform="matrix(1,0,0,1,5910,-3861.66)">
                    <path d="M1022.08,4071.27C1028.73,4071.29 1035.09,4071.55 1040.87,4072.24C1061.22,4074.65 1106.9,4092.85 1160.07,4114.61L1180.28,4122.82C1199.25,4130.46 1205.08,4135.64 1212.44,4143.25C1217.76,4148.77 1224.4,4155.66 1249.84,4169.75C1282.58,4187.88 1306.07,4226 1321.54,4258.36C1324.19,4261.59 1326.01,4265.38 1326.81,4269.8C1332.51,4282.73 1336.84,4294.11 1339.81,4301.9C1341.32,4305.89 1342.38,4308.79 1343.07,4310.23C1346.67,4317.59 1348.16,4325.41 1350.06,4335.34C1351.86,4344.79 1354.12,4356.55 1359,4373.24C1368.46,4405.64 1358.72,4427.4 1344.4,4438.84C1345.86,4445.27 1346.57,4454.15 1343.84,4466.56C1336.13,4501.87 1292.74,4525.12 1271.23,4529.73C1263.67,4531.37 1258.69,4533.63 1252.41,4536.51C1244.65,4540.07 1234.98,4544.49 1218.95,4548.1C1205.74,4551.07 1190.32,4551.73 1177.16,4551.53C1181.57,4562.08 1184.21,4572.29 1185.13,4580.93C1186.68,4595.63 1179.34,4605.19 1174.46,4611.5C1169.94,4617.36 1169.51,4618.39 1170.14,4621.43L1170.14,4621.51C1176.86,4652.89 1148.24,4668.78 1091.23,4700.39C1052.15,4722.06 1032.97,4718.82 1016.01,4715.92C1008.63,4714.67 1002.8,4713.67 994.947,4715.05C967.104,4719.94 943.127,4707.25 922.003,4696.01C915.611,4692.63 909.329,4689.26 903.124,4686.58C895.641,4683.26 889.763,4684.74 886.162,4686.58C882.125,4688.65 880.363,4691.44 880.098,4692.35C880.176,4692.78 880.145,4693.19 880.191,4693.63C882.92,4704.51 880.581,4718.4 873.675,4728.98C867.47,4738.49 857.992,4745.03 846.736,4747.58C840.594,4757.92 834.95,4796.67 834.436,4838.2C834.327,4846.75 827.374,4849.76 818.846,4849.76C818.784,4849.76 818.721,4849.76 818.643,4849.76C810.038,4849.76 803.147,4846.42 803.287,4837.77C803.615,4811.11 805.189,4790.58 807.481,4774.35C800.824,4783.16 793.809,4790.41 784.673,4792.71C781.259,4793.59 777.985,4794.02 774.867,4794.02C769.879,4794.02 765.28,4792.82 761.086,4790.61C764.157,4813.24 764.454,4834.91 764.454,4841.81C764.454,4850.41 757.485,4857.4 748.864,4857.4C740.258,4857.4 733.274,4850.43 733.274,4841.81C733.259,4816.78 729.86,4778.47 722.439,4761.57C708.19,4760.57 688.002,4758.81 660.112,4753.16C598.969,4740.78 577.284,4695.47 570.393,4674.56C570.206,4674.56 570.066,4674.56 569.879,4674.56C560.821,4675.04 549.519,4675.62 534.911,4670.97C508.222,4662.46 496.607,4638.88 482.888,4598.28C482.869,4598.22 482.85,4598.17 482.832,4598.12L482.726,4597.8C482.708,4597.75 482.69,4597.69 482.67,4597.64C479.895,4589.41 477.058,4580.76 473.971,4571.11L467.127,4549.87C463.089,4537.51 460.844,4526.22 459.379,4515.5C459.286,4515.23 459.332,4514.94 459.254,4514.67C453.611,4471.66 465.615,4441.4 473.644,4421.87C475.312,4417.78 476.824,4414.16 477.884,4410.92C482.436,4397.03 498.291,4350.15 511.184,4331.16C515.954,4324.13 525.292,4306.36 533.524,4290.68C542.02,4274.5 550.033,4259.23 554.913,4251.94C555.365,4251.25 598.018,4188.6 621.06,4171.98C647.749,4134.92 719.306,4114.14 727.584,4111.83C728.473,4111.59 731.232,4109.34 733.243,4107.72C742.737,4099.99 757.126,4088.31 792.702,4081.28C835.355,4072.88 866.052,4076.51 884.385,4078.66C887.191,4079 889.701,4079.3 891.915,4079.5C897.418,4080.09 909.048,4077.93 919.29,4076.09C934.194,4073.42 949.519,4070.69 961.195,4072.28C968.024,4073.22 981.15,4072.66 993.825,4072.1C1003.04,4071.68 1012.44,4071.27 1021.34,4071.27L1022.08,4071.27Z" style="fill:white;fill-rule:nonzero;"/>
                </g>
                <g transform="matrix(1,0,0,1,-136.064,-1217.57)">
                    <text x="6699.57px" y="1654.2px" style="font-family:'Boogaloo-Regular', 'Boogaloo', cursive;font-size:82px;stroke:white;stroke-width:1px;">race</text>
                    <text x="6615.85px" y="1736.2px" style="font-family:'Boogaloo-Regular', 'Boogaloo', cursive;font-size:82px;stroke:white;stroke-width:1px;">conditions</text>
                </g>
                <g transform="matrix(1,0,0,1,101.302,-1317.59)">
                    <text x="6591.61px" y="1654.2px" style="font-family:'Boogaloo-Regular', 'Boogaloo', cursive;font-size:82px;stroke:white;stroke-width:1px;">composition</text>
                </g>
                <g transform="matrix(1,0,0,1,291.993,-1179.37)">
                    <text x="6644.1px" y="1654.2px" style="font-family:'Boogaloo-Regular', 'Boogaloo', cursive;font-size:82px;stroke:white;stroke-width:1px;">one-way</text>
                    <text x="6639.5px" y="1736.2px" style="font-family:'Boogaloo-Regular', 'Boogaloo', cursive;font-size:82px;stroke:white;stroke-width:1px;">dataﬂow</text>
                </g>
                <g transform="matrix(1,0,0,1,61.2228,-975.47)">
                    <text x="6613.14px" y="1654.2px" style="font-family:'Boogaloo-Regular', 'Boogaloo', cursive;font-size:82px;stroke:white;stroke-width:1px;">separation</text>
                    <text x="6600.18px" y="1736.2px" style="font-family:'Boogaloo-Regular', 'Boogaloo', cursive;font-size:82px;stroke:white;stroke-width:1px;">of concerns</text>
                </g>
                <g transform="matrix(1,0,0,1,-237.226,-949.236)">
                    <text x="6688.87px" y="1654.2px" style="font-family:'Boogaloo-Regular', 'Boogaloo', cursive;font-size:82px;stroke:white;stroke-width:1px;">DOM</text>
                </g>
            </g>
        </g>
    </g>
</svg>
