<?xml version="1.0" encoding="UTF-8" standalone="no"?>
<!DOCTYPE svg PUBLIC "-//W3C//DTD SVG 1.1//EN" "http://www.w3.org/Graphics/SVG/1.1/DTD/svg11.dtd">
<svg width="100%" height="100%" viewBox="0 0 1921 1080" version="1.1" xmlns="http://www.w3.org/2000/svg" xmlns:xlink="http://www.w3.org/1999/xlink" xml:space="preserve" xmlns:serif="http://www.serif.com/" style="fill-rule:evenodd;clip-rule:evenodd;stroke-linejoin:round;stroke-miterlimit:1.41421;">
    <g transform="matrix(1,0,0,1,-8,-1180)">
        <g id="dr-sigma" transform="matrix(1,0,0,1,-5901.87,1180)">
            <rect x="5910" y="0" width="1920" height="1080"/>
            <g transform="matrix(1,0,0,1,3940,-1255.01)">
                <path d="M2376.13,1467.14C2429.56,1455.07 2487.37,1466.79 2541.62,1467.02C2604.02,1467.29 2666.53,1462.36 2728.76,1460.25C2779.33,1458.54 2828.46,1461.8 2879.14,1457.45C2960.2,1450.5 3041.85,1461.17 3122.97,1461.89C3200.87,1462.57 3278.94,1453.28 3356.84,1453.64C3379.44,1453.75 3489.38,1448.77 3500.24,1466.9C3512.99,1488.17 3498.96,1535.09 3498.47,1558.29C3496.59,1646.1 3484.45,1733.51 3487.33,1821.4C3489.8,1896.9 3485.49,1972.37 3488.49,2047.77C3489.18,2065.18 3494.44,2121.82 3480.59,2135.04C3466.23,2148.76 3437.8,2144.15 3420.05,2142.97C3364.97,2139.32 3310.9,2132.89 3255.54,2130.62C3039.27,2121.76 2822.91,2129.04 2606.56,2127.96C2544.93,2127.66 2483.36,2128.08 2421.92,2124.42C2408.28,2123.61 2372.78,2131.4 2363.04,2119.68C2340.32,2092.35 2355.75,1984.82 2355.47,1949.81C2354.84,1870.19 2360.48,1790.42 2359.38,1710.93C2358.25,1629.08 2353.5,1550.55 2365.64,1469.26" style="fill:none;stroke:white;stroke-width:19.8px;stroke-linecap:round;stroke-miterlimit:1.5;stroke-dasharray:0,0.99,0,0;"/>
            </g>
            <g>
                <g transform="matrix(1,0,0,1,3933.44,-1255.01)">
                    <path d="M2441.47,1531.19C2439.23,1531.19 2436.78,1530.15 2434.71,1531.52C2427.6,1536.27 2424.73,1553.72 2429.31,1560.58C2430.93,1563.02 2435.52,1563.66 2438.09,1564.3C2450.61,1567.43 2469.35,1543.72 2451.27,1532.88C2439.33,1525.71 2432.64,1546.78 2438.43,1551.12C2443.78,1555.13 2453.38,1545.64 2449.92,1541.32C2444.72,1534.83 2438.54,1545.83 2441.81,1549.1C2444.39,1551.68 2448.44,1545.53 2447.89,1543.35C2447.14,1540.36 2440.46,1541.31 2440.46,1544.37" style="fill:none;stroke:white;stroke-width:19.8px;stroke-linecap:round;stroke-miterlimit:1.5;stroke-dasharray:0,0.99,0,0;"/>
                </g>
                <g transform="matrix(1,0,0,1,3933.44,-745.638)">
                    <path d="M2441.47,1531.19C2439.23,1531.19 2436.78,1530.15 2434.71,1531.52C2427.6,1536.27 2424.73,1553.72 2429.31,1560.58C2430.93,1563.02 2435.52,1563.66 2438.09,1564.3C2450.61,1567.43 2469.35,1543.72 2451.27,1532.88C2439.33,1525.71 2432.64,1546.78 2438.43,1551.12C2443.78,1555.13 2453.38,1545.64 2449.92,1541.32C2444.72,1534.83 2438.54,1545.83 2441.81,1549.1C2444.39,1551.68 2448.44,1545.53 2447.89,1543.35C2447.14,1540.36 2440.46,1541.31 2440.46,1544.37" style="fill:none;stroke:white;stroke-width:19.8px;stroke-linecap:round;stroke-miterlimit:1.5;stroke-dasharray:0,0.99,0,0;"/>
                </g>
                <g transform="matrix(1,0,0,1,4909.89,-745.638)">
                    <path d="M2441.47,1531.19C2439.23,1531.19 2436.78,1530.15 2434.71,1531.52C2427.6,1536.27 2424.73,1553.72 2429.31,1560.58C2430.93,1563.02 2435.52,1563.66 2438.09,1564.3C2450.61,1567.43 2469.35,1543.72 2451.27,1532.88C2439.33,1525.71 2432.64,1546.78 2438.43,1551.12C2443.78,1555.13 2453.38,1545.64 2449.92,1541.32C2444.72,1534.83 2438.54,1545.83 2441.81,1549.1C2444.39,1551.68 2448.44,1545.53 2447.89,1543.35C2447.14,1540.36 2440.46,1541.31 2440.46,1544.37" style="fill:none;stroke:white;stroke-width:19.8px;stroke-linecap:round;stroke-miterlimit:1.5;stroke-dasharray:0,0.99,0,0;"/>
                </g>
                <g transform="matrix(1,0,0,1,4909.89,-1255.01)">
                    <path d="M2441.47,1531.19C2439.23,1531.19 2436.78,1530.15 2434.71,1531.52C2427.6,1536.27 2424.73,1553.72 2429.31,1560.58C2430.93,1563.02 2435.52,1563.66 2438.09,1564.3C2450.61,1567.43 2469.35,1543.72 2451.27,1532.88C2439.33,1525.71 2432.64,1546.78 2438.43,1551.12C2443.78,1555.13 2453.38,1545.64 2449.92,1541.32C2444.72,1534.83 2438.54,1545.83 2441.81,1549.1C2444.39,1551.68 2448.44,1545.53 2447.89,1543.35C2447.14,1540.36 2440.46,1541.31 2440.46,1544.37" style="fill:none;stroke:white;stroke-width:19.8px;stroke-linecap:round;stroke-miterlimit:1.5;stroke-dasharray:0,0.99,0,0;"/>
                </g>
            </g>
            <g transform="matrix(1,0,0,1,-3.13776e-11,-66.7121)">
                <g transform="matrix(1,0,0,1,4232.9,-1256.39)">
                    <text x="2348.02px" y="1987.51px" style="font-family:'Boogaloo-Regular', 'Boogaloo', cursive;font-size:90px;fill:white;">Fullstack therapist</text>
                </g>
                <g transform="matrix(1,0,0,1,4239.7,-974.381)">
                    <text x="2250.92px" y="1543.7px" style="font-family:'Boogaloo-Regular', 'Boogaloo', cursive;font-size:123.176px;fill:white;">Dr<tspan x="2339.85px " y="1543.7px ">.</tspan> Sigma FRAUD</text>
                </g>
            </g>
        </g>
    </g>
</svg>
