<?xml version="1.0" encoding="UTF-8" standalone="no"?>
<!DOCTYPE svg PUBLIC "-//W3C//DTD SVG 1.1//EN" "http://www.w3.org/Graphics/SVG/1.1/DTD/svg11.dtd">
<svg width="100%" height="100%" viewBox="0 0 1920 1081" version="1.1" xmlns="http://www.w3.org/2000/svg" xmlns:xlink="http://www.w3.org/1999/xlink" xml:space="preserve" xmlns:serif="http://www.serif.com/" style="fill-rule:evenodd;clip-rule:evenodd;stroke-linejoin:round;stroke-miterlimit:1.41421;">
    <g transform="matrix(1,0,0,1,0,-2605)">
        <g id="giant" transform="matrix(1,0,0,1,-5910,2605.84)">
            <rect x="5910" y="0" width="1920" height="1080"/>
            <clipPath id="_clip1">
                <rect x="5910" y="0" width="1920" height="1080"/>
            </clipPath>
            <g clip-path="url(#_clip1)">
                <g transform="matrix(1,0,0,1,5938.2,-1189.5)">
                    <path d="M808.744,2334.62C754.508,2257.54 764.318,2187.29 783.158,2098.28C785.991,2084.9 798.158,2017.43 811.372,2018.33C848.615,2020.88 882.53,2081.05 900.787,2109.05C905.381,2116.09 922.439,2148.48 931.9,2147.09C951.444,2144.21 964.668,2115.19 972.647,2099.75C984.842,2076.17 1008.32,2050.9 1034.79,2042.8C1071.52,2031.57 1079.02,2078.05 1083.21,2104.16C1089.52,2143.51 1093.06,2183.13 1098.29,2222.61C1102.51,2254.52 1110.06,2287.22 1108.52,2319.59" style="fill:none;stroke:white;stroke-width:35px;stroke-linecap:round;stroke-miterlimit:1.5;stroke-dasharray:0,1.75,0,0;"/>
                </g>
                <g transform="matrix(0.784052,0,0,0.784052,6119.44,-802.635)">
                    <path d="M829.327,1859.17C850.743,1825.16 905.223,1816.61 942.493,1814.73C1011.03,1811.27 1074.07,1845.03 1084.6,1926.34C1086.42,1940.42 1081.22,1953.69 1076.18,1966.54C1053.28,2025.01 977.819,2032.35 925.913,2021.44C913.597,2018.85 844.355,2011.11 833.712,1977.57C824.53,1948.63 850.595,1930.83 873.875,1924.68C927.346,1910.57 951.618,1905.68 1007.14,1913.81C1021.05,1915.85 1036.76,1916.92 1049.42,1923.56C1090.28,1945.01 1073.43,1988.85 1082.47,2023.24" style="fill:none;stroke:white;stroke-width:44.64px;stroke-linecap:round;stroke-miterlimit:1.5;stroke-dasharray:0,2.23,0,0;"/>
                </g>
                <g transform="matrix(1,0,0,1,5933.34,-1225.86)">
                    <path d="M1188.3,1516.86C1201.67,1497.55 1221.72,1481.48 1246.4,1481C1260.34,1480.72 1284.25,1502.87 1288.18,1486.55C1290.71,1476.06 1280.82,1462.06 1276.69,1453.13C1270.31,1439.34 1263.71,1425.48 1259.76,1410.77C1255.33,1394.26 1258.75,1354.66 1234.17,1353.48C1212,1352.42 1193.69,1390.27 1174.12,1386.85C1169.45,1386.03 1167.77,1379.77 1164.9,1376.73C1145.92,1356.55 1139.68,1329.63 1162.01,1307.51C1194.91,1274.94 1263.69,1291.02 1290.4,1323.63C1308.81,1346.1 1316.55,1375.82 1333.51,1399.4C1347.09,1418.27 1363.59,1435.49 1373.32,1456.83C1381.59,1474.96 1401.02,1522.78 1391.79,1541.37C1382.11,1560.88 1364.4,1564.59 1347.76,1575.63C1318.18,1595.25 1280.03,1647.28 1241.16,1644.63C1213.52,1642.74 1212.53,1611.07 1205.91,1589.72C1198.11,1564.57 1177.11,1541.06 1189.22,1513.84" style="fill:white;stroke:white;stroke-width:12px;stroke-linecap:round;stroke-miterlimit:1.5;stroke-dasharray:0,0.6,0,0;"/>
                </g>
                <g transform="matrix(0.889497,0,0,1,776.619,4.06247)">
                    <g transform="matrix(1,0,0,1,5910,-1255.01)">
                        <path d="M1005.42,1818.63C991.162,1763.4 984.603,1728.95 1001.55,1660.72C1009.46,1628.89 1011.19,1596.27 1033.83,1584.27C1091.76,1553.57 1154.9,1562.44 1191.03,1622.32" style="fill:none;stroke:white;stroke-width:36.98px;stroke-linecap:round;stroke-miterlimit:1.5;stroke-dasharray:0,1.85,0,0;"/>
                    </g>
                    <g transform="matrix(1,0,0,1,5910,-1255.01)">
                        <path d="M992.152,1724.36C996.788,1652.51 1087.02,1662.82 1122.07,1708.08" style="fill:none;stroke:white;stroke-width:36.98px;stroke-linecap:round;stroke-miterlimit:1.5;stroke-dasharray:0,1.85,0,0;"/>
                    </g>
                </g>
                <g transform="matrix(0.936286,0,0,1,411.113,1.16071)">
                    <g transform="matrix(1,0,0,1,5910,-1255.01)">
                        <path d="M789.129,1632.17C825.47,1574.41 934.343,1555.35 968.879,1622.38C982.307,1648.44 964.676,1681.24 961.66,1708.12C957.696,1743.44 966.292,1779.33 975.205,1813.2" style="fill:none;stroke:white;stroke-width:36.13px;stroke-linecap:round;stroke-miterlimit:1.5;stroke-dasharray:0,1.81,0,0;"/>
                    </g>
                    <g transform="matrix(1,0,0,1,5910,-1255.01)">
                        <path d="M963.863,1761.2C973.713,1812.81 913.502,1818.13 869.847,1816.12C853.646,1815.38 831.314,1817.78 819.922,1805.33C802.085,1785.85 790.539,1760.05 800.154,1739.02C817.079,1702 860.283,1680.39 904.488,1687.31C933.523,1691.86 963.274,1691.07 960.448,1724.83" style="fill:none;stroke:white;stroke-width:36.13px;stroke-linecap:round;stroke-miterlimit:1.5;stroke-dasharray:0,1.81,0,0;"/>
                    </g>
                </g>
                <g transform="matrix(1,0,0,1,5879.61,-1262.39)">
                    <path d="M567.894,1624.05C573.733,1630.72 581.76,1635.15 588.205,1641.17C595.757,1648.24 600.569,1656.78 608.898,1663.47C631.031,1681.26 665.214,1686.17 692.396,1690.52C699.457,1691.64 737.354,1696.09 741.686,1691.69C756.453,1676.71 745.808,1645.06 752.592,1626.06C764.29,1593.3 790.858,1580.23 817.425,1561.5L817.571,1558.48C784.938,1549.77 762.482,1569.27 747.392,1566.89C730.346,1564.2 716.173,1540.47 694.895,1537.18C684.606,1535.59 659.055,1548.65 657.234,1546.44C650.823,1538.65 651.276,1525.9 652.945,1516.52C656.137,1498.58 661.107,1480.81 662.065,1462.53C662.776,1448.97 658.674,1433.61 661.825,1420.44C663.211,1414.64 671.753,1413.31 676.82,1412.35C702.837,1407.44 721.815,1445.58 731.248,1442.24C738.665,1439.62 734.926,1419.05 735.214,1413.38C736.392,1390.19 746.568,1359.97 716.885,1350.86C699.457,1345.52 666.041,1344.85 649.839,1354.17C613.823,1374.91 574.77,1463.62 555.68,1501.92C547.804,1517.72 543.558,1533.48 538.884,1550.39C529.473,1584.44 527.566,1602.7 564.507,1621.98" style="fill:white;stroke:white;stroke-width:12px;stroke-linecap:round;stroke-miterlimit:1.5;stroke-dasharray:0,0.6,0,0;"/>
                </g>
                <g transform="matrix(0.884564,-0.0706601,0.0706601,0.884564,5915.61,-1017.36)">
                    <path d="M965.107,1431.12C984.77,1430.08 1004.42,1429.29 1024.07,1427.93C1037.11,1427.02 1058.31,1422.1 1070.59,1427.9C1102.91,1443.18 1079.61,1488.41 1060.33,1503.87C996.633,1554.95 848.799,1543.74 847.387,1441.59C846.242,1358.76 933.871,1298.14 1011.16,1317.87C1026.79,1321.86 1041.43,1329.52 1054.7,1338.61C1077.33,1354.11 1093.86,1375.16 1109.16,1333.49" style="fill:none;stroke:white;stroke-width:39.44px;stroke-linecap:round;stroke-miterlimit:1.5;stroke-dasharray:0,1.97,0,0;"/>
                </g>
            </g>
        </g>
    </g>
</svg>
