<?xml version="1.0" encoding="UTF-8" standalone="no"?>
<!DOCTYPE svg PUBLIC "-//W3C//DTD SVG 1.1//EN" "http://www.w3.org/Graphics/SVG/1.1/DTD/svg11.dtd">
<svg width="100%" height="100%" viewBox="0 0 1921 1081" version="1.1" xmlns="http://www.w3.org/2000/svg" xmlns:xlink="http://www.w3.org/1999/xlink" xml:space="preserve" xmlns:serif="http://www.serif.com/" style="fill-rule:evenodd;clip-rule:evenodd;stroke-linejoin:round;stroke-miterlimit:1.41421;">
    <g transform="matrix(1,0,0,1,-6092,-3593)">
        <g id="layers-light" transform="matrix(1,0,0,1,182.502,3593.86)">
            <rect x="5910" y="0" width="1920" height="1080" style="fill:white;"/>
            <g transform="matrix(1,0,0,1,139.477,2.9988)">
                <g transform="matrix(1.28945,0,0,0.279272,351.506,-297.566)">
                    <path d="M5277.89,4187.17L5278.68,4188.14L5279.41,4189.72L5280.07,4191.87L5280.65,4194.51L5281.11,4197.58L5281.46,4200.98L5281.67,4204.59L5281.74,4208.32L5281.74,4664.16L5281.67,4667.89L5281.46,4671.51L5281.11,4674.9L5280.65,4677.97L5280.07,4680.62L5279.41,4682.77L5278.68,4684.35L5277.89,4685.32L5277.08,4685.65L4437.09,4685.65L4436.28,4685.32L4435.5,4684.35L4434.76,4682.77L4434.1,4680.62L4433.53,4677.97L4433.06,4674.9L4432.72,4671.51L4432.51,4667.89L4432.44,4664.16L4432.44,4208.32L4432.51,4204.59L4432.72,4200.98L4433.06,4197.58L4433.53,4194.51L4434.1,4191.87L4434.76,4189.72L4435.5,4188.14L4436.28,4187.17L4437.09,4186.84L5277.08,4186.84L5277.89,4187.17ZM4441.74,4229.81L4441.74,4642.68L5272.43,4642.68L5272.43,4229.81L4441.74,4229.81Z"/>
                </g>
                <g transform="matrix(1.28945,0,0,0.279272,351.506,-565.133)">
                    <path d="M5277.89,4187.17L5278.68,4188.14L5279.41,4189.72L5280.07,4191.87L5280.65,4194.51L5281.11,4197.58L5281.46,4200.98L5281.67,4204.59L5281.74,4208.32L5281.74,4664.16L5281.67,4667.89L5281.46,4671.51L5281.11,4674.9L5280.65,4677.97L5280.07,4680.62L5279.41,4682.77L5278.68,4684.35L5277.89,4685.32L5277.08,4685.65L4437.09,4685.65L4436.28,4685.32L4435.5,4684.35L4434.76,4682.77L4434.1,4680.62L4433.53,4677.97L4433.06,4674.9L4432.72,4671.51L4432.51,4667.89L4432.44,4664.16L4432.44,4208.32L4432.51,4204.59L4432.72,4200.98L4433.06,4197.58L4433.53,4194.51L4434.1,4191.87L4434.76,4189.72L4435.5,4188.14L4436.28,4187.17L4437.09,4186.84L5277.08,4186.84L5277.89,4187.17ZM4441.74,4229.81L4441.74,4642.68L5272.43,4642.68L5272.43,4229.81L4441.74,4229.81Z"/>
                </g>
                <g transform="matrix(1.28945,0,0,0.279272,351.506,-832.7)">
                    <path d="M5277.89,4187.17L5278.68,4188.14L5279.41,4189.72L5280.07,4191.87L5280.65,4194.51L5281.11,4197.58L5281.46,4200.98L5281.67,4204.59L5281.74,4208.32L5281.74,4664.16L5281.67,4667.89L5281.46,4671.51L5281.11,4674.9L5280.65,4677.97L5280.07,4680.62L5279.41,4682.77L5278.68,4684.35L5277.89,4685.32L5277.08,4685.65L4437.09,4685.65L4436.28,4685.32L4435.5,4684.35L4434.76,4682.77L4434.1,4680.62L4433.53,4677.97L4433.06,4674.9L4432.72,4671.51L4432.51,4667.89L4432.44,4664.16L4432.44,4208.32L4432.51,4204.59L4432.72,4200.98L4433.06,4197.58L4433.53,4194.51L4434.1,4191.87L4434.76,4189.72L4435.5,4188.14L4436.28,4187.17L4437.09,4186.84L5277.08,4186.84L5277.89,4187.17ZM4441.74,4229.81L4441.74,4642.68L5272.43,4642.68L5272.43,4229.81L4441.74,4229.81Z"/>
                </g>
                <g transform="matrix(1.28945,0,0,0.279272,351.506,-1100.27)">
                    <path d="M5277.89,4187.17L5278.68,4188.14L5279.41,4189.72L5280.07,4191.87L5280.65,4194.51L5281.11,4197.58L5281.46,4200.98L5281.67,4204.59L5281.74,4208.32L5281.74,4664.16L5281.67,4667.89L5281.46,4671.51L5281.11,4674.9L5280.65,4677.97L5280.07,4680.62L5279.41,4682.77L5278.68,4684.35L5277.89,4685.32L5277.08,4685.65L4437.09,4685.65L4436.28,4685.32L4435.5,4684.35L4434.76,4682.77L4434.1,4680.62L4433.53,4677.97L4433.06,4674.9L4432.72,4671.51L4432.51,4667.89L4432.44,4664.16L4432.44,4208.32L4432.51,4204.59L4432.72,4200.98L4433.06,4197.58L4433.53,4194.51L4434.1,4191.87L4434.76,4189.72L4435.5,4188.14L4436.28,4187.17L4437.09,4186.84L5277.08,4186.84L5277.89,4187.17ZM4441.74,4229.81L4441.74,4642.68L5272.43,4642.68L5272.43,4229.81L4441.74,4229.81Z"/>
                </g>
                <g transform="matrix(1,0,0,1,-229.754,-4.54747e-13)">
                    <g transform="matrix(1,0,0,1,5901.87,-3540)">
                        <path d="M369.975,3952.66L370.68,3952.83L371.359,3953.08L372.003,3953.41L372.602,3953.82L373.148,3954.3L373.632,3954.84L374.048,3955.43L374.389,3956.07L374.651,3956.74L374.829,3957.45L374.921,3958.16L374.926,3958.89L374.844,3959.61L374.675,3960.31L374.423,3960.99L374.091,3961.64L373.683,3962.24L373.207,3962.78L372.878,3963.12L372.559,3963.44L372.235,3963.78L371.915,3964.11L371.6,3964.44L371.282,3964.78L370.966,3965.11L370.654,3965.45L370.343,3965.78L370.033,3966.12L369.723,3966.46L369.415,3966.8L369.108,3967.14L368.802,3967.49L368.499,3967.83L368.196,3968.18L367.895,3968.53L367.595,3968.87L367.296,3969.22L367,3969.57L366.704,3969.92L366.41,3970.27L366.117,3970.63L365.826,3970.98L365.535,3971.34L365.249,3971.69L364.962,3972.05L364.674,3972.41L364.389,3972.77L364.106,3973.13L363.825,3973.49L363.544,3973.85L363.264,3974.22L362.986,3974.58L362.711,3974.95L362.436,3975.31L362.162,3975.68L361.89,3976.05L361.618,3976.42L361.349,3976.79L361.081,3977.16L360.812,3977.54L360.546,3977.91L360.284,3978.28L360.022,3978.66L359.759,3979.04L359.497,3979.41L359.241,3979.79L358.982,3980.17L358.726,3980.55L358.472,3980.93L358.218,3981.32L357.966,3981.7L357.715,3982.09L357.466,3982.47L357.216,3982.86L356.971,3983.24L356.726,3983.63L356.481,3984.02L356.238,3984.41L355.996,3984.81L355.756,3985.2L355.517,3985.59L355.281,3985.98L355.043,3986.38L354.808,3986.78L354.577,3987.17L354.342,3987.57L354.112,3987.97L353.883,3988.37L353.653,3988.77L353.428,3989.17L353.203,3989.57L352.977,3989.98L352.754,3990.38L352.533,3990.78L352.311,3991.19L352.092,3991.6L351.876,3992L351.659,3992.41L351.444,3992.82L351.231,3993.23L351.016,3993.65L350.807,3994.05L350.598,3994.47L350.388,3994.88L350.181,3995.3L349.974,3995.71L349.769,3996.13L349.567,3996.54L349.364,3996.96L349.164,3997.38L348.963,3997.8L348.767,3998.22L348.571,3998.64L348.373,3999.06L348.178,3999.49L347.987,3999.91L347.795,4000.33L347.605,4000.76L347.416,4001.18L347.227,4001.61L347.041,4002.03L346.856,4002.46L346.671,4002.89L346.488,4003.32L346.309,4003.75L346.129,4004.18L345.949,4004.61L345.771,4005.05L345.596,4005.48L345.421,4005.91L345.247,4006.35L345.074,4006.78L344.904,4007.22L344.733,4007.66L344.565,4008.09L344.398,4008.53L344.233,4008.97L344.067,4009.41L343.904,4009.85L343.743,4010.29L343.581,4010.73L343.422,4011.17L343.263,4011.62L343.106,4012.06L342.951,4012.5L342.795,4012.95L342.642,4013.39L342.491,4013.84L342.341,4014.28L342.191,4014.73L342.043,4015.18L341.897,4015.62L341.75,4016.08L341.606,4016.53L341.463,4016.98L341.321,4017.43L341.181,4017.88L341.041,4018.33L340.904,4018.79L340.766,4019.24L340.631,4019.69L340.497,4020.15L340.363,4020.6L340.232,4021.06L340.101,4021.52L339.972,4021.97L339.845,4022.43L339.717,4022.89L339.592,4023.35L339.467,4023.81L339.344,4024.27L339.224,4024.72L339.103,4025.19L338.983,4025.65L338.865,4026.11L338.749,4026.57L338.633,4027.04L338.519,4027.5L338.406,4027.96L338.294,4028.43L338.183,4028.89L338.074,4029.36L337.966,4029.82L337.859,4030.29L337.753,4030.76L337.649,4031.23L337.546,4031.69L337.444,4032.16L337.343,4032.63L337.245,4033.1L337.145,4033.57L337.048,4034.04L336.953,4034.51L336.858,4034.98L336.765,4035.45L336.673,4035.93L336.582,4036.4L336.492,4036.87L336.404,4037.34L336.317,4037.82L336.231,4038.29L336.147,4038.76L336.063,4039.24L335.98,4039.72L335.9,4040.19L335.819,4040.67L335.74,4041.15L335.664,4041.62L335.587,4042.1L335.512,4042.58L335.439,4043.06L335.366,4043.53L335.296,4044.01L335.225,4044.49L335.155,4044.97L335.087,4045.45L335.021,4045.93L334.956,4046.41L334.892,4046.89L334.829,4047.37L334.767,4047.86L334.706,4048.34L334.647,4048.82L334.589,4049.3L334.533,4049.78L334.476,4050.27L334.422,4050.75L334.369,4051.23L334.317,4051.71L334.266,4052.2L334.216,4052.68L334.168,4053.17L334.12,4053.65L334.074,4054.14L334.029,4054.62L333.986,4055.11L333.942,4055.6L333.901,4056.08L333.861,4056.57L333.822,4057.05L333.784,4057.54L333.747,4058.03L333.712,4058.52L333.677,4059L333.645,4059.49L333.613,4059.98L333.581,4060.47L333.552,4060.95L333.523,4061.44L333.496,4061.93L333.47,4062.42L333.445,4062.91L333.421,4063.4L333.399,4063.89L333.377,4064.38L333.357,4064.87L333.338,4065.36L333.32,4065.85L333.303,4066.34L333.288,4066.83L333.274,4067.32L333.26,4067.81L333.248,4068.3L333.237,4068.79L333.227,4069.28L333.218,4069.77L333.211,4070.26L333.205,4070.76L333.199,4071.24L333.196,4071.73L333.193,4072.23L333.191,4072.72L333.19,4073.21L333.191,4073.7L333.193,4074.19L333.196,4074.69L333.199,4075.18L333.204,4075.67L333.21,4076.16L333.218,4076.65L333.227,4077.15L333.236,4077.64L333.259,4078.62L333.272,4079.11L333.286,4079.61L333.302,4080.1L333.318,4080.59L333.336,4081.08L333.355,4081.58L333.374,4082.07L333.396,4082.56L333.418,4083.06L333.441,4083.55L333.465,4084.03L333.491,4084.53L333.517,4085.02L333.545,4085.51L333.574,4086L333.604,4086.5L333.635,4086.99L333.667,4087.48L333.7,4087.97L333.735,4088.46L333.771,4088.96L333.808,4089.45L333.845,4089.94L333.884,4090.43L333.924,4090.92L333.965,4091.41L334.008,4091.91L334.051,4092.4L334.095,4092.89L334.14,4093.38L334.187,4093.87L334.236,4094.36L334.283,4094.85L334.334,4095.34L334.384,4095.83L334.437,4096.32L334.49,4096.81L334.544,4097.3L334.6,4097.79L334.656,4098.28L334.713,4098.77L334.772,4099.26L334.833,4099.75L334.893,4100.24L334.954,4100.72L335.018,4101.21L335.082,4101.7L335.146,4102.19L335.281,4103.17L335.348,4103.65L335.418,4104.14L335.489,4104.62L335.56,4105.11L335.633,4105.6L335.707,4106.08L335.781,4106.57L335.858,4107.06L335.934,4107.54L336.013,4108.03L336.091,4108.51L336.172,4108.99L336.253,4109.48L336.335,4109.96L336.419,4110.45L336.502,4110.93L336.675,4111.9L336.762,4112.38L336.851,4112.86L336.94,4113.34L337.031,4113.83L337.124,4114.31L337.216,4114.79L337.309,4115.27L337.404,4115.75L337.501,4116.23L337.597,4116.71L337.696,4117.19L337.794,4117.67L337.895,4118.15L337.995,4118.63L338.098,4119.11L338.201,4119.58L338.305,4120.06L338.411,4120.54L338.517,4121.02L338.623,4121.49L338.732,4121.97L338.842,4122.44L338.952,4122.92L339.064,4123.39L339.176,4123.87L339.289,4124.34L339.404,4124.81L339.52,4125.29L339.636,4125.76L339.753,4126.23L339.873,4126.7L339.992,4127.18L340.112,4127.65L340.235,4128.12L340.357,4128.59L340.479,4129.05L340.604,4129.52L340.731,4129.99L340.857,4130.46L340.985,4130.93L341.114,4131.4L341.243,4131.86L341.373,4132.32L341.506,4132.79L341.639,4133.26L341.771,4133.72L341.906,4134.19L342.042,4134.65L342.178,4135.11L342.316,4135.58L342.454,4136.04L342.594,4136.5L342.735,4136.96L342.877,4137.42L343.019,4137.88L343.162,4138.34L343.308,4138.8L343.452,4139.26L343.599,4139.72L343.747,4140.18L343.894,4140.63L344.043,4141.08L344.195,4141.54L344.346,4141.99L344.498,4142.45L344.652,4142.9L344.806,4143.36L344.961,4143.81L345.118,4144.26L345.274,4144.71L345.432,4145.16L345.591,4145.61L345.751,4146.06L345.913,4146.51L346.076,4146.96L346.238,4147.41L346.399,4147.85L346.566,4148.3L346.732,4148.74L346.897,4149.18L347.064,4149.63L347.234,4150.07L347.404,4150.52L347.574,4150.96L347.745,4151.4L347.919,4151.84L348.091,4152.28L348.265,4152.72L348.44,4153.15L348.617,4153.6L348.793,4154.03L348.971,4154.47L349.15,4154.9L349.33,4155.34L349.511,4155.77L349.693,4156.21L349.874,4156.64L350.059,4157.07L350.242,4157.5L350.427,4157.93L350.613,4158.36L350.802,4158.79L350.99,4159.22L351.179,4159.65L351.368,4160.07L351.558,4160.49L351.751,4160.92L351.943,4161.35L352.138,4161.77L352.333,4162.19L352.525,4162.61L352.723,4163.03L352.921,4163.46L353.117,4163.87L353.317,4164.29L353.517,4164.71L353.717,4165.13L353.918,4165.54L354.122,4165.96L354.326,4166.38L354.528,4166.78L354.734,4167.2L354.941,4167.61L355.147,4168.02L355.356,4168.43L355.563,4168.84L355.773,4169.25L355.984,4169.65L356.194,4170.06L356.408,4170.47L356.621,4170.87L356.833,4171.27L357.049,4171.68L357.265,4172.08L357.481,4172.48L357.7,4172.88L357.917,4173.28L358.135,4173.68L358.356,4174.07L358.578,4174.47L358.8,4174.87L359.021,4175.26L359.244,4175.65L359.467,4176.04L359.694,4176.44L359.92,4176.83L360.146,4177.22L360.375,4177.61L360.604,4178L360.832,4178.38L361.061,4178.77L361.293,4179.15L361.524,4179.53L361.758,4179.92L361.992,4180.3L362.225,4180.68L362.461,4181.06L362.696,4181.44L362.934,4181.82L363.172,4182.19L363.407,4182.56L363.648,4182.94L363.891,4183.32L364.13,4183.69L364.371,4184.06L364.614,4184.43L364.856,4184.8L365.102,4185.17L365.347,4185.53L365.592,4185.9L365.839,4186.26L366.085,4186.62L366.335,4186.99L366.585,4187.35L366.832,4187.71L367.084,4188.07L367.337,4188.43L367.594,4188.8L367.975,4189.41L368.279,4190.07L368.502,4190.76L368.64,4191.47L368.691,4192.19L368.654,4192.92L368.531,4193.63L368.322,4194.33L368.032,4194.99L367.663,4195.61L367.222,4196.19L366.715,4196.7L366.149,4197.16L365.533,4197.54L364.875,4197.84L364.186,4198.07L363.475,4198.2L362.752,4198.26L362.028,4198.22L361.314,4198.1L360.62,4197.89L359.957,4197.6L359.333,4197.23L358.758,4196.79L358.241,4196.28L357.788,4195.71L357.521,4195.34L357.251,4194.95L356.981,4194.56L356.709,4194.17L356.441,4193.78L356.175,4193.39L355.906,4193L355.641,4192.61L355.374,4192.21L355.111,4191.81L354.849,4191.42L354.586,4191.02L354.325,4190.62L354.063,4190.22L353.803,4189.82L353.548,4189.42L353.291,4189.02L353.031,4188.61L352.776,4188.2L352.522,4187.8L352.268,4187.39L352.016,4186.99L351.763,4186.57L351.513,4186.17L351.264,4185.76L351.014,4185.34L350.767,4184.93L350.519,4184.52L350.272,4184.1L350.028,4183.69L349.785,4183.27L349.541,4182.85L349.299,4182.43L349.059,4182.02L348.818,4181.59L348.577,4181.17L348.338,4180.75L348.102,4180.33L347.867,4179.9L347.632,4179.48L347.396,4179.05L347.162,4178.62L346.931,4178.2L346.698,4177.77L346.469,4177.34L346.24,4176.91L346.009,4176.47L345.782,4176.04L345.556,4175.61L345.33,4175.18L345.106,4174.74L344.882,4174.31L344.658,4173.87L344.437,4173.43L344.215,4172.99L343.997,4172.56L343.779,4172.12L343.558,4171.67L343.343,4171.23L343.128,4170.79L342.913,4170.35L342.698,4169.9L342.486,4169.46L342.275,4169.02L342.062,4168.56L341.853,4168.12L341.645,4167.67L341.435,4167.22L341.229,4166.77L341.024,4166.32L340.819,4165.87L340.616,4165.42L340.412,4164.97L340.21,4164.51L340.008,4164.06L339.809,4163.6L339.611,4163.15L339.413,4162.69L339.215,4162.23L339.019,4161.77L338.825,4161.32L338.63,4160.86L338.437,4160.4L338.246,4159.94L338.055,4159.47L337.866,4159.01L337.676,4158.55L337.489,4158.09L337.302,4157.62L337.116,4157.16L336.931,4156.69L336.747,4156.22L336.565,4155.76L336.383,4155.29L336.202,4154.82L336.023,4154.35L335.845,4153.89L335.667,4153.41L335.489,4152.94L335.314,4152.47L335.14,4152L334.965,4151.52L334.792,4151.04L334.622,4150.57L334.453,4150.1L334.282,4149.62L334.114,4149.15L333.946,4148.67L333.78,4148.19L333.615,4147.72L333.451,4147.24L333.288,4146.76L333.126,4146.28L332.964,4145.8L332.804,4145.32L332.646,4144.84L332.487,4144.35L332.329,4143.87L332.174,4143.39L332.019,4142.9L331.865,4142.42L331.713,4141.93L331.561,4141.45L331.41,4140.96L331.261,4140.47L331.113,4139.99L330.965,4139.5L330.818,4139.01L330.673,4138.52L330.528,4138.03L330.386,4137.55L330.243,4137.06L330.101,4136.56L329.962,4136.07L329.824,4135.58L329.684,4135.09L329.547,4134.59L329.413,4134.1L329.277,4133.61L329.144,4133.11L329.012,4132.62L328.88,4132.13L328.748,4131.63L328.619,4131.13L328.491,4130.64L328.364,4130.14L328.238,4129.64L328.113,4129.15L327.988,4128.64L327.865,4128.15L327.744,4127.65L327.623,4127.15L327.503,4126.65L327.384,4126.15L327.267,4125.65L327.15,4125.15L327.036,4124.65L326.921,4124.15L326.807,4123.64L326.695,4123.14L326.585,4122.64L326.474,4122.13L326.366,4121.63L326.257,4121.12L326.151,4120.62L326.045,4120.11L325.941,4119.61L325.837,4119.1L325.735,4118.6L325.635,4118.09L325.534,4117.59L325.435,4117.07L325.337,4116.57L325.241,4116.06L325.145,4115.55L325.051,4115.05L324.957,4114.54L324.864,4114.02L324.774,4113.52L324.683,4113.01L324.594,4112.49L324.507,4111.99L324.42,4111.48L324.335,4110.97L324.25,4110.46L324.167,4109.94L324.084,4109.43L324.003,4108.92L323.923,4108.41L323.845,4107.9L323.767,4107.38L323.69,4106.87L323.614,4106.36L323.54,4105.85L323.467,4105.33L323.394,4104.81L323.324,4104.3L323.254,4103.79L323.185,4103.27L323.118,4102.76L323.052,4102.25L322.986,4101.73L322.922,4101.21L322.86,4100.7L322.798,4100.19L322.736,4099.66L322.677,4099.15L322.619,4098.64L322.561,4098.12L322.506,4097.6L322.45,4097.09L322.397,4096.57L322.344,4096.05L322.293,4095.53L322.243,4095.02L322.193,4094.5L322.145,4093.98L322.098,4093.46L322.053,4092.94L322.008,4092.43L321.964,4091.91L321.923,4091.39L321.881,4090.87L321.841,4090.35L321.803,4089.83L321.766,4089.32L321.729,4088.8L321.694,4088.28L321.66,4087.76L321.627,4087.24L321.596,4086.72L321.565,4086.2L321.535,4085.68L321.508,4085.16L321.481,4084.65L321.455,4084.12L321.43,4083.6L321.407,4083.09L321.385,4082.57L321.364,4082.05L321.344,4081.53L321.326,4081.01L321.308,4080.49L321.292,4079.97L321.277,4079.45L321.263,4078.93L321.251,4078.41L321.239,4077.89L321.229,4077.37L321.22,4076.85L321.212,4076.33L321.205,4075.81L321.2,4075.29L321.196,4074.77L321.193,4074.25L321.191,4073.73L321.19,4073.21L321.191,4072.69L321.193,4072.17L321.196,4071.66L321.2,4071.13L321.206,4070.61L321.212,4070.1L321.22,4069.58L321.229,4069.06L321.239,4068.53L321.251,4068.01L321.264,4067.5L321.278,4066.98L321.293,4066.46L321.31,4065.94L321.328,4065.42L321.347,4064.9L321.367,4064.39L321.388,4063.87L321.411,4063.35L321.435,4062.83L321.46,4062.31L321.486,4061.8L321.514,4061.28L321.543,4060.76L321.573,4060.24L321.605,4059.72L321.638,4059.21L321.671,4058.7L321.706,4058.18L321.743,4057.66L321.78,4057.14L321.819,4056.62L321.859,4056.11L321.901,4055.59L321.943,4055.08L321.987,4054.56L322.033,4054.05L322.079,4053.53L322.127,4053.01L322.176,4052.5L322.226,4051.99L322.277,4051.47L322.33,4050.96L322.384,4050.45L322.44,4049.93L322.496,4049.42L322.554,4048.9L322.613,4048.39L322.673,4047.88L322.735,4047.37L322.799,4046.85L322.863,4046.34L322.929,4045.83L322.995,4045.32L323.063,4044.81L323.132,4044.3L323.203,4043.79L323.276,4043.27L323.35,4042.76L323.423,4042.26L323.499,4041.75L323.577,4041.24L323.655,4040.73L323.735,4040.22L323.816,4039.71L323.899,4039.2L323.983,4038.7L324.067,4038.19L324.154,4037.68L324.242,4037.18L324.33,4036.68L324.42,4036.17L324.512,4035.66L324.605,4035.16L324.699,4034.65L324.795,4034.14L324.892,4033.64L324.99,4033.14L325.09,4032.64L325.19,4032.14L325.293,4031.63L325.397,4031.13L325.501,4030.63L325.607,4030.13L325.715,4029.63L325.823,4029.13L325.934,4028.63L326.046,4028.12L326.158,4027.63L326.272,4027.13L326.388,4026.63L326.505,4026.13L326.623,4025.64L326.742,4025.14L326.863,4024.64L326.986,4024.15L327.109,4023.65L327.234,4023.16L327.362,4022.66L327.489,4022.17L327.617,4021.68L327.748,4021.18L327.88,4020.69L328.013,4020.2L328.148,4019.7L328.283,4019.22L328.42,4018.72L328.56,4018.23L328.699,4017.74L328.841,4017.25L328.983,4016.77L329.127,4016.28L329.273,4015.79L329.419,4015.31L329.568,4014.82L329.717,4014.33L329.868,4013.85L330.021,4013.36L330.174,4012.88L330.33,4012.39L330.485,4011.91L330.643,4011.43L330.803,4010.95L330.963,4010.47L331.126,4009.99L331.29,4009.5L331.455,4009.02L331.621,4008.55L331.789,4008.07L331.959,4007.59L332.128,4007.11L332.301,4006.64L332.473,4006.16L332.648,4005.69L332.825,4005.21L333.001,4004.74L333.18,4004.27L333.361,4003.79L333.544,4003.32L333.726,4002.85L333.911,4002.38L334.098,4001.91L334.284,4001.44L334.473,4000.97L334.664,4000.5L334.857,4000.04L335.049,3999.57L335.242,3999.11L335.44,3998.64L335.638,3998.17L335.836,3997.71L336.037,3997.25L336.239,3996.79L336.441,3996.33L336.646,3995.87L336.853,3995.4L337.059,3994.95L337.27,3994.49L337.481,3994.03L337.69,3993.58L337.904,3993.12L338.121,3992.66L338.336,3992.21L338.554,3991.75L338.773,3991.3L338.995,3990.85L339.218,3990.39L339.44,3989.95L339.665,3989.49L339.89,3989.05L340.118,3988.6L340.35,3988.15L340.58,3987.7L340.812,3987.26L341.047,3986.81L341.281,3986.37L341.519,3985.92L341.759,3985.48L341.997,3985.04L342.238,3984.6L342.482,3984.16L342.725,3983.72L342.97,3983.28L343.219,3982.84L343.467,3982.41L343.717,3981.97L343.97,3981.54L344.221,3981.11L344.478,3980.67L344.735,3980.24L344.991,3979.81L345.251,3979.38L345.511,3978.95L345.773,3978.52L346.037,3978.09L346.303,3977.67L346.568,3977.24L346.836,3976.82L347.108,3976.39L347.378,3975.97L347.651,3975.55L347.925,3975.13L348.201,3974.71L348.479,3974.29L348.758,3973.87L349.038,3973.45L349.319,3973.04L349.604,3972.62L349.889,3972.21L350.174,3971.8L350.462,3971.39L350.753,3970.97L351.046,3970.56L351.336,3970.16L351.63,3969.75L351.926,3969.34L352.223,3968.94L352.522,3968.53L352.822,3968.13L353.124,3967.73L353.428,3967.33L353.733,3966.93L354.039,3966.53L354.347,3966.13L354.657,3965.73L354.969,3965.33L355.281,3964.94L355.593,3964.55L355.908,3964.16L356.227,3963.76L356.546,3963.37L356.867,3962.98L357.189,3962.59L357.512,3962.21L357.837,3961.82L358.165,3961.44L358.493,3961.05L358.822,3960.67L359.153,3960.29L359.486,3959.91L359.821,3959.53L360.157,3959.15L360.494,3958.78L360.832,3958.4L361.173,3958.03L361.515,3957.65L361.86,3957.28L362.207,3956.91L362.554,3956.54L362.9,3956.17L363.253,3955.81L363.604,3955.44L363.954,3955.08L364.311,3954.71L364.663,3954.36L365.202,3953.87L365.795,3953.46L366.435,3953.12L367.11,3952.85L367.812,3952.68L368.531,3952.58L369.256,3952.58L369.975,3952.66Z" style="fill:rgb(45,135,180);"/>
                    </g>
                    <g transform="matrix(1,0,0,1,5901.87,-3540)">
                        <path d="M370.217,3950.42L370.503,3950.44L370.787,3950.47L371.069,3950.51L371.348,3950.57L371.625,3950.64L371.898,3950.72L372.167,3950.82L372.431,3950.93L372.689,3951.05L372.942,3951.19L373.187,3951.33L373.426,3951.49L373.656,3951.66L373.879,3951.84L374.092,3952.03L374.297,3952.22L374.492,3952.43L374.676,3952.65L374.85,3952.88L375.013,3953.11L375.165,3953.36L375.304,3953.6L375.432,3953.86L375.548,3954.12L375.651,3954.39L375.741,3954.66L375.819,3954.93L375.883,3955.21L375.934,3955.49L375.971,3955.78L375.995,3956.06L376.005,3956.35L376.002,3956.63L375.985,3956.91L375.955,3957.2L375.911,3957.48L375.853,3957.76L375.783,3958.04L375.699,3958.31L375.603,3958.58L375.494,3958.84L375.372,3959.1L375.238,3959.35L375.092,3959.6L374.935,3959.84L374.767,3960.07L374.588,3960.29L374.398,3960.51L374.199,3960.71L373.99,3960.9L373.772,3961.09L373.546,3961.26L373.311,3961.43L373.069,3961.58L372.82,3961.72L372.565,3961.85L372.304,3961.96L372.037,3962.06L371.766,3962.15L371.492,3962.23L371.213,3962.3L370.932,3962.35L370.649,3962.38L370.365,3962.41L370.122,3962.42L370.103,3962.42L370.055,3962.43L369.998,3962.44L369.94,3962.46L369.864,3962.48L369.78,3962.5L369.678,3962.53L369.577,3962.56L369.467,3962.59L369.197,3962.68L368.904,3962.77L368.736,3962.82L368.566,3962.87L368.383,3962.92L368.191,3962.97L367.988,3963.03L367.768,3963.09L367.54,3963.14L367.312,3963.2L367.064,3963.25L366.815,3963.3L366.665,3963.32L366.54,3963.34L366.398,3963.37L366.247,3963.39L365.946,3963.43L365.64,3963.47L365.338,3963.5L365.047,3963.53L364.756,3963.56L364.464,3963.59L364.182,3963.62L363.901,3963.64L363.625,3963.66L363.353,3963.68L362.824,3963.73L362.307,3963.77L361.806,3963.8L361.319,3963.84L361.087,3963.86L360.851,3963.88L360.626,3963.9L360.4,3963.93L360.175,3963.95L359.965,3963.97L359.754,3963.99L359.539,3964.02L359.334,3964.05L359.138,3964.08L358.938,3964.11L358.742,3964.14L358.551,3964.17L358.463,3964.19L358.367,3964.2L358.223,3964.23L358.078,3964.26L357.941,3964.29L357.788,3964.32L357.637,3964.35L357.499,3964.38L357.349,3964.41L357.201,3964.45L356.901,3964.52L356.6,3964.59L356.294,3964.67L355.982,3964.75L355.671,3964.83L355.358,3964.91L355.044,3965L354.722,3965.09L354.397,3965.18L354.074,3965.27L353.405,3965.47L352.726,3965.66L352.037,3965.87L351.339,3966.07L350.977,3966.17L350.616,3966.28L350.254,3966.38L349.885,3966.48L349.509,3966.58L349.136,3966.68L348.758,3966.78L348.373,3966.88L347.983,3966.97L347.595,3967.06L347.318,3967.13L347.047,3967.19L346.776,3967.25L346.504,3967.31L346.243,3967.36L345.976,3967.42L345.458,3967.53L344.947,3967.63L344.444,3967.73L343.955,3967.83L343.475,3967.92L343.001,3968.02L342.537,3968.12L342.314,3968.16L342.089,3968.21L341.868,3968.26L341.644,3968.31L341.428,3968.36L341.212,3968.41L341.003,3968.46L340.793,3968.51L340.582,3968.57L340.383,3968.62L340.178,3968.68L339.953,3968.74L339.776,3968.79L339.575,3968.84L339.367,3968.9L339.161,3968.95L338.966,3969L338.754,3969.05L338.535,3969.1L338.334,3969.15L338.119,3969.2L337.898,3969.25L337.683,3969.29L337.472,3969.34L337.255,3969.38L337.03,3969.42L336.814,3969.46L336.536,3969.51L336.261,3969.55L335.96,3969.58L335.653,3969.6L335.314,3969.6L334.974,3969.59L334.635,3969.56L334.271,3969.5L333.867,3969.42L333.52,3969.33L333.174,3969.22L332.811,3969.07L332.51,3968.93L332.127,3968.74L331.815,3968.54L331.519,3968.34L331.185,3968.07L330.955,3967.87L330.679,3967.6L330.462,3967.35L330.251,3967.1L329.994,3966.74L329.856,3966.51L329.684,3966.22L329.456,3965.75L329.36,3965.5L329.28,3965.27L329.208,3965.05L329.146,3964.82L329.144,3964.81L329.088,3964.56L329.043,3964.32L329.007,3964.07L328.983,3963.82L328.982,3963.81L328.969,3963.57L328.965,3963.33L328.97,3963.09L328.986,3962.85L329.011,3962.61L329.011,3962.6L329.052,3962.33L329.106,3962.06L329.172,3961.79L329.25,3961.52L329.34,3961.26L329.443,3961L329.557,3960.75L329.683,3960.5L329.82,3960.26L329.821,3960.26L329.973,3960.02L330.136,3959.79L330.309,3959.56L330.493,3959.35L330.686,3959.14L330.89,3958.94L331.102,3958.75L331.323,3958.58L331.552,3958.41L331.789,3958.25L332.032,3958.11L332.283,3957.98L332.539,3957.86L332.801,3957.75L333.067,3957.65L333.338,3957.57L333.613,3957.5L333.89,3957.44L334.17,3957.4L334.451,3957.37L334.734,3957.35L335.017,3957.34L335.301,3957.35L335.583,3957.38L335.845,3957.41L335.899,3957.4L336.034,3957.36L336.185,3957.32L336.324,3957.29L336.459,3957.25L336.599,3957.21L336.761,3957.17L337.026,3957.1L337.309,3957.02L337.601,3956.94L337.88,3956.87L338.159,3956.8L338.441,3956.74L338.717,3956.67L338.992,3956.61L339.258,3956.55L339.529,3956.49L339.796,3956.43L340.065,3956.37L340.584,3956.27L341.095,3956.16L341.601,3956.06L342.097,3955.96L342.581,3955.87L343.056,3955.77L343.524,3955.67L343.751,3955.62L343.983,3955.58L344.204,3955.53L344.426,3955.48L344.648,3955.43L344.865,3955.38L345.17,3955.31L345.471,3955.23L345.776,3955.16L346.088,3955.07L346.403,3954.99L346.715,3954.91L347.034,3954.82L347.358,3954.73L347.683,3954.63L348.007,3954.54L348.68,3954.35L349.362,3954.15L350.054,3953.94L350.755,3953.74L351.118,3953.64L351.48,3953.54L351.845,3953.43L352.218,3953.33L352.594,3953.23L352.971,3953.13L353.349,3953.04L353.734,3952.94L354.125,3952.84L354.518,3952.75L354.717,3952.71L354.913,3952.66L355.124,3952.62L355.321,3952.58L355.516,3952.54L355.727,3952.49L355.932,3952.45L356.136,3952.41L356.296,3952.38L356.463,3952.35L356.784,3952.3L357.098,3952.25L357.409,3952.2L357.724,3952.16L358.03,3952.12L358.326,3952.08L358.627,3952.05L358.928,3952.01L359.214,3951.98L359.501,3951.95L359.787,3951.93L360.063,3951.91L360.342,3951.88L360.879,3951.84L361.401,3951.8L361.908,3951.76L362.402,3951.72L362.643,3951.7L362.878,3951.68L363.11,3951.66L363.34,3951.64L363.561,3951.62L363.782,3951.6L364.003,3951.57L364.214,3951.55L364.42,3951.52L364.627,3951.5L364.641,3951.49L364.676,3951.49L364.715,3951.48L364.773,3951.47L364.832,3951.45L364.898,3951.43L364.981,3951.41L365.075,3951.39L365.177,3951.36L365.293,3951.32L365.41,3951.29L365.687,3951.2L365.986,3951.11L366.161,3951.06L366.344,3951L366.528,3950.95L366.728,3950.9L366.937,3950.84L367.164,3950.78L367.391,3950.73L367.628,3950.68L367.873,3950.63L368.025,3950.6L368.167,3950.58L368.291,3950.56L368.436,3950.53L368.577,3950.51L368.72,3950.5L368.884,3950.48L369.026,3950.46L369.17,3950.45L369.334,3950.44L369.516,3950.43L369.679,3950.42L369.824,3950.42L369.932,3950.42L370.217,3950.42ZM340.972,3963.27L340.968,3963.56L340.953,3963.81L340.993,3963.49L340.967,3963.16L340.972,3963.27ZM340.9,3962.42L340.926,3962.61L340.909,3962.39L340.859,3962.19L340.9,3962.42ZM340.706,3961.58L340.701,3961.56L340.689,3961.53L340.706,3961.58Z" style="fill:rgb(45,135,180);"/>
                    </g>
                    <g transform="matrix(1,0,0,1,5901.87,-3540)">
                        <path d="M372.424,3950.84L372.707,3950.86L372.989,3950.89L373.268,3950.94L373.545,3951L373.819,3951.07L374.089,3951.16L374.355,3951.26L374.616,3951.37L374.871,3951.49L375.121,3951.62L375.363,3951.77L375.599,3951.93L375.826,3952.1L376.046,3952.28L376.049,3952.28L376.253,3952.46L376.449,3952.65L376.635,3952.86L376.812,3953.06L376.979,3953.28L377.137,3953.51L377.14,3953.51L377.252,3953.69L377.358,3953.86L377.458,3954.05L377.462,3954.05L377.568,3954.26L377.664,3954.48L377.753,3954.7L377.811,3954.85L377.911,3955.15L377.98,3955.4L378.023,3955.57L378.056,3955.71L378.087,3955.85L378.135,3956.07L378.184,3956.31L378.231,3956.56L378.319,3957.02L378.397,3957.44L378.457,3957.76L378.476,3957.86L378.486,3957.92L378.527,3958.12L378.578,3958.38L378.624,3958.64L378.667,3958.89L378.707,3959.15L378.745,3959.41L378.779,3959.66L378.81,3959.92L378.838,3960.16L378.865,3960.42L378.889,3960.67L378.91,3960.91L378.93,3961.16L378.947,3961.4L378.962,3961.64L378.975,3961.88L378.987,3962.13L378.996,3962.36L379.004,3962.59L379.01,3962.83L379.015,3963.07L379.019,3963.3L379.021,3963.52L379.022,3963.75L379.022,3963.98L379.02,3964.2L379.018,3964.42L379.015,3964.64L379.011,3964.86L379.006,3965.08L378.994,3965.49L378.954,3966.75L378.911,3968.01L378.867,3969.25L378.819,3970.5L378.77,3971.75L378.717,3973L378.663,3974.24L378.605,3975.49L378.545,3976.74L378.482,3977.99L378.416,3979.23L378.347,3980.48L378.311,3981.1L378.275,3981.73L378.237,3982.35L378.199,3982.97L378.16,3983.6L378.121,3984.22L378.08,3984.85L378.038,3985.49L378.019,3985.75L377.996,3986.02L377.972,3986.28L377.944,3986.55L377.915,3986.81L377.885,3987.06L377.852,3987.32L377.818,3987.56L377.784,3987.8L377.748,3988.04L377.712,3988.27L377.674,3988.51L377.601,3988.95L377.527,3989.38L377.385,3990.2L377.32,3990.58L377.258,3990.95L377.229,3991.13L377.201,3991.31L377.175,3991.48L377.152,3991.64L377.129,3991.8L377.108,3991.96L377.115,3992.2L377.124,3992.51L377.131,3992.86L377.134,3993.05L377.136,3993.25L377.135,3993.46L377.133,3993.68L377.127,3993.9L377.118,3994.14L377.104,3994.38L377.09,3994.56L377.078,3994.69L377.061,3994.85L377.039,3995.02L377.013,3995.21L376.971,3995.44L376.93,3995.64L376.86,3995.94L376.756,3996.28L376.626,3996.65L376.531,3996.87L376.414,3997.13L376.285,3997.37L376.272,3997.4L376.154,3997.6L376.028,3997.8L375.895,3998L375.793,3998.14L375.536,3998.46L375.368,3998.64L375.169,3998.84L374.961,3999.04L374.953,3999.04L374.725,3999.24L374.488,3999.41L374.242,3999.58L374.014,3999.73L373.774,3999.86L373.567,3999.96L373.356,4000.06L373.141,4000.15L373.133,4000.15L372.891,4000.24L372.646,4000.32L372.398,4000.38L372.147,4000.44L371.894,4000.48L371.885,4000.49L371.679,4000.51L371.472,4000.54L371.265,4000.55L371.256,4000.55L371.02,4000.56L370.783,4000.56L370.548,4000.55L370.312,4000.53L370.303,4000.53L370.048,4000.49L369.794,4000.45L369.542,4000.39L369.532,4000.39L369.248,4000.32L368.968,4000.23L368.693,4000.13L368.452,4000.03L368.218,3999.91L368.036,3999.82L367.856,3999.72L367.68,3999.61L367.566,3999.54L367.454,3999.46L367.24,3999.3L367.034,3999.14L366.835,3998.96L366.77,3998.91L366.574,3998.72L366.335,3998.46L366.173,3998.26L366.018,3998.07L365.8,3997.76L365.606,3997.45L365.466,3997.2L365.393,3997.06L365.261,3996.79L365.143,3996.51L365.039,3996.23L364.949,3995.95L364.873,3995.66L364.812,3995.37L364.766,3995.07L364.734,3994.77L364.717,3994.47L364.715,3994.18L364.728,3993.88L364.756,3993.58L364.798,3993.28L364.856,3992.99L364.928,3992.7L365.014,3992.41L365.109,3992.15L365.105,3991.99L365.104,3991.84L365.103,3991.67L365.108,3991.41L365.122,3991.18L365.139,3990.99L365.173,3990.69L365.206,3990.44L365.237,3990.2L365.27,3989.95L365.306,3989.71L365.342,3989.47L365.378,3989.24L365.414,3989.02L365.487,3988.58L365.561,3988.15L365.702,3987.34L365.768,3986.96L365.829,3986.59L365.857,3986.41L365.884,3986.24L365.91,3986.07L365.934,3985.89L365.957,3985.73L365.977,3985.57L365.997,3985.41L366.014,3985.26L366.029,3985.11L366.043,3984.96L366.056,3984.82L366.067,3984.66L366.106,3984.07L366.145,3983.46L366.184,3982.85L366.222,3982.24L366.259,3981.63L366.295,3981.02L366.331,3980.41L366.366,3979.8L366.433,3978.58L366.498,3977.36L366.56,3976.14L366.618,3974.93L366.675,3973.7L366.729,3972.48L366.78,3971.26L366.828,3970.04L366.875,3968.81L366.919,3967.59L366.961,3966.36L367,3965.13L367.01,3964.78L367.013,3964.61L367.017,3964.44L367.019,3964.28L367.021,3964.1L367.022,3963.94L367.022,3963.78L367.021,3963.61L367.02,3963.44L367.017,3963.28L367.014,3963.12L367.01,3962.97L367.004,3962.81L366.998,3962.65L366.991,3962.5L366.982,3962.35L366.973,3962.19L366.963,3962.05L366.951,3961.9L366.938,3961.75L366.925,3961.62L366.911,3961.48L366.894,3961.34L366.877,3961.2L366.86,3961.07L366.841,3960.94L366.822,3960.82L366.8,3960.69L366.778,3960.56L366.756,3960.45L366.72,3960.27L366.696,3960.15L366.665,3959.99L366.598,3959.63L366.523,3959.22L366.447,3958.82L366.443,3958.8L366.44,3958.79L366.352,3958.5L366.279,3958.21L366.22,3957.92L366.176,3957.62L366.147,3957.33L366.133,3957.03L366.133,3956.73L366.134,3956.69L366.148,3956.42L366.175,3956.14L366.176,3956.13L366.207,3955.91L366.246,3955.69L366.293,3955.47L366.295,3955.46L366.362,3955.2L366.441,3954.95L366.53,3954.7L366.632,3954.45L366.744,3954.2L366.866,3953.97L367,3953.73L367.143,3953.51L367.146,3953.5L367.316,3953.26L367.498,3953.03L367.691,3952.8L367.896,3952.59L368.11,3952.39L368.334,3952.19L368.568,3952.01L368.81,3951.84L368.811,3951.84L369.06,3951.68L369.316,3951.54L369.579,3951.41L369.847,3951.29L370.122,3951.18L370.401,3951.09L370.684,3951.01L370.971,3950.95L371.261,3950.9L371.553,3950.86L371.846,3950.84L372.14,3950.83L372.141,3950.83L372.424,3950.84ZM376.035,3991.51L376.02,3991.49L375.963,3991.38L376.035,3991.51ZM367.611,3960.85L367.67,3960.9L367.624,3960.85L367.563,3960.78L367.611,3960.85ZM378.038,3957.95L378.034,3957.96L378.051,3957.89L378.069,3957.74L378.038,3957.95ZM378.113,3957.35L378.101,3957.48L378.122,3957.3L378.129,3957.05L378.113,3957.35Z" style="fill:rgb(45,135,180);"/>
                    </g>
                </g>
                <g transform="matrix(1,0,0,1,-229.754,-4.54747e-13)">
                    <g transform="matrix(1,0,0,1,5901.87,-3540)">
                        <path d="M372.874,3700.23L373.555,3700.38L374.214,3700.61L374.842,3700.92L375.429,3701.29L375.969,3701.73L376.455,3702.24L376.878,3702.79L377.235,3703.39L377.519,3704.03L377.728,3704.69L377.858,3705.38L377.907,3706.07L377.876,3706.77L377.763,3707.46L377.572,3708.13L377.304,3708.77L376.962,3709.38L376.553,3709.95L376.081,3710.46L375.8,3710.73L375.53,3711L375.261,3711.26L374.993,3711.53L374.724,3711.8L374.456,3712.07L374.193,3712.34L373.928,3712.61L373.663,3712.89L373.4,3713.17L373.135,3713.45L372.874,3713.73L372.616,3714.01L372.355,3714.29L372.095,3714.58L371.838,3714.86L371.578,3715.15L371.321,3715.44L371.067,3715.73L370.813,3716.02L370.558,3716.32L370.305,3716.62L370.053,3716.91L369.801,3717.21L369.549,3717.51L369.3,3717.82L369.051,3718.12L368.803,3718.43L368.556,3718.73L368.309,3719.04L368.063,3719.35L367.82,3719.66L367.576,3719.97L367.332,3720.29L367.092,3720.6L366.848,3720.93L366.607,3721.24L366.37,3721.56L366.132,3721.88L365.894,3722.21L365.657,3722.53L365.419,3722.86L365.186,3723.19L364.952,3723.52L364.718,3723.85L364.489,3724.18L364.255,3724.51L364.024,3724.85L363.794,3725.19L363.565,3725.52L363.339,3725.86L363.112,3726.2L362.887,3726.54L362.662,3726.89L362.435,3727.24L362.213,3727.58L361.993,3727.92L361.77,3728.28L361.549,3728.62L361.329,3728.98L361.11,3729.33L360.894,3729.68L360.677,3730.04L360.461,3730.39L360.246,3730.75L360.032,3731.11L359.819,3731.47L359.606,3731.84L359.397,3732.2L359.187,3732.56L358.975,3732.93L358.768,3733.3L358.561,3733.66L358.354,3734.03L358.151,3734.4L357.943,3734.78L357.739,3735.15L357.538,3735.52L357.337,3735.9L357.136,3736.27L356.936,3736.65L356.736,3737.03L356.538,3737.41L356.341,3737.8L356.147,3738.17L355.951,3738.56L355.757,3738.95L355.564,3739.33L355.371,3739.72L355.182,3740.1L354.991,3740.49L354.802,3740.89L354.614,3741.28L354.426,3741.67L354.24,3742.07L354.054,3742.46L353.871,3742.86L353.688,3743.25L353.505,3743.65L353.325,3744.05L353.145,3744.45L352.963,3744.86L352.784,3745.26L352.608,3745.66L352.433,3746.06L352.258,3746.47L352.082,3746.88L351.908,3747.29L351.736,3747.69L351.566,3748.1L351.396,3748.51L351.225,3748.93L351.056,3749.34L350.89,3749.75L350.725,3750.16L350.559,3750.58L350.393,3751L350.231,3751.41L350.07,3751.83L349.907,3752.25L349.746,3752.67L349.588,3753.09L349.429,3753.51L349.272,3753.94L349.116,3754.36L348.961,3754.78L348.807,3755.21L348.653,3755.64L348.501,3756.06L348.351,3756.49L348.2,3756.92L348.051,3757.35L347.904,3757.78L347.757,3758.21L347.61,3758.64L347.465,3759.08L347.321,3759.51L347.179,3759.94L347.037,3760.38L346.896,3760.82L346.757,3761.25L346.618,3761.69L346.48,3762.13L346.345,3762.56L346.209,3763.01L346.074,3763.45L345.94,3763.89L345.807,3764.33L345.677,3764.77L345.546,3765.22L345.416,3765.66L345.289,3766.1L345.162,3766.55L345.035,3767L344.911,3767.44L344.787,3767.89L344.664,3768.34L344.542,3768.79L344.422,3769.24L344.301,3769.69L344.182,3770.14L344.064,3770.59L343.948,3771.04L343.834,3771.49L343.719,3771.95L343.605,3772.4L343.493,3772.86L343.381,3773.31L343.271,3773.77L343.162,3774.22L343.054,3774.68L342.947,3775.14L342.842,3775.59L342.737,3776.05L342.633,3776.51L342.53,3776.97L342.428,3777.43L342.328,3777.89L342.229,3778.36L342.13,3778.82L342.033,3779.28L341.936,3779.74L341.842,3780.2L341.748,3780.67L341.655,3781.13L341.564,3781.59L341.472,3782.06L341.382,3782.53L341.293,3782.99L341.206,3783.46L341.12,3783.92L341.035,3784.39L340.95,3784.86L340.867,3785.32L340.785,3785.79L340.705,3786.26L340.625,3786.73L340.545,3787.2L340.469,3787.67L340.392,3788.14L340.316,3788.61L340.241,3789.08L340.168,3789.55L340.096,3790.02L340.025,3790.49L339.955,3790.97L339.886,3791.44L339.819,3791.91L339.752,3792.38L339.687,3792.86L339.622,3793.33L339.558,3793.81L339.496,3794.28L339.435,3794.75L339.375,3795.22L339.316,3795.7L339.258,3796.17L339.202,3796.65L339.147,3797.12L339.092,3797.6L339.038,3798.08L338.986,3798.55L338.935,3799.03L338.885,3799.5L338.836,3799.98L338.788,3800.46L338.742,3800.93L338.696,3801.41L338.652,3801.88L338.609,3802.36L338.567,3802.84L338.525,3803.32L338.485,3803.8L338.446,3804.27L338.409,3804.75L338.372,3805.23L338.337,3805.71L338.303,3806.19L338.27,3806.66L338.238,3807.14L338.206,3807.62L338.176,3808.1L338.148,3808.58L338.121,3809.06L338.094,3809.54L338.069,3810.01L338.045,3810.49L338.022,3810.97L338,3811.45L337.979,3811.93L337.959,3812.4L337.941,3812.88L337.924,3813.36L337.907,3813.84L337.892,3814.32L337.878,3814.8L337.866,3815.27L337.854,3815.75L337.844,3816.23L337.834,3816.71L337.826,3817.18L337.819,3817.66L337.813,3818.14L337.808,3818.62L337.805,3819.1L337.802,3819.58L337.801,3820.06L337.8,3820.53L337.801,3821.01L337.803,3821.49L337.807,3821.96L337.811,3822.44L337.816,3822.91L337.823,3823.39L337.831,3823.87L337.84,3824.34L337.85,3824.82L337.861,3825.3L337.873,3825.77L337.887,3826.25L337.901,3826.72L337.918,3827.19L337.935,3827.67L337.953,3828.14L337.972,3828.62L337.992,3829.09L338.014,3829.56L338.037,3830.03L338.061,3830.51L338.086,3830.98L338.112,3831.45L338.14,3831.93L338.168,3832.4L338.198,3832.87L338.228,3833.34L338.261,3833.81L338.294,3834.28L338.328,3834.75L338.364,3835.22L338.4,3835.69L338.438,3836.15L338.478,3836.62L338.518,3837.09L338.559,3837.56L338.602,3838.03L338.645,3838.49L338.69,3838.96L338.736,3839.43L338.783,3839.89L338.831,3840.36L338.881,3840.83L338.931,3841.29L338.983,3841.75L339.036,3842.21L339.09,3842.68L339.146,3843.14L339.202,3843.6L339.259,3844.06L339.318,3844.52L339.379,3844.99L339.439,3845.44L339.502,3845.9L339.566,3846.36L339.631,3846.82L339.696,3847.28L339.763,3847.74L339.831,3848.19L339.9,3848.64L339.972,3849.11L340.043,3849.56L340.115,3850.01L340.189,3850.47L340.265,3850.92L340.341,3851.37L340.418,3851.83L340.497,3852.28L340.577,3852.73L340.659,3853.18L340.74,3853.62L340.823,3854.07L340.909,3854.53L340.994,3854.97L341.08,3855.41L341.169,3855.86L341.259,3856.31L341.349,3856.76L341.44,3857.2L341.533,3857.64L341.627,3858.09L341.722,3858.53L341.818,3858.97L341.916,3859.41L342.015,3859.85L342.114,3860.29L342.216,3860.73L342.317,3861.16L342.421,3861.6L342.526,3862.04L342.63,3862.47L342.738,3862.91L342.846,3863.34L342.955,3863.77L343.066,3864.2L343.177,3864.64L343.29,3865.06L343.404,3865.5L343.519,3865.92L343.635,3866.35L343.754,3866.78L343.871,3867.21L343.991,3867.63L344.112,3868.05L344.234,3868.48L344.358,3868.9L344.482,3869.32L344.609,3869.74L344.735,3870.16L344.863,3870.58L344.992,3871L345.122,3871.42L345.255,3871.84L345.387,3872.25L345.52,3872.66L345.655,3873.08L345.793,3873.49L345.929,3873.9L346.068,3874.31L346.207,3874.72L346.348,3875.13L346.491,3875.54L346.634,3875.94L346.778,3876.35L346.925,3876.76L347.071,3877.16L347.219,3877.56L347.368,3877.96L347.518,3878.36L347.67,3878.76L347.823,3879.16L347.976,3879.55L348.131,3879.95L348.287,3880.34L348.444,3880.74L348.604,3881.13L348.763,3881.52L348.924,3881.91L349.087,3882.31L349.248,3882.69L349.413,3883.08L349.579,3883.46L349.746,3883.85L349.915,3884.23L350.083,3884.62L350.252,3884.99L350.424,3885.38L350.596,3885.76L350.77,3886.13L350.946,3886.51L351.121,3886.89L351.297,3887.26L351.475,3887.63L351.656,3888L351.838,3888.38L352.019,3888.75L352.2,3889.11L352.384,3889.48L352.571,3889.85L352.757,3890.21L352.945,3890.57L353.135,3890.94L353.323,3891.29L353.514,3891.65L353.707,3892.01L353.9,3892.37L354.095,3892.72L354.29,3893.08L354.486,3893.43L354.687,3893.78L354.885,3894.14L355.083,3894.48L355.287,3894.83L355.489,3895.18L355.692,3895.52L355.896,3895.86L356.103,3896.21L356.312,3896.55L356.517,3896.88L356.727,3897.22L356.939,3897.56L357.151,3897.9L357.364,3898.23L357.578,3898.56L357.793,3898.89L358.009,3899.22L358.226,3899.55L358.446,3899.88L358.666,3900.2L358.885,3900.53L359.11,3900.85L359.332,3901.17L359.556,3901.49L359.781,3901.81L360.008,3902.12L360.235,3902.44L360.464,3902.75L360.694,3903.06L360.925,3903.38L361.159,3903.69L361.392,3903.99L361.625,3904.3L361.861,3904.6L362.099,3904.91L362.337,3905.21L362.576,3905.51L362.816,3905.81L363.058,3906.1L363.3,3906.4L363.544,3906.69L363.788,3906.99L364.034,3907.28L364.282,3907.57L364.529,3907.85L364.779,3908.14L365.029,3908.42L365.28,3908.7L365.537,3908.99L365.79,3909.27L366.042,3909.55L366.298,3909.82L366.555,3910.1L366.817,3910.37L367.076,3910.64L367.334,3910.91L367.598,3911.18L367.861,3911.45L368.123,3911.71L368.388,3911.97L368.657,3912.24L368.924,3912.5L369.191,3912.76L369.464,3913.02L369.734,3913.27L370.003,3913.52L370.279,3913.78L370.554,3914.03L370.826,3914.27L371.104,3914.52L371.383,3914.77L371.661,3915.01L371.94,3915.25L372.225,3915.49L372.522,3915.75L373.028,3916.23L373.474,3916.76L373.855,3917.35L374.165,3917.97L374.401,3918.63L374.559,3919.31L374.637,3920L374.634,3920.7L374.55,3921.39L374.386,3922.07L374.145,3922.73L373.829,3923.35L373.443,3923.93L372.992,3924.46L372.483,3924.94L371.921,3925.35L371.316,3925.7L370.674,3925.97L370.004,3926.17L369.317,3926.29L368.62,3926.33L367.924,3926.28L367.237,3926.16L366.57,3925.95L365.93,3925.68L365.327,3925.33L364.769,3924.91L364.453,3924.64L364.124,3924.36L363.792,3924.07L363.464,3923.78L363.138,3923.5L362.814,3923.21L362.486,3922.91L362.165,3922.62L361.847,3922.33L361.524,3922.02L361.207,3921.72L360.894,3921.43L360.577,3921.12L360.264,3920.82L359.955,3920.51L359.645,3920.2L359.334,3919.89L359.027,3919.58L358.724,3919.27L358.417,3918.95L358.115,3918.64L357.817,3918.32L357.518,3918L357.219,3917.68L356.92,3917.35L356.625,3917.03L356.336,3916.7L356.044,3916.38L355.753,3916.05L355.465,3915.72L355.177,3915.38L354.892,3915.05L354.608,3914.71L354.324,3914.37L354.043,3914.03L353.764,3913.7L353.486,3913.35L353.209,3913.01L352.934,3912.66L352.661,3912.32L352.39,3911.97L352.119,3911.62L351.849,3911.27L351.581,3910.91L351.317,3910.56L351.052,3910.21L350.789,3909.85L350.527,3909.49L350.267,3909.13L350.007,3908.77L349.751,3908.41L349.494,3908.04L349.24,3907.68L348.99,3907.31L348.736,3906.94L348.487,3906.57L348.24,3906.2L347.992,3905.83L347.747,3905.46L347.503,3905.08L347.261,3904.7L347.02,3904.33L346.78,3903.95L346.544,3903.57L346.307,3903.19L346.069,3902.8L345.837,3902.42L345.605,3902.03L345.374,3901.65L345.144,3901.26L344.916,3900.87L344.692,3900.48L344.464,3900.09L344.241,3899.69L344.02,3899.3L343.799,3898.91L343.579,3898.51L343.362,3898.11L343.145,3897.71L342.932,3897.31L342.717,3896.91L342.503,3896.5L342.295,3896.1L342.085,3895.7L341.877,3895.29L341.672,3894.89L341.466,3894.48L341.26,3894.06L341.059,3893.65L340.86,3893.24L340.661,3892.83L340.462,3892.42L340.264,3892L340.069,3891.58L339.876,3891.16L339.684,3890.75L339.493,3890.33L339.304,3889.91L339.114,3889.48L338.928,3889.06L338.743,3888.64L338.559,3888.21L338.377,3887.79L338.195,3887.36L338.014,3886.93L337.837,3886.5L337.659,3886.07L337.483,3885.64L337.31,3885.21L337.136,3884.78L336.965,3884.34L336.794,3883.91L336.625,3883.47L336.457,3883.03L336.292,3882.6L336.127,3882.16L335.963,3881.72L335.801,3881.28L335.64,3880.84L335.482,3880.4L335.324,3879.95L335.167,3879.51L335.012,3879.06L334.858,3878.62L334.705,3878.17L334.553,3877.72L334.404,3877.27L334.256,3876.82L334.108,3876.37L333.962,3875.92L333.817,3875.47L333.675,3875.02L333.533,3874.56L333.392,3874.11L333.252,3873.65L333.115,3873.19L332.979,3872.74L332.844,3872.28L332.711,3871.83L332.577,3871.36L332.446,3870.9L332.316,3870.44L332.187,3869.98L332.061,3869.52L331.934,3869.05L331.81,3868.59L331.687,3868.13L331.565,3867.66L331.444,3867.19L331.325,3866.73L331.206,3866.26L331.09,3865.79L330.975,3865.32L330.859,3864.85L330.748,3864.38L330.636,3863.91L330.526,3863.44L330.417,3862.97L330.309,3862.49L330.203,3862.02L330.099,3861.55L329.994,3861.07L329.892,3860.59L329.791,3860.12L329.691,3859.64L329.592,3859.16L329.495,3858.68L329.4,3858.21L329.305,3857.73L329.211,3857.24L329.119,3856.76L329.03,3856.29L328.939,3855.81L328.85,3855.32L328.764,3854.84L328.679,3854.36L328.594,3853.87L328.511,3853.39L328.429,3852.9L328.349,3852.42L328.27,3851.93L328.191,3851.44L328.114,3850.95L328.04,3850.47L327.965,3849.98L327.892,3849.49L327.82,3849L327.75,3848.51L327.681,3848.02L327.614,3847.53L327.546,3847.04L327.481,3846.55L327.417,3846.06L327.354,3845.57L327.292,3845.07L327.232,3844.58L327.174,3844.09L327.116,3843.6L327.059,3843.1L327.004,3842.6L326.949,3842.11L326.897,3841.61L326.845,3841.12L326.795,3840.62L326.747,3840.13L326.698,3839.63L326.652,3839.13L326.607,3838.63L326.563,3838.14L326.52,3837.64L326.479,3837.14L326.438,3836.64L326.399,3836.14L326.362,3835.64L326.325,3835.14L326.29,3834.64L326.255,3834.14L326.223,3833.64L326.191,3833.14L326.161,3832.63L326.132,3832.14L326.103,3831.63L326.077,3831.13L326.052,3830.63L326.028,3830.13L326.004,3829.62L325.983,3829.12L325.962,3828.62L325.943,3828.11L325.925,3827.61L325.908,3827.1L325.892,3826.6L325.878,3826.1L325.865,3825.59L325.853,3825.09L325.842,3824.59L325.832,3824.08L325.824,3823.57L325.817,3823.07L325.811,3822.56L325.807,3822.05L325.804,3821.55L325.801,3821.05L325.8,3820.54L325.801,3820.03L325.802,3819.53L325.805,3819.02L325.808,3818.51L325.814,3818.01L325.82,3817.5L325.828,3817L325.836,3816.49L325.846,3815.98L325.857,3815.48L325.87,3814.97L325.883,3814.46L325.898,3813.95L325.914,3813.45L325.931,3812.94L325.95,3812.43L325.969,3811.93L325.989,3811.42L326.012,3810.91L326.035,3810.41L326.059,3809.9L326.084,3809.39L326.111,3808.89L326.14,3808.38L326.168,3807.88L326.199,3807.37L326.231,3806.86L326.264,3806.35L326.297,3805.85L326.332,3805.34L326.369,3804.84L326.406,3804.33L326.445,3803.82L326.484,3803.32L326.526,3802.81L326.569,3802.3L326.612,3801.8L326.656,3801.3L326.702,3800.79L326.749,3800.28L326.798,3799.78L326.847,3799.28L326.898,3798.77L326.949,3798.26L327.002,3797.76L327.056,3797.26L327.112,3796.75L327.168,3796.25L327.226,3795.75L327.284,3795.24L327.344,3794.74L327.406,3794.23L327.468,3793.73L327.532,3793.23L327.597,3792.73L327.663,3792.22L327.73,3791.72L327.798,3791.22L327.868,3790.72L327.938,3790.22L328.01,3789.72L328.083,3789.22L328.157,3788.72L328.232,3788.22L328.309,3787.72L328.387,3787.22L328.466,3786.72L328.546,3786.22L328.627,3785.73L328.709,3785.23L328.793,3784.73L328.877,3784.23L328.963,3783.74L329.05,3783.24L329.138,3782.74L329.228,3782.25L329.318,3781.75L329.41,3781.26L329.503,3780.76L329.597,3780.26L329.692,3779.77L329.788,3779.28L329.885,3778.79L329.984,3778.3L330.084,3777.8L330.185,3777.31L330.288,3776.82L330.39,3776.33L330.496,3775.84L330.601,3775.35L330.708,3774.86L330.816,3774.37L330.925,3773.88L331.035,3773.4L331.146,3772.91L331.259,3772.42L331.373,3771.93L331.488,3771.45L331.604,3770.96L331.722,3770.47L331.84,3769.99L331.959,3769.51L332.08,3769.03L332.201,3768.55L332.324,3768.06L332.449,3767.58L332.575,3767.1L332.701,3766.62L332.828,3766.14L332.956,3765.66L333.087,3765.18L333.218,3764.7L333.35,3764.23L333.484,3763.75L333.618,3763.27L333.753,3762.8L333.891,3762.32L334.029,3761.85L334.167,3761.38L334.309,3760.9L334.45,3760.43L334.592,3759.96L334.736,3759.49L334.88,3759.02L335.027,3758.55L335.174,3758.08L335.321,3757.61L335.472,3757.14L335.622,3756.68L335.773,3756.21L335.927,3755.74L336.081,3755.28L336.236,3754.82L336.392,3754.36L336.549,3753.89L336.709,3753.43L336.868,3752.97L337.029,3752.51L337.192,3752.05L337.355,3751.59L337.519,3751.14L337.684,3750.68L337.85,3750.22L338.019,3749.77L338.188,3749.31L338.358,3748.86L338.53,3748.41L338.703,3747.95L338.874,3747.51L339.049,3747.06L339.227,3746.6L339.402,3746.16L339.579,3745.71L339.76,3745.26L339.942,3744.81L340.123,3744.37L340.304,3743.93L340.487,3743.49L340.673,3743.04L340.861,3742.6L341.048,3742.16L341.234,3741.72L341.423,3741.29L341.615,3740.85L341.808,3740.41L342.002,3739.97L342.194,3739.54L342.388,3739.11L342.586,3738.67L342.783,3738.24L342.981,3737.81L343.183,3737.38L343.384,3736.95L343.586,3736.52L343.789,3736.1L343.993,3735.67L344.198,3735.25L344.404,3734.83L344.613,3734.4L344.823,3733.98L345.032,3733.56L345.243,3733.14L345.455,3732.72L345.671,3732.3L345.886,3731.89L346.101,3731.47L346.317,3731.06L346.535,3730.65L346.755,3730.24L346.975,3729.83L347.198,3729.41L347.421,3729.01L347.642,3728.61L347.868,3728.2L348.095,3727.79L348.322,3727.39L348.553,3726.98L348.78,3726.59L349.01,3726.18L349.245,3725.78L349.477,3725.39L349.711,3724.99L349.947,3724.59L350.183,3724.2L350.421,3723.81L350.659,3723.42L350.901,3723.02L351.142,3722.63L351.384,3722.25L351.628,3721.86L351.87,3721.48L352.117,3721.09L352.367,3720.7L352.612,3720.33L352.861,3719.95L353.112,3719.57L353.363,3719.19L353.618,3718.81L353.872,3718.44L354.127,3718.06L354.383,3717.69L354.638,3717.32L354.898,3716.95L355.158,3716.58L355.418,3716.22L355.683,3715.85L355.945,3715.49L356.208,3715.12L356.473,3714.76L356.74,3714.4L357.01,3714.04L357.28,3713.68L357.547,3713.33L357.82,3712.97L358.093,3712.62L358.365,3712.27L358.641,3711.92L358.917,3711.57L359.194,3711.22L359.473,3710.88L359.752,3710.53L360.033,3710.19L360.316,3709.85L360.598,3709.51L360.882,3709.17L361.168,3708.84L361.454,3708.5L361.741,3708.17L362.031,3707.84L362.323,3707.5L362.614,3707.17L362.905,3706.85L363.199,3706.52L363.493,3706.2L363.788,3705.88L364.088,3705.55L364.388,3705.23L364.685,3704.92L364.986,3704.6L365.287,3704.29L365.59,3703.97L365.897,3703.66L366.202,3703.35L366.507,3703.04L366.815,3702.74L367.124,3702.43L367.434,3702.13L367.735,3701.84L368.264,3701.38L368.842,3700.99L369.461,3700.67L370.114,3700.42L370.791,3700.26L371.483,3700.16L372.18,3700.16L372.874,3700.23Z" style="fill:rgb(45,135,180);"/>
                    </g>
                    <g transform="matrix(1,0,0,1,5901.87,-3540)">
                        <path d="M372.514,3696.49L372.862,3696.52L373.268,3696.58L373.711,3696.68L374.136,3696.8L374.483,3696.93L374.725,3697.03L374.968,3697.14L375.303,3697.32L375.631,3697.52L375.904,3697.71L376.035,3697.81L376.244,3697.98L376.445,3698.16L376.619,3698.32L376.855,3698.58L377.092,3698.85L377.396,3699.27L377.631,3699.65L377.719,3699.82L377.803,3699.99L377.882,3700.15L377.955,3700.32L378.009,3700.45L378.139,3700.8L378.274,3701.28L378.356,3701.7L378.401,3702.03L378.434,3702.39L378.439,3702.62L378.438,3702.89L378.425,3703.16L378.4,3703.43L378.363,3703.7L378.313,3703.97L378.251,3704.24L378.177,3704.5L378.091,3704.76L377.993,3705.01L377.884,3705.26L377.763,3705.51L377.632,3705.75L377.489,3705.98L377.337,3706.21L377.174,3706.43L377.001,3706.64L376.819,3706.84L376.628,3707.04L376.428,3707.22L376.22,3707.4L376.004,3707.57L375.78,3707.73L375.55,3707.87L375.313,3708.01L375.07,3708.14L374.822,3708.25L374.569,3708.35L374.312,3708.44L374.05,3708.52L373.785,3708.59L373.518,3708.64L373.248,3708.69L372.977,3708.72L372.704,3708.74L372.431,3708.74L372.158,3708.74L372.002,3708.72L371.946,3708.75L371.813,3708.8L371.596,3708.89L370.994,3709.09L370.728,3709.18L370.466,3709.26L370.275,3709.32L370.089,3709.39L369.685,3709.52L369.442,3709.6L369.184,3709.68L368.925,3709.75L368.776,3709.8L368.629,3709.84L368.358,3709.91L368.083,3709.98L367.818,3710.04L367.556,3710.1L367.299,3710.16L367.042,3710.22L366.792,3710.27L366.54,3710.32L366.294,3710.36L366.053,3710.41L365.811,3710.45L365.581,3710.49L365.346,3710.53L365.115,3710.57L364.679,3710.63L363.838,3710.76L363.438,3710.83L363.054,3710.89L362.872,3710.92L362.693,3710.95L362.52,3710.98L362.342,3711.01L362.174,3711.04L362.008,3711.08L361.848,3711.11L361.692,3711.14L361.535,3711.18L361.375,3711.21L361.211,3711.25L361.045,3711.29L360.887,3711.33L360.729,3711.36L360.564,3711.41L360.401,3711.45L360.244,3711.49L360.08,3711.53L359.918,3711.57L359.762,3711.62L359.601,3711.66L359.438,3711.71L359.276,3711.76L359.11,3711.8L358.954,3711.85L358.794,3711.9L358.634,3711.95L358.471,3712L358.307,3712.05L358.148,3712.1L357.988,3712.15L357.822,3712.21L357.662,3712.26L357.51,3712.31L357.181,3712.43L356.859,3712.54L356.531,3712.66L356.208,3712.78L355.887,3712.9L355.561,3713.03L355.238,3713.15L354.914,3713.28L354.588,3713.42L354.261,3713.55L353.935,3713.69L353.608,3713.83L353.281,3713.97L352.953,3714.12L352.621,3714.26L352.294,3714.41L351.967,3714.56L351.634,3714.72L351.305,3714.87L351,3715.01L350.687,3715.16L350.366,3715.32L350.036,3715.48L349.355,3715.81L349,3715.98L348.637,3716.16L348.263,3716.33L347.891,3716.5L347.694,3716.59L347.498,3716.68L347.297,3716.77L347.098,3716.86L346.893,3716.94L346.69,3717.03L346.482,3717.12L346.266,3717.2L346.062,3717.28L345.847,3717.37L345.626,3717.45L345.372,3717.54L345.177,3717.61L344.969,3717.68L344.778,3717.73L344.608,3717.78L344.441,3717.83L344.284,3717.87L344.124,3717.9L343.969,3717.94L343.699,3718L343.421,3718.06L343.162,3718.11L342.922,3718.16L342.565,3718.23L342.565,3718.23L342.301,3718.3L342.034,3718.36L341.764,3718.4L341.493,3718.43L341.221,3718.46L340.948,3718.46L340.675,3718.46L340.654,3718.46L340.396,3718.44L340.138,3718.42L339.882,3718.38L339.627,3718.33L339.622,3718.33L339.376,3718.27L339.132,3718.2L338.892,3718.12L338.655,3718.03L338.422,3717.94L338.194,3717.83L337.97,3717.71L337.752,3717.58L337.539,3717.45L337.332,3717.3L337.131,3717.15L337.129,3717.15L336.919,3716.97L336.718,3716.78L336.525,3716.59L336.341,3716.39L336.167,3716.18L336.003,3715.96L335.848,3715.73L335.704,3715.5L335.571,3715.26L335.449,3715.02L335.338,3714.77L335.239,3714.51L335.151,3714.25L335.075,3713.99L335.012,3713.72L334.96,3713.46L334.921,3713.18L334.894,3712.91L334.88,3712.64L334.878,3712.37L334.888,3712.09L334.911,3711.82L334.947,3711.55L334.995,3711.28L335.054,3711.01L335.127,3710.75L335.211,3710.49L335.306,3710.23L335.307,3710.23L335.409,3709.99L335.521,3709.76L335.643,3709.53L335.775,3709.3L335.916,3709.09L336.067,3708.87L336.227,3708.67L336.395,3708.47L336.572,3708.28L336.757,3708.1L336.95,3707.92L337.15,3707.76L337.357,3707.6L337.571,3707.45L337.791,3707.31L337.795,3707.31L337.992,3707.2L338.194,3707.09L338.399,3706.99L338.608,3706.9L338.82,3706.82L339.03,3706.74L339.39,3706.64L339.626,3706.58L339.835,3706.54L340.023,3706.5L340.204,3706.47L340.594,3706.39L340.785,3706.35L340.97,3706.31L341.137,3706.28L341.303,3706.24L341.359,3706.23L341.405,3706.22L341.42,3706.21L341.427,3706.21L341.545,3706.16L341.67,3706.12L341.807,3706.06L341.93,3706.01L342.061,3705.96L342.199,3705.9L342.334,3705.84L342.474,3705.78L342.611,3705.72L342.754,3705.66L342.896,3705.59L343.201,3705.45L343.502,3705.31L343.814,3705.16L344.132,3705.01L344.793,3704.69L345.132,3704.52L345.479,3704.35L345.832,3704.18L346.191,3704.01L346.568,3703.84L346.943,3703.66L347.325,3703.49L347.707,3703.32L348.086,3703.15L348.47,3702.98L348.855,3702.81L349.242,3702.64L349.632,3702.48L350.022,3702.32L350.414,3702.16L350.809,3702L351.207,3701.84L351.605,3701.69L352.008,3701.54L352.412,3701.39L352.812,3701.24L353.22,3701.1L353.624,3700.96L353.838,3700.89L354.046,3700.82L354.248,3700.75L354.456,3700.68L354.666,3700.62L354.871,3700.55L355.079,3700.49L355.289,3700.42L355.501,3700.36L355.717,3700.29L355.923,3700.23L356.134,3700.17L356.344,3700.11L356.557,3700.05L356.776,3699.99L356.99,3699.93L357.202,3699.88L357.422,3699.82L357.636,3699.77L357.85,3699.71L358.071,3699.66L358.292,3699.61L358.506,3699.56L358.722,3699.51L358.944,3699.46L359.169,3699.41L359.425,3699.36L359.676,3699.3L359.923,3699.26L360.169,3699.21L360.403,3699.17L360.645,3699.12L360.881,3699.09L361.114,3699.05L361.561,3698.97L361.995,3698.91L362.819,3698.78L363.215,3698.72L363.4,3698.69L363.579,3698.66L363.765,3698.62L363.938,3698.59L364.11,3698.56L364.278,3698.53L364.439,3698.5L364.6,3698.47L364.755,3698.43L364.909,3698.4L365.056,3698.37L365.199,3698.33L365.332,3698.3L365.468,3698.26L365.516,3698.25L365.563,3698.23L365.694,3698.2L365.825,3698.16L365.969,3698.11L366.338,3697.99L366.539,3697.92L366.734,3697.86L366.964,3697.78L367.188,3697.71L367.475,3697.61L367.597,3697.56L367.838,3697.46L367.991,3697.4L368.141,3697.34L368.297,3697.28L368.468,3697.22L368.66,3697.15L368.857,3697.08L369.063,3697.01L369.282,3696.94L369.521,3696.87L369.743,3696.8L369.886,3696.77L370.035,3696.73L370.164,3696.7L370.313,3696.66L370.48,3696.63L370.632,3696.6L370.805,3696.57L371.003,3696.54L371.207,3696.52L371.438,3696.5L371.659,3696.48L371.894,3696.47L372.192,3696.47L372.514,3696.49ZM343.358,3717.94L343.479,3717.89L343.577,3717.84L343.358,3717.94ZM341.408,3706.49L341.68,3706.51L341.95,3706.56L341.978,3706.56L341.634,3706.49L341.136,3706.47L341.408,3706.49ZM366.445,3703.05L366.475,3703.39L366.476,3703.39L366.453,3703.14L366.441,3702.87L366.445,3703.05Z" style="fill:rgb(45,135,180);"/>
                    </g>
                    <g transform="matrix(1,0,0,1,5901.87,-3540)">
                        <path d="M375.04,3696.98L375.474,3697.03L375.762,3697.08L375.884,3697.11L376.156,3697.17L376.424,3697.25L376.671,3697.33L377.155,3697.52L377.574,3697.74L377.923,3697.94L378.203,3698.13L378.445,3698.31L378.671,3698.49L378.858,3698.65L379.035,3698.82L379.191,3698.97L379.321,3699.11L379.444,3699.24L379.56,3699.37L379.666,3699.49L379.775,3699.63L379.872,3699.75L379.951,3699.86L380.036,3699.97L380.135,3700.11L380.272,3700.31L380.413,3700.53L380.55,3700.75L380.674,3700.96L380.792,3701.17L380.913,3701.4L381.029,3701.64L381.137,3701.87L381.196,3702.01L381.256,3702.15L381.31,3702.28L381.364,3702.42L381.424,3702.6L381.484,3702.78L381.553,3703.01L381.607,3703.22L381.661,3703.45L381.707,3703.71L381.742,3703.93L381.767,3704.12L381.785,3704.28L381.804,3704.45L381.819,3704.62L381.832,3704.77L381.844,3704.94L381.852,3705.09L381.86,3705.26L381.865,3705.41L381.869,3705.56L381.87,3705.72L381.871,3705.87L381.87,3706.02L381.867,3706.16L381.864,3706.31L381.859,3706.45L381.853,3706.61L381.837,3706.88L381.819,3707.15L381.796,3707.42L381.771,3707.69L381.742,3707.95L381.712,3708.2L381.68,3708.45L381.646,3708.69L381.611,3708.93L381.575,3709.16L381.537,3709.4L381.499,3709.62L381.461,3709.84L381.424,3710.05L381.386,3710.26L381.312,3710.65L381.241,3711.02L381.177,3711.36L381.115,3711.69L381.043,3712.08L380.967,3712.46L380.893,3712.83L380.82,3713.2L380.749,3713.54L380.683,3713.88L380.619,3714.2L380.592,3714.35L380.564,3714.5L380.537,3714.66L380.511,3714.8L380.488,3714.93L380.466,3715.07L380.444,3715.22L380.425,3715.35L380.407,3715.47L380.391,3715.6L380.376,3715.72L380.363,3715.84L380.351,3715.96L380.341,3716.07L380.333,3716.18L380.326,3716.29L380.32,3716.39L380.316,3716.5L380.314,3716.57L380.312,3716.66L380.311,3716.75L380.31,3716.84L380.31,3716.93L380.31,3717.01L380.313,3717.2L380.317,3717.4L380.324,3717.6L380.332,3717.81L380.342,3718.03L380.353,3718.25L380.366,3718.48L380.396,3718.97L380.428,3719.48L380.46,3720L380.476,3720.28L380.491,3720.57L380.504,3720.86L380.516,3721.16L380.525,3721.46L380.532,3721.77L380.536,3722.08L380.537,3722.24L380.537,3722.41L380.535,3722.59L380.533,3722.73L380.529,3722.9L380.524,3723.08L380.518,3723.25L380.511,3723.42L380.501,3723.61L380.491,3723.77L380.479,3723.95L380.464,3724.14L380.45,3724.31L380.432,3724.5L380.411,3724.69L380.39,3724.87L380.367,3725.05L380.34,3725.24L380.317,3725.4L380.295,3725.54L380.269,3725.7L380.242,3725.85L380.217,3725.99L380.187,3726.14L380.13,3726.42L380.072,3726.68L380.011,3726.95L379.947,3727.21L379.885,3727.45L379.822,3727.68L379.759,3727.92L379.699,3728.13L379.639,3728.34L379.524,3728.74L379.415,3729.11L379.366,3729.28L379.318,3729.45L379.275,3729.61L379.236,3729.75L379.198,3729.89L379.166,3730.02L379.134,3730.16L379.106,3730.28L379.083,3730.38L379.072,3730.43L379.061,3730.49L379.054,3730.53L379.044,3730.58L379.037,3730.62L379.03,3730.66L379.024,3730.7L379.019,3730.74L379.013,3730.78L379.008,3730.83L379.005,3730.85L379.003,3730.88L378.999,3730.92L378.998,3730.93L378.998,3730.94L378.997,3730.95L378.997,3730.96L378.997,3730.97L378.998,3731.05L379.001,3731.14L379.005,3731.26L379.019,3731.57L379.027,3731.76L379.035,3731.97L379.041,3732.21L379.044,3732.47L379.043,3732.62L379.041,3732.77L379.037,3732.93L379.031,3733.08L379.022,3733.25L379.01,3733.43L378.994,3733.62L378.975,3733.8L378.944,3734.06L378.903,3734.32L378.863,3734.55L378.819,3734.77L378.77,3735L378.722,3735.2L378.672,3735.39L378.622,3735.58L378.578,3735.73L378.528,3735.9L378.485,3736.04L378.446,3736.16L378.316,3736.57L378.274,3736.7L378.272,3736.87L378.265,3737.12L378.255,3737.35L378.244,3737.59L378.228,3737.83L378.211,3738.06L378.191,3738.3L378.168,3738.54L378.142,3738.77L378.115,3739L378.083,3739.24L378.05,3739.47L378.015,3739.7L377.978,3739.93L377.966,3740.06L377.941,3740.29L377.908,3740.52L377.874,3740.73L377.83,3740.94L377.775,3741.18L377.7,3741.45L377.581,3741.82L377.416,3742.21L377.342,3742.37L377.207,3742.63L377.06,3742.89L377.049,3742.91L376.909,3743.13L376.76,3743.34L376.601,3743.55L376.589,3743.57L376.412,3743.78L376.225,3743.98L376.028,3744.18L376.015,3744.19L375.83,3744.36L375.638,3744.52L375.439,3744.67L375.432,3744.67L375.235,3744.81L375.033,3744.94L374.826,3745.06L374.625,3745.18L374.416,3745.28L374.187,3745.38L373.953,3745.47L373.716,3745.55L373.709,3745.55L373.438,3745.63L373.163,3745.7L373.155,3745.7L372.889,3745.76L372.621,3745.8L372.352,3745.83L372.095,3745.85L371.836,3745.85L371.637,3745.84L371.438,3745.83L371.239,3745.82L371.23,3745.82L370.966,3745.78L370.704,3745.74L370.695,3745.74L370.476,3745.69L370.258,3745.64L370.043,3745.58L369.879,3745.53L369.508,3745.39L369.295,3745.29L369.106,3745.2L368.921,3745.1L368.739,3745L368.721,3744.99L368.512,3744.86L368.308,3744.72L368.11,3744.58L368.092,3744.56L367.931,3744.43L367.773,3744.3L367.621,3744.16L367.44,3743.99L367.125,3743.64L366.902,3743.36L366.742,3743.14L366.587,3742.9L366.459,3742.69L366.366,3742.53L366.266,3742.34L366.145,3742.09L366.047,3741.87L365.968,3741.69L365.902,3741.53L365.847,3741.38L365.783,3741.22L365.779,3741.21L365.739,3741.12L365.635,3740.84L365.544,3740.56L365.468,3740.28L365.405,3739.99L365.356,3739.7L365.322,3739.41L365.302,3739.11L365.296,3738.82L365.306,3738.52L365.329,3738.23L365.367,3737.94L365.419,3737.65L365.485,3737.36L365.565,3737.08L365.659,3736.8L365.767,3736.52L365.888,3736.26L366.022,3735.99L366.169,3735.74L366.319,3735.5L366.346,3735.26L366.379,3735L366.42,3734.75L366.463,3734.51L366.51,3734.29L366.558,3734.08L366.606,3733.88L366.657,3733.68L366.704,3733.52L366.748,3733.36L366.8,3733.19L366.878,3732.94L367.002,3732.55L367.025,3732.48L367.043,3732.42L367.041,3732.34L367.036,3732.23L367.031,3732.09L367.015,3731.74L367.007,3731.53L367.001,3731.3L366.997,3731.05L366.997,3730.89L366.999,3730.74L367.003,3730.58L367.009,3730.43L367.015,3730.28L367.027,3730.1L367.041,3729.92L367.055,3729.76L367.071,3729.59L367.09,3729.43L367.109,3729.27L367.13,3729.12L367.152,3728.96L367.175,3728.81L367.2,3728.65L367.226,3728.5L367.252,3728.36L367.28,3728.21L367.308,3728.07L367.336,3727.93L367.396,3727.65L367.456,3727.39L367.516,3727.14L367.58,3726.89L367.643,3726.65L367.706,3726.42L367.769,3726.2L367.828,3725.99L367.888,3725.78L367.999,3725.4L368.102,3725.04L368.148,3724.88L368.195,3724.71L368.236,3724.56L368.273,3724.42L368.309,3724.28L368.339,3724.16L368.367,3724.04L368.394,3723.92L368.416,3723.81L368.423,3723.77L368.433,3723.72L368.441,3723.68L368.447,3723.63L368.456,3723.58L368.462,3723.54L368.469,3723.49L368.478,3723.42L368.486,3723.35L368.492,3723.29L368.498,3723.23L368.505,3723.15L368.511,3723.08L368.515,3723.01L368.52,3722.92L368.524,3722.85L368.528,3722.77L368.531,3722.69L368.533,3722.62L368.534,3722.53L368.536,3722.43L368.537,3722.35L368.537,3722.27L368.536,3722.18L368.534,3721.98L368.529,3721.78L368.523,3721.58L368.515,3721.37L368.505,3721.16L368.493,3720.93L368.48,3720.7L368.451,3720.22L368.419,3719.71L368.387,3719.18L368.371,3718.9L368.356,3718.62L368.343,3718.33L368.331,3718.03L368.322,3717.73L368.314,3717.42L368.31,3717.11L368.31,3716.93L368.31,3716.77L368.311,3716.62L368.314,3716.45L368.317,3716.29L368.322,3716.11L368.333,3715.85L368.346,3715.59L368.363,3715.33L368.382,3715.08L368.404,3714.83L368.428,3714.59L368.455,3714.35L368.483,3714.12L368.513,3713.88L368.545,3713.65L368.578,3713.42L368.612,3713.21L368.647,3712.99L368.684,3712.77L368.721,3712.56L368.757,3712.36L368.795,3712.15L368.835,3711.94L368.909,3711.56L368.984,3711.18L369.057,3710.82L369.127,3710.47L369.195,3710.13L369.259,3709.81L369.321,3709.48L369.385,3709.13L369.455,3708.77L369.521,3708.42L369.584,3708.08L369.614,3707.92L369.644,3707.75L369.672,3707.59L369.699,3707.43L369.706,3707.39L369.61,3707.28L369.433,3707.04L369.268,3706.8L369.115,3706.55L368.975,3706.29L368.848,3706.02L368.733,3705.75L368.633,3705.47L368.546,3705.19L368.472,3704.91L368.413,3704.62L368.368,3704.33L368.338,3704.03L368.322,3703.74L368.32,3703.45L368.323,3703.31L368.333,3703.05L368.355,3702.78L368.387,3702.49L368.442,3702.15L368.524,3701.76L368.624,3701.41L368.707,3701.15L368.803,3700.9L368.897,3700.67L369.024,3700.4L369.193,3700.09L369.338,3699.84L369.513,3699.58L369.616,3699.44L369.78,3699.23L369.953,3699.03L370.075,3698.89L370.359,3698.61L370.659,3698.35L370.798,3698.24L371.029,3698.07L371.267,3697.92L371.487,3697.78L371.897,3697.56L372.328,3697.38L372.815,3697.21L373.282,3697.09L373.746,3697.01L374.215,3696.97L374.612,3696.96L375.04,3696.98ZM365.783,3741.22L365.826,3741.32L365.857,3741.39L365.783,3741.22L365.783,3741.22ZM380.313,3703.78L380.313,3703.78L380.315,3703.74L380.313,3703.78Z" style="fill:rgb(45,135,180);"/>
                    </g>
                </g>
                <g transform="matrix(1,0,0,1,-229.754,-4.54747e-13)">
                    <g transform="matrix(1,0,0,1,5901.87,-3540)">
                        <path d="M374.284,4224.59L376.043,4226.13L377.078,4228.23L377.231,4230.57L376.478,4232.79L374.934,4234.55L374.534,4234.85L374.146,4235.15L373.757,4235.46L373.371,4235.76L372.987,4236.07L372.604,4236.37L372.221,4236.68L371.841,4236.99L371.462,4237.3L371.084,4237.62L370.708,4237.93L370.332,4238.25L369.96,4238.57L369.587,4238.89L369.215,4239.21L368.847,4239.53L368.478,4239.86L368.112,4240.18L367.745,4240.51L367.381,4240.84L367.021,4241.17L366.657,4241.5L366.296,4241.83L365.94,4242.17L365.584,4242.5L365.228,4242.84L364.872,4243.18L364.52,4243.52L364.168,4243.86L363.818,4244.21L363.469,4244.55L363.121,4244.9L362.775,4245.24L362.43,4245.6L362.087,4245.94L361.745,4246.3L361.406,4246.65L361.065,4247.01L360.727,4247.36L360.391,4247.72L360.055,4248.08L359.722,4248.44L359.391,4248.8L359.06,4249.16L358.729,4249.53L358.4,4249.9L358.074,4250.26L357.748,4250.63L357.425,4251L357.102,4251.37L356.782,4251.74L356.46,4252.12L356.141,4252.49L355.825,4252.87L355.509,4253.25L355.195,4253.63L354.882,4254.01L354.569,4254.39L354.258,4254.77L353.951,4255.16L353.643,4255.54L353.336,4255.93L353.032,4256.32L352.728,4256.71L352.426,4257.1L352.127,4257.49L351.827,4257.89L351.528,4258.28L351.231,4258.68L350.936,4259.07L350.644,4259.47L350.351,4259.87L350.058,4260.27L349.771,4260.67L349.483,4261.07L349.195,4261.48L348.909,4261.89L348.626,4262.29L348.343,4262.7L348.06,4263.11L347.782,4263.52L347.503,4263.93L347.225,4264.35L346.949,4264.76L346.677,4265.17L346.402,4265.59L346.13,4266.01L345.861,4266.42L345.592,4266.84L345.324,4267.27L345.057,4267.69L344.794,4268.11L344.53,4268.53L344.268,4268.96L344.008,4269.39L343.749,4269.81L343.491,4270.24L343.235,4270.67L342.979,4271.1L342.725,4271.53L342.474,4271.96L342.223,4272.4L341.973,4272.83L341.726,4273.27L341.479,4273.7L341.233,4274.14L340.989,4274.58L340.748,4275.02L340.507,4275.46L340.266,4275.91L340.028,4276.35L339.792,4276.79L339.555,4277.24L339.322,4277.68L339.089,4278.13L338.858,4278.58L338.628,4279.02L338.399,4279.48L338.172,4279.93L337.946,4280.38L337.724,4280.83L337.499,4281.28L337.278,4281.74L337.058,4282.19L336.839,4282.65L336.621,4283.11L336.406,4283.56L336.192,4284.02L335.978,4284.48L335.766,4284.94L335.556,4285.4L335.347,4285.87L335.14,4286.33L334.934,4286.8L334.729,4287.26L334.526,4287.73L334.324,4288.19L334.123,4288.66L333.924,4289.13L333.727,4289.6L333.531,4290.07L333.336,4290.54L333.142,4291.01L332.949,4291.49L332.76,4291.96L332.571,4292.43L332.382,4292.91L332.195,4293.39L332.01,4293.86L331.828,4294.34L331.646,4294.81L331.464,4295.3L331.285,4295.77L331.107,4296.25L330.931,4296.73L330.755,4297.22L330.581,4297.7L330.409,4298.18L330.238,4298.67L330.069,4299.15L329.902,4299.63L329.734,4300.12L329.569,4300.61L329.405,4301.1L329.242,4301.58L329.082,4302.07L328.922,4302.56L328.763,4303.05L328.607,4303.54L328.451,4304.03L328.297,4304.53L328.145,4305.02L327.994,4305.51L327.844,4306.01L327.695,4306.5L327.549,4306.99L327.404,4307.49L327.26,4307.99L327.117,4308.48L326.976,4308.98L326.836,4309.48L326.698,4309.98L326.561,4310.48L326.425,4310.98L326.291,4311.48L326.158,4311.98L326.027,4312.48L325.897,4312.98L325.768,4313.48L325.641,4313.99L325.516,4314.49L325.391,4315L325.269,4315.5L325.148,4316L325.027,4316.51L324.909,4317.02L324.792,4317.52L324.677,4318.03L324.562,4318.54L324.449,4319.05L324.338,4319.55L324.228,4320.06L324.119,4320.57L324.012,4321.08L323.906,4321.59L323.802,4322.1L323.699,4322.61L323.598,4323.12L323.498,4323.64L323.399,4324.15L323.302,4324.66L323.206,4325.17L323.112,4325.69L323.019,4326.2L322.927,4326.71L322.837,4327.23L322.749,4327.74L322.661,4328.26L322.575,4328.77L322.491,4329.29L322.408,4329.81L322.326,4330.32L322.247,4330.84L322.168,4331.36L322.09,4331.87L322.015,4332.39L321.941,4332.91L321.868,4333.43L321.796,4333.95L321.725,4334.47L321.657,4334.98L321.59,4335.5L321.524,4336.02L321.46,4336.54L321.397,4337.06L321.335,4337.58L321.275,4338.11L321.215,4338.63L321.158,4339.14L321.103,4339.66L321.048,4340.19L320.995,4340.71L320.944,4341.23L320.893,4341.75L320.845,4342.27L320.798,4342.79L320.752,4343.32L320.707,4343.84L320.664,4344.37L320.623,4344.89L320.582,4345.41L320.543,4345.94L320.506,4346.45L320.471,4346.98L320.436,4347.51L320.403,4348.03L320.371,4348.55L320.341,4349.07L320.312,4349.6L320.285,4350.12L320.259,4350.65L320.235,4351.17L320.211,4351.7L320.19,4352.22L320.169,4352.74L320.151,4353.27L320.133,4353.79L320.118,4354.32L320.103,4354.85L320.09,4355.37L320.078,4355.89L320.068,4356.42L320.06,4356.94L320.052,4357.47L320.046,4357.99L320.042,4358.52L320.038,4359.04L320.037,4359.56L320.036,4360.09L320.038,4360.61L320.041,4361.14L320.044,4361.66L320.05,4362.19L320.057,4362.71L320.065,4363.23L320.075,4363.76L320.086,4364.28L320.099,4364.81L320.113,4365.33L320.128,4365.86L320.145,4366.38L320.163,4366.9L320.183,4367.42L320.204,4367.95L320.227,4368.47L320.251,4368.99L320.276,4369.52L320.303,4370.04L320.331,4370.56L320.361,4371.08L320.392,4371.61L320.425,4372.13L320.459,4372.65L320.494,4373.17L320.531,4373.69L320.57,4374.22L320.609,4374.74L320.65,4375.26L320.692,4375.78L320.736,4376.3L320.782,4376.82L320.829,4377.34L320.877,4377.86L320.926,4378.38L320.977,4378.89L321.03,4379.41L321.084,4379.93L321.139,4380.45L321.196,4380.97L321.254,4381.48L321.314,4382L321.375,4382.52L321.437,4383.04L321.501,4383.55L321.566,4384.07L321.633,4384.59L321.701,4385.1L321.771,4385.61L321.842,4386.13L321.914,4386.64L321.988,4387.16L322.063,4387.67L322.14,4388.19L322.218,4388.7L322.297,4389.21L322.378,4389.72L322.46,4390.23L322.544,4390.75L322.629,4391.26L322.715,4391.77L322.804,4392.28L322.893,4392.79L322.984,4393.3L323.076,4393.81L323.17,4394.31L323.265,4394.82L323.361,4395.33L323.459,4395.83L323.558,4396.34L323.66,4396.85L323.762,4397.35L323.865,4397.86L323.969,4398.36L324.076,4398.86L324.185,4399.37L324.294,4399.87L324.404,4400.38L324.515,4400.88L324.629,4401.38L324.745,4401.88L324.861,4402.38L324.978,4402.88L325.097,4403.38L325.218,4403.88L325.34,4404.38L325.463,4404.87L325.588,4405.37L325.714,4405.87L325.842,4406.36L325.97,4406.86L326.101,4407.35L326.233,4407.85L326.365,4408.34L326.5,4408.83L326.637,4409.32L326.773,4409.81L326.912,4410.3L327.053,4410.8L327.194,4411.28L327.337,4411.77L327.482,4412.26L327.627,4412.75L327.775,4413.23L327.924,4413.72L328.073,4414.2L328.225,4414.69L328.378,4415.18L328.532,4415.66L328.688,4416.14L328.845,4416.62L329.003,4417.1L329.163,4417.58L329.324,4418.06L329.487,4418.54L329.652,4419.02L329.816,4419.49L329.983,4419.97L330.152,4420.45L330.321,4420.92L330.492,4421.4L330.665,4421.87L330.839,4422.34L331.015,4422.82L331.19,4423.28L331.368,4423.75L331.548,4424.22L331.729,4424.69L331.911,4425.16L332.095,4425.62L332.281,4426.09L332.466,4426.56L332.653,4427.02L332.843,4427.48L333.034,4427.95L333.226,4428.41L333.418,4428.87L333.613,4429.33L333.809,4429.79L334.007,4430.24L334.206,4430.7L334.407,4431.16L334.609,4431.61L334.81,4432.07L335.015,4432.52L335.221,4432.97L335.428,4433.42L335.636,4433.87L335.847,4434.32L336.058,4434.77L336.271,4435.22L336.486,4435.67L336.7,4436.11L336.918,4436.56L337.135,4437L337.355,4437.44L337.576,4437.88L337.799,4438.32L338.024,4438.77L338.247,4439.2L338.474,4439.64L338.702,4440.08L338.932,4440.51L339.162,4440.95L339.394,4441.38L339.629,4441.81L339.862,4442.24L340.098,4442.67L340.336,4443.1L340.575,4443.53L340.815,4443.96L341.057,4444.38L341.301,4444.81L341.544,4445.23L341.79,4445.65L342.038,4446.08L342.286,4446.5L342.537,4446.92L342.787,4447.33L343.04,4447.75L343.293,4448.16L343.549,4448.58L343.807,4448.99L344.063,4449.4L344.324,4449.82L344.584,4450.23L344.847,4450.64L345.111,4451.05L345.374,4451.45L345.642,4451.86L345.91,4452.26L346.177,4452.66L346.449,4453.06L346.721,4453.47L346.992,4453.86L347.268,4454.26L347.544,4454.66L347.82,4455.05L348.1,4455.45L348.379,4455.84L348.66,4456.23L348.944,4456.62L349.226,4457.01L349.512,4457.4L349.8,4457.79L350.086,4458.17L350.376,4458.55L350.668,4458.94L350.96,4459.32L351.252,4459.7L351.548,4460.08L351.844,4460.46L352.141,4460.83L352.441,4461.21L352.742,4461.58L353.043,4461.95L353.343,4462.32L353.649,4462.69L353.956,4463.06L354.263,4463.43L354.569,4463.79L354.879,4464.16L355.191,4464.52L355.504,4464.88L355.816,4465.24L356.131,4465.6L356.45,4465.96L356.768,4466.31L357.087,4466.67L357.405,4467.02L357.727,4467.37L358.052,4467.72L358.38,4468.07L359.157,4468.9L359.933,4469.73L360.702,4470.55L361.467,4471.36L361.848,4471.77L362.228,4472.17L362.605,4472.56L362.984,4472.96L363.36,4473.35L363.738,4473.74L364.115,4474.13L364.49,4474.51L364.864,4474.89L365.241,4475.28L365.614,4475.65L365.99,4476.02L366.365,4476.4L366.738,4476.76L367.114,4477.13L367.49,4477.49L367.865,4477.85L368.242,4478.2L368.618,4478.56L368.997,4478.9L369.184,4479.08L369.374,4479.25L369.562,4479.42L369.753,4479.59L369.945,4479.77L370.131,4479.93L370.321,4480.1L370.511,4480.27L370.702,4480.43L370.896,4480.6L371.085,4480.77L371.277,4480.93L371.47,4481.1L371.66,4481.26L371.854,4481.42L372.045,4481.58L372.238,4481.74L372.433,4481.9L372.627,4482.06L372.824,4482.22L373.018,4482.37L373.208,4482.52L373.406,4482.68L373.603,4482.84L373.8,4482.99L373.998,4483.14L374.194,4483.29L374.393,4483.44L374.593,4483.59L374.788,4483.74L374.99,4483.89L375.189,4484.03L375.386,4484.18L375.594,4484.33L375.793,4484.47L375.995,4484.61L376.199,4484.76L376.401,4484.9L376.609,4485.04L376.812,4485.18L377.016,4485.32L377.227,4485.46L377.433,4485.59L377.637,4485.73L377.847,4485.86L378.056,4485.99L378.263,4486.13L378.478,4486.26L378.689,4486.39L378.902,4486.52L379.116,4486.65L379.328,4486.78L379.542,4486.91L379.761,4487.04L379.976,4487.16L380.189,4487.28L380.413,4487.41L380.632,4487.53L380.849,4487.65L381.07,4487.77L381.295,4487.9L381.519,4488.02L381.74,4488.13L381.967,4488.25L382.194,4488.37L382.419,4488.48L382.649,4488.6L382.877,4488.71L383.109,4488.82L383.341,4488.93L383.573,4489.04L383.826,4489.16L385.711,4490.55L386.922,4492.55L387.274,4494.87L386.714,4497.14L385.326,4499.03L383.323,4500.24L381.008,4500.59L378.735,4500.03L378.463,4499.9L378.17,4499.76L377.881,4499.62L377.596,4499.48L377.307,4499.34L377.024,4499.2L376.738,4499.05L376.457,4498.91L376.177,4498.76L375.894,4498.61L375.617,4498.47L375.343,4498.32L375.068,4498.17L374.79,4498.02L374.517,4497.86L374.251,4497.71L373.976,4497.55L373.707,4497.4L373.443,4497.24L373.175,4497.08L372.909,4496.92L372.646,4496.76L372.384,4496.6L372.123,4496.44L371.867,4496.28L371.606,4496.11L371.348,4495.95L371.094,4495.78L370.835,4495.62L370.581,4495.45L370.333,4495.28L370.08,4495.11L369.828,4494.94L369.583,4494.77L369.333,4494.6L369.087,4494.43L368.841,4494.25L368.594,4494.07L368.357,4493.9L368.111,4493.73L367.869,4493.55L367.631,4493.37L367.388,4493.19L367.152,4493.01L366.917,4492.83L366.679,4492.65L366.445,4492.47L366.212,4492.29L365.98,4492.11L365.751,4491.93L365.514,4491.74L365.284,4491.55L365.057,4491.37L364.829,4491.18L364.603,4491L364.376,4490.81L364.149,4490.62L363.926,4490.43L363.701,4490.24L363.479,4490.05L363.257,4489.86L363.034,4489.67L362.817,4489.48L362.598,4489.29L362.379,4489.1L362.16,4488.9L361.94,4488.7L361.726,4488.51L361.511,4488.32L361.295,4488.12L361.082,4487.93L360.867,4487.73L360.443,4487.34L360.02,4486.94L359.602,4486.55L359.183,4486.15L358.769,4485.75L358.357,4485.35L357.944,4484.94L357.536,4484.54L357.129,4484.14L356.724,4483.73L356.321,4483.32L355.918,4482.91L355.517,4482.5L355.119,4482.09L354.721,4481.68L354.324,4481.27L353.929,4480.85L353.532,4480.44L353.139,4480.02L352.745,4479.61L351.961,4478.78L351.176,4477.94L350.394,4477.1L349.606,4476.26L349.251,4475.88L348.896,4475.49L348.54,4475.11L348.185,4474.72L347.833,4474.32L347.483,4473.93L347.137,4473.54L346.789,4473.15L346.442,4472.75L346.098,4472.35L345.757,4471.95L345.415,4471.55L345.074,4471.15L344.736,4470.74L344.402,4470.34L344.068,4469.94L343.733,4469.53L343.401,4469.12L343.072,4468.71L342.744,4468.3L342.417,4467.88L342.093,4467.47L341.769,4467.05L341.446,4466.63L341.125,4466.21L340.808,4465.8L340.491,4465.38L340.173,4464.95L339.861,4464.53L339.548,4464.11L339.235,4463.68L338.927,4463.25L338.619,4462.82L338.311,4462.39L338.008,4461.96L337.704,4461.53L337.402,4461.09L337.103,4460.66L336.803,4460.22L336.507,4459.78L336.212,4459.35L335.917,4458.9L335.625,4458.46L335.335,4458.02L335.045,4457.58L334.758,4457.13L334.472,4456.69L334.187,4456.24L333.905,4455.79L333.622,4455.34L333.344,4454.89L333.066,4454.44L332.789,4453.99L332.513,4453.53L332.239,4453.08L331.968,4452.62L331.697,4452.16L331.429,4451.71L331.161,4451.25L330.895,4450.78L330.632,4450.33L330.369,4449.86L330.108,4449.4L329.848,4448.93L329.59,4448.47L329.333,4448L329.078,4447.53L328.826,4447.06L328.573,4446.59L328.324,4446.12L328.075,4445.65L327.828,4445.18L327.582,4444.7L327.337,4444.22L327.096,4443.75L326.855,4443.27L326.616,4442.8L326.378,4442.32L326.141,4441.84L325.906,4441.36L325.672,4440.87L325.442,4440.39L325.212,4439.91L324.983,4439.42L324.757,4438.94L324.531,4438.45L324.307,4437.96L324.085,4437.47L323.864,4436.98L323.643,4436.49L323.427,4436L323.211,4435.51L322.997,4435.02L322.783,4434.52L322.572,4434.03L322.362,4433.53L322.152,4433.03L321.946,4432.54L321.741,4432.04L321.537,4431.54L321.335,4431.04L321.133,4430.54L320.935,4430.04L320.737,4429.53L320.541,4429.03L320.346,4428.53L320.154,4428.02L319.962,4427.52L319.771,4427.01L319.584,4426.5L319.396,4425.99L319.211,4425.49L319.027,4424.98L318.844,4424.46L318.665,4423.96L318.485,4423.44L318.307,4422.93L318.132,4422.42L317.957,4421.9L317.783,4421.39L317.612,4420.87L317.441,4420.36L317.274,4419.84L317.106,4419.32L316.94,4418.8L316.777,4418.29L316.615,4417.77L316.453,4417.25L316.295,4416.73L316.137,4416.21L315.98,4415.68L315.826,4415.16L315.673,4414.64L315.52,4414.11L315.371,4413.59L315.222,4413.06L315.074,4412.53L314.93,4412.01L314.786,4411.48L314.642,4410.95L314.502,4410.43L314.363,4409.9L314.224,4409.37L314.088,4408.84L313.954,4408.31L313.82,4407.78L313.688,4407.24L313.558,4406.71L313.429,4406.18L313.302,4405.65L313.176,4405.11L313.052,4404.58L312.93,4404.05L312.808,4403.51L312.688,4402.97L312.57,4402.44L312.454,4401.9L312.339,4401.36L312.225,4400.82L312.113,4400.28L312.002,4399.75L311.893,4399.21L311.787,4398.67L311.68,4398.13L311.576,4397.59L311.473,4397.05L311.371,4396.5L311.272,4395.96L311.173,4395.42L311.077,4394.88L310.982,4394.34L310.888,4393.79L310.795,4393.25L310.704,4392.7L310.615,4392.16L310.528,4391.61L310.441,4391.07L310.357,4390.52L310.274,4389.97L310.192,4389.43L310.112,4388.88L310.034,4388.33L309.956,4387.78L309.881,4387.24L309.807,4386.69L309.734,4386.14L309.663,4385.59L309.594,4385.04L309.526,4384.49L309.46,4383.94L309.395,4383.39L309.331,4382.84L309.269,4382.29L309.209,4381.74L309.15,4381.19L309.093,4380.64L309.037,4380.09L308.982,4379.53L308.929,4378.98L308.878,4378.43L308.829,4377.88L308.781,4377.32L308.734,4376.77L308.688,4376.22L308.644,4375.66L308.603,4375.11L308.562,4374.56L308.523,4374L308.485,4373.45L308.449,4372.89L308.415,4372.34L308.382,4371.78L308.35,4371.23L308.319,4370.67L308.291,4370.11L308.264,4369.56L308.239,4369L308.215,4368.45L308.192,4367.89L308.171,4367.34L308.151,4366.78L308.134,4366.22L308.117,4365.67L308.103,4365.11L308.089,4364.56L308.077,4364L308.067,4363.44L308.058,4362.88L308.051,4362.33L308.045,4361.77L308.041,4361.21L308.038,4360.66L308.036,4360.1L308.037,4359.54L308.038,4358.98L308.042,4358.43L308.046,4357.87L308.053,4357.31L308.061,4356.76L308.07,4356.2L308.081,4355.64L308.093,4355.09L308.107,4354.53L308.123,4353.97L308.139,4353.41L308.158,4352.86L308.178,4352.3L308.199,4351.74L308.222,4351.18L308.247,4350.63L308.273,4350.07L308.3,4349.51L308.33,4348.96L308.36,4348.4L308.392,4347.84L308.426,4347.29L308.461,4346.73L308.497,4346.18L308.535,4345.62L308.575,4345.06L308.616,4344.51L308.659,4343.95L308.703,4343.4L308.749,4342.84L308.796,4342.29L308.845,4341.73L308.895,4341.18L308.947,4340.62L309,4340.07L309.055,4339.51L309.111,4338.96L309.169,4338.4L309.229,4337.85L309.29,4337.29L309.353,4336.74L309.416,4336.19L309.482,4335.64L309.549,4335.08L309.617,4334.53L309.687,4333.98L309.758,4333.43L309.832,4332.87L309.907,4332.32L309.982,4331.77L310.06,4331.22L310.139,4330.67L310.22,4330.12L310.302,4329.57L310.385,4329.02L310.471,4328.47L310.558,4327.92L310.646,4327.37L310.736,4326.82L310.827,4326.27L310.919,4325.73L311.014,4325.18L311.11,4324.63L311.207,4324.08L311.307,4323.53L311.407,4322.99L311.509,4322.44L311.612,4321.9L311.717,4321.35L311.824,4320.8L311.932,4320.26L312.041,4319.72L312.153,4319.17L312.265,4318.63L312.379,4318.09L312.495,4317.54L312.612,4317L312.731,4316.46L312.852,4315.92L312.973,4315.38L313.096,4314.84L313.222,4314.29L313.348,4313.76L313.475,4313.22L313.604,4312.68L313.736,4312.14L313.869,4311.6L314.003,4311.07L314.138,4310.53L314.275,4309.99L314.414,4309.46L314.554,4308.92L314.696,4308.39L314.839,4307.85L314.984,4307.32L315.13,4306.79L315.278,4306.25L315.427,4305.72L315.577,4305.19L315.73,4304.66L315.884,4304.13L316.039,4303.6L316.197,4303.07L316.356,4302.54L316.515,4302.02L316.676,4301.49L316.84,4300.96L317.005,4300.43L317.17,4299.91L317.339,4299.38L317.508,4298.86L317.678,4298.34L317.851,4297.81L318.025,4297.29L318.2,4296.77L318.378,4296.24L318.555,4295.73L318.736,4295.2L318.917,4294.69L319.1,4294.17L319.286,4293.65L319.471,4293.13L319.659,4292.62L319.848,4292.1L320.039,4291.59L320.232,4291.07L320.425,4290.56L320.62,4290.05L320.818,4289.53L321.017,4289.02L321.217,4288.51L321.417,4288L321.62,4287.49L321.826,4286.98L322.033,4286.48L322.24,4285.97L322.449,4285.46L322.66,4284.96L322.873,4284.45L323.087,4283.95L323.302,4283.45L323.519,4282.95L323.738,4282.44L323.958,4281.94L324.18,4281.44L324.403,4280.95L324.628,4280.45L324.855,4279.95L325.083,4279.45L325.312,4278.96L325.543,4278.47L325.776,4277.97L326.01,4277.48L326.245,4276.99L326.483,4276.5L326.722,4276.01L326.96,4275.52L327.203,4275.03L327.448,4274.54L327.692,4274.06L327.939,4273.57L328.187,4273.09L328.437,4272.6L328.688,4272.12L328.941,4271.64L329.195,4271.16L329.451,4270.68L329.709,4270.2L329.967,4269.72L330.227,4269.25L330.491,4268.77L330.754,4268.3L331.019,4267.82L331.285,4267.35L331.555,4266.88L331.825,4266.41L332.096,4265.94L332.37,4265.47L332.644,4265L332.92,4264.54L333.198,4264.07L333.477,4263.61L333.759,4263.14L334.041,4262.68L334.325,4262.22L334.61,4261.76L334.898,4261.3L335.187,4260.84L335.477,4260.39L335.768,4259.93L336.063,4259.48L336.358,4259.02L336.653,4258.57L336.952,4258.12L337.253,4257.67L337.553,4257.22L337.856,4256.77L338.162,4256.33L338.467,4255.88L338.774,4255.44L339.084,4255L339.395,4254.56L339.706,4254.12L340.02,4253.68L340.338,4253.24L340.654,4252.8L340.971,4252.37L341.292,4251.93L341.615,4251.5L341.939,4251.07L342.262,4250.64L342.588,4250.21L342.917,4249.78L343.247,4249.35L343.578,4248.93L343.911,4248.5L344.245,4248.08L344.581,4247.66L344.92,4247.24L345.26,4246.82L345.598,4246.4L345.941,4245.99L346.286,4245.57L346.631,4245.16L346.978,4244.75L347.328,4244.33L347.676,4243.93L348.028,4243.52L348.382,4243.11L348.737,4242.7L349.095,4242.3L349.453,4241.9L349.812,4241.5L350.172,4241.1L350.536,4240.7L350.9,4240.3L351.268,4239.91L351.635,4239.51L352.004,4239.12L352.375,4238.73L352.746,4238.34L353.121,4237.95L353.497,4237.57L353.874,4237.18L354.253,4236.8L354.633,4236.41L355.015,4236.03L355.398,4235.65L355.783,4235.28L356.17,4234.9L356.559,4234.53L356.947,4234.15L357.338,4233.78L357.732,4233.41L358.129,4233.04L358.525,4232.68L358.92,4232.31L359.321,4231.95L359.723,4231.59L360.124,4231.23L360.528,4230.87L360.934,4230.51L361.342,4230.15L361.75,4229.8L362.159,4229.45L362.574,4229.1L362.986,4228.75L363.402,4228.4L363.818,4228.05L364.237,4227.71L364.657,4227.37L365.078,4227.03L365.502,4226.69L365.926,4226.35L366.353,4226.01L366.779,4225.68L367.209,4225.35L367.631,4225.02L369.731,4223.99L372.067,4223.84L374.284,4224.59Z" style="fill:rgb(45,135,180);"/>
                    </g>
                    <g transform="matrix(1,0,0,1,5901.87,-3540)">
                        <path d="M360.076,4221.79L360.342,4221.79L360.597,4221.79L360.852,4221.8L361.112,4221.81L361.367,4221.82L361.622,4221.83L361.872,4221.84L362.122,4221.85L362.372,4221.86L362.621,4221.88L362.866,4221.9L363.11,4221.91L363.359,4221.93L363.834,4221.97L364.315,4222L364.785,4222.05L365.246,4222.09L365.708,4222.13L366.606,4222.22L367.483,4222.3L367.91,4222.34L368.333,4222.38L368.749,4222.42L369.157,4222.45L369.561,4222.48L369.752,4222.49L369.949,4222.51L370.145,4222.52L370.342,4222.53L370.532,4222.54L370.716,4222.55L370.9,4222.56L371.089,4222.57L371.272,4222.58L371.455,4222.58L371.636,4222.59L371.806,4222.59L371.982,4222.59L372.179,4222.59L372.456,4222.6L372.733,4222.62L373.008,4222.65L373.281,4222.7L373.552,4222.76L373.82,4222.83L374.085,4222.91L374.345,4223L374.601,4223.11L374.851,4223.23L375.096,4223.36L375.334,4223.5L375.566,4223.65L375.79,4223.82L376.007,4223.99L376.215,4224.17L376.415,4224.36L376.606,4224.57L376.787,4224.77L376.958,4224.99L377.119,4225.22L377.27,4225.45L377.409,4225.69L377.538,4225.94L377.654,4226.19L377.759,4226.44L377.853,4226.71L377.934,4226.97L378.002,4227.24L378.058,4227.51L378.102,4227.78L378.133,4228.06L378.151,4228.34L378.156,4228.61L378.149,4228.89L378.129,4229.17L378.096,4229.44L378.05,4229.72L377.992,4229.99L377.921,4230.26L377.838,4230.52L377.743,4230.78L377.636,4231.03L377.517,4231.28L377.387,4231.53L377.246,4231.77L377.093,4232L376.931,4232.23L376.758,4232.44L376.575,4232.65L376.383,4232.85L376.182,4233.04L375.972,4233.22L375.754,4233.39L375.528,4233.55L375.295,4233.7L375.056,4233.84L374.81,4233.97L374.559,4234.09L374.302,4234.19L374.041,4234.29L373.776,4234.37L373.508,4234.44L373.236,4234.49L372.963,4234.54L372.687,4234.57L372.411,4234.59L372.133,4234.59L371.902,4234.59L371.646,4234.59L371.385,4234.58L371.135,4234.58L370.886,4234.57L370.635,4234.56L370.39,4234.55L370.139,4234.54L369.888,4234.53L369.643,4234.51L369.403,4234.5L369.162,4234.48L368.921,4234.47L368.675,4234.45L368.201,4234.41L367.729,4234.37L367.264,4234.33L366.805,4234.29L366.347,4234.25L365.453,4234.16L364.574,4234.08L364.148,4234.04L363.72,4234L363.3,4233.96L362.89,4233.93L362.476,4233.9L362.281,4233.88L362.08,4233.87L361.88,4233.86L361.685,4233.84L361.491,4233.83L361.296,4233.82L361.102,4233.82L360.912,4233.81L360.724,4233.8L360.541,4233.8L360.352,4233.79L360.164,4233.79L359.987,4233.79L359.805,4233.78L359.623,4233.78L359.453,4233.79L359.277,4233.79L359.095,4233.8L358.925,4233.8L358.761,4233.81L358.592,4233.82L358.4,4233.83L357.962,4233.85L357.504,4233.88L357.045,4233.9L356.584,4233.92L356.127,4233.94L355.67,4233.96L354.762,4234L353.854,4234.03L353.405,4234.05L352.96,4234.07L352.517,4234.09L352.076,4234.12L351.637,4234.14L351.204,4234.16L350.777,4234.19L350.348,4234.22L350.14,4234.24L349.932,4234.25L349.73,4234.27L349.523,4234.29L349.317,4234.31L349.111,4234.33L348.911,4234.35L348.712,4234.37L348.513,4234.39L348.322,4234.41L348.126,4234.43L347.93,4234.46L347.747,4234.48L347.559,4234.51L347.367,4234.53L347.186,4234.56L347.008,4234.59L346.826,4234.61L346.645,4234.65L346.475,4234.68L346.308,4234.71L346.132,4234.74L345.968,4234.77L345.806,4234.81L345.64,4234.84L345.488,4234.88L345.332,4234.91L345.174,4234.95L345.075,4234.98L344.965,4235.01L344.725,4235.07L344.477,4235.14L344.211,4235.21L343.931,4235.29L343.627,4235.37L343.466,4235.41L343.301,4235.45L343.124,4235.5L342.947,4235.54L342.759,4235.59L342.561,4235.63L342.361,4235.67L342.168,4235.71L341.956,4235.75L341.734,4235.79L341.52,4235.82L341.295,4235.86L341.052,4235.89L340.818,4235.91L340.583,4235.94L340.33,4235.95L340.079,4235.97L339.827,4235.98L339.575,4235.99L339.372,4235.99L339.095,4235.99L338.818,4235.97L338.542,4235.94L338.268,4235.9L337.996,4235.85L337.727,4235.78L337.462,4235.7L337.2,4235.61L336.943,4235.51L336.691,4235.39L336.444,4235.26L336.204,4235.12L335.97,4234.98L335.743,4234.82L335.524,4234.65L335.313,4234.47L335.111,4234.28L334.917,4234.08L334.733,4233.87L334.558,4233.66L334.394,4233.43L334.24,4233.2L334.097,4232.97L333.966,4232.72L333.845,4232.47L333.736,4232.22L333.639,4231.96L333.555,4231.69L333.482,4231.43L333.422,4231.16L333.374,4230.88L333.34,4230.61L333.317,4230.33L333.308,4230.06L333.312,4229.78L333.328,4229.5L333.357,4229.23L333.398,4228.95L333.453,4228.68L333.52,4228.41L333.599,4228.15L333.69,4227.88L333.793,4227.63L333.909,4227.37L334.035,4227.13L334.173,4226.89L334.322,4226.65L334.481,4226.43L334.651,4226.21L334.831,4226L335.02,4225.79L335.219,4225.6L335.426,4225.42L335.641,4225.24L335.864,4225.08L336.095,4224.92L336.332,4224.78L336.576,4224.65L336.826,4224.53L337.081,4224.42L337.34,4224.32L337.604,4224.24L337.872,4224.16L338.142,4224.11L338.415,4224.06L338.69,4224.02L338.967,4224L339.244,4223.99L339.349,4223.99L339.4,4223.99L339.447,4223.99L339.489,4223.98L339.527,4223.98L339.578,4223.98L339.627,4223.97L339.664,4223.97L339.716,4223.96L339.776,4223.95L339.826,4223.94L339.884,4223.93L339.959,4223.91L340.026,4223.9L340.093,4223.89L340.169,4223.87L340.256,4223.85L340.343,4223.82L340.441,4223.8L340.543,4223.77L340.768,4223.71L341.02,4223.64L341.294,4223.57L341.592,4223.48L341.911,4223.4L342.086,4223.35L342.273,4223.31L342.53,4223.24L342.791,4223.18L343.058,4223.12L343.315,4223.07L343.578,4223.01L343.842,4222.96L344.095,4222.91L344.361,4222.86L344.625,4222.82L344.88,4222.77L345.137,4222.73L345.4,4222.69L345.662,4222.65L345.914,4222.62L346.172,4222.58L346.436,4222.55L346.69,4222.52L346.944,4222.49L347.205,4222.46L347.459,4222.43L347.715,4222.4L347.971,4222.38L348.221,4222.36L348.472,4222.33L348.724,4222.31L348.981,4222.29L349.233,4222.27L349.485,4222.25L349.978,4222.22L350.475,4222.19L350.967,4222.16L351.453,4222.13L351.936,4222.11L352.415,4222.09L352.891,4222.07L353.359,4222.05L354.277,4222.01L355.175,4221.97L355.613,4221.95L356.043,4221.93L356.461,4221.91L356.874,4221.89L357.28,4221.87L357.696,4221.85L357.943,4221.83L358.213,4221.82L358.489,4221.81L358.76,4221.8L359.02,4221.79L359.285,4221.79L359.556,4221.78L359.816,4221.78L360.076,4221.79Z" style="fill:rgb(45,135,180);"/>
                    </g>
                    <g transform="matrix(1,0,0,1,5901.87,-3540)">
                        <path d="M374.017,4223.24L374.038,4223.24L374.313,4223.26L374.586,4223.29L374.812,4223.32L375.035,4223.37L375.227,4223.41L375.418,4223.46L375.607,4223.51L375.625,4223.52L375.836,4223.59L376.044,4223.66L376.249,4223.75L376.499,4223.86L376.965,4224.11L377.195,4224.26L377.368,4224.38L377.536,4224.5L377.7,4224.63L377.908,4224.8L378.275,4225.16L378.602,4225.53L378.853,4225.86L379.102,4226.24L379.291,4226.58L379.444,4226.89L379.581,4227.22L379.677,4227.48L379.758,4227.73L379.821,4227.96L379.88,4228.2L379.931,4228.45L379.963,4228.65L379.991,4228.85L380.021,4229.13L380.04,4229.43L380.048,4229.71L380.046,4229.95L380.04,4230.15L380.03,4230.36L380.015,4230.55L379.999,4230.72L379.982,4230.88L379.966,4231.02L379.942,4231.19L379.907,4231.43L379.871,4231.65L379.834,4231.86L379.783,4232.14L379.753,4232.31L379.721,4232.49L379.692,4232.66L379.663,4232.83L379.634,4233.01L379.607,4233.18L379.581,4233.35L379.555,4233.52L379.529,4233.7L379.504,4233.88L379.48,4234.05L379.457,4234.22L379.434,4234.4L379.412,4234.57L379.369,4234.92L379.329,4235.28L379.291,4235.63L379.256,4235.98L379.224,4236.34L379.193,4236.7L379.165,4237.07L379.138,4237.43L379.113,4237.82L379.088,4238.19L379.06,4238.58L379.029,4238.96L378.995,4239.35L378.959,4239.73L378.921,4240.11L378.881,4240.5L378.838,4240.88L378.794,4241.25L378.747,4241.63L378.699,4242.01L378.648,4242.38L378.597,4242.75L378.544,4243.12L378.489,4243.49L378.432,4243.86L378.375,4244.23L378.316,4244.59L378.255,4244.96L378.194,4245.32L378.132,4245.68L378.069,4246.04L378.005,4246.4L377.939,4246.76L377.875,4247.11L377.808,4247.47L377.675,4248.17L377.54,4248.87L377.403,4249.56L377.266,4250.25L377.13,4250.94L376.86,4252.29L376.727,4252.96L376.596,4253.62L376.468,4254.28L376.343,4254.94L376.284,4255.26L376.223,4255.59L376.164,4255.92L376.107,4256.24L376.051,4256.56L375.996,4256.88L375.942,4257.2L375.889,4257.52L375.838,4257.84L375.789,4258.15L375.741,4258.47L375.694,4258.78L375.65,4259.09L375.606,4259.41L375.565,4259.72L375.521,4260.06L375.5,4260.22L375.469,4260.42L375.434,4260.62L375.399,4260.8L375.364,4260.97L375.326,4261.13L375.287,4261.3L375.242,4261.47L375.197,4261.64L375.158,4261.77L375.116,4261.92L375.067,4262.07L375.024,4262.21L374.978,4262.35L374.888,4262.61L374.799,4262.86L374.711,4263.09L374.622,4263.32L374.539,4263.53L374.457,4263.73L374.378,4263.93L374.239,4264.27L374.174,4264.43L374.116,4264.57L374.064,4264.7L374.017,4264.82L373.98,4264.92L373.945,4265.02L373.935,4265.05L373.921,4265.22L373.882,4265.5L373.83,4265.79L373.764,4266.07L373.684,4266.35L373.591,4266.62L373.485,4266.89L373.366,4267.16L373.234,4267.42L373.09,4267.67L372.934,4267.91L372.766,4268.15L372.587,4268.38L372.397,4268.6L372.197,4268.81L371.987,4269.01L371.768,4269.2L371.539,4269.38L371.303,4269.54L371.058,4269.7L370.806,4269.84L370.548,4269.97L370.284,4270.09L370.014,4270.2L369.739,4270.29L369.46,4270.37L369.178,4270.44L368.892,4270.49L368.605,4270.53L368.316,4270.55L368.026,4270.56L367.736,4270.56L367.447,4270.54L367.159,4270.51L366.872,4270.46L366.589,4270.4L366.308,4270.33L366.031,4270.24L365.759,4270.15L365.492,4270.03L365.23,4269.91L364.975,4269.77L364.727,4269.62L364.486,4269.46L364.254,4269.28L364.03,4269.1L363.816,4268.9L363.611,4268.7L363.416,4268.48L363.232,4268.26L363.059,4268.03L362.897,4267.79L362.747,4267.54L362.609,4267.28L362.484,4267.02L362.371,4266.76L362.272,4266.48L362.186,4266.21L362.113,4265.93L362.054,4265.64L362.009,4265.36L361.978,4265.07L361.96,4264.78L361.957,4264.49L361.959,4264.32L361.969,4264.09L361.985,4263.86L362.005,4263.65L362.029,4263.44L362.058,4263.23L362.087,4263.05L362.123,4262.85L362.159,4262.67L362.198,4262.49L362.236,4262.33L362.277,4262.17L362.323,4261.99L362.363,4261.85L362.405,4261.71L362.453,4261.55L362.495,4261.42L362.539,4261.28L362.588,4261.14L362.632,4261.02L362.717,4260.78L362.806,4260.54L362.891,4260.32L362.974,4260.11L363.054,4259.91L363.13,4259.73L363.276,4259.37L363.338,4259.22L363.396,4259.08L363.451,4258.94L363.496,4258.82L363.537,4258.71L363.572,4258.61L363.6,4258.54L363.61,4258.5L363.621,4258.47L363.625,4258.46L363.631,4258.44L363.666,4258.17L363.715,4257.8L363.766,4257.43L363.819,4257.05L363.874,4256.69L363.929,4256.32L363.987,4255.95L364.045,4255.59L364.105,4255.23L364.166,4254.87L364.227,4254.51L364.29,4254.15L364.354,4253.79L364.418,4253.44L364.483,4253.09L364.549,4252.73L364.683,4252.02L364.818,4251.33L364.954,4250.64L365.09,4249.95L365.362,4248.58L365.498,4247.91L365.63,4247.24L365.761,4246.57L365.889,4245.91L366.015,4245.25L366.075,4244.92L366.136,4244.59L366.196,4244.27L366.253,4243.95L366.31,4243.62L366.365,4243.3L366.42,4242.98L366.473,4242.66L366.524,4242.34L366.574,4242.02L366.623,4241.7L366.669,4241.39L366.715,4241.07L366.759,4240.76L366.801,4240.44L366.841,4240.13L366.88,4239.82L366.917,4239.51L366.952,4239.19L366.984,4238.89L367.015,4238.58L367.043,4238.27L367.07,4237.96L367.095,4237.66L367.117,4237.35L367.139,4237.03L367.166,4236.61L367.198,4236.16L367.233,4235.73L367.27,4235.28L367.311,4234.85L367.354,4234.4L367.401,4233.96L367.451,4233.52L367.503,4233.09L367.532,4232.86L367.56,4232.65L367.59,4232.42L367.621,4232.2L367.652,4231.98L367.684,4231.77L367.717,4231.54L367.752,4231.32L367.788,4231.1L367.823,4230.88L367.86,4230.66L367.897,4230.44L367.865,4230.29L367.821,4230.01L367.791,4229.72L367.775,4229.43L367.773,4229.14L367.784,4228.85L367.81,4228.56L367.85,4228.27L367.904,4227.99L367.971,4227.7L368.052,4227.43L368.146,4227.15L368.253,4226.88L368.373,4226.62L368.506,4226.36L368.651,4226.11L368.808,4225.87L368.977,4225.63L369.157,4225.4L369.348,4225.18L369.549,4224.98L369.759,4224.78L369.98,4224.59L370.209,4224.41L370.446,4224.24L370.691,4224.09L370.944,4223.94L371.202,4223.82L371.467,4223.7L371.738,4223.59L372.013,4223.5L372.292,4223.42L372.575,4223.36L372.86,4223.31L373.148,4223.27L373.437,4223.25L373.727,4223.24L374.017,4223.24ZM373.952,4264.74L373.956,4264.66L373.956,4264.64L373.952,4264.74ZM373.274,4235.22L373.527,4235.23L373.238,4235.21L373.048,4235.19L373.274,4235.22ZM372.814,4235.16L372.885,4235.17L372.764,4235.15L372.814,4235.16ZM372.341,4235.06L372.351,4235.07L372.328,4235.06L372.341,4235.06Z" style="fill:rgb(45,135,180);"/>
                    </g>
                </g>
            </g>
            <g transform="matrix(1,0,0,1,4158.22,-15810.1)">
                <text x="2561.99px" y="16783.7px" style="font-family:'Boogaloo-Regular', 'Boogaloo', cursive;font-size:86.183px;fill:rgb(45,135,180);">UI</text>
            </g>
            <g transform="matrix(1,0,0,1,4158.22,-16612.8)">
                <text x="2470.81px" y="16783.7px" style="font-family:'Boogaloo-Regular', 'Boogaloo', cursive;font-size:86.183px;fill:rgb(45,135,180);">ROUTER</text>
            </g>
            <g transform="matrix(1,0,0,1,4158.22,-16077.6)">
                <text x="2378.51px" y="16783.7px" style="font-family:'Boogaloo-Regular', 'Boogaloo', cursive;font-size:86.183px;fill:rgb(45,135,180);">REMOTE DA<tspan x="2741.34px 2772.36px " y="16783.7px 16783.7px ">TA</tspan></text>
            </g>
            <g transform="matrix(1,0,0,1,4158.22,-16345.2)">
                <text x="2504.68px" y="16783.7px" style="font-family:'Boogaloo-Regular', 'Boogaloo', cursive;font-size:86.183px;fill:rgb(45,135,180);">ST<tspan x="2576.64px 2618.78px " y="16783.7px 16783.7px ">AT</tspan>E</text>
            </g>
        </g>
    </g>
</svg>
