<?xml version="1.0" encoding="UTF-8" standalone="no"?>
<svg
   xmlns:dc="http://purl.org/dc/elements/1.1/"
   xmlns:cc="http://creativecommons.org/ns#"
   xmlns:rdf="http://www.w3.org/1999/02/22-rdf-syntax-ns#"
   xmlns:svg="http://www.w3.org/2000/svg"
   xmlns="http://www.w3.org/2000/svg"
   xmlns:sodipodi="http://sodipodi.sourceforge.net/DTD/sodipodi-0.dtd"
   xmlns:inkscape="http://www.inkscape.org/namespaces/inkscape"
   width="100%"
   height="100%"
   viewBox="0 0 8005 4500"
   version="1.1"
   xml:space="preserve"
   style="fill-rule:evenodd;clip-rule:evenodd;stroke-linejoin:round;stroke-miterlimit:1.41421;"
   id="svg49"
   sodipodi:docname="layers-mixed2.svg"
   inkscape:version="0.92.2 (5c3e80d, 2017-08-06)"><metadata
     id="metadata55"><rdf:RDF><cc:Work
         rdf:about=""><dc:format>image/svg+xml</dc:format><dc:type
           rdf:resource="http://purl.org/dc/dcmitype/StillImage" /></cc:Work></rdf:RDF></metadata><defs
     id="defs53" /><sodipodi:namedview
     pagecolor="#ffffff"
     bordercolor="#666666"
     borderopacity="1"
     objecttolerance="10"
     gridtolerance="10"
     guidetolerance="10"
     inkscape:pageopacity="0"
     inkscape:pageshadow="2"
     inkscape:window-width="2688"
     inkscape:window-height="1478"
     id="namedview51"
     showgrid="false"
     inkscape:zoom="0.14833529"
     inkscape:cx="7120.9562"
     inkscape:cy="3798.0802"
     inkscape:window-x="0"
     inkscape:window-y="0"
     inkscape:window-maximized="1"
     inkscape:current-layer="svg49" /><rect
     id="layers-mixed"
     x="0.54"
     y="0"
     width="8000"
     height="4500" /><g
     id="g47"><path
       d="M5773.58,3644.58l4.342,0.38l4.209,1.128l3.949,1.842l3.57,2.499l3.082,3.082l2.499,3.569l1.842,3.95l1.128,4.209l0.379,4.341l0,530.427l-0.379,4.341l-1.128,4.209l-1.842,3.95l-2.499,3.57l-3.082,3.081l-3.57,2.5l-3.949,1.841l-4.209,1.128l-4.342,0.38l-4513.05,0l-4.341,-0.38l-4.21,-1.128l-3.949,-1.841l-3.57,-2.5l-3.081,-3.081l-2.5,-3.57l-1.841,-3.95l-1.128,-4.209l-0.38,-4.341l0,-530.427l0.38,-4.341l1.128,-4.209l1.841,-3.95l2.5,-3.569l3.081,-3.082l3.57,-2.499l3.949,-1.842l4.21,-1.128l4.341,-0.38l2359.81,0l9.665,1.973l7.95,5.371l5.371,7.949l1.972,9.666l0,0.083l-1.972,9.665l-5.371,7.95l-7.95,5.371l-9.665,1.972l-2334.81,0l0,480.427l4463.05,0l0,-480.427l-446.956,0l-0.041,0l-13.687,-1.972l-11.241,-5.371l-7.596,-7.95l-2.79,-9.665l0,-0.042l10.355,0l0,-0.041l1.973,-9.666l5.371,-7.949l7.949,-5.371l9.666,-1.973l471.997,0Z"
       style="fill:#fff;"
       id="path3" /><path
       style="fill:#ffff00"
       d="m 3627.38,3065.76 c 20.0737,0.9169 30.3017,28.4355 15.6283,42.1899 -1.6822,11.9845 2.1105,25.0954 1.3597,37.5641 2.7726,49.0581 19.2453,96.7099 17.1483,146.1894 -0.7398,131.0368 -12.9544,261.7407 -13.7359,392.758 -1.9139,19.9323 -29.7476,28.7145 -42.8094,13.5606 -11.317,-12.4438 -5.4573,-30.39 -6.6793,-45.5276 1.7741,-126.8095 14.1691,-253.3239 12.9753,-380.1874 -2.7312,-46.4829 -17.7229,-91.5297 -17.349,-138.315 -1.6238,-20.4642 -5.8208,-45.8089 11.427,-61.202 6.0368,-5.1326 14.1387,-7.729 22.035,-7.03 z m -2.377,49.886 c 1.6634,-0.014 2.9015,-0.187 0,0 z"
       id="path5"
       inkscape:connector-curvature="0" /><path
       style="fill:#ffff00"
       d="m 5263.94,3069.41 c 17.7774,0.1854 29.408,21.1998 21.313,36.71 -3.2694,14.0154 -7.1889,28.3931 -6.717,42.849 20.6717,46.4625 12.6973,98.4241 13.019,147.673 -1.1333,55.1337 -18.6469,109.4374 -12.486,164.751 5.6592,27.4321 12.242,54.7482 15.45,82.642 6.1508,48.7755 9.3376,98.0926 8.198,147.222 -2.7979,19.9012 -31.1598,27.4992 -43.474,11.5947 -10.1942,-12.4082 -4.5953,-29.4984 -6.389,-44.1547 -1.3072,-61.8556 -7.3163,-123.8557 -22.288,-183.99 -11.0644,-66.2424 12.8766,-131.5941 11.2445,-197.8508 0.1919,-34.8535 4.9089,-71.364 -7.6765,-104.7322 -10.9712,-21.6328 -3.8875,-46.5877 0.382,-69.058 2.4654,-13.2377 6.9198,-29.771 22.2243,-32.9273 2.3422,-0.6227 4.7836,-0.8042 7.1997,-0.7287 z m 18.177,40.898 c 0.2892,-0.1922 0.8563,-1.2722 0,0 z m -44.196,-12.479 c 1.1456,6.4035 -0.6679,-6.2191 0,0 z"
       id="path7"
       inkscape:connector-curvature="0" /><path
       d="M5777.92,2530.1l4.209,1.128l3.949,1.842l3.57,2.499l3.082,3.082l2.499,3.569l1.842,3.95l1.128,4.209l0.379,4.341l0,530.427l-0.379,4.341l-1.128,4.209l-1.842,3.95l-2.499,3.57l-3.082,3.081l-3.57,2.5l-3.949,1.841l-4.209,1.128l-4.342,0.38l-495.539,0l-9.666,-1.973l-7.949,-5.371l-5.371,-7.949l-1.973,-9.665l0,-0.084l1.973,-9.665l5.371,-7.949l7.949,-5.371l9.666,-1.973l470.539,0l0,-480.427l-4463.05,0l0,480.427l2334.31,0l13.686,1.973l11.242,5.371l7.596,7.949l2.79,9.665l0,0.042l-10.355,0l0,0.042l-1.973,9.665l-5.371,7.949l-7.949,5.371l-9.666,1.973l-2359.31,0l-4.341,-0.38l-4.21,-1.128l-3.949,-1.841l-3.57,-2.5l-3.081,-3.081l-2.5,-3.57l-1.841,-3.95l-1.128,-4.209l-0.38,-4.341l0,-530.427l0.38,-4.341l1.128,-4.209l1.841,-3.95l2.5,-3.569l3.081,-3.082l3.57,-2.499l3.949,-1.842l4.21,-1.128l4.341,-0.38l4513.05,0l4.342,0.38Z"
       style="fill:#fff;"
       id="path9" /><path
       d="M5777.92,1415.24l4.209,1.128l3.949,1.841l3.57,2.5l3.082,3.081l2.499,3.57l1.842,3.95l1.128,4.209l0.379,4.341l0,530.427l-0.379,4.341l-1.128,4.209l-1.842,3.95l-2.499,3.569l-3.082,3.082l-3.57,2.499l-3.949,1.842l-4.209,1.128l-4.342,0.38l-4513.05,0l-4.341,-0.38l-4.21,-1.128l-3.949,-1.842l-3.57,-2.499l-3.081,-3.082l-2.5,-3.569l-1.841,-3.95l-1.128,-4.209l-0.38,-4.341l0,-530.427l0.38,-4.341l1.128,-4.209l1.841,-3.95l2.5,-3.57l3.081,-3.081l3.57,-2.5l3.949,-1.841l4.21,-1.128l4.341,-0.38l4513.05,0l4.342,0.38Zm-4492.39,49.62l0,480.427l4463.05,0l0,-480.427l-4463.05,0Z"
       style="fill:#fff;"
       id="path11" /><path
       d="M5777.92,300.375c3.722,0.997 4.782,1.02 8.158,2.969c5.061,2.922 8.994,7.61 10.993,13.101c1.333,3.663 1.172,4.711 1.507,8.55l0,530.427c-1.166,13.33 -4.226,15.204 -8.93,19.151c-3.224,2.705 -3.564,4.755 -16.07,5.849l-4513.05,0c-13.33,-1.167 -15.204,-4.227 -19.151,-8.931c-2.705,-3.223 -4.755,-3.564 -5.849,-16.069l0,-530.427c1.094,-12.505 3.144,-12.846 5.849,-16.07c3.947,-4.703 5.821,-7.764 19.151,-8.93l4513.05,0c1.448,0.127 2.895,0.253 4.342,0.38Zm-4492.39,49.62l0,480.427l4463.05,0l0,-480.427c-1487.68,0 -2975.37,0 -4463.05,0Z"
       style="fill:#fff;fill-rule:nonzero;"
       id="path13" /><g
       id="g21"><path
         style="fill:#ffff00"
         d="m 1132.06,1731.91 c 22.1403,2.9836 27.6483,34.4209 9.433,46.317 -106.889,110.6513 -155.29671,265.9675 -161.822,417.133 -6.76389,171.9454 33.3156,347.9485 125.043,494.496 8.8591,16.5101 31.1945,34.2136 17.736,54.348 -11.0415,17.5633 -38.3438,12.2978 -45.65,-5.994 -95.67427,-140.7291 -142.71387,-310.9939 -147.695,-480.177 -4.03527,-159.2887 32.13446,-324.1345 126.529,-454.912 18.5541,-24.2514 37.0935,-49.6041 60.8584,-68.8727 4.7441,-2.4754 10.3077,-3.2122 15.5676,-2.3383 z"
         id="path15"
         inkscape:connector-curvature="0" /><path
         style="fill:#ffff00"
         d="m 988.622,1751.54 c 3.97946,0.1221 7.7741,-1.9571 11.7141,-2.5634 14.6301,-3.3352 29.5068,-5.667 43.8235,-10.2825 16.2986,-4.9439 32.9077,-9.367 50.0034,-10.2051 7.6458,-0.6799 15.4965,-0.6339 22.751,-3.474 9.7512,-2.9529 21.3832,-4.2507 30.0055,2.3515 10.7613,7.4351 13.5668,23.6768 5.9265,34.2927 -4.5724,6.9611 -12.7656,10.8274 -20.947,11.0838 -8.2571,2.8123 -16.8414,4.4708 -25.5529,4.9512 -11.5336,0.7601 -23.1415,1.673 -34.268,5.0255 -16.0342,4.53 -31.9728,9.5278 -48.4211,12.3873 -11.352,1.8 -22.1915,6.0388 -33.62867,7.3147 -13.06827,1.2339 -26.24801,-8.353 -28.41433,-21.4287 -2.6065,-12.5358 6.03675,-26.0206 18.54633,-28.8214 2.75695,-0.6949 5.63206,-0.8963 8.46167,-0.6316 z m 22.589,23.914 c -0.024,7.204 0.1388,-2.1958 0,0 z m -0.307,-2.996 c 0.01,-0.074 -0.082,-0.3955 0,0 z m -0.629,-2.866 c 0.2804,0.7731 -0.5591,-1.786 0,0 z"
         id="path17"
         inkscape:connector-curvature="0" /><path
         style="fill:#ffff00"
         d="m 1142.33,1724.32 c 11.6704,0.3495 21.8989,9.8486 23.6438,21.3018 2.7246,12.1765 4.2434,24.6333 3.7562,37.1252 -0.9804,30.4315 -2.1416,60.879 -4.5412,91.2339 -0.7008,7.8927 -3.0469,15.6102 -3.3331,23.5172 0.5868,9.4292 -0.7259,19.9076 -7.9907,26.7039 -8.9075,9.1938 -24.8248,9.7022 -34.3188,1.1251 -8.1246,-6.8601 -11.7624,-18.8675 -7.7402,-28.8871 0.031,-12.2045 4.1616,-23.9957 4.318,-36.213 1.6913,-27.9092 3.1736,-55.8484 3.6359,-83.8061 0.1498,-8.2995 -2.0316,-16.3581 -3.568,-24.4233 -1.5917,-12.758 8.1036,-25.6163 20.8889,-27.3757 1.732,-0.2896 3.4955,-0.3783 5.2492,-0.3019 z m 15.039,169.554 c -0.3686,-0.7048 -0.4245,-0.7488 0,0 z m 8.287,-139.847 c 0.1924,-0.9488 0.1417,-1.0827 0,0 z m 0.321,-2.401 c -0.093,1.3966 0.2005,-3.0616 0,0 z"
         id="path19"
         inkscape:connector-curvature="0" /></g><g
       id="g29"><path
         style="fill:#ffff00"
         d="m 5962.95,624.659 c 81.5294,64.66296 149.9956,145.55741 210.89,229.826 212.7093,300.3373 287.9238,681.6424 254.567,1044.266 -32.6258,353.236 -161.5047,701.2258 -385.949,977.833 -26.5138,29.8091 -63.3194,-19.5049 -31.698,-40.295 249.1967,-313.1281 376.2733,-715.9033 375.061,-1114.376 -1.0973,-334.9843 -104.5865,-677.0857 -326.37,-932.747 -38.6752,-46.74006 -84.3525,-87.1623 -126.988,-129.802 -9.5844,-19.52823 9.8852,-41.69749 30.487,-34.705 z"
         id="path23"
         inkscape:connector-curvature="0" /><path
         style="fill:#ffff00"
         d="m 6081.93,625.116 c 12.9069,0.92203 23.5386,13.18877 22.6103,26.09373 -0.3722,13.40819 -12.5642,24.73331 -25.8502,24.83664 -11.3316,-0.11765 -21.946,-4.80332 -33.0259,-6.64286 -15.4661,-2.78858 -30.6745,-6.76187 -45.6952,-11.35651 -11.2933,-3.45252 -22.9234,-5.82336 -34.7441,-6.31796 -10.2493,-0.67831 -20.5955,-1.5915 -30.3259,-5.12104 -4.4805,-0.87202 -9.2735,-0.98531 -13.2903,-3.51423 -11.6376,-5.97111 -16.5332,-21.70909 -10.3393,-33.22918 4.7156,-9.78576 16.1265,-15.16329 26.7249,-13.49274 8.1678,0.50539 15.5671,4.72808 23.7702,4.91519 14.119,1.00677 28.3266,2.10638 42.0117,5.96699 16.1569,4.28063 32.0356,9.70686 48.5609,12.48792 7.974,1.47823 15.8573,3.49505 23.6879,5.51305 1.9559,-0.27279 3.9383,-0.31795 5.905,-0.139 z m -27.528,24.74 c 0.2438,5.27525 0.2883,-4.97405 0.017,-0.13967 z m 0.529,-4.232 c -0.092,0.60706 0.1081,-0.52098 0,0 z m 0.68,-2.888 c -0.3457,1.23219 0.4195,-1.24187 0,0 z"
         id="path25"
         inkscape:connector-curvature="0" /><path
         style="fill:#ffff00"
         d="m 5925.9,597.898 c 12.8687,0.32725 23.9751,11.96912 23.7998,24.81219 -0.086,6.24412 -2.459,12.16821 -3.0998,18.36781 -1.4209,13.67069 0.1376,27.42684 0.3766,41.12263 0.9291,20.3707 1.6954,40.76942 3.4604,61.08537 1.2226,9.03479 3.5176,18.01387 3.6758,27.13118 5.5044,14.0991 -4.4562,31.27872 -19.1811,34.08932 -12.238,2.89423 -25.6536,-4.90463 -29.3663,-16.88755 -2.5787,-6.78167 -1.1154,-14.11521 -1.9824,-21.10695 -2.0686,-11.18236 -3.727,-22.44573 -4.1021,-33.82749 -1.6016,-27.43067 -3.0416,-54.88699 -3.4738,-82.36269 -0,-11.93009 1.9098,-23.80825 4.906,-35.32517 3.3536,-10.44986 14.0116,-17.78668 24.9869,-17.09865 z m -17.372,169.319 c -0.3784,0.71362 0.6828,-1.2295 0,0 z m -7.377,-135.222 c 1.848,4.05097 -1.4818,-4.81862 -0.05,-0.21395 z m -1.1,-4.677 c 0.197,0.94285 -0.2487,-1.68485 0,0 z m -0.295,-2.405 c 0.1919,2.0407 -0.1435,-2.64421 0,0 z"
         id="path27"
         inkscape:connector-curvature="0" /></g><g
       id="g37"><path
         style="fill:#ffff00"
         d="m 1144.15,680.111 c 22.0413,2.62031 28.2399,34.1347 9.946,45.979 -76.8201,77.85213 -117.7968,183.65807 -139.634,289.184 -25.58357,130.5494 -23.29305,268.6144 19.762,395.287 22.4279,64.9796 58.8748,126.3436 111.7864,171.0059 15.3705,17.0405 -3.3377,46.4968 -25.3064,39.9291 -20.1539,-8.8797 -33.9239,-28.0867 -49.09,-43.522 -75.65371,-88.5982 -109.19289,-204.9986 -120.05,-319.103 -12.23801,-141.3146 7.84137,-286.72111 65.573,-416.766 26.9441,-58.7516 61.8422,-115.38947 110.212,-158.805 5.0247,-2.96691 11.0391,-4.10648 16.801,-3.189 z"
         id="path31"
         inkscape:connector-curvature="0" /><path
         style="fill:#ffff00"
         d="m 1142.65,664.525 c 12.6171,0.5105 23.8572,11.21365 24.6023,23.88608 1.3939,12.72687 -8.508,25.31122 -21.2225,26.89883 -3.0025,0.42791 -6.0222,-0.1092 -8.7847,1.40305 -10.9473,4.12425 -22.4823,6.19069 -34.0231,7.81904 -22.6845,3.65845 -43.4987,13.90585 -64.006,23.768 -7.0201,3.37409 -14.4681,5.7205 -22.1424,7.02851 -12.2935,3.41132 -26.2918,-4.20955 -29.99089,-16.44469 -4.29261,-12.07887 2.51708,-26.59411 14.52849,-31.04614 5.4932,-2.12489 11.6443,-2.02212 16.842,-5.02466 19.63,-9.53658 39.5532,-18.86635 60.7905,-24.25797 11.4472,-3.32685 23.4581,-3.90216 34.9643,-6.90505 9.4092,-2.68473 18.3285,-7.95465 28.442,-7.125 z m -121.13,89.218 c 0.681,-0.25843 0.5761,-0.30373 0,0 z m -8.477,-47.558 c 4.8605,0.65287 -0.2121,-0.19469 -0.7301,-0.045 l 0.4059,0.025 z m 104.321,-14.299 c 0.3243,4.26417 -0.1287,-2.43906 0,0 z"
         id="path33"
         inkscape:connector-curvature="0" /><path
         style="fill:#ffff00"
         d="m 1153.21,666.585 c 12.1738,0.79439 21.5022,10.70843 25.845,21.472 4.7342,12.3414 2.0465,25.86882 -0.306,38.432 -1.8025,9.78935 -4.5948,19.6134 -3.379,29.669 1.1138,13.57535 1.3564,27.51921 -2.8996,40.63077 -1.479,5.21462 -3.5251,10.49302 -2.6364,16.01525 0.427,6.73956 -1.2573,13.35555 -3.1871,19.71808 -0.3379,7.12686 -0.8267,14.40671 -3.0333,21.22302 -4.2453,11.8956 -18.118,19.13937 -30.2896,15.59588 -9.3911,-2.3081 -16.2725,-10.37554 -19.0907,-19.36992 -2.9225,-7.45772 -1.8929,-16.27785 2.6077,-22.89208 0.2059,-4.69258 2.1879,-9.09981 2.989,-13.617 -1.1382,-11.52514 2.2906,-22.72344 5.429,-33.656 2.0567,-9.91597 -0.421,-20.05774 -0.124,-30.068 -0.1942,-13.50082 3.675,-26.55426 5.814,-39.774 -10.5353,-12.25337 -6.0555,-33.56483 8.4712,-40.61029 4.2139,-2.1941 9.0562,-3.14656 13.7898,-2.76871 z m -38.603,184.31 c 0.4709,1.11733 0.1791,0.39434 0,0 z m 60.549,-156.17 c 0.019,-0.005 0.018,-0.90179 0,0 z"
         id="path35"
         inkscape:connector-curvature="0" /></g><g
       id="g45"><path
         style="fill:#ffff00"
         d="m 5925.08,398.157 c 225.8594,18.75784 416.6034,161.02933 583.51,302.722 319.7597,281.86353 561.6464,671.4193 609.667,1100.28 15.7098,207.7588 20.6794,429.8608 -74.005,621.441 -11.1903,27.7734 -35.7938,52.4167 -45.756,78.249 84.2277,278.704 0.7942,580.864 -145.793,823.402 -140.9574,237.7194 -360.7704,428.3437 -620.253,525.51 -108.5826,40.4458 -223.3016,69.9276 -339.227,74.38 -42.309,-23.7209 3.7319,-59.1737 35.858,-51.697 338.461,-36.2073 655.0635,-229.7834 842.256,-514.075 154.2441,-228.3734 252.4344,-515.1422 193.06,-791.345 -3.1739,-15.1509 -4.501,-36.7187 -19.622,-16.355 -60.2644,51.0652 -156.6525,60.7478 -217.371,4.537 -76.9803,-69.1395 -115.6871,-182.514 -94.017,-284.039 9.4989,-52.0942 64.0688,-88.5353 115.43,-73.926 115.7835,28.0454 184.1984,142.8572 228.297,241.817 108.0574,-175.1909 105.0759,-391.344 95.266,-589.747 -31.9055,-411.7677 -253.9811,-790.1791 -550.77,-1069.24 -152.7357,-136.95109 -321.4478,-273.10791 -525.456,-321.197 -32.1047,-12.68631 -76.9701,1.22245 -98.803,-27.98 -5.8862,-17.48148 9.6728,-35.4466 27.729,-32.737 z m 798.947,1846.45 c -40.0759,-0.1821 -48.3898,51.424 -47.21,82.415 3.7259,81.0317 38.2915,173.289 115.882,209.843 53.6308,21.5719 114.8905,-10.7462 147.852,-51.639 -36.5348,-93.1647 -89.3472,-197.6414 -188.849,-235.437 -8.9092,-2.9963 -18.2281,-5.1907 -27.675,-5.182 z"
         id="path39"
         inkscape:connector-curvature="0" /><path
         d="M5906.79,395.108l1.022,0.056l1.02,0.098l1.015,0.139l1.008,0.181l1,0.222l0.99,0.263l0.978,0.303l0.965,0.343l0.951,0.382l0.934,0.421l0.915,0.458l0.897,0.496l0.875,0.532l0.015,0.01l0.676,0.446l0.662,0.467l0.646,0.489l0.63,0.51l0.672,0.561l0.851,0.805l0.457,0.446l0.395,0.394l0.726,0.754l0.694,0.784l0.661,0.812l0.074,0.099l0.623,0.664l0.881,0.933l0.897,0.947l0.885,0.927l0.836,0.871l0.75,0.773l0.583,0.595l0.332,0.332l0.688,0.632l0.867,0.804l0.855,0.798l0.861,0.809l0.866,0.82l0.854,0.814l0.844,0.811l0.849,0.821l0.846,0.823l0.842,0.826l0.833,0.822l0.829,0.823l0.827,0.827l0.832,0.837l0.837,0.849l0.81,0.827l0.816,0.837l0.821,0.849l0.81,0.843l0.807,0.845l0.806,0.849l0.81,0.859l0.792,0.846l0.799,0.857l0.793,0.858l0.794,0.861l0.797,0.873l0.772,0.851l0.794,0.877l0.781,0.873l0.767,0.857l0.749,0.844l0.82,0.923l0.786,0.87l0.809,0.885l0.814,0.88l0.811,0.868l0.815,0.86l0.839,0.875l0.842,0.87l0.833,0.852l0.857,0.866l0.86,0.863l0.864,0.855l0.873,0.86l0.877,0.855l0.887,0.857l0.89,0.853l0.899,0.855l0.895,0.846l0.912,0.854l0.92,0.857l0.918,0.849l0.931,0.857l0.929,0.85l0.923,0.84l1.907,1.724l1.914,1.714l1.936,1.724l1.943,1.721l1.961,1.729l5.993,5.269l2.024,1.783l2.031,1.797l2.044,1.814l2.049,1.834l2.047,1.843l1.045,0.948l1.032,0.941l1.029,0.945l1.028,0.947l1.038,0.962l1.036,0.967l1.045,0.982l1.035,0.981l1.02,0.972l1.042,1l1.038,1.008l1.034,1.01l1.03,1.016l1.049,1.043l0.42,0.424l0.411,0.421l0.407,0.423l0.448,0.474l0.741,0.803l0.753,0.837l0.734,0.845l0.679,0.803l0.656,0.796l0.618,0.771l0.595,0.758l0.572,0.747l0.514,0.683l0.506,0.682l0.471,0.648l0.444,0.613l0.796,1.115l0.708,0.993l0.647,0.898l0.268,0.366l0.258,0.347l0.236,0.311l0.253,0.326l0.227,0.288l0.201,0.246l0.204,0.245l0.209,0.242l0.19,0.214l0.248,0.27l0.078,0.083l0.086,0.09l0.093,0.096l0.17,0.171l0.723,0.757l0.69,0.787l0.657,0.816l0.622,0.842l0.587,0.868l0.549,0.891l0.512,0.914l0.473,0.934l0.433,0.953l0.393,0.971l0.352,0.986l0.311,1l0.268,1.012l0.226,1.023l0.183,1.031l0.139,1.037l0.096,1.043l0.052,1.046l0.008,1.047l-0.035,1.047l-0.08,1.044l-0.123,1.04l-0.166,1.033l-0.21,1.026l-0.252,1.017l-0.295,1.004l-0.337,0.992l-0.377,0.976l-0.419,0.96l-0.458,0.942l-0.497,0.921l-0.536,0.9l-0.572,0.877l-0.609,0.852l-0.644,0.826l-0.678,0.798l-0.711,0.769l-0.742,0.738l-0.773,0.707l-0.801,0.674l-0.829,0.639l-0.855,0.605l-0.88,0.568l-0.903,0.53l-0.924,0.493l-0.944,0.453l-0.962,0.413l-0.978,0.373l-0.994,0.331l-1.006,0.29l-1.018,0.247l-1.027,0.204l-1.034,0.161l-1.041,0.118l-1.044,0.074l-1.047,0.03l-1.047,-0.013l-1.046,-0.058l-1.042,-0.101l-1.037,-0.145l-1.03,-0.188l-1.021,-0.231l-1.011,-0.274l-0.998,-0.316l-0.985,-0.357l-0.968,-0.398l-0.951,-0.438l-0.932,-0.478l-0.911,-0.517l-0.888,-0.554l-0.865,-0.591l-0.839,-0.626l-0.812,-0.661l-0.783,-0.695l-0.754,-0.727l-0.357,-0.358l-0.421,-0.432l-0.418,-0.437l-0.415,-0.443l-0.716,-0.777l-0.736,-0.83l-0.686,-0.796l-0.664,-0.794l-0.639,-0.786l-0.588,-0.745l-0.546,-0.704l-0.544,-0.717l-0.508,-0.683l-0.486,-0.665l-0.838,-1.162l-0.768,-1.078l-0.692,-0.968l-0.314,-0.434l-0.294,-0.404l-0.279,-0.376l-0.285,-0.38l-0.249,-0.324l-0.251,-0.32l-0.252,-0.314l-0.245,-0.298l-0.255,-0.301l-0.232,-0.268l-0.256,-0.284l-0.306,-0.332l-0.091,-0.096l-0.144,-0.15l-0.151,-0.155l-0.156,-0.157l-0.849,-0.844l-0.874,-0.862l-0.877,-0.858l-0.882,-0.854l-0.883,-0.849l-0.914,-0.871l-0.902,-0.855l-0.899,-0.845l-0.915,-0.854l-0.917,-0.85l-0.934,-0.86l-0.934,-0.857l-0.938,-0.855l-0.928,-0.842l-1.911,-1.721l-1.92,-1.718l-1.939,-1.722l-1.955,-1.729l-1.97,-1.735l-3.99,-3.509l-2.008,-1.766l-2.03,-1.789l-2.04,-1.807l-2.039,-1.816l-2.05,-1.836l-2.043,-1.847l-1.046,-0.951l-1.036,-0.948l-1.027,-0.945l-1.038,-0.961l-1.027,-0.957l-1.033,-0.967l-1.042,-0.984l-1.032,-0.981l-1.035,-0.993l-1.031,-0.997l-1.034,-1.007l-1.03,-1.014l-1.032,-1.022l-1.027,-1.03l-1.024,-1.035l-1.037,-1.06l-1.018,-1.052l-1.014,-1.059l-1.028,-1.084l-1.02,-1.091l-1.01,-1.092l-1.004,-1.099l-1.016,-1.124l-0.967,-1.088l-0.705,-0.795l-0.694,-0.776l-0.678,-0.758l-0.675,-0.745l-0.698,-0.769l-0.677,-0.742l-0.689,-0.747l-0.688,-0.745l-0.692,-0.741l-0.7,-0.749l-0.689,-0.73l-0.698,-0.735l-0.7,-0.733l-0.702,-0.73l-0.696,-0.721l-0.708,-0.725l-0.716,-0.732l-0.695,-0.705l-0.707,-0.711l-0.716,-0.716l-0.719,-0.714l-0.721,-0.712l-0.714,-0.7l-0.719,-0.7l-0.721,-0.697l-0.731,-0.702l-0.725,-0.692l-0.721,-0.681l-0.731,-0.687l-0.742,-0.692l-0.736,-0.684l-0.868,-0.798l-0.431,-0.405l-0.496,-0.481l-0.816,-0.814l-0.874,-0.892l-0.92,-0.949l-0.976,-1.017l-1.002,-1.05l-0.995,-1.05l-0.954,-1.011l-0.913,-0.972l-0.849,-0.913l-0.752,-0.818l-0.618,-0.685l-0.487,-0.55l-0.805,-0.966l-0.48,-0.649l-0.566,-0.799l-0.535,-0.819l-0.502,-0.841l-0.468,-0.859l-0.435,-0.877l-0.4,-0.893l-0.365,-0.908l-0.329,-0.922l-0.293,-0.934l-0.256,-0.945l-0.001,-0.005l-0.229,-1.005l-0.188,-1.013l-0.146,-1.02l-0.103,-1.025l-0.062,-1.028l-0.019,-1.03l0.024,-1.03l0.066,-1.028l0.108,-1.025l0.151,-1.019l0.192,-1.013l0.234,-1.003l0.275,-0.993l0.316,-0.981l0.356,-0.967l0.395,-0.951l0.434,-0.934l0.473,-0.916l0.509,-0.895l0.546,-0.874l0.582,-0.85l0.616,-0.826l0.65,-0.8l0.682,-0.772l0.714,-0.743l0.002,-0.003l0.739,-0.709l0.768,-0.679l0.794,-0.646l0.821,-0.613l0.844,-0.58l0.868,-0.544l0.89,-0.508l0.909,-0.471l0.928,-0.434l0.945,-0.395l0.96,-0.356l0.974,-0.317l0.987,-0.276l0.996,-0.236l1.006,-0.194l1.013,-0.154l1.018,-0.112l1.022,-0.07l1.024,-0.028l1.024,0.014Z"
         style="fill:#ff0;"
         id="path41" /><path
         style="fill:#ffff00"
         d="m 6046.52,310.861 c 13.1496,0.004 24.7191,11.87484 24.387,25.02 0.1456,10.65429 -7.3281,20.76758 -17.511,23.842 -10.0086,8.85185 -18.7521,19.30773 -30.4326,26.11179 -17.4099,11.30295 -37.8755,16.53952 -55.5818,27.25285 -12.2428,7.60616 -23.1411,17.43833 -36.2114,23.6548 -3.2118,1.26635 -6.6545,1.67352 -9.3622,3.97056 -13.7064,7.7132 -32.7769,-0.1272 -37.7869,-14.85756 -4.9054,-12.40049 1.6703,-27.59843 13.8675,-32.82311 4.8457,-2.41848 10.4122,-2.79155 15.5928,-3.55008 14.7143,-9.80605 28.5834,-21.13488 44.9396,-28.21125 14.8498,-7.18735 31.2653,-11.8311 44.252,-22.37 10.9774,-9.77408 20.5606,-22.58299 35.217,-26.941 2.8049,-0.77713 5.7184,-1.16668 8.63,-1.099 z m -134.398,82.967 c -0.1584,-0.0393 -1.0201,-0.0674 0,0 z m -0.708,-0.056 c -0.7938,-0.0593 -1.8048,-0.0658 0,0 z m 135.051,-32.925 c 1.0006,-0.0335 1.2579,-0.0661 0,0 z"
         id="path43"
         inkscape:connector-curvature="0" /></g></g></svg>