<?xml version="1.0" encoding="UTF-8" standalone="no"?>
<!DOCTYPE svg PUBLIC "-//W3C//DTD SVG 1.1//EN" "http://www.w3.org/Graphics/SVG/1.1/DTD/svg11.dtd">
<svg width="100%" height="100%" viewBox="0 0 1921 1080" version="1.1" xmlns="http://www.w3.org/2000/svg" xmlns:xlink="http://www.w3.org/1999/xlink" xml:space="preserve" xmlns:serif="http://www.serif.com/" style="fill-rule:evenodd;clip-rule:evenodd;stroke-linejoin:round;stroke-miterlimit:1.41421;">
    <g transform="matrix(1,0,0,1,-8,-3540)">
        <g id="layers" transform="matrix(1,0,0,1,-5901.87,3540)">
            <rect x="5910" y="0" width="1920" height="1080"/>
            <g transform="matrix(1.28945,0,0,0.279272,581.26,-297.566)">
                <path d="M5277.89,4187.17L5278.68,4188.14L5279.41,4189.72L5280.07,4191.87L5280.65,4194.51L5281.11,4197.58L5281.46,4200.98L5281.67,4204.59L5281.74,4208.32L5281.74,4664.16L5281.67,4667.89L5281.46,4671.51L5281.11,4674.9L5280.65,4677.97L5280.07,4680.62L5279.41,4682.77L5278.68,4684.35L5277.89,4685.32L5277.08,4685.65L4437.09,4685.65L4436.28,4685.32L4435.5,4684.35L4434.76,4682.77L4434.1,4680.62L4433.53,4677.97L4433.06,4674.9L4432.72,4671.51L4432.51,4667.89L4432.44,4664.16L4432.44,4208.32L4432.51,4204.59L4432.72,4200.98L4433.06,4197.58L4433.53,4194.51L4434.1,4191.87L4434.76,4189.72L4435.5,4188.14L4436.28,4187.17L4437.09,4186.84L5277.08,4186.84L5277.89,4187.17ZM4441.74,4229.81L4441.74,4642.68L5272.43,4642.68L5272.43,4229.81L4441.74,4229.81Z" style="fill:white;"/>
            </g>
            <g transform="matrix(1.28945,0,0,0.279272,581.26,-565.133)">
                <path d="M5277.89,4187.17L5278.68,4188.14L5279.41,4189.72L5280.07,4191.87L5280.65,4194.51L5281.11,4197.58L5281.46,4200.98L5281.67,4204.59L5281.74,4208.32L5281.74,4664.16L5281.67,4667.89L5281.46,4671.51L5281.11,4674.9L5280.65,4677.97L5280.07,4680.62L5279.41,4682.77L5278.68,4684.35L5277.89,4685.32L5277.08,4685.65L4437.09,4685.65L4436.28,4685.32L4435.5,4684.35L4434.76,4682.77L4434.1,4680.62L4433.53,4677.97L4433.06,4674.9L4432.72,4671.51L4432.51,4667.89L4432.44,4664.16L4432.44,4208.32L4432.51,4204.59L4432.72,4200.98L4433.06,4197.58L4433.53,4194.51L4434.1,4191.87L4434.76,4189.72L4435.5,4188.14L4436.28,4187.17L4437.09,4186.84L5277.08,4186.84L5277.89,4187.17ZM4441.74,4229.81L4441.74,4642.68L5272.43,4642.68L5272.43,4229.81L4441.74,4229.81Z" style="fill:white;"/>
            </g>
            <g transform="matrix(1.28945,0,0,0.279272,581.26,-832.7)">
                <path d="M5277.89,4187.17L5278.68,4188.14L5279.41,4189.72L5280.07,4191.87L5280.65,4194.51L5281.11,4197.58L5281.46,4200.98L5281.67,4204.59L5281.74,4208.32L5281.74,4664.16L5281.67,4667.89L5281.46,4671.51L5281.11,4674.9L5280.65,4677.97L5280.07,4680.62L5279.41,4682.77L5278.68,4684.35L5277.89,4685.32L5277.08,4685.65L4437.09,4685.65L4436.28,4685.32L4435.5,4684.35L4434.76,4682.77L4434.1,4680.62L4433.53,4677.97L4433.06,4674.9L4432.72,4671.51L4432.51,4667.89L4432.44,4664.16L4432.44,4208.32L4432.51,4204.59L4432.72,4200.98L4433.06,4197.58L4433.53,4194.51L4434.1,4191.87L4434.76,4189.72L4435.5,4188.14L4436.28,4187.17L4437.09,4186.84L5277.08,4186.84L5277.89,4187.17ZM4441.74,4229.81L4441.74,4642.68L5272.43,4642.68L5272.43,4229.81L4441.74,4229.81Z" style="fill:white;"/>
            </g>
            <g transform="matrix(1.28945,0,0,0.279272,581.26,-1100.27)">
                <path d="M5277.89,4187.17L5278.68,4188.14L5279.41,4189.72L5280.07,4191.87L5280.65,4194.51L5281.11,4197.58L5281.46,4200.98L5281.67,4204.59L5281.74,4208.32L5281.74,4664.16L5281.67,4667.89L5281.46,4671.51L5281.11,4674.9L5280.65,4677.97L5280.07,4680.62L5279.41,4682.77L5278.68,4684.35L5277.89,4685.32L5277.08,4685.65L4437.09,4685.65L4436.28,4685.32L4435.5,4684.35L4434.76,4682.77L4434.1,4680.62L4433.53,4677.97L4433.06,4674.9L4432.72,4671.51L4432.51,4667.89L4432.44,4664.16L4432.44,4208.32L4432.51,4204.59L4432.72,4200.98L4433.06,4197.58L4433.53,4194.51L4434.1,4191.87L4434.76,4189.72L4435.5,4188.14L4436.28,4187.17L4437.09,4186.84L5277.08,4186.84L5277.89,4187.17ZM4441.74,4229.81L4441.74,4642.68L5272.43,4642.68L5272.43,4229.81L4441.74,4229.81Z" style="fill:white;"/>
            </g>
            <g>
                <g transform="matrix(1,0,0,1,5901.87,-3540)">
                    <path d="M374.284,4224.59L376.043,4226.13L377.078,4228.23L377.231,4230.57L376.478,4232.79L374.934,4234.55L374.535,4234.85L374.144,4235.15L373.757,4235.46L373.372,4235.76L372.986,4236.07L372.603,4236.37L372.222,4236.68L371.842,4236.99L371.462,4237.31L371.083,4237.62L370.707,4237.93L370.333,4238.25L369.959,4238.57L369.587,4238.89L369.216,4239.21L368.845,4239.53L368.478,4239.86L368.112,4240.18L367.747,4240.51L367.382,4240.84L367.019,4241.17L366.657,4241.5L366.298,4241.83L365.94,4242.17L365.582,4242.5L365.228,4242.84L364.873,4243.18L364.519,4243.52L364.168,4243.86L363.818,4244.21L363.469,4244.55L363.121,4244.9L362.775,4245.24L362.431,4245.59L362.087,4245.94L361.745,4246.3L361.405,4246.65L361.066,4247.01L360.727,4247.36L360.391,4247.72L360.056,4248.08L359.722,4248.44L359.39,4248.8L359.058,4249.16L358.729,4249.53L358.401,4249.89L358.074,4250.26L357.749,4250.63L357.425,4251L357.102,4251.37L356.781,4251.74L356.461,4252.12L356.141,4252.49L355.824,4252.87L355.509,4253.25L355.194,4253.63L354.882,4254.01L354.57,4254.39L354.259,4254.77L353.951,4255.16L353.643,4255.54L353.336,4255.93L353.031,4256.32L352.729,4256.71L352.426,4257.1L352.126,4257.49L351.826,4257.89L351.528,4258.28L351.232,4258.68L350.936,4259.07L350.642,4259.47L350.351,4259.87L350.06,4260.27L349.77,4260.67L349.482,4261.08L349.194,4261.48L348.909,4261.89L348.625,4262.29L348.342,4262.7L348.061,4263.11L347.781,4263.52L347.503,4263.93L347.225,4264.35L346.95,4264.76L346.676,4265.17L346.402,4265.59L346.131,4266.01L345.861,4266.43L345.591,4266.85L345.323,4267.27L345.058,4267.69L344.793,4268.11L344.53,4268.53L344.268,4268.96L344.007,4269.39L343.749,4269.81L343.491,4270.24L343.235,4270.67L342.979,4271.1L342.726,4271.53L342.474,4271.96L342.223,4272.4L341.973,4272.83L341.725,4273.27L341.478,4273.71L341.234,4274.14L340.99,4274.58L340.747,4275.02L340.506,4275.46L340.267,4275.9L340.028,4276.35L339.791,4276.79L339.556,4277.24L339.322,4277.68L339.089,4278.13L338.858,4278.58L338.628,4279.02L338.399,4279.47L338.172,4279.93L337.946,4280.38L337.722,4280.83L337.499,4281.28L337.278,4281.74L337.058,4282.19L336.839,4282.65L336.622,4283.11L336.406,4283.57L336.191,4284.02L335.978,4284.48L335.767,4284.94L335.556,4285.41L335.347,4285.87L335.14,4286.33L334.934,4286.8L334.729,4287.26L334.526,4287.73L334.324,4288.19L334.123,4288.66L333.924,4289.13L333.727,4289.6L333.53,4290.07L333.335,4290.54L333.142,4291.01L332.95,4291.48L332.759,4291.96L332.57,4292.43L332.382,4292.91L332.196,4293.38L332.011,4293.86L331.827,4294.34L331.645,4294.81L331.464,4295.29L331.285,4295.77L331.107,4296.25L330.93,4296.73L330.755,4297.22L330.582,4297.7L330.409,4298.18L330.238,4298.66L330.069,4299.15L329.901,4299.64L329.734,4300.12L329.569,4300.61L329.405,4301.1L329.242,4301.58L329.082,4302.07L328.922,4302.56L328.764,4303.05L328.607,4303.54L328.452,4304.03L328.298,4304.53L328.145,4305.02L327.994,4305.51L327.844,4306.01L327.696,4306.5L327.549,4306.99L327.403,4307.49L327.26,4307.99L327.117,4308.48L326.976,4308.98L326.836,4309.48L326.697,4309.98L326.56,4310.48L326.425,4310.98L326.291,4311.48L326.158,4311.98L326.027,4312.48L325.897,4312.98L325.768,4313.48L325.641,4313.99L325.516,4314.49L325.392,4314.99L325.269,4315.5L325.148,4316L325.028,4316.51L324.909,4317.02L324.792,4317.52L324.676,4318.03L324.562,4318.54L324.449,4319.04L324.338,4319.55L324.228,4320.06L324.119,4320.57L324.012,4321.08L323.906,4321.59L323.802,4322.1L323.699,4322.61L323.598,4323.12L323.498,4323.64L323.399,4324.15L323.302,4324.66L323.206,4325.17L323.112,4325.69L323.019,4326.2L322.927,4326.71L322.837,4327.23L322.749,4327.74L322.661,4328.26L322.575,4328.77L322.491,4329.29L322.408,4329.81L322.327,4330.32L322.246,4330.84L322.168,4331.36L322.091,4331.87L322.015,4332.39L321.94,4332.91L321.867,4333.43L321.796,4333.94L321.726,4334.46L321.657,4334.98L321.59,4335.5L321.524,4336.02L321.459,4336.54L321.396,4337.06L321.335,4337.58L321.275,4338.1L321.216,4338.62L321.159,4339.14L321.103,4339.66L321.048,4340.19L320.995,4340.71L320.944,4341.23L320.894,4341.75L320.845,4342.27L320.798,4342.8L320.752,4343.32L320.707,4343.84L320.664,4344.36L320.623,4344.89L320.582,4345.41L320.544,4345.93L320.506,4346.46L320.47,4346.98L320.436,4347.5L320.403,4348.03L320.371,4348.55L320.341,4349.08L320.312,4349.6L320.285,4350.12L320.259,4350.65L320.235,4351.17L320.211,4351.7L320.19,4352.22L320.17,4352.74L320.151,4353.27L320.133,4353.79L320.118,4354.32L320.103,4354.84L320.09,4355.37L320.078,4355.89L320.068,4356.42L320.059,4356.94L320.052,4357.47L320.046,4357.99L320.042,4358.52L320.038,4359.04L320.037,4359.57L320.037,4360.09L320.038,4360.61L320.04,4361.14L320.044,4361.66L320.05,4362.19L320.057,4362.71L320.065,4363.23L320.075,4363.76L320.086,4364.28L320.099,4364.81L320.113,4365.33L320.128,4365.85L320.145,4366.38L320.163,4366.9L320.183,4367.43L320.204,4367.95L320.227,4368.47L320.251,4368.99L320.276,4369.52L320.303,4370.04L320.331,4370.56L320.361,4371.08L320.392,4371.61L320.425,4372.13L320.459,4372.65L320.494,4373.17L320.531,4373.69L320.569,4374.21L320.609,4374.73L320.65,4375.26L320.692,4375.78L320.736,4376.3L320.782,4376.82L320.829,4377.34L320.877,4377.86L320.926,4378.38L320.978,4378.89L321.03,4379.41L321.084,4379.93L321.139,4380.45L321.196,4380.97L321.254,4381.48L321.314,4382L321.375,4382.52L321.437,4383.04L321.501,4383.55L321.566,4384.07L321.633,4384.59L321.701,4385.1L321.771,4385.61L321.842,4386.13L321.914,4386.65L321.988,4387.16L322.063,4387.67L322.14,4388.19L322.218,4388.7L322.297,4389.21L322.378,4389.72L322.46,4390.23L322.544,4390.75L322.629,4391.26L322.716,4391.77L322.804,4392.28L322.893,4392.79L322.984,4393.3L323.076,4393.81L323.17,4394.31L323.265,4394.82L323.361,4395.33L323.459,4395.84L323.559,4396.34L323.659,4396.85L323.761,4397.35L323.865,4397.86L323.97,4398.36L324.076,4398.87L324.184,4399.37L324.293,4399.87L324.404,4400.38L324.516,4400.88L324.629,4401.38L324.744,4401.88L324.861,4402.38L324.978,4402.88L325.097,4403.38L325.218,4403.88L325.34,4404.38L325.463,4404.87L325.588,4405.37L325.714,4405.87L325.841,4406.36L325.97,4406.86L326.101,4407.35L326.233,4407.84L326.366,4408.34L326.5,4408.83L326.636,4409.32L326.774,4409.81L326.913,4410.31L327.053,4410.79L327.194,4411.28L327.338,4411.77L327.482,4412.26L327.628,4412.75L327.775,4413.23L327.923,4413.72L328.073,4414.2L328.225,4414.69L328.378,4415.17L328.532,4415.66L328.688,4416.14L328.845,4416.62L329.004,4417.1L329.163,4417.58L329.324,4418.06L329.487,4418.54L329.651,4419.02L329.817,4419.49L329.983,4419.97L330.152,4420.45L330.321,4420.92L330.492,4421.4L330.665,4421.87L330.839,4422.34L331.014,4422.81L331.19,4423.28L331.369,4423.75L331.548,4424.22L331.728,4424.69L331.911,4425.16L332.095,4425.62L332.279,4426.09L332.466,4426.56L332.654,4427.02L332.843,4427.48L333.034,4427.95L333.225,4428.41L333.418,4428.87L333.613,4429.33L333.809,4429.79L334.007,4430.24L334.206,4430.7L334.406,4431.16L334.608,4431.61L334.811,4432.07L335.015,4432.52L335.221,4432.97L335.428,4433.42L335.637,4433.87L335.847,4434.32L336.058,4434.77L336.271,4435.22L336.485,4435.66L336.701,4436.11L336.918,4436.56L337.136,4437L337.356,4437.44L337.577,4437.88L337.799,4438.32L338.022,4438.76L338.248,4439.2L338.475,4439.64L338.702,4440.08L338.931,4440.51L339.163,4440.95L339.395,4441.38L339.628,4441.81L339.862,4442.24L340.099,4442.67L340.336,4443.1L340.575,4443.53L340.815,4443.96L341.057,4444.38L341.301,4444.81L341.545,4445.23L341.79,4445.65L342.037,4446.07L342.286,4446.5L342.536,4446.92L342.787,4447.33L343.04,4447.75L343.293,4448.16L343.549,4448.58L343.806,4448.99L344.064,4449.41L344.324,4449.82L344.585,4450.23L344.847,4450.64L345.11,4451.04L345.375,4451.45L345.641,4451.86L345.909,4452.26L346.178,4452.66L346.449,4453.06L346.72,4453.46L346.993,4453.86L347.268,4454.26L347.543,4454.66L347.82,4455.05L348.1,4455.45L348.379,4455.84L348.66,4456.23L348.942,4456.62L349.228,4457.01L349.512,4457.4L349.799,4457.79L350.088,4458.17L350.376,4458.56L350.667,4458.94L350.959,4459.32L351.253,4459.7L351.548,4460.08L351.844,4460.45L352.142,4460.83L352.44,4461.21L352.74,4461.58L353.043,4461.95L353.345,4462.32L353.649,4462.69L353.954,4463.06L354.261,4463.43L354.57,4463.79L354.881,4464.16L355.192,4464.52L355.504,4464.88L355.817,4465.24L356.132,4465.6L356.449,4465.96L356.767,4466.31L357.085,4466.66L357.405,4467.02L357.728,4467.37L358.051,4467.72L358.38,4468.07L359.158,4468.91L359.932,4469.73L360.701,4470.55L361.468,4471.37L361.848,4471.77L362.228,4472.17L362.606,4472.56L362.983,4472.96L363.362,4473.35L363.737,4473.74L364.114,4474.13L364.49,4474.51L364.865,4474.9L365.24,4475.28L365.614,4475.65L365.99,4476.02L366.364,4476.39L366.739,4476.76L367.115,4477.13L367.49,4477.49L367.865,4477.85L368.242,4478.2L368.618,4478.56L368.997,4478.91L369.184,4479.08L369.375,4479.25L369.563,4479.42L369.751,4479.59L369.943,4479.76L370.132,4479.93L370.322,4480.1L370.511,4480.27L370.701,4480.43L370.895,4480.6L371.086,4480.77L371.277,4480.93L371.469,4481.09L371.661,4481.26L371.853,4481.42L372.046,4481.58L372.239,4481.74L372.433,4481.9L372.627,4482.06L372.819,4482.21L373.017,4482.37L373.213,4482.53L373.406,4482.68L373.603,4482.84L373.8,4482.99L373.998,4483.14L374.193,4483.29L374.393,4483.44L374.592,4483.59L374.789,4483.74L374.987,4483.89L375.188,4484.03L375.391,4484.18L375.594,4484.33L375.794,4484.47L375.995,4484.61L376.2,4484.76L376.402,4484.9L376.605,4485.04L376.812,4485.18L377.02,4485.32L377.226,4485.45L377.428,4485.59L377.639,4485.73L377.85,4485.86L378.055,4485.99L378.264,4486.13L378.478,4486.26L378.69,4486.39L378.901,4486.52L379.114,4486.65L379.325,4486.78L379.543,4486.91L379.759,4487.03L379.976,4487.16L380.194,4487.29L380.409,4487.41L380.633,4487.53L380.853,4487.66L381.072,4487.78L381.295,4487.9L381.515,4488.01L381.74,4488.13L381.967,4488.25L382.194,4488.37L382.423,4488.48L382.649,4488.6L382.876,4488.71L383.108,4488.82L383.342,4488.93L383.573,4489.04L383.823,4489.16L385.709,4490.55L386.921,4492.55L387.275,4494.86L386.716,4497.14L385.329,4499.02L383.326,4500.23L381.012,4500.59L378.739,4500.03L378.462,4499.9L378.17,4499.76L377.882,4499.62L377.596,4499.48L377.307,4499.34L377.02,4499.2L376.738,4499.05L376.457,4498.91L376.177,4498.76L375.899,4498.62L375.618,4498.47L375.342,4498.32L375.063,4498.17L374.79,4498.02L374.522,4497.86L374.247,4497.71L373.977,4497.55L373.708,4497.4L373.441,4497.24L373.179,4497.09L372.91,4496.93L372.647,4496.76L372.384,4496.6L372.123,4496.44L371.866,4496.28L371.607,4496.11L371.345,4495.95L371.092,4495.78L370.84,4495.62L370.582,4495.45L370.328,4495.28L370.08,4495.11L369.832,4494.94L369.581,4494.77L369.332,4494.6L369.088,4494.43L368.841,4494.25L368.594,4494.07L368.353,4493.9L368.112,4493.73L367.873,4493.55L367.631,4493.37L367.389,4493.19L367.153,4493.01L366.917,4492.83L366.679,4492.65L366.445,4492.47L366.212,4492.29L365.98,4492.11L365.745,4491.92L365.515,4491.74L365.288,4491.56L365.057,4491.37L364.829,4491.18L364.602,4490.99L364.376,4490.81L364.15,4490.62L363.926,4490.43L363.702,4490.24L363.479,4490.05L363.257,4489.86L363.035,4489.67L362.818,4489.48L362.597,4489.29L362.378,4489.1L362.159,4488.9L361.942,4488.71L361.727,4488.52L361.511,4488.32L361.295,4488.12L361.082,4487.93L360.866,4487.73L360.443,4487.34L360.021,4486.94L359.602,4486.55L359.184,4486.15L358.768,4485.75L358.356,4485.35L357.945,4484.95L357.536,4484.54L357.13,4484.14L356.724,4483.73L356.32,4483.32L355.918,4482.91L355.518,4482.5L355.119,4482.09L354.72,4481.68L354.324,4481.27L353.928,4480.85L353.533,4480.44L353.139,4480.02L352.744,4479.61L351.961,4478.78L351.177,4477.94L350.393,4477.1L349.605,4476.26L349.251,4475.88L348.895,4475.49L348.541,4475.11L348.187,4474.72L347.834,4474.32L347.483,4473.93L347.136,4473.54L346.788,4473.15L346.442,4472.75L346.098,4472.35L345.755,4471.95L345.415,4471.55L345.076,4471.15L344.738,4470.74L344.402,4470.34L344.067,4469.93L343.733,4469.52L343.403,4469.12L343.073,4468.71L342.744,4468.29L342.418,4467.88L342.092,4467.47L341.769,4467.05L341.447,4466.64L341.126,4466.22L340.807,4465.8L340.489,4465.37L340.174,4464.95L339.86,4464.53L339.546,4464.1L339.237,4463.68L338.927,4463.25L338.619,4462.82L338.311,4462.39L338.008,4461.96L337.704,4461.53L337.402,4461.09L337.103,4460.66L336.804,4460.22L336.506,4459.78L336.211,4459.34L335.918,4458.91L335.626,4458.47L335.335,4458.02L335.046,4457.58L334.758,4457.13L334.472,4456.69L334.187,4456.24L333.905,4455.79L333.623,4455.34L333.343,4454.89L333.066,4454.44L332.789,4453.99L332.513,4453.53L332.239,4453.08L331.968,4452.62L331.698,4452.17L331.429,4451.71L331.161,4451.25L330.895,4450.79L330.631,4450.32L330.369,4449.86L330.108,4449.4L329.848,4448.93L329.59,4448.47L329.334,4448L329.079,4447.53L328.825,4447.06L328.573,4446.59L328.324,4446.12L328.075,4445.65L327.827,4445.18L327.582,4444.7L327.338,4444.23L327.095,4443.75L326.855,4443.27L326.615,4442.8L326.377,4442.32L326.141,4441.84L325.907,4441.35L325.674,4440.87L325.442,4440.39L325.212,4439.9L324.983,4439.42L324.756,4438.93L324.531,4438.45L324.307,4437.96L324.085,4437.47L323.864,4436.98L323.644,4436.49L323.427,4436L323.211,4435.51L322.996,4435.02L322.783,4434.52L322.571,4434.03L322.362,4433.53L322.153,4433.03L321.946,4432.54L321.741,4432.04L321.537,4431.54L321.334,4431.04L321.134,4430.54L320.935,4430.04L320.737,4429.53L320.541,4429.03L320.346,4428.53L320.153,4428.02L319.962,4427.52L319.772,4427.01L319.583,4426.5L319.397,4425.99L319.211,4425.49L319.027,4424.98L318.845,4424.47L318.664,4423.96L318.485,4423.44L318.307,4422.93L318.131,4422.42L317.957,4421.9L317.783,4421.39L317.612,4420.87L317.442,4420.36L317.273,4419.84L317.106,4419.32L316.941,4418.81L316.777,4418.29L316.615,4417.77L316.454,4417.25L316.294,4416.73L316.137,4416.2L315.981,4415.68L315.826,4415.16L315.672,4414.64L315.521,4414.11L315.371,4413.59L315.222,4413.06L315.075,4412.54L314.929,4412.01L314.785,4411.48L314.643,4410.95L314.502,4410.43L314.362,4409.9L314.225,4409.37L314.088,4408.84L313.953,4408.31L313.82,4407.78L313.688,4407.25L313.558,4406.71L313.429,4406.18L313.302,4405.65L313.176,4405.11L313.052,4404.58L312.929,4404.04L312.808,4403.51L312.688,4402.97L312.57,4402.44L312.454,4401.9L312.339,4401.36L312.225,4400.82L312.113,4400.28L312.003,4399.75L311.894,4399.21L311.786,4398.67L311.68,4398.13L311.576,4397.59L311.473,4397.05L311.372,4396.5L311.272,4395.96L311.173,4395.42L311.077,4394.88L310.981,4394.33L310.888,4393.79L310.795,4393.25L310.705,4392.7L310.615,4392.16L310.528,4391.61L310.441,4391.07L310.357,4390.52L310.274,4389.97L310.192,4389.43L310.112,4388.88L310.033,4388.33L309.956,4387.78L309.881,4387.24L309.807,4386.69L309.734,4386.14L309.663,4385.59L309.594,4385.04L309.526,4384.49L309.459,4383.94L309.394,4383.39L309.331,4382.84L309.269,4382.29L309.209,4381.74L309.15,4381.19L309.093,4380.64L309.037,4380.09L308.982,4379.53L308.93,4378.98L308.878,4378.43L308.829,4377.88L308.78,4377.32L308.734,4376.77L308.688,4376.22L308.645,4375.66L308.603,4375.11L308.562,4374.56L308.523,4374L308.485,4373.45L308.449,4372.89L308.414,4372.34L308.381,4371.78L308.35,4371.23L308.32,4370.67L308.291,4370.12L308.264,4369.56L308.239,4369.01L308.215,4368.45L308.192,4367.89L308.171,4367.34L308.152,4366.78L308.134,4366.23L308.117,4365.67L308.103,4365.11L308.089,4364.56L308.077,4364L308.067,4363.44L308.058,4362.89L308.051,4362.33L308.045,4361.77L308.041,4361.21L308.038,4360.66L308.037,4360.1L308.037,4359.54L308.039,4358.99L308.042,4358.43L308.047,4357.87L308.053,4357.31L308.061,4356.76L308.07,4356.2L308.081,4355.64L308.093,4355.09L308.107,4354.53L308.123,4353.97L308.14,4353.41L308.158,4352.86L308.178,4352.3L308.199,4351.74L308.222,4351.19L308.247,4350.63L308.273,4350.07L308.3,4349.52L308.329,4348.96L308.36,4348.4L308.392,4347.85L308.426,4347.29L308.461,4346.73L308.497,4346.18L308.536,4345.62L308.575,4345.06L308.616,4344.51L308.659,4343.95L308.703,4343.4L308.749,4342.84L308.796,4342.29L308.845,4341.73L308.895,4341.18L308.947,4340.62L309,4340.07L309.055,4339.51L309.112,4338.96L309.169,4338.4L309.229,4337.85L309.29,4337.3L309.352,4336.74L309.416,4336.19L309.482,4335.64L309.549,4335.08L309.617,4334.53L309.687,4333.98L309.759,4333.43L309.832,4332.87L309.906,4332.32L309.982,4331.77L310.06,4331.22L310.139,4330.67L310.22,4330.12L310.302,4329.57L310.386,4329.02L310.471,4328.47L310.558,4327.92L310.646,4327.37L310.736,4326.82L310.827,4326.27L310.92,4325.72L311.014,4325.18L311.11,4324.63L311.208,4324.08L311.306,4323.53L311.407,4322.99L311.509,4322.44L311.612,4321.9L311.717,4321.35L311.824,4320.8L311.932,4320.26L312.041,4319.72L312.153,4319.17L312.265,4318.63L312.379,4318.09L312.495,4317.54L312.612,4317L312.731,4316.46L312.851,4315.92L312.973,4315.38L313.097,4314.84L313.221,4314.3L313.348,4313.76L313.476,4313.22L313.605,4312.68L313.736,4312.14L313.868,4311.6L314.003,4311.07L314.138,4310.53L314.275,4309.99L314.414,4309.46L314.554,4308.92L314.696,4308.39L314.839,4307.85L314.984,4307.32L315.13,4306.79L315.278,4306.25L315.427,4305.72L315.578,4305.19L315.73,4304.66L315.884,4304.13L316.04,4303.6L316.196,4303.07L316.355,4302.54L316.515,4302.01L316.677,4301.49L316.84,4300.96L317.005,4300.43L317.171,4299.91L317.338,4299.38L317.508,4298.86L317.678,4298.34L317.851,4297.81L318.025,4297.29L318.2,4296.77L318.377,4296.24L318.556,4295.73L318.735,4295.21L318.917,4294.69L319.1,4294.17L319.285,4293.65L319.471,4293.13L319.659,4292.62L319.848,4292.1L320.039,4291.59L320.231,4291.07L320.425,4290.56L320.621,4290.05L320.818,4289.53L321.016,4289.02L321.217,4288.51L321.418,4288L321.621,4287.49L321.826,4286.98L322.032,4286.48L322.24,4285.97L322.449,4285.46L322.66,4284.96L322.873,4284.45L323.087,4283.95L323.302,4283.45L323.519,4282.95L323.738,4282.44L323.958,4281.94L324.18,4281.44L324.403,4280.95L324.628,4280.45L324.854,4279.95L325.082,4279.45L325.312,4278.96L325.543,4278.47L325.775,4277.97L326.009,4277.48L326.245,4276.99L326.482,4276.5L326.721,4276.01L326.962,4275.52L327.204,4275.03L327.447,4274.54L327.692,4274.06L327.939,4273.57L328.187,4273.09L328.437,4272.6L328.688,4272.12L328.941,4271.64L329.195,4271.16L329.451,4270.68L329.708,4270.2L329.967,4269.72L330.229,4269.25L330.49,4268.77L330.754,4268.3L331.02,4267.82L331.286,4267.35L331.555,4266.88L331.824,4266.41L332.096,4265.94L332.369,4265.47L332.644,4265L332.92,4264.54L333.198,4264.07L333.477,4263.61L333.759,4263.14L334.041,4262.68L334.325,4262.22L334.611,4261.76L334.898,4261.3L335.187,4260.84L335.477,4260.39L335.769,4259.93L336.063,4259.48L336.358,4259.02L336.654,4258.57L336.952,4258.12L337.252,4257.67L337.553,4257.22L337.856,4256.78L338.161,4256.33L338.467,4255.88L338.775,4255.44L339.084,4255L339.395,4254.56L339.707,4254.12L340.021,4253.68L340.336,4253.24L340.653,4252.8L340.973,4252.36L341.293,4251.93L341.614,4251.5L341.938,4251.07L342.263,4250.64L342.589,4250.21L342.917,4249.78L343.247,4249.35L343.579,4248.93L343.911,4248.5L344.246,4248.08L344.581,4247.66L344.92,4247.24L345.258,4246.82L345.599,4246.4L345.942,4245.99L346.285,4245.57L346.631,4245.16L346.979,4244.74L347.326,4244.34L347.677,4243.93L348.029,4243.52L348.382,4243.11L348.737,4242.71L349.094,4242.3L349.452,4241.9L349.812,4241.5L350.174,4241.1L350.536,4240.7L350.9,4240.3L351.267,4239.91L351.635,4239.51L352.004,4239.12L352.374,4238.73L352.747,4238.34L353.121,4237.95L353.496,4237.57L353.874,4237.18L354.252,4236.8L354.633,4236.41L355.015,4236.03L355.398,4235.65L355.783,4235.28L356.171,4234.9L356.558,4234.53L356.947,4234.15L357.34,4233.78L357.733,4233.41L358.127,4233.04L358.524,4232.68L358.922,4232.31L359.321,4231.95L359.721,4231.59L360.123,4231.23L360.528,4230.87L360.935,4230.51L361.342,4230.15L361.75,4229.8L362.161,4229.45L362.572,4229.1L362.987,4228.75L363.403,4228.4L363.819,4228.05L364.236,4227.71L364.656,4227.37L365.079,4227.03L365.502,4226.69L365.926,4226.35L366.353,4226.01L366.781,4225.68L367.209,4225.35L367.631,4225.02L369.731,4223.99L372.067,4223.84L374.284,4224.59Z" style="fill:rgb(255,255,0);"/>
                </g>
                <g transform="matrix(1,0,0,1,5901.87,-3540)">
                    <path d="M360.076,4221.79L360.337,4221.79L360.597,4221.79L360.857,4221.8L361.112,4221.81L361.367,4221.82L361.622,4221.83L361.872,4221.84L362.122,4221.85L362.371,4221.86L362.616,4221.88L362.865,4221.89L363.115,4221.91L363.36,4221.93L363.835,4221.97L364.312,4222L364.785,4222.05L365.249,4222.09L365.707,4222.13L366.606,4222.22L367.484,4222.3L367.91,4222.34L368.333,4222.38L368.747,4222.42L369.154,4222.45L369.566,4222.48L369.758,4222.5L369.949,4222.51L370.146,4222.52L370.336,4222.53L370.527,4222.54L370.722,4222.55L370.906,4222.56L371.089,4222.57L371.272,4222.58L371.449,4222.58L371.631,4222.59L371.812,4222.59L371.988,4222.59L372.179,4222.59L372.457,4222.6L372.733,4222.62L373.008,4222.65L373.282,4222.7L373.553,4222.76L373.821,4222.83L374.085,4222.91L374.345,4223L374.601,4223.11L374.851,4223.23L375.096,4223.36L375.335,4223.5L375.566,4223.65L375.791,4223.82L376.007,4223.99L376.216,4224.17L376.415,4224.36L376.606,4224.57L376.787,4224.77L376.958,4224.99L377.119,4225.22L377.27,4225.45L377.409,4225.69L377.538,4225.94L377.655,4226.19L377.76,4226.44L377.853,4226.71L377.934,4226.97L378.002,4227.24L378.059,4227.51L378.102,4227.78L378.133,4228.06L378.151,4228.34L378.156,4228.61L378.149,4228.89L378.129,4229.17L378.096,4229.44L378.05,4229.72L377.992,4229.99L377.921,4230.26L377.838,4230.52L377.743,4230.78L377.636,4231.03L377.517,4231.29L377.387,4231.53L377.246,4231.77L377.094,4232L376.931,4232.23L376.758,4232.44L376.575,4232.65L376.383,4232.85L376.182,4233.04L375.972,4233.22L375.754,4233.39L375.528,4233.55L375.296,4233.7L375.056,4233.84L374.81,4233.97L374.559,4234.09L374.303,4234.19L374.042,4234.29L373.776,4234.37L373.508,4234.44L373.236,4234.49L372.963,4234.54L372.687,4234.57L372.411,4234.59L372.134,4234.59L371.896,4234.59L371.641,4234.59L371.391,4234.58L371.141,4234.58L370.885,4234.57L370.635,4234.56L370.384,4234.55L370.134,4234.54L369.894,4234.53L369.648,4234.51L369.402,4234.5L369.162,4234.48L368.916,4234.47L368.67,4234.45L368.204,4234.41L367.732,4234.37L367.264,4234.33L366.805,4234.29L366.346,4234.25L365.453,4234.16L364.575,4234.08L364.145,4234.04L363.72,4234L363.302,4233.96L362.89,4233.93L362.476,4233.9L362.275,4233.88L362.08,4233.87L361.886,4233.86L361.685,4233.85L361.491,4233.83L361.296,4233.82L361.101,4233.82L360.913,4233.81L360.724,4233.8L360.535,4233.8L360.352,4233.79L360.17,4233.79L359.987,4233.79L359.805,4233.78L359.623,4233.78L359.447,4233.79L359.277,4233.79L359.101,4233.79L358.925,4233.8L358.756,4233.81L358.587,4233.82L358.4,4233.83L357.965,4233.85L357.504,4233.88L357.046,4233.9L356.586,4233.92L356.127,4233.94L355.67,4233.96L354.762,4234L353.854,4234.03L353.405,4234.05L352.96,4234.07L352.517,4234.09L352.073,4234.12L351.637,4234.14L351.207,4234.16L350.777,4234.19L350.349,4234.22L350.14,4234.24L349.932,4234.25L349.725,4234.27L349.518,4234.29L349.316,4234.31L349.116,4234.32L348.916,4234.35L348.712,4234.37L348.514,4234.39L348.322,4234.41L348.125,4234.43L347.93,4234.46L347.741,4234.48L347.559,4234.5L347.372,4234.53L347.181,4234.56L347.003,4234.59L346.831,4234.61L346.65,4234.65L346.47,4234.68L346.303,4234.71L346.137,4234.74L345.968,4234.77L345.806,4234.81L345.646,4234.84L345.482,4234.88L345.331,4234.91L345.179,4234.95L345.067,4234.98L344.962,4235.01L344.725,4235.07L344.477,4235.14L344.216,4235.21L343.931,4235.29L343.628,4235.37L343.465,4235.41L343.3,4235.45L343.116,4235.5L342.938,4235.54L342.759,4235.59L342.57,4235.63L342.37,4235.67L342.159,4235.71L341.956,4235.75L341.743,4235.79L341.52,4235.82L341.287,4235.86L341.053,4235.89L340.827,4235.91L340.583,4235.94L340.331,4235.95L340.079,4235.97L339.827,4235.98L339.567,4235.99L339.356,4235.99L339.079,4235.99L338.802,4235.97L338.527,4235.94L338.253,4235.9L337.981,4235.84L337.712,4235.77L337.447,4235.69L337.185,4235.6L336.928,4235.5L336.677,4235.38L336.43,4235.26L336.19,4235.12L335.957,4234.97L335.731,4234.81L335.512,4234.64L335.301,4234.46L335.099,4234.27L334.906,4234.07L334.723,4233.86L334.549,4233.64L334.385,4233.42L334.232,4233.19L334.09,4232.95L333.959,4232.71L333.839,4232.46L333.731,4232.2L333.634,4231.94L333.55,4231.68L333.478,4231.41L333.419,4231.14L333.372,4230.87L333.338,4230.59L333.317,4230.32L333.308,4230.04L333.312,4229.76L333.329,4229.48L333.359,4229.21L333.401,4228.94L333.456,4228.66L333.524,4228.4L333.604,4228.13L333.696,4227.87L333.8,4227.61L333.916,4227.36L334.043,4227.11L334.182,4226.87L334.331,4226.64L334.491,4226.41L334.661,4226.19L334.842,4225.98L335.031,4225.78L335.23,4225.59L335.438,4225.4L335.654,4225.23L335.878,4225.07L336.109,4224.91L336.346,4224.77L336.591,4224.64L336.841,4224.52L337.096,4224.41L337.356,4224.32L337.62,4224.23L337.888,4224.16L338.158,4224.1L338.431,4224.06L338.707,4224.02L338.983,4224L339.26,4223.99L339.357,4223.99L339.4,4223.99L339.447,4223.99L339.489,4223.98L339.527,4223.98L339.57,4223.98L339.627,4223.97L339.672,4223.97L339.716,4223.96L339.767,4223.95L339.826,4223.94L339.893,4223.93L339.95,4223.92L340.017,4223.9L340.093,4223.89L340.178,4223.86L340.265,4223.84L340.344,4223.82L340.442,4223.8L340.542,4223.77L340.768,4223.71L341.016,4223.64L341.293,4223.57L341.593,4223.48L341.914,4223.4L342.093,4223.35L342.268,4223.31L342.53,4223.24L342.797,4223.18L343.053,4223.12L343.315,4223.07L343.578,4223.01L343.836,4222.96L344.1,4222.91L344.365,4222.86L344.62,4222.82L344.876,4222.77L345.142,4222.73L345.404,4222.69L345.656,4222.65L345.914,4222.62L346.177,4222.58L346.436,4222.55L346.69,4222.52L346.944,4222.49L347.204,4222.46L347.459,4222.43L347.709,4222.4L347.965,4222.38L348.221,4222.36L348.478,4222.33L348.729,4222.31L348.981,4222.29L349.233,4222.27L349.485,4222.25L349.978,4222.22L350.473,4222.19L350.967,4222.16L351.456,4222.13L351.936,4222.11L352.415,4222.09L352.891,4222.07L353.359,4222.05L354.277,4222.01L355.175,4221.97L355.613,4221.95L356.04,4221.94L356.461,4221.91L356.875,4221.89L357.277,4221.87L357.696,4221.85L357.948,4221.83L358.219,4221.82L358.489,4221.81L358.754,4221.8L359.02,4221.79L359.291,4221.79L359.556,4221.78L359.816,4221.78L360.076,4221.79Z" style="fill:rgb(255,255,0);"/>
                </g>
                <g transform="matrix(1,0,0,1,5901.87,-3540)">
                    <path d="M374.021,4223.24L374.243,4223.25L374.464,4223.27L374.695,4223.31L374.926,4223.34L375.154,4223.39L375.404,4223.45L375.647,4223.52L375.846,4223.59L376.042,4223.66L376.236,4223.74L376.488,4223.85L376.957,4224.11L377.187,4224.26L377.362,4224.38L377.533,4224.5L377.7,4224.63L377.905,4224.8L378.269,4225.15L378.592,4225.52L378.868,4225.88L379.103,4226.24L379.286,4226.57L379.447,4226.9L379.574,4227.2L379.677,4227.48L379.762,4227.75L379.827,4227.98L379.884,4228.22L379.926,4228.43L379.958,4228.62L379.99,4228.84L380.022,4229.14L380.041,4229.44L380.048,4229.7L380.047,4229.94L380.04,4230.16L380.029,4230.36L380.015,4230.55L379.999,4230.72L379.982,4230.88L379.964,4231.03L379.943,4231.19L379.907,4231.43L379.87,4231.66L379.835,4231.86L379.784,4232.14L379.752,4232.31L379.722,4232.49L379.692,4232.66L379.663,4232.83L379.635,4233.01L379.608,4233.18L379.581,4233.35L379.554,4233.53L379.529,4233.7L379.504,4233.87L379.48,4234.05L379.457,4234.22L379.434,4234.4L379.412,4234.57L379.369,4234.92L379.329,4235.27L379.292,4235.63L379.256,4235.98L379.223,4236.34L379.193,4236.7L379.164,4237.06L379.138,4237.43L379.113,4237.82L379.088,4238.19L379.06,4238.58L379.029,4238.96L378.995,4239.35L378.959,4239.73L378.921,4240.12L378.881,4240.5L378.838,4240.88L378.794,4241.26L378.747,4241.63L378.699,4242.01L378.649,4242.38L378.597,4242.75L378.543,4243.12L378.488,4243.49L378.432,4243.86L378.375,4244.23L378.315,4244.59L378.255,4244.96L378.194,4245.32L378.132,4245.68L378.069,4246.04L378.005,4246.4L377.94,4246.76L377.875,4247.11L377.808,4247.47L377.675,4248.17L377.54,4248.87L377.403,4249.56L377.266,4250.25L377.13,4250.93L376.859,4252.29L376.727,4252.96L376.596,4253.62L376.468,4254.28L376.343,4254.94L376.283,4255.27L376.223,4255.59L376.165,4255.91L376.107,4256.24L376.051,4256.56L375.996,4256.88L375.942,4257.2L375.889,4257.52L375.838,4257.84L375.789,4258.15L375.741,4258.47L375.694,4258.78L375.65,4259.1L375.606,4259.41L375.565,4259.72L375.52,4260.07L375.499,4260.23L375.469,4260.42L375.436,4260.61L375.401,4260.79L375.364,4260.97L375.325,4261.14L375.284,4261.31L375.243,4261.47L375.201,4261.62L375.157,4261.78L375.113,4261.93L375.069,4262.07L375.024,4262.21L374.975,4262.36L374.889,4262.61L374.799,4262.86L374.71,4263.09L374.624,4263.32L374.539,4263.53L374.457,4263.73L374.38,4263.92L374.238,4264.27L374.174,4264.43L374.115,4264.57L374.064,4264.7L374.018,4264.82L373.98,4264.92L373.943,4265.02L373.935,4265.05L373.919,4265.23L373.88,4265.52L373.827,4265.8L373.761,4266.08L373.68,4266.36L373.587,4266.64L373.48,4266.9L373.36,4267.17L373.228,4267.43L373.084,4267.68L372.927,4267.92L372.759,4268.16L372.579,4268.39L372.389,4268.61L372.189,4268.82L371.978,4269.02L371.759,4269.2L371.53,4269.38L371.293,4269.55L371.048,4269.7L370.796,4269.85L370.537,4269.98L370.273,4270.1L370.003,4270.2L369.728,4270.3L369.449,4270.37L369.166,4270.44L368.881,4270.49L368.593,4270.53L368.304,4270.55L368.014,4270.56L367.725,4270.56L367.435,4270.54L367.147,4270.51L366.861,4270.46L366.577,4270.4L366.296,4270.33L366.02,4270.24L365.748,4270.14L365.481,4270.03L365.22,4269.9L364.965,4269.76L364.717,4269.61L364.477,4269.45L364.245,4269.28L364.021,4269.09L363.807,4268.9L363.602,4268.69L363.408,4268.48L363.224,4268.25L363.052,4268.02L362.89,4267.78L362.741,4267.53L362.604,4267.27L362.479,4267.01L362.367,4266.74L362.268,4266.47L362.183,4266.19L362.11,4265.91L362.052,4265.63L362.007,4265.34L361.976,4265.06L361.96,4264.77L361.957,4264.48L361.959,4264.32L361.969,4264.09L361.984,4263.86L362.005,4263.65L362.029,4263.44L362.057,4263.23L362.089,4263.04L362.123,4262.85L362.159,4262.67L362.197,4262.5L362.237,4262.33L362.278,4262.16L362.32,4262.01L362.363,4261.85L362.407,4261.7L362.451,4261.56L362.495,4261.42L362.539,4261.28L362.586,4261.15L362.633,4261.01L362.717,4260.78L362.805,4260.54L362.891,4260.32L362.975,4260.11L363.055,4259.91L363.131,4259.73L363.274,4259.38L363.338,4259.22L363.396,4259.08L363.449,4258.94L363.496,4258.82L363.537,4258.71L363.572,4258.62L363.603,4258.53L363.61,4258.51L363.619,4258.48L363.627,4258.45L363.632,4258.44L363.666,4258.17L363.715,4257.8L363.766,4257.43L363.819,4257.06L363.874,4256.69L363.929,4256.32L363.987,4255.96L364.045,4255.59L364.105,4255.23L364.165,4254.87L364.227,4254.51L364.29,4254.15L364.354,4253.79L364.418,4253.44L364.483,4253.08L364.55,4252.73L364.682,4252.03L364.817,4251.33L364.954,4250.64L365.09,4249.95L365.362,4248.58L365.497,4247.91L365.631,4247.24L365.761,4246.57L365.89,4245.91L366.015,4245.25L366.076,4244.92L366.136,4244.6L366.195,4244.27L366.253,4243.95L366.31,4243.62L366.365,4243.3L366.419,4242.98L366.473,4242.66L366.524,4242.34L366.574,4242.02L366.623,4241.7L366.67,4241.39L366.715,4241.07L366.759,4240.76L366.801,4240.44L366.841,4240.13L366.88,4239.82L366.917,4239.51L366.951,4239.2L366.984,4238.89L367.015,4238.58L367.044,4238.27L367.07,4237.96L367.095,4237.66L367.117,4237.35L367.139,4237.03L367.166,4236.61L367.198,4236.16L367.233,4235.73L367.27,4235.28L367.311,4234.84L367.354,4234.4L367.401,4233.97L367.451,4233.52L367.503,4233.09L367.532,4232.86L367.561,4232.64L367.591,4232.42L367.621,4232.2L367.652,4231.98L367.685,4231.76L367.718,4231.54L367.752,4231.32L367.787,4231.1L367.823,4230.88L367.86,4230.66L367.897,4230.44L367.865,4230.29L367.821,4230L367.791,4229.71L367.775,4229.42L367.773,4229.13L367.785,4228.84L367.811,4228.55L367.851,4228.27L367.905,4227.98L367.972,4227.7L368.053,4227.42L368.148,4227.15L368.255,4226.88L368.376,4226.61L368.509,4226.36L368.654,4226.11L368.811,4225.86L368.98,4225.63L369.16,4225.4L369.351,4225.18L369.552,4224.97L369.763,4224.77L369.983,4224.58L370.212,4224.41L370.45,4224.24L370.695,4224.09L370.948,4223.94L371.207,4223.81L371.472,4223.69L371.742,4223.59L372.017,4223.5L372.297,4223.42L372.579,4223.36L372.865,4223.31L373.152,4223.27L373.441,4223.25L373.731,4223.24L374.021,4223.24ZM373.952,4264.75L373.955,4264.66L373.956,4264.65L373.952,4264.75ZM373.343,4235.22L373.523,4235.23L373.242,4235.21L373.343,4235.22ZM372.815,4235.17L373.165,4235.2L372.945,4235.18L372.687,4235.14L372.815,4235.17Z" style="fill:rgb(255,255,0);"/>
                </g>
            </g>
            <g>
                <g transform="matrix(1,0,0,1,5901.87,-3540)">
                    <path d="M369.972,3952.66L370.676,3952.83L371.356,3953.08L372,3953.41L372.599,3953.82L373.145,3954.29L373.63,3954.83L374.046,3955.43L374.387,3956.07L374.649,3956.74L374.828,3957.44L374.921,3958.16L374.926,3958.89L374.844,3959.61L374.676,3960.31L374.424,3960.99L374.093,3961.63L373.685,3962.23L373.209,3962.78L372.878,3963.12L372.557,3963.44L372.236,3963.78L371.917,3964.11L371.599,3964.44L371.282,3964.78L370.968,3965.11L370.655,3965.45L370.342,3965.78L370.031,3966.12L369.722,3966.46L369.414,3966.8L369.107,3967.14L368.802,3967.49L368.499,3967.83L368.196,3968.18L367.895,3968.52L367.596,3968.87L367.296,3969.22L366.999,3969.57L366.705,3969.92L366.41,3970.27L366.118,3970.63L365.826,3970.98L365.536,3971.34L365.247,3971.69L364.96,3972.05L364.674,3972.41L364.39,3972.77L364.106,3973.13L363.824,3973.49L363.544,3973.85L363.265,3974.22L362.987,3974.58L362.711,3974.95L362.435,3975.31L362.162,3975.68L361.889,3976.05L361.618,3976.42L361.349,3976.79L361.081,3977.16L360.813,3977.53L360.548,3977.91L360.283,3978.28L360.021,3978.66L359.76,3979.04L359.499,3979.41L359.24,3979.79L358.982,3980.17L358.726,3980.55L358.472,3980.93L358.218,3981.32L357.966,3981.7L357.715,3982.09L357.465,3982.47L357.217,3982.86L356.971,3983.24L356.725,3983.63L356.48,3984.02L356.238,3984.41L355.996,3984.81L355.756,3985.2L355.517,3985.59L355.28,3985.99L355.043,3986.38L354.809,3986.78L354.575,3987.17L354.343,3987.57L354.112,3987.97L353.882,3988.37L353.654,3988.77L353.427,3989.17L353.201,3989.57L352.977,3989.98L352.754,3990.38L352.532,3990.79L352.312,3991.19L352.093,3991.6L351.875,3992.01L351.659,3992.41L351.444,3992.82L351.23,3993.23L351.017,3993.64L350.806,3994.06L350.596,3994.47L350.388,3994.88L350.181,3995.3L349.974,3995.71L349.77,3996.13L349.567,3996.54L349.365,3996.96L349.164,3997.38L348.965,3997.8L348.766,3998.22L348.569,3998.64L348.374,3999.06L348.179,3999.48L347.986,3999.91L347.795,4000.33L347.605,4000.76L347.415,4001.18L347.228,4001.61L347.041,4002.03L346.856,4002.46L346.672,4002.89L346.489,4003.32L346.308,4003.75L346.128,4004.18L345.949,4004.61L345.772,4005.04L345.596,4005.48L345.421,4005.91L345.247,4006.35L345.075,4006.78L344.904,4007.22L344.734,4007.65L344.565,4008.09L344.398,4008.53L344.232,4008.97L344.068,4009.41L343.904,4009.85L343.742,4010.29L343.581,4010.73L343.422,4011.17L343.263,4011.61L343.106,4012.06L342.951,4012.5L342.796,4012.95L342.643,4013.39L342.491,4013.84L342.34,4014.29L342.191,4014.73L342.043,4015.18L341.896,4015.63L341.75,4016.08L341.606,4016.53L341.463,4016.98L341.321,4017.43L341.181,4017.88L341.041,4018.33L340.903,4018.79L340.766,4019.24L340.631,4019.69L340.497,4020.15L340.364,4020.6L340.232,4021.06L340.101,4021.51L339.972,4021.97L339.844,4022.43L339.717,4022.89L339.592,4023.35L339.468,4023.81L339.345,4024.27L339.223,4024.73L339.102,4025.19L338.983,4025.65L338.865,4026.11L338.748,4026.57L338.633,4027.04L338.519,4027.5L338.405,4027.96L338.294,4028.43L338.183,4028.89L338.074,4029.36L337.966,4029.82L337.859,4030.29L337.753,4030.76L337.649,4031.23L337.546,4031.69L337.444,4032.16L337.343,4032.63L337.244,4033.1L337.146,4033.57L337.049,4034.04L336.953,4034.51L336.858,4034.98L336.765,4035.45L336.673,4035.93L336.582,4036.4L336.493,4036.87L336.404,4037.34L336.317,4037.82L336.231,4038.29L336.146,4038.77L336.063,4039.24L335.981,4039.72L335.9,4040.19L335.82,4040.67L335.741,4041.14L335.664,4041.62L335.587,4042.1L335.512,4042.58L335.439,4043.05L335.366,4043.53L335.295,4044.01L335.225,4044.49L335.156,4044.97L335.088,4045.45L335.021,4045.93L334.956,4046.41L334.892,4046.89L334.829,4047.37L334.767,4047.85L334.707,4048.34L334.647,4048.82L334.589,4049.3L334.532,4049.78L334.477,4050.26L334.422,4050.75L334.369,4051.23L334.317,4051.72L334.266,4052.2L334.216,4052.68L334.168,4053.17L334.12,4053.65L334.074,4054.14L334.029,4054.62L333.985,4055.11L333.943,4055.6L333.901,4056.08L333.861,4056.57L333.822,4057.05L333.784,4057.54L333.747,4058.03L333.712,4058.51L333.678,4059L333.644,4059.49L333.612,4059.98L333.582,4060.47L333.552,4060.95L333.523,4061.44L333.496,4061.93L333.47,4062.42L333.445,4062.91L333.421,4063.4L333.399,4063.89L333.377,4064.38L333.357,4064.87L333.338,4065.36L333.32,4065.85L333.303,4066.34L333.288,4066.83L333.273,4067.32L333.26,4067.81L333.248,4068.3L333.237,4068.79L333.227,4069.28L333.218,4069.77L333.211,4070.26L333.205,4070.75L333.199,4071.24L333.195,4071.74L333.192,4072.23L333.191,4072.72L333.19,4073.21L333.191,4073.7L333.192,4074.19L333.195,4074.69L333.199,4075.18L333.204,4075.67L333.211,4076.16L333.218,4076.65L333.227,4077.15L333.236,4077.64L333.247,4078.13L333.259,4078.62L333.272,4079.12L333.286,4079.61L333.302,4080.1L333.318,4080.59L333.336,4081.08L333.355,4081.58L333.374,4082.07L333.396,4082.56L333.418,4083.05L333.441,4083.55L333.465,4084.04L333.491,4084.53L333.517,4085.02L333.545,4085.51L333.574,4086.01L333.604,4086.5L333.635,4086.99L333.667,4087.48L333.701,4087.97L333.735,4088.46L333.771,4088.96L333.807,4089.45L333.845,4089.94L333.884,4090.43L333.924,4090.92L333.965,4091.41L334.007,4091.91L334.051,4092.4L334.095,4092.89L334.141,4093.38L334.187,4093.87L334.235,4094.36L334.284,4094.85L334.334,4095.34L334.385,4095.83L334.437,4096.32L334.49,4096.81L334.544,4097.3L334.6,4097.79L334.656,4098.28L334.714,4098.77L334.772,4099.26L334.832,4099.74L334.893,4100.23L334.955,4100.72L335.018,4101.21L335.082,4101.7L335.147,4102.19L335.213,4102.68L335.281,4103.16L335.349,4103.65L335.418,4104.14L335.489,4104.62L335.56,4105.11L335.633,4105.6L335.707,4106.08L335.782,4106.57L335.857,4107.06L335.934,4107.54L336.013,4108.03L336.092,4108.51L336.172,4109L336.253,4109.48L336.335,4109.96L336.418,4110.45L336.503,4110.93L336.588,4111.42L336.675,4111.9L336.762,4112.38L336.851,4112.86L336.94,4113.35L337.031,4113.83L337.123,4114.31L337.216,4114.79L337.31,4115.27L337.404,4115.75L337.5,4116.23L337.597,4116.71L337.695,4117.19L337.794,4117.67L337.895,4118.15L337.996,4118.63L338.098,4119.11L338.201,4119.58L338.305,4120.06L338.41,4120.54L338.517,4121.02L338.624,4121.49L338.732,4121.97L338.842,4122.44L338.952,4122.92L339.064,4123.39L339.176,4123.87L339.29,4124.34L339.404,4124.81L339.52,4125.29L339.636,4125.76L339.754,4126.23L339.872,4126.7L339.992,4127.17L340.112,4127.65L340.234,4128.12L340.357,4128.59L340.48,4129.06L340.605,4129.52L340.73,4129.99L340.857,4130.46L340.985,4130.93L341.113,4131.4L341.243,4131.86L341.374,4132.33L341.505,4132.79L341.638,4133.26L341.772,4133.72L341.906,4134.19L342.042,4134.65L342.178,4135.11L342.316,4135.58L342.455,4136.04L342.594,4136.5L342.735,4136.96L342.876,4137.42L343.019,4137.88L343.162,4138.34L343.307,4138.8L343.452,4139.26L343.599,4139.72L343.746,4140.17L343.895,4140.63L344.044,4141.09L344.194,4141.54L344.346,4141.99L344.498,4142.45L344.651,4142.9L344.806,4143.36L344.961,4143.81L345.117,4144.26L345.274,4144.71L345.432,4145.16L345.591,4145.61L345.751,4146.06L345.912,4146.51L346.074,4146.96L346.237,4147.4L346.401,4147.85L346.565,4148.3L346.731,4148.74L346.898,4149.19L347.065,4149.63L347.234,4150.07L347.403,4150.52L347.574,4150.96L347.745,4151.4L347.918,4151.84L348.091,4152.28L348.265,4152.72L348.44,4153.16L348.616,4153.59L348.793,4154.03L348.971,4154.47L349.15,4154.9L349.33,4155.34L349.511,4155.77L349.692,4156.2L349.875,4156.64L350.058,4157.07L350.243,4157.5L350.428,4157.93L350.614,4158.36L350.801,4158.79L350.989,4159.22L351.178,4159.65L351.368,4160.07L351.559,4160.5L351.751,4160.92L351.943,4161.35L352.137,4161.77L352.331,4162.19L352.527,4162.61L352.723,4163.03L352.92,4163.45L353.118,4163.87L353.317,4164.29L353.517,4164.71L353.717,4165.13L353.919,4165.54L354.122,4165.96L354.325,4166.37L354.529,4166.78L354.734,4167.2L354.941,4167.61L355.147,4168.02L355.355,4168.43L355.564,4168.84L355.774,4169.25L355.984,4169.65L356.195,4170.06L356.408,4170.47L356.62,4170.87L356.834,4171.27L357.049,4171.68L357.265,4172.08L357.481,4172.48L357.698,4172.88L357.917,4173.28L358.136,4173.68L358.356,4174.07L358.577,4174.47L358.798,4174.87L359.021,4175.26L359.245,4175.65L359.469,4176.05L359.694,4176.44L359.92,4176.83L360.147,4177.22L360.374,4177.61L360.602,4177.99L360.832,4178.38L361.062,4178.77L361.293,4179.15L361.525,4179.53L361.758,4179.92L361.991,4180.3L362.225,4180.68L362.461,4181.06L362.697,4181.44L362.933,4181.82L363.171,4182.19L363.41,4182.57L363.649,4182.94L363.889,4183.31L364.13,4183.69L364.371,4184.06L364.614,4184.43L364.857,4184.8L365.102,4185.17L365.347,4185.53L365.592,4185.9L365.84,4186.26L366.086,4186.63L366.334,4186.99L366.584,4187.35L366.834,4187.71L367.083,4188.07L367.335,4188.43L367.593,4188.79L367.974,4189.41L368.279,4190.07L368.501,4190.76L368.64,4191.47L368.691,4192.19L368.655,4192.91L368.532,4193.63L368.324,4194.32L368.033,4194.99L367.665,4195.61L367.224,4196.19L366.717,4196.7L366.152,4197.16L365.536,4197.54L364.878,4197.84L364.189,4198.07L363.478,4198.2L362.755,4198.25L362.031,4198.22L361.317,4198.1L360.623,4197.89L359.959,4197.6L359.335,4197.23L358.76,4196.79L358.243,4196.28L357.79,4195.72L357.523,4195.34L357.251,4194.95L356.98,4194.56L356.71,4194.17L356.442,4193.78L356.174,4193.39L355.906,4193L355.641,4192.6L355.375,4192.21L355.111,4191.81L354.849,4191.42L354.586,4191.02L354.325,4190.62L354.064,4190.22L353.805,4189.82L353.546,4189.42L353.289,4189.01L353.033,4188.61L352.777,4188.21L352.522,4187.8L352.268,4187.39L352.016,4186.99L351.764,4186.58L351.513,4186.17L351.263,4185.76L351.015,4185.34L350.766,4184.93L350.519,4184.52L350.274,4184.1L350.028,4183.69L349.784,4183.27L349.541,4182.85L349.299,4182.43L349.058,4182.01L348.817,4181.59L348.578,4181.17L348.34,4180.75L348.103,4180.33L347.866,4179.9L347.63,4179.48L347.396,4179.05L347.163,4178.62L346.931,4178.2L346.698,4177.77L346.468,4177.34L346.239,4176.91L346.01,4176.48L345.782,4176.04L345.556,4175.61L345.331,4175.18L345.105,4174.74L344.881,4174.31L344.659,4173.87L344.437,4173.43L344.216,4172.99L343.997,4172.56L343.778,4172.11L343.56,4171.67L343.343,4171.23L343.128,4170.79L342.913,4170.35L342.699,4169.9L342.486,4169.46L342.274,4169.01L342.063,4168.57L341.853,4168.12L341.644,4167.67L341.437,4167.22L341.23,4166.77L341.024,4166.32L340.819,4165.87L340.615,4165.42L340.412,4164.97L340.21,4164.51L340.009,4164.06L339.809,4163.6L339.61,4163.15L339.412,4162.69L339.215,4162.23L339.019,4161.78L338.825,4161.32L338.631,4160.86L338.438,4160.4L338.246,4159.94L338.055,4159.48L337.865,4159.01L337.676,4158.55L337.489,4158.09L337.302,4157.62L337.116,4157.16L336.931,4156.69L336.747,4156.22L336.565,4155.76L336.383,4155.29L336.202,4154.82L336.023,4154.35L335.844,4153.88L335.666,4153.41L335.49,4152.94L335.314,4152.47L335.14,4151.99L334.966,4151.52L334.794,4151.05L334.622,4150.57L334.452,4150.1L334.282,4149.62L334.114,4149.15L333.946,4148.67L333.78,4148.19L333.615,4147.72L333.451,4147.24L333.288,4146.76L333.125,4146.28L332.964,4145.8L332.804,4145.32L332.645,4144.83L332.487,4144.35L332.33,4143.87L332.174,4143.39L332.019,4142.9L331.866,4142.42L331.713,4141.93L331.561,4141.45L331.41,4140.96L331.261,4140.48L331.112,4139.99L330.965,4139.5L330.818,4139.01L330.673,4138.52L330.528,4138.03L330.385,4137.54L330.243,4137.05L330.102,4136.56L329.962,4136.07L329.823,4135.58L329.685,4135.09L329.548,4134.6L329.412,4134.1L329.277,4133.61L329.144,4133.11L329.011,4132.62L328.879,4132.12L328.749,4131.63L328.619,4131.13L328.491,4130.64L328.364,4130.14L328.238,4129.64L328.112,4129.14L327.988,4128.65L327.865,4128.15L327.744,4127.65L327.623,4127.15L327.503,4126.65L327.384,4126.15L327.267,4125.65L327.15,4125.15L327.035,4124.64L326.921,4124.14L326.807,4123.64L326.695,4123.14L326.584,4122.63L326.474,4122.13L326.365,4121.63L326.258,4121.12L326.151,4120.62L326.045,4120.11L325.941,4119.61L325.838,4119.1L325.735,4118.6L325.634,4118.09L325.534,4117.58L325.435,4117.07L325.337,4116.57L325.241,4116.06L325.145,4115.55L325.051,4115.04L324.957,4114.54L324.865,4114.03L324.774,4113.52L324.684,4113.01L324.595,4112.5L324.507,4111.99L324.42,4111.48L324.335,4110.97L324.25,4110.45L324.167,4109.94L324.084,4109.43L324.003,4108.92L323.923,4108.41L323.844,4107.9L323.767,4107.38L323.69,4106.87L323.615,4106.36L323.54,4105.84L323.467,4105.33L323.395,4104.82L323.324,4104.3L323.254,4103.79L323.186,4103.27L323.118,4102.76L323.052,4102.24L322.986,4101.73L322.922,4101.21L322.859,4100.7L322.797,4100.18L322.737,4099.67L322.677,4099.15L322.619,4098.64L322.562,4098.12L322.505,4097.6L322.451,4097.09L322.397,4096.57L322.344,4096.05L322.293,4095.53L322.242,4095.02L322.193,4094.5L322.145,4093.98L322.098,4093.46L322.053,4092.95L322.008,4092.43L321.965,4091.91L321.923,4091.39L321.882,4090.87L321.842,4090.35L321.803,4089.84L321.765,4089.32L321.729,4088.8L321.694,4088.28L321.66,4087.76L321.627,4087.24L321.595,4086.72L321.565,4086.2L321.536,4085.68L321.508,4085.16L321.481,4084.64L321.455,4084.12L321.43,4083.61L321.407,4083.09L321.385,4082.57L321.364,4082.05L321.344,4081.53L321.325,4081.01L321.308,4080.49L321.292,4079.97L321.277,4079.45L321.263,4078.93L321.25,4078.41L321.239,4077.89L321.229,4077.37L321.22,4076.85L321.212,4076.33L321.205,4075.81L321.2,4075.29L321.195,4074.77L321.192,4074.25L321.191,4073.73L321.19,4073.21L321.191,4072.69L321.193,4072.17L321.196,4071.65L321.2,4071.13L321.205,4070.61L321.212,4070.09L321.22,4069.57L321.229,4069.06L321.24,4068.54L321.251,4068.02L321.264,4067.5L321.278,4066.98L321.293,4066.46L321.31,4065.94L321.328,4065.42L321.347,4064.9L321.367,4064.39L321.388,4063.87L321.411,4063.35L321.435,4062.83L321.46,4062.31L321.486,4061.8L321.514,4061.28L321.543,4060.76L321.573,4060.24L321.604,4059.72L321.637,4059.21L321.671,4058.69L321.706,4058.17L321.743,4057.66L321.78,4057.14L321.819,4056.62L321.859,4056.11L321.901,4055.59L321.943,4055.08L321.987,4054.56L322.032,4054.05L322.079,4053.53L322.127,4053.02L322.176,4052.5L322.226,4051.99L322.277,4051.47L322.33,4050.96L322.384,4050.45L322.44,4049.93L322.496,4049.42L322.554,4048.9L322.613,4048.39L322.674,4047.88L322.735,4047.37L322.798,4046.85L322.863,4046.34L322.928,4045.83L322.995,4045.32L323.063,4044.81L323.133,4044.3L323.204,4043.79L323.276,4043.28L323.349,4042.77L323.424,4042.26L323.5,4041.75L323.577,4041.24L323.655,4040.73L323.735,4040.22L323.816,4039.71L323.899,4039.21L323.982,4038.7L324.067,4038.19L324.154,4037.68L324.241,4037.18L324.33,4036.67L324.421,4036.17L324.512,4035.66L324.605,4035.16L324.699,4034.65L324.795,4034.15L324.892,4033.64L324.99,4033.14L325.09,4032.64L325.191,4032.13L325.293,4031.63L325.396,4031.13L325.501,4030.63L325.607,4030.13L325.715,4029.63L325.824,4029.13L325.934,4028.63L326.045,4028.13L326.158,4027.63L326.272,4027.13L326.388,4026.63L326.505,4026.13L326.623,4025.64L326.743,4025.14L326.863,4024.64L326.986,4024.15L327.109,4023.65L327.234,4023.16L327.361,4022.66L327.488,4022.17L327.617,4021.67L327.748,4021.18L327.88,4020.69L328.013,4020.2L328.147,4019.7L328.283,4019.21L328.42,4018.72L328.559,4018.23L328.699,4017.74L328.84,4017.25L328.983,4016.77L329.127,4016.28L329.273,4015.79L329.419,4015.3L329.567,4014.82L329.717,4014.33L329.868,4013.85L330.021,4013.36L330.174,4012.88L330.329,4012.39L330.486,4011.91L330.644,4011.43L330.803,4010.95L330.964,4010.47L331.126,4009.99L331.289,4009.51L331.455,4009.03L331.621,4008.55L331.789,4008.07L331.958,4007.59L332.128,4007.11L332.3,4006.64L332.473,4006.16L332.648,4005.69L332.824,4005.21L333.002,4004.74L333.181,4004.27L333.361,4003.79L333.543,4003.32L333.726,4002.85L333.911,4002.38L334.097,4001.91L334.284,4001.44L334.473,4000.97L334.664,4000.5L334.856,4000.04L335.049,3999.57L335.244,3999.1L335.44,3998.64L335.637,3998.18L335.836,3997.71L336.037,3997.25L336.238,3996.79L336.442,3996.33L336.646,3995.87L336.852,3995.4L337.06,3994.95L337.269,3994.49L337.48,3994.03L337.692,3993.57L337.905,3993.12L338.12,3992.66L338.336,3992.21L338.554,3991.75L338.773,3991.3L338.994,3990.85L339.216,3990.39L339.439,3989.95L339.665,3989.49L339.892,3989.05L340.12,3988.6L340.349,3988.15L340.58,3987.7L340.812,3987.26L341.047,3986.81L341.282,3986.37L341.519,3985.92L341.757,3985.48L341.997,3985.04L342.238,3984.6L342.481,3984.16L342.725,3983.72L342.971,3983.28L343.218,3982.85L343.468,3982.41L343.717,3981.97L343.969,3981.54L344.223,3981.1L344.477,3980.67L344.733,3980.24L344.991,3979.81L345.25,3979.38L345.511,3978.95L345.773,3978.52L346.037,3978.09L346.303,3977.67L346.569,3977.24L346.837,3976.82L347.107,3976.39L347.379,3975.97L347.651,3975.55L347.926,3975.13L348.201,3974.71L348.478,3974.29L348.758,3973.87L349.039,3973.45L349.32,3973.04L349.603,3972.62L349.888,3972.21L350.175,3971.8L350.463,3971.39L350.752,3970.98L351.044,3970.57L351.336,3970.16L351.63,3969.75L351.926,3969.34L352.223,3968.94L352.522,3968.53L352.823,3968.13L353.124,3967.73L353.427,3967.33L353.732,3966.93L354.038,3966.53L354.347,3966.13L354.657,3965.73L354.967,3965.34L355.28,3964.94L355.594,3964.55L355.91,3964.15L356.227,3963.76L356.546,3963.37L356.867,3962.98L357.188,3962.59L357.512,3962.21L357.838,3961.82L358.164,3961.44L358.491,3961.05L358.822,3960.67L359.153,3960.29L359.486,3959.91L359.821,3959.53L360.157,3959.15L360.494,3958.78L360.833,3958.4L361.174,3958.03L361.516,3957.65L361.86,3957.28L362.206,3956.91L362.553,3956.54L362.901,3956.17L363.251,3955.81L363.603,3955.44L363.956,3955.08L364.311,3954.71L364.66,3954.36L365.199,3953.87L365.792,3953.46L366.431,3953.12L367.107,3952.85L367.809,3952.68L368.527,3952.58L369.252,3952.58L369.972,3952.66Z" style="fill:rgb(255,255,0);"/>
                </g>
                <g transform="matrix(1,0,0,1,5901.87,-3540)">
                    <path d="M335.518,3957.37L335.791,3957.4L335.843,3957.41L335.907,3957.39L336.036,3957.36L336.177,3957.33L336.323,3957.29L336.46,3957.25L336.601,3957.21L336.76,3957.17L337.026,3957.1L337.311,3957.02L337.6,3956.94L337.885,3956.87L338.16,3956.8L338.436,3956.74L338.716,3956.67L338.992,3956.61L339.258,3956.55L339.529,3956.49L339.801,3956.43L340.067,3956.37L340.582,3956.27L341.095,3956.16L341.601,3956.06L342.097,3955.96L342.58,3955.87L343.056,3955.77L343.53,3955.67L343.751,3955.62L343.978,3955.58L344.21,3955.53L344.431,3955.48L344.648,3955.43L344.861,3955.38L345.166,3955.31L345.471,3955.23L345.78,3955.15L346.088,3955.07L346.4,3954.99L346.715,3954.91L347.034,3954.82L347.359,3954.73L347.684,3954.63L348.009,3954.54L348.68,3954.35L349.36,3954.15L350.054,3953.94L350.756,3953.74L351.118,3953.64L351.483,3953.53L351.848,3953.43L352.214,3953.33L352.591,3953.23L352.971,3953.13L353.349,3953.03L353.735,3952.94L354.128,3952.84L354.515,3952.75L354.718,3952.71L354.914,3952.66L355.117,3952.62L355.32,3952.58L355.517,3952.54L355.728,3952.49L355.932,3952.45L356.136,3952.41L356.306,3952.38L356.474,3952.35L356.778,3952.3L357.093,3952.25L357.409,3952.2L357.724,3952.16L358.03,3952.12L358.331,3952.08L358.627,3952.05L358.923,3952.01L359.214,3951.98L359.5,3951.95L359.787,3951.93L360.063,3951.91L360.344,3951.88L360.879,3951.84L361.398,3951.8L361.908,3951.76L362.407,3951.72L362.643,3951.7L362.879,3951.68L363.109,3951.66L363.335,3951.64L363.561,3951.62L363.787,3951.6L364.003,3951.58L364.209,3951.55L364.42,3951.52L364.627,3951.5L364.641,3951.49L364.685,3951.49L364.716,3951.48L364.765,3951.47L364.831,3951.45L364.906,3951.43L364.982,3951.41L365.075,3951.39L365.184,3951.35L365.285,3951.32L365.403,3951.29L365.687,3951.2L365.987,3951.11L366.161,3951.06L366.344,3951L366.527,3950.95L366.727,3950.9L366.937,3950.84L367.163,3950.78L367.399,3950.73L367.636,3950.68L367.875,3950.63L368.007,3950.6L368.149,3950.58L368.292,3950.56L368.434,3950.53L368.577,3950.51L368.721,3950.5L368.883,3950.48L369.027,3950.46L369.189,3950.45L369.352,3950.44L369.497,3950.43L369.66,3950.42L369.842,3950.42L369.969,3950.42L370.254,3950.42L370.539,3950.44L370.823,3950.47L371.105,3950.52L371.384,3950.58L371.66,3950.65L371.933,3950.74L372.201,3950.84L372.464,3950.95L372.722,3951.07L372.974,3951.2L373.218,3951.35L373.456,3951.51L373.685,3951.68L373.907,3951.86L374.119,3952.05L374.322,3952.25L374.516,3952.46L374.699,3952.68L374.871,3952.91L375.033,3953.14L375.183,3953.39L375.321,3953.64L375.448,3953.89L375.562,3954.16L375.663,3954.42L375.752,3954.69L375.828,3954.97L375.89,3955.25L375.939,3955.53L375.975,3955.81L375.997,3956.1L376.005,3956.38L376,3956.67L375.982,3956.95L375.95,3957.24L375.904,3957.52L375.845,3957.8L375.773,3958.07L375.687,3958.35L375.589,3958.61L375.478,3958.88L375.355,3959.14L375.22,3959.39L375.073,3959.63L374.914,3959.87L374.744,3960.1L374.564,3960.32L374.373,3960.53L374.172,3960.74L373.962,3960.93L373.743,3961.11L373.516,3961.29L373.28,3961.45L373.037,3961.6L372.787,3961.74L372.531,3961.86L372.27,3961.97L372.003,3962.08L371.731,3962.16L371.456,3962.24L371.177,3962.3L370.896,3962.35L370.612,3962.39L370.328,3962.41L370.125,3962.42L370.094,3962.42L370.047,3962.43L369.998,3962.44L369.94,3962.46L369.865,3962.48L369.78,3962.5L369.679,3962.53L369.577,3962.56L369.467,3962.59L369.197,3962.68L368.911,3962.76L368.743,3962.82L368.559,3962.87L368.383,3962.92L368.19,3962.98L367.98,3963.03L367.769,3963.09L367.549,3963.14L367.312,3963.2L367.056,3963.25L366.816,3963.3L366.665,3963.32L366.54,3963.34L366.397,3963.37L366.247,3963.39L365.946,3963.43L365.645,3963.47L365.338,3963.5L365.042,3963.53L364.755,3963.56L364.469,3963.59L364.183,3963.62L363.901,3963.64L363.625,3963.66L363.349,3963.69L362.824,3963.73L362.31,3963.76L361.806,3963.8L361.317,3963.84L361.087,3963.86L360.851,3963.88L360.626,3963.9L360.401,3963.93L360.18,3963.95L359.965,3963.97L359.75,3963.99L359.54,3964.02L359.334,3964.05L359.139,3964.08L358.943,3964.11L358.747,3964.14L358.541,3964.17L358.452,3964.19L358.367,3964.2L358.223,3964.23L358.078,3964.26L357.94,3964.29L357.788,3964.32L357.644,3964.35L357.5,3964.38L357.348,3964.41L357.204,3964.45L356.898,3964.52L356.6,3964.59L356.294,3964.67L355.982,3964.75L355.674,3964.83L355.362,3964.91L355.041,3965L354.719,3965.09L354.397,3965.18L354.074,3965.27L353.404,3965.47L352.728,3965.66L352.038,3965.87L351.338,3966.07L350.977,3966.17L350.616,3966.28L350.254,3966.38L349.885,3966.48L349.512,3966.58L349.135,3966.68L348.754,3966.78L348.372,3966.88L347.986,3966.97L347.599,3967.06L347.319,3967.13L347.042,3967.19L346.771,3967.25L346.509,3967.31L346.243,3967.36L345.971,3967.42L345.458,3967.53L344.947,3967.63L344.445,3967.73L343.955,3967.83L343.475,3967.92L343.003,3968.02L342.535,3968.12L342.309,3968.17L342.089,3968.21L341.868,3968.26L341.643,3968.31L341.428,3968.36L341.218,3968.41L341.003,3968.46L340.788,3968.52L340.583,3968.57L340.382,3968.62L340.177,3968.68L339.954,3968.74L339.774,3968.79L339.574,3968.84L339.368,3968.89L339.169,3968.95L338.964,3969L338.746,3969.05L338.536,3969.1L338.334,3969.15L338.119,3969.2L337.904,3969.25L337.691,3969.29L337.465,3969.34L337.247,3969.38L337.03,3969.42L336.814,3969.46L336.538,3969.51L336.291,3969.55L335.986,3969.58L335.622,3969.6L335.314,3969.6L334.972,3969.59L334.604,3969.55L334.268,3969.5L333.907,3969.43L333.515,3969.33L333.177,3969.21L332.849,3969.09L332.466,3968.91L332.104,3968.72L331.805,3968.53L331.528,3968.34L331.206,3968.09L330.949,3967.86L330.681,3967.6L330.445,3967.33L330.262,3967.11L330.043,3966.81L329.824,3966.47L329.656,3966.16L329.591,3966.03L329.47,3965.77L329.361,3965.5L329.354,3965.48L329.272,3965.25L329.199,3965.01L329.135,3964.77L329.134,3964.77L329.077,3964.51L329.032,3964.25L328.998,3963.99L328.998,3963.98L328.975,3963.71L328.965,3963.43L328.968,3963.16L328.983,3962.88L329.011,3962.61L329.011,3962.6L329.052,3962.33L329.106,3962.05L329.173,3961.78L329.252,3961.51L329.343,3961.25L329.446,3960.99L329.562,3960.74L329.689,3960.49L329.828,3960.25L329.977,3960.01L330.138,3959.78L330.308,3959.56L330.31,3959.56L330.492,3959.35L330.683,3959.14L330.885,3958.95L331.095,3958.76L331.313,3958.59L331.54,3958.42L331.774,3958.26L332.014,3958.12L332.262,3957.99L332.515,3957.87L332.774,3957.76L333.037,3957.66L333.305,3957.58L333.576,3957.51L333.851,3957.45L334.127,3957.4L334.406,3957.37L334.686,3957.35L334.966,3957.34L334.969,3957.34L335.244,3957.35L335.518,3957.37ZM340.97,3963.18L340.971,3963.47L340.958,3963.76L340.951,3963.83L341.004,3963.41L340.96,3962.99L340.97,3963.18ZM340.886,3962.33L340.903,3962.45L340.89,3962.33L340.863,3962.22L340.886,3962.33ZM340.727,3961.66L340.711,3961.59L340.693,3961.54L340.727,3961.66Z" style="fill:rgb(255,255,0);"/>
                </g>
                <g transform="matrix(1,0,0,1,5901.87,-3540)">
                    <path d="M372.435,3950.84L372.729,3950.86L373.021,3950.9L373.311,3950.95L373.599,3951.01L373.882,3951.09L374.162,3951.18L374.437,3951.29L374.706,3951.41L374.969,3951.54L375.225,3951.68L375.474,3951.84L375.715,3952.01L375.947,3952.19L375.95,3952.2L376.164,3952.38L376.368,3952.57L376.563,3952.78L376.749,3952.99L376.924,3953.21L377.089,3953.43L377.093,3953.44L377.218,3953.63L377.336,3953.83L377.447,3954.03L377.55,3954.23L377.655,3954.45L377.807,3954.83L377.911,3955.15L377.978,3955.39L378.023,3955.57L378.056,3955.71L378.087,3955.84L378.135,3956.07L378.184,3956.31L378.231,3956.56L378.318,3957.01L378.397,3957.44L378.458,3957.77L378.475,3957.86L378.485,3957.91L378.528,3958.12L378.578,3958.38L378.624,3958.64L378.667,3958.9L378.707,3959.15L378.745,3959.41L378.779,3959.66L378.81,3959.92L378.839,3960.17L378.865,3960.42L378.889,3960.66L378.91,3960.91L378.929,3961.16L378.947,3961.4L378.962,3961.64L378.975,3961.88L378.986,3962.12L378.996,3962.36L379.004,3962.6L379.01,3962.83L379.015,3963.06L379.019,3963.3L379.021,3963.53L379.022,3963.75L379.022,3963.98L379.021,3964.2L379.018,3964.42L379.015,3964.64L379.011,3964.86L379.006,3965.08L378.994,3965.49L378.954,3966.75L378.911,3968L378.867,3969.25L378.819,3970.5L378.77,3971.75L378.717,3973L378.663,3974.24L378.605,3975.49L378.545,3976.74L378.482,3977.99L378.416,3979.23L378.347,3980.48L378.311,3981.1L378.274,3981.73L378.237,3982.35L378.199,3982.97L378.16,3983.6L378.121,3984.22L378.08,3984.85L378.038,3985.49L378.019,3985.75L377.997,3986.02L377.972,3986.29L377.944,3986.55L377.915,3986.81L377.884,3987.06L377.852,3987.31L377.818,3987.56L377.784,3987.8L377.748,3988.04L377.712,3988.27L377.674,3988.51L377.601,3988.95L377.527,3989.38L377.386,3990.2L377.32,3990.58L377.257,3990.96L377.229,3991.13L377.202,3991.31L377.176,3991.48L377.151,3991.64L377.129,3991.81L377.108,3991.96L377.115,3992.2L377.124,3992.51L377.131,3992.85L377.134,3993.05L377.135,3993.25L377.135,3993.46L377.133,3993.68L377.127,3993.9L377.118,3994.14L377.104,3994.38L377.092,3994.54L377.078,3994.69L377.061,3994.85L377.04,3995.02L377.012,3995.21L376.974,3995.43L376.924,3995.67L376.858,3995.94L376.764,3996.26L376.625,3996.66L376.525,3996.89L376.441,3997.07L376.351,3997.25L376.255,3997.43L376.124,3997.66L375.839,3998.09L375.533,3998.47L375.376,3998.63L375.22,3998.79L375.057,3998.95L374.89,3999.1L374.882,3999.11L374.675,3999.27L374.46,3999.43L374.452,3999.44L374.217,3999.6L373.975,3999.75L373.727,3999.88L373.719,3999.89L373.51,3999.99L373.298,4000.08L373.083,4000.17L372.864,4000.25L372.856,4000.25L372.647,4000.31L372.435,4000.37L372.222,4000.42L372.213,4000.42L371.978,4000.47L371.741,4000.51L371.503,4000.53L371.264,4000.55L371.255,4000.55L371.024,4000.56L370.794,4000.56L370.564,4000.55L370.334,4000.53L370.325,4000.53L370.047,4000.49L369.771,4000.45L369.497,4000.38L369.488,4000.38L369.245,4000.32L369.005,4000.24L368.769,4000.16L368.759,4000.15L368.561,4000.07L368.365,3999.99L368.173,3999.89L368.163,3999.89L367.922,3999.76L367.687,3999.61L367.476,3999.48L367.121,3999.21L366.832,3998.96L366.591,3998.73L366.362,3998.49L366.173,3998.26L366.005,3998.05L365.798,3997.76L365.609,3997.45L365.464,3997.2L365.389,3997.05L365.258,3996.78L365.141,3996.51L365.037,3996.23L364.947,3995.94L364.872,3995.65L364.811,3995.36L364.765,3995.06L364.733,3994.77L364.717,3994.47L364.715,3994.17L364.728,3993.87L364.757,3993.57L364.8,3993.28L364.857,3992.98L364.93,3992.69L365.016,3992.41L365.109,3992.15L365.106,3992L365.103,3991.84L365.103,3991.65L365.108,3991.43L365.119,3991.22L365.137,3991.01L365.174,3990.69L365.205,3990.44L365.237,3990.2L365.271,3989.95L365.306,3989.71L365.342,3989.48L365.378,3989.25L365.415,3989.02L365.488,3988.58L365.561,3988.15L365.702,3987.34L365.767,3986.96L365.829,3986.59L365.857,3986.41L365.884,3986.24L365.91,3986.07L365.934,3985.89L365.957,3985.73L365.977,3985.57L365.997,3985.41L366.014,3985.26L366.029,3985.11L366.043,3984.96L366.055,3984.82L366.067,3984.66L366.106,3984.07L366.145,3983.46L366.184,3982.85L366.222,3982.24L366.259,3981.63L366.295,3981.02L366.331,3980.41L366.366,3979.8L366.433,3978.58L366.498,3977.36L366.559,3976.14L366.618,3974.93L366.675,3973.7L366.728,3972.48L366.78,3971.26L366.828,3970.04L366.875,3968.81L366.919,3967.59L366.96,3966.36L367,3965.14L367.01,3964.78L367.013,3964.61L367.017,3964.44L367.019,3964.27L367.021,3964.11L367.022,3963.94L367.022,3963.77L367.021,3963.61L367.02,3963.45L367.017,3963.28L367.014,3963.12L367.009,3962.96L367.004,3962.81L366.998,3962.65L366.991,3962.5L366.982,3962.35L366.973,3962.2L366.962,3962.05L366.951,3961.9L366.938,3961.76L366.925,3961.61L366.91,3961.47L366.894,3961.34L366.878,3961.2L366.86,3961.07L366.841,3960.94L366.821,3960.81L366.8,3960.69L366.778,3960.57L366.756,3960.45L366.722,3960.28L366.696,3960.15L366.664,3959.99L366.598,3959.63L366.523,3959.22L366.447,3958.82L366.442,3958.8L366.43,3958.76L366.344,3958.47L366.272,3958.18L366.215,3957.89L366.172,3957.6L366.145,3957.3L366.132,3957L366.134,3956.7L366.144,3956.4L366.176,3956.13L366.208,3955.9L366.249,3955.68L366.298,3955.45L366.3,3955.44L366.374,3955.16L366.461,3954.89L366.561,3954.62L366.674,3954.35L366.799,3954.09L366.937,3953.84L366.94,3953.84L367.083,3953.6L367.237,3953.37L367.401,3953.15L367.575,3952.94L367.759,3952.73L367.953,3952.53L368.155,3952.35L368.365,3952.17L368.584,3952L368.81,3951.84L368.811,3951.84L369.06,3951.68L369.316,3951.54L369.578,3951.41L369.847,3951.29L370.122,3951.18L370.401,3951.09L370.684,3951.01L370.971,3950.95L371.261,3950.9L371.552,3950.86L371.846,3950.84L372.139,3950.83L372.141,3950.83L372.435,3950.84ZM376.039,3991.52L376.022,3991.49L375.968,3991.39L376.039,3991.52ZM367.682,3960.93L367.754,3960.99L367.627,3960.85L367.682,3960.93ZM378.032,3957.97L378.032,3957.97L378.05,3957.9L378.068,3957.75L378.032,3957.97ZM378.111,3957.38L378.101,3957.47L378.121,3957.31L378.128,3957.08L378.111,3957.38Z" style="fill:rgb(255,255,0);"/>
                </g>
            </g>
            <g>
                <g transform="matrix(1,0,0,1,5901.87,-3540)">
                    <path d="M372.874,3700.23L373.555,3700.38L374.213,3700.61L374.841,3700.91L375.429,3701.29L375.969,3701.73L376.454,3702.23L376.878,3702.79L377.235,3703.39L377.519,3704.03L377.728,3704.69L377.858,3705.38L377.908,3706.07L377.876,3706.77L377.764,3707.46L377.572,3708.13L377.304,3708.77L376.963,3709.38L376.554,3709.95L376.081,3710.46L375.8,3710.73L375.529,3711L375.26,3711.26L374.991,3711.53L374.724,3711.8L374.458,3712.07L374.192,3712.34L373.927,3712.61L373.663,3712.89L373.4,3713.17L373.137,3713.45L372.874,3713.73L372.614,3714.01L372.354,3714.29L372.096,3714.58L371.837,3714.86L371.579,3715.15L371.323,3715.44L371.067,3715.73L370.812,3716.02L370.558,3716.32L370.304,3716.62L370.053,3716.91L369.801,3717.21L369.55,3717.51L369.3,3717.82L369.051,3718.12L368.803,3718.43L368.556,3718.73L368.31,3719.04L368.063,3719.35L367.819,3719.66L367.576,3719.97L367.333,3720.29L367.091,3720.61L366.85,3720.92L366.609,3721.24L366.37,3721.56L366.132,3721.89L365.894,3722.21L365.657,3722.53L365.421,3722.86L365.186,3723.19L364.952,3723.52L364.719,3723.85L364.486,3724.18L364.255,3724.51L364.025,3724.85L363.795,3725.18L363.566,3725.52L363.339,3725.86L363.112,3726.2L362.886,3726.54L362.661,3726.89L362.436,3727.23L362.214,3727.58L361.991,3727.93L361.77,3728.27L361.55,3728.62L361.33,3728.98L361.111,3729.33L360.894,3729.68L360.677,3730.04L360.461,3730.39L360.246,3730.75L360.032,3731.11L359.819,3731.47L359.607,3731.84L359.396,3732.2L359.186,3732.56L358.976,3732.93L358.768,3733.29L358.561,3733.66L358.354,3734.03L358.149,3734.4L357.944,3734.78L357.74,3735.15L357.538,3735.52L357.336,3735.9L357.135,3736.28L356.936,3736.65L356.737,3737.03L356.539,3737.41L356.342,3737.79L356.146,3738.18L355.951,3738.56L355.757,3738.95L355.564,3739.33L355.372,3739.72L355.181,3740.11L354.991,3740.49L354.802,3740.89L354.613,3741.28L354.426,3741.67L354.24,3742.07L354.055,3742.46L353.871,3742.86L353.687,3743.25L353.505,3743.65L353.324,3744.05L353.143,3744.45L352.964,3744.85L352.786,3745.26L352.608,3745.66L352.432,3746.06L352.257,3746.47L352.083,3746.88L351.909,3747.28L351.737,3747.69L351.565,3748.1L351.395,3748.51L351.226,3748.92L351.057,3749.34L350.89,3749.75L350.723,3750.16L350.558,3750.58L350.394,3750.99L350.231,3751.41L350.068,3751.83L349.907,3752.25L349.747,3752.67L349.588,3753.09L349.429,3753.51L349.272,3753.93L349.116,3754.36L348.961,3754.78L348.807,3755.21L348.654,3755.63L348.501,3756.06L348.35,3756.49L348.2,3756.92L348.051,3757.35L347.903,3757.78L347.756,3758.21L347.61,3758.64L347.465,3759.08L347.322,3759.51L347.179,3759.94L347.037,3760.38L346.896,3760.81L346.757,3761.25L346.618,3761.69L346.48,3762.13L346.344,3762.57L346.208,3763.01L346.074,3763.45L345.94,3763.89L345.808,3764.33L345.677,3764.77L345.546,3765.22L345.417,3765.66L345.289,3766.11L345.162,3766.55L345.036,3767L344.911,3767.44L344.787,3767.89L344.664,3768.34L344.542,3768.79L344.421,3769.24L344.301,3769.69L344.183,3770.14L344.065,3770.59L343.948,3771.04L343.833,3771.5L343.718,3771.95L343.605,3772.4L343.493,3772.86L343.382,3773.31L343.271,3773.77L343.162,3774.22L343.054,3774.68L342.947,3775.14L342.841,3775.6L342.737,3776.06L342.633,3776.51L342.53,3776.97L342.429,3777.43L342.328,3777.89L342.229,3778.35L342.13,3778.82L342.033,3779.28L341.937,3779.74L341.842,3780.2L341.748,3780.67L341.655,3781.13L341.563,3781.6L341.472,3782.06L341.383,3782.53L341.294,3782.99L341.207,3783.46L341.12,3783.92L341.035,3784.39L340.951,3784.86L340.867,3785.33L340.785,3785.79L340.704,3786.26L340.625,3786.73L340.546,3787.2L340.468,3787.67L340.392,3788.14L340.316,3788.61L340.242,3789.08L340.168,3789.55L340.096,3790.02L340.025,3790.49L339.955,3790.97L339.886,3791.44L339.819,3791.91L339.752,3792.38L339.686,3792.86L339.622,3793.33L339.559,3793.8L339.496,3794.28L339.435,3794.75L339.375,3795.22L339.316,3795.7L339.258,3796.17L339.202,3796.65L339.146,3797.12L339.092,3797.6L339.038,3798.08L338.986,3798.55L338.935,3799.03L338.885,3799.5L338.836,3799.98L338.788,3800.46L338.742,3800.93L338.696,3801.41L338.652,3801.89L338.609,3802.37L338.566,3802.84L338.525,3803.32L338.485,3803.8L338.447,3804.28L338.409,3804.75L338.372,3805.23L338.337,3805.71L338.303,3806.19L338.269,3806.66L338.237,3807.14L338.206,3807.62L338.177,3808.1L338.148,3808.58L338.12,3809.06L338.094,3809.53L338.069,3810.01L338.045,3810.49L338.022,3810.97L338,3811.45L337.979,3811.93L337.959,3812.41L337.941,3812.88L337.924,3813.36L337.907,3813.84L337.892,3814.32L337.878,3814.8L337.866,3815.28L337.854,3815.75L337.843,3816.23L337.834,3816.71L337.826,3817.19L337.819,3817.66L337.813,3818.14L337.808,3818.62L337.804,3819.1L337.802,3819.58L337.8,3820.05L337.8,3820.53L337.801,3821.01L337.803,3821.48L337.806,3821.96L337.811,3822.44L337.816,3822.91L337.823,3823.39L337.831,3823.87L337.84,3824.34L337.85,3824.82L337.861,3825.29L337.873,3825.77L337.887,3826.24L337.902,3826.72L337.918,3827.19L337.935,3827.67L337.953,3828.14L337.972,3828.62L337.993,3829.09L338.014,3829.56L338.037,3830.04L338.061,3830.51L338.086,3830.98L338.112,3831.45L338.14,3831.93L338.168,3832.4L338.198,3832.87L338.229,3833.34L338.261,3833.81L338.294,3834.28L338.328,3834.75L338.364,3835.22L338.401,3835.69L338.438,3836.16L338.477,3836.62L338.518,3837.09L338.559,3837.56L338.601,3838.03L338.645,3838.49L338.69,3838.96L338.736,3839.43L338.783,3839.89L338.831,3840.36L338.881,3840.82L338.931,3841.29L338.983,3841.75L339.036,3842.21L339.09,3842.68L339.146,3843.14L339.202,3843.6L339.26,3844.06L339.319,3844.52L339.378,3844.98L339.44,3845.44L339.502,3845.9L339.565,3846.36L339.63,3846.82L339.696,3847.28L339.763,3847.74L339.831,3848.19L339.9,3848.65L339.971,3849.1L340.043,3849.56L340.115,3850.01L340.189,3850.47L340.265,3850.92L340.341,3851.37L340.418,3851.83L340.497,3852.28L340.577,3852.73L340.658,3853.18L340.74,3853.63L340.824,3854.08L340.908,3854.52L340.994,3854.97L341.081,3855.42L341.169,3855.87L341.258,3856.31L341.349,3856.76L341.44,3857.2L341.533,3857.64L341.627,3858.09L341.722,3858.53L341.818,3858.97L341.916,3859.41L342.015,3859.85L342.114,3860.29L342.215,3860.73L342.318,3861.16L342.421,3861.6L342.525,3862.04L342.631,3862.47L342.738,3862.91L342.846,3863.34L342.955,3863.77L343.066,3864.2L343.177,3864.64L343.29,3865.07L343.404,3865.49L343.519,3865.93L343.635,3866.35L343.753,3866.78L343.871,3867.2L343.991,3867.63L344.112,3868.06L344.234,3868.48L344.358,3868.9L344.482,3869.32L344.608,3869.74L344.735,3870.16L344.863,3870.58L344.992,3871L345.122,3871.42L345.254,3871.83L345.387,3872.25L345.521,3872.66L345.656,3873.08L345.792,3873.49L345.929,3873.9L346.068,3874.31L346.208,3874.72L346.349,3875.13L346.491,3875.54L346.634,3875.94L346.779,3876.35L346.924,3876.75L347.071,3877.16L347.219,3877.56L347.368,3877.96L347.518,3878.36L347.67,3878.76L347.823,3879.16L347.976,3879.55L348.131,3879.95L348.288,3880.35L348.445,3880.74L348.603,3881.13L348.763,3881.52L348.924,3881.91L349.086,3882.3L349.249,3882.69L349.413,3883.08L349.579,3883.46L349.745,3883.85L349.913,3884.23L350.083,3884.62L350.252,3885L350.424,3885.38L350.596,3885.76L350.77,3886.13L350.945,3886.51L351.121,3886.89L351.298,3887.26L351.476,3887.63L351.656,3888.01L351.836,3888.38L352.018,3888.74L352.201,3889.11L352.385,3889.48L352.571,3889.85L352.757,3890.21L352.945,3890.57L353.134,3890.93L353.323,3891.3L353.514,3891.66L353.707,3892.01L353.9,3892.37L354.094,3892.72L354.29,3893.08L354.487,3893.43L354.685,3893.78L354.884,3894.13L355.085,3894.48L355.285,3894.83L355.488,3895.18L355.693,3895.52L355.898,3895.87L356.103,3896.21L356.31,3896.55L356.518,3896.89L356.728,3897.22L356.939,3897.56L357.151,3897.9L357.363,3898.23L357.577,3898.56L357.792,3898.89L358.01,3899.22L358.227,3899.55L358.445,3899.88L358.665,3900.2L358.886,3900.53L359.109,3900.85L359.332,3901.17L359.556,3901.49L359.781,3901.81L360.008,3902.12L360.235,3902.44L360.465,3902.75L360.695,3903.07L360.926,3903.38L361.158,3903.68L361.391,3903.99L361.627,3904.3L361.862,3904.6L362.098,3904.91L362.336,3905.21L362.577,3905.51L362.816,3905.81L363.058,3906.1L363.3,3906.4L363.543,3906.69L363.79,3906.99L364.035,3907.28L364.281,3907.57L364.53,3907.85L364.78,3908.14L365.031,3908.43L365.282,3908.71L365.534,3908.99L365.788,3909.27L366.044,3909.55L366.299,3909.82L366.556,3910.1L366.816,3910.37L367.075,3910.64L367.336,3910.91L367.597,3911.18L367.86,3911.45L368.125,3911.71L368.391,3911.98L368.656,3912.24L368.924,3912.5L369.192,3912.76L369.461,3913.01L369.732,3913.27L370.006,3913.53L370.278,3913.78L370.552,3914.03L370.828,3914.28L371.105,3914.52L371.382,3914.77L371.662,3915.01L371.943,3915.25L372.222,3915.49L372.516,3915.74L373.022,3916.22L373.469,3916.76L373.851,3917.34L374.162,3917.97L374.399,3918.62L374.558,3919.3L374.637,3919.99L374.635,3920.69L374.552,3921.39L374.389,3922.06L374.149,3922.72L373.834,3923.34L373.449,3923.92L372.999,3924.46L372.49,3924.93L371.929,3925.35L371.324,3925.7L370.682,3925.97L370.013,3926.17L369.326,3926.29L368.629,3926.33L367.933,3926.28L367.246,3926.16L366.578,3925.96L365.938,3925.68L365.335,3925.33L364.776,3924.91L364.455,3924.64L364.121,3924.36L363.792,3924.07L363.465,3923.78L363.137,3923.49L362.812,3923.2L362.489,3922.91L362.166,3922.62L361.844,3922.32L361.527,3922.03L361.209,3921.73L360.892,3921.43L360.578,3921.12L360.265,3920.82L359.952,3920.51L359.642,3920.2L359.335,3919.89L359.028,3919.58L358.722,3919.27L358.419,3918.95L358.116,3918.64L357.816,3918.32L357.517,3918L357.218,3917.68L356.923,3917.36L356.628,3917.03L356.334,3916.7L356.042,3916.38L355.753,3916.05L355.464,3915.72L355.178,3915.38L354.892,3915.05L354.607,3914.71L354.326,3914.38L354.044,3914.04L353.764,3913.7L353.487,3913.35L353.209,3913.01L352.935,3912.66L352.662,3912.32L352.389,3911.97L352.118,3911.62L351.85,3911.27L351.582,3910.92L351.316,3910.56L351.051,3910.21L350.788,3909.85L350.527,3909.49L350.267,3909.13L350.008,3908.77L349.751,3908.41L349.495,3908.04L349.241,3907.68L348.988,3907.31L348.737,3906.94L348.488,3906.57L348.239,3906.2L347.992,3905.83L347.747,3905.46L347.504,3905.08L347.261,3904.71L347.019,3904.33L346.78,3903.95L346.542,3903.57L346.306,3903.19L346.071,3902.8L345.837,3902.42L345.604,3902.03L345.373,3901.65L345.145,3901.26L344.917,3900.87L344.69,3900.48L344.465,3900.09L344.242,3899.69L344.019,3899.3L343.799,3898.9L343.58,3898.51L343.362,3898.11L343.145,3897.71L342.93,3897.31L342.717,3896.91L342.505,3896.51L342.294,3896.1L342.085,3895.7L341.877,3895.29L341.671,3894.88L341.465,3894.47L341.262,3894.06L341.06,3893.66L340.859,3893.24L340.659,3892.83L340.461,3892.41L340.265,3892L340.07,3891.58L339.876,3891.17L339.684,3890.75L339.493,3890.33L339.303,3889.91L339.115,3889.48L338.928,3889.06L338.743,3888.64L338.559,3888.21L338.376,3887.79L338.195,3887.36L338.015,3886.93L337.836,3886.5L337.659,3886.07L337.484,3885.64L337.309,3885.21L337.136,3884.78L336.965,3884.34L336.795,3883.91L336.625,3883.47L336.458,3883.03L336.292,3882.6L336.127,3882.16L335.964,3881.72L335.802,3881.28L335.641,3880.84L335.481,3880.39L335.324,3879.95L335.167,3879.51L335.011,3879.06L334.858,3878.62L334.705,3878.17L334.554,3877.72L334.404,3877.27L334.255,3876.82L334.108,3876.37L333.962,3875.92L333.818,3875.47L333.675,3875.02L333.533,3874.56L333.392,3874.11L333.253,3873.65L333.115,3873.2L332.979,3872.74L332.844,3872.28L332.71,3871.82L332.577,3871.36L332.446,3870.9L332.316,3870.44L332.188,3869.98L332.06,3869.52L331.934,3869.05L331.81,3868.59L331.687,3868.12L331.565,3867.66L331.444,3867.19L331.325,3866.73L331.207,3866.26L331.09,3865.79L330.974,3865.32L330.86,3864.85L330.747,3864.38L330.636,3863.91L330.526,3863.44L330.417,3862.97L330.309,3862.49L330.203,3862.02L330.098,3861.54L329.994,3861.07L329.892,3860.59L329.791,3860.12L329.691,3859.64L329.593,3859.16L329.495,3858.68L329.399,3858.21L329.305,3857.73L329.212,3857.25L329.119,3856.77L329.029,3856.28L328.939,3855.8L328.851,3855.32L328.764,3854.84L328.678,3854.35L328.594,3853.87L328.511,3853.39L328.429,3852.9L328.348,3852.41L328.269,3851.93L328.191,3851.44L328.115,3850.96L328.039,3850.47L327.965,3849.98L327.892,3849.49L327.82,3849L327.75,3848.51L327.681,3848.02L327.613,3847.53L327.546,3847.04L327.481,3846.55L327.417,3846.06L327.354,3845.57L327.293,3845.07L327.232,3844.58L327.173,3844.09L327.116,3843.59L327.059,3843.1L327.004,3842.6L326.95,3842.11L326.897,3841.61L326.846,3841.12L326.795,3840.62L326.746,3840.12L326.699,3839.63L326.652,3839.13L326.607,3838.63L326.563,3838.13L326.52,3837.64L326.479,3837.14L326.438,3836.64L326.399,3836.14L326.361,3835.64L326.325,3835.14L326.29,3834.64L326.255,3834.14L326.223,3833.64L326.191,3833.14L326.161,3832.64L326.132,3832.13L326.104,3831.63L326.077,3831.13L326.052,3830.63L326.027,3830.12L326.004,3829.62L325.983,3829.12L325.962,3828.62L325.943,3828.11L325.925,3827.61L325.908,3827.11L325.892,3826.6L325.878,3826.1L325.865,3825.59L325.853,3825.09L325.842,3824.58L325.833,3824.08L325.824,3823.57L325.817,3823.07L325.811,3822.56L325.807,3822.06L325.803,3821.55L325.801,3821.05L325.8,3820.54L325.8,3820.03L325.802,3819.53L325.805,3819.02L325.808,3818.51L325.814,3818.01L325.82,3817.5L325.827,3817L325.836,3816.49L325.846,3815.98L325.857,3815.48L325.87,3814.97L325.883,3814.46L325.898,3813.95L325.914,3813.45L325.931,3812.94L325.949,3812.43L325.969,3811.93L325.99,3811.42L326.012,3810.91L326.035,3810.41L326.059,3809.9L326.085,3809.39L326.112,3808.89L326.139,3808.38L326.169,3807.87L326.199,3807.37L326.231,3806.86L326.263,3806.35L326.297,3805.85L326.332,3805.34L326.369,3804.84L326.406,3804.33L326.445,3803.82L326.485,3803.32L326.526,3802.81L326.568,3802.31L326.612,3801.8L326.656,3801.3L326.702,3800.79L326.749,3800.28L326.797,3799.78L326.847,3799.27L326.897,3798.77L326.949,3798.26L327.002,3797.76L327.056,3797.26L327.112,3796.75L327.168,3796.25L327.226,3795.74L327.285,3795.24L327.345,3794.74L327.406,3794.24L327.468,3793.73L327.532,3793.23L327.597,3792.73L327.663,3792.22L327.73,3791.72L327.798,3791.22L327.867,3790.72L327.938,3790.22L328.01,3789.72L328.083,3789.22L328.157,3788.72L328.232,3788.22L328.309,3787.72L328.387,3787.22L328.465,3786.72L328.545,3786.22L328.627,3785.72L328.709,3785.23L328.793,3784.73L328.877,3784.23L328.963,3783.74L329.05,3783.24L329.138,3782.74L329.228,3782.25L329.318,3781.75L329.41,3781.26L329.503,3780.76L329.597,3780.27L329.692,3779.77L329.788,3779.28L329.886,3778.79L329.985,3778.3L330.084,3777.8L330.185,3777.31L330.288,3776.82L330.391,3776.33L330.495,3775.84L330.601,3775.35L330.708,3774.86L330.816,3774.37L330.925,3773.88L331.035,3773.39L331.147,3772.91L331.259,3772.42L331.373,3771.93L331.488,3771.45L331.604,3770.96L331.721,3770.48L331.84,3769.99L331.959,3769.51L332.08,3769.03L332.202,3768.54L332.325,3768.06L332.449,3767.58L332.574,3767.1L332.701,3766.62L332.828,3766.14L332.957,3765.66L333.087,3765.18L333.218,3764.7L333.35,3764.23L333.484,3763.75L333.618,3763.27L333.754,3762.8L333.891,3762.32L334.029,3761.85L334.168,3761.38L334.308,3760.9L334.449,3760.43L334.592,3759.96L334.736,3759.49L334.881,3759.02L335.027,3758.55L335.174,3758.08L335.322,3757.61L335.472,3757.14L335.622,3756.68L335.774,3756.21L335.927,3755.75L336.081,3755.28L336.236,3754.82L336.393,3754.36L336.55,3753.89L336.709,3753.43L336.868,3752.97L337.029,3752.51L337.191,3752.05L337.354,3751.59L337.519,3751.14L337.685,3750.68L337.851,3750.22L338.019,3749.77L338.188,3749.31L338.358,3748.86L338.529,3748.41L338.701,3747.96L338.875,3747.5L339.05,3747.06L339.225,3746.61L339.403,3746.16L339.581,3745.71L339.76,3745.26L339.94,3744.82L340.122,3744.37L340.305,3743.93L340.488,3743.49L340.673,3743.04L340.86,3742.6L341.047,3742.16L341.235,3741.72L341.425,3741.28L341.615,3740.85L341.807,3740.41L342,3739.97L342.194,3739.54L342.39,3739.11L342.586,3738.67L342.784,3738.24L342.982,3737.81L343.182,3737.38L343.383,3736.95L343.585,3736.53L343.789,3736.1L343.993,3735.67L344.198,3735.25L344.405,3734.83L344.613,3734.4L344.822,3733.98L345.033,3733.56L345.244,3733.14L345.456,3732.72L345.67,3732.31L345.884,3731.89L346.1,3731.47L346.318,3731.06L346.536,3730.65L346.755,3730.24L346.975,3729.83L347.197,3729.42L347.42,3729.01L347.644,3728.6L347.869,3728.2L348.095,3727.79L348.323,3727.39L348.552,3726.98L348.78,3726.58L349.012,3726.18L349.244,3725.78L349.477,3725.39L349.711,3724.99L349.946,3724.6L350.183,3724.2L350.421,3723.81L350.66,3723.42L350.9,3723.03L351.141,3722.64L351.383,3722.25L351.627,3721.86L351.872,3721.48L352.118,3721.09L352.365,3720.71L352.613,3720.33L352.862,3719.95L353.112,3719.57L353.364,3719.19L353.617,3718.81L353.871,3718.44L354.126,3718.07L354.382,3717.69L354.64,3717.32L354.898,3716.95L355.158,3716.58L355.42,3716.22L355.681,3715.85L355.944,3715.49L356.209,3715.12L356.474,3714.76L356.741,3714.4L357.009,3714.04L357.278,3713.69L357.548,3713.33L357.819,3712.98L358.092,3712.62L358.367,3712.27L358.642,3711.92L358.917,3711.57L359.194,3711.22L359.473,3710.88L359.752,3710.53L360.033,3710.19L360.315,3709.85L360.598,3709.51L360.882,3709.17L361.168,3708.84L361.454,3708.5L361.742,3708.17L362.032,3707.83L362.321,3707.5L362.613,3707.17L362.905,3706.85L363.199,3706.52L363.494,3706.2L363.79,3705.87L364.088,3705.55L364.386,3705.23L364.684,3704.92L364.986,3704.6L365.288,3704.29L365.591,3703.97L365.895,3703.66L366.201,3703.35L366.508,3703.04L366.816,3702.74L367.125,3702.43L367.434,3702.13L367.735,3701.84L368.263,3701.38L368.841,3700.99L369.461,3700.67L370.113,3700.42L370.79,3700.26L371.482,3700.16L372.18,3700.16L372.874,3700.23Z" style="fill:rgb(255,255,0);"/>
                </g>
                <g transform="matrix(1,0,0,1,5901.87,-3540)">
                    <path d="M372.514,3696.49L372.862,3696.52L373.27,3696.58L373.714,3696.68L374.117,3696.8L374.403,3696.9L374.747,3697.03L375.035,3697.18L375.277,3697.3L375.636,3697.52L375.94,3697.74L376.244,3697.98L376.542,3698.25L376.67,3698.38L376.798,3698.51L376.921,3698.65L377.04,3698.8L377.136,3698.91L377.226,3699.03L377.382,3699.26L377.529,3699.49L377.636,3699.66L377.835,3700.04L378.007,3700.44L378.155,3700.85L378.267,3701.26L378.348,3701.65L378.403,3702.03L378.433,3702.39L378.438,3702.58L378.439,3702.86L378.428,3703.13L378.404,3703.4L378.368,3703.67L378.319,3703.94L378.259,3704.21L378.186,3704.47L378.101,3704.73L378.005,3704.99L377.897,3705.24L377.778,3705.48L377.648,3705.72L377.507,3705.96L377.355,3706.18L377.193,3706.4L377.022,3706.62L376.841,3706.82L376.651,3707.02L376.452,3707.2L376.244,3707.38L376.029,3707.55L375.807,3707.71L375.577,3707.86L375.341,3707.99L375.099,3708.12L374.852,3708.24L374.599,3708.34L374.342,3708.43L374.081,3708.51L373.817,3708.58L373.549,3708.64L373.28,3708.68L373.009,3708.72L372.736,3708.74L372.463,3708.74L372.19,3708.74L372.001,3708.72L371.93,3708.76L371.786,3708.81L371.596,3708.89L370.997,3709.09L370.729,3709.18L370.46,3709.26L370.274,3709.32L370.094,3709.38L369.68,3709.52L369.442,3709.6L369.19,3709.68L368.926,3709.75L368.775,3709.8L368.622,3709.84L368.354,3709.91L368.088,3709.98L367.822,3710.04L367.556,3710.11L367.3,3710.16L367.043,3710.22L366.786,3710.27L366.54,3710.32L366.294,3710.36L366.053,3710.41L365.817,3710.45L365.576,3710.49L365.345,3710.53L365.118,3710.56L364.677,3710.63L363.839,3710.76L363.439,3710.83L363.054,3710.89L362.872,3710.92L362.688,3710.95L362.514,3710.98L362.347,3711.01L362.175,3711.04L362.008,3711.08L361.853,3711.11L361.692,3711.14L361.535,3711.18L361.369,3711.21L361.21,3711.25L361.051,3711.29L360.887,3711.33L360.728,3711.36L360.565,3711.41L360.401,3711.45L360.244,3711.49L360.081,3711.53L359.918,3711.57L359.762,3711.62L359.6,3711.66L359.432,3711.71L359.276,3711.75L359.115,3711.8L358.954,3711.85L358.793,3711.9L358.627,3711.95L358.473,3712L358.312,3712.05L358.147,3712.1L357.987,3712.15L357.822,3712.21L357.663,3712.26L357.51,3712.31L357.178,3712.43L356.856,3712.54L356.534,3712.66L356.21,3712.78L355.887,3712.9L355.562,3713.03L355.237,3713.15L354.913,3713.28L354.587,3713.42L354.261,3713.55L353.936,3713.69L353.608,3713.83L353.278,3713.97L352.954,3714.12L352.624,3714.26L352.293,3714.41L351.964,3714.56L351.635,3714.72L351.307,3714.87L350.999,3715.01L350.687,3715.16L350.366,3715.32L350.036,3715.48L349.355,3715.81L348.998,3715.98L348.637,3716.15L348.265,3716.33L347.89,3716.5L347.695,3716.59L347.498,3716.68L347.295,3716.77L347.097,3716.86L346.894,3716.94L346.685,3717.03L346.482,3717.11L346.272,3717.2L346.063,3717.28L345.847,3717.37L345.625,3717.45L345.374,3717.54L345.178,3717.61L344.966,3717.68L344.778,3717.73L344.608,3717.78L344.44,3717.83L344.283,3717.87L344.125,3717.9L343.969,3717.94L343.699,3718L343.421,3718.06L343.163,3718.11L342.923,3718.16L342.564,3718.23L342.301,3718.3L342.034,3718.36L341.764,3718.4L341.493,3718.43L341.221,3718.46L340.948,3718.46L340.675,3718.46L340.654,3718.46L340.387,3718.44L340.121,3718.41L339.857,3718.38L339.594,3718.32L339.589,3718.32L339.326,3718.26L339.065,3718.18L338.809,3718.09L338.557,3717.99L338.309,3717.88L338.067,3717.76L337.83,3717.63L337.6,3717.49L337.376,3717.33L337.374,3717.33L337.155,3717.17L336.944,3716.99L336.741,3716.81L336.547,3716.62L336.362,3716.41L336.186,3716.2L336.021,3715.98L335.865,3715.76L335.719,3715.53L335.585,3715.29L335.461,3715.04L335.349,3714.79L335.248,3714.54L335.159,3714.28L335.082,3714.02L335.017,3713.75L334.964,3713.48L334.924,3713.21L334.896,3712.94L334.88,3712.66L334.877,3712.39L334.887,3712.12L334.909,3711.84L334.943,3711.57L334.99,3711.3L335.049,3711.03L335.12,3710.77L335.204,3710.51L335.299,3710.25L335.405,3710L335.406,3710L335.517,3709.76L335.637,3709.54L335.767,3709.32L335.906,3709.1L336.054,3708.89L336.211,3708.69L336.377,3708.49L336.55,3708.3L336.732,3708.12L336.922,3707.95L337.118,3707.78L337.322,3707.63L337.532,3707.48L337.748,3707.34L337.752,3707.34L337.986,3707.2L338.227,3707.08L338.473,3706.96L338.723,3706.86L338.74,3706.85L338.929,3706.78L339.12,3706.72L339.313,3706.66L339.43,3706.63L339.623,3706.59L339.827,3706.54L340.022,3706.5L340.212,3706.46L340.594,3706.39L340.785,3706.35L340.97,3706.31L341.137,3706.28L341.303,3706.24L341.358,3706.23L341.405,3706.22L341.421,3706.21L341.427,3706.21L341.546,3706.16L341.67,3706.12L341.8,3706.06L341.931,3706.01L342.067,3705.95L342.197,3705.9L342.334,3705.84L342.475,3705.78L342.611,3705.72L342.753,3705.66L342.897,3705.59L343.199,3705.45L343.502,3705.31L343.815,3705.16L344.131,3705.01L344.794,3704.69L345.133,3704.52L345.479,3704.35L345.833,3704.18L346.189,3704.01L346.567,3703.84L346.946,3703.66L347.326,3703.49L347.704,3703.32L348.085,3703.15L348.472,3702.98L348.855,3702.81L349.241,3702.64L349.631,3702.48L350.022,3702.32L350.414,3702.16L350.81,3702L351.206,3701.84L351.604,3701.69L352.006,3701.54L352.408,3701.39L352.815,3701.24L353.223,3701.1L353.623,3700.96L353.837,3700.89L354.045,3700.82L354.248,3700.75L354.457,3700.68L354.66,3700.62L354.87,3700.55L355.085,3700.48L355.29,3700.42L355.5,3700.36L355.711,3700.3L355.922,3700.23L356.14,3700.17L356.346,3700.11L356.558,3700.05L356.776,3699.99L356.989,3699.93L357.202,3699.88L357.422,3699.82L357.636,3699.77L357.85,3699.71L358.07,3699.66L358.285,3699.61L358.507,3699.56L358.728,3699.51L358.944,3699.46L359.17,3699.41L359.419,3699.36L359.676,3699.3L359.922,3699.26L360.163,3699.21L360.41,3699.17L360.651,3699.12L360.881,3699.09L361.114,3699.05L361.561,3698.97L361.993,3698.91L362.82,3698.78L363.212,3698.72L363.4,3698.69L363.585,3698.66L363.759,3698.63L363.938,3698.59L364.111,3698.56L364.278,3698.53L364.444,3698.5L364.6,3698.47L364.754,3698.43L364.909,3698.4L365.052,3698.37L365.194,3698.33L365.336,3698.3L365.474,3698.26L365.517,3698.25L365.562,3698.24L365.688,3698.2L365.824,3698.16L365.974,3698.11L366.333,3697.99L366.54,3697.92L366.741,3697.86L366.963,3697.78L367.185,3697.71L367.475,3697.61L367.604,3697.56L367.835,3697.46L367.98,3697.4L368.132,3697.34L368.304,3697.28L368.478,3697.21L368.662,3697.15L368.857,3697.08L369.063,3697.01L369.281,3696.94L369.512,3696.87L369.754,3696.8L369.901,3696.76L370.016,3696.73L370.165,3696.7L370.332,3696.66L370.481,3696.63L370.632,3696.6L370.805,3696.57L371.001,3696.54L371.205,3696.52L371.416,3696.5L371.66,3696.48L371.917,3696.47L372.192,3696.47L372.514,3696.49ZM343.582,3717.83L343.443,3717.9L343.548,3717.86L343.63,3717.81L343.582,3717.83ZM341.408,3706.49L341.68,3706.51L341.95,3706.56L342.031,3706.57L341.651,3706.49L341.135,3706.47L341.408,3706.49ZM366.473,3703.38L366.479,3703.41L366.461,3703.23L366.473,3703.38ZM366.446,3703.05L366.455,3703.15L366.442,3702.9L366.446,3703.05Z" style="fill:rgb(255,255,0);"/>
                </g>
                <g transform="matrix(1,0,0,1,5901.87,-3540)">
                    <path d="M375.05,3696.98L375.414,3697.02L375.809,3697.09L376.195,3697.18L376.407,3697.25L376.67,3697.33L376.929,3697.43L377.168,3697.53L377.569,3697.73L377.907,3697.93L378.196,3698.12L378.456,3698.32L378.673,3698.49L378.854,3698.65L379.032,3698.81L379.184,3698.96L379.323,3699.11L379.45,3699.24L379.56,3699.37L379.669,3699.5L379.772,3699.62L379.864,3699.74L379.956,3699.86L380.038,3699.97L380.128,3700.1L380.273,3700.31L380.415,3700.53L380.548,3700.74L380.675,3700.96L380.797,3701.18L380.914,3701.4L381.028,3701.63L381.132,3701.86L381.197,3702.01L381.254,3702.14L381.31,3702.28L381.367,3702.43L381.427,3702.6L381.485,3702.78L381.545,3702.98L381.604,3703.21L381.663,3703.46L381.709,3703.72L381.742,3703.94L381.766,3704.11L381.786,3704.28L381.804,3704.45L381.819,3704.61L381.833,3704.78L381.844,3704.94L381.853,3705.1L381.86,3705.25L381.865,3705.41L381.868,3705.56L381.87,3705.72L381.871,3705.87L381.87,3706.02L381.867,3706.16L381.864,3706.31L381.859,3706.45L381.852,3706.61L381.838,3706.88L381.819,3707.15L381.796,3707.42L381.771,3707.69L381.742,3707.95L381.712,3708.2L381.68,3708.45L381.646,3708.7L381.611,3708.93L381.574,3709.17L381.537,3709.4L381.499,3709.62L381.462,3709.84L381.424,3710.05L381.385,3710.26L381.312,3710.65L381.242,3711.02L381.177,3711.36L381.115,3711.69L381.043,3712.07L380.967,3712.46L380.893,3712.84L380.82,3713.2L380.75,3713.54L380.683,3713.88L380.62,3714.2L380.592,3714.35L380.564,3714.5L380.537,3714.65L380.511,3714.8L380.488,3714.94L380.465,3715.08L380.444,3715.21L380.425,3715.35L380.407,3715.47L380.391,3715.6L380.376,3715.72L380.363,3715.84L380.351,3715.96L380.341,3716.07L380.333,3716.18L380.326,3716.29L380.32,3716.39L380.316,3716.51L380.314,3716.58L380.312,3716.66L380.311,3716.75L380.31,3716.84L380.31,3716.93L380.31,3717.01L380.313,3717.21L380.317,3717.4L380.324,3717.6L380.332,3717.81L380.342,3718.03L380.353,3718.25L380.366,3718.48L380.396,3718.97L380.428,3719.47L380.46,3720L380.476,3720.28L380.491,3720.57L380.504,3720.86L380.516,3721.16L380.525,3721.46L380.532,3721.77L380.536,3722.08L380.537,3722.25L380.536,3722.41L380.535,3722.58L380.533,3722.74L380.529,3722.91L380.524,3723.08L380.518,3723.25L380.51,3723.43L380.501,3723.6L380.491,3723.78L380.479,3723.95L380.465,3724.13L380.449,3724.31L380.431,3724.5L380.412,3724.68L380.39,3724.87L380.367,3725.05L380.341,3725.24L380.318,3725.4L380.294,3725.55L380.269,3725.7L380.243,3725.85L380.216,3725.99L380.186,3726.15L380.131,3726.41L380.072,3726.68L380.01,3726.95L379.948,3727.2L379.885,3727.45L379.822,3727.68L379.76,3727.91L379.698,3728.13L379.637,3728.35L379.524,3728.74L379.415,3729.11L379.366,3729.28L379.319,3729.45L379.276,3729.6L379.235,3729.75L379.198,3729.89L379.165,3730.03L379.134,3730.15L379.107,3730.27L379.081,3730.39L379.072,3730.43L379.062,3730.48L379.053,3730.53L379.045,3730.58L379.037,3730.62L379.03,3730.67L379.024,3730.71L379.018,3730.75L379.013,3730.78L379.009,3730.82L379.005,3730.85L379.002,3730.89L378.999,3730.92L378.998,3730.94L378.998,3730.94L378.997,3730.96L378.997,3730.97L378.998,3731.05L379.001,3731.14L379.005,3731.25L379.019,3731.57L379.027,3731.75L379.035,3731.97L379.041,3732.21L379.044,3732.46L379.043,3732.62L379.041,3732.77L379.037,3732.92L379.031,3733.09L379.022,3733.26L379.01,3733.43L378.995,3733.61L378.974,3733.81L378.943,3734.06L378.905,3734.31L378.863,3734.55L378.818,3734.78L378.77,3735L378.721,3735.2L378.673,3735.39L378.624,3735.57L378.576,3735.74L378.53,3735.89L378.486,3736.04L378.443,3736.17L378.317,3736.57L378.275,3736.7L378.272,3736.88L378.265,3737.12L378.256,3737.35L378.243,3737.59L378.229,3737.83L378.211,3738.06L378.191,3738.3L378.168,3738.54L378.143,3738.77L378.114,3739.01L378.084,3739.24L378.05,3739.47L378.014,3739.71L377.978,3739.93L377.966,3740.07L377.942,3740.28L377.908,3740.53L377.872,3740.73L377.831,3740.94L377.775,3741.18L377.697,3741.46L377.585,3741.8L377.424,3742.2L377.315,3742.43L377.189,3742.67L377.052,3742.91L377.041,3742.92L376.909,3743.13L376.768,3743.33L376.619,3743.53L376.607,3743.54L376.421,3743.77L376.225,3743.98L376.019,3744.18L376.006,3744.2L375.79,3744.39L375.565,3744.57L375.332,3744.74L375.166,3744.86L374.994,3744.97L374.75,3745.11L374.499,3745.24L374.243,3745.35L374.053,3745.43L373.859,3745.5L373.585,3745.59L373.307,3745.67L373.026,3745.73L372.761,3745.78L372.492,3745.81L372.277,3745.83L372.061,3745.84L371.845,3745.85L371.836,3745.85L371.586,3745.84L371.336,3745.83L371.087,3745.8L370.882,3745.78L370.437,3745.69L370.19,3745.62L369.929,3745.54L369.672,3745.45L369.434,3745.36L369.204,3745.25L368.967,3745.13L368.735,3745L368.717,3744.99L368.509,3744.86L368.307,3744.72L368.11,3744.58L368.092,3744.56L367.865,3744.38L367.647,3744.19L367.45,3744L367.136,3743.65L366.905,3743.36L366.732,3743.12L366.586,3742.9L366.462,3742.69L366.364,3742.52L366.267,3742.34L366.148,3742.1L366.046,3741.87L365.966,3741.68L365.902,3741.52L365.848,3741.39L365.784,3741.22L365.779,3741.21L365.739,3741.11L365.635,3740.84L365.544,3740.56L365.467,3740.28L365.405,3739.99L365.356,3739.7L365.322,3739.4L365.302,3739.11L365.297,3738.82L365.306,3738.52L365.329,3738.23L365.367,3737.94L365.419,3737.65L365.485,3737.36L365.566,3737.08L365.66,3736.8L365.767,3736.52L365.888,3736.25L366.022,3735.99L366.169,3735.74L366.319,3735.5L366.345,3735.26L366.38,3735L366.42,3734.75L366.463,3734.51L366.509,3734.29L366.557,3734.08L366.607,3733.88L366.656,3733.69L366.704,3733.51L366.751,3733.35L366.798,3733.2L366.876,3732.95L367.005,3732.55L367.024,3732.48L367.041,3732.43L367.043,3732.42L367.041,3732.34L367.037,3732.23L367.031,3732.09L367.015,3731.75L367.007,3731.53L367.001,3731.29L366.997,3731.05L366.997,3730.89L366.999,3730.74L367.002,3730.59L367.008,3730.43L367.016,3730.26L367.027,3730.1L367.04,3729.92L367.055,3729.76L367.071,3729.59L367.09,3729.43L367.109,3729.27L367.13,3729.11L367.152,3728.96L367.176,3728.8L367.2,3728.65L367.226,3728.5L367.252,3728.36L367.279,3728.21L367.307,3728.07L367.338,3727.92L367.395,3727.66L367.455,3727.39L367.517,3727.14L367.58,3726.89L367.643,3726.65L367.705,3726.42L367.767,3726.2L367.828,3725.99L367.887,3725.78L367.998,3725.4L368.103,3725.03L368.15,3724.87L368.194,3724.71L368.236,3724.56L368.273,3724.42L368.308,3724.28L368.339,3724.16L368.368,3724.03L368.392,3723.92L368.417,3723.8L368.424,3723.77L368.433,3723.72L368.441,3723.67L368.448,3723.63L368.455,3723.58L368.461,3723.55L368.47,3723.48L368.478,3723.42L368.485,3723.35L368.492,3723.29L368.499,3723.22L368.505,3723.15L368.51,3723.08L368.515,3723L368.52,3722.93L368.524,3722.85L368.527,3722.77L368.53,3722.69L368.533,3722.61L368.535,3722.53L368.536,3722.44L368.537,3722.35L368.537,3722.26L368.536,3722.18L368.534,3721.98L368.53,3721.78L368.523,3721.58L368.515,3721.37L368.505,3721.16L368.493,3720.93L368.481,3720.7L368.451,3720.22L368.419,3719.71L368.387,3719.18L368.371,3718.9L368.356,3718.62L368.343,3718.33L368.331,3718.03L368.321,3717.73L368.314,3717.42L368.311,3717.11L368.31,3716.94L368.31,3716.78L368.311,3716.61L368.314,3716.45L368.317,3716.28L368.323,3716.1L368.332,3715.85L368.346,3715.59L368.362,3715.34L368.382,3715.08L368.404,3714.84L368.428,3714.59L368.455,3714.35L368.483,3714.11L368.513,3713.88L368.545,3713.65L368.578,3713.43L368.612,3713.2L368.648,3712.99L368.684,3712.77L368.721,3712.56L368.758,3712.35L368.796,3712.15L368.834,3711.94L368.909,3711.56L368.984,3711.18L369.057,3710.82L369.128,3710.47L369.195,3710.13L369.258,3709.81L369.321,3709.48L369.386,3709.13L369.454,3708.77L369.521,3708.42L369.585,3708.08L369.615,3707.92L369.644,3707.75L369.672,3707.59L369.698,3707.44L369.705,3707.39L369.629,3707.3L369.451,3707.07L369.285,3706.82L369.131,3706.57L368.989,3706.32L368.861,3706.05L368.745,3705.78L368.643,3705.5L368.554,3705.22L368.48,3704.94L368.419,3704.65L368.373,3704.36L368.341,3704.07L368.323,3703.77L368.32,3703.48L368.322,3703.32L368.333,3703.06L368.354,3702.78L368.39,3702.48L368.443,3702.14L368.522,3701.77L368.621,3701.41L368.711,3701.14L368.8,3700.9L368.899,3700.67L369.025,3700.4L369.176,3700.12L369.342,3699.84L369.535,3699.55L369.764,3699.25L370.046,3698.92L370.353,3698.62L370.673,3698.34L371.058,3698.05L371.482,3697.78L371.903,3697.56L372.347,3697.37L372.805,3697.21L373.277,3697.09L373.748,3697.01L374.213,3696.97L374.667,3696.96L375.05,3696.98ZM365.826,3741.32L365.857,3741.38L365.782,3741.21L365.826,3741.32ZM380.315,3703.73L380.318,3703.66L380.319,3703.64L380.315,3703.73Z" style="fill:rgb(255,255,0);"/>
                </g>
            </g>
        </g>
    </g>
</svg>
