<?xml version="1.0" encoding="UTF-8" standalone="no"?>
<!DOCTYPE svg PUBLIC "-//W3C//DTD SVG 1.1//EN" "http://www.w3.org/Graphics/SVG/1.1/DTD/svg11.dtd">
<svg width="100%" height="100%" viewBox="0 0 1921 1080" version="1.1" xmlns="http://www.w3.org/2000/svg" xmlns:xlink="http://www.w3.org/1999/xlink" xml:space="preserve" xmlns:serif="http://www.serif.com/" style="fill-rule:evenodd;clip-rule:evenodd;stroke-linejoin:round;stroke-miterlimit:1.41421;">
    <g transform="matrix(1,0,0,1,-2028,-3540)">
        <g id="layers-mixed" transform="matrix(1,0,0,1,-3881.87,3540)">
            <rect x="5910" y="0" width="1920" height="1080"/>
            <g transform="matrix(1,0,0,1,-159.42,2.9988)">
                <g transform="matrix(1.28945,0,0,0.279272,650.404,-297.566)">
                    <path d="M5277.08,4186.84L5277.89,4187.17L5278.68,4188.14L5279.41,4189.72L5280.07,4191.87L5280.65,4194.51L5281.11,4197.58L5281.46,4200.98L5281.67,4204.59L5281.74,4208.32L5281.74,4664.16L5281.67,4667.89L5281.46,4671.51L5281.11,4674.9L5280.65,4677.97L5280.07,4680.62L5279.41,4682.77L5278.68,4684.35L5277.89,4685.32L5277.08,4685.65L4437.09,4685.65L4436.28,4685.32L4435.5,4684.35L4434.76,4682.77L4434.1,4680.62L4433.53,4677.97L4433.06,4674.9L4432.72,4671.51L4432.51,4667.89L4432.44,4664.16L4432.44,4208.32L4432.51,4204.59L4432.72,4200.98L4433.06,4197.58L4433.53,4194.51L4434.1,4191.87L4434.76,4189.72L4435.5,4188.14L4436.28,4187.17L4437.09,4186.84L4876.31,4186.84L4878.11,4188.53L4879.59,4193.15L4880.59,4199.98L4880.96,4208.29L4880.96,4208.36L4880.59,4216.67L4879.59,4223.5L4878.11,4228.11L4876.31,4229.81L4441.74,4229.81L4441.74,4642.68L5272.43,4642.68L5272.43,4229.81L5189.24,4229.81L5189.23,4229.81L5186.69,4228.11L5184.59,4223.5L5183.18,4216.67L5182.66,4208.36L5182.66,4208.32L5184.59,4208.32L5184.59,4208.29L5184.95,4199.98L5185.95,4193.15L5187.44,4188.53L5189.23,4186.84L5277.08,4186.84Z" style="fill:white;"/>
                </g>
                <g transform="matrix(1,0,0,1,3881.87,-3540)">
                    <path d="M3057.42,4278.76C3054.35,4278.76 3056.04,4287.62 3056.04,4290.29C3056.04,4301.64 3060.19,4312.71 3060.19,4324.89C3060.19,4356.48 3056.96,4390.31 3056.96,4420.39" style="fill:none;stroke:rgb(255,255,0);stroke-width:12px;stroke-linecap:round;stroke-miterlimit:1.5;"/>
                </g>
                <g transform="matrix(1,0,0,1,3881.87,-3540)">
                    <path d="M3450.49,4279.68C3450.49,4279 3447.06,4291.74 3448.64,4294.9C3452.97,4303.55 3451.41,4316.91 3451.41,4326.74C3451.41,4340.63 3445.76,4358.56 3449.11,4371.95C3452.97,4387.42 3454.18,4405.95 3454.18,4421.77" style="fill:none;stroke:rgb(255,255,0);stroke-width:12px;stroke-linecap:round;stroke-miterlimit:1.5;"/>
                </g>
                <g transform="matrix(1.28945,0,0,0.279272,650.404,-565.133)">
                    <path d="M5277.89,4187.17L5278.68,4188.14L5279.41,4189.72L5280.07,4191.87L5280.65,4194.51L5281.11,4197.58L5281.46,4200.98L5281.67,4204.59L5281.74,4208.32L5281.74,4664.16L5281.67,4667.89L5281.46,4671.51L5281.11,4674.9L5280.65,4677.97L5280.07,4680.62L5279.41,4682.77L5278.68,4684.35L5277.89,4685.32L5277.08,4685.65L5184.85,4685.65L5183.05,4683.95L5181.57,4679.33L5180.57,4672.5L5180.21,4664.2L5180.21,4664.12L5180.57,4655.82L5181.57,4648.99L5183.05,4644.37L5184.85,4642.68L5272.43,4642.68L5272.43,4229.81L4441.74,4229.81L4441.74,4642.68L4876.22,4642.68L4878.77,4644.37L4880.86,4648.99L4882.27,4655.82L4882.79,4664.12L4882.79,4664.16L4880.86,4664.16L4880.86,4664.2L4880.5,4672.5L4879.5,4679.33L4878.02,4683.95L4876.22,4685.65L4437.09,4685.65L4436.28,4685.32L4435.5,4684.35L4434.76,4682.77L4434.1,4680.62L4433.53,4677.97L4433.06,4674.9L4432.72,4671.51L4432.51,4667.89L4432.44,4664.16L4432.44,4208.32L4432.51,4204.59L4432.72,4200.98L4433.06,4197.58L4433.53,4194.51L4434.1,4191.87L4434.76,4189.72L4435.5,4188.14L4436.28,4187.17L4437.09,4186.84L5277.08,4186.84L5277.89,4187.17Z" style="fill:white;"/>
                </g>
                <g transform="matrix(1.28945,0,0,0.279272,650.404,-832.7)">
                    <path d="M5277.89,4187.17L5278.68,4188.14L5279.41,4189.72L5280.07,4191.87L5280.65,4194.51L5281.11,4197.58L5281.46,4200.98L5281.67,4204.59L5281.74,4208.32L5281.74,4664.16L5281.67,4667.89L5281.46,4671.51L5281.11,4674.9L5280.65,4677.97L5280.07,4680.62L5279.41,4682.77L5278.68,4684.35L5277.89,4685.32L5277.08,4685.65L4437.09,4685.65L4436.28,4685.32L4435.5,4684.35L4434.76,4682.77L4434.1,4680.62L4433.53,4677.97L4433.06,4674.9L4432.72,4671.51L4432.51,4667.89L4432.44,4664.16L4432.44,4208.32L4432.51,4204.59L4432.72,4200.98L4433.06,4197.58L4433.53,4194.51L4434.1,4191.87L4434.76,4189.72L4435.5,4188.14L4436.28,4187.17L4437.09,4186.84L5277.08,4186.84L5277.89,4187.17ZM4441.74,4229.81L4441.74,4642.68L5272.43,4642.68L5272.43,4229.81L4441.74,4229.81Z" style="fill:white;"/>
                </g>
                <g transform="matrix(1.28945,0,0,0.279272,650.404,-1100.27)">
                    <path d="M5277.89,4187.17C5278.59,4188.02 5278.78,4188.04 5279.41,4189.72C5280.35,4192.23 5281.09,4196.26 5281.46,4200.98C5281.7,4204.12 5281.68,4205.02 5281.74,4208.32L5281.74,4664.16C5281.52,4675.62 5280.95,4677.23 5280.07,4680.62C5279.48,4682.94 5279.41,4684.7 5277.08,4685.65L4437.09,4685.65C4434.61,4684.64 4434.26,4682.01 4433.53,4677.97C4433.02,4675.2 4432.64,4674.91 4432.44,4664.16L4432.44,4208.32C4432.64,4197.58 4433.02,4197.28 4433.53,4194.51C4434.26,4190.47 4434.61,4187.84 4437.09,4186.84L5277.08,4186.84C5277.35,4186.95 5277.62,4187.06 5277.89,4187.17ZM4441.74,4229.81L4441.74,4642.68L5272.43,4642.68L5272.43,4229.81C4995.53,4229.81 4718.64,4229.81 4441.74,4229.81Z" style="fill:white;fill-rule:nonzero;"/>
                </g>
                <g transform="matrix(1,0,0,1,69.1435,-4.54747e-13)">
                    <g transform="matrix(1,0,0,1,5901.87,-3540)">
                        <path d="M362.691,4192.26C317.833,4128.93 310.8,4017.38 368.935,3958.57" style="fill:none;stroke:rgb(255,255,0);stroke-width:12px;stroke-linecap:round;stroke-miterlimit:1.5;"/>
                    </g>
                    <g transform="matrix(1,0,0,1,5901.87,-3540)">
                        <path d="M370.005,3956.42C368.483,3956.42 366.974,3957.23 365.439,3957.44C362.706,3957.82 359.976,3957.79 357.252,3958.31C353.524,3959.01 349.926,3960.36 346.23,3961.22C343.6,3961.84 340.965,3962.22 338.357,3962.95C337.456,3963.2 336.502,3963.43 335.602,3963.58C335.03,3963.68 334.934,3963.31 334.972,3963.35" style="fill:none;stroke:rgb(255,255,0);stroke-width:12px;stroke-linecap:round;stroke-miterlimit:1.5;"/>
                    </g>
                    <g transform="matrix(1,0,0,1,5901.87,-3540)">
                        <path d="M372.131,3956.89C372.131,3956.43 372.528,3958.74 372.603,3959.1C373.026,3961.1 373.061,3963.27 372.997,3965.32C372.79,3971.94 372.491,3978.49 372.052,3985.08C371.904,3987.3 371.348,3989.44 371.108,3991.61C371.065,3991.99 371.35,3995.56 370.714,3994.29" style="fill:none;stroke:rgb(255,255,0);stroke-width:12px;stroke-linecap:round;stroke-miterlimit:1.5;"/>
                    </g>
                </g>
                <g transform="matrix(-1,0,0,1,13765.2,-270.342)">
                    <g transform="matrix(2.62147,0,0,2.27223,5299.6,-8571.85)">
                        <path d="M362.691,4192.26C317.833,4128.93 310.8,4017.38 368.935,3958.57" style="fill:none;stroke:rgb(255,255,0);stroke-width:4.89px;stroke-linecap:round;stroke-miterlimit:1.5;"/>
                    </g>
                    <g transform="matrix(1,0,0,1,5901.87,-3540)">
                        <path d="M370.005,3956.42C368.483,3956.42 366.974,3957.23 365.439,3957.44C362.706,3957.82 359.976,3957.79 357.252,3958.31C353.524,3959.01 349.926,3960.36 346.23,3961.22C343.6,3961.84 340.965,3962.22 338.357,3962.95C337.456,3963.2 336.502,3963.43 335.602,3963.58C335.03,3963.68 334.934,3963.31 334.972,3963.35" style="fill:none;stroke:rgb(255,255,0);stroke-width:12px;stroke-linecap:round;stroke-miterlimit:1.5;"/>
                    </g>
                    <g transform="matrix(1,0,0,1,5901.87,-3540)">
                        <path d="M372.131,3956.89C372.131,3956.43 372.528,3958.74 372.603,3959.1C373.026,3961.1 373.061,3963.27 372.997,3965.32C372.79,3971.94 372.491,3978.49 372.052,3985.08C371.904,3987.3 371.348,3989.44 371.108,3991.61C371.065,3991.99 371.35,3995.56 370.714,3994.29" style="fill:none;stroke:rgb(255,255,0);stroke-width:12px;stroke-linecap:round;stroke-miterlimit:1.5;"/>
                    </g>
                </g>
                <g transform="matrix(1,0,0,1,69.1435,-4.54747e-13)">
                    <g transform="matrix(1,0,0,1,5901.87,-3540)">
                        <path d="M368.646,3920.33C316.018,3876.12 322.146,3754.07 371.908,3706.15" style="fill:none;stroke:rgb(255,255,0);stroke-width:12px;stroke-linecap:round;stroke-miterlimit:1.5;"/>
                    </g>
                    <g transform="matrix(1,0,0,1,5901.87,-3540)">
                        <path d="M372.44,3702.74C372.44,3701.94 369.726,3703.18 369.581,3703.23C369.254,3703.34 368.928,3703.45 368.6,3703.56C368.084,3703.73 367.572,3703.91 367.048,3704.05C364.884,3704.64 362.621,3704.8 360.431,3705.28C356.349,3706.16 352.515,3707.67 348.748,3709.44C346.98,3710.27 345.171,3711.23 343.356,3711.89C342.654,3712.15 340.614,3712.46 340.905,3712.46" style="fill:none;stroke:rgb(255,255,0);stroke-width:12px;stroke-linecap:round;stroke-miterlimit:1.5;"/>
                    </g>
                    <g transform="matrix(1,0,0,1,5901.87,-3540)">
                        <path d="M374.319,3703.56C374.319,3701.93 375.693,3704.09 375.79,3704.7C376.074,3706.5 375.545,3708.81 375.218,3710.59C374.868,3712.49 374.382,3714.36 374.319,3716.3C374.233,3718.98 374.781,3721.73 374.401,3724.39C374.103,3726.48 373.163,3728.41 373.012,3730.52C372.95,3731.38 373.108,3732.27 373.012,3733.13C372.885,3734.27 372.277,3735.23 372.277,3736.4C372.277,3737.32 372.196,3738.2 372.032,3739.1C371.985,3739.35 372.018,3739.95 371.787,3739.83C371.595,3739.74 371.398,3739.06 371.296,3738.85" style="fill:none;stroke:rgb(255,255,0);stroke-width:12px;stroke-linecap:round;stroke-miterlimit:1.5;"/>
                    </g>
                </g>
                <g>
                    <g transform="matrix(1,0,0,1,3881.87,-3540)">
                        <path d="M3608.47,3638.51C3654.7,3641.59 3697.73,3670.54 3732.6,3698.83C3818.43,3768.46 3886.02,3876 3891.25,3988.29C3893.43,4035.23 3891.86,4092.98 3862.39,4132.22C3857.67,4138.49 3851.04,4144.89 3844.13,4148.63C3783.81,4181.25 3757.13,4038.91 3819.51,4075.89C3824.74,4078.99 3829.57,4083.09 3833.58,4087.65C3839.9,4094.84 3845.77,4103.3 3850.18,4111.77C3903.54,4214.32 3836.21,4354.51 3749.82,4417.75C3706.74,4449.27 3656.74,4468.61 3603.61,4473.08" style="fill:none;stroke:rgb(255,255,0);stroke-width:12px;stroke-linecap:round;stroke-miterlimit:1.5;"/>
                    </g>
                    <g transform="matrix(1,0,0,1,3881.87,-3540)">
                        <path d="M3605.03,3638.01C3604.14,3637.11 3606.66,3639.8 3607.08,3640.17C3609.14,3642.06 3611.08,3644.06 3612.94,3646.16C3617.51,3651.33 3623.01,3655.34 3627.86,3660.19C3629.34,3661.68 3629.81,3662.91 3631.17,3664.27" style="fill:none;stroke:rgb(255,255,0);stroke-width:12px;stroke-linecap:round;stroke-miterlimit:1.5;"/>
                    </g>
                    <g transform="matrix(1,0,0,1,3881.87,-3540)">
                        <path d="M3605.8,3637.49C3605.36,3637.49 3604.85,3636.96 3605.55,3636.73C3606.63,3636.37 3607.97,3636.7 3608.99,3636.09C3611.6,3634.53 3613.91,3632.62 3616.51,3630.99C3621.26,3628.02 3626.95,3626.82 3631.43,3623.34C3633.5,3621.73 3636.87,3617.61 3638.44,3617.61" style="fill:none;stroke:rgb(255,255,0);stroke-width:12px;stroke-linecap:round;stroke-miterlimit:1.5;"/>
                    </g>
                </g>
            </g>
        </g>
    </g>
</svg>
