<?xml version="1.0" encoding="UTF-8" standalone="no"?>
<!DOCTYPE svg PUBLIC "-//W3C//DTD SVG 1.1//EN" "http://www.w3.org/Graphics/SVG/1.1/DTD/svg11.dtd">
<svg width="100%" height="100%" viewBox="0 0 1920 1080" version="1.1" xmlns="http://www.w3.org/2000/svg" xmlns:xlink="http://www.w3.org/1999/xlink" xml:space="preserve" xmlns:serif="http://www.serif.com/" style="fill-rule:evenodd;clip-rule:evenodd;stroke-linejoin:round;stroke-miterlimit:1.41421;">
    <g transform="matrix(1,0,0,1,0,-3540)">
        <g id="layers" transform="matrix(1,0,0,1,-5910,3540)">
            <rect x="5910" y="0" width="1920" height="1080"/>
            <g transform="matrix(1,0,0,1,1865.6,-3861.66)">
                <path d="M5350.93,4048.45L5352.84,4049.74L5354.13,4051.65L5354.6,4053.97L5354.6,4129.96L5354.13,4132.28L5352.84,4134.18L5350.93,4135.47L5348.61,4135.95L5348.59,4135.95L5346.27,4135.47L5344.37,4134.18L5343.08,4132.28L5342.6,4129.96L5342.6,4053.97L5343.08,4051.65L5344.37,4049.74L5346.27,4048.45L5348.59,4047.98L5348.61,4047.98L5350.93,4048.45Z" style="fill:rgb(255,255,1);"/>
            </g>
            <g transform="matrix(1,0,0,1,1680.6,-3709.53)">
                <path d="M5350.93,4048.45L5352.84,4049.74L5354.13,4051.65L5354.6,4053.97L5354.6,4129.96L5354.13,4132.28L5352.84,4134.18L5350.93,4135.47L5348.61,4135.95L5348.59,4135.95L5346.27,4135.47L5344.37,4134.18L5343.08,4132.28L5342.6,4129.96L5342.6,4053.97L5343.08,4051.65L5344.37,4049.74L5346.27,4048.45L5348.59,4047.98L5348.61,4047.98L5350.93,4048.45Z" style="fill:rgb(255,255,1);"/>
            </g>
            <g transform="matrix(1,0,0,1,1495.6,-3557.4)">
                <path d="M5350.93,4048.45L5352.84,4049.74L5354.13,4051.65L5354.6,4053.97L5354.6,4129.96L5354.13,4132.28L5352.84,4134.18L5350.93,4135.47L5348.61,4135.95L5348.59,4135.95L5346.27,4135.47L5344.37,4134.18L5343.08,4132.28L5342.6,4129.96L5342.6,4053.97L5343.08,4051.65L5344.37,4049.74L5346.27,4048.45L5348.59,4047.98L5348.61,4047.98L5350.93,4048.45Z" style="fill:rgb(255,255,1);"/>
            </g>
            <g transform="matrix(1,0,0,1,1310.6,-3405.27)">
                <path d="M5350.93,4048.45L5352.84,4049.74L5354.13,4051.65L5354.6,4053.97L5354.6,4129.96L5354.13,4132.28L5352.84,4134.18L5350.93,4135.47L5348.61,4135.95L5348.59,4135.95L5346.27,4135.47L5344.37,4134.18L5343.08,4132.28L5342.6,4129.96L5342.6,4053.97L5343.08,4051.65L5344.37,4049.74L5346.27,4048.45L5348.59,4047.98L5348.61,4047.98L5350.93,4048.45Z" style="fill:rgb(255,255,1);"/>
            </g>
            <g transform="matrix(1,0,0,1,1125.6,-3253.14)">
                <path d="M5350.93,4048.45L5352.84,4049.74L5354.13,4051.65L5354.6,4053.97L5354.6,4129.96L5354.13,4132.28L5352.84,4134.18L5350.93,4135.47L5348.61,4135.95L5348.59,4135.95L5346.27,4135.47L5344.37,4134.18L5343.08,4132.28L5342.6,4129.96L5342.6,4053.97L5343.08,4051.65L5344.37,4049.74L5346.27,4048.45L5348.59,4047.98L5348.61,4047.98L5350.93,4048.45Z" style="fill:rgb(255,255,1);"/>
            </g>
            <g transform="matrix(1,0,0,0.167076,1987.15,-586.957)">
                <path d="M5278.13,4172.96L5279.14,4174.58L5280.08,4177.22L5280.94,4180.81L5281.68,4185.24L5282.28,4190.37L5282.72,4196.04L5282.99,4202.09L5283.08,4208.32L5283.08,4664.16L5282.99,4670.4L5282.72,4676.44L5282.28,4682.12L5281.68,4687.24L5280.94,4691.67L5280.08,4695.26L5279.14,4697.91L5278.13,4699.53L5277.08,4700.07L4437.09,4700.07L4436.05,4699.53L4435.04,4697.91L4434.09,4695.26L4433.23,4691.67L4432.49,4687.24L4431.89,4682.12L4431.45,4676.44L4431.18,4670.4L4431.09,4664.16L4431.09,4208.32L4431.18,4202.09L4431.45,4196.04L4431.89,4190.37L4432.49,4185.24L4433.23,4180.81L4434.09,4177.22L4435.04,4174.58L4436.05,4172.96L4437.09,4172.41L5277.08,4172.41L5278.13,4172.96ZM4443.09,4244.24L4443.09,4628.25L5271.08,4628.25L5271.08,4244.24L4443.09,4244.24Z" style="fill:white;"/>
            </g>
            <g transform="matrix(1,0,0,0.167076,1987.15,-130.565)">
                <path d="M5278.13,4172.96L5279.14,4174.58L5280.08,4177.22L5280.94,4180.81L5281.68,4185.24L5282.28,4190.37L5282.72,4196.04L5282.99,4202.09L5283.08,4208.32L5283.08,4664.16L5282.99,4670.4L5282.72,4676.44L5282.28,4682.12L5281.68,4687.24L5280.94,4691.67L5280.08,4695.26L5279.14,4697.91L5278.13,4699.53L5277.08,4700.07L4437.09,4700.07L4436.05,4699.53L4435.04,4697.91L4434.09,4695.26L4433.23,4691.67L4432.49,4687.24L4431.89,4682.12L4431.45,4676.44L4431.18,4670.4L4431.09,4664.16L4431.09,4208.32L4431.18,4202.09L4431.45,4196.04L4431.89,4190.37L4432.49,4185.24L4433.23,4180.81L4434.09,4177.22L4435.04,4174.58L4436.05,4172.96L4437.09,4172.41L5277.08,4172.41L5278.13,4172.96ZM4443.09,4244.24L4443.09,4628.25L5271.08,4628.25L5271.08,4244.24L4443.09,4244.24Z" style="fill:white;"/>
            </g>
            <g transform="matrix(1,0,0,0.167076,1987.15,-434.826)">
                <path d="M5278.13,4172.96L5279.14,4174.58L5280.08,4177.22L5280.94,4180.81L5281.68,4185.24L5282.28,4190.37L5282.72,4196.04L5282.99,4202.09L5283.08,4208.32L5283.08,4664.16L5282.99,4670.4L5282.72,4676.44L5282.28,4682.12L5281.68,4687.24L5280.94,4691.67L5280.08,4695.26L5279.14,4697.91L5278.13,4699.53L5277.08,4700.07L4437.09,4700.07L4436.05,4699.53L4435.04,4697.91L4434.09,4695.26L4433.23,4691.67L4432.49,4687.24L4431.89,4682.12L4431.45,4676.44L4431.18,4670.4L4431.09,4664.16L4431.09,4208.32L4431.18,4202.09L4431.45,4196.04L4431.89,4190.37L4432.49,4185.24L4433.23,4180.81L4434.09,4177.22L4435.04,4174.58L4436.05,4172.96L4437.09,4172.41L5277.08,4172.41L5278.13,4172.96ZM4443.09,4244.24L4443.09,4628.25L5271.08,4628.25L5271.08,4244.24L4443.09,4244.24Z" style="fill:white;"/>
            </g>
            <g transform="matrix(1,0,0,0.167076,1987.15,21.5653)">
                <path d="M5278.13,4172.96L5279.14,4174.58L5280.08,4177.22L5280.94,4180.81L5281.68,4185.24L5282.28,4190.37L5282.72,4196.04L5282.99,4202.09L5283.08,4208.32L5283.08,4664.16L5282.99,4670.4L5282.72,4676.44L5282.28,4682.12L5281.68,4687.24L5280.94,4691.67L5280.08,4695.26L5279.14,4697.91L5278.13,4699.53L5277.08,4700.07L4437.09,4700.07L4436.05,4699.53L4435.04,4697.91L4434.09,4695.26L4433.23,4691.67L4432.49,4687.24L4431.89,4682.12L4431.45,4676.44L4431.18,4670.4L4431.09,4664.16L4431.09,4208.32L4431.18,4202.09L4431.45,4196.04L4431.89,4190.37L4432.49,4185.24L4433.23,4180.81L4434.09,4177.22L4435.04,4174.58L4436.05,4172.96L4437.09,4172.41L5277.08,4172.41L5278.13,4172.96ZM4443.09,4244.24L4443.09,4628.25L5271.08,4628.25L5271.08,4244.24L4443.09,4244.24Z" style="fill:white;"/>
            </g>
            <g transform="matrix(1,0,0,0.167076,1987.15,-282.696)">
                <path d="M5278.13,4172.96L5279.14,4174.58L5280.08,4177.22L5280.94,4180.81L5281.68,4185.24L5282.28,4190.37L5282.72,4196.04L5282.99,4202.09L5283.08,4208.32L5283.08,4664.16L5282.99,4670.4L5282.72,4676.44L5282.28,4682.12L5281.68,4687.24L5280.94,4691.67L5280.08,4695.26L5279.14,4697.91L5278.13,4699.53L5277.08,4700.07L4437.09,4700.07L4436.05,4699.53L4435.04,4697.91L4434.09,4695.26L4433.23,4691.67L4432.49,4687.24L4431.89,4682.12L4431.45,4676.44L4431.18,4670.4L4431.09,4664.16L4431.09,4208.32L4431.18,4202.09L4431.45,4196.04L4431.89,4190.37L4432.49,4185.24L4433.23,4180.81L4434.09,4177.22L4435.04,4174.58L4436.05,4172.96L4437.09,4172.41L5277.08,4172.41L5278.13,4172.96ZM4443.09,4244.24L4443.09,4628.25L5271.08,4628.25L5271.08,4244.24L4443.09,4244.24Z" style="fill:white;"/>
            </g>
            <g transform="matrix(1,0,0,0.167076,1987.15,173.696)">
                <path d="M5278.13,4172.96L5279.14,4174.58L5280.08,4177.22L5280.94,4180.81L5281.68,4185.24L5282.28,4190.37L5282.72,4196.04L5282.99,4202.09L5283.08,4208.32L5283.08,4664.16L5282.99,4670.4L5282.72,4676.44L5282.28,4682.12L5281.68,4687.24L5280.94,4691.67L5280.08,4695.26L5279.14,4697.91L5278.13,4699.53L5277.08,4700.07L4437.09,4700.07L4436.05,4699.53L4435.04,4697.91L4434.09,4695.26L4433.23,4691.67L4432.49,4687.24L4431.89,4682.12L4431.45,4676.44L4431.18,4670.4L4431.09,4664.16L4431.09,4208.32L4431.18,4202.09L4431.45,4196.04L4431.89,4190.37L4432.49,4185.24L4433.23,4180.81L4434.09,4177.22L4435.04,4174.58L4436.05,4172.96L4437.09,4172.41L5277.08,4172.41L5278.13,4172.96ZM4443.09,4244.24L4443.09,4628.25L5271.08,4628.25L5271.08,4244.24L4443.09,4244.24Z" style="fill:white;"/>
            </g>
        </g>
    </g>
</svg>
