<?xml version="1.0" encoding="UTF-8" standalone="no"?>
<!DOCTYPE svg PUBLIC "-//W3C//DTD SVG 1.1//EN" "http://www.w3.org/Graphics/SVG/1.1/DTD/svg11.dtd">
<svg width="100%" height="100%" viewBox="0 0 1920 1080" version="1.1" xmlns="http://www.w3.org/2000/svg" xmlns:xlink="http://www.w3.org/1999/xlink" xml:space="preserve" xmlns:serif="http://www.serif.com/" style="fill-rule:evenodd;clip-rule:evenodd;stroke-linecap:round;stroke-linejoin:round;stroke-miterlimit:1.5;">
    <rect id="Plan-de-travail1" serif:id="Plan de travail1" x="0" y="0" width="1920" height="1080" style="fill:none;"/>
    <g id="Plan-de-travail11" serif:id="Plan de travail1">
        <path d="M213.646,175.959C214.677,174.927 213.646,177.529 213.646,180.176C213.646,187.124 213.018,194.354 213.646,201.259C215.364,220.164 216.745,239.183 217.862,258.184C221.273,316.163 219.345,374.524 223.485,432.474C230.096,525.028 234.026,617.913 234.026,710.776C234.026,720.34 226.309,811.301 227.701,814.085C229.61,817.902 251.483,819.876 255.813,821.113C286.571,829.901 325.719,829.546 357.716,829.546C384.792,829.546 411.798,832.357 438.536,832.357C441.393,832.357 459.976,839.028 461.025,837.98C461.708,837.297 460.754,836.032 460.322,835.168C456.62,827.763 457.555,813.911 456.808,804.949C453.674,767.342 450.22,730.06 446.266,692.504C439.345,626.752 443.619,561.428 439.239,495.725C435.451,438.917 432.211,380.526 432.211,323.543C432.211,289.258 428.697,254.999 428.697,220.937C428.697,213.616 430.163,190.778 425.183,185.798C419.327,179.942 403.081,185.016 394.963,182.987C358.801,173.946 318.046,178.77 280.41,178.77C266.136,178.77 245.972,181.815 232.621,177.365C227.792,175.755 211.644,178.067 212.943,178.067" style="fill:none;stroke:black;stroke-width:10px;"/>
        <path d="M911.344,161.269L911.723,161.274L911.921,161.277L912.113,161.281L912.305,161.286L912.497,161.292L912.689,161.299L912.881,161.307L913.072,161.316L913.264,161.325L913.455,161.336L913.647,161.348L913.838,161.36L914.029,161.374L914.22,161.389L914.41,161.405L914.601,161.422L914.792,161.44L914.982,161.459L915.172,161.479L915.362,161.501L915.552,161.523L915.742,161.547L915.932,161.573L916.121,161.599L916.31,161.627L916.5,161.656L916.689,161.686L916.878,161.718L917.067,161.751L917.255,161.786L917.443,161.822L917.631,161.86L917.819,161.899L918.007,161.939L918.194,161.982L918.382,162.026L918.569,162.071L918.756,162.118L918.942,162.167L919.129,162.217L919.315,162.27L919.5,162.324L919.686,162.38L919.871,162.437L920.056,162.497L920.241,162.559L920.425,162.622L920.609,162.688L920.792,162.755L920.976,162.825L921.158,162.897L921.34,162.97L921.522,163.046L921.703,163.125L921.884,163.205L922.064,163.288L922.243,163.373L922.422,163.46L922.6,163.55L922.777,163.642L922.954,163.736L923.13,163.833L923.305,163.933L923.479,164.035L923.652,164.139L923.825,164.246L923.996,164.356L924.166,164.468L924.335,164.582L924.503,164.7L924.67,164.82L924.835,164.942L924.999,165.067L925.162,165.195L925.323,165.326L925.483,165.459L925.641,165.595L925.798,165.734L925.952,165.874L926.105,166.018L926.257,166.165L926.407,166.314L926.554,166.466L926.7,166.62L926.843,166.776L926.984,166.936L927.124,167.098L927.261,167.262L927.395,167.428L927.528,167.597L927.659,167.769L927.787,167.943L927.912,168.119L928.035,168.297L928.156,168.478L928.274,168.66L928.39,168.845L928.503,169.031L928.613,169.221L928.721,169.412L928.826,169.605L928.929,169.799L929.029,169.995L929.126,170.195L929.221,170.395L929.313,170.597L929.402,170.801L929.488,171.006L929.572,171.213L929.653,171.423L929.732,171.634L929.807,171.845L929.88,172.059L929.951,172.274L930.018,172.49L930.084,172.708L930.146,172.928L930.206,173.15L930.263,173.371L930.318,173.595L930.37,173.821L930.42,174.048L930.464,174.265L930.622,175.06L930.776,175.846L930.928,176.632L931.078,177.419L931.225,178.208L931.371,178.997L931.515,179.787L931.656,180.577L931.796,181.369L931.934,182.162L932.069,182.955L932.203,183.749L932.335,184.544L932.465,185.34L932.593,186.136L932.719,186.934L932.843,187.732L932.966,188.531L933.086,189.331L933.204,190.131L933.321,190.932L933.436,191.734L933.549,192.537L933.66,193.341L933.769,194.145L933.877,194.95L933.983,195.755L934.087,196.562L934.189,197.369L934.289,198.177L934.388,198.985L934.485,199.794L934.58,200.604L934.673,201.415L934.765,202.226L934.855,203.038L934.943,203.85L935.029,204.663L935.114,205.477L935.197,206.291L935.279,207.106L935.358,207.922L935.437,208.738L935.513,209.555L935.588,210.372L935.661,211.19L935.733,212.009L935.803,212.828L935.871,213.647L935.938,214.468L936.004,215.288L936.067,216.11L936.13,216.932L936.19,217.754L936.249,218.577L936.307,219.4L936.363,220.224L936.417,221.048L936.471,221.873L936.522,222.699L936.572,223.524L936.621,224.35L936.668,225.177L936.714,226.004L936.758,226.832L936.801,227.66L936.842,228.488L936.882,229.317L936.921,230.147L936.958,230.976L936.994,231.806L937.028,232.637L937.062,233.468L937.093,234.299L937.124,235.131L937.153,235.963L937.181,236.795L937.207,237.628L937.232,238.461L937.256,239.294L937.278,240.128L937.3,240.962L937.32,241.796L937.338,242.631L937.356,243.465L937.372,244.301L937.387,245.136L937.401,245.972L937.413,246.808L937.425,247.644L937.435,248.481L937.444,249.318L937.452,250.155L937.458,250.992L937.464,251.829L937.468,252.667L937.471,253.505L937.474,254.343L937.474,255.181L937.474,256.02L937.473,256.859L937.471,257.698L937.467,258.537L937.463,259.376L937.457,260.215L937.451,261.054L937.443,261.894L937.434,262.734L937.425,263.574L937.414,264.414L937.402,265.254L937.389,266.094L937.376,266.934L937.361,267.775L937.345,268.615L937.329,269.456L937.311,270.296L937.292,271.137L937.273,271.977L937.253,272.818L937.231,273.659L937.209,274.5L937.186,275.34L937.162,276.181L937.137,277.022L937.111,277.863L937.085,278.704L937.057,279.544L937.029,280.385L937,281.226L936.97,282.067L936.939,282.907L936.908,283.748L936.876,284.588L936.842,285.429L936.809,286.269L936.774,287.11L936.738,287.951L936.666,289.63L936.59,291.309L936.511,292.989L936.429,294.667L936.345,296.345L936.258,298.022L936.169,299.699L936.077,301.375L935.983,303.05L935.886,304.723L935.787,306.396L935.686,308.068L935.583,309.739L935.478,311.409L935.371,313.077L935.262,314.744L935.151,316.41L935.039,318.074L934.925,319.737L934.809,321.399L934.692,323.058L934.573,324.717L934.453,326.373L934.332,328.028L934.209,329.681L934.086,331.332L933.961,332.981L933.835,334.628L933.709,336.273L933.581,337.916L933.453,339.557L933.324,341.195L933.194,342.832L932.934,346.096L932.671,349.352L932.408,352.597L932.144,355.831L931.88,359.053L931.356,365.463L931.096,368.648L930.839,371.82L930.585,374.979L930.334,378.123L930.21,379.689L930.088,381.252L929.966,382.811L929.846,384.366L929.696,386.33L929.546,388.295L929.398,390.26L929.25,392.225L929.104,394.19L928.958,396.156L928.814,398.121L928.671,400.087L928.528,402.053L928.387,404.019L928.246,405.986L928.106,407.952L927.967,409.919L927.829,411.885L927.692,413.852L927.556,415.819L927.421,417.787L927.286,419.754L927.152,421.722L927.019,423.689L926.887,425.657L926.755,427.625L926.494,431.562L926.236,435.499L925.981,439.436L925.727,443.374L925.477,447.313L925.228,451.252L924.982,455.191L924.738,459.131L924.495,463.072L924.255,467.013L924.016,470.954L923.778,474.896L923.542,478.838L923.306,482.78L923.072,486.723L922.839,490.666L922.607,494.609L922.144,502.497L921.684,510.386L920.762,526.166L920.3,534.058L920.068,538.004L919.836,541.95L919.602,545.896L919.367,549.842L919.132,553.788L918.895,557.735L918.656,561.681L918.416,565.627L918.175,569.574L917.931,573.52L917.686,577.467L917.438,581.413L917.189,585.36L916.937,589.306L916.682,593.252L916.425,597.198L916.165,601.144L915.903,605.09L915.77,607.063L915.637,609.036L915.503,611.009L915.368,612.981L915.233,614.954L915.096,616.927L914.959,618.899L914.821,620.872L914.682,622.844L914.542,624.817L914.401,626.789L914.26,628.762L914.117,630.734L913.973,632.706L913.829,634.678L913.683,636.649L913.6,637.788L913.517,638.926L913.435,640.064L913.354,641.201L913.274,642.34L913.195,643.478L913.116,644.616L913.039,645.755L912.963,646.893L912.887,648.032L912.812,649.171L912.738,650.31L912.664,651.449L912.592,652.587L912.448,654.866L912.308,657.146L912.17,659.425L912.035,661.705L911.902,663.986L911.771,666.267L911.643,668.548L911.516,670.829L911.39,673.112L911.267,675.394L911.145,677.677L911.024,679.96L910.904,682.243L910.786,684.527L910.668,686.811L910.434,691.381L910.202,695.952L909.971,700.524L909.739,705.096L909.505,709.67L909.387,711.958L909.268,714.245L909.148,716.533L909.026,718.821L908.904,721.109L908.78,723.397L908.654,725.686L908.526,727.975L908.397,730.264L908.265,732.553L908.131,734.842L907.995,737.131L907.856,739.421L907.715,741.711L907.57,743.999L907.497,745.145L907.423,746.29L907.348,747.435L907.273,748.58L907.196,749.725L907.119,750.87L907.041,752.015L906.962,753.16L906.882,754.305L906.801,755.45L906.719,756.595L906.637,757.74L906.553,758.885L906.468,760.031L906.382,761.176L906.296,762.321L906.208,763.466L906.119,764.611L906.029,765.756L905.938,766.902L905.846,768.047L905.753,769.192L905.658,770.337L905.563,771.482L905.466,772.628L905.368,773.773L905.269,774.918L905.168,776.063L905.067,777.208L904.964,778.353L904.859,779.498L904.754,780.644L904.647,781.789L904.539,782.926L904.519,783.141L904.499,783.371L904.477,783.623L904.455,783.896L904.432,784.19L904.408,784.503L904.384,784.836L904.359,785.184L904.307,785.943L904.253,786.769L904.198,787.66L904.142,788.614L904.085,789.627L904.028,790.697L903.97,791.82L903.913,792.994L903.856,794.217L903.8,795.486L903.772,796.134L903.745,796.794L903.718,797.464L903.691,798.144L903.665,798.832L903.639,799.53L903.614,800.236L903.589,800.95L903.565,801.672L903.542,802.401L903.519,803.137L903.497,803.881L903.475,804.63L903.455,805.386L903.435,806.147L903.416,806.914L903.398,807.686L903.381,808.462L903.365,809.243L903.35,810.027L903.335,810.815L903.322,811.607L903.31,812.401L903.3,813.198L903.29,813.998L903.282,814.798L903.275,815.601L903.269,816.405L903.264,817.21L903.261,818.014L903.26,818.819L903.259,819.624L903.261,820.429L903.263,821.232L903.268,822.034L903.274,822.834L903.281,823.633L903.29,824.429L903.301,825.222L903.314,826.012L903.329,826.799L903.345,827.582L903.363,828.36L903.383,829.135L903.405,829.904L903.429,830.668L903.455,831.426L903.483,832.179L903.512,832.925L903.544,833.664L903.579,834.396L903.615,835.12L903.653,835.837L903.694,836.545L903.737,837.245L903.782,837.938L903.805,838.277L903.829,838.617L903.854,838.954L903.879,839.288L903.905,839.62L903.931,839.949L903.958,840.275L903.985,840.6L904.013,840.921L904.042,841.239L904.071,841.554L904.101,841.866L904.131,842.175L904.162,842.482L904.194,842.785L904.226,843.085L904.259,843.382L904.292,843.675L904.326,843.965L904.36,844.252L904.395,844.535L904.431,844.814L904.467,845.09L904.504,845.363L904.541,845.632L904.579,845.897L904.618,846.157L904.657,846.414L904.696,846.668L904.736,846.917L904.777,847.161L904.818,847.402L904.86,847.638L904.902,847.87L904.944,848.097L904.987,848.32L905.031,848.538L905.074,848.751L905.118,848.96L905.163,849.164L905.208,849.362L905.252,849.555L905.298,849.743L905.343,849.926L905.389,850.103L905.434,850.274L905.48,850.44L905.504,850.524L905.523,850.528L905.74,850.584L905.874,850.621L905.999,850.658L906.123,850.696L906.251,850.737L906.383,850.782L906.52,850.831L906.663,850.885L906.809,850.944L906.965,851.012L907.126,851.086L907.293,851.169L907.471,851.264L907.662,851.374L907.861,851.499L908.068,851.641L908.293,851.81L908.53,852.009L908.772,852.237L909.026,852.509L909.284,852.828L909.535,853.194L909.656,853.41L909.869,853.833L909.88,853.858L910.066,854.343L910.074,854.368L910.212,854.88L910.217,854.906L910.302,855.464L910.305,855.49L910.327,856.047L910.327,856.073L910.288,856.621L910.284,856.648L910.191,857.166L910.184,857.194L910.048,857.666L910.039,857.694L909.87,858.121L909.774,858.335L909.568,858.71L909.351,859.041L909.137,859.324L908.928,859.569L908.808,859.696L907.155,860.846L905.183,861.252L903.739,861.252L903.576,861.249L903.373,861.24L903.17,861.224L902.967,861.202L902.764,861.173L902.565,861.139L902.371,861.099L902.172,861.052L901.979,860.999L901.791,860.943L901.603,860.879L901.419,860.812L901.241,860.739L901.065,860.663L900.894,860.582L900.729,860.499L900.567,860.411L900.409,860.32L900.254,860.225L900.106,860.13L899.963,860.033L899.823,859.932L899.799,859.914L899.64,859.906L899.36,859.895L899.096,859.884L898.854,859.876L898.426,859.862L898.096,859.85L897.923,859.843L897.755,859.831L897.553,859.811L897.194,859.76L896.939,859.725L896.684,859.691L896.428,859.658L896.172,859.626L895.915,859.594L895.658,859.563L895.4,859.533L895.142,859.504L894.883,859.475L894.624,859.447L894.367,859.421L893.843,859.368L893.321,859.318L892.796,859.271L892.269,859.226L891.741,859.182L891.21,859.141L890.677,859.101L890.143,859.063L889.606,859.027L889.068,858.991L888.528,858.956L887.987,858.922L886.895,858.856L884.693,858.725L883.583,858.658L883.023,858.622L882.462,858.586L881.9,858.549L881.336,858.509L880.769,858.469L880.205,858.426L878.526,858.296L876.85,858.165L875.176,858.032L873.502,857.898L871.83,857.763L870.158,857.628L868.487,857.491L866.816,857.354L863.479,857.078L860.143,856.8L856.81,856.523L853.478,856.247L850.147,855.974L848.483,855.838L846.818,855.704L845.154,855.57L843.49,855.438L841.826,855.307L840.161,855.177L838.497,855.05L836.833,854.924L835.168,854.8L833.503,854.678L831.838,854.558L830.173,854.44L828.508,854.325L826.84,854.213L825.698,854.137L824.554,854.062L823.41,853.988L822.267,853.915L821.124,853.842L819.982,853.77L818.839,853.699L817.697,853.629L816.555,853.56L815.413,853.492L814.272,853.424L813.131,853.357L811.99,853.291L810.849,853.226L809.709,853.161L808.569,853.098L807.428,853.035L806.288,852.973L805.149,852.911L804.009,852.851L802.87,852.791L801.732,852.732L799.453,852.616L797.176,852.503L794.9,852.394L792.624,852.287L790.349,852.183L788.074,852.082L785.8,851.983L783.526,851.888L781.253,851.795L778.98,851.705L776.707,851.618L774.435,851.534L772.163,851.452L769.89,851.373L767.619,851.296L765.347,851.222L763.075,851.151L760.803,851.082L758.532,851.015L756.26,850.951L753.988,850.89L751.716,850.83L749.444,850.773L747.172,850.719L744.899,850.667L742.626,850.617L740.353,850.569L738.079,850.523L735.805,850.48L733.531,850.439L731.255,850.399L728.98,850.362L726.704,850.327L724.427,850.294L722.15,850.263L719.871,850.234L717.592,850.207L715.313,850.181L713.032,850.158L710.751,850.136L708.469,850.117L706.185,850.098L703.901,850.082L701.616,850.067L699.33,850.055L697.042,850.043L694.754,850.034L692.464,850.025L690.173,850.019L687.88,850.014L685.587,850.01L683.292,850.008L680.992,850.007L680.474,850.007L679.951,850.005L679.43,850.003L678.908,849.999L678.386,849.995L677.865,849.99L677.344,849.984L676.82,849.977L675.78,849.96L674.739,849.942L673.697,849.92L672.657,849.896L671.617,849.87L670.578,849.842L669.539,849.813L668.501,849.783L667.465,849.751L666.428,849.719L664.359,849.653L662.293,849.588L661.261,849.556L660.231,849.525L659.202,849.495L658.174,849.466L657.147,849.438L656.121,849.413L655.097,849.39L654.074,849.368L653.052,849.35L652.03,849.334L651.522,849.328L651.012,849.322L650.504,849.317L649.995,849.312L649.658,849.31L649.546,849.447L649.417,849.607L649.133,849.96L648.833,850.331L648.672,850.53L648.507,850.732L648.337,850.937L648.16,851.148L647.977,851.362L647.789,851.578L647.6,851.79L647.494,851.907L647.391,852.019L647.288,852.129L647.182,852.24L647.073,852.353L646.963,852.465L646.85,852.577L646.735,852.69L646.615,852.805L646.495,852.918L646.371,853.031L646.242,853.146L646.111,853.259L645.976,853.372L645.837,853.486L645.693,853.6L645.545,853.713L645.391,853.826L645.234,853.937L645.068,854.049L644.898,854.159L644.721,854.268L644.536,854.376L644.344,854.482L644.143,854.585L643.935,854.685L643.717,854.782L643.489,854.875L643.252,854.963L643.031,855.036L642.883,855.081L642.746,855.119L642.617,855.153L642.482,855.185L642.342,855.216L642.208,855.242L642.066,855.268L641.918,855.291L641.768,855.31L641.619,855.327L641.472,855.34L641.32,855.35L641.16,855.356L641.004,855.359L640.851,855.358L640.69,855.354L640.526,855.345L640.366,855.332L640.206,855.316L640.043,855.295L639.877,855.27L639.717,855.241L639.558,855.208L639.393,855.17L639.234,855.128L639.073,855.083L638.916,855.033L638.76,854.98L638.603,854.922L638.451,854.861L638.301,854.797L638.153,854.73L638.008,854.66L637.865,854.586L637.721,854.508L637.583,854.428L637.449,854.346L637.318,854.263L637.187,854.175L637.062,854.087L636.94,853.998L636.818,853.904L636.704,853.812L636.59,853.717L636.477,853.619L636.37,853.522L636.264,853.423L636.162,853.323L636.061,853.222L635.966,853.121L635.873,853.021L635.779,852.916L635.689,852.812L635.602,852.708L635.519,852.604L635.436,852.499L635.356,852.394L635.277,852.287L635.2,852.18L635.127,852.075L635.054,851.967L634.982,851.858L634.914,851.75L634.847,851.643L634.78,851.533L634.715,851.423L634.653,851.314L634.591,851.203L634.531,851.093L634.472,850.983L634.414,850.871L634.356,850.756L634.29,850.622L634.225,850.488L634.161,850.351L634.099,850.216L634.04,850.081L633.98,849.943L633.923,849.806L633.867,849.669L633.813,849.533L633.76,849.396L633.707,849.256L633.658,849.12L633.61,848.983L633.562,848.842L633.516,848.704L633.472,848.567L633.429,848.429L633.387,848.289L633.347,848.151L633.308,848.013L633.27,847.875L633.234,847.735L633.198,847.596L633.165,847.458L633.132,847.32L633.101,847.181L633.071,847.042L633.042,846.905L633.015,846.767L632.988,846.627L632.963,846.489L632.939,846.351L632.916,846.212L632.894,846.074L632.873,845.937L632.853,845.799L632.835,845.661L632.816,845.515L632.785,845.25L632.757,844.975L632.733,844.701L632.713,844.429L632.696,844.156L632.683,843.885L632.674,843.614L632.667,843.344L632.664,843.075L632.664,842.806L632.667,842.538L632.673,842.27L632.682,842.004L632.693,841.738L632.707,841.473L632.724,841.208L632.743,840.944L632.764,840.682L632.788,840.42L632.814,840.158L632.841,839.897L632.871,839.637L632.903,839.378L632.937,839.119L632.973,838.86L633.01,838.603L633.048,838.348L633.089,838.091L633.131,837.836L633.175,837.581L633.219,837.328L633.266,837.074L633.313,836.822L633.362,836.57L633.411,836.32L633.462,836.069L633.514,835.82L633.567,835.571L633.621,835.322L633.675,835.075L633.73,834.829L633.787,834.582L633.844,834.334L633.959,833.85L634.076,833.365L634.195,832.884L634.315,832.406L634.436,831.932L634.558,831.461L634.679,830.994L634.92,830.075L635.156,829.169L635.272,828.725L635.384,828.286L635.495,827.852L635.602,827.424L635.705,827.002L635.805,826.586L635.901,826.172L635.947,825.973L635.991,825.774L636.035,825.576L636.077,825.379L636.118,825.184L636.158,824.991L636.197,824.8L636.233,824.612L636.269,824.425L636.303,824.241L636.336,824.06L636.366,823.88L636.396,823.702L636.424,823.527L636.45,823.355L636.475,823.185L636.498,823.018L636.519,822.853L636.538,822.692L636.556,822.532L636.572,822.376L636.586,822.224L636.599,822.073L636.61,821.926L636.619,821.782L636.627,821.642L636.632,821.505L636.636,821.371L636.639,821.24L636.64,821.095L636.64,820.39L636.642,819.667L636.644,818.945L636.648,818.223L636.652,817.501L636.658,816.78L636.664,816.058L636.672,815.337L636.68,814.616L636.689,813.895L636.699,813.175L636.71,812.454L636.722,811.734L636.734,811.014L636.747,810.295L636.762,809.575L636.777,808.856L636.792,808.135L636.826,806.699L636.862,805.262L636.901,803.826L636.943,802.39L636.987,800.956L637.033,799.521L637.082,798.088L637.133,796.655L637.185,795.223L637.24,793.792L637.296,792.361L637.353,790.931L637.412,789.501L637.473,788.072L637.534,786.643L637.596,785.215L637.66,783.787L637.788,780.934L637.919,778.082L638.051,775.232L638.182,772.384L638.313,769.537L638.441,766.69L638.504,765.268L638.566,763.846L638.627,762.424L638.687,761.002L638.746,759.581L638.803,758.16L638.859,756.739L638.912,755.318L638.965,753.897L639.015,752.476L639.063,751.056L639.109,749.636L639.152,748.215L639.193,746.795L639.232,745.375L639.268,743.955L639.301,742.533L639.316,741.824L639.331,741.114L639.345,740.404L639.358,739.694L639.371,738.984L639.382,738.274L639.393,737.564L639.403,736.854L639.412,736.144L639.42,735.433L639.427,734.723L639.433,734.013L639.439,733.303L639.443,732.592L639.446,731.882L639.449,731.172L639.45,730.462L639.451,729.75L639.45,727.163L639.447,724.574L639.442,721.985L639.435,719.396L639.427,716.807L639.416,714.218L639.404,711.628L639.391,709.039L639.375,706.449L639.359,703.859L639.341,701.269L639.321,698.679L639.301,696.089L639.279,693.498L639.256,690.908L639.232,688.317L639.206,685.726L639.18,683.135L639.153,680.544L639.125,677.954L639.067,672.771L639.007,667.588L638.944,662.405L638.88,657.222L638.749,646.853L638.617,636.485L638.553,631.3L638.49,626.115L638.43,620.93L638.372,615.746L638.344,613.153L638.317,610.56L638.29,607.967L638.265,605.375L638.241,602.782L638.218,600.19L638.196,597.597L638.175,595.004L638.156,592.412L638.138,589.819L638.121,587.227L638.106,584.634L638.092,582.041L638.08,579.449L638.07,576.857L638.061,574.264L638.054,571.672L638.049,569.079L638.046,566.487L638.045,563.894L638.047,561.418L638.05,558.94L638.055,556.462L638.062,553.983L638.071,551.503L638.08,549.022L638.091,546.54L638.103,544.058L638.129,539.093L638.155,534.125L638.182,529.155L638.194,526.67L638.206,524.185L638.216,521.699L638.226,519.213L638.234,516.728L638.241,514.242L638.245,511.756L638.248,509.27L638.249,506.785L638.247,504.299L638.243,501.814L638.235,499.328L638.231,498.087L638.225,496.845L638.219,495.603L638.212,494.36L638.204,493.119L638.195,491.877L638.185,490.635L638.174,489.393L638.163,488.152L638.15,486.911L638.136,485.67L638.122,484.429L638.106,483.188L638.089,481.947L638.071,480.707L638.052,479.466L638.032,478.226L638.01,476.986L637.988,475.746L637.964,474.507L637.938,473.267L637.912,472.028L637.884,470.79L637.855,469.551L637.825,468.312L637.793,467.074L637.759,465.836L637.725,464.599L637.688,463.361L637.651,462.124L637.611,460.887L637.571,459.651L637.528,458.414L637.484,457.178L637.439,455.943L637.391,454.707L637.342,453.472L637.292,452.237L637.24,451.003L637.185,449.769L637.13,448.535L637.072,447.302L637.012,446.069L636.951,444.836L636.888,443.604L636.823,442.372L636.756,441.14L636.687,439.909L636.616,438.678L636.543,437.448L636.468,436.218L636.391,434.988L636.312,433.759L636.23,432.53L636.147,431.302L636.061,430.074L635.974,428.847L635.884,427.62L635.792,426.393L635.697,425.167L635.601,423.941L635.502,422.716L635.4,421.492L635.297,420.268L635.19,419.044L635.082,417.821L634.971,416.598L634.858,415.376L634.742,414.154L634.624,412.933L634.503,411.713L634.379,410.493L634.253,409.273L634.124,408.054L633.993,406.836L633.859,405.613L633.794,405.029L633.73,404.44L633.667,403.851L633.605,403.262L633.544,402.673L633.484,402.084L633.425,401.495L633.367,400.906L633.309,400.317L633.253,399.728L633.198,399.14L633.143,398.551L633.089,397.962L633.037,397.373L632.985,396.785L632.934,396.196L632.883,395.607L632.834,395.019L632.786,394.43L632.738,393.841L632.691,393.253L632.646,392.664L632.601,392.076L632.556,391.488L632.513,390.899L632.47,390.311L632.428,389.722L632.387,389.134L632.347,388.546L632.307,387.956L632.231,386.781L632.157,385.605L632.086,384.429L632.018,383.253L631.953,382.078L631.891,380.902L631.831,379.726L631.775,378.551L631.72,377.376L631.668,376.201L631.619,375.026L631.572,373.852L631.527,372.677L631.485,371.503L631.445,370.329L631.407,369.155L631.371,367.981L631.338,366.808L631.306,365.634L631.276,364.461L631.248,363.288L631.222,362.116L631.198,360.943L631.175,359.771L631.154,358.599L631.135,357.427L631.117,356.255L631.1,355.083L631.085,353.912L631.072,352.741L631.059,351.57L631.048,350.399L631.038,349.229L631.029,348.059L631.021,346.889L631.015,345.719L631.009,344.549L631.004,343.38L631,342.21L630.994,339.874L630.99,337.538L630.989,335.202L630.989,332.868L630.99,330.534L630.995,325.871L630.998,323.541L630.999,321.212L631,318.884L630.999,316.557L630.996,314.231L630.99,311.906L630.987,310.745L630.982,309.584L630.976,308.423L630.97,307.262L630.963,306.101L630.954,304.941L630.945,303.781L630.934,302.622L630.923,301.462L630.91,300.304L630.895,299.145L630.88,297.987L630.862,296.829L630.844,295.671L630.824,294.514L630.802,293.357L630.779,292.201L630.754,291.044L630.727,289.888L630.698,288.733L630.668,287.578L630.635,286.423L630.601,285.268L630.564,284.114L630.526,282.961L630.485,281.807L630.442,280.654L630.397,279.502L630.349,278.349L630.299,277.197L630.247,276.046L630.192,274.895L630.135,273.744L630.075,272.593L630.012,271.443L629.947,270.294L629.879,269.145L629.808,267.996L629.734,266.846L629.696,266.273L629.657,265.699L629.617,265.125L629.577,264.551L629.536,263.978L629.494,263.404L629.452,262.831L629.408,262.257L629.364,261.684L629.319,261.111L629.273,260.538L629.227,259.965L629.179,259.392L629.131,258.819L629.082,258.247L629.032,257.674L628.981,257.101L628.929,256.523L628.864,255.792L628.8,255.052L628.737,254.311L628.677,253.568L628.619,252.822L628.562,252.076L628.508,251.327L628.455,250.576L628.405,249.825L628.356,249.071L628.309,248.316L628.265,247.559L628.222,246.802L628.181,246.043L628.142,245.282L628.106,244.521L628.071,243.758L628.038,242.994L628.008,242.229L627.98,241.464L627.953,240.697L627.929,239.93L627.907,239.162L627.887,238.393L627.869,237.624L627.853,236.854L627.839,236.083L627.827,235.312L627.818,234.541L627.811,233.769L627.806,232.997L627.803,232.225L627.802,231.453L627.804,230.681L627.807,229.909L627.813,229.136L627.822,228.364L627.832,227.592L627.845,226.821L627.86,226.05L627.877,225.278L627.897,224.508L627.919,223.738L627.943,222.969L627.97,222.2L627.999,221.431L628.03,220.664L628.064,219.897L628.1,219.131L628.138,218.367L628.179,217.603L628.222,216.84L628.268,216.078L628.316,215.317L628.367,214.558L628.42,213.8L628.475,213.043L628.533,212.288L628.594,211.534L628.657,210.782L628.722,210.031L628.79,209.282L628.861,208.535L628.933,207.803L628.954,207.578L628.976,207.34L628.999,207.076L629.022,206.789L629.047,206.479L629.072,206.149L629.097,205.8L629.123,205.435L629.177,204.648L629.232,203.804L629.289,202.908L629.346,201.969L629.404,200.992L629.462,199.986L629.52,198.958L629.578,197.916L629.636,196.865L629.693,195.814L629.804,193.738L630.007,189.885L630.095,188.221L630.172,186.806L630.206,186.204L630.236,185.682L630.263,185.243L630.288,184.887L630.3,184.721L630.314,184.556L630.335,184.363L630.366,184.135L630.393,183.993L630.577,183.305L630.579,183.298L631.246,182.111L631.022,180.666L631.033,180.418L631.092,179.958L631.189,179.514L631.32,179.086L631.482,178.68L631.666,178.307L631.867,177.967L632.077,177.661L632.295,177.385L632.511,177.142L632.726,176.925L632.941,176.73L633.146,176.561L633.346,176.409L633.542,176.273L633.727,176.153L633.908,176.045L634.082,175.948L634.25,175.861L634.415,175.781L634.574,175.707L634.728,175.641L634.879,175.579L635.026,175.523L635.17,175.47L635.312,175.421L635.451,175.376L635.589,175.333L635.724,175.292L635.859,175.254L635.992,175.218L636.124,175.184L636.256,175.152L636.386,175.121L636.517,175.091L636.648,175.063L636.778,175.036L636.917,175.009L637.169,174.962L637.431,174.917L637.696,174.875L637.963,174.836L638.233,174.8L638.506,174.766L638.783,174.734L639.063,174.704L639.347,174.676L639.635,174.65L639.927,174.626L640.222,174.603L640.522,174.581L640.826,174.562L641.134,174.543L641.446,174.526L641.762,174.51L642.081,174.496L642.405,174.482L642.732,174.47L643.062,174.459L643.397,174.449L643.734,174.44L644.075,174.432L644.419,174.425L644.766,174.419L645.116,174.415L645.468,174.411L645.824,174.408L646.181,174.405L646.542,174.404L646.904,174.404L647.271,174.404L648.002,174.407L648.743,174.413L649.489,174.422L650.239,174.433L650.992,174.447L651.746,174.463L652.5,174.481L653.253,174.501L654.004,174.523L654.751,174.546L655.493,174.571L656.228,174.597L656.955,174.625L657.674,174.653L658.382,174.682L659.078,174.711L659.76,174.741L660.429,174.772L661.081,174.802L661.717,174.832L662.928,174.892L664.054,174.95L665.084,175.004L666.803,175.096L667.469,175.132L667.987,175.158L668.176,175.167L668.316,175.173L668.384,175.176L668.388,175.176L678.885,175.176L679.535,175.175L680.182,175.173L680.83,175.17L681.478,175.165L682.126,175.16L682.775,175.153L683.424,175.144L684.072,175.135L684.721,175.125L685.371,175.113L686.02,175.1L686.67,175.086L687.32,175.071L687.97,175.054L688.62,175.037L689.27,175.018L689.921,174.999L690.572,174.978L691.223,174.956L691.874,174.933L692.525,174.91L693.177,174.885L693.828,174.859L694.48,174.832L695.132,174.805L695.784,174.776L696.437,174.746L697.089,174.716L697.742,174.685L698.395,174.652L699.048,174.619L699.701,174.585L700.354,174.55L701.008,174.515L701.661,174.478L702.315,174.441L702.969,174.403L703.622,174.364L704.932,174.284L706.241,174.201L707.551,174.115L708.861,174.027L710.172,173.936L711.483,173.842L712.795,173.747L714.107,173.649L715.42,173.549L716.733,173.447L718.047,173.343L719.361,173.238L720.675,173.13L721.99,173.022L723.305,172.912L724.62,172.801L725.936,172.688L727.253,172.575L728.569,172.46L731.203,172.23L733.838,171.997L736.474,171.762L739.111,171.528L741.749,171.294L744.387,171.062L745.707,170.947L747.026,170.833L748.346,170.719L749.665,170.607L750.985,170.496L752.305,170.386L753.625,170.277L754.945,170.17L756.265,170.065L757.585,169.961L758.905,169.859L760.225,169.759L761.545,169.662L762.862,169.566L766.727,169.289L770.594,169.01L778.342,168.45L782.222,168.169L786.105,167.89L789.993,167.612L793.883,167.336L795.83,167.199L797.777,167.063L799.725,166.928L801.674,166.794L803.623,166.661L805.573,166.529L807.523,166.399L809.474,166.27L811.426,166.142L813.378,166.016L815.331,165.891L817.283,165.768L819.237,165.647L821.19,165.528L823.145,165.411L825.099,165.296L827.053,165.183L829.008,165.072L830.963,164.964L832.919,164.858L834.874,164.754L836.83,164.653L838.785,164.555L840.741,164.46L842.696,164.367L844.651,164.277L845.63,164.233L846.608,164.191L847.586,164.148L848.563,164.107L849.541,164.066L850.519,164.027L851.496,163.988L852.474,163.95L853.452,163.912L854.429,163.876L855.407,163.841L856.384,163.806L857.362,163.772L858.339,163.739L859.316,163.707L860.294,163.676L861.271,163.646L862.248,163.617L863.225,163.589L864.202,163.562L865.179,163.536L866.155,163.51L867.132,163.486L868.109,163.463L869.085,163.441L870.061,163.42L871.038,163.399L872.014,163.38L872.99,163.362L873.966,163.345L874.941,163.33L875.917,163.315L876.893,163.301L877.868,163.289L878.843,163.278L879.818,163.267L880.793,163.258L881.768,163.25L882.743,163.244L883.717,163.238L884.692,163.234L885.666,163.231L886.64,163.229L887.601,163.228L887.893,163.227L888.177,163.224L888.466,163.218L888.759,163.21L889.057,163.199L889.359,163.187L889.665,163.172L889.974,163.155L890.288,163.136L890.605,163.116L890.926,163.093L891.25,163.068L891.578,163.042L891.909,163.014L892.243,162.985L892.58,162.954L892.919,162.921L893.262,162.887L893.607,162.852L893.955,162.816L894.305,162.778L894.656,162.74L895.371,162.659L896.091,162.575L896.819,162.489L897.554,162.4L898.296,162.311L899.043,162.22L899.796,162.13L900.552,162.04L901.313,161.952L902.075,161.866L902.46,161.823L902.844,161.782L903.228,161.742L903.613,161.702L903.999,161.664L904.384,161.627L904.771,161.591L905.157,161.556L905.544,161.523L905.931,161.491L906.318,161.462L906.705,161.433L907.092,161.407L907.479,161.383L907.867,161.36L908.254,161.34L908.641,161.322L909.028,161.307L909.414,161.294L909.801,161.283L910.187,161.275L910.573,161.27L910.958,161.268L911.344,161.269ZM910.663,171.27L910.352,171.274L910.037,171.28L909.719,171.289L909.398,171.3L909.073,171.313L908.746,171.328L908.415,171.345L908.082,171.364L907.746,171.386L907.407,171.409L907.066,171.434L906.723,171.46L906.377,171.488L906.03,171.518L905.679,171.549L905.327,171.582L904.974,171.616L904.618,171.652L904.261,171.688L903.902,171.726L903.541,171.765L903.181,171.804L902.451,171.887L901.718,171.972L900.981,172.059L900.241,172.148L899.498,172.238L898.752,172.328L898.005,172.418L897.257,172.507L896.508,172.594L895.762,172.678L895.385,172.72L895.01,172.76L894.636,172.799L894.262,172.837L893.888,172.874L893.515,172.91L893.142,172.944L892.769,172.977L892.397,173.009L892.025,173.038L891.654,173.066L891.284,173.093L890.913,173.117L890.544,173.139L890.175,173.159L889.807,173.177L889.44,173.192L889.073,173.205L888.707,173.215L888.342,173.222L887.977,173.227L887.626,173.228L886.652,173.229L885.691,173.231L884.729,173.234L883.767,173.238L882.805,173.244L881.843,173.25L880.88,173.258L879.917,173.267L878.954,173.277L877.99,173.288L877.026,173.3L876.062,173.314L875.098,173.328L874.133,173.344L873.168,173.361L872.203,173.379L871.238,173.397L870.273,173.417L869.307,173.438L868.341,173.46L867.375,173.483L866.408,173.507L865.442,173.532L864.475,173.558L863.508,173.585L862.541,173.613L861.573,173.642L860.606,173.671L859.638,173.702L858.67,173.734L857.702,173.766L856.734,173.8L855.765,173.834L854.797,173.869L853.828,173.905L852.859,173.942L851.89,173.98L850.921,174.019L849.951,174.058L848.982,174.098L848.012,174.139L847.042,174.181L846.072,174.224L845.103,174.267L843.162,174.356L841.221,174.448L839.28,174.543L837.338,174.64L835.396,174.741L833.454,174.843L831.511,174.949L829.568,175.056L827.625,175.167L825.681,175.279L823.738,175.393L821.794,175.51L819.851,175.628L817.907,175.749L815.963,175.871L814.019,175.995L812.075,176.121L810.131,176.248L808.187,176.377L806.244,176.507L804.3,176.638L802.357,176.771L800.414,176.904L798.471,177.039L796.529,177.175L794.587,177.311L790.703,177.586L786.821,177.864L782.941,178.143L779.063,178.424L771.314,178.984L767.444,179.263L763.58,179.541L762.275,179.635L760.971,179.731L759.666,179.83L758.361,179.931L757.055,180.033L755.747,180.138L754.439,180.244L753.13,180.352L751.82,180.461L750.51,180.571L749.198,180.683L747.886,180.796L746.573,180.909L745.259,181.024L742.629,181.255L739.996,181.489L737.36,181.723L734.721,181.957L732.08,182.191L729.438,182.423L728.114,182.538L726.791,182.652L725.467,182.765L724.143,182.877L722.818,182.987L721.493,183.097L720.167,183.205L718.841,183.312L717.514,183.416L716.187,183.519L714.859,183.621L713.531,183.72L712.202,183.817L710.873,183.911L709.543,184.003L708.214,184.093L706.883,184.18L705.553,184.264L704.223,184.346L703.556,184.385L702.891,184.424L702.225,184.462L701.559,184.499L700.893,184.536L700.227,184.571L699.561,184.606L698.895,184.64L698.229,184.673L697.563,184.705L696.897,184.736L696.23,184.766L695.564,184.795L694.897,184.824L694.231,184.851L693.564,184.877L692.897,184.903L692.231,184.927L691.564,184.95L690.897,184.973L690.23,184.994L689.563,185.014L688.896,185.033L688.229,185.051L687.562,185.068L686.895,185.083L686.228,185.098L685.561,185.111L684.894,185.123L684.226,185.134L683.559,185.144L682.892,185.152L682.224,185.159L681.557,185.165L680.89,185.17L680.222,185.173L679.555,185.175L678.89,185.176L668.303,185.176L668.127,185.173L667.932,185.166L667.728,185.157L667.496,185.146L666.948,185.118L666.269,185.082L664.553,184.99L663.536,184.936L662.426,184.88L661.232,184.821L660.609,184.791L659.969,184.761L659.314,184.731L658.646,184.702L657.965,184.673L657.273,184.645L656.572,184.617L655.863,184.591L655.147,184.565L654.426,184.541L653.702,184.518L652.975,184.497L652.247,184.478L651.519,184.46L650.794,184.445L650.072,184.432L649.355,184.421L648.644,184.412L647.942,184.407L647.246,184.404L646.906,184.404L646.566,184.404L646.23,184.405L645.897,184.407L645.568,184.41L645.242,184.414L644.92,184.418L644.603,184.424L644.289,184.43L643.981,184.437L643.677,184.445L643.379,184.454L643.086,184.464L642.798,184.474L642.516,184.486L642.24,184.499L641.971,184.512L641.708,184.527L641.452,184.542L641.204,184.558L640.963,184.575L640.729,184.593L640.504,184.612L640.304,184.631L640.304,184.634L640.314,184.9L640.315,185.061L640.027,186.563L640.034,186.554L640.148,186.223L640.237,185.759L640.263,185.574L640.269,185.512L640.267,185.532L640.262,185.607L640.243,185.888L640.218,186.281L640.19,186.775L640.157,187.357L640.081,188.757L639.993,190.414L639.79,194.268L639.678,196.352L639.621,197.41L639.563,198.468L639.504,199.52L639.446,200.558L639.387,201.577L639.328,202.568L639.27,203.526L639.212,204.444L639.155,205.315L639.099,206.131L639.071,206.521L639.044,206.893L639.017,207.249L638.99,207.59L638.964,207.914L638.937,208.221L638.911,208.511L638.886,208.771L638.815,209.494L638.748,210.205L638.683,210.919L638.62,211.634L638.56,212.352L638.502,213.071L638.447,213.792L638.394,214.515L638.343,215.239L638.295,215.966L638.249,216.693L638.205,217.422L638.164,218.153L638.125,218.885L638.088,219.617L638.053,220.352L638.021,221.087L637.991,221.824L637.963,222.561L637.938,223.299L637.914,224.038L637.893,224.778L637.874,225.518L637.858,226.259L637.843,227.001L637.831,227.743L637.821,228.486L637.813,229.229L637.807,229.972L637.804,230.715L637.802,231.459L637.803,232.202L637.806,232.946L637.81,233.689L637.817,234.433L637.826,235.176L637.838,235.919L637.851,236.662L637.866,237.404L637.883,238.145L637.903,238.887L637.924,239.627L637.948,240.367L637.973,241.106L638.001,241.844L638.03,242.582L638.061,243.318L638.095,244.053L638.13,244.788L638.168,245.521L638.207,246.253L638.248,246.983L638.291,247.713L638.336,248.44L638.383,249.167L638.432,249.891L638.482,250.614L638.535,251.336L638.589,252.055L638.645,252.773L638.704,253.488L638.763,254.202L638.825,254.914L638.889,255.629L638.942,256.211L638.994,256.798L639.045,257.385L639.095,257.972L639.145,258.56L639.193,259.147L639.241,259.734L639.288,260.322L639.334,260.909L639.379,261.496L639.424,262.083L639.467,262.67L639.51,263.257L639.552,263.844L639.593,264.431L639.634,265.019L639.673,265.606L639.712,266.194L639.788,267.366L639.86,268.54L639.93,269.714L639.997,270.887L640.061,272.061L640.122,273.234L640.18,274.408L640.236,275.581L640.289,276.754L640.34,277.927L640.389,279.099L640.435,280.272L640.478,281.445L640.52,282.617L640.559,283.789L640.596,284.961L640.631,286.133L640.664,287.305L640.695,288.477L640.724,289.649L640.751,290.82L640.776,291.991L640.8,293.162L640.822,294.333L640.842,295.504L640.861,296.675L640.879,297.845L640.894,299.015L640.909,300.186L640.922,301.356L640.934,302.525L640.945,303.695L640.954,304.864L640.963,306.034L640.97,307.203L640.976,308.372L640.982,309.54L640.986,310.709L640.99,311.878L640.996,314.213L640.999,316.548L641,318.883L640.999,321.217L640.998,323.549L640.995,325.881L640.99,330.543L640.989,332.872L640.989,335.2L640.99,337.527L640.994,339.853L641,342.18L641.004,343.341L641.009,344.503L641.014,345.665L641.021,346.826L641.029,347.988L641.038,349.149L641.048,350.309L641.059,351.47L641.071,352.63L641.085,353.79L641.099,354.949L641.116,356.108L641.133,357.267L641.153,358.426L641.173,359.585L641.196,360.743L641.22,361.9L641.246,363.058L641.273,364.215L641.302,365.372L641.334,366.529L641.367,367.685L641.402,368.841L641.44,369.997L641.479,371.152L641.521,372.308L641.564,373.462L641.611,374.617L641.659,375.771L641.71,376.925L641.763,378.078L641.819,379.231L641.878,380.384L641.939,381.537L642.002,382.689L642.069,383.841L642.138,384.992L642.21,386.143L642.286,387.296L642.324,387.869L642.363,388.444L642.404,389.02L642.444,389.595L642.486,390.17L642.529,390.744L642.572,391.319L642.616,391.894L642.661,392.469L642.706,393.043L642.753,393.617L642.8,394.192L642.848,394.766L642.897,395.34L642.947,395.914L642.997,396.488L643.049,397.062L643.101,397.635L643.154,398.209L643.208,398.783L643.263,399.356L643.319,399.93L643.376,400.503L643.433,401.076L643.492,401.649L643.551,402.222L643.611,402.796L643.673,403.368L643.735,403.941L643.799,404.519L643.934,405.754L644.068,406.994L644.199,408.234L644.327,409.475L644.453,410.717L644.576,411.958L644.696,413.2L644.814,414.442L644.929,415.685L645.042,416.927L645.152,418.17L645.26,419.414L645.365,420.657L645.468,421.901L645.569,423.146L645.667,424.39L645.763,425.635L645.856,426.88L645.948,428.125L646.037,429.37L646.123,430.616L646.208,431.862L646.29,433.108L646.371,434.354L646.449,435.601L646.525,436.847L646.599,438.094L646.671,439.341L646.741,440.589L646.808,441.836L646.874,443.084L646.938,444.331L647,445.579L647.061,446.827L647.119,448.076L647.176,449.324L647.23,450.572L647.283,451.821L647.334,453.07L647.384,454.318L647.432,455.567L647.478,456.816L647.522,458.065L647.565,459.315L647.606,460.564L647.646,461.813L647.684,463.063L647.72,464.312L647.755,465.561L647.789,466.811L647.821,468.061L647.852,469.31L647.881,470.56L647.91,471.809L647.936,473.059L647.962,474.309L647.986,475.558L648.009,476.808L648.03,478.058L648.051,479.308L648.07,480.557L648.088,481.807L648.105,483.056L648.121,484.306L648.136,485.555L648.149,486.805L648.162,488.054L648.174,489.303L648.185,490.552L648.195,491.802L648.203,493.051L648.212,494.3L648.219,495.548L648.225,496.797L648.231,498.046L648.235,499.295L648.243,501.791L648.247,504.287L648.249,506.782L648.248,509.277L648.245,511.771L648.241,514.265L648.234,516.757L648.226,519.249L648.216,521.74L648.206,524.23L648.194,526.718L648.182,529.206L648.155,534.178L648.129,539.145L648.103,544.108L648.091,546.586L648.08,549.064L648.07,551.54L648.062,554.014L648.055,556.487L648.05,558.958L648.047,561.427L648.045,563.895L648.046,566.479L648.049,569.064L648.054,571.649L648.061,574.234L648.07,576.82L648.08,579.406L648.092,581.992L648.106,584.578L648.121,587.165L648.138,589.752L648.156,592.339L648.175,594.927L648.196,597.515L648.218,600.103L648.241,602.691L648.265,605.28L648.29,607.868L648.316,610.457L648.343,613.047L648.371,615.636L648.429,620.816L648.49,625.996L648.552,631.178L648.617,636.36L648.748,646.727L648.879,657.096L648.943,662.282L649.006,667.469L649.067,672.656L649.125,677.844L649.153,680.438L649.18,683.033L649.206,685.627L649.231,688.222L649.255,690.816L649.278,693.411L649.3,696.006L649.321,698.601L649.341,701.197L649.359,703.792L649.375,706.387L649.39,708.983L649.404,711.579L649.416,714.174L649.427,716.77L649.435,719.366L649.442,721.962L649.447,724.559L649.45,727.155L649.451,729.752L649.45,730.476L649.449,731.2L649.446,731.924L649.443,732.648L649.438,733.372L649.433,734.095L649.426,734.818L649.419,735.541L649.411,736.264L649.402,736.986L649.392,737.708L649.381,738.43L649.369,739.152L649.357,739.874L649.343,740.595L649.329,741.316L649.314,742.036L649.299,742.758L649.265,744.197L649.229,745.637L649.19,747.076L649.148,748.514L649.104,749.951L649.057,751.387L649.009,752.822L648.958,754.257L648.905,755.691L648.851,757.124L648.795,758.556L648.737,759.988L648.678,761.419L648.618,762.849L648.557,764.279L648.494,765.708L648.431,767.137L648.302,769.991L648.172,772.843L648.04,775.694L647.909,778.542L647.778,781.388L647.65,784.234L647.587,785.655L647.525,787.076L647.464,788.497L647.404,789.918L647.345,791.338L647.288,792.758L647.232,794.177L647.178,795.597L647.126,797.016L647.076,798.434L647.028,799.853L646.982,801.271L646.938,802.689L646.897,804.107L646.859,805.525L646.823,806.942L646.79,808.361L646.774,809.068L646.76,809.777L646.746,810.486L646.733,811.194L646.72,811.903L646.709,812.611L646.698,813.32L646.688,814.028L646.679,814.737L646.671,815.445L646.664,816.153L646.658,816.862L646.652,817.57L646.648,818.279L646.644,818.987L646.642,819.696L646.64,820.404L646.64,821.131L646.638,821.365L646.634,821.616L646.626,821.866L646.616,822.117L646.602,822.366L646.586,822.614L646.568,822.862L646.547,823.109L646.524,823.355L646.499,823.601L646.471,823.846L646.442,824.091L646.41,824.335L646.377,824.579L646.342,824.821L646.305,825.064L646.267,825.306L646.227,825.547L646.185,825.788L646.142,826.03L646.098,826.27L646.052,826.509L646.005,826.749L645.957,826.988L645.908,827.227L645.857,827.465L645.806,827.702L645.754,827.94L645.7,828.178L645.646,828.419L645.537,828.886L645.424,829.358L645.309,829.827L645.192,830.295L645.073,830.761L644.954,831.226L644.834,831.689L644.594,832.606L644.355,833.518L644.238,833.968L644.123,834.417L644.009,834.862L643.898,835.304L643.789,835.743L643.684,836.178L643.581,836.612L643.532,836.823L643.484,837.035L643.436,837.247L643.39,837.458L643.345,837.666L643.301,837.875L643.258,838.082L643.216,838.287L643.175,838.491L643.136,838.694L643.098,838.895L643.062,839.095L643.027,839.293L642.993,839.49L642.961,839.684L642.931,839.877L642.902,840.07L642.874,840.26L642.848,840.447L642.824,840.633L642.802,840.818L642.781,841L642.761,841.18L642.744,841.358L642.728,841.535L642.714,841.709L642.701,841.881L642.691,842.05L642.689,842.073L642.7,842.061L642.793,841.959L642.888,841.856L642.983,841.755L643.083,841.651L643.185,841.546L643.292,841.44L643.403,841.332L643.516,841.225L643.636,841.116L643.762,841.004L643.893,840.892L644.031,840.779L644.178,840.664L644.336,840.545L644.503,840.428L644.681,840.308L644.875,840.188L645.082,840.068L645.309,839.949L645.557,839.83L645.824,839.717L646.082,839.622L646.27,839.561L646.432,839.514L646.601,839.47L646.776,839.43L646.955,839.395L647.145,839.363L647.345,839.338L647.544,839.32L647.753,839.308L647.923,839.305L648.491,839.305L649.018,839.307L649.544,839.309L650.07,839.313L650.595,839.317L651.121,839.322L651.646,839.328L652.172,839.335L653.219,839.351L654.267,839.37L655.314,839.392L656.36,839.416L657.404,839.442L658.447,839.469L659.489,839.499L660.529,839.529L661.568,839.561L662.606,839.593L664.676,839.658L666.742,839.724L667.772,839.756L668.8,839.787L669.827,839.817L670.852,839.846L671.875,839.873L672.896,839.899L673.916,839.922L674.933,839.943L675.949,839.962L676.964,839.978L677.468,839.984L677.974,839.99L678.479,839.995L678.983,840L679.487,840.003L679.991,840.005L680.493,840.007L680.999,840.007L683.298,840.008L685.599,840.01L687.899,840.014L690.198,840.019L692.496,840.025L694.793,840.034L697.088,840.043L699.383,840.055L701.676,840.068L703.969,840.082L706.261,840.099L708.552,840.117L710.842,840.137L713.131,840.158L715.42,840.182L717.708,840.207L719.995,840.235L722.282,840.264L724.568,840.295L726.853,840.328L729.138,840.363L731.423,840.401L733.707,840.44L735.991,840.482L738.275,840.525L740.558,840.571L742.841,840.619L745.124,840.669L747.407,840.722L749.689,840.776L751.972,840.834L754.254,840.893L756.537,840.955L758.819,841.019L761.102,841.086L763.384,841.156L765.667,841.227L767.95,841.302L770.233,841.379L772.517,841.458L774.8,841.54L777.085,841.625L779.369,841.713L781.654,841.803L783.94,841.897L786.226,841.992L788.512,842.091L790.799,842.193L793.087,842.297L795.375,842.405L797.665,842.515L799.955,842.629L802.245,842.745L803.391,842.805L804.537,842.865L805.683,842.926L806.829,842.987L807.976,843.05L809.123,843.113L810.27,843.177L811.417,843.242L812.564,843.308L813.712,843.374L814.86,843.441L816.008,843.509L817.157,843.578L818.306,843.648L819.455,843.718L820.604,843.79L821.754,843.862L822.904,843.935L824.054,844.009L825.205,844.083L826.356,844.159L827.508,844.235L829.189,844.349L830.87,844.465L832.549,844.583L834.228,844.704L835.905,844.827L837.582,844.952L839.257,845.079L840.932,845.207L842.605,845.337L844.278,845.469L845.95,845.602L847.622,845.736L849.292,845.871L850.963,846.007L854.3,846.281L857.637,846.558L860.971,846.835L864.305,847.112L867.638,847.387L869.304,847.524L870.97,847.661L872.636,847.796L874.303,847.93L875.969,848.064L877.636,848.196L879.302,848.326L880.966,848.455L881.504,848.496L882.04,848.534L882.578,848.572L883.118,848.608L883.659,848.643L884.201,848.677L885.294,848.743L887.494,848.874L888.602,848.941L889.16,848.976L889.719,849.012L890.279,849.049L890.841,849.088L891.405,849.128L891.97,849.17L892.536,849.214L893.104,849.261L893.673,849.309L894.244,849.361L894.817,849.415L895.023,849.436L895.016,849.398L894.965,849.111L894.916,848.822L894.867,848.529L894.82,848.235L894.773,847.937L894.728,847.637L894.683,847.334L894.639,847.029L894.597,846.721L894.555,846.411L894.514,846.098L894.473,845.782L894.434,845.463L894.395,845.143L894.358,844.82L894.321,844.494L894.284,844.166L894.249,843.835L894.214,843.503L894.18,843.167L894.147,842.83L894.115,842.49L894.083,842.148L894.052,841.803L894.022,841.456L893.992,841.108L893.963,840.757L893.935,840.404L893.908,840.049L893.881,839.691L893.855,839.333L893.829,838.971L893.804,838.606L893.757,837.877L893.711,837.137L893.669,836.391L893.628,835.638L893.59,834.878L893.555,834.113L893.521,833.341L893.49,832.564L893.461,831.782L893.434,830.995L893.409,830.203L893.387,829.406L893.366,828.606L893.347,827.802L893.33,826.995L893.316,826.184L893.302,825.371L893.291,824.556L893.282,823.738L893.274,822.919L893.268,822.098L893.263,821.276L893.261,820.454L893.259,819.631L893.26,818.808L893.261,817.985L893.264,817.162L893.269,816.341L893.275,815.521L893.282,814.702L893.291,813.885L893.3,813.071L893.311,812.258L893.324,811.449L893.337,810.643L893.351,809.841L893.367,809.042L893.383,808.248L893.401,807.458L893.419,806.673L893.438,805.894L893.458,805.119L893.479,804.351L893.501,803.589L893.524,802.834L893.547,802.085L893.571,801.344L893.595,800.61L893.62,799.885L893.646,799.167L893.672,798.458L893.699,797.758L893.726,797.067L893.753,796.386L893.781,795.714L893.809,795.052L893.866,793.763L893.924,792.518L893.983,791.32L894.042,790.173L894.1,789.078L894.159,788.039L894.217,787.057L894.273,786.137L894.329,785.278L894.383,784.487L894.41,784.113L894.436,783.758L894.462,783.42L894.487,783.099L894.512,782.795L894.536,782.508L894.56,782.239L894.583,781.993L894.691,780.852L894.796,779.719L894.901,778.585L895.004,777.452L895.106,776.318L895.207,775.184L895.307,774.049L895.405,772.915L895.502,771.78L895.598,770.645L895.693,769.51L895.786,768.375L895.879,767.24L895.97,766.104L896.06,764.969L896.149,763.833L896.238,762.697L896.325,761.561L896.411,760.425L896.496,759.289L896.58,758.152L896.663,757.016L896.745,755.879L896.826,754.742L896.906,753.605L896.986,752.468L897.064,751.33L897.142,750.193L897.219,749.055L897.295,747.917L897.37,746.779L897.444,745.641L897.518,744.503L897.591,743.366L897.734,741.087L897.875,738.81L898.013,736.532L898.149,734.253L898.282,731.974L898.413,729.694L898.542,727.414L898.669,725.133L898.795,722.852L898.918,720.571L899.041,718.289L899.162,716.006L899.281,713.723L899.4,711.44L899.518,709.157L899.752,704.587L899.984,700.017L900.215,695.446L900.447,690.872L900.681,686.299L900.799,684.01L900.918,681.722L901.038,679.434L901.159,677.146L901.281,674.857L901.405,672.568L901.531,670.278L901.658,667.988L901.787,665.699L901.919,663.408L902.052,661.118L902.188,658.827L902.327,656.537L902.468,654.246L902.612,651.955L902.685,650.809L902.759,649.663L902.833,648.517L902.909,647.372L902.985,646.226L903.062,645.08L903.14,643.934L903.219,642.788L903.298,641.642L903.379,640.496L903.46,639.35L903.543,638.204L903.626,637.058L903.71,635.913L903.856,633.945L904,631.978L904.143,630.01L904.286,628.043L904.427,626.075L904.567,624.107L904.707,622.139L904.846,620.171L904.983,618.203L905.12,616.235L905.256,614.266L905.392,612.298L905.526,610.329L905.66,608.36L905.793,606.391L905.925,604.423L906.187,600.484L906.446,596.545L906.703,592.605L906.957,588.665L907.209,584.725L907.458,580.785L907.705,576.844L907.95,572.902L908.193,568.96L908.435,565.018L908.675,561.076L908.913,557.133L909.15,553.19L909.385,549.247L909.62,545.304L909.853,541.36L910.086,537.416L910.317,533.472L910.78,525.583L911.701,509.803L912.161,501.913L912.624,494.022L912.857,490.077L913.09,486.131L913.324,482.186L913.559,478.241L913.796,474.295L914.034,470.35L914.273,466.405L914.514,462.46L914.757,458.515L915.001,454.57L915.248,450.625L915.497,446.68L915.748,442.736L916.001,438.792L916.257,434.848L916.516,430.904L916.777,426.96L916.909,424.988L917.042,423.017L917.175,421.045L917.309,419.073L917.444,417.102L917.58,415.13L917.716,413.159L917.854,411.188L917.992,409.217L918.131,407.246L918.271,405.274L918.412,403.303L918.554,401.333L918.697,399.362L918.841,397.391L918.986,395.421L919.131,393.45L919.278,391.48L919.426,389.509L919.575,387.539L919.725,385.569L919.876,383.599L919.996,382.038L920.118,380.473L920.241,378.904L920.365,377.332L920.617,374.18L920.871,371.015L921.129,367.837L921.389,364.648L921.914,358.238L922.177,355.016L922.441,351.786L922.704,348.546L922.966,345.297L923.226,342.039L923.355,340.408L923.484,338.775L923.611,337.14L923.738,335.502L923.865,333.864L923.99,332.223L924.114,330.581L924.237,328.938L924.359,327.293L924.48,325.646L924.599,323.999L924.717,322.349L924.833,320.699L924.949,319.047L925.062,317.395L925.174,315.741L925.284,314.087L925.392,312.431L925.498,310.774L925.603,309.117L925.705,307.459L925.805,305.8L925.903,304.141L925.999,302.48L926.092,300.82L926.183,299.159L926.272,297.498L926.358,295.836L926.441,294.174L926.522,292.512L926.6,290.849L926.675,289.187L926.748,287.523L926.783,286.693L926.817,285.862L926.85,285.03L926.883,284.199L926.915,283.368L926.946,282.537L926.977,281.706L927.006,280.875L927.035,280.044L927.063,279.213L927.09,278.383L927.116,277.552L927.142,276.721L927.166,275.891L927.19,275.061L927.213,274.23L927.235,273.4L927.256,272.57L927.276,271.74L927.295,270.911L927.313,270.081L927.331,269.252L927.347,268.423L927.363,267.594L927.377,266.765L927.391,265.937L927.403,265.108L927.415,264.28L927.425,263.452L927.435,262.624L927.443,261.797L927.451,260.97L927.458,260.142L927.463,259.316L927.467,258.489L927.471,257.663L927.473,256.837L927.474,256.012L927.474,255.186L927.474,254.361L927.472,253.536L927.468,252.712L927.464,251.888L927.459,251.064L927.452,250.241L927.444,249.418L927.436,248.595L927.426,247.773L927.414,246.951L927.402,246.13L927.389,245.308L927.374,244.488L927.358,243.667L927.341,242.847L927.322,242.028L927.303,241.209L927.282,240.39L927.26,239.572L927.236,238.754L927.212,237.937L927.186,237.12L927.159,236.304L927.13,235.488L927.1,234.672L927.069,233.858L927.037,233.043L927.003,232.229L926.968,231.416L926.931,230.603L926.894,229.791L926.854,228.979L926.814,228.168L926.772,227.357L926.729,226.547L926.684,225.738L926.638,224.929L926.59,224.121L926.541,223.313L926.491,222.506L926.439,221.7L926.385,220.894L926.331,220.088L926.274,219.284L926.217,218.48L926.157,217.677L926.097,216.874L926.034,216.072L925.971,215.271L925.905,214.47L925.839,213.67L925.77,212.871L925.7,212.072L925.629,211.274L925.556,210.477L925.481,209.681L925.405,208.886L925.327,208.09L925.248,207.296L925.167,206.503L925.084,205.71L925,204.919L924.914,204.128L924.827,203.338L924.737,202.548L924.647,201.759L924.554,200.972L924.46,200.185L924.364,199.398L924.266,198.613L924.167,197.829L924.066,197.045L923.964,196.262L923.859,195.48L923.753,194.699L923.645,193.919L923.535,193.14L923.424,192.361L923.311,191.584L923.196,190.807L923.079,190.032L922.96,189.257L922.84,188.483L922.718,187.711L922.594,186.939L922.468,186.168L922.34,185.398L922.21,184.629L922.079,183.861L921.946,183.094L921.811,182.328L921.674,181.563L921.535,180.799L921.394,180.036L921.251,179.274L921.106,178.513L920.96,177.753L920.811,176.995L920.663,176.248L920.637,176.124L920.614,176.015L920.589,175.91L920.564,175.805L920.537,175.703L920.511,175.604L920.483,175.508L920.455,175.414L920.426,175.322L920.397,175.233L920.367,175.146L920.337,175.061L920.306,174.979L920.275,174.899L920.244,174.821L920.212,174.744L920.179,174.67L920.146,174.598L920.113,174.528L920.08,174.46L920.046,174.393L920.012,174.328L919.977,174.264L919.943,174.203L919.908,174.143L919.872,174.084L919.836,174.027L919.8,173.971L919.764,173.917L919.727,173.863L919.69,173.811L919.652,173.761L919.615,173.711L919.576,173.662L919.537,173.613L919.497,173.566L919.458,173.52L919.417,173.475L919.376,173.429L919.334,173.385L919.292,173.342L919.249,173.299L919.206,173.257L919.161,173.215L919.115,173.173L919.069,173.132L919.022,173.092L918.974,173.052L918.925,173.012L918.875,172.973L918.824,172.934L918.771,172.895L918.718,172.857L918.664,172.819L918.608,172.781L918.551,172.743L918.493,172.707L918.434,172.67L918.373,172.633L918.311,172.597L918.247,172.56L918.182,172.525L918.116,172.489L918.048,172.454L917.979,172.419L917.909,172.385L917.836,172.35L917.762,172.316L917.687,172.283L917.61,172.25L917.532,172.217L917.451,172.184L917.37,172.152L917.287,172.121L917.202,172.09L917.116,172.059L917.028,172.029L916.939,171.999L916.848,171.969L916.755,171.941L916.661,171.912L916.565,171.884L916.467,171.857L916.368,171.83L916.268,171.804L916.166,171.778L916.062,171.753L915.958,171.728L915.851,171.704L915.743,171.681L915.633,171.658L915.522,171.636L915.41,171.614L915.295,171.593L915.18,171.573L915.063,171.553L914.945,171.534L914.825,171.516L914.704,171.498L914.582,171.481L914.458,171.465L914.333,171.449L914.207,171.434L914.079,171.419L913.95,171.406L913.819,171.392L913.688,171.38L913.555,171.368L913.421,171.357L913.286,171.347L913.149,171.337L913.011,171.328L912.873,171.319L912.733,171.311L912.592,171.304L912.45,171.298L912.307,171.292L912.162,171.287L912.017,171.282L911.87,171.278L911.723,171.275L911.58,171.273L911.274,171.269L910.97,171.268L910.663,171.27ZM630.32,185.268L630.358,185.684L630.418,185.967L630.544,186.24L630.315,185.132L630.32,185.268ZM640.082,183.629L640.091,183.649L640.135,183.592L640.304,183.346L640.369,183.235L640.082,183.629ZM640.594,182.814L640.623,182.755L640.76,182.412L640.872,182.047L640.954,181.668L641.005,181.272L641.013,181.09L640.594,182.814Z"/>
    </g>
</svg>
