<?xml version="1.0" encoding="UTF-8" standalone="no"?>
<!DOCTYPE svg PUBLIC "-//W3C//DTD SVG 1.1//EN" "http://www.w3.org/Graphics/SVG/1.1/DTD/svg11.dtd">
<svg width="100%" height="100%" viewBox="0 0 1921 1080" version="1.1" xmlns="http://www.w3.org/2000/svg" xmlns:xlink="http://www.w3.org/1999/xlink" xml:space="preserve" xmlns:serif="http://www.serif.com/" style="fill-rule:evenodd;clip-rule:evenodd;stroke-linejoin:round;stroke-miterlimit:1.41421;">
    <g transform="matrix(1,0,0,1,-2028,-1180)">
        <g id="projecteur" transform="matrix(1,0,0,1,-3881.87,1180)">
            <rect x="5910" y="0" width="1920" height="1080"/>
            <g transform="matrix(1,0,0,1,-3.1169,23.1784)">
                <g transform="matrix(0.330986,0.330986,-0.457885,0.457885,6115.96,-1760.66)">
                    <path d="M4972.8,1940.14C4972.8,1927.35 4958.45,1916.98 4940.76,1916.98C4928.01,1916.98 4913.38,1916.98 4900.63,1916.98C4882.93,1916.98 4868.59,1927.35 4868.59,1940.14C4868.59,2008.06 4868.59,2206.17 4868.59,2274.09C4868.59,2286.88 4882.93,2297.25 4900.63,2297.25C4913.38,2297.25 4928.01,2297.25 4940.76,2297.25C4958.45,2297.25 4972.8,2286.88 4972.8,2274.09C4972.8,2206.17 4972.8,2008.06 4972.8,1940.14Z" style="fill:white;"/>
                </g>
                <g transform="matrix(0.330986,-0.330986,0.457885,0.457885,4360.45,1496.71)">
                    <path d="M4972.8,1940.14C4972.8,1927.35 4958.45,1916.98 4940.76,1916.98C4928.01,1916.98 4913.38,1916.98 4900.63,1916.98C4882.93,1916.98 4868.59,1927.35 4868.59,1940.14C4868.59,2008.06 4868.59,2206.17 4868.59,2274.09C4868.59,2286.88 4882.93,2297.25 4900.63,2297.25C4913.38,2297.25 4928.01,2297.25 4940.76,2297.25C4958.45,2297.25 4972.8,2286.88 4972.8,2274.09C4972.8,2206.17 4972.8,2008.06 4972.8,1940.14Z" style="fill:white;"/>
                </g>
                <g transform="matrix(0.468085,2.77556e-17,0,0.487442,4563.58,-182.626)">
                    <path d="M4972.8,1947.75C4972.8,1930.76 4958.45,1916.98 4940.76,1916.98C4928.01,1916.98 4913.38,1916.98 4900.63,1916.98C4882.93,1916.98 4868.59,1930.76 4868.59,1947.75C4868.59,2019.1 4868.59,2195.14 4868.59,2266.48C4868.59,2283.48 4882.93,2297.25 4900.63,2297.25C4913.38,2297.25 4928.01,2297.25 4940.76,2297.25C4958.45,2297.25 4972.8,2283.48 4972.8,2266.48C4972.8,2195.14 4972.8,2019.1 4972.8,1947.75Z" style="fill:white;"/>
                </g>
                <g transform="matrix(1,0,0,1.56761,1952.83,-2359.98)">
                    <rect x="4420.98" y="1567.02" width="986.148" height="418.024"/>
                    <path d="M5407.13,1985.05L4420.98,1985.05L4420.98,1567.02L5407.13,1567.02L5407.13,1985.05ZM4432.98,1574.68L4432.98,1977.39L5395.13,1977.39L5395.13,1574.68L4432.98,1574.68Z" style="fill:white;"/>
                </g>
                <g transform="matrix(1.07315,0,0,1.13147,1614.69,-1515.33)">
                    <path d="M5393.07,1437.79C5393.07,1430.47 5386.82,1424.53 5379.1,1424.53C5268.19,1424.53 4531.81,1424.53 4420.9,1424.53C4413.18,1424.53 4406.93,1430.47 4406.93,1437.79C4406.93,1451.19 4406.93,1471.79 4406.93,1485.19C4406.93,1492.51 4413.18,1498.44 4420.9,1498.44C4531.81,1498.44 5268.19,1498.44 5379.1,1498.44C5386.82,1498.44 5393.07,1492.51 5393.07,1485.19C5393.07,1471.79 5393.07,1451.19 5393.07,1437.79Z" style="fill:white;"/>
                </g>
                <g transform="matrix(1.07315,0,0,1.13147,1614.69,-943.66)">
                    <path d="M5393.07,1437.79C5393.07,1430.47 5386.82,1424.53 5379.1,1424.53C5268.19,1424.53 4531.81,1424.53 4420.9,1424.53C4413.18,1424.53 4406.93,1430.47 4406.93,1437.79C4406.93,1451.19 4406.93,1471.79 4406.93,1485.19C4406.93,1492.51 4413.18,1498.44 4420.9,1498.44C4531.81,1498.44 5268.19,1498.44 5379.1,1498.44C5386.82,1498.44 5393.07,1492.51 5393.07,1485.19C5393.07,1471.79 5393.07,1451.19 5393.07,1437.79Z" style="fill:white;"/>
                </g>
                <g transform="matrix(1,0,0,1,2257.83,-1300.24)">
                    <text x="4366.79px" y="1767.61px" style="font-family:'Boogaloo-Regular', 'Boogaloo', cursive;font-size:123px;fill:white;">Problem #1</text>
                </g>
            </g>
        </g>
    </g>
</svg>
