<?xml version="1.0" encoding="UTF-8" standalone="no"?>
<!DOCTYPE svg PUBLIC "-//W3C//DTD SVG 1.1//EN" "http://www.w3.org/Graphics/SVG/1.1/DTD/svg11.dtd">
<svg width="100%" height="100%" viewBox="0 0 1920 1080" version="1.1" xmlns="http://www.w3.org/2000/svg" xmlns:xlink="http://www.w3.org/1999/xlink" xml:space="preserve" xmlns:serif="http://www.serif.com/" style="fill-rule:evenodd;clip-rule:evenodd;stroke-linecap:round;stroke-linejoin:round;stroke-miterlimit:1.5;">
    <g transform="matrix(1,0,0,1,-6060,0)">
        <g id="radar" transform="matrix(1,0,0,1,6060,0)">
            <rect x="0" y="0" width="1920" height="1080"/>
            <clipPath id="_clip1">
                <rect x="0" y="0" width="1920" height="1080"/>
            </clipPath>
            <g clip-path="url(#_clip1)">
                <g>
                    <g opacity="0.228947">
                        <g transform="matrix(0.812275,0,0,0.812275,137.827,42.5373)">
                            <circle cx="1012.19" cy="1265.86" r="612.186" style="fill:none;stroke:rgb(0,255,0);stroke-width:6.16px;"/>
                        </g>
                        <g transform="matrix(0.555387,0,0,0.555387,397.845,367.721)">
                            <circle cx="1012.19" cy="1265.86" r="612.186" style="fill:none;stroke:rgb(0,255,0);stroke-width:9px;"/>
                        </g>
                        <g transform="matrix(0.320546,0,0,0.320546,635.547,664.996)">
                            <circle cx="1012.19" cy="1265.86" r="612.186" style="fill:none;stroke:rgb(0,255,0);stroke-width:15.6px;"/>
                        </g>
                        <g transform="matrix(0.139865,0,0,0.139865,818.43,893.712)">
                            <circle cx="1012.19" cy="1265.86" r="612.186" style="fill:none;stroke:rgb(0,255,0);stroke-width:35.75px;"/>
                        </g>
                    </g>
                    <path d="M325.555,1082.04C325.555,1029.19 323.424,951.436 339.165,904.212C397.653,728.748 517.555,573.679 691.192,486.86C741.309,461.802 798.313,449.036 853.597,430.608C875.61,423.27 900.95,431.699 923.458,426.072C981.507,411.559 1041.38,431.873 1094.03,442.403C1110.81,445.759 1131.94,445.029 1146.65,452.383C1163.81,460.962 1189.59,467.4 1206.53,478.694C1241.03,501.695 1280.19,522.327 1318.13,541.297C1351.74,558.101 1378.7,587.01 1412.49,603.9C1419.47,607.392 1502.7,724.705 1514.1,741.808C1523.99,756.632 1530.41,775.339 1538.6,791.709C1561.39,837.287 1594.85,931.098 1594.85,977.703C1594.85,989.552 1595.23,1038.33 1599.39,1046.66C1602.19,1052.26 1599.39,1081.92 1599.39,1079.32" style="fill:none;stroke:rgb(0,255,0);stroke-width:14.72px;stroke-dasharray:42.32,61.46,0,0;"/>
                    <g>
                        <g transform="matrix(1.34091,0,0,1.34091,-339.432,-473.266)">
                            <circle cx="969.068" cy="1158.37" r="21.234" style="fill:rgb(0,255,0);"/>
                        </g>
                        <path d="M1034.88,1044L1034.85,1043.91L1034.88,1044L1034.86,1043.93L1034.83,1043.87L1034.89,1043.99L1034.86,1043.93L1034.7,1043.59L1034.53,1043.23L1034.36,1042.87L1034.18,1042.51L1034.18,1042.51L1034.02,1042.15L1033.85,1041.8L1033.68,1041.45L1033.51,1041.1L1033.17,1040.4L1032.84,1039.71L1032.5,1039.03L1032.16,1038.34L1032.05,1038.12L1031.84,1037.65L1031.52,1036.96L1031.19,1036.26L1030.87,1035.56L1030.71,1035.21L1030.55,1034.85L1030.5,1034.76L1030.49,1034.44L1030.46,1034.02L1030.42,1033.6L1030.38,1033.35L1030.37,1033.25L1030.22,1033.07L1029.94,1032.64L1029.67,1032.11L1029.46,1031.54L1029.32,1030.93L1029.25,1030.26L1029.28,1029.52L1029.42,1028.81L1029.6,1028.28L1029.81,1027.83L1030.08,1027.38L1030.42,1026.92L1030.84,1026.49L1031.33,1026.09L1031.88,1025.76L1032.48,1025.5L1033.1,1025.33L1033.71,1025.24L1034.29,1025.23L1034.83,1025.29L1034.84,1025.29L1036.4,1025.1L1037.96,1025.97L1038.99,1027.79L1039.12,1028.79L1039.2,1028.86L1039.36,1029.01L1039.66,1029.27L1039.98,1029.52L1040.22,1029.68L1040.28,1029.77L1040.46,1030.09L1040.65,1030.4L1041.04,1031.03L1041.42,1031.66L1041.82,1032.3L1042.09,1032.74L1042.21,1032.95L1042.6,1033.62L1042.99,1034.3L1043.39,1034.99L1043.79,1035.69L1043.99,1036.05L1044.2,1036.41L1044.4,1036.77L1044.61,1037.14L1044.81,1037.52L1045.02,1037.9L1045.22,1038.29L1045.44,1038.71L1045.54,1038.91L1045.64,1039.13L1045.74,1039.34L1045.83,1039.55L1045.92,1039.76L1046,1039.97L1046.09,1040.19L1046.17,1040.4L1046.25,1040.62L1046.33,1040.84L1046.41,1041.07L1046.49,1041.3L1046.57,1041.54L1046.65,1041.78L1046.73,1042.03L1046.81,1042.28L1046.89,1042.54L1046.97,1042.8L1047.05,1043.07L1047.13,1043.34L1047.22,1043.62L1047.3,1043.9L1047.38,1044.19L1047.47,1044.48L1047.55,1044.78L1047.63,1045.08L1047.72,1045.39L1047.8,1045.7L1047.89,1046.02L1047.97,1046.34L1048.06,1046.67L1048.15,1047L1048.23,1047.34L1048.32,1047.67L1048.4,1048.02L1048.49,1048.36L1048.58,1048.71L1048.61,1048.87L1048.66,1049.07L1048.74,1049.42L1048.82,1049.78L1048.91,1050.15L1048.99,1050.51L1049.07,1050.88L1049.15,1051.25L1049.23,1051.63L1049.31,1052.01L1049.39,1052.38L1049.47,1052.77L1049.55,1053.15L1049.62,1053.53L1049.7,1053.92L1049.78,1054.31L1049.85,1054.69L1049.93,1055.09L1050,1055.48L1050.07,1055.87L1050.14,1056.26L1050.22,1056.66L1050.29,1057.05L1050.35,1057.45L1050.42,1057.84L1050.49,1058.24L1050.55,1058.63L1050.62,1059.03L1050.68,1059.42L1050.74,1059.82L1050.8,1060.21L1050.86,1060.6L1050.92,1060.99L1050.96,1061.29L1050.97,1061.39L1051.02,1061.78L1051.07,1062.17L1051.11,1062.56L1051.16,1062.94L1051.2,1063.33L1051.24,1063.71L1051.28,1064.09L1051.32,1064.47L1051.35,1064.85L1051.39,1065.23L1051.42,1065.6L1051.45,1065.98L1051.47,1066.35L1051.5,1066.71L1051.52,1067.08L1051.54,1067.44L1051.54,1067.52L1051.55,1067.8L1051.56,1068.16L1051.57,1068.52L1051.58,1068.87L1051.58,1069.22L1051.58,1069.57L1051.57,1069.92L1051.57,1070.26L1051.55,1070.61L1051.54,1070.94L1051.53,1071.11L1051.52,1071.28L1051.51,1071.45L1051.5,1071.62L1051.49,1071.79L1051.48,1071.95L1051.46,1072.12L1051.45,1072.29L1051.43,1072.45L1051.41,1072.6L1051.4,1072.62L1051.34,1072.78L1051.28,1072.94L1051.22,1073.1L1051.16,1073.26L1051.1,1073.42L1051.03,1073.58L1050.97,1073.74L1050.91,1073.9L1050.84,1074.06L1050.78,1074.22L1050.71,1074.38L1050.64,1074.54L1050.58,1074.7L1050.51,1074.86L1050.44,1075.02L1050.36,1075.18L1050.29,1075.34L1050.21,1075.5L1050.13,1075.66L1050.11,1075.72L1050.07,1075.83L1050.02,1076.01L1049.96,1076.19L1049.9,1076.37L1049.84,1076.55L1049.76,1076.74L1049.68,1076.93L1049.6,1077.12L1049.51,1077.31L1049.41,1077.51L1049.3,1077.7L1049.18,1077.91L1049.05,1078.11L1048.91,1078.31L1048.77,1078.52L1048.6,1078.72L1048.43,1078.93L1048.24,1079.14L1048.04,1079.34L1048,1079.38L1047.82,1079.53L1047.57,1079.7L1047.31,1079.87L1047.05,1080.04L1046.77,1080.19L1046.47,1080.33L1046.17,1080.46L1045.87,1080.58L1045.55,1080.68L1045.23,1080.77L1044.91,1080.84L1044.58,1080.89L1044.26,1080.93L1043.93,1080.95L1043.62,1080.96L1043.43,1080.95L1043.42,1080.95L1041.28,1080.42L1039.5,1079.24L1038.28,1077.57L1037.81,1075.6L1037.81,1075.59L1037.81,1075.59L1037.81,1075.58L1039.35,1072.27L1039.47,1072.19L1039.46,1072.15L1039.45,1072.09L1039.43,1072.16L1039.41,1072.1L1039.4,1072.04L1039.38,1072.11L1039.37,1072.04L1039.35,1071.96L1039.33,1072.03L1039.32,1071.95L1039.3,1071.88L1039.28,1071.94L1039.26,1071.86L1039.24,1071.78L1039.23,1071.84L1039.21,1071.75L1039.18,1071.69L1039.15,1071.62L1039.11,1071.56L1039.08,1071.49L1039.05,1071.42L1039.01,1071.34L1039.01,1071.33L1039.01,1071.27L1039.02,1071.19L1039.02,1071.11L1039.03,1071.03L1039.03,1070.94L1039.04,1070.85L1039.04,1070.76L1039.04,1070.67L1039.05,1070.57L1039.05,1070.48L1039.05,1070.27L1039.05,1070.05L1039.05,1069.83L1039.05,1069.59L1039.05,1069.35L1039.04,1069.1L1039.03,1068.85L1039.02,1068.59L1039.01,1068.32L1039,1068.1L1038.99,1068.04L1038.98,1067.76L1038.96,1067.47L1038.95,1067.17L1038.93,1066.87L1038.9,1066.57L1038.88,1066.26L1038.86,1065.95L1038.83,1065.63L1038.8,1065.31L1038.77,1064.98L1038.73,1064.65L1038.7,1064.32L1038.66,1063.98L1038.62,1063.64L1038.58,1063.3L1038.54,1062.96L1038.53,1062.87L1038.5,1062.61L1038.46,1062.26L1038.42,1061.91L1038.37,1061.55L1038.33,1061.2L1038.28,1060.84L1038.23,1060.48L1038.18,1060.12L1038.13,1059.77L1038.08,1059.4L1038.03,1059.04L1037.97,1058.68L1037.92,1058.32L1037.86,1057.96L1037.81,1057.6L1037.75,1057.24L1037.69,1056.88L1037.63,1056.52L1037.57,1056.16L1037.51,1055.8L1037.44,1055.45L1037.38,1055.09L1037.32,1054.74L1037.25,1054.39L1037.19,1054.04L1037.12,1053.7L1037.06,1053.35L1036.99,1053.01L1036.93,1052.67L1036.86,1052.34L1036.79,1052L1036.73,1051.67L1036.69,1051.49L1036.66,1051.35L1036.6,1051.03L1036.53,1050.71L1036.47,1050.39L1036.4,1050.08L1036.34,1049.78L1036.28,1049.47L1036.21,1049.18L1036.15,1048.89L1036.09,1048.6L1036.03,1048.32L1035.96,1048.04L1035.9,1047.78L1035.84,1047.51L1035.78,1047.26L1035.72,1047L1035.66,1046.76L1035.6,1046.52L1035.54,1046.3L1035.49,1046.07L1035.43,1045.86L1035.38,1045.65L1035.32,1045.46L1035.27,1045.27L1035.22,1045.09L1035.17,1044.92L1035.12,1044.76L1035.08,1044.62L1035.04,1044.48L1035,1044.36L1034.96,1044.25L1034.93,1044.15L1034.89,1044.03L1034.92,1044.1L1034.88,1044ZM1039.52,1072.22L1039.55,1072.17L1039.55,1072.15L1039.52,1072.22ZM1039.51,1072.21L1039.52,1072.2L1039.52,1072.2L1039.51,1072.21ZM1039.51,1072.19L1039.52,1072.17L1039.52,1072.17L1039.51,1072.19ZM1039.48,1072.19L1039.5,1072.18L1039.5,1072.12L1039.48,1072.19ZM1039.52,1072.15L1039.51,1072.17L1039.52,1072.16L1039.52,1072.14L1039.52,1072.15ZM1039.51,1072.17L1039.52,1072.15L1039.52,1072.14L1039.51,1072.17ZM1039.7,1071.67L1039.62,1071.8L1039.66,1071.74L1039.58,1071.87L1039.63,1071.82L1039.56,1071.94L1039.6,1071.88L1039.54,1072L1039.58,1071.93L1039.53,1072.05L1039.57,1071.99L1039.52,1072.1L1039.56,1072.03L1039.51,1072.13L1039.55,1072.07L1039.52,1072.14L1039.52,1072.14L1039.55,1072.09L1039.52,1072.16L1039.53,1072.16L1039.55,1072.12L1039.53,1072.16L1039.54,1072.15L1039.55,1072.14L1039.55,1072.15L1039.55,1072.13L1039.55,1072.15L1043.17,1069.99L1043.18,1069.98L1043.24,1069.96L1042.99,1069.98L1043.04,1069.96L1042.78,1069.98L1042.84,1069.96L1042.58,1070L1042.63,1069.97L1042.37,1070.02L1042.42,1070L1042.15,1070.06L1042.21,1070.03L1041.94,1070.11L1041.99,1070.08L1041.73,1070.17L1041.78,1070.13L1041.53,1070.23L1041.57,1070.2L1041.33,1070.31L1041.37,1070.27L1041.13,1070.4L1041.17,1070.35L1040.95,1070.49L1040.99,1070.44L1040.77,1070.58L1040.81,1070.54L1040.6,1070.68L1040.64,1070.63L1040.45,1070.79L1040.48,1070.73L1040.3,1070.89L1040.33,1070.85L1040.17,1070.99L1040.22,1070.96L1040.07,1071.11L1040.12,1071.07L1039.97,1071.23L1040.02,1071.18L1039.89,1071.34L1039.94,1071.29L1039.82,1071.44L1039.86,1071.39L1039.75,1071.54L1039.8,1071.49L1039.7,1071.63L1039.74,1071.58L1039.65,1071.72L1039.7,1071.67ZM1039.54,1072.15L1039.54,1072.15L1039.54,1072.15L1039.54,1072.15ZM1039.54,1072.15L1039.55,1072.15L1039.55,1072.15L1039.54,1072.15ZM1039.52,1072.14L1039.52,1072.14L1039.52,1072.14L1039.52,1072.14ZM1030.23,1032.43L1030.22,1032.41L1030.21,1032.4L1030.23,1032.43Z" style="fill:rgb(0,255,0);"/>
                        <path d="M1150.26,1053.78L1150.23,1053.67L1150.26,1053.77L1150.23,1053.68L1150.21,1053.62L1150.19,1053.56L1150.1,1053.37L1150.01,1053.17L1149.92,1052.98L1149.83,1052.78L1149.75,1052.59L1149.67,1052.39L1149.59,1052.2L1149.51,1052L1149.44,1051.81L1149.37,1051.61L1149.29,1051.42L1149.23,1051.22L1149.16,1051.03L1149.09,1050.84L1149.03,1050.64L1148.97,1050.45L1148.91,1050.25L1148.85,1050.06L1148.79,1049.87L1148.74,1049.67L1148.69,1049.48L1148.63,1049.29L1148.58,1049.1L1148.53,1048.9L1148.49,1048.71L1148.44,1048.52L1148.39,1048.33L1148.35,1048.14L1148.31,1047.95L1148.27,1047.76L1148.23,1047.57L1148.19,1047.38L1148.15,1047.19L1148.11,1047L1148.07,1046.81L1148.01,1046.44L1147.94,1046.06L1147.88,1045.69L1147.82,1045.32L1147.77,1044.95L1147.71,1044.58L1147.66,1044.22L1147.61,1043.85L1147.57,1043.49L1147.53,1043.13L1147.48,1042.77L1147.44,1042.41L1147.41,1042.06L1147.37,1041.71L1147.33,1041.36L1147.3,1041.01L1147.23,1040.33L1147.17,1039.65L1147.11,1038.99L1147.05,1038.34L1146.99,1037.7L1146.96,1037.39L1146.93,1037.08L1146.89,1036.78L1146.86,1036.48L1146.83,1036.18L1146.8,1035.89L1146.76,1035.6L1146.73,1035.32L1146.69,1035.05L1146.65,1034.77L1146.61,1034.51L1146.57,1034.25L1146.53,1034L1146.49,1033.75L1146.45,1033.5L1146.43,1033.39L1146.4,1033.27L1146.38,1033.16L1146.36,1033.04L1146.34,1032.93L1146.31,1032.82L1146.29,1032.71L1146.27,1032.61L1146.24,1032.5L1146.21,1032.39L1146.14,1032.09L1146.06,1031.78L1146.04,1031.68L1145.99,1031.47L1145.91,1031.16L1145.83,1030.84L1145.75,1030.53L1145.67,1030.22L1145.59,1029.91L1145.42,1029.28L1145.26,1028.65L1145.09,1028.03L1144.91,1027.4L1144.73,1026.77L1144.55,1026.14L1144.37,1025.51L1144.19,1024.88L1144,1024.25L1143.81,1023.61L1143.62,1022.98L1143.42,1022.35L1143.23,1021.71L1143.03,1021.08L1142.83,1020.44L1142.62,1019.81L1142.42,1019.17L1142.21,1018.53L1142,1017.9L1141.79,1017.26L1141.58,1016.62L1141.37,1015.99L1141.15,1015.35L1140.93,1014.71L1140.72,1014.07L1140.5,1013.43L1140.28,1012.79L1140.06,1012.15L1139.84,1011.52L1139.62,1010.88L1139.17,1009.6L1138.72,1008.32L1138.27,1007.05L1137.37,1004.49L1136.92,1003.22L1136.47,1001.94L1136.02,1000.67L1135.58,999.401L1135.36,998.764L1135.14,998.129L1134.92,997.495L1134.7,996.86L1134.49,996.227L1134.27,995.593L1134.06,994.961L1133.84,994.328L1133.63,993.696L1133.42,993.065L1133.21,992.434L1133.01,991.817L1132.96,991.643L1132.9,991.469L1132.83,991.281L1132.76,991.082L1132.69,990.871L1132.61,990.65L1132.53,990.419L1132.44,990.179L1132.34,989.93L1132.25,989.674L1132.19,989.533L1132.15,989.409L1132.05,989.136L1131.94,988.856L1131.84,988.571L1131.73,988.281L1131.61,987.987L1131.5,987.688L1131.38,987.386L1131.25,987.081L1131.12,986.773L1131,986.464L1130.86,986.153L1130.73,985.842L1130.59,985.53L1130.45,985.219L1130.31,984.909L1130.16,984.6L1130.02,984.288L1129.95,984.141L1129.87,983.989L1129.8,983.838L1129.72,983.688L1129.65,983.539L1129.61,983.472L1129.57,983.39L1129.5,983.242L1129.43,983.096L1129.35,982.95L1129.28,982.806L1129.2,982.663L1129.13,982.522L1129.05,982.382L1128.98,982.244L1128.9,982.108L1128.83,981.973L1128.75,981.841L1128.68,981.71L1128.6,981.581L1128.53,981.455L1128.45,981.33L1128.38,981.208L1128.31,981.088L1128.23,980.971L1128.16,980.856L1128.09,980.744L1128.02,980.634L1127.95,980.528L1127.88,980.424L1127.81,980.323L1127.74,980.226L1127.67,980.131L1127.61,980.04L1127.54,979.952L1127.48,979.868L1127.42,979.787L1127.36,979.709L1127.3,979.636L1127.24,979.566L1127.19,979.5L1127.11,979.411L1127.16,979.465L1127.08,979.38L1127.01,979.3L1127.01,979.297L1127.07,979.354L1127.01,979.257L1126.95,979.163L1127.02,979.222L1126.96,979.133L1126.9,979.047L1126.98,979.108L1126.92,979.026L1126.87,978.948L1126.95,979.011L1126.89,978.937L1126.84,978.866L1126.93,978.93L1126.88,978.864L1126.83,978.801L1126.93,978.867L1126.88,978.808L1126.84,978.752L1126.92,978.802L1126.87,978.759L1126.92,978.792L1126.88,978.75L1126.93,978.783L1126.88,978.742L1126.94,978.776L1126.89,978.735L1126.95,978.768L1126.9,978.729L1126.96,978.762L1126.91,978.724L1126.98,978.757L1126.92,978.719L1126.99,978.752L1126.94,978.716L1127.01,978.748L1126.95,978.713L1127.02,978.744L1126.97,978.71L1127.04,978.741L1126.99,978.708L1127.06,978.739L1127.01,978.707L1127.08,978.737L1127.03,978.706L1127.11,978.736L1127.06,978.706L1127.13,978.735L1127.08,978.706L1127.16,978.734L1127.11,978.706L1127.19,978.734L1127.17,978.726L1127.14,978.698L1127.22,978.724L1127.17,978.686L1127.25,978.712L1127.21,978.674L1127.29,978.699L1127.24,978.663L1127.33,978.687L1127.28,978.653L1127.37,978.675L1127.32,978.642L1127.4,978.663L1127.35,978.631L1127.44,978.651L1127.39,978.621L1127.49,978.639L1127.43,978.61L1127.53,978.627L1127.48,978.599L1127.57,978.614L1127.52,978.589L1127.61,978.602L1127.56,978.577L1127.66,978.589L1127.61,978.566L1127.7,978.576L1127.65,978.554L1127.75,978.562L1127.69,978.542L1127.8,978.548L1127.74,978.529L1127.84,978.533L1127.79,978.515L1127.89,978.518L1127.83,978.502L1127.82,978.499L1124.36,976.433L1122.93,973.509L1122.93,973.489L1124.42,970.316L1127.92,968.598L1127.93,968.597L1128.04,968.583L1128.2,968.572L1128.35,968.564L1128.51,968.558L1128.66,968.555L1128.81,968.555L1128.97,968.557L1129.12,968.562L1129.27,968.569L1129.42,968.578L1129.57,968.589L1129.72,968.603L1129.87,968.618L1130.02,968.635L1130.16,968.655L1130.31,968.676L1130.45,968.698L1130.55,968.716L1130.59,968.726L1130.73,968.765L1130.87,968.806L1131,968.848L1131.13,968.891L1131.26,968.936L1131.39,968.983L1131.52,969.03L1131.65,969.079L1131.77,969.13L1131.89,969.181L1132.02,969.233L1132.14,969.287L1132.26,969.341L1132.37,969.396L1132.49,969.452L1132.62,969.518L1132.83,969.625L1133.05,969.745L1133.27,969.867L1133.49,969.991L1133.69,970.118L1133.9,970.247L1134.11,970.378L1134.3,970.511L1134.5,970.646L1134.69,970.782L1134.89,970.919L1135.08,971.059L1135.08,971.064L1135.25,971.217L1135.41,971.378L1135.57,971.539L1135.73,971.703L1135.89,971.867L1136.05,972.032L1136.2,972.199L1136.35,972.367L1136.5,972.536L1136.64,972.706L1136.79,972.877L1136.93,973.049L1137.07,973.222L1137.21,973.396L1137.35,973.571L1137.49,973.747L1137.62,973.924L1137.76,974.101L1137.89,974.28L1138.02,974.459L1138.15,974.639L1138.28,974.82L1138.4,975.002L1138.53,975.184L1138.65,975.367L1138.78,975.551L1138.9,975.735L1139.02,975.92L1139.14,976.105L1139.26,976.291L1139.38,976.477L1139.5,976.664L1139.61,976.851L1139.73,977.038L1139.84,977.226L1139.96,977.414L1140.07,977.602L1140.13,977.706L1140.18,977.79L1140.29,977.98L1140.4,978.169L1140.5,978.358L1140.61,978.548L1140.72,978.742L1140.92,979.115L1141.12,979.493L1141.32,979.869L1141.52,980.244L1141.71,980.618L1141.9,980.989L1142.08,981.357L1142.26,981.723L1142.43,982.085L1142.6,982.444L1142.77,982.798L1142.93,983.148L1143.09,983.493L1143.24,983.833L1143.39,984.167L1143.53,984.495L1143.67,984.817L1143.74,984.964L1143.81,985.133L1143.93,985.444L1144.05,985.747L1144.16,986.042L1144.27,986.328L1144.37,986.607L1144.47,986.876L1144.57,987.137L1144.66,987.389L1144.74,987.632L1144.82,987.852L1145.03,988.464L1145.24,989.065L1145.45,989.668L1145.66,990.272L1145.87,990.879L1146.09,991.488L1146.31,992.098L1146.53,992.71L1146.75,993.324L1146.97,993.94L1147.19,994.558L1147.42,995.176L1147.88,996.421L1148.34,997.671L1148.8,998.928L1149.27,1000.19L1150.21,1002.74L1150.68,1004.02L1151.15,1005.3L1151.63,1006.59L1151.86,1007.24L1152.1,1007.89L1152.34,1008.54L1152.57,1009.19L1152.8,1009.84L1153.04,1010.5L1153.27,1011.15L1153.5,1011.81L1153.73,1012.47L1153.96,1013.12L1154.19,1013.78L1154.42,1014.44L1154.65,1015.11L1154.87,1015.77L1155.1,1016.43L1155.32,1017.1L1155.54,1017.76L1155.76,1018.43L1155.97,1019.1L1156.19,1019.76L1156.4,1020.43L1156.61,1021.11L1156.82,1021.78L1157.02,1022.45L1157.23,1023.12L1157.43,1023.8L1157.63,1024.47L1157.82,1025.15L1158.02,1025.83L1158.2,1026.5L1158.3,1026.84L1158.39,1027.18L1158.49,1027.52L1158.58,1027.86L1158.67,1028.2L1158.73,1028.43L1158.76,1028.54L1158.85,1028.88L1158.93,1029.23L1158.98,1029.4L1159.02,1029.59L1159.07,1029.77L1159.11,1029.95L1159.15,1030.14L1159.19,1030.32L1159.23,1030.5L1159.27,1030.68L1159.31,1030.87L1159.34,1031.06L1159.41,1031.41L1159.48,1031.77L1159.54,1032.13L1159.6,1032.49L1159.65,1032.84L1159.71,1033.2L1159.76,1033.56L1159.81,1033.91L1159.85,1034.26L1159.9,1034.61L1159.94,1034.96L1159.98,1035.31L1160.02,1035.65L1160.06,1036L1160.1,1036.34L1160.17,1037.02L1160.24,1037.69L1160.31,1038.36L1160.38,1039.01L1160.45,1039.66L1160.49,1039.97L1160.52,1040.29L1160.56,1040.6L1160.59,1040.9L1160.63,1041.21L1160.67,1041.51L1160.71,1041.81L1160.75,1042.1L1160.79,1042.39L1160.83,1042.67L1160.88,1042.95L1160.92,1043.23L1160.97,1043.5L1161.02,1043.77L1161.07,1044.03L1161.12,1044.29L1161.14,1044.41L1161.17,1044.53L1161.19,1044.66L1161.22,1044.78L1161.25,1044.9L1161.27,1045.02L1161.3,1045.13L1161.33,1045.25L1161.36,1045.36L1161.39,1045.47L1161.42,1045.59L1161.45,1045.69L1161.48,1045.8L1161.51,1045.91L1161.54,1046.01L1161.57,1046.12L1161.6,1046.22L1161.63,1046.32L1161.66,1046.41L1161.69,1046.51L1161.73,1046.6L1161.76,1046.69L1161.79,1046.79L1161.82,1046.87L1161.86,1046.96L1161.89,1047.05L1161.92,1047.13L1161.95,1047.21L1161.99,1047.29L1162.02,1047.37L1162.05,1047.44L1162.09,1047.51L1162.12,1047.59L1162.15,1047.65L1162.19,1047.72L1162.24,1047.83L1162.29,1047.93L1162.36,1048.07L1162.42,1048.21L1162.48,1048.35L1162.54,1048.48L1162.6,1048.62L1162.65,1048.75L1162.71,1048.9L1162.8,1049.14L1162.89,1049.4L1162.97,1049.66L1163.05,1049.91L1163.13,1050.16L1163.19,1050.41L1163.26,1050.66L1163.32,1050.91L1163.38,1051.16L1163.44,1051.4L1163.49,1051.65L1163.54,1051.9L1163.59,1052.15L1163.63,1052.4L1163.68,1052.65L1163.72,1052.9L1163.76,1053.16L1163.8,1053.41L1163.83,1053.67L1163.87,1053.93L1163.9,1054.19L1163.93,1054.45L1163.95,1054.56L1163.96,1054.71L1163.99,1054.97L1164.02,1055.24L1164.05,1055.5L1164.07,1055.77L1164.1,1056.04L1164.12,1056.31L1164.14,1056.58L1164.16,1056.85L1164.18,1057.12L1164.19,1057.4L1164.21,1057.68L1164.23,1057.95L1164.24,1058.23L1164.26,1058.51L1164.27,1058.79L1164.28,1059.07L1164.29,1059.35L1164.3,1059.63L1164.31,1059.92L1164.32,1060.2L1164.33,1060.48L1164.33,1060.77L1164.34,1061.05L1164.34,1061.33L1164.35,1061.62L1164.35,1061.9L1164.35,1062.19L1164.35,1062.76L1164.35,1063.33L1164.35,1063.89L1164.34,1064.45L1164.33,1065.02L1164.32,1065.57L1164.3,1066.13L1164.28,1066.67L1164.26,1067.22L1164.24,1067.75L1164.21,1068.28L1164.18,1068.81L1164.15,1069.32L1164.12,1069.82L1164.08,1070.32L1164.04,1070.81L1164,1071.28L1163.98,1071.52L1163.96,1071.75L1163.94,1071.98L1163.91,1072.21L1163.89,1072.43L1163.87,1072.65L1163.84,1072.87L1163.82,1073.09L1163.79,1073.3L1163.76,1073.51L1163.74,1073.72L1163.71,1073.93L1163.68,1074.13L1163.66,1074.2L1163.61,1074.33L1163.53,1074.52L1163.44,1074.71L1163.36,1074.9L1163.28,1075.08L1163.2,1075.27L1163.12,1075.45L1163.04,1075.64L1162.96,1075.82L1162.88,1076.01L1162.8,1076.2L1162.72,1076.39L1162.63,1076.59L1162.53,1076.8L1162.43,1077.02L1162.32,1077.25L1162.2,1077.5L1162.07,1077.74L1161.98,1077.92L1161.89,1078.07L1161.79,1078.24L1161.67,1078.41L1161.55,1078.6L1161.4,1078.81L1161.24,1079.02L1161.05,1079.26L1160.82,1079.5L1160.56,1079.77L1160.24,1080.04L1159.87,1080.32L1159.44,1080.61L1158.93,1080.88L1158.35,1081.12L1157.7,1081.31L1156.99,1081.44L1156.62,1081.45L1156.61,1081.45L1154.26,1081.1L1152.27,1079.93L1150.86,1078.11L1150.25,1075.84L1150.25,1075.83L1150.26,1075.83L1150.26,1075.82L1150.62,1073.98L1151.8,1072.16L1155.88,1069.48L1155.89,1069.48L1155.9,1069.47L1155.19,1069.56L1155.21,1069.55L1154.54,1069.71L1154.55,1069.7L1153.95,1069.92L1153.96,1069.91L1153.44,1070.16L1153.45,1070.15L1153,1070.42L1153.01,1070.41L1152.63,1070.69L1152.64,1070.67L1152.32,1070.94L1152.33,1070.92L1152.06,1071.18L1152.07,1071.16L1151.85,1071.41L1151.86,1071.38L1151.67,1071.61L1151.68,1071.59L1151.52,1071.8L1151.53,1071.77L1151.39,1071.96L1151.4,1071.94L1151.29,1072.11L1151.3,1072.09L1151.2,1072.25L1151.21,1072.22L1151.12,1072.37L1151.13,1072.34L1151.06,1072.47L1151.07,1072.44L1151,1072.57L1151.01,1072.53L1150.93,1072.7L1150.94,1072.63L1150.86,1072.83L1150.86,1072.75L1150.8,1072.92L1150.8,1072.84L1150.75,1072.99L1150.76,1072.9L1150.71,1073.03L1150.71,1072.93L1150.68,1073.05L1150.68,1072.95L1150.65,1073.05L1150.65,1072.94L1150.62,1073.04L1150.61,1072.96L1150.59,1072.89L1150.57,1072.96L1150.55,1072.87L1150.53,1072.81L1150.5,1072.74L1150.47,1072.65L1150.44,1072.56L1150.41,1072.46L1150.38,1072.35L1150.35,1072.23L1150.33,1072.15L1150.33,1072.11L1150.35,1071.99L1150.37,1071.86L1150.39,1071.72L1150.41,1071.58L1150.43,1071.43L1150.44,1071.28L1150.46,1071.12L1150.48,1070.95L1150.5,1070.78L1150.52,1070.61L1150.54,1070.43L1150.56,1070.25L1150.58,1070.07L1150.61,1069.68L1150.64,1069.28L1150.68,1068.86L1150.71,1068.43L1150.74,1068L1150.76,1067.55L1150.79,1067.09L1150.81,1066.63L1150.83,1066.15L1150.85,1065.68L1150.87,1065.19L1150.88,1064.7L1150.89,1064.21L1150.9,1063.72L1150.91,1063.23L1150.91,1062.73L1150.91,1062.23L1150.91,1061.99L1150.91,1061.75L1150.91,1061.5L1150.9,1061.26L1150.9,1061.01L1150.9,1060.77L1150.89,1060.53L1150.89,1060.29L1150.88,1060.05L1150.87,1059.81L1150.87,1059.58L1150.86,1059.35L1150.85,1059.11L1150.84,1058.88L1150.83,1058.66L1150.82,1058.43L1150.8,1058.21L1150.79,1057.99L1150.78,1057.77L1150.76,1057.56L1150.75,1057.35L1150.73,1057.14L1150.71,1056.94L1150.7,1056.74L1150.68,1056.54L1150.66,1056.35L1150.64,1056.16L1150.63,1056.06L1150.62,1055.98L1150.6,1055.8L1150.58,1055.62L1150.56,1055.46L1150.54,1055.29L1150.52,1055.13L1150.49,1054.98L1150.47,1054.84L1150.45,1054.69L1150.43,1054.56L1150.4,1054.43L1150.38,1054.32L1150.36,1054.2L1150.34,1054.1L1150.32,1054.01L1150.3,1053.92L1150.27,1053.8L1150.29,1053.89L1150.26,1053.78ZM1150.24,1053.71L1150.22,1053.63L1150.22,1053.62L1150.22,1053.62L1150.24,1053.71ZM1150.23,1053.66L1150.23,1053.64L1150.23,1053.64L1150.23,1053.66Z" style="fill:rgb(0,255,0);"/>
                        <path d="M1254.27,913.264L1254.35,913.372L1254.28,913.275L1254.34,913.352L1254.28,913.27L1254.23,913.197L1254.16,913.102L1254.07,912.988L1253.97,912.858L1253.86,912.712L1253.73,912.554L1253.6,912.383L1253.45,912.202L1253.3,912.011L1253.13,911.81L1252.96,911.601L1252.78,911.385L1252.6,911.161L1252.41,910.931L1252.21,910.696L1252.01,910.455L1251.8,910.209L1251.77,910.176L1251.6,909.949L1251.39,909.684L1251.19,909.416L1250.98,909.146L1250.77,908.875L1250.55,908.602L1250.34,908.33L1250.12,908.057L1249.9,907.785L1249.68,907.515L1249.47,907.247L1249.25,906.982L1249.03,906.72L1248.82,906.462L1248.61,906.208L1248.39,905.96L1248.19,905.718L1247.99,905.482L1247.79,905.254L1247.59,905.033L1247.4,904.821L1247.22,904.619L1247.05,904.427L1246.88,904.247L1246.87,904.233L1246.74,904.061L1246.6,903.889L1246.47,903.727L1246.42,903.659L1246.37,903.591L1246.32,903.528L1246.29,903.492L1246.19,903.47L1244.65,902.372L1243.61,900.775L1243.24,898.854L1243.24,898.844L1243.24,898.707L1243.25,898.443L1243.29,898.154L1243.34,897.839L1243.42,897.497L1243.54,897.129L1243.7,896.74L1243.91,896.334L1244.17,895.923L1244.49,895.519L1244.85,895.137L1245.27,894.791L1245.71,894.493L1246.17,894.249L1246.62,894.061L1247.07,893.925L1247.49,893.836L1247.88,893.785L1248.24,893.764L1248.57,893.766L1248.87,893.786L1249.14,893.818L1249.38,893.859L1249.61,893.906L1249.81,893.956L1250.02,894.019L1250.31,894.113L1250.58,894.22L1250.82,894.325L1251.03,894.426L1251.22,894.523L1251.4,894.617L1251.56,894.709L1251.71,894.799L1251.86,894.886L1252,894.973L1252.13,895.059L1252.26,895.144L1252.39,895.229L1252.52,895.314L1252.65,895.399L1252.77,895.485L1252.9,895.571L1253.03,895.658L1253.15,895.746L1253.28,895.835L1253.41,895.93L1253.66,896.107L1253.92,896.293L1254.16,896.469L1254.18,896.486L1254.43,896.701L1254.68,896.921L1254.94,897.146L1255.2,897.376L1255.46,897.611L1255.72,897.85L1255.99,898.093L1256.26,898.34L1256.53,898.59L1256.8,898.843L1257.08,899.099L1257.35,899.357L1257.62,899.617L1257.9,899.878L1258.17,900.139L1258.45,900.402L1258.72,900.664L1258.99,900.926L1259.27,901.187L1259.53,901.446L1259.8,901.704L1260.06,901.96L1260.32,902.214L1260.54,902.43L1260.57,902.466L1260.81,902.725L1261.04,902.98L1261.26,903.231L1261.48,903.477L1261.7,903.717L1261.91,903.952L1262.11,904.182L1262.31,904.404L1262.49,904.621L1262.67,904.83L1262.85,905.033L1263.01,905.228L1263.17,905.417L1263.32,905.599L1263.47,905.776L1263.61,905.949L1263.74,906.12L1263.88,906.295L1264.01,906.483L1264.14,906.661L1264.32,906.924L1264.48,907.157L1264.63,907.391L1264.79,907.625L1264.94,907.86L1265.09,908.095L1265.24,908.331L1265.39,908.566L1265.54,908.802L1265.69,909.039L1265.83,909.276L1265.98,909.513L1266.12,909.75L1266.26,909.987L1266.4,910.225L1266.54,910.463L1266.67,910.701L1266.81,910.94L1266.94,911.178L1267.08,911.417L1267.21,911.656L1267.34,911.895L1267.47,912.134L1267.6,912.374L1267.73,912.613L1267.85,912.853L1267.98,913.092L1268.1,913.332L1268.23,913.572L1268.35,913.812L1268.47,914.052L1268.59,914.292L1268.71,914.531L1268.83,914.771L1268.95,915.011L1269.07,915.255L1269.29,915.731L1269.52,916.21L1269.74,916.69L1269.96,917.169L1270.18,917.647L1270.4,918.125L1270.61,918.603L1270.82,919.079L1271.03,919.555L1271.23,920.03L1271.43,920.505L1271.64,920.978L1271.81,921.385L1271.84,921.45L1272.03,921.922L1272.23,922.392L1272.42,922.863L1272.8,923.794L1273.18,924.722L1273.56,925.643L1273.93,926.557L1274.3,927.466L1274.49,927.914L1274.67,928.361L1274.86,928.807L1275.05,929.25L1275.23,929.69L1275.42,930.129L1275.61,930.564L1275.8,930.998L1275.99,931.428L1276.18,931.856L1276.37,932.281L1276.57,932.703L1276.76,933.122L1276.84,933.292L1276.96,933.538L1277.15,933.957L1277.25,934.159L1277.35,934.364L1277.45,934.568L1277.55,934.771L1277.65,934.974L1277.75,935.176L1277.85,935.377L1277.95,935.578L1278.05,935.777L1278.16,935.987L1278.45,936.561L1278.75,937.147L1279.05,937.732L1279.34,938.318L1279.62,938.903L1279.91,939.489L1280.19,940.074L1280.47,940.66L1280.74,941.245L1281.01,941.831L1281.28,942.416L1281.53,942.961L1281.55,943.002L1281.81,943.589L1282.06,944.176L1282.32,944.763L1282.57,945.35L1282.82,945.937L1283.06,946.524L1283.3,947.111L1283.54,947.697L1283.78,948.284L1284.01,948.871L1284.25,949.458L1284.47,950.045L1284.7,950.631L1284.92,951.218L1285.15,951.805L1285.37,952.391L1285.58,952.978L1285.8,953.565L1286.01,954.151L1286.22,954.738L1286.43,955.325L1286.63,955.911L1286.84,956.498L1287.04,957.085L1287.24,957.671L1287.44,958.258L1287.63,958.845L1287.82,959.431L1288.02,960.018L1288.2,960.605L1288.39,961.192L1288.58,961.778L1288.76,962.365L1288.94,962.952L1289.12,963.539L1289.3,964.126L1289.48,964.713L1289.66,965.3L1289.83,965.887L1290,966.475L1290.17,967.062L1290.34,967.649L1290.51,968.237L1290.68,968.824L1290.84,969.412L1291.01,970L1291.17,970.588L1291.33,971.176L1291.36,971.292L1291.49,971.764L1291.65,972.352L1291.8,972.941L1291.96,973.529L1292.11,974.118L1292.27,974.707L1292.42,975.296L1292.57,975.885L1292.72,976.475L1292.87,977.064L1293.02,977.654L1293.17,978.244L1293.31,978.834L1293.46,979.426L1293.75,980.605L1294.04,981.787L1294.32,982.97L1294.61,984.154L1294.89,985.339L1295.17,986.524L1295.45,987.711L1295.72,988.899L1296,990.089L1296.55,992.471L1297.11,994.859L1297.66,997.255L1297.94,998.455L1298.22,999.656L1298.5,1000.86L1298.79,1002.07L1299.08,1003.27L1299.37,1004.48L1299.66,1005.69L1299.95,1006.91L1300.19,1007.89L1300.25,1008.13L1300.4,1008.73L1300.55,1009.34L1300.7,1009.95L1300.86,1010.56L1301.01,1011.18L1301.17,1011.8L1301.23,1012.05L1301.3,1012.31L1301.36,1012.57L1301.42,1012.83L1301.48,1013.09L1301.54,1013.35L1301.59,1013.61L1301.65,1013.86L1301.7,1014.12L1301.75,1014.38L1301.8,1014.64L1301.85,1014.89L1301.9,1015.15L1301.95,1015.41L1301.99,1015.67L1302.04,1015.92L1302.08,1016.18L1302.12,1016.43L1302.16,1016.69L1302.2,1016.95L1302.24,1017.2L1302.28,1017.45L1302.32,1017.71L1302.35,1017.96L1302.39,1018.21L1302.42,1018.47L1302.45,1018.72L1302.49,1018.98L1302.55,1019.47L1302.61,1019.98L1302.66,1020.48L1302.71,1020.97L1302.76,1021.47L1302.81,1021.96L1302.86,1022.45L1302.9,1022.95L1302.94,1023.43L1302.98,1023.92L1303.02,1024.4L1303.06,1024.89L1303.09,1025.37L1303.13,1025.85L1303.2,1026.79L1303.26,1027.73L1303.33,1028.66L1303.39,1029.59L1303.43,1030.04L1303.46,1030.5L1303.5,1030.95L1303.53,1031.39L1303.57,1031.84L1303.61,1032.28L1303.64,1032.72L1303.68,1033.16L1303.73,1033.59L1303.77,1034.02L1303.82,1034.45L1303.86,1034.87L1303.91,1035.3L1303.96,1035.72L1303.99,1035.92L1304.02,1036.13L1304.05,1036.33L1304.07,1036.54L1304.1,1036.74L1304.13,1036.94L1304.16,1037.15L1304.19,1037.35L1304.22,1037.55L1304.26,1037.75L1304.29,1037.95L1304.32,1038.14L1304.36,1038.34L1304.39,1038.54L1304.43,1038.73L1304.46,1038.92L1304.5,1039.12L1304.54,1039.31L1304.58,1039.5L1304.62,1039.69L1304.66,1039.88L1304.7,1040.07L1304.74,1040.26L1304.78,1040.44L1304.83,1040.63L1304.87,1040.81L1304.92,1041L1304.97,1041.22L1305.03,1041.44L1305.09,1041.71L1305.14,1041.97L1305.19,1042.23L1305.24,1042.49L1305.28,1042.75L1305.33,1043.01L1305.37,1043.27L1305.4,1043.54L1305.44,1043.8L1305.48,1044.07L1305.51,1044.35L1305.54,1044.63L1305.57,1044.91L1305.6,1045.19L1305.63,1045.48L1305.66,1045.78L1305.68,1046.07L1305.71,1046.37L1305.74,1046.68L1305.76,1046.99L1305.78,1047.3L1305.8,1047.62L1305.82,1047.93L1305.85,1048.26L1305.86,1048.59L1305.88,1048.92L1305.9,1049.25L1305.92,1049.59L1305.93,1049.93L1305.95,1050.28L1305.96,1050.63L1305.98,1050.98L1305.99,1051.33L1306,1051.69L1306.01,1052.05L1306.02,1052.41L1306.04,1052.78L1306.05,1053.51L1306.07,1054.25L1306.08,1055L1306.09,1055.76L1306.1,1056.53L1306.1,1057.29L1306.1,1058.07L1306.1,1058.84L1306.1,1059.61L1306.09,1060.39L1306.08,1061.16L1306.07,1061.93L1306.05,1062.7L1306.03,1063.47L1306.01,1064.23L1305.99,1064.98L1305.96,1065.73L1305.93,1066.46L1305.92,1066.83L1305.9,1067.2L1305.89,1067.56L1305.87,1067.92L1305.85,1068.27L1305.83,1068.63L1305.81,1068.98L1305.79,1069.32L1305.77,1069.67L1305.75,1070.01L1305.73,1070.35L1305.7,1070.68L1305.68,1071.01L1305.65,1071.34L1305.65,1071.41L1305.62,1071.66L1305.59,1071.98L1305.55,1072.29L1305.52,1072.6L1305.48,1072.91L1305.44,1073.21L1305.4,1073.51L1305.37,1073.81L1305.33,1074.1L1305.29,1074.38L1305.24,1074.66L1305.2,1074.94L1305.16,1075.22L1305.11,1075.49L1305.07,1075.76L1305.02,1076.03L1304.97,1076.29L1304.92,1076.55L1304.87,1076.81L1304.81,1077.06L1304.76,1077.32L1304.7,1077.57L1304.63,1077.83L1304.56,1078.09L1304.49,1078.36L1304.41,1078.61L1304.36,1078.77L1304.36,1078.77L1304.32,1078.91L1304.28,1079.02L1304.26,1079.05L1304.16,1079.18L1304.06,1079.32L1303.96,1079.45L1303.86,1079.6L1303.75,1079.75L1303.64,1079.9L1303.52,1080.07L1303.4,1080.24L1303.26,1080.42L1303.12,1080.61L1302.97,1080.81L1302.8,1081.02L1302.61,1081.24L1302.39,1081.48L1302.15,1081.73L1301.87,1082L1301.56,1082.27L1301.19,1082.55L1300.77,1082.84L1300.29,1083.12L1299.75,1083.37L1299.14,1083.59L1298.47,1083.76L1297.77,1083.86L1297.39,1083.87L1297.38,1083.87L1294.9,1083.42L1292.82,1082.16L1291.35,1080.26L1290.72,1077.93L1290.72,1077.92L1290.73,1077.92L1290.73,1077.91L1292.43,1075.11L1296.68,1071.27L1296.69,1071.27L1296.71,1071.25L1296.02,1071.33L1296.04,1071.31L1295.38,1071.45L1295.4,1071.43L1294.79,1071.63L1294.81,1071.61L1294.26,1071.86L1294.27,1071.83L1293.79,1072.1L1293.81,1072.07L1293.39,1072.35L1293.4,1072.32L1293.04,1072.6L1293.05,1072.57L1292.75,1072.84L1292.76,1072.8L1292.5,1073.07L1292.51,1073.03L1292.29,1073.27L1292.29,1073.23L1292.11,1073.46L1292.11,1073.42L1291.95,1073.63L1291.95,1073.59L1291.81,1073.79L1291.81,1073.74L1291.7,1073.92L1291.69,1073.87L1291.59,1074.05L1291.59,1073.99L1291.5,1074.15L1291.49,1074.1L1291.41,1074.24L1291.4,1074.18L1291.34,1074.32L1291.33,1074.26L1291.27,1074.39L1291.25,1074.33L1291.2,1074.45L1291.18,1074.38L1291.14,1074.49L1291.12,1074.42L1291.08,1074.53L1291.06,1074.46L1291.02,1074.56L1291,1074.48L1290.96,1074.58L1290.94,1074.5L1290.91,1074.59L1290.9,1074.57L1290.91,1074.52L1290.89,1074.61L1290.89,1074.58L1290.9,1074.55L1290.87,1074.66L1290.89,1074.59L1290.91,1074.51L1290.88,1074.62L1290.9,1074.52L1290.91,1074.45L1290.92,1074.37L1290.94,1074.28L1290.95,1074.16L1290.97,1074.04L1290.99,1073.9L1291.01,1073.76L1291.03,1073.6L1291.05,1073.42L1291.07,1073.25L1291.09,1073.06L1291.11,1072.86L1291.13,1072.65L1291.15,1072.43L1291.17,1072.21L1291.19,1071.98L1291.21,1071.74L1291.23,1071.49L1291.25,1071.24L1291.26,1070.98L1291.28,1070.72L1291.3,1070.45L1291.31,1070.24L1291.31,1070.17L1291.34,1069.89L1291.36,1069.6L1291.38,1069.31L1291.4,1069.02L1291.43,1068.71L1291.45,1068.41L1291.47,1068.1L1291.49,1067.78L1291.51,1067.47L1291.53,1067.14L1291.55,1066.82L1291.56,1066.49L1291.58,1066.16L1291.6,1065.83L1291.63,1065.14L1291.66,1064.45L1291.69,1063.75L1291.71,1063.05L1291.74,1062.34L1291.76,1061.62L1291.77,1060.9L1291.79,1060.17L1291.8,1059.45L1291.81,1058.73L1291.82,1058L1291.82,1057.28L1291.83,1056.57L1291.83,1055.86L1291.82,1055.15L1291.82,1054.46L1291.81,1053.77L1291.8,1053.09L1291.79,1052.76L1291.78,1052.43L1291.78,1052.11L1291.77,1051.78L1291.76,1051.46L1291.75,1051.15L1291.74,1050.84L1291.73,1050.53L1291.71,1050.22L1291.7,1049.93L1291.69,1049.63L1291.68,1049.35L1291.66,1049.06L1291.65,1048.79L1291.63,1048.51L1291.62,1048.25L1291.6,1047.99L1291.58,1047.73L1291.56,1047.49L1291.55,1047.25L1291.53,1047.02L1291.51,1046.79L1291.49,1046.57L1291.47,1046.37L1291.45,1046.16L1291.43,1045.97L1291.41,1045.79L1291.38,1045.62L1291.37,1045.46L1291.35,1045.31L1291.33,1045.17L1291.31,1045.05L1291.29,1044.93L1291.27,1044.83L1291.26,1044.75L1291.23,1044.64L1291.23,1044.64L1291.22,1044.57L1291.16,1044.35L1291.1,1044.09L1291.04,1043.83L1290.98,1043.57L1290.92,1043.31L1290.87,1043.05L1290.82,1042.79L1290.76,1042.53L1290.71,1042.27L1290.66,1042.01L1290.61,1041.76L1290.56,1041.5L1290.52,1041.24L1290.47,1040.98L1290.43,1040.73L1290.39,1040.47L1290.35,1040.21L1290.31,1039.96L1290.27,1039.7L1290.23,1039.45L1290.19,1039.19L1290.16,1038.94L1290.12,1038.68L1290.09,1038.43L1290.06,1038.18L1290.02,1037.92L1289.99,1037.67L1289.96,1037.41L1289.9,1036.92L1289.85,1036.41L1289.8,1035.92L1289.75,1035.42L1289.7,1034.92L1289.66,1034.43L1289.62,1033.94L1289.58,1033.44L1289.54,1032.96L1289.5,1032.47L1289.47,1031.99L1289.44,1031.5L1289.4,1031.02L1289.37,1030.54L1289.31,1029.6L1289.25,1028.66L1289.2,1027.73L1289.14,1026.8L1289.11,1026.35L1289.08,1025.89L1289.05,1025.44L1289.02,1024.99L1288.98,1024.55L1288.95,1024.1L1288.91,1023.66L1288.88,1023.23L1288.84,1022.79L1288.8,1022.36L1288.76,1021.93L1288.71,1021.5L1288.67,1021.08L1288.62,1020.66L1288.59,1020.46L1288.57,1020.25L1288.54,1020.04L1288.52,1019.84L1288.49,1019.63L1288.46,1019.43L1288.43,1019.22L1288.4,1019.02L1288.37,1018.82L1288.34,1018.62L1288.31,1018.42L1288.28,1018.22L1288.25,1018.02L1288.21,1017.83L1288.18,1017.63L1288.14,1017.44L1288.11,1017.24L1288.07,1017.05L1288.04,1016.85L1288,1016.66L1287.96,1016.47L1287.92,1016.28L1287.88,1016.09L1287.84,1015.9L1287.8,1015.72L1287.75,1015.53L1287.71,1015.35L1287.66,1015.15L1287.51,1014.53L1287.36,1013.9L1287.2,1013.27L1287.05,1012.64L1286.9,1012.01L1286.75,1011.38L1286.7,1011.15L1286.46,1010.14L1286.17,1008.89L1285.88,1007.65L1285.6,1006.42L1285.32,1005.19L1285.04,1003.96L1284.77,1002.74L1284.5,1001.52L1284.23,1000.31L1283.69,997.901L1283.16,995.507L1282.63,993.128L1282.37,991.946L1282.11,990.768L1281.84,989.593L1281.58,988.422L1281.31,987.256L1281.05,986.093L1280.78,984.934L1280.51,983.778L1280.24,982.624L1280.1,982.051L1279.96,981.478L1279.83,980.905L1279.69,980.333L1279.55,979.762L1279.41,979.191L1279.27,978.622L1279.13,978.053L1278.98,977.485L1278.84,976.918L1278.7,976.352L1278.55,975.787L1278.41,975.222L1278.29,974.77L1278.26,974.658L1278.11,974.095L1277.96,973.532L1277.82,972.97L1277.67,972.409L1277.52,971.848L1277.36,971.289L1277.21,970.73L1277.05,970.171L1276.9,969.614L1276.74,969.057L1276.58,968.5L1276.42,967.945L1276.26,967.389L1276.1,966.835L1275.93,966.281L1275.77,965.728L1275.6,965.175L1275.43,964.623L1275.26,964.072L1275.09,963.521L1274.91,962.971L1274.74,962.421L1274.56,961.871L1274.38,961.323L1274.2,960.774L1274.02,960.226L1273.84,959.679L1273.65,959.132L1273.46,958.586L1273.27,958.04L1273.08,957.494L1272.89,956.949L1272.69,956.404L1272.49,955.86L1272.29,955.316L1272.09,954.773L1271.88,954.229L1271.68,953.686L1271.47,953.144L1271.26,952.602L1271.04,952.06L1270.83,951.518L1270.61,950.976L1270.39,950.435L1270.17,949.894L1269.94,949.354L1269.71,948.813L1269.48,948.273L1269.47,948.236L1269.25,947.731L1269.02,947.19L1268.79,946.648L1268.55,946.107L1268.31,945.566L1268.07,945.024L1267.82,944.483L1267.57,943.942L1267.32,943.401L1267.07,942.86L1266.81,942.319L1266.54,941.766L1266.43,941.534L1266.32,941.29L1266.2,941.046L1266.09,940.802L1265.97,940.559L1265.86,940.315L1265.75,940.071L1265.64,939.827L1265.53,939.583L1265.41,939.335L1265.2,938.853L1265.08,938.566L1264.99,938.366L1264.79,937.879L1264.58,937.392L1264.38,936.907L1264.18,936.422L1263.99,935.937L1263.8,935.454L1263.61,934.971L1263.42,934.49L1263.24,934.009L1263.05,933.53L1262.87,933.052L1262.69,932.575L1262.51,932.098L1262.16,931.153L1261.81,930.212L1261.46,929.277L1261.12,928.349L1260.78,927.426L1260.61,926.97L1260.44,926.514L1260.27,926.061L1260.24,925.999L1260.09,925.609L1259.92,925.159L1259.75,924.712L1259.58,924.267L1259.41,923.824L1259.24,923.383L1259.06,922.945L1258.88,922.509L1258.71,922.076L1258.53,921.646L1258.35,921.218L1258.17,920.793L1257.98,920.366L1257.89,920.16L1257.8,919.95L1257.71,919.741L1257.61,919.533L1257.52,919.326L1257.42,919.119L1257.33,918.913L1257.23,918.708L1257.14,918.504L1257.04,918.3L1256.94,918.097L1256.84,917.895L1256.75,917.694L1256.65,917.493L1256.55,917.293L1256.44,917.094L1256.34,916.895L1256.24,916.698L1256.14,916.501L1256.04,916.305L1255.93,916.11L1255.83,915.915L1255.72,915.721L1255.62,915.528L1255.51,915.336L1255.4,915.145L1255.29,914.954L1255.18,914.765L1255.07,914.576L1254.96,914.388L1254.85,914.2L1254.74,914.014L1254.63,913.828L1254.51,913.643L1254.4,913.459L1254.27,913.262L1254.33,913.348L1254.27,913.264ZM1253.14,899.058L1253.13,899.068L1251.4,902.518L1248.51,903.724L1248.61,903.722L1248.59,903.721L1248.95,903.689L1248.94,903.689L1249.33,903.623L1249.32,903.625L1249.74,903.518L1249.72,903.52L1250.16,903.365L1250.15,903.368L1250.6,903.159L1250.59,903.164L1251.03,902.9L1251.02,902.906L1251.44,902.591L1251.43,902.599L1251.81,902.243L1251.8,902.251L1252.13,901.867L1252.12,901.877L1252.41,901.48L1252.4,901.491L1252.63,901.094L1252.62,901.106L1252.8,900.722L1252.79,900.735L1252.92,900.371L1252.92,900.386L1253.01,900.047L1253.01,900.063L1253.08,899.753L1253.07,899.77L1253.11,899.487L1253.11,899.505L1253.13,899.249L1253.13,899.268L1253.14,899.037L1253.14,899.058Z" style="fill:rgb(0,255,0);"/>
                        <path d="M1395.33,839.21L1395.29,839.144L1395.33,839.203L1395.28,839.127L1395.25,839.07L1395.21,839.004L1395.17,838.93L1395.12,838.849L1395.07,838.761L1395.01,838.667L1394.94,838.567L1394.88,838.461L1394.8,838.351L1394.73,838.235L1394.64,838.115L1394.56,837.99L1394.48,837.866L1394.28,837.592L1394.08,837.308L1393.87,837.011L1393.65,836.702L1393.41,836.382L1393.17,836.052L1392.91,835.712L1392.65,835.365L1392.38,835.01L1392.1,834.649L1391.82,834.282L1391.53,833.91L1391.23,833.534L1390.93,833.154L1390.63,832.772L1390.32,832.388L1390.01,832.002L1389.7,831.616L1389.38,831.231L1389.27,831.099L1389.07,830.84L1388.77,830.449L1388.46,830.06L1388.15,829.674L1387.85,829.292L1387.55,828.915L1387.25,828.543L1386.95,828.177L1386.65,827.818L1386.36,827.466L1386.08,827.123L1385.8,826.789L1385.52,826.464L1385.26,826.151L1385,825.848L1384.75,825.558L1384.5,825.281L1384.27,825.018L1384.05,824.771L1383.84,824.539L1383.64,824.325L1383.58,824.25L1383.52,824.076L1383.42,823.822L1383.39,823.742L1383.37,823.722L1383.3,823.649L1383.29,823.643L1381.87,822.598L1380.86,820.983L1380.55,819.056L1380.55,819.046L1380.56,818.807L1380.62,818.303L1380.77,817.715L1381.02,817.052L1381.43,816.345L1382,815.658L1382.71,815.067L1383.49,814.629L1384.26,814.357L1384.97,814.225L1385.58,814.194L1386.1,814.223L1386.52,814.288L1386.88,814.369L1387.17,814.457L1387.42,814.545L1387.63,814.632L1387.85,814.731L1388.11,814.867L1388.36,815.008L1388.56,815.137L1388.74,815.257L1388.9,815.37L1389.04,815.478L1389.17,815.583L1389.3,815.687L1389.43,815.789L1389.55,815.892L1389.67,815.995L1389.79,816.099L1389.91,816.205L1390.03,816.313L1390.15,816.423L1390.27,816.535L1390.3,816.566L1390.42,816.629L1390.74,816.784L1390.95,816.883L1391.05,816.977L1391.32,817.233L1391.59,817.499L1391.87,817.776L1392.16,818.063L1392.46,818.36L1392.76,818.667L1393.07,818.983L1393.39,819.308L1393.71,819.641L1394.04,819.982L1394.37,820.33L1394.71,820.684L1395.05,821.045L1395.39,821.412L1395.74,821.783L1396.09,822.16L1396.44,822.54L1396.8,822.923L1397.15,823.309L1397.51,823.698L1397.74,823.955L1397.86,824.091L1398.21,824.49L1398.55,824.891L1398.89,825.291L1399.23,825.69L1399.57,826.089L1399.9,826.486L1400.23,826.88L1400.56,827.272L1400.88,827.66L1401.19,828.045L1401.5,828.425L1401.8,828.801L1402.1,829.171L1402.38,829.536L1402.66,829.895L1402.93,830.247L1403.2,830.593L1403.45,830.932L1403.7,831.26L1403.82,831.428L1403.94,831.59L1404.05,831.75L1404.17,831.91L1404.28,832.067L1404.39,832.224L1404.49,832.379L1404.6,832.534L1404.7,832.688L1404.8,832.841L1404.9,832.995L1405,833.149L1405.09,833.305L1405.19,833.462L1405.28,833.623L1405.37,833.787L1405.46,833.957L1405.55,834.115L1405.72,834.446L1405.88,834.76L1406.04,835.074L1406.2,835.39L1406.35,835.706L1406.51,836.022L1406.66,836.34L1406.82,836.658L1406.97,836.977L1407.12,837.296L1407.28,837.616L1407.43,837.937L1407.58,838.258L1407.73,838.58L1407.87,838.902L1408.02,839.225L1408.17,839.548L1408.32,839.872L1408.46,840.197L1408.61,840.524L1408.89,841.173L1408.91,841.218L1409.18,841.826L1409.46,842.481L1409.74,843.138L1410.01,843.795L1410.29,844.454L1410.56,845.114L1410.84,845.774L1411.11,846.435L1411.38,847.097L1411.65,847.758L1411.92,848.421L1412.45,849.743L1412.99,851.066L1413.53,852.387L1413.79,853.045L1414.06,853.703L1414.33,854.359L1414.6,855.014L1414.87,855.667L1415.15,856.319L1415.42,856.969L1415.69,857.617L1415.97,858.262L1416.25,858.905L1416.53,859.546L1416.81,860.187L1416.95,860.502L1417.1,860.82L1417.18,861.013L1417.24,861.137L1417.38,861.454L1417.52,861.771L1417.66,862.086L1417.8,862.401L1417.94,862.715L1418.08,863.029L1418.23,863.341L1418.37,863.653L1418.51,863.963L1418.66,864.273L1418.8,864.582L1418.95,864.89L1419.1,865.197L1419.25,865.502L1419.39,865.807L1419.54,866.111L1419.69,866.414L1419.85,866.715L1420,867.016L1420.15,867.315L1420.3,867.614L1420.46,867.911L1420.61,868.207L1420.77,868.502L1420.93,868.795L1421.09,869.088L1421.24,869.379L1421.4,869.669L1421.56,869.957L1421.73,870.245L1421.89,870.531L1422.05,870.815L1422.22,871.099L1422.38,871.381L1422.55,871.661L1422.72,871.941L1422.89,872.218L1423.06,872.495L1423.23,872.77L1423.4,873.043L1423.57,873.315L1423.75,873.586L1423.92,873.855L1424.1,874.122L1424.28,874.402L1424.49,874.71L1424.7,875.033L1424.91,875.356L1425.13,875.68L1425.33,876.005L1425.54,876.33L1425.75,876.656L1425.95,876.983L1426.15,877.311L1426.36,877.639L1426.56,877.968L1426.75,878.298L1426.95,878.629L1427.14,878.96L1427.34,879.291L1427.53,879.624L1427.72,879.957L1427.91,880.291L1428.1,880.625L1428.29,880.96L1428.47,881.296L1428.66,881.632L1428.84,881.969L1429.02,882.306L1429.2,882.644L1429.38,882.983L1429.56,883.322L1429.73,883.662L1429.91,884.002L1430.08,884.343L1430.26,884.685L1430.43,885.027L1430.6,885.369L1430.76,885.713L1430.93,886.056L1431.1,886.4L1431.26,886.745L1431.43,887.09L1431.59,887.436L1431.75,887.782L1431.91,888.129L1432.07,888.476L1432.23,888.824L1432.38,889.172L1432.54,889.521L1432.69,889.87L1432.85,890.219L1433,890.569L1433.15,890.92L1433.3,891.27L1433.45,891.622L1433.59,891.973L1433.74,892.326L1433.89,892.678L1434.03,893.031L1434.17,893.384L1434.32,893.738L1434.46,894.092L1434.6,894.447L1434.74,894.802L1434.88,895.157L1435.01,895.513L1435.15,895.869L1435.28,896.225L1435.42,896.582L1435.55,896.939L1435.68,897.296L1435.82,897.654L1435.95,898.012L1436.08,898.37L1436.2,898.729L1436.33,899.088L1436.46,899.447L1436.59,899.807L1436.71,900.167L1436.84,900.527L1436.96,900.888L1437.08,901.248L1437.2,901.609L1437.24,901.704L1437.33,901.971L1437.44,902.332L1437.56,902.694L1437.68,903.056L1437.8,903.419L1437.92,903.781L1438.03,904.144L1438.15,904.507L1438.26,904.874L1438.49,905.598L1438.71,906.326L1438.94,907.055L1439.15,907.785L1439.37,908.515L1439.58,909.246L1439.8,909.978L1440,910.71L1440.21,911.443L1440.41,912.176L1440.62,912.91L1440.82,913.644L1441.01,914.379L1441.21,915.114L1441.4,915.849L1441.59,916.584L1441.78,917.32L1441.97,918.056L1442.16,918.792L1442.34,919.528L1442.53,920.264L1442.71,921L1442.89,921.736L1443.07,922.472L1443.25,923.208L1443.42,923.943L1443.6,924.679L1443.77,925.414L1443.95,926.149L1444.12,926.885L1444.46,928.351L1444.8,929.818L1445.14,931.282L1445.48,932.744L1445.81,934.202L1446.15,935.658L1446.48,937.11L1446.82,938.559L1447.15,940.003L1447.49,941.444L1447.66,942.161L1447.83,942.877L1448,943.593L1448.17,944.307L1448.34,945.02L1448.51,945.731L1448.68,946.441L1448.86,947.149L1449.03,947.856L1449.21,948.561L1449.39,949.264L1449.57,949.966L1449.74,950.666L1449.92,951.364L1450.11,952.06L1450.29,952.755L1450.48,953.447L1450.66,954.138L1450.85,954.826L1451.04,955.513L1451.23,956.197L1451.42,956.88L1451.62,957.56L1451.81,958.237L1452.01,958.913L1452.21,959.586L1452.41,960.257L1452.62,960.926L1452.64,960.984L1452.82,961.592L1453.03,962.259L1453.14,962.586L1453.24,962.917L1453.35,963.246L1453.46,963.575L1453.56,963.903L1453.67,964.231L1453.78,964.558L1453.89,964.894L1453.96,965.107L1454.04,965.329L1454.11,965.552L1454.18,965.775L1454.25,965.998L1454.32,966.221L1454.39,966.444L1454.45,966.667L1454.52,966.891L1454.59,967.114L1454.65,967.338L1454.71,967.562L1454.78,967.786L1454.84,968.01L1454.9,968.235L1454.96,968.465L1455.08,968.908L1455.2,969.357L1455.31,969.807L1455.42,970.257L1455.52,970.708L1455.62,971.159L1455.73,971.61L1455.82,972.061L1455.92,972.512L1456.01,972.964L1456.1,973.416L1456.18,973.868L1456.27,974.32L1456.35,974.772L1456.42,975.225L1456.5,975.677L1456.58,976.13L1456.65,976.582L1456.72,977.034L1456.79,977.487L1456.85,977.939L1456.91,978.392L1456.98,978.844L1457.04,979.296L1457.09,979.748L1457.15,980.2L1457.2,980.652L1457.26,981.103L1457.31,981.555L1457.36,982.006L1457.41,982.457L1457.45,982.908L1457.5,983.358L1457.54,983.808L1457.59,984.258L1457.63,984.708L1457.67,985.157L1457.71,985.606L1457.75,986.054L1457.79,986.503L1457.83,986.95L1457.86,987.4L1457.93,988.29L1458,989.181L1458.07,990.07L1458.13,990.956L1458.19,991.841L1458.31,993.598L1458.43,995.348L1458.5,996.216L1458.56,997.082L1458.62,997.943L1458.68,998.801L1458.75,999.657L1458.79,1000.08L1458.82,1000.5L1458.86,1000.93L1458.89,1001.35L1458.93,1001.77L1458.97,1002.19L1459.01,1002.61L1459.05,1003.02L1459.09,1003.44L1459.13,1003.85L1459.18,1004.26L1459.22,1004.68L1459.27,1005.09L1459.31,1005.5L1459.36,1005.9L1459.41,1006.31L1459.46,1006.71L1459.51,1007.12L1459.56,1007.52L1459.62,1007.92L1459.67,1008.31L1459.73,1008.71L1459.79,1009.11L1459.85,1009.5L1459.91,1009.89L1459.98,1010.28L1460.04,1010.67L1460.11,1011.05L1460.18,1011.44L1460.25,1011.82L1460.32,1012.2L1460.4,1012.58L1460.47,1012.96L1460.55,1013.33L1460.63,1013.71L1460.71,1014.08L1460.8,1014.45L1460.88,1014.81L1460.97,1015.18L1461.06,1015.54L1461.16,1015.9L1461.25,1016.27L1461.3,1016.44L1461.35,1016.62L1461.4,1016.8L1461.45,1016.97L1461.5,1017.15L1461.55,1017.33L1461.6,1017.5L1461.65,1017.68L1461.71,1017.85L1461.76,1018.03L1461.81,1018.2L1461.87,1018.37L1461.92,1018.55L1461.98,1018.72L1462.04,1018.89L1462.1,1019.09L1462.14,1019.21L1462.19,1019.38L1462.26,1019.62L1462.33,1019.87L1462.38,1020.11L1462.43,1020.34L1462.48,1020.57L1462.53,1020.8L1462.57,1021.03L1462.61,1021.26L1462.65,1021.5L1462.69,1021.75L1462.73,1021.99L1462.77,1022.25L1462.81,1022.51L1462.84,1022.77L1462.88,1023.05L1462.92,1023.33L1462.95,1023.61L1462.99,1023.9L1463.03,1024.2L1463.06,1024.51L1463.1,1024.82L1463.17,1025.46L1463.25,1026.13L1463.32,1026.83L1463.39,1027.54L1463.46,1028.28L1463.54,1029.04L1463.61,1029.82L1463.68,1030.61L1463.75,1031.42L1463.83,1032.25L1463.9,1033.09L1463.97,1033.94L1464.04,1034.8L1464.11,1035.68L1464.18,1036.56L1464.25,1037.44L1464.31,1038.34L1464.38,1039.23L1464.45,1040.13L1464.51,1041.02L1464.58,1041.92L1464.64,1042.81L1464.7,1043.7L1464.76,1044.58L1464.82,1045.46L1464.88,1046.32L1464.94,1047.18L1464.99,1048.03L1465.04,1048.86L1465.1,1049.67L1465.14,1050.47L1465.19,1051.25L1465.24,1052.02L1465.28,1052.76L1465.32,1053.48L1465.36,1054.17L1465.4,1054.84L1465.43,1055.48L1465.47,1056.1L1465.5,1056.68L1465.52,1057.24L1465.55,1057.76L1465.57,1058.25L1465.59,1058.71L1465.61,1059.13L1465.62,1059.52L1465.63,1059.88L1465.64,1060.2L1465.64,1060.5L1465.64,1060.66L1465.64,1060.81L1465.64,1060.98L1465.63,1061.18L1465.62,1061.45L1465.58,1061.8L1465.52,1062.2L1465.4,1062.77L1465.28,1063.12L1465.02,1063.74L1465.02,1063.78L1465.02,1063.93L1465.01,1064.08L1465.01,1064.24L1465,1064.4L1465,1064.42L1465,1064.6L1465,1064.8L1465,1065.01L1465,1065.22L1465,1065.44L1465.01,1065.66L1465.02,1065.89L1465.02,1066.13L1465.03,1066.38L1465.04,1066.62L1465.05,1066.87L1465.07,1067.12L1465.08,1067.38L1465.1,1067.64L1465.11,1067.89L1465.13,1068.15L1465.16,1068.68L1465.2,1069.2L1465.24,1069.72L1465.28,1070.23L1465.36,1071.23L1465.39,1071.7L1465.43,1072.17L1465.46,1072.61L1465.49,1073.04L1465.51,1073.25L1465.52,1073.45L1465.53,1073.66L1465.54,1073.86L1465.55,1074.07L1465.55,1074.27L1465.56,1074.49L1465.56,1074.76L1465.55,1075.03L1465.53,1075.35L1465.49,1075.71L1465.43,1076.03L1465.38,1076.29L1465.33,1076.52L1465.28,1076.72L1465.23,1076.9L1465.17,1077.08L1465.12,1077.24L1465.07,1077.41L1465.02,1077.57L1464.96,1077.73L1464.9,1077.89L1464.84,1078.05L1464.78,1078.21L1464.72,1078.38L1464.65,1078.54L1464.58,1078.71L1464.51,1078.88L1464.44,1079.04L1464.37,1079.21L1464.29,1079.38L1464.21,1079.56L1464.12,1079.73L1464.04,1079.91L1463.95,1080.09L1463.86,1080.27L1463.76,1080.46L1463.65,1080.64L1463.55,1080.83L1463.55,1080.84L1463.42,1081.02L1463.28,1081.21L1463.13,1081.41L1462.98,1081.62L1462.82,1081.82L1462.71,1081.95L1462.62,1082.07L1462.51,1082.18L1462.4,1082.31L1462.29,1082.44L1462.16,1082.57L1462.02,1082.71L1461.87,1082.85L1461.71,1083L1461.53,1083.16L1461.33,1083.32L1461.11,1083.49L1460.86,1083.67L1460.58,1083.85L1460.27,1084.03L1459.91,1084.21L1459.51,1084.38L1459.06,1084.54L1458.56,1084.68L1458,1084.79L1457.39,1084.85L1456.75,1084.85L1456.07,1084.78L1455.4,1084.64L1454.74,1084.44L1454.12,1084.16L1453.55,1083.84L1453.04,1083.48L1452.6,1083.11L1452.22,1082.73L1451.9,1082.35L1451.64,1081.99L1451.42,1081.64L1451.23,1081.32L1451.08,1081.01L1450.96,1080.72L1450.86,1080.45L1450.77,1080.19L1450.7,1079.95L1450.64,1079.73L1450.59,1079.51L1450.55,1079.3L1450.52,1079.11L1450.49,1078.92L1450.47,1078.73L1450.46,1078.55L1450.44,1078.38L1450.43,1078.21L1450.43,1078.04L1450.43,1077.88L1450.42,1077.71L1450.43,1077.55L1450.43,1077.39L1450.44,1077.23L1450.45,1077.07L1450.46,1076.9L1450.47,1076.74L1450.49,1076.6L1450.49,1076.59L1451.15,1074.25L1452.31,1072.6L1452.28,1072.35L1452.19,1071.34L1452.14,1070.81L1452.09,1070.25L1452.04,1069.68L1452,1069.1L1451.97,1068.81L1451.95,1068.51L1451.93,1068.21L1451.91,1067.91L1451.89,1067.61L1451.87,1067.31L1451.86,1067L1451.84,1066.7L1451.83,1066.39L1451.81,1066.09L1451.8,1065.78L1451.79,1065.48L1451.79,1065.17L1451.78,1064.87L1451.78,1064.57L1451.78,1064.26L1451.78,1064.22L1451.79,1063.96L1451.8,1063.65L1451.81,1063.35L1451.82,1063.05L1451.83,1062.88L1451.84,1062.73L1451.86,1062.57L1451.87,1062.42L1451.88,1062.26L1451.9,1062.1L1451.92,1061.94L1451.93,1061.78L1451.96,1061.61L1451.98,1061.45L1452.01,1061.28L1452.04,1061.11L1452.07,1060.93L1452.1,1060.76L1452.14,1060.58L1452.18,1060.39L1452.23,1060.2L1452.28,1060L1452.34,1059.8L1452.4,1059.59L1452.41,1059.56L1452.4,1059.22L1452.38,1058.81L1452.36,1058.35L1452.34,1057.85L1452.32,1057.32L1452.29,1056.76L1452.26,1056.16L1452.23,1055.54L1452.2,1054.88L1452.16,1054.2L1452.12,1053.5L1452.09,1052.77L1452.04,1052.02L1452,1051.25L1451.95,1050.46L1451.91,1049.66L1451.86,1048.84L1451.81,1048.01L1451.76,1047.17L1451.7,1046.31L1451.65,1045.45L1451.59,1044.58L1451.53,1043.7L1451.48,1042.82L1451.41,1041.94L1451.36,1041.06L1451.29,1040.18L1451.23,1039.3L1451.17,1038.42L1451.1,1037.55L1451.04,1036.69L1450.97,1035.84L1450.91,1034.99L1450.84,1034.16L1450.78,1033.34L1450.71,1032.54L1450.64,1031.76L1450.58,1030.99L1450.51,1030.24L1450.44,1029.52L1450.38,1028.82L1450.31,1028.14L1450.25,1027.5L1450.18,1026.88L1450.12,1026.29L1450.09,1026.02L1450.06,1025.75L1450.03,1025.48L1449.99,1025.23L1449.96,1024.99L1449.93,1024.76L1449.9,1024.54L1449.88,1024.33L1449.85,1024.13L1449.82,1023.94L1449.8,1023.77L1449.77,1023.61L1449.75,1023.47L1449.73,1023.34L1449.7,1023.23L1449.69,1023.14L1449.67,1023.07L1449.67,1023.04L1449.64,1022.96L1449.57,1022.74L1449.5,1022.52L1449.43,1022.29L1449.36,1022.07L1449.29,1021.85L1449.22,1021.62L1449.16,1021.4L1449.09,1021.18L1449.03,1020.95L1448.96,1020.73L1448.9,1020.5L1448.84,1020.28L1448.78,1020.06L1448.71,1019.83L1448.65,1019.6L1448.54,1019.16L1448.42,1018.71L1448.31,1018.26L1448.21,1017.81L1448.1,1017.36L1448,1016.9L1447.9,1016.45L1447.81,1016L1447.72,1015.55L1447.63,1015.1L1447.54,1014.65L1447.46,1014.2L1447.37,1013.74L1447.3,1013.29L1447.22,1012.84L1447.14,1012.38L1447.07,1011.93L1447,1011.48L1446.93,1011.03L1446.87,1010.58L1446.8,1010.12L1446.74,1009.67L1446.68,1009.22L1446.62,1008.77L1446.57,1008.31L1446.51,1007.86L1446.46,1007.41L1446.41,1006.96L1446.36,1006.51L1446.31,1006.06L1446.27,1005.61L1446.22,1005.15L1446.18,1004.71L1446.13,1004.25L1446.09,1003.81L1446.05,1003.36L1446.01,1002.91L1445.97,1002.46L1445.94,1002.01L1445.9,1001.56L1445.87,1001.11L1445.83,1000.66L1445.76,999.774L1445.7,998.884L1445.64,997.995L1445.58,997.108L1445.52,996.224L1445.4,994.466L1445.29,992.716L1445.23,991.848L1445.17,990.982L1445.11,990.12L1445.05,989.262L1444.99,988.405L1444.96,987.982L1444.92,987.558L1444.89,987.135L1444.85,986.713L1444.82,986.292L1444.78,985.872L1444.74,985.454L1444.7,985.036L1444.66,984.62L1444.62,984.205L1444.58,983.792L1444.54,983.38L1444.5,982.969L1444.45,982.56L1444.4,982.152L1444.36,981.745L1444.31,981.34L1444.26,980.937L1444.21,980.534L1444.15,980.134L1444.1,979.735L1444.04,979.337L1443.99,978.942L1443.93,978.547L1443.87,978.155L1443.8,977.764L1443.74,977.375L1443.67,976.987L1443.61,976.602L1443.54,976.218L1443.47,975.835L1443.39,975.455L1443.32,975.077L1443.24,974.7L1443.16,974.325L1443.08,973.952L1443,973.581L1442.91,973.212L1442.83,972.845L1442.74,972.48L1442.64,972.117L1442.55,971.75L1442.5,971.576L1442.45,971.397L1442.41,971.218L1442.36,971.04L1442.31,970.862L1442.26,970.685L1442.2,970.508L1442.15,970.332L1442.1,970.156L1442.05,969.981L1442,969.806L1441.94,969.632L1441.89,969.459L1441.83,969.286L1441.78,969.113L1441.71,968.931L1441.6,968.586L1441.49,968.231L1441.37,967.876L1441.26,967.52L1441.14,967.164L1441.03,966.808L1440.91,966.452L1440.8,966.092L1440.58,965.38L1440.38,964.727L1440.36,964.664L1440.15,963.947L1439.94,963.229L1439.73,962.51L1439.52,961.79L1439.31,961.069L1439.11,960.348L1438.91,959.625L1438.71,958.901L1438.52,958.177L1438.32,957.452L1438.13,956.726L1437.94,956L1437.75,955.273L1437.57,954.545L1437.38,953.817L1437.2,953.089L1437.02,952.36L1436.84,951.63L1436.66,950.9L1436.48,950.17L1436.3,949.44L1436.13,948.709L1435.96,947.978L1435.78,947.247L1435.61,946.515L1435.44,945.784L1435.27,945.052L1435.1,944.319L1434.77,942.858L1434.44,941.395L1434.11,939.933L1433.78,938.472L1433.45,937.012L1433.12,935.554L1432.79,934.098L1432.46,932.644L1432.13,931.193L1431.8,929.744L1431.64,929.022L1431.47,928.3L1431.3,927.579L1431.13,926.859L1430.96,926.14L1430.79,925.421L1430.62,924.704L1430.45,923.988L1430.28,923.274L1430.1,922.56L1429.93,921.848L1429.75,921.137L1429.57,920.427L1429.39,919.719L1429.21,919.012L1429.03,918.306L1428.85,917.602L1428.66,916.9L1428.48,916.199L1428.29,915.499L1428.1,914.802L1427.9,914.106L1427.71,913.412L1427.51,912.719L1427.32,912.029L1427.12,911.34L1426.91,910.653L1426.71,909.969L1426.5,909.286L1426.29,908.602L1426.19,908.265L1426.08,907.926L1425.97,907.588L1425.87,907.25L1425.76,906.912L1425.65,906.575L1425.54,906.239L1425.43,905.903L1425.35,905.656L1425.32,905.568L1425.21,905.233L1425.1,904.899L1424.99,904.565L1424.88,904.232L1424.76,903.899L1424.65,903.567L1424.53,903.236L1424.42,902.905L1424.3,902.575L1424.18,902.246L1424.07,901.917L1423.95,901.589L1423.83,901.261L1423.71,900.934L1423.59,900.607L1423.47,900.282L1423.35,899.957L1423.22,899.632L1423.1,899.308L1422.98,898.985L1422.85,898.663L1422.72,898.341L1422.6,898.02L1422.47,897.699L1422.34,897.379L1422.21,897.06L1422.08,896.742L1421.95,896.424L1421.82,896.107L1421.69,895.791L1421.55,895.475L1421.42,895.16L1421.28,894.846L1421.15,894.533L1421.01,894.22L1420.87,893.908L1420.73,893.596L1420.59,893.286L1420.45,892.976L1420.31,892.667L1420.17,892.359L1420.03,892.051L1419.88,891.744L1419.74,891.438L1419.59,891.133L1419.44,890.828L1419.3,890.525L1419.15,890.222L1419,889.919L1418.85,889.618L1418.69,889.317L1418.54,889.018L1418.39,888.719L1418.23,888.42L1418.08,888.123L1417.92,887.826L1417.76,887.53L1417.6,887.235L1417.44,886.941L1417.28,886.648L1417.12,886.355L1416.95,886.064L1416.79,885.773L1416.62,885.483L1416.46,885.194L1416.29,884.905L1416.12,884.618L1415.95,884.331L1415.78,884.045L1415.61,883.76L1415.43,883.476L1415.26,883.193L1415.09,882.91L1414.91,882.629L1414.73,882.348L1414.55,882.068L1414.37,881.789L1414.19,881.511L1414,881.221L1413.79,880.909L1413.58,880.582L1413.37,880.255L1413.16,879.927L1412.96,879.598L1412.75,879.268L1412.55,878.938L1412.35,878.607L1412.15,878.275L1411.95,877.942L1411.76,877.608L1411.56,877.274L1411.37,876.94L1411.18,876.604L1410.99,876.268L1410.81,875.932L1410.62,875.595L1410.44,875.257L1410.26,874.919L1410.08,874.58L1409.9,874.241L1409.72,873.902L1409.55,873.562L1409.37,873.221L1409.2,872.881L1409.03,872.539L1408.86,872.198L1408.69,871.856L1408.52,871.514L1408.36,871.171L1408.19,870.829L1408.03,870.486L1407.87,870.143L1407.71,869.799L1407.55,869.456L1407.39,869.112L1407.23,868.768L1407.07,868.424L1406.92,868.08L1406.77,867.735L1406.61,867.391L1406.46,867.047L1406.31,866.702L1406.16,866.358L1406.01,866.013L1405.95,865.879L1405.87,865.668L1405.72,865.322L1405.58,864.973L1405.3,864.285L1405.02,863.594L1404.74,862.904L1404.47,862.214L1404.2,861.526L1403.93,860.839L1403.67,860.153L1403.4,859.468L1403.14,858.785L1402.89,858.104L1402.63,857.425L1402.38,856.747L1401.87,855.4L1401.37,854.063L1400.87,852.735L1400.62,852.077L1400.38,851.421L1400.13,850.769L1399.88,850.121L1399.64,849.476L1399.39,848.836L1399.14,848.199L1398.9,847.567L1398.65,846.939L1398.4,846.316L1398.17,845.74L1398.15,845.697L1397.9,845.08L1397.78,844.777L1397.65,844.473L1397.53,844.17L1397.4,843.869L1397.28,843.568L1397.15,843.27L1397.02,842.972L1396.9,842.676L1396.77,842.382L1396.64,842.089L1396.51,841.797L1396.39,841.507L1396.26,841.218L1396.13,840.931L1396,840.646L1395.87,840.361L1395.74,840.079L1395.61,839.798L1395.47,839.519L1395.35,839.26L1395.32,839.202L1395.37,839.288L1395.32,839.197L1395.36,839.272L1395.33,839.21ZM1462.66,1076.9L1462.66,1076.83L1462.67,1076.89L1462.69,1076.94L1462.68,1076.86L1462.7,1076.9L1462.71,1076.94L1462.7,1076.85L1462.72,1076.93L1462.71,1076.83L1462.73,1076.9L1462.71,1076.8L1462.73,1076.87L1462.72,1076.76L1462.74,1076.82L1462.71,1076.7L1462.74,1076.76L1462.71,1076.63L1462.73,1076.69L1462.7,1076.55L1462.72,1076.6L1462.68,1076.45L1462.7,1076.5L1462.66,1076.33L1462.68,1076.38L1462.62,1076.2L1462.64,1076.24L1462.57,1076.04L1462.6,1076.08L1462.51,1075.86L1462.54,1075.9L1462.43,1075.66L1462.45,1075.7L1462.33,1075.44L1462.35,1075.47L1462.2,1075.19L1462.22,1075.22L1462.04,1074.91L1462.06,1074.94L1461.99,1074.84L1462.57,1076.54L1462.58,1076.64L1462.6,1076.7L1462.61,1076.76L1462.63,1076.83L1462.63,1076.77L1462.64,1076.84L1462.66,1076.9ZM1385.89,824.092L1386.45,824.026L1386.72,823.954L1385.89,824.092ZM1387.53,823.673L1387.94,823.486L1388.69,822.975L1388.75,822.911L1387.53,823.673ZM1388.88,822.778L1389.32,822.339L1389.8,821.65L1389.95,821.341L1388.88,822.778ZM1389.95,821.339L1390.12,820.98L1390.31,820.378L1390.4,819.862L1390.44,819.45L1389.95,821.339Z" style="fill:rgb(0,255,0);"/>
                    </g>
                    <g transform="matrix(1,0,0,1,-6.72278,12.5025)">
                        <path d="M1560.88,672.873L1560.9,672.878L1563.58,674.136L1565.51,676.262L1566.51,678.956L1566.4,681.911L1566.4,681.92L1566.4,681.923L1566.12,682.812L1565.74,683.66L1565.46,684.185L1564.9,684.935L1564.55,685.323L1564.32,685.558L1564.1,685.765L1563.91,685.929L1563.75,686.066L1563.6,686.197L1563.44,686.331L1563.27,686.475L1562.89,686.78L1562.46,687.134L1561.96,687.532L1561.41,687.977L1561.06,688.255L1560.8,688.467L1560.13,689L1559.4,689.576L1558.62,690.192L1557.79,690.848L1556.91,691.542L1555.99,692.27L1555.02,693.034L1552.95,694.653L1550.74,696.385L1548.4,698.215L1545.95,700.129L1543.41,702.11L1540.8,704.144L1538.14,706.216L1535.44,708.31L1532.73,710.411L1530.03,712.505L1527.36,714.576L1524.73,716.608L1522.17,718.587L1519.69,720.498L1517.32,722.324L1516.17,723.202L1515.07,724.053L1513.99,724.876L1512.96,725.669L1511.96,726.429L1511.01,727.156L1510.1,727.847L1509.24,728.5L1508.43,729.115L1507.67,729.688L1506.97,730.22L1506.32,730.707L1505.73,731.15L1505.19,731.547L1504.71,731.895L1504.49,732.058L1504.28,732.207L1504.09,732.347L1503.9,732.48L1503.71,732.608L1503.55,732.719L1502.73,733.267L1501.93,733.799L1500.34,734.869L1498.74,735.94L1497.15,737.015L1495.55,738.093L1493.96,739.173L1492.37,740.256L1490.78,741.341L1489.18,742.429L1487.59,743.519L1486,744.611L1484.4,745.705L1482.81,746.801L1481.22,747.898L1479.62,748.997L1478.03,750.097L1474.84,752.303L1471.65,754.511L1465.26,758.937L1462.06,761.152L1460.45,762.259L1458.85,763.366L1457.25,764.473L1455.64,765.58L1454.04,766.686L1452.43,767.791L1450.82,768.896L1449.21,769.999L1447.6,771.102L1445.98,772.203L1444.37,773.303L1442.75,774.401L1441.13,775.498L1439.51,776.593L1437.89,777.686L1436.27,778.777L1434.64,779.865L1433.83,780.41L1433.01,780.953L1432.2,781.495L1431.38,782.037L1430.57,782.578L1429.75,783.119L1428.93,783.658L1428.12,784.198L1427.3,784.736L1426.48,785.274L1425.66,785.811L1424.84,786.347L1424.02,786.882L1423.2,787.417L1422.38,787.951L1421.56,788.484L1420.73,789.016L1419.91,789.547L1419.09,790.078L1418.26,790.607L1417.43,791.136L1416.61,791.664L1415.78,792.19L1414.95,792.716L1414.13,793.241L1413.3,793.765L1412.47,794.288L1411.64,794.81L1410.81,795.33L1409.97,795.85L1409.14,796.369L1408.31,796.886L1407.48,797.403L1406.64,797.918L1405.8,798.432L1404.97,798.945L1404.13,799.457L1403.29,799.968L1402.45,800.477L1401.61,800.985L1400.77,801.492L1399.94,801.993L1399.32,802.367L1398.71,802.738L1398.1,803.112L1397.49,803.488L1396.88,803.867L1396.27,804.248L1395.66,804.631L1395.06,805.017L1394.45,805.405L1393.84,805.795L1393.24,806.187L1392.63,806.582L1392.03,806.978L1391.42,807.377L1390.82,807.777L1390.22,808.18L1389.62,808.585L1389.01,808.991L1388.41,809.4L1387.81,809.81L1387.21,810.222L1386.61,810.636L1386.01,811.052L1385.41,811.47L1384.81,811.889L1384.21,812.309L1383.62,812.732L1383.02,813.156L1382.42,813.581L1381.82,814.008L1381.22,814.437L1380.63,814.866L1380.03,815.298L1379.43,815.73L1378.84,816.164L1378.24,816.599L1377.64,817.035L1377.05,817.473L1376.45,817.912L1375.86,818.351L1375.26,818.792L1374.66,819.234L1374.07,819.677L1373.48,820.12L1372.28,821.012L1371.09,821.906L1369.9,822.803L1368.7,823.702L1367.51,824.605L1366.32,825.509L1363.92,827.323L1361.53,829.142L1360.33,830.053L1360.12,830.211L1359.13,830.963L1357.92,831.874L1356.71,832.784L1355.51,833.694L1354.29,834.603L1353.08,835.509L1352.47,835.963L1351.86,836.416L1351.25,836.868L1350.64,837.32L1350.03,837.771L1349.42,838.221L1348.81,838.671L1348.2,839.12L1347.58,839.569L1346.97,840.016L1346.35,840.463L1345.73,840.91L1345.12,841.355L1344.5,841.799L1343.88,842.242L1343.26,842.685L1342.63,843.126L1342.01,843.566L1341.39,844.005L1340.76,844.443L1340.13,844.88L1339.51,845.315L1338.88,845.749L1338.25,846.182L1337.62,846.614L1336.99,847.044L1336.35,847.472L1335.72,847.9L1335.08,848.325L1334.44,848.749L1333.81,849.171L1333.17,849.592L1332.53,850.011L1331.88,850.428L1331.24,850.844L1330.59,851.258L1329.94,851.669L1329.3,852.079L1328.65,852.487L1328,852.893L1327.34,853.297L1326.69,853.699L1326.03,854.098L1325.37,854.496L1324.71,854.891L1324.05,855.284L1323.39,855.675L1322.72,856.063L1322.06,856.449L1321.39,856.829L1316.27,859.754L1311.16,862.681L1308.6,864.146L1306.04,865.612L1303.48,867.079L1300.92,868.548L1298.36,870.018L1295.8,871.491L1293.24,872.964L1290.67,874.44L1288.12,875.918L1285.56,877.397L1283,878.879L1280.44,880.363L1277.88,881.849L1275.33,883.338L1272.77,884.829L1270.22,886.323L1268.94,887.071L1267.66,887.819L1266.39,888.568L1265.11,889.318L1263.84,890.069L1262.57,890.82L1261.29,891.572L1260.02,892.325L1258.74,893.078L1257.47,893.833L1256.2,894.588L1254.93,895.344L1253.66,896.1L1252.38,896.858L1251.12,897.616L1249.85,898.375L1248.58,899.135L1247.31,899.896L1246.04,900.658L1244.77,901.42L1243.51,902.184L1242.24,902.948L1240.98,903.714L1239.71,904.48L1238.45,905.247L1237.18,906.015L1235.92,906.784L1234.66,907.554L1233.4,908.325L1232.14,909.097L1230.88,909.87L1229.62,910.645L1228.36,911.42L1227.1,912.196L1225.85,912.973L1224.59,913.751L1223.34,914.531L1222.08,915.311L1220.83,916.092L1219.58,916.875L1218.33,917.659L1217.08,918.444L1215.83,919.23L1214.58,920.017L1213.34,920.805L1212.09,921.595L1210.84,922.385L1209.6,923.177L1208.36,923.97L1207.11,924.765L1205.87,925.56L1204.63,926.357L1203.39,927.155L1202.16,927.954L1200.92,928.755L1199.69,929.557L1198.45,930.36L1197.22,931.164L1195.99,931.97L1194.76,932.777L1193.53,933.586L1193.25,933.766L1192.3,934.395L1191.07,935.206L1189.85,936.018L1188.62,936.832L1187.4,937.646L1186.17,938.463L1184.95,939.28L1183.74,940.1L1182.52,940.92L1181.3,941.742L1180.09,942.566L1178.87,943.391L1177.66,944.217L1176.45,945.045L1175.24,945.875L1174.03,946.706L1172.82,947.539L1171.62,948.373L1170.41,949.208L1169.21,950.046L1168.01,950.884L1166.81,951.725L1165.61,952.567L1164.42,953.411L1163.22,954.256L1162.03,955.103L1160.83,955.957L1160.34,956.306L1159.84,956.66L1159.33,957.013L1158.83,957.364L1158.32,957.714L1157.82,958.062L1157.31,958.41L1156.8,958.756L1156.28,959.101L1155.77,959.444L1155.25,959.787L1154.74,960.128L1154.22,960.468L1153.7,960.806L1153.18,961.144L1152.65,961.48L1152.13,961.815L1151.6,962.149L1151.08,962.482L1150.55,962.814L1150.02,963.144L1149.49,963.474L1148.96,963.802L1148.42,964.129L1147.89,964.456L1147.36,964.781L1146.82,965.105L1146.28,965.428L1145.74,965.75L1145.2,966.07L1144.66,966.39L1144.12,966.709L1143.58,967.027L1143.04,967.344L1142.49,967.66L1141.95,967.974L1141.4,968.288L1140.86,968.601L1140.31,968.913L1139.76,969.224L1139.21,969.534L1138.66,969.843L1138.11,970.152L1137.56,970.459L1137.01,970.765L1136.45,971.071L1135.9,971.375L1135.35,971.679L1134.79,971.982L1134.24,972.284L1133.68,972.585L1133.13,972.886L1132.57,973.185L1132.01,973.484L1131.46,973.782L1130.9,974.079L1130.34,974.375L1129.78,974.671L1129.23,974.965L1128.67,975.259L1128.11,975.552L1127.55,975.846L1126.43,976.427L1125.31,977.007L1124.19,977.584L1123.07,978.158L1121.95,978.729L1120.83,979.298L1119.71,979.863L1118.59,980.427L1117.47,980.988L1116.35,981.546L1115.23,982.102L1114.12,982.656L1113,983.208L1111.89,983.757L1110.78,984.304L1109.67,984.849L1108.57,985.393L1106.37,986.473L1104.17,987.545L1102,988.611L1099.84,989.671L1097.69,990.724L1096.62,991.248L1095.56,991.771L1094.51,992.293L1093.46,992.813L1092.41,993.332L1091.38,993.848L1090.83,994.124L1090.29,994.399L1089.75,994.677L1089.2,994.958L1088.66,995.24L1088.12,995.526L1087.59,995.813L1087.05,996.103L1086.51,996.395L1085.98,996.689L1085.44,996.985L1084.91,997.284L1084.37,997.585L1083.84,997.888L1083.31,998.192L1082.78,998.499L1082.25,998.808L1081.72,999.119L1081.19,999.432L1080.66,999.747L1080.14,1000.06L1079.61,1000.38L1079.08,1000.7L1078.56,1001.03L1078.03,1001.35L1077.51,1001.68L1076.99,1002L1076.46,1002.33L1075.94,1002.66L1075.42,1003L1074.9,1003.33L1074.38,1003.67L1073.86,1004L1073.34,1004.34L1072.82,1004.68L1072.4,1004.96L1072.3,1005.02L1071.78,1005.37L1071.26,1005.71L1070.74,1006.05L1070.22,1006.4L1069.7,1006.74L1069.18,1007.09L1068.66,1007.44L1068.14,1007.79L1067.63,1008.14L1067.11,1008.49L1066.59,1008.85L1066.08,1009.2L1065.56,1009.56L1065.04,1009.92L1064.53,1010.27L1064.01,1010.63L1063.5,1010.99L1062.98,1011.35L1061.95,1012.08L1060.92,1012.8L1059.89,1013.53L1058.86,1014.26L1057.83,1015L1056.79,1015.74L1055.76,1016.48L1054.73,1017.22L1053.7,1017.96L1052.73,1018.65L1051.63,1019.44L1049.55,1020.92L1048.51,1021.67L1047.47,1022.41L1046.43,1023.15L1045.38,1023.89L1044.34,1024.63L1043.29,1025.37L1042.24,1026.1L1041.71,1026.47L1041.18,1026.84L1040.66,1027.2L1040.13,1027.57L1039.6,1027.93L1039.07,1028.3L1038.54,1028.66L1038.01,1029.03L1037.48,1029.39L1036.94,1029.75L1036.41,1030.11L1035.88,1030.47L1035.34,1030.83L1034.8,1031.18L1034.27,1031.54L1033.73,1031.9L1033.19,1032.25L1032.65,1032.61L1032.11,1032.96L1031.57,1033.31L1031.03,1033.66L1030.48,1034.01L1029.94,1034.36L1029.39,1034.7L1028.84,1035.05L1028.3,1035.39L1027.75,1035.73L1027.2,1036.08L1026.65,1036.41L1026.09,1036.75L1025.54,1037.09L1024.99,1037.42L1024.43,1037.76L1023.87,1038.09L1023.51,1038.3L1023.05,1038.57L1022.21,1039.06L1021.37,1039.55L1020.52,1040.04L1019.67,1040.54L1018.82,1041.03L1017.95,1041.52L1017.08,1042.02L1016.21,1042.52L1015.34,1043.02L1013.57,1044.02L1011.8,1045.03L1010.01,1046.05L1008.21,1047.07L1007.32,1047.58L1006.42,1048.1L1005.51,1048.62L1004.61,1049.13L1003.71,1049.65L1002.81,1050.18L1001.92,1050.7L1001.02,1051.23L1000.12,1051.75L999.227,1052.28L998.335,1052.81L997.444,1053.35L997.002,1053.61L996.56,1053.88L996.118,1054.15L995.677,1054.41L995.237,1054.68L994.798,1054.95L994.36,1055.22L993.923,1055.49L993.487,1055.76L993.053,1056.03L992.619,1056.3L992.187,1056.57L991.757,1056.84L991.327,1057.11L990.899,1057.39L990.472,1057.66L990.047,1057.93L989.624,1058.2L989.201,1058.48L988.781,1058.75L988.362,1059.03L987.945,1059.3L987.53,1059.58L987.117,1059.85L986.705,1060.13L986.295,1060.4L985.887,1060.68L985.482,1060.96L985.078,1061.23L984.676,1061.51L984.277,1061.79L983.88,1062.07L983.484,1062.35L983.092,1062.62L982.701,1062.9L982.313,1063.18L981.927,1063.46L981.544,1063.74L981.163,1064.02L980.785,1064.3L980.657,1064.4L980.405,1064.58L980.026,1064.85L979.649,1065.12L979.275,1065.39L978.903,1065.67L978.535,1065.94L978.169,1066.21L977.807,1066.49L977.447,1066.76L977.09,1067.04L976.737,1067.31L976.386,1067.59L976.039,1067.86L975.695,1068.14L975.354,1068.41L975.017,1068.69L974.683,1068.97L974.352,1069.24L974.025,1069.52L973.701,1069.8L973.381,1070.07L973.064,1070.35L972.751,1070.63L972.442,1070.91L972.136,1071.18L971.848,1071.45L971.829,1071.45L971.419,1071.62L971.015,1071.82L971.006,1071.82L966.101,1072.97L963.958,1072.67L962.409,1071.8L962.395,1071.78L961.49,1070.19L961.191,1068.03L962.426,1063.19L962.43,1063.18L962.659,1062.75L962.888,1062.28L962.899,1062.26L963.227,1061.93L963.574,1061.58L963.924,1061.24L964.277,1060.89L964.633,1060.55L964.992,1060.21L965.353,1059.86L965.717,1059.52L966.084,1059.18L966.453,1058.85L966.825,1058.51L967.199,1058.17L967.576,1057.84L967.956,1057.5L968.337,1057.17L968.722,1056.83L969.108,1056.5L969.497,1056.17L969.888,1055.84L970.281,1055.51L970.676,1055.18L971.074,1054.86L971.473,1054.53L971.875,1054.2L972.278,1053.88L972.545,1053.66L972.686,1053.56L973.1,1053.24L973.516,1052.93L973.934,1052.61L974.353,1052.3L974.774,1051.99L975.197,1051.68L975.622,1051.37L976.049,1051.06L976.476,1050.76L976.906,1050.45L977.337,1050.14L977.769,1049.84L978.203,1049.54L978.639,1049.23L979.075,1048.93L979.513,1048.63L979.952,1048.33L980.393,1048.03L980.835,1047.73L981.277,1047.43L981.721,1047.13L982.166,1046.84L982.612,1046.54L983.059,1046.25L983.507,1045.95L983.956,1045.66L984.405,1045.37L984.856,1045.08L985.307,1044.78L985.759,1044.49L986.211,1044.2L986.664,1043.91L987.118,1043.63L987.573,1043.34L988.028,1043.05L988.483,1042.77L988.939,1042.48L989.395,1042.2L989.851,1041.91L990.31,1041.63L991.222,1041.07L992.138,1040.51L993.053,1039.95L993.968,1039.39L994.883,1038.84L995.798,1038.29L996.711,1037.75L997.623,1037.2L998.533,1036.66L999.441,1036.13L1000.35,1035.59L1001.25,1035.06L1003.05,1034L1004.83,1032.96L1006.59,1031.93L1008.33,1030.9L1009.19,1030.4L1010.04,1029.89L1010.89,1029.39L1011.73,1028.9L1012.56,1028.4L1013.39,1027.91L1014.21,1027.42L1015.01,1026.93L1015.81,1026.45L1016.25,1026.18L1016.6,1025.97L1017.12,1025.66L1017.63,1025.34L1018.14,1025.02L1018.65,1024.7L1019.17,1024.38L1019.68,1024.06L1020.19,1023.73L1020.7,1023.4L1021.21,1023.08L1021.72,1022.75L1022.23,1022.41L1022.74,1022.08L1023.25,1021.74L1023.76,1021.4L1024.27,1021.07L1024.78,1020.72L1025.29,1020.38L1025.8,1020.04L1026.31,1019.69L1026.81,1019.35L1027.32,1019L1027.83,1018.65L1028.34,1018.3L1028.84,1017.94L1029.35,1017.59L1029.86,1017.24L1030.37,1016.88L1030.87,1016.52L1031.38,1016.16L1031.89,1015.8L1032.4,1015.44L1032.9,1015.08L1033.41,1014.72L1033.92,1014.36L1034.93,1013.62L1035.95,1012.89L1036.97,1012.15L1037.98,1011.41L1039,1010.67L1040.02,1009.92L1041.04,1009.17L1043.09,1007.67L1044.18,1006.87L1045.14,1006.16L1046.17,1005.41L1047.2,1004.65L1048.24,1003.89L1049.28,1003.14L1050.32,1002.38L1051.36,1001.63L1052.41,1000.87L1053.45,1000.12L1054.5,999.368L1055.03,998.991L1055.56,998.615L1056.09,998.24L1056.62,997.866L1057.15,997.492L1057.68,997.118L1058.21,996.745L1058.75,996.373L1059.28,996.001L1059.82,995.63L1060.36,995.26L1060.89,994.89L1061.43,994.521L1061.97,994.153L1062.51,993.786L1063.06,993.42L1063.6,993.054L1064.14,992.69L1064.25,992.617L1064.69,992.328L1065.24,991.968L1065.79,991.609L1066.34,991.251L1066.89,990.894L1067.44,990.539L1068,990.184L1068.56,989.831L1069.11,989.479L1069.67,989.129L1070.23,988.78L1070.79,988.432L1071.36,988.085L1071.92,987.741L1072.49,987.397L1073.06,987.055L1073.62,986.715L1074.19,986.377L1074.77,986.04L1075.34,985.704L1075.92,985.371L1076.49,985.039L1077.07,984.709L1077.65,984.381L1078.23,984.055L1078.82,983.731L1079.4,983.409L1079.99,983.088L1080.58,982.77L1081.17,982.454L1081.76,982.14L1082.36,981.828L1082.95,981.519L1083.55,981.211L1084.15,980.906L1084.75,980.606L1085.81,980.075L1086.87,979.547L1087.93,979.019L1089,978.49L1090.07,977.96L1091.14,977.429L1093.3,976.368L1095.47,975.302L1097.65,974.233L1099.83,973.16L1102.03,972.082L1103.12,971.542L1104.22,971L1105.32,970.457L1106.42,969.912L1107.52,969.366L1108.62,968.819L1109.72,968.27L1110.82,967.719L1111.92,967.167L1113.02,966.612L1114.11,966.057L1115.21,965.499L1116.31,964.939L1117.4,964.378L1118.49,963.814L1119.58,963.249L1120.67,962.68L1121.21,962.397L1121.75,962.112L1122.29,961.826L1122.84,961.54L1123.38,961.253L1123.91,960.966L1124.45,960.678L1124.99,960.389L1125.53,960.1L1126.07,959.811L1126.6,959.521L1127.14,959.23L1127.67,958.939L1128.2,958.647L1128.73,958.354L1129.27,958.061L1129.8,957.767L1130.32,957.473L1130.85,957.178L1131.38,956.882L1131.9,956.586L1132.43,956.289L1132.95,955.991L1133.48,955.693L1134,955.394L1134.52,955.094L1135.03,954.794L1135.55,954.493L1136.07,954.192L1136.58,953.889L1137.1,953.586L1137.61,953.283L1138.12,952.978L1138.63,952.673L1139.13,952.367L1139.64,952.061L1140.14,951.754L1140.65,951.446L1141.15,951.137L1141.65,950.828L1142.15,950.518L1142.64,950.207L1143.14,949.896L1143.63,949.583L1144.12,949.27L1144.61,948.957L1145.1,948.642L1145.58,948.327L1146.07,948.011L1146.55,947.694L1147.03,947.376L1147.51,947.058L1147.99,946.739L1148.46,946.419L1148.93,946.099L1149.4,945.777L1149.87,945.455L1150.34,945.132L1150.8,944.808L1151.26,944.484L1151.72,944.158L1152.19,943.827L1153.39,942.969L1154.6,942.107L1155.81,941.247L1157.03,940.389L1158.24,939.533L1159.46,938.678L1160.68,937.826L1161.9,936.974L1163.12,936.125L1164.34,935.277L1165.56,934.431L1166.79,933.587L1168.02,932.744L1169.24,931.903L1170.47,931.064L1171.7,930.226L1172.93,929.389L1174.16,928.555L1175.4,927.722L1176.63,926.89L1177.87,926.06L1179.11,925.232L1180.35,924.405L1181.59,923.58L1182.83,922.756L1184.07,921.934L1185.03,921.296L1185.31,921.113L1186.56,920.294L1187.8,919.477L1189.05,918.661L1190.3,917.846L1191.54,917.033L1192.79,916.221L1194.04,915.411L1195.3,914.602L1196.55,913.795L1197.8,912.989L1199.06,912.184L1200.31,911.38L1201.57,910.578L1202.83,909.778L1204.08,908.978L1205.34,908.18L1206.6,907.383L1207.86,906.588L1209.12,905.793L1210.39,905L1211.65,904.208L1212.91,903.418L1214.18,902.628L1215.44,901.84L1216.71,901.053L1217.98,900.267L1219.25,899.483L1220.51,898.699L1221.78,897.917L1223.05,897.135L1224.32,896.355L1225.59,895.576L1226.86,894.798L1228.14,894.022L1229.41,893.246L1230.68,892.471L1231.96,891.697L1233.23,890.925L1234.51,890.153L1235.78,889.383L1237.06,888.613L1238.33,887.845L1239.61,887.077L1240.89,886.31L1242.16,885.545L1243.44,884.78L1244.72,884.016L1246,883.253L1247.28,882.491L1248.56,881.73L1249.84,880.97L1251.12,880.211L1252.4,879.452L1253.68,878.695L1254.96,877.938L1256.25,877.182L1257.53,876.427L1258.81,875.672L1260.09,874.919L1261.37,874.166L1262.66,873.414L1265.22,871.912L1267.79,870.414L1270.36,868.918L1272.92,867.425L1275.49,865.934L1278.06,864.446L1280.63,862.96L1283.19,861.477L1285.76,859.996L1288.33,858.518L1290.9,857.041L1293.46,855.566L1296.03,854.094L1298.59,852.623L1301.16,851.153L1303.72,849.686L1308.84,846.755L1313.95,843.834L1314.58,843.475L1315.19,843.118L1315.81,842.758L1316.42,842.396L1317.04,842.031L1317.65,841.663L1318.26,841.293L1318.88,840.92L1319.49,840.545L1320.1,840.168L1320.71,839.788L1321.32,839.405L1321.92,839.021L1322.53,838.634L1323.14,838.245L1323.74,837.854L1324.35,837.46L1324.95,837.065L1325.56,836.667L1326.16,836.267L1326.77,835.866L1327.37,835.462L1327.97,835.056L1328.57,834.649L1329.18,834.239L1329.78,833.828L1330.38,833.415L1330.98,833L1331.58,832.583L1332.18,832.165L1332.78,831.745L1333.38,831.323L1333.97,830.9L1334.57,830.475L1335.17,830.049L1335.77,829.621L1336.37,829.192L1336.96,828.762L1337.56,828.33L1338.16,827.897L1338.75,827.462L1339.35,827.026L1339.95,826.589L1340.54,826.151L1341.14,825.712L1341.73,825.272L1342.33,824.83L1342.93,824.388L1343.52,823.944L1344.12,823.501L1345.31,822.608L1346.5,821.714L1347.69,820.816L1348.89,819.915L1350.08,819.013L1351.07,818.265L1351.28,818.108L1352.47,817.201L1354.87,815.383L1357.27,813.564L1358.47,812.653L1359.67,811.742L1360.88,810.832L1362.09,809.922L1363.3,809.014L1364.51,808.108L1365.12,807.654L1365.73,807.202L1366.34,806.75L1366.95,806.298L1367.56,805.847L1368.17,805.397L1368.79,804.947L1369.4,804.499L1370.01,804.05L1370.63,803.603L1371.25,803.157L1371.86,802.711L1372.48,802.266L1373.1,801.822L1373.72,801.379L1374.34,800.938L1374.96,800.497L1375.58,800.057L1376.21,799.619L1376.83,799.181L1377.46,798.745L1378.09,798.31L1378.71,797.877L1379.35,797.444L1379.98,797.014L1380.61,796.584L1381.24,796.156L1381.88,795.73L1382.51,795.305L1383.15,794.882L1383.79,794.46L1384.43,794.04L1385.07,793.622L1385.71,793.206L1386.36,792.791L1387,792.378L1387.65,791.967L1388.3,791.559L1388.95,791.152L1389.6,790.747L1390.25,790.344L1390.91,789.943L1391.56,789.544L1392.21,789.153L1393.04,788.654L1393.87,788.159L1394.68,787.663L1395.51,787.165L1396.32,786.666L1397.14,786.166L1397.96,785.664L1398.78,785.161L1399.6,784.657L1400.41,784.151L1401.23,783.644L1402.04,783.136L1402.86,782.627L1403.67,782.117L1404.49,781.605L1405.3,781.093L1406.11,780.579L1406.93,780.064L1407.74,779.548L1408.55,779.031L1409.36,778.512L1410.17,777.993L1410.98,777.473L1411.79,776.951L1412.6,776.429L1413.41,775.906L1414.22,775.381L1415.03,774.856L1415.84,774.33L1416.65,773.803L1417.45,773.275L1418.26,772.746L1419.07,772.216L1419.87,771.685L1420.68,771.154L1421.49,770.621L1422.29,770.088L1423.1,769.554L1423.9,769.019L1424.71,768.484L1425.51,767.947L1426.31,767.411L1427.92,766.334L1429.53,765.255L1431.13,764.173L1432.74,763.089L1434.34,762.003L1435.94,760.914L1437.54,759.823L1439.14,758.731L1440.75,757.636L1442.35,756.54L1443.94,755.442L1445.54,754.343L1447.14,753.242L1448.74,752.141L1450.34,751.038L1451.94,749.934L1453.53,748.83L1456.73,746.619L1463.12,742.194L1466.32,739.981L1469.52,737.771L1471.12,736.667L1472.71,735.563L1474.32,734.46L1475.92,733.359L1477.52,732.258L1479.12,731.159L1480.73,730.062L1482.33,728.966L1483.94,727.871L1485.55,726.779L1487.16,725.689L1488.77,724.6L1490.38,723.514L1491.99,722.431L1493.6,721.35L1494.41,720.81L1495.19,720.287L1495.25,720.249L1495.32,720.201L1495.42,720.128L1495.55,720.034L1495.71,719.922L1495.88,719.796L1496.3,719.488L1496.79,719.126L1497.35,718.71L1497.97,718.244L1498.65,717.73L1499.39,717.171L1500.19,716.569L1501.03,715.926L1501.93,715.244L1502.87,714.525L1503.86,713.772L1504.88,712.986L1505.95,712.169L1507.05,711.323L1508.19,710.451L1510.55,708.632L1513.02,706.728L1515.57,704.756L1518.19,702.73L1520.86,700.665L1523.55,698.577L1526.26,696.481L1528.94,694.392L1531.6,692.326L1534.2,690.298L1536.74,688.322L1539.18,686.415L1541.51,684.592L1543.71,682.868L1545.76,681.257L1546.73,680.501L1547.64,679.778L1548.51,679.092L1549.33,678.445L1550.1,677.838L1550.81,677.273L1551.46,676.754L1551.72,676.55L1552.06,676.282L1552.58,675.859L1553.04,675.49L1553.43,675.178L1553.74,674.923L1553.85,674.829L1553.94,674.753L1554,674.702L1554.02,674.685L1554.05,674.661L1554.03,674.674L1554.06,674.649L1554.02,674.684L1553.93,674.765L1553.77,674.927L1553.55,675.154L1553.13,675.661L1553.12,675.691L1555.24,673.762L1557.93,672.762L1560.88,672.873ZM1552.51,676.647L1551.86,678.352L1553.11,675.709L1552.51,676.647Z" style="fill:rgb(0,255,0);"/>
                    </g>
                    <g>
                        <g transform="matrix(1,0,0,1,4.91122,-11.4467)">
                            <path d="M618.234,968.683C618.904,968.013 620.275,966.379 620.604,965.721C624.936,957.058 596.797,979.766 614.087,984.089C626.469,987.184 644.43,969.12 627.122,963.35C618.487,960.472 602.289,975.872 608.162,984.681C616.51,997.204 636.728,985.166 631.27,976.978C630.1,975.223 625.787,974.829 624.16,974.016C622.169,973.021 620.752,970.831 618.827,969.868C615.364,968.137 609.405,982.992 611.717,986.459C616.362,993.427 633.954,980.36 630.085,975.201C624.272,967.45 617.128,989.935 624.16,982.904" style="fill:none;stroke:rgb(0,255,0);stroke-width:14.72px;stroke-dasharray:0,0.74,0,0;"/>
                        </g>
                        <g transform="matrix(6.7947,0,0,6.7947,-127.496,-129.276)">
                            <text x="96.23px" y="151.784px" style="font-family:'Boogaloo-Regular', 'Boogaloo', cursive;font-size:14.717px;fill:rgb(0,255,0);">React</text>
                        </g>
                    </g>
                    <g>
                        <g transform="matrix(1,0,0,1,85.908,-21.8449)">
                            <path d="M1003.22,885.929C1010.58,878.566 988.706,883.94 993.563,893.654C997.329,901.187 1012.23,893.721 1007.47,885.157C1006.59,883.581 1005.39,880.255 1003.61,879.363C1003.11,879.116 1002.58,879.97 1002.45,880.136C999.927,883.159 993.234,892.538 997.812,895.972C1000.42,897.929 1011.72,893.278 1009.4,890.178C1008.23,888.624 998.831,880.434 996.653,882.067C994.774,883.476 988.997,893.178 990.859,895.972C992.957,899.118 1000.49,902.943 1003.99,900.607C1006.64,898.84 1005.48,894.402 1005.92,891.723C1006.1,890.638 1007.52,887.97 1007.08,887.088C1004.77,882.476 1000.9,888.013 1000.9,890.564" style="fill:none;stroke:rgb(0,255,0);stroke-width:14.72px;stroke-dasharray:0,0.74,0,0;"/>
                        </g>
                        <g transform="matrix(6.7947,0,0,6.7947,370.61,-220.953)">
                            <text x="96.23px" y="151.784px" style="font-family:'Boogaloo-Regular', 'Boogaloo', cursive;font-size:14.717px;fill:rgb(0,255,0);">V<tspan x="102.691px " y="151.784px ">u</tspan>e</text>
                        </g>
                    </g>
                    <g>
                        <g transform="matrix(1,0,0,1,-3.537,-53.6403)">
                            <path d="M891.98,722.547C891.98,714.816 875.065,735.679 889.662,735.679C891.817,735.679 894.085,735.874 896.229,735.679C898.309,735.49 900.893,734.491 902.409,732.975C905.462,729.922 900.24,725.682 898.546,723.705C898.414,723.552 895.88,719.419 895.456,719.843C893.795,721.504 892.16,724.7 891.207,726.795C890.635,728.055 889.555,730.335 890.049,731.817C891.508,736.194 908.369,729.725 907.43,724.092C906.714,719.797 888.466,715.937 887.731,722.547C887.135,727.917 907.497,732.17 902.409,725.25C892.492,711.764 887.053,732.91 888.89,734.134C889.922,734.822 900.213,735.923 898.932,733.362C897.191,729.88 883.376,734.8 890.049,741.473C892.947,744.371 900.222,739.286 900.091,739.155C899.636,738.7 898.791,739.029 898.16,739.155C891.546,740.478 899.028,746.849 901.25,746.108C902.594,745.66 903.77,743.974 904.726,743.018C906.282,741.462 904.598,741.212 905.112,739.155C905.2,738.803 907.408,735.475 907.044,735.293C907.002,735.272 904.726,735.89 904.726,735.679C904.726,735.008 907.773,734.048 908.202,734.907C910.634,739.77 898.822,749.29 893.911,747.653C892.646,747.231 893.039,743.304 891.98,742.245C890.886,741.152 888.866,741.425 888.117,739.928C885.891,735.474 891.437,730.324 895.07,729.113C895.327,729.027 904.523,728.137 902.795,726.409C902.192,725.806 899.116,726.501 898.16,726.023C897.202,725.544 897.525,723.623 896.615,723.319C889.098,720.814 882.96,731.591 881.551,737.224C880.342,742.062 887.663,748.274 891.594,749.584C894.126,750.428 897.797,749.084 899.705,747.653C904.332,744.182 907.733,743.738 909.361,737.224C911.031,730.544 902.734,722.384 896.229,725.637" style="fill:none;stroke:rgb(0,255,0);stroke-width:14.72px;stroke-dasharray:0,0.74,0,0;"/>
                        </g>
                        <g transform="matrix(6.7947,0,0,6.7947,103.21,-435.171)">
                            <text x="96.23px" y="151.784px" style="font-family:'Boogaloo-Regular', 'Boogaloo', cursive;font-size:14.717px;fill:rgb(0,255,0);">Angular</text>
                        </g>
                    </g>
                </g>
                <g transform="matrix(1,0,0,1,48.0373,38.4552)">
                    <g transform="matrix(6.7947,0,0,6.7947,-586.383,-871.966)">
                        <text x="96.23px" y="151.784px" style="font-family:'Boogaloo-Regular', 'Boogaloo', cursive;font-size:14.717px;fill:white;">jQuer<tspan x="123.898px " y="151.784px ">y</tspan></text>
                    </g>
                    <g transform="matrix(6.7947,0,0,6.7947,-231.126,-796.441)">
                        <text x="96.23px" y="151.784px" style="font-family:'Boogaloo-Regular', 'Boogaloo', cursive;font-size:14.717px;fill:white;">Prototype</text>
                    </g>
                    <g transform="matrix(6.7947,0,0,6.7947,-555.861,-582.984)">
                        <text x="96.23px" y="151.784px" style="font-family:'Boogaloo-Regular', 'Boogaloo', cursive;font-size:14.717px;fill:white;">Flash/Flex</text>
                    </g>
                    <g transform="matrix(6.7947,0,0,6.7947,264.085,-750.577)">
                        <text x="96.23px" y="151.784px" style="font-family:'Boogaloo-Regular', 'Boogaloo', cursive;font-size:14.717px;fill:white;">Mootoools</text>
                    </g>
                    <g transform="matrix(6.7947,0,0,6.7947,242.247,-931.326)">
                        <text x="96.23px" y="151.784px" style="font-family:'Boogaloo-Regular', 'Boogaloo', cursive;font-size:14.717px;fill:white;">GWT</text>
                    </g>
                    <g transform="matrix(6.7947,0,0,6.7947,681.222,-643.3)">
                        <text x="96.23px" y="151.784px" style="font-family:'Boogaloo-Regular', 'Boogaloo', cursive;font-size:14.717px;fill:white;">Backbone</text>
                    </g>
                    <g transform="matrix(6.7947,0,0,6.7947,775.006,-872.961)">
                        <text x="96.23px" y="151.784px" style="font-family:'Boogaloo-Regular', 'Boogaloo', cursive;font-size:14.717px;fill:white;">angular<tspan x="132.788px " y="151.784px ">.</tspan>js</text>
                    </g>
                </g>
            </g>
        </g>
    </g>
</svg>
