<?xml version="1.0" encoding="UTF-8" standalone="no"?>
<!DOCTYPE svg PUBLIC "-//W3C//DTD SVG 1.1//EN" "http://www.w3.org/Graphics/SVG/1.1/DTD/svg11.dtd">
<svg width="100%" height="100%" viewBox="0 0 1921 1081" version="1.1" xmlns="http://www.w3.org/2000/svg" xmlns:xlink="http://www.w3.org/1999/xlink" xml:space="preserve" xmlns:serif="http://www.serif.com/" style="fill-rule:evenodd;clip-rule:evenodd;stroke-linejoin:round;stroke-miterlimit:1.41421;">
    <g transform="matrix(1,0,0,1,-2037,-9786)">
        <g id="silos-colors" transform="matrix(1,0,0,1,-3872.22,9786.45)">
            <rect x="5910" y="0" width="1920" height="1080" style="fill:white;"/>
            <clipPath id="_clip1">
                <rect x="5910" y="0" width="1920" height="1080"/>
            </clipPath>
            <g clip-path="url(#_clip1)">
                <g>
                    <g transform="matrix(1,0,0,1,3915.17,-3864.26)">
                        <rect x="2156.76" y="4024.2" width="468.304" height="983.438" style="fill:rgb(197,32,51);"/>
                        <path d="M2626.59,4015.56L2628.07,4015.96L2629.45,4016.61L2630.7,4017.48L2631.78,4018.56L2632.66,4019.82L2633.31,4021.2L2633.7,4022.68L2633.84,4024.2L2635.18,4196.01L2636.18,4329.72L2636.48,4384.87L2636.51,4423.23L2635.85,4512.83L2634.81,4617.89L2632.64,4859.67L2631.83,5007.64L2631.71,5008.81L2631.39,5009.94L2630.88,5011L2630.2,5011.95L2629.37,5012.77L2629.36,5012.77L2628.4,5013.42L2627.34,5013.9L2626.22,5014.19L2625.07,5014.27L2538.12,5013.96L2404.8,5013.71L2340.49,5013.65L2278.38,5013.63L2214.15,5013.64L2156.76,5013.67L2155.71,5013.59L2154.7,5013.31L2154.21,5013.09L2153.74,5012.87L2152.88,5012.27L2152.13,5011.53L2152.13,5011.53L2151.52,5010.67L2151.07,5009.71L2150.79,5008.69L2150.7,5007.64L2150.52,4897.84L2150.11,4764.58L2149.46,4631.42L2147.71,4375.46L2147.02,4257.68L2146.83,4202.44L2146.79,4150.05L2147.12,4077.42L2147.58,4024.2L2147.75,4022.61L2148.19,4021.08L2148.89,4019.66L2149.82,4018.38L2150.94,4017.27L2150.95,4017.28L2152.26,4016.4L2153.69,4015.76L2155.2,4015.38L2156.76,4015.27L2160.68,4015.3L2351.01,4017.06L2621.7,4018.34L2625.07,4018.35L2625.07,4015.43L2626.59,4015.56ZM2363.36,4031.34L2183.3,4033.1L2183.44,4033.24L2165.81,4033.26L2165.94,4033.38L2166.4,4098.62L2166.73,4167.99L2166.69,4217.81L2166.5,4270.26L2165.81,4382.16L2164.06,4626.5L2163.41,4754.19L2163,4882.13L2162.81,4882.28L2162.81,5001.59L2162.8,5001.6L2168.89,5001.6L2168.89,5001.61L2229.16,5001.64L2288,5001.65L2344.92,5001.63L2403.84,5001.57L2525.82,5001.32L2525.6,5000.95L2618.37,5000.95L2618.3,5000.88L2617.49,4841.09L2615.32,4603.39L2614.28,4500.39L2613.62,4412.81L2613.65,4375.46L2613.95,4321.84L2614.95,4191.76L2616.24,4030.09L2363.36,4031.34Z"/>
                    </g>
                    <g transform="matrix(1,0,0,1,0.598901,71.125)">
                        <g transform="matrix(1,0,0,1,3934.76,-3861.66)">
                            <path d="M2207.46,4480.86L2295.74,4480.86" style="fill:rgb(197,32,51);"/>
                            <path d="M2298.07,4475.33L2299.98,4476.62L2301.27,4478.53L2301.74,4480.85L2301.74,4480.87L2301.27,4483.19L2299.98,4485.09L2298.07,4486.38L2295.75,4486.86L2207.45,4486.86L2205.13,4486.38L2203.23,4485.09L2201.94,4483.19L2201.46,4480.87L2201.46,4480.85L2201.94,4478.53L2203.23,4476.62L2205.13,4475.33L2207.45,4474.86L2295.75,4474.86L2298.07,4475.33Z" style="fill:white;"/>
                        </g>
                        <g transform="matrix(1.30482,0,0,1.30482,3264.4,-5240.51)">
                            <circle cx="2205.24" cy="4490.89" r="16.529" style="fill:white;"/>
                        </g>
                    </g>
                </g>
                <g>
                    <g transform="matrix(1,0,0,1,4479.09,-3864.26)">
                        <rect x="2156.76" y="4024.2" width="468.304" height="983.438" style="fill:rgb(0,216,255);"/>
                        <path d="M2626.59,4015.56L2628.07,4015.96L2629.45,4016.61L2630.7,4017.48L2631.78,4018.56L2632.66,4019.82L2633.31,4021.2L2633.7,4022.68L2633.84,4024.2L2635.18,4196.01L2636.18,4329.72L2636.48,4384.87L2636.51,4423.23L2635.85,4512.83L2634.81,4617.89L2632.64,4859.67L2631.83,5007.64L2631.71,5008.81L2631.39,5009.94L2630.88,5011L2630.2,5011.95L2629.37,5012.77L2629.36,5012.77L2628.4,5013.42L2627.34,5013.9L2626.22,5014.19L2625.07,5014.27L2538.12,5013.96L2404.8,5013.71L2340.49,5013.65L2278.38,5013.63L2214.15,5013.64L2156.76,5013.67L2155.71,5013.59L2154.7,5013.31L2154.21,5013.09L2153.74,5012.87L2152.88,5012.27L2152.13,5011.53L2152.13,5011.53L2151.52,5010.67L2151.07,5009.71L2150.79,5008.69L2150.7,5007.64L2150.52,4897.84L2150.11,4764.58L2149.46,4631.42L2147.71,4375.46L2147.02,4257.68L2146.83,4202.44L2146.79,4150.05L2147.12,4077.42L2147.58,4024.2L2147.75,4022.61L2148.19,4021.08L2148.89,4019.66L2149.82,4018.38L2150.94,4017.27L2150.95,4017.28L2152.26,4016.4L2153.69,4015.76L2155.2,4015.38L2156.76,4015.27L2160.68,4015.3L2351.01,4017.06L2621.7,4018.34L2625.07,4018.35L2625.07,4015.43L2626.59,4015.56ZM2363.36,4031.34L2183.3,4033.1L2183.44,4033.24L2165.81,4033.26L2165.94,4033.38L2166.4,4098.62L2166.73,4167.99L2166.69,4217.81L2166.5,4270.26L2165.81,4382.16L2164.06,4626.5L2163.41,4754.19L2163,4882.13L2162.81,4882.28L2162.81,5001.59L2162.8,5001.6L2168.89,5001.6L2168.89,5001.61L2229.16,5001.64L2288,5001.65L2344.92,5001.63L2403.84,5001.57L2525.82,5001.32L2525.6,5000.95L2618.37,5000.95L2618.3,5000.88L2617.49,4841.09L2615.32,4603.39L2614.28,4500.39L2613.62,4412.81L2613.65,4375.46L2613.95,4321.84L2614.95,4191.76L2616.24,4030.09L2363.36,4031.34Z"/>
                    </g>
                    <g transform="matrix(1,0,0,1,564.515,71.125)">
                        <g transform="matrix(1,0,0,1,3934.76,-3861.66)">
                            <path d="M2207.46,4480.86L2295.74,4480.86" style="fill:rgb(0,216,255);"/>
                            <path d="M2298.07,4475.33L2299.98,4476.62L2301.27,4478.53L2301.74,4480.85L2301.74,4480.87L2301.27,4483.19L2299.98,4485.09L2298.07,4486.38L2295.75,4486.86L2207.45,4486.86L2205.13,4486.38L2203.23,4485.09L2201.94,4483.19L2201.46,4480.87L2201.46,4480.85L2201.94,4478.53L2203.23,4476.62L2205.13,4475.33L2207.45,4474.86L2295.75,4474.86L2298.07,4475.33Z"/>
                        </g>
                        <g transform="matrix(1.30482,0,0,1.30482,3264.4,-5240.51)">
                            <circle cx="2205.24" cy="4490.89" r="16.529"/>
                        </g>
                    </g>
                </g>
                <g>
                    <g transform="matrix(1,0,0,1,5043,-3864.26)">
                        <rect x="2156.76" y="4024.2" width="468.304" height="983.438" style="fill:rgb(60,184,132);"/>
                        <path d="M2626.59,4015.56L2628.07,4015.96L2629.45,4016.61L2630.7,4017.48L2631.78,4018.56L2632.66,4019.82L2633.31,4021.2L2633.7,4022.68L2633.84,4024.2L2635.18,4196.01L2636.18,4329.72L2636.48,4384.87L2636.51,4423.23L2635.85,4512.83L2634.81,4617.89L2632.64,4859.67L2631.83,5007.64L2631.71,5008.81L2631.39,5009.94L2630.88,5011L2630.2,5011.95L2629.37,5012.77L2629.36,5012.77L2628.4,5013.42L2627.34,5013.9L2626.22,5014.19L2625.07,5014.27L2538.12,5013.96L2404.8,5013.71L2340.49,5013.65L2278.38,5013.63L2214.15,5013.64L2156.76,5013.67L2155.71,5013.59L2154.7,5013.31L2154.21,5013.09L2153.74,5012.87L2152.88,5012.27L2152.13,5011.53L2152.13,5011.53L2151.52,5010.67L2151.07,5009.71L2150.79,5008.69L2150.7,5007.64L2150.52,4897.84L2150.11,4764.58L2149.46,4631.42L2147.71,4375.46L2147.02,4257.68L2146.83,4202.44L2146.79,4150.05L2147.12,4077.42L2147.58,4024.2L2147.75,4022.61L2148.19,4021.08L2148.89,4019.66L2149.82,4018.38L2150.94,4017.27L2150.95,4017.28L2152.26,4016.4L2153.69,4015.76L2155.2,4015.38L2156.76,4015.27L2160.68,4015.3L2351.01,4017.06L2621.7,4018.34L2625.07,4018.35L2625.07,4015.43L2626.59,4015.56ZM2363.36,4031.34L2183.3,4033.1L2183.44,4033.24L2165.81,4033.26L2165.94,4033.38L2166.4,4098.62L2166.73,4167.99L2166.69,4217.81L2166.5,4270.26L2165.81,4382.16L2164.06,4626.5L2163.41,4754.19L2163,4882.13L2162.81,4882.28L2162.81,5001.59L2162.8,5001.6L2168.89,5001.6L2168.89,5001.61L2229.16,5001.64L2288,5001.65L2344.92,5001.63L2403.84,5001.57L2525.82,5001.32L2525.6,5000.95L2618.37,5000.95L2618.3,5000.88L2617.49,4841.09L2615.32,4603.39L2614.28,4500.39L2613.62,4412.81L2613.65,4375.46L2613.95,4321.84L2614.95,4191.76L2616.24,4030.09L2363.36,4031.34Z"/>
                    </g>
                    <g transform="matrix(1,0,0,1,1128.43,71.125)">
                        <g transform="matrix(1,0,0,1,3934.76,-3861.66)">
                            <path d="M2207.46,4480.86L2295.74,4480.86" style="fill:rgb(197,32,51);"/>
                            <path d="M2298.07,4475.33L2299.98,4476.62L2301.27,4478.53L2301.74,4480.85L2301.74,4480.87L2301.27,4483.19L2299.98,4485.09L2298.07,4486.38L2295.75,4486.86L2207.45,4486.86L2205.13,4486.38L2203.23,4485.09L2201.94,4483.19L2201.46,4480.87L2201.46,4480.85L2201.94,4478.53L2203.23,4476.62L2205.13,4475.33L2207.45,4474.86L2295.75,4474.86L2298.07,4475.33Z" style="fill:white;"/>
                        </g>
                        <g transform="matrix(1.30482,0,0,1.30482,3264.4,-5240.51)">
                            <circle cx="2205.24" cy="4490.89" r="16.529" style="fill:white;"/>
                        </g>
                    </g>
                </g>
                <g transform="matrix(1,0,0,1,4006.86,-3861.66)">
                    <text x="2133.3px" y="4179.25px" style="font-family:'Boogaloo-Regular', 'Boogaloo', cursive;font-size:123px;fill:white;">Angular</text>
                </g>
                <g transform="matrix(1,0,0,1,4570.77,-3861.66)">
                    <text x="2180.53px" y="4179.25px" style="font-family:'Boogaloo-Regular', 'Boogaloo', cursive;font-size:123px;">React</text>
                </g>
                <g transform="matrix(1,0,0,1,5134.81,-3858.71)">
                    <text x="2223.4px" y="4179.25px" style="font-family:'Boogaloo-Regular', 'Boogaloo', cursive;font-size:123px;fill:white;">V<tspan x="2277.39px " y="4179.25px ">u</tspan>e</text>
                </g>
            </g>
        </g>
    </g>
</svg>
