<?xml version="1.0" encoding="UTF-8" standalone="no"?>
<!DOCTYPE svg PUBLIC "-//W3C//DTD SVG 1.1//EN" "http://www.w3.org/Graphics/SVG/1.1/DTD/svg11.dtd">
<svg width="100%" height="100%" viewBox="0 0 1921 1081" version="1.1" xmlns="http://www.w3.org/2000/svg" xmlns:xlink="http://www.w3.org/1999/xlink" xml:space="preserve" xmlns:serif="http://www.serif.com/" style="fill-rule:evenodd;clip-rule:evenodd;stroke-linejoin:round;stroke-miterlimit:1.41421;">
    <g transform="matrix(1,0,0,1,-6169,-1206)">
        <g id="silos" transform="matrix(1,0,0,1,259.987,1206.73)">
            <rect x="5910" y="0" width="1920" height="1080"/>
            <clipPath id="_clip1">
                <rect x="5910" y="0" width="1920" height="1080"/>
            </clipPath>
            <g clip-path="url(#_clip1)">
                <g>
                    <g transform="matrix(1,0,0,1,3915.17,-3864.26)">
                        <path d="M2626.74,4014.68L2628.37,4015.11L2629.9,4015.82L2631.28,4016.79L2632.48,4017.98L2633.44,4019.37L2634.16,4020.89L2634.59,4022.52L2634.74,4024.2L2634.74,5007.64L2634.59,5009.32L2634.16,5010.95L2633.44,5012.48L2632.48,5013.86L2631.28,5015.05L2629.9,5016.02L2628.37,5016.73L2626.74,5017.17L2625.07,5017.32L2156.76,5017.32L2155.08,5017.17L2153.45,5016.73L2151.92,5016.02L2150.54,5015.05L2149.35,5013.86L2148.38,5012.48L2147.67,5010.95L2147.23,5009.32L2147.09,5007.64L2147.09,4024.2L2147.23,4022.52L2147.67,4020.89L2148.38,4019.37L2149.35,4017.98L2150.54,4016.79L2151.92,4015.82L2153.45,4015.11L2155.08,4014.68L2156.76,4014.53L2625.07,4014.53L2626.74,4014.68ZM2166.44,4033.88L2166.44,4997.97L2615.39,4997.97L2615.39,4033.88L2166.44,4033.88Z" style="fill:white;"/>
                    </g>
                    <g transform="matrix(1,0,0,1,0.598901,71.125)">
                        <g transform="matrix(1.30482,0,0,1.30482,3264.4,-5240.51)">
                            <circle cx="2205.24" cy="4490.89" r="16.529" style="fill:white;"/>
                        </g>
                        <g transform="matrix(1,0,0,1,3934.76,-3861.66)">
                            <path d="M2298.07,4475.33L2299.98,4476.62L2301.27,4478.53L2301.74,4480.85L2301.74,4480.87L2301.27,4483.19L2299.98,4485.09L2298.07,4486.38L2295.75,4486.86L2207.45,4486.86L2205.13,4486.38L2203.23,4485.09L2201.94,4483.19L2201.46,4480.87L2201.46,4480.85L2201.94,4478.53L2203.23,4476.62L2205.13,4475.33L2207.45,4474.86L2295.75,4474.86L2298.07,4475.33Z" style="fill:white;"/>
                        </g>
                    </g>
                </g>
                <g>
                    <g transform="matrix(1,0,0,1,4479.09,-3864.26)">
                        <path d="M2626.74,4014.68L2628.37,4015.11L2629.9,4015.82L2631.28,4016.79L2632.48,4017.98L2633.44,4019.37L2634.16,4020.89L2634.59,4022.52L2634.74,4024.2L2634.74,5007.64L2634.59,5009.32L2634.16,5010.95L2633.44,5012.48L2632.48,5013.86L2631.28,5015.05L2629.9,5016.02L2628.37,5016.73L2626.74,5017.17L2625.07,5017.32L2156.76,5017.32L2155.08,5017.17L2153.45,5016.73L2151.92,5016.02L2150.54,5015.05L2149.35,5013.86L2148.38,5012.48L2147.67,5010.95L2147.23,5009.32L2147.09,5007.64L2147.09,4024.2L2147.23,4022.52L2147.67,4020.89L2148.38,4019.37L2149.35,4017.98L2150.54,4016.79L2151.92,4015.82L2153.45,4015.11L2155.08,4014.68L2156.76,4014.53L2625.07,4014.53L2626.74,4014.68ZM2166.44,4033.88L2166.44,4997.97L2615.39,4997.97L2615.39,4033.88L2166.44,4033.88Z" style="fill:white;"/>
                    </g>
                    <g transform="matrix(1,0,0,1,564.515,71.125)">
                        <g transform="matrix(1.30482,0,0,1.30482,3264.4,-5240.51)">
                            <circle cx="2205.24" cy="4490.89" r="16.529" style="fill:white;"/>
                        </g>
                        <g transform="matrix(1,0,0,1,3934.76,-3861.66)">
                            <path d="M2298.07,4475.33L2299.98,4476.62L2301.27,4478.53L2301.74,4480.85L2301.74,4480.87L2301.27,4483.19L2299.98,4485.09L2298.07,4486.38L2295.75,4486.86L2207.45,4486.86L2205.13,4486.38L2203.23,4485.09L2201.94,4483.19L2201.46,4480.87L2201.46,4480.85L2201.94,4478.53L2203.23,4476.62L2205.13,4475.33L2207.45,4474.86L2295.75,4474.86L2298.07,4475.33Z" style="fill:white;"/>
                        </g>
                    </g>
                </g>
                <g>
                    <g transform="matrix(1,0,0,1,5043,-3864.26)">
                        <path d="M2626.74,4014.68L2628.37,4015.11L2629.9,4015.82L2631.28,4016.79L2632.48,4017.98L2633.44,4019.37L2634.16,4020.89L2634.59,4022.52L2634.74,4024.2L2634.74,5007.64L2634.59,5009.32L2634.16,5010.95L2633.44,5012.48L2632.48,5013.86L2631.28,5015.05L2629.9,5016.02L2628.37,5016.73L2626.74,5017.17L2625.07,5017.32L2156.76,5017.32L2155.08,5017.17L2153.45,5016.73L2151.92,5016.02L2150.54,5015.05L2149.35,5013.86L2148.38,5012.48L2147.67,5010.95L2147.23,5009.32L2147.09,5007.64L2147.09,4024.2L2147.23,4022.52L2147.67,4020.89L2148.38,4019.37L2149.35,4017.98L2150.54,4016.79L2151.92,4015.82L2153.45,4015.11L2155.08,4014.68L2156.76,4014.53L2625.07,4014.53L2626.74,4014.68ZM2166.44,4033.88L2166.44,4997.97L2615.39,4997.97L2615.39,4033.88L2166.44,4033.88Z" style="fill:white;"/>
                    </g>
                    <g transform="matrix(1,0,0,1,1128.43,71.125)">
                        <g transform="matrix(1.30482,0,0,1.30482,3264.4,-5240.51)">
                            <circle cx="2205.24" cy="4490.89" r="16.529" style="fill:white;"/>
                        </g>
                        <g transform="matrix(1,0,0,1,3934.76,-3861.66)">
                            <path d="M2298.07,4475.33L2299.98,4476.62L2301.27,4478.53L2301.74,4480.85L2301.74,4480.87L2301.27,4483.19L2299.98,4485.09L2298.07,4486.38L2295.75,4486.86L2207.45,4486.86L2205.13,4486.38L2203.23,4485.09L2201.94,4483.19L2201.46,4480.87L2201.46,4480.85L2201.94,4478.53L2203.23,4476.62L2205.13,4475.33L2207.45,4474.86L2295.75,4474.86L2298.07,4475.33Z" style="fill:white;"/>
                        </g>
                    </g>
                </g>
                <g transform="matrix(1,0,0,1,4006.86,-3861.66)">
                    <text x="2133.3px" y="4179.25px" style="font-family:'Boogaloo-Regular', 'Boogaloo', cursive;font-size:123px;fill:white;">Angular</text>
                </g>
                <g transform="matrix(1,0,0,1,4570.77,-3861.66)">
                    <text x="2180.53px" y="4179.25px" style="font-family:'Boogaloo-Regular', 'Boogaloo', cursive;font-size:123px;fill:white;">React</text>
                </g>
                <g transform="matrix(1,0,0,1,5134.69,-3861.66)">
                    <text x="2223.4px" y="4179.25px" style="font-family:'Boogaloo-Regular', 'Boogaloo', cursive;font-size:123px;fill:white;">V<tspan x="2277.39px " y="4179.25px ">u</tspan>e</text>
                </g>
            </g>
        </g>
    </g>
</svg>
