<?xml version="1.0" encoding="UTF-8" standalone="no"?>
<!DOCTYPE svg PUBLIC "-//W3C//DTD SVG 1.1//EN" "http://www.w3.org/Graphics/SVG/1.1/DTD/svg11.dtd">
<svg width="100%" height="100%" viewBox="0 0 1921 1081" version="1.1" xmlns="http://www.w3.org/2000/svg" xmlns:xlink="http://www.w3.org/1999/xlink" xml:space="preserve" xmlns:serif="http://www.serif.com/" style="fill-rule:evenodd;clip-rule:evenodd;stroke-linecap:round;stroke-linejoin:round;stroke-miterlimit:2.56579;">
    <g transform="matrix(1,0,0,1,-6113,-9786)">
        <g id="silos-not" transform="matrix(1,0,0,1,203.336,9786.45)">
            <rect x="5910" y="0" width="1920" height="1080" style="fill:white;"/>
            <clipPath id="_clip1">
                <rect x="5910" y="0" width="1920" height="1080"/>
            </clipPath>
            <g clip-path="url(#_clip1)">
                <g>
                    <g transform="matrix(0.995634,0,0,1,-175.936,-9091.45)">
                        <path d="M6280.51,10103L6400.88,10103.9L6483.12,10104.4L6541.29,10104.6L6608.35,10104.6L6702.16,10104.3L6796.6,10104.1L6865.51,10104.1L6922.84,10104.3L6986.21,10104.7L7124.51,10105.7L7267.36,10106.6L7336.42,10106.8L7401.71,10106.9L7464.38,10106.7L7537.54,10106.2L7692.06,10104.9L7871.4,10103L7879.57,10103L7879.57,10123L7871.4,10123L7692.06,10121.1L7537.54,10119.8L7464.38,10119.3L7401.71,10119.1L7336.42,10119.2L7267.36,10119.4L7124.51,10120.3L6986.21,10121.3L6922.84,10121.7L6865.51,10121.9L6796.6,10121.9L6702.16,10121.7L6608.35,10121.4L6541.29,10121.4L6483.12,10121.6L6400.88,10122.1L6280.51,10123L6275.27,10123L6265.23,10123L6265.23,10103L6275.27,10103L6280.51,10103Z"/>
                    </g>
                    <g transform="matrix(0.995634,0,0,1,-168.966,-10000.5)">
                        <path d="M6280.51,10103L6400.88,10103.9L6483.12,10104.4L6541.29,10104.6L6608.35,10104.6L6702.16,10104.3L6796.6,10104.1L6865.51,10104.1L6922.84,10104.3L6986.21,10104.7L7124.51,10105.7L7267.36,10106.6L7336.42,10106.8L7401.71,10106.9L7464.38,10106.7L7537.54,10106.2L7692.06,10104.9L7871.4,10103L7879.57,10103L7879.57,10123L7871.4,10123L7692.06,10121.1L7537.54,10119.8L7464.38,10119.3L7401.71,10119.1L7336.42,10119.2L7267.36,10119.4L7124.51,10120.3L6986.21,10121.3L6922.84,10121.7L6865.51,10121.9L6796.6,10121.9L6702.16,10121.7L6608.35,10121.4L6541.29,10121.4L6483.12,10121.6L6400.88,10122.1L6280.51,10123L6275.27,10123L6265.23,10123L6265.23,10103L6275.27,10103L6280.51,10103Z"/>
                    </g>
                </g>
                <g>
                    <g transform="matrix(1,0,0,1,-203.336,-9926.59)">
                        <path d="M6556.42,10107.5L6620.87,10107.8L6687.1,10108.1L6732.49,10108.2L6797.46,10108.1L6891.6,10107.9L6987.23,10107.7L7056.71,10107.5L7119.63,10107.7L7206.14,10107.9L7291.72,10108.2L7351.83,10108.3L7408.85,10108.2L7490.52,10107.9L7570.39,10107.7L7601.39,10107.6L7622.01,10107.7L7678.1,10108.2L7761.93,10109.2L7875.24,10110.6L7875.24,10115.4L7871.4,10115.5L7761.93,10116.8L7678.1,10117.8L7622.01,10118.3L7601.39,10118.4L7570.39,10118.3L7490.52,10118.1L7408.85,10117.8L7351.83,10117.7L7291.72,10117.8L7206.14,10118.1L7119.63,10118.3L7056.71,10118.5L6987.23,10118.3L6891.6,10118.1L6797.46,10117.9L6732.49,10117.8L6687.1,10117.9L6620.87,10118.2L6556.42,10118.5L6531.92,10118.6L6516.35,10118.6L6467.87,10118.1L6392.89,10117.2L6277.96,10115.7L6275.27,10115.7L6272.56,10115.7L6272.56,10110.3L6275.27,10110.3L6277.96,10110.3L6392.89,10108.8L6467.87,10107.9L6516.35,10107.4L6531.92,10107.4L6556.42,10107.5Z"/>
                    </g>
                    <g transform="matrix(1,0,0,1,-203.336,-9787.4)">
                        <path d="M6556.42,10107.5L6620.87,10107.8L6687.1,10108.1L6732.49,10108.2L6797.46,10108.1L6891.6,10107.9L6987.23,10107.7L7056.71,10107.5L7119.63,10107.7L7206.14,10107.9L7291.72,10108.2L7351.83,10108.3L7408.85,10108.2L7490.52,10107.9L7570.39,10107.7L7601.39,10107.6L7622.01,10107.7L7678.1,10108.2L7761.93,10109.2L7875.24,10110.6L7875.24,10115.4L7871.4,10115.5L7761.93,10116.8L7678.1,10117.8L7622.01,10118.3L7601.39,10118.4L7570.39,10118.3L7490.52,10118.1L7408.85,10117.8L7351.83,10117.7L7291.72,10117.8L7206.14,10118.1L7119.63,10118.3L7056.71,10118.5L6987.23,10118.3L6891.6,10118.1L6797.46,10117.9L6732.49,10117.8L6687.1,10117.9L6620.87,10118.2L6556.42,10118.5L6531.92,10118.6L6516.35,10118.6L6467.87,10118.1L6392.89,10117.2L6277.96,10115.7L6275.27,10115.7L6272.56,10115.7L6272.56,10110.3L6275.27,10110.3L6277.96,10110.3L6392.89,10108.8L6467.87,10107.9L6516.35,10107.4L6531.92,10107.4L6556.42,10107.5Z"/>
                    </g>
                    <g transform="matrix(1,0,0,1,-203.336,-9648.21)">
                        <path d="M6556.42,10107.5L6620.87,10107.8L6687.1,10108.1L6732.49,10108.2L6797.46,10108.1L6891.6,10107.9L6987.23,10107.7L7056.71,10107.5L7119.63,10107.7L7206.14,10107.9L7291.72,10108.2L7351.83,10108.3L7408.85,10108.2L7490.52,10107.9L7570.39,10107.7L7601.39,10107.6L7622.01,10107.7L7678.1,10108.2L7761.93,10109.2L7875.24,10110.6L7875.24,10115.4L7871.4,10115.5L7761.93,10116.8L7678.1,10117.8L7622.01,10118.3L7601.39,10118.4L7570.39,10118.3L7490.52,10118.1L7408.85,10117.8L7351.83,10117.7L7291.72,10117.8L7206.14,10118.1L7119.63,10118.3L7056.71,10118.5L6987.23,10118.3L6891.6,10118.1L6797.46,10117.9L6732.49,10117.8L6687.1,10117.9L6620.87,10118.2L6556.42,10118.5L6531.92,10118.6L6516.35,10118.6L6467.87,10118.1L6392.89,10117.2L6277.96,10115.7L6275.27,10115.7L6272.56,10115.7L6272.56,10110.3L6275.27,10110.3L6277.96,10110.3L6392.89,10108.8L6467.87,10107.9L6516.35,10107.4L6531.92,10107.4L6556.42,10107.5Z"/>
                    </g>
                    <g transform="matrix(1,0,0,1,-203.336,-9509.02)">
                        <path d="M6556.42,10107.5L6620.87,10107.8L6687.1,10108.1L6732.49,10108.2L6797.46,10108.1L6891.6,10107.9L6987.23,10107.7L7056.71,10107.5L7119.63,10107.7L7206.14,10107.9L7291.72,10108.2L7351.83,10108.3L7408.85,10108.2L7490.52,10107.9L7570.39,10107.7L7601.39,10107.6L7622.01,10107.7L7678.1,10108.2L7761.93,10109.2L7875.24,10110.6L7875.24,10115.4L7871.4,10115.5L7761.93,10116.8L7678.1,10117.8L7622.01,10118.3L7601.39,10118.4L7570.39,10118.3L7490.52,10118.1L7408.85,10117.8L7351.83,10117.7L7291.72,10117.8L7206.14,10118.1L7119.63,10118.3L7056.71,10118.5L6987.23,10118.3L6891.6,10118.1L6797.46,10117.9L6732.49,10117.8L6687.1,10117.9L6620.87,10118.2L6556.42,10118.5L6531.92,10118.6L6516.35,10118.6L6467.87,10118.1L6392.89,10117.2L6277.96,10115.7L6275.27,10115.7L6272.56,10115.7L6272.56,10110.3L6275.27,10110.3L6277.96,10110.3L6392.89,10108.8L6467.87,10107.9L6516.35,10107.4L6531.92,10107.4L6556.42,10107.5Z"/>
                    </g>
                    <g transform="matrix(1,0,0,1,-203.336,-9369.83)">
                        <path d="M6556.42,10107.5L6620.87,10107.8L6687.1,10108.1L6732.49,10108.2L6797.46,10108.1L6891.6,10107.9L6987.23,10107.7L7056.71,10107.5L7119.63,10107.7L7206.14,10107.9L7291.72,10108.2L7351.83,10108.3L7408.85,10108.2L7490.52,10107.9L7570.39,10107.7L7601.39,10107.6L7622.01,10107.7L7678.1,10108.2L7761.93,10109.2L7875.24,10110.6L7875.24,10115.4L7871.4,10115.5L7761.93,10116.8L7678.1,10117.8L7622.01,10118.3L7601.39,10118.4L7570.39,10118.3L7490.52,10118.1L7408.85,10117.8L7351.83,10117.7L7291.72,10117.8L7206.14,10118.1L7119.63,10118.3L7056.71,10118.5L6987.23,10118.3L6891.6,10118.1L6797.46,10117.9L6732.49,10117.8L6687.1,10117.9L6620.87,10118.2L6556.42,10118.5L6531.92,10118.6L6516.35,10118.6L6467.87,10118.1L6392.89,10117.2L6277.96,10115.7L6275.27,10115.7L6272.56,10115.7L6272.56,10110.3L6275.27,10110.3L6277.96,10110.3L6392.89,10108.8L6467.87,10107.9L6516.35,10107.4L6531.92,10107.4L6556.42,10107.5Z"/>
                    </g>
                    <g transform="matrix(1,0,0,1,-203.336,-9230.64)">
                        <path d="M6556.42,10107.5L6620.87,10107.8L6687.1,10108.1L6732.49,10108.2L6797.46,10108.1L6891.6,10107.9L6987.23,10107.7L7056.71,10107.5L7119.63,10107.7L7206.14,10107.9L7291.72,10108.2L7351.83,10108.3L7408.85,10108.2L7490.52,10107.9L7570.39,10107.7L7601.39,10107.6L7622.01,10107.7L7678.1,10108.2L7761.93,10109.2L7875.24,10110.6L7875.24,10115.4L7871.4,10115.5L7761.93,10116.8L7678.1,10117.8L7622.01,10118.3L7601.39,10118.4L7570.39,10118.3L7490.52,10118.1L7408.85,10117.8L7351.83,10117.7L7291.72,10117.8L7206.14,10118.1L7119.63,10118.3L7056.71,10118.5L6987.23,10118.3L6891.6,10118.1L6797.46,10117.9L6732.49,10117.8L6687.1,10117.9L6620.87,10118.2L6556.42,10118.5L6531.92,10118.6L6516.35,10118.6L6467.87,10118.1L6392.89,10117.2L6277.96,10115.7L6275.27,10115.7L6272.56,10115.7L6272.56,10110.3L6275.27,10110.3L6277.96,10110.3L6392.89,10108.8L6467.87,10107.9L6516.35,10107.4L6531.92,10107.4L6556.42,10107.5Z"/>
                    </g>
                </g>
                <g transform="matrix(1,0,0,1.06101,-4.54747e-13,-3.87732)">
                    <g transform="matrix(2e-06,0,0,1,6071.43,-9786.45)">
                        <path d="M2.14748e+06,9852.91L2.14748e+06,9852.11L2.14748e+06,9850L2.14748e+06,10808L2.14748e+06,10811.3L2.14748e+06,10814.4L2.14748e+06,10817.4L2.14748e+06,10820.1L2.14748e+06,10822.4L2.14748e+06,10824.3L2.14748e+06,10825.7L2.14748e+06,10826.6L0,10826.9L-2.14748e+06,10826.6L-2.14748e+06,10825.7L-2.14748e+06,10824.3L-2.14748e+06,10822.4L-2.14748e+06,10820.1L-2.14748e+06,10817.4L-2.14748e+06,10814.4L-2.14748e+06,10811.3L-2.14748e+06,10808L-2.14748e+06,9850L2.14748e+06,9850L2.14748e+06,9852.91Z"/>
                    </g>
                    <g transform="matrix(2e-06,0,0,1,7668.07,-9786.45)">
                        <path d="M2.14748e+06,9852.91L2.14748e+06,9852.11L2.14748e+06,9850L2.14748e+06,10808L2.14748e+06,10811.3L2.14748e+06,10814.4L2.14748e+06,10817.4L2.14748e+06,10820.1L2.14748e+06,10822.4L2.14748e+06,10824.3L2.14748e+06,10825.7L2.14748e+06,10826.6L0,10826.9L-2.14748e+06,10826.6L-2.14748e+06,10825.7L-2.14748e+06,10824.3L-2.14748e+06,10822.4L-2.14748e+06,10820.1L-2.14748e+06,10817.4L-2.14748e+06,10814.4L-2.14748e+06,10811.3L-2.14748e+06,10808L-2.14748e+06,9850L2.14748e+06,9850L2.14748e+06,9852.91Z"/>
                    </g>
                </g>
                <g transform="matrix(0.743653,-0.199261,0.199261,0.743653,1528,1247.3)">
                    <g transform="matrix(1,0,0,1,-143.336,-9731.45)">
                        <rect x="6392" y="9846" width="315" height="152" style="fill:rgb(197,32,51);stroke:black;stroke-width:12.99px;"/>
                    </g>
                    <g transform="matrix(1,0,0,1,4107.04,-3965.71)">
                        <text x="2172.32px" y="4179.25px" style="font-family:'Boogaloo-Regular', 'Boogaloo', cursive;font-size:94px;fill:white;">Angular</text>
                    </g>
                </g>
                <g transform="matrix(0.743653,-0.199261,0.199261,0.743653,2068.07,1247.3)">
                    <g transform="matrix(1,0,0,1,-143.336,-9731.45)">
                        <rect x="6392" y="9846" width="315" height="152" style="fill:rgb(0,216,255);stroke:black;stroke-width:12.99px;"/>
                    </g>
                    <g transform="matrix(1,0,-5.55112e-17,1,4104.55,-3957.06)">
                        <text x="2208.42px" y="4179.25px" style="font-family:'Boogaloo-Regular', 'Boogaloo', cursive;font-size:94px;">React</text>
                    </g>
                </g>
                <g transform="matrix(0.743653,-0.199261,0.199261,0.743653,2608.13,1247.3)">
                    <g transform="matrix(1,0,0,1,-143.336,-9731.45)">
                        <rect x="6392" y="9846" width="315" height="152" style="fill:rgb(60,184,132);"/>
                        <path d="M6712.51,9840.49L6714.2,9843.02L6714.79,9846L6714.79,9998L6714.2,10001L6712.51,10003.5L6709.98,10005.2L6707,10005.8L6392,10005.8L6389.02,10005.2L6386.49,10003.5L6384.8,10001L6384.21,9998L6384.21,9846L6384.8,9843.02L6386.49,9840.49L6389.02,9838.8L6392,9838.21L6707,9838.21L6709.98,9838.8L6712.51,9840.49ZM6399.79,9853.79L6399.79,9990.21L6699.21,9990.21L6699.21,9853.79L6399.79,9853.79Z"/>
                    </g>
                    <g transform="matrix(1,0,0,1,4107.13,-3956.03)">
                        <text x="2241.18px" y="4179.25px" style="font-family:'Boogaloo-Regular', 'Boogaloo', cursive;font-size:94px;">V<tspan x="2282.44px " y="4179.25px ">u</tspan>e</text>
                    </g>
                </g>
            </g>
        </g>
    </g>
</svg>
