<?xml version="1.0" encoding="UTF-8" standalone="no"?>
<!-- Created with Inkscape (http://www.inkscape.org/) -->

<svg
   xmlns:dc="http://purl.org/dc/elements/1.1/"
   xmlns:cc="http://creativecommons.org/ns#"
   xmlns:rdf="http://www.w3.org/1999/02/22-rdf-syntax-ns#"
   xmlns:svg="http://www.w3.org/2000/svg"
   xmlns="http://www.w3.org/2000/svg"
   xmlns:sodipodi="http://sodipodi.sourceforge.net/DTD/sodipodi-0.dtd"
   xmlns:inkscape="http://www.inkscape.org/namespaces/inkscape"
   inkscape:export-ydpi="90"
   inkscape:export-xdpi="90"
   inkscape:export-filename="/home/hsablonniere/dev/talk-ultrasonic-adventure/ultrasonic-poster.svg.png"
   sodipodi:docname="story-04.svg"
   inkscape:version="0.91 r13725"
   version="1.1"
   id="svg2"
   viewBox="0 0 1920 1080"
   height="1080"
   width="1920">
  <sodipodi:namedview
     inkscape:window-maximized="1"
     inkscape:window-y="0"
     inkscape:window-x="0"
     inkscape:window-height="1406"
     inkscape:window-width="2560"
     units="px"
     showgrid="false"
     inkscape:current-layer="svg2"
     inkscape:document-units="px"
     inkscape:cy="419.45485"
     inkscape:cx="943.48624"
     inkscape:zoom="0.75424726"
     inkscape:pageshadow="2"
     inkscape:pageopacity="0.0"
     borderopacity="1.0"
     bordercolor="#666666"
     pagecolor="#ffffff"
     id="base" />
  <metadata
     id="metadata6">
    <rdf:RDF>
      <cc:Work
         rdf:about="">
        <dc:format>image/svg+xml</dc:format>
        <dc:type
           rdf:resource="http://purl.org/dc/dcmitype/StillImage" />
        <dc:title />
      </cc:Work>
    </rdf:RDF>
  </metadata>
  <defs
     id="defs4">
    <inkscape:path-effect
       effect="spiro"
       id="path-effect5121"
       is_visible="true" />
    <inkscape:path-effect
       is_visible="true"
       id="path-effect5109"
       effect="spiro" />
    <inkscape:path-effect
       effect="spiro"
       id="path-effect5105"
       is_visible="true" />
    <clipPath
       clipPathUnits="userSpaceOnUse"
       id="clipPath7254">
      <rect
         style="opacity:1;fill:#000000;fill-opacity:1;stroke:none;stroke-width:8;stroke-linecap:round;stroke-linejoin:round;stroke-miterlimit:4;stroke-dasharray:none;stroke-dashoffset:0;stroke-opacity:1"
         id="rect7256"
         width="1920"
         height="300"
         x="0"
         y="780.00006" />
    </clipPath>
    <clipPath
       id="clipPath4522"
       clipPathUnits="userSpaceOnUse">
      <rect
         y="1153.7546"
         x="3620.6797"
         height="588.78345"
         width="1116.6582"
         id="rect4524"
         style="fill:#226699;fill-opacity:1;stroke:none" />
    </clipPath>
    <clipPath
       id="clipPath3175"
       clipPathUnits="userSpaceOnUse">
      <path
         inkscape:connector-curvature="0"
         id="path3177"
         d="m 52.383655,349.71515 c 4.539401,-42.44063 6.447926,-98.14523 6.092333,-177.81849 L 58.078062,82.738168 91.932274,81.109854 c 18.619816,-0.895573 87.488816,-1.783964 153.042236,-1.9742 65.5534,-0.190237 162.80461,-1.12747 216.11378,-2.08274 l 96.92578,-1.736855 -1.22357,17.592899 c -1.63941,23.571852 -4.39602,195.329712 -3.62485,225.854912 l 0.61269,24.25244 -33.51634,1.47293 c -18.434,0.8101 -71.1817,2.28942 -117.21713,3.28735 -46.03545,0.99794 -84.52013,2.32083 -85.52154,2.93972 -1.00139,0.6189 -39.84707,1.64593 -86.32369,2.28226 -73.50545,1.00644 -104.70889,2.0366 -130.50537,4.30859 -3.45018,0.30387 -16.003262,1.26076 -27.895742,2.12642 l -21.622692,1.57395 1.207819,-11.29238 0,0 z"
         style="fill:#555555;fill-opacity:1;stroke:none" />
    </clipPath>
    <clipPath
       id="clipPath4522-7"
       clipPathUnits="userSpaceOnUse">
      <rect
         y="1153.7546"
         x="3620.6797"
         height="588.78345"
         width="1116.6582"
         id="rect4524-5"
         style="fill:#226699;fill-opacity:1;stroke:none" />
    </clipPath>
    <radialGradient
       id="r"
       cx="106.73546"
       cy="19.524991"
       gradientTransform="scale(1.2320179,0.81167652)"
       fx="106.73546"
       fy="19.524991"
       r="78.326784"
       gradientUnits="userSpaceOnUse">
      <stop
         id="stop3165"
         stop-color="#f06b59" />
      <stop
         id="stop3167"
         stop-color="#df2227"
         offset="1" />
    </radialGradient>
    <radialGradient
       id="g"
       cx="122.26707"
       cy="108.80645"
       r="122.76932"
       gradientTransform="scale(0.92838267,1.077142)"
       fx="122.26707"
       fy="108.80645"
       gradientUnits="userSpaceOnUse">
      <stop
         id="stop3170"
         stop-color="#4cb749"
         offset="0.65" />
      <stop
         id="stop3172"
         stop-color="#388b41"
         offset="1" />
    </radialGradient>
    <radialGradient
       id="y"
       cx="187.90098"
       cy="102.2451"
       r="111.5125"
       gradientTransform="scale(0.86406979,1.1573139)"
       fx="187.90098"
       fy="102.2451"
       gradientUnits="userSpaceOnUse">
      <stop
         id="stop3175"
         stop-color="#FCD209"
         offset="0.6" />
      <stop
         id="stop3177"
         stop-color="#f7c616"
         offset="0.7" />
      <stop
         id="stop3179"
         stop-color="#bc821e"
         offset="1" />
    </radialGradient>
    <radialGradient
       id="cf"
       spreadMethod="pad"
       cx="127.5"
       cy="78.099998"
       r="99"
       fx="127.5"
       fy="78.099998"
       gradientUnits="userSpaceOnUse">
      <stop
         id="stop3182"
         stop-color="#7FB3DF"
         offset="0.1" />
      <stop
         id="stop3184"
         stop-color="#0F5B94"
         offset="0.9" />
    </radialGradient>
    <radialGradient
       cx="127.5"
       cy="78.099998"
       r="99"
       id="cb"
       fx="127.5"
       fy="78.099998"
       gradientUnits="userSpaceOnUse">
      <stop
         id="stop3187"
         stop-color="#F6F0EE"
         offset="0" />
      <stop
         id="stop3189"
         stop-color="#ddd"
         offset="1" />
    </radialGradient>
    <clipPath
       clipPathUnits="userSpaceOnUse"
       id="clipPath3858">
      <path
         style="fill:#992222;fill-opacity:1"
         d="m 396.03854,-957.67135 0.32555,-1.84982 c 0.17787,-1.01669 0.93607,-3.7676 1.68701,-6.11165 0.7509,-2.34405 1.58344,-6.17974 1.86458,-8.5238 0.48888,-4.07658 1.1063,-7.91359 1.59822,-9.94441 1.24167,-5.12642 2.16342,-17.96397 2.53046,-35.27907 0.16847,-7.9437 0.34219,-15.7216 0.3848,-17.2843 0.29541,-10.7974 0.2766,-15.7022 -0.1627,-31.4907 -0.27182,-9.7669 -0.59568,-30.7567 -0.71033,-46.6441 -0.21749,-30.1434 -0.34278,-33.9341 -1.50943,-45.2235 -1.52579,-14.7652 -2.10523,-22.4822 -2.5453,-33.9915 -0.25173,-6.5837 -0.58297,-12.1766 -0.7399,-12.4306 -0.31495,-0.5097 -0.34545,-16.0836 -0.0591,-28.6346 0.1178,-5.168 0.52478,-10.0196 1.13944,-13.5404 0.81164,-4.6489 0.89225,-6.1637 0.50319,-9.9444 -0.64924,-6.3078 0.15372,-20.0747 1.19863,-20.466 0.29629,-0.111 1.71953,-0.033 3.15201,0.1776 6.90237,1.0128 12.88171,1.366 27.93909,1.6278 8.98551,0.1562 18.25513,0.432 20.59918,0.6215 2.34408,0.1897 7.13871,0.1759 10.65475,-0.029 3.51606,-0.2055 9.16307,-0.2416 12.54892,-0.089 11.20168,0.5058 35.36389,0.4125 45.22346,-0.1776 5.33925,-0.3195 13.64996,-0.7907 18.46821,-1.0506 4.81831,-0.26 11.74395,-0.9145 15.39019,-1.4503 3.64629,-0.5357 8.12132,-1.1803 9.94443,-1.4354 6.28729,-0.8798 68.53983,-1.356 93.28817,-0.7103 17.23555,0.4497 21.53664,0.4736 47.59117,0.3107 10.32801,-0.065 18.5457,0.1124 21.3095,0.444 2.59099,0.3109 14.94065,0.6163 29.12296,0.7251 13.5434,0.1039 31.23022,0.3571 39.30416,0.5623 18.56812,0.4722 23.7916,0.471 40.72478,-0.015 9.37287,-0.2688 15.31792,-0.2237 18.74941,0.1333 5.89255,0.6129 35.94236,0.7254 42.81135,0.1627 2.60448,-0.2133 10.01083,-0.3895 16.45567,-0.3848 6.44483,0.01 11.77216,-0.1418 11.83859,-0.3255 0.0665,-0.1838 0.88501,-0.1563 1.83498,0.059 0.95012,0.2157 3.72029,0.2223 6.15608,0.015 2.43586,-0.2076 6.25078,-0.5021 8.4646,-0.6512 16.01826,-1.0788 34.62009,-2.5161 45.69701,-3.5367 2.6045,-0.2401 11.66097,-0.4513 20.12557,-0.4736 8.4646,-0.022 17.5211,-0.133 20.1256,-0.2367 2.6046,-0.1039 5.8433,0.021 7.2068,0.2663 1.5326,0.2759 3.4078,0.2709 4.8982,0 1.4546,-0.2645 3.094,-0.2594 4.1436,0 0.9567,0.2364 3.2859,0.4233 5.1793,0.4143 4.079,-0.019 3.6878,-0.5729 5.727,8.0355 1.8446,7.7871 2.4984,13.9158 2.353,22.2713 -0.066,3.7676 -0.1001,17.2933 -0.074,30.0553 0.042,20.939 0.1368,23.8276 1.0211,29.5965 0.5389,3.5161 1.2044,9.2697 1.4798,12.7857 0.2755,3.5161 0.934,8.95 1.4651,12.0754 0.5309,3.1254 1.4936,8.7724 2.1309,12.5489 0.6372,3.7765 1.7912,10.2759 2.5748,14.4431 1.36,7.2318 2.8503,16.9999 4.4543,29.3598 0.7864,6.0583 1.24,10.0029 2.4714,21.3094 0.4254,3.9068 1.0792,8.7014 1.4502,10.6548 0.371,1.9533 0.9803,8.3462 1.3615,14.2063 0.3811,5.8601 0.9204,14.1708 1.1986,18.4682 0.2781,4.2974 0.5743,15.4032 0.6511,24.6835 0.076,9.2803 0.2476,17.0582 0.3847,17.2843 0.2291,0.3776 0.5161,4.2521 1.0952,14.85749 0.1208,2.21382 0.3511,7.70102 0.5179,12.19375 l 0.3108,8.16865 -4.2176,0 c -2.3216,0 -4.9798,0.23459 -5.8897,0.51796 -0.9099,0.28323 -5.052,0.57966 -9.2193,0.6659 -9.8387,0.20367 -19.0647,0.57876 -33.3849,1.37622 -6.3809,0.35534 -11.9747,0.66513 -12.4305,0.68075 -4.2692,0.1461 -9.0519,0.092 -13.5256,-0.16288 -3.12157,-0.17774 -5.59057,-0.12541 -5.91927,0.13323 -0.8238,0.64822 -2.1501,0.52322 -2.4417,-0.23678 -0.3346,-0.87194 -5.4606,-0.66348 -5.4606,0.222 0,0.32708 0.2131,0.59194 0.4736,0.59194 0.2604,0 0.4735,0.24979 0.4735,0.56232 0,0.44196 -0.1351,0.44196 -0.5771,0 -0.3126,-0.31253 -1.1117,-0.59122 -1.7758,-0.62152 -0.8026,-0.0364 -0.9207,-0.12237 -0.37,-0.26636 0.4558,-0.11915 0.8287,-0.4057 0.8287,-0.6363 1e-4,-0.23176 -5.4558,-0.44125 -12.19371,-0.45878 -6.70658,-0.0175 -15.17715,-0.0336 -18.82345,-0.0446 -3.64621,-0.0102 -10.35873,-0.008 -14.91659,0.0153 -4.55786,0.0238 -12.01618,-0.29791 -16.57404,-0.71031 -14.26197,-1.2906 -15.62695,-1.33743 -15.62695,-0.68073 0,0.45276 -0.16136,0.46317 -0.6659,0.0446 -0.72615,-0.60262 -4.61403,-0.82484 -5.44577,-0.31078 -0.28815,0.17783 -0.76999,0.1622 -1.08024,-0.0293 -0.62779,-0.38797 -0.33267,-0.37503 -18.14272,-1.15426 -7.03214,-0.30767 -14.38393,-0.63393 -16.33728,-0.72514 -11.77197,-0.54954 -29.11776,-0.5966 -29.72966,-0.0888 -0.42611,0.35361 -0.77089,0.37705 -0.9767,0.0739 -0.17548,-0.25843 -1.16316,-0.44514 -2.20495,-0.41437 -1.04176,0.0308 -4.93075,0.0992 -8.6422,0.14797 -6.36636,0.0839 -6.74799,0.14151 -6.74799,1.02111 5e-5,0.64127 -0.22836,0.84172 -0.72509,0.65111 -0.56253,-0.21588 -0.60727,-0.4293 -0.17758,-0.94708 0.468,-0.56376 -0.13915,-0.64488 -4.01034,-0.57715 -2.59403,0.0454 -4.55787,0.27044 -4.55787,0.53273 0,0.28518 -0.22636,0.28731 -0.59193,-0.0152 -0.32551,-0.26903 -1.37905,-0.64951 -2.33808,-0.82871 -1.60617,-0.30011 -1.71924,-0.23472 -1.47983,0.68068 0.14288,0.54657 0.0398,0.9915 -0.222,0.9915 -0.26186,0 -0.45033,-0.37291 -0.41435,-0.8287 0.0608,-0.76708 -0.86633,-0.84419 -12.46012,-0.96186 -11.04661,-0.11221 -12.57652,-0.0431 -12.94846,0.6215 -0.38541,0.68866 -0.49216,0.69301 -1.25786,0 -0.66519,-0.60199 -1.10767,-0.64621 -2.14579,-0.25156 -0.77433,0.2944 -1.5185,0.32356 -1.83497,0.0739 -0.29388,-0.23185 -3.28099,-0.44419 -6.62962,-0.47354 -5.40408,-0.0475 -6.02167,0.0255 -5.49013,0.66593 0.42122,0.50755 0.45603,0.86095 0.10356,1.21347 -0.35252,0.35245 -0.59179,0.21128 -0.81389,-0.48833 -0.19116,-0.60244 -0.72077,-0.99733 -1.34662,-1.00628 -11.20699,-0.16406 -40.04265,0.39116 -40.68041,0.78427 -0.18379,0.1134 -0.19369,0.54919 -0.0293,0.9767 0.22433,0.58459 0.0929,0.70221 -0.50314,0.47354 -0.51928,-0.19925 -0.78432,-0.056 -0.78432,0.39953 0,0.38254 -0.21305,0.69554 -0.47354,0.69554 -0.6623,0 -0.59098,-1.11695 0.11829,-1.84975 0.48256,-0.49832 -0.0208,-0.55517 -2.72288,-0.32562 -4.76598,0.40499 -22.8807,1.61711 -24.97944,1.67223 -2.74665,0.0722 -3.17559,0.0715 -7.22154,-0.14795 -4.03925,-0.21906 -8.38722,0.0946 -8.07979,0.59192 0.10219,0.16541 -0.5999,0.21972 -1.55385,0.1183 -1.84526,-0.19603 -10.73794,-0.0835 -15.46419,0.19235 -1.5627,0.0912 -5.93114,0.29189 -9.70766,0.45877 -3.77652,0.16694 -7.03161,0.46965 -7.23632,0.6659 -0.20471,0.19605 -1.37291,0.21429 -2.58971,0.0299 -2.22855,-0.33821 -10.11833,-0.19979 -16.69244,0.29597 -1.95337,0.14745 -5.33283,0.23451 -7.5027,0.19236 -3.14095,-0.0608 -4.12271,0.0917 -4.839,0.7399 -0.74024,0.66987 -1.029,0.70416 -1.62785,0.20718 -0.54122,-0.44921 -1.85469,-0.52393 -5.10537,-0.28119 -4.35652,0.32543 -5.06787,0.34 -7.08839,0.20723 -0.93866,-0.0617 -3.85739,0.0741 -17.63952,0.81386 -1.82313,0.0978 -9.92069,0.284 -17.99467,0.39953 -17.66358,0.25279 -27.67194,0.63664 -30.5436,1.1987 -2.31785,0.45366 -21.43516,0.3027 -22.21214,-0.17758 -0.43652,-0.26974 -7.88063,-0.0589 -14.25074,0.41434 -1.43243,0.10644 -6.33367,0.32462 -10.89152,0.47354 -4.55788,0.14898 -11.07114,0.37823 -14.47264,0.51792 -3.40158,0.13982 -12.45812,0.34376 -20.12564,0.444 -8.90201,0.11626 -16.25067,0.46536 -20.33285,0.96187 -3.51603,0.42766 -10.01546,0.94755 -14.4431,1.16907 -4.76029,0.23815 -9.11458,0.72282 -10.65474,1.16905 -1.43243,0.41507 -3.33455,0.88378 -4.21749,1.05066 l -1.59819,0.31078 z"
         id="path3860"
         inkscape:connector-curvature="0" />
    </clipPath>
    <clipPath
       clipPathUnits="userSpaceOnUse"
       id="clipPath4522-1">
      <rect
         style="fill:#226699;fill-opacity:1;stroke:none"
         id="rect4524-7"
         width="1116.6582"
         height="588.78345"
         x="3620.6797"
         y="1153.7546" />
    </clipPath>
    <clipPath
       clipPathUnits="userSpaceOnUse"
       id="clipPath4522-2">
      <rect
         style="fill:#226699;fill-opacity:1;stroke:none"
         id="rect4524-0"
         width="1116.6582"
         height="588.78345"
         x="3620.6797"
         y="1153.7546" />
    </clipPath>
    <clipPath
       clipPathUnits="userSpaceOnUse"
       id="clipPath4522-19">
      <rect
         style="fill:#226699;fill-opacity:1;stroke:none"
         id="rect4524-6"
         width="1116.6582"
         height="588.78345"
         x="3620.6797"
         y="1153.7546" />
    </clipPath>
  </defs>
  <rect
     style="opacity:1;fill:#000000;fill-opacity:1;stroke:none;stroke-width:10;stroke-linecap:round;stroke-linejoin:round;stroke-miterlimit:4;stroke-dasharray:none;stroke-dashoffset:0;stroke-opacity:1"
     id="rect4254"
     width="1920"
     height="1080"
     x="0"
     y="0"
     rx="0"
     ry="0" />
  <path
     style="fill:#ffffff"
     inkscape:connector-curvature="0"
     d="m 639.96393,836.04199 c 2.44478,0 4.89528,-0.56035 7.15268,-1.68908 5.82665,-2.9134 24.83891,-16.59289 24.83891,-70.29444 0,-107.63945 -91.34324,-191.9561 -207.95239,-191.9561 -116.60889,0 -207.95238,84.31665 -207.95238,191.9561 0,46.20328 17.1592,70.82067 19.11577,73.47536 2.76502,3.75207 7.02875,6.11089 11.67594,6.4614 0.40137,0.0301 0.80248,0.045 1.20211,0.045 l -0.001,0 0,63.98535 c 0,44.17254 35.80942,79.9817 79.98207,79.9817 l 0,31.99272 191.95573,0 0,-31.99272 c 44.17265,0 79.98182,-35.80916 79.98182,-79.9817 0,0 0,-71.98351 9.9e-4,-71.98351 z m -95.97898,167.96151 -159.96339,0 0,-15.9963 159.96339,0 0,15.9963 z m 79.98157,-95.97798 c 0,35.28194 -28.70326,63.98536 -63.9854,63.98536 l -191.95573,0 c -35.28213,0 -63.98565,-28.70342 -63.98565,-63.98536 l 0,-74.10316 c 8.36449,-10.52495 25.46497,-36.43796 30.54686,-77.81519 12.46201,4.53312 27.85874,7.9513 49.43496,7.9513 34.50852,0 69.44901,-8.58789 103.23791,-16.89263 31.59345,-7.76582 61.43537,-15.10005 88.71806,-15.10005 40.34139,0 47.98899,30.92064 47.98899,87.97986 l 0,87.97987 z m 15.99642,-87.97987 c 0,-39.5144 0,-103.97622 -63.98541,-103.97622 -59.51763,0 -127.97056,31.99268 -191.95597,31.99268 -31.99283,0 -47.98924,-7.99816 -63.98541,-15.99632 0,63.98533 -31.99283,95.97801 -31.99283,95.97801 0,0 -15.99616,-21.70596 -15.99616,-63.98533 0,-98.67274 84.32444,-175.95976 191.95597,-175.95976 107.63179,0 191.95597,77.28702 191.95597,175.95976 0,47.98899 -15.99616,55.98718 -15.99616,55.98718 z"
     id="path4470" />
  <path
     inkscape:connector-curvature="0"
     style="fill:#ffffff"
     d="m 527.98854,812.04746 a 15.996339,15.996339 0 0 1 -15.99642,15.99634 15.996339,15.996339 0 0 1 -15.99616,-15.99634 15.996339,15.996339 0 0 1 15.99616,-15.99634 15.996339,15.996339 0 0 1 15.99642,15.99634 z"
     id="path5132" />
  <path
     inkscape:connector-curvature="0"
     style="fill:#ffffff"
     d="m 432.01055,812.04746 a 15.996339,15.996339 0 0 1 -15.99616,15.99634 15.996339,15.996339 0 0 1 -15.99642,-15.99634 15.996339,15.996339 0 0 1 15.99642,-15.99634 15.996339,15.996339 0 0 1 15.99616,15.99634 z"
     id="path4476" />
  <text
     xml:space="preserve"
     style="font-style:normal;font-weight:normal;font-size:248.00354004px;line-height:125%;font-family:sans-serif;letter-spacing:0px;word-spacing:0px;fill:#000000;fill-opacity:1;stroke:none;stroke-width:1px;stroke-linecap:butt;stroke-linejoin:miter;stroke-opacity:1"
     x="938.7674"
     y="358.59158"
     id="text5093"
     sodipodi:linespacing="125%"
     transform="scale(1.0008234,0.99917727)"><tspan
       sodipodi:role="line"
       id="tspan5095"
       x="938.7674"
       y="358.59158"
       style="font-style:normal;font-variant:normal;font-weight:normal;font-stretch:normal;font-family:'Just Another Hand';-inkscape-font-specification:'Just Another Hand';fill:#ffffff">WTF?</tspan></text>
  <path
     style="opacity:1;fill:none;fill-opacity:1;stroke:#ffffff;stroke-width:15.99999905;stroke-linecap:round;stroke-linejoin:round;stroke-miterlimit:4;stroke-dasharray:none;stroke-dashoffset:0;stroke-opacity:1"
     d="m 1477.5814,268.84829 c 1.0218,28.56969 -18.7983,51.50725 -30.8304,74.55746 -14.7129,14.72519 -26.6527,37.48615 -53.5927,52.63044 -22.4711,15.57549 -43.4614,20.19276 -65.9023,26.91814 -6.2612,3.03883 -13.4011,93.67319 -13.1177,89.68324 -3.7922,1.27236 -48.8728,-58.92622 -63.1671,-59.49966 -18.9691,7.99512 -39.8833,5.00598 -64.8724,10.69803 -20.9717,6.16508 -36.0965,-2.66382 -62.1086,-0.3167 -29.6902,3.96808 -61.2147,-1.74751 -89.4236,-9.57028 -30.7607,-0.17214 -63.68604,-11.37171 -86.37487,-18.77252 -26.50408,-11.12331 -64.37287,-21.37908 -84.36583,-33.20367 -24.36012,-14.63548 -47.65326,-27.5929 -68.67839,-47.09155 -17.38694,-21.89746 -29.47665,-62.63124 -29.53244,-87.06775 -3.96889,-28.93413 8.04434,-52.94598 31.77625,-79.71319 16.28262,-16.16939 39.74395,-40.18105 65.52833,-52.64714 26.70957,-15.86201 50.38387,-20.66151 81.04933,-33.6363 28.91227,-11.340313 56.15182,-8.929231 90.33022,-12.048861 26.7886,-7.64495 55.5922,-3.406526 83.1166,-6.385357 26.6698,1.891081 56.2971,4.485243 87.3022,5.688343 26.3828,3.399609 63.9146,1.359556 87.3049,11.749185 31.3981,5.32706 65.2435,20.28053 85.2933,34.91508 26.5963,11.97868 43.7189,42.10076 61.9894,58.37677 18.4267,20.91276 28.4826,51.5736 32.4769,80.22163 -2.4848,3.13461 0.088,2.43847 3.9398,1.35799"
     id="ellipse5091"
     inkscape:connector-curvature="0"
     sodipodi:nodetypes="sscsssss" />
  <path
     style="fill:#ffffff"
     d="m 1487.9881,812.04732 a 15.996362,15.996362 0 0 1 -15.9964,15.99636 15.996362,15.996362 0 0 1 -15.9964,-15.99636 15.996362,15.996362 0 0 1 15.9964,-15.99637 15.996362,15.996362 0 0 1 15.9964,15.99637 z"
     id="path5115" />
  <path
     style="fill:#ffffff"
     d="m 1392.0099,812.04732 a 15.996362,15.996362 0 0 1 -15.9964,15.99636 15.996362,15.996362 0 0 1 -15.9963,-15.99636 15.996362,15.996362 0 0 1 15.9963,-15.99637 15.996362,15.996362 0 0 1 15.9964,15.99637 z"
     id="path4516" />
  <path
     inkscape:connector-curvature="0"
     d="m 1655.6315,905.96931 c -9.4285,-27.05342 -23.6762,-67.93769 -23.6762,-141.91108 10e-4,-52.25963 -21.5927,-100.83352 -60.8026,-136.77457 -38.8212,-35.58467 -91.0789,-55.18178 -147.1491,-55.18178 -116.6083,0 -207.9527,84.31675 -207.9527,191.95635 0,73.97339 -14.2478,114.85766 -23.6753,141.91108 -4.8885,14.02708 -8.421,24.16148 -8.3165,34.21487 0.33,31.82576 60.2812,31.82576 79.9809,31.82673 4.1172,0 8.0323,-1.64513 11.0043,-4.48042 14.1345,12.59187 32.5619,20.47678 52.9801,20.47678 l 0,31.99273 191.9564,0 0,-31.99273 c 20.4201,0 38.8505,-7.88588 52.985,-20.47969 -0.093,-0.0896 -0.2247,-0.11994 -0.3163,-0.21176 3.0003,3.00316 7.0716,4.69514 11.3167,4.69514 19.7006,-9.7e-4 79.6509,-9.7e-4 79.9808,-31.82673 0.1041,-10.05339 -3.4269,-20.18779 -8.3155,-34.21488 z m -151.6471,98.03429 -159.9636,0 0,-15.99633 159.9636,0 0,15.99633 z m -175.96,-31.99269 c -19.2007,0 -36.2505,-8.67672 -47.9881,-22.11213 l 0,-156.35799 c 59.3283,-11.87914 92.4438,-41.76397 117.0876,-64.00109 20.8557,-18.81993 33.5022,-29.46693 50.8742,-29.46693 17.9578,0 27.4078,11.19276 43.9139,32.64101 16.6065,21.57908 36.889,47.93539 76.0588,59.81063 0,34.82117 0,132.12815 -9e-4,157.37337 -11.7376,13.43641 -28.7884,22.11313 -47.9891,22.11313 l -191.9564,0 z m 255.9418,-15.99634 10e-4,-175.95998 c -79.9818,-15.99636 -79.9818,-95.97819 -135.9691,-95.97819 -55.9873,0 -71.9836,79.98183 -183.9581,95.97819 l 0,175.95998 c 0,0 -63.8195,-9.9e-4 -63.9855,-15.99636 -0.2381,-23.0358 31.9927,-63.98546 31.9927,-175.95998 0,-98.67289 84.3246,-175.95999 191.9564,-175.95999 107.6318,0 191.9563,77.2871 191.9553,175.95999 0,111.97452 32.232,152.92418 31.9927,175.95998 -0.1659,15.99537 -63.9854,15.99636 -63.9854,15.99636 z"
     id="path4518"
     style="fill:#ffffff" />
  <g
     style="display:none"
     display="none"
     id="g4520"
     transform="matrix(6.4285791,0,0,6.4285791,450.77105,224.67106)">
    <g
       style="display:inline"
       display="inline"
       id="g4522">
      <path
         style="fill:#000000"
         inkscape:connector-curvature="0"
         d="m 26,26.5 c -0.276367,0 -0.5,-0.223633 -0.5,-0.5 l 0,-10.600586 C 22.966797,14.756836 21.682617,13.088867 20.641602,11.735352 19.680664,10.486328 18.920898,9.5 17.5,9.5 16.168945,9.5 15.205078,10.369629 13.984375,11.470703 12.347656,12.948242 10.324219,14.773926 6.5,15.427734 L 6.5,26 C 6.5,26.276367 6.2763672,26.5 6,26.5 3.9541016,26.5 1.5136719,26.240234 1.5,25.004883 1.49414,24.463867 1.703125,23.865234 1.9921875,23.036133 2.5927734,21.313477 3.5,18.708984 3.5,14 3.5,7.5512695 8.9902344,2.5 16,2.5 c 7.009766,0 12.5,5.0512695 12.5,11.5 0,4.708984 0.907227,7.313477 1.507812,9.036133 0.289063,0.829101 0.498047,1.427734 0.492188,1.96875 C 30.486328,26.240234 28.045898,26.5 26,26.5 Z"
         id="path4524" />
      <path
         style="fill:#000000"
         inkscape:connector-curvature="0"
         d="m 16.000084,3 c 6.728516,0 12,4.8315401 11.999908,11 0,7 2.014946,9.55994 2,11 -0.01037,0.99995 -4,1 -4,1 l 9.2e-5,-11 c -5,-1 -5,-6 -8.5,-6 -3.5,0 -4.5,5 -11.5000001,6 l 0,11 c 0,0 -3.9896317,-5e-5 -4,-1 -0.014938,-1.44006 2,-4 2,-11 0,-6.1684599 5.2714844,-11 12.0000001,-11 m 0,-1 C 8.7103653,2 3.0000839,7.2710299 3.0000839,14 c 0,4.62438 -0.8907013,7.18022 -1.4800949,8.871481 C 1.2144089,23.748341 0.9936142,24.381889 1.0001373,25.01037 1.0207748,26.999941 4.7685242,26.999981 6.0000763,27 6.2652969,27 6.5196457,26.894649 6.7071838,26.70711 6.8947219,26.51957 7.0000839,26.265221 7.0000839,26 l 0,-10.15691 C 10.708916,15.100462 12.779091,13.232273 14.319702,11.84209 15.623489,10.66562 16.414032,10 17.500084,10 c 1.122604,0 1.713341,0.69969 2.745231,2.04053 1.038147,1.348978 2.306069,2.996679 4.754761,3.739043 l -8.4e-5,10.220417 c 0,0.265219 0.105362,0.519579 0.292893,0.707119 C 25.480423,26.894649 25.734787,27 26.000008,27 c 1.231544,-1.9e-5 4.979301,-5.9e-5 4.999939,-1.98963 0.0065,-0.628481 -0.214272,-1.262029 -0.519852,-2.138889 C 29.890694,21.18022 28.999992,18.62438 28.999992,14 29.000046,10.73306 27.650146,7.6964898 25.198975,5.4496593 22.772102,3.2251101 19.505219,2 16.000084,2 l 0,0 z"
         id="path4526" />
    </g>
  </g>
  <g
     id="g5124"
     transform="translate(-9.2702581,0)">
    <path
       inkscape:connector-curvature="0"
       inkscape:original-d="m 1381.5098,768.43108 29.8311,18.56155"
       inkscape:path-effect="#path-effect5105"
       id="path5103"
       d="m 1381.5098,768.43108 29.8311,18.56155"
       style="fill:none;fill-rule:evenodd;stroke:#ffffff;stroke-width:16;stroke-linecap:round;stroke-linejoin:round;stroke-miterlimit:4;stroke-dasharray:none;stroke-opacity:1" />
    <path
       style="fill:none;fill-rule:evenodd;stroke:#ffffff;stroke-width:16;stroke-linecap:round;stroke-linejoin:round;stroke-miterlimit:4;stroke-dasharray:none;stroke-opacity:1"
       d="m 1485.0368,768.43108 -29.8311,18.56155"
       id="path5107"
       inkscape:path-effect="#path-effect5109"
       inkscape:original-d="m 1485.0368,768.43108 -29.8311,18.56155"
       inkscape:connector-curvature="0" />
  </g>
  <path
     style="fill:none;fill-rule:evenodd;stroke:#ffffff;stroke-width:16;stroke-linecap:round;stroke-linejoin:round;stroke-miterlimit:4;stroke-dasharray:none;stroke-opacity:1"
     d="m 1488.2388,899.73927 c 0,0 -22.3181,-24 -64.3026,-24 -41.9845,0 -64.3025,24 -64.3025,24"
     id="path5119"
     inkscape:connector-curvature="0"
     sodipodi:nodetypes="czc" />
  <path
     sodipodi:nodetypes="csssc"
     inkscape:connector-curvature="0"
     id="path5136"
     d="m 528.30568,887.73927 -32.15127,-10 -32.15128,16 -32.15127,-14 -32.15128,8"
     style="fill:none;fill-rule:evenodd;stroke:#ffffff;stroke-width:16;stroke-linecap:round;stroke-linejoin:round;stroke-miterlimit:4;stroke-dasharray:none;stroke-opacity:1" />
</svg>
