<?xml version="1.0" encoding="UTF-8" standalone="no"?>
<!DOCTYPE svg PUBLIC "-//W3C//DTD SVG 1.1//EN" "http://www.w3.org/Graphics/SVG/1.1/DTD/svg11.dtd">
<svg width="100%" height="100%" viewBox="0 0 1921 1080" version="1.1" xmlns="http://www.w3.org/2000/svg" xmlns:xlink="http://www.w3.org/1999/xlink" xml:space="preserve" xmlns:serif="http://www.serif.com/" style="fill-rule:evenodd;clip-rule:evenodd;stroke-linejoin:round;stroke-miterlimit:1.41421;">
    <g transform="matrix(1,0,0,1,-8,-2360)">
        <g id="talking-legos" transform="matrix(1,0,0,1,-3931.87,2360)">
            <rect x="3940" y="0" width="1920" height="1080"/>
            <g transform="matrix(0.720227,0,0,0.720227,4173.15,298.176)">
                <g>
                    <path d="M256.121,932.312C255.001,931.192 254.237,937.946 254.237,940.319C254.237,947.551 253.766,954.092 253.766,961.044C253.766,962.154 254.237,964.341 254.237,964.341C254.237,964.341 262.374,965.754 266.484,965.754C270.329,965.754 281.873,964.358 286.267,963.87C301.945,962.128 323.929,961.747 339.493,964.341C342.649,964.867 345.571,966.311 348.913,965.754C377.592,960.975 408.081,970.124 436.995,964.341C445.863,962.568 455.529,963.399 464.314,963.399C464.785,963.399 465.394,963.732 465.727,963.399C465.976,963.15 465.256,931.451 465.256,934.667" style="fill:none;stroke:white;stroke-width:20.44px;stroke-linecap:round;stroke-miterlimit:1.5;stroke-dasharray:0,1.02,0,0;"/>
                    <path d="M161.445,764.156C160.518,764.156 160.503,765.052 160.503,766.04C160.503,776.186 159.561,786.331 159.561,797.128C159.561,820.932 162.128,873.174 177.931,888.977C193.556,904.602 217.65,917.395 241.519,923.362C277.33,932.315 318.615,919.085 354.565,928.072C359.917,929.41 365.89,926.782 371.051,928.072C382.066,930.826 450.235,931.239 461.017,928.543C469.964,926.307 480.627,929.072 489.278,926.188C513.788,918.018 545.616,899.896 554.751,872.492C564.099,844.446 570.506,788.294 564.642,758.975C561.45,743.012 565.951,725.483 562.758,709.517C559.492,693.184 566.377,668.859 552.867,655.349C535.573,638.056 514.283,625.524 489.749,621.435C467.906,617.795 447.219,624.854 426.632,628.972C387.215,636.855 346.071,642.753 306.992,652.523C298.921,654.541 290.891,658.475 282.97,660.059C268.109,663.032 232.754,667.029 218.91,662.415C214.488,660.94 201.998,657.065 199.598,653.465C198.451,651.744 191.042,640.354 188.765,642.632C187.444,643.952 191.984,648.598 192.533,649.697C194.396,653.423 193.009,658.657 194.888,662.415C199.242,671.122 194.085,689.649 192.062,697.741C190.055,705.768 173.464,736.593 168.04,742.018C164.464,745.594 158.359,749.343 155.793,751.909C152.858,754.844 144.079,755.33 142.133,751.438C133.276,733.724 135.668,713.801 130.829,694.444C119.86,650.568 134.58,607.339 154.38,567.739C165.084,546.33 174.48,524.284 194.417,509.332C225.738,485.841 288.305,463.8 327.246,458.932C337.655,457.631 352.088,450.658 362.573,453.28C387.645,459.548 413.004,463.061 437.937,469.295C462.108,475.337 491.799,482.898 511.888,498.969C549.568,529.114 582.557,589.486 591.962,636.508C595.645,654.926 599.966,678.913 595.259,697.741C593.845,703.398 589.536,709.259 587.722,714.698C585.249,722.12 579.207,729.592 575.005,735.894C572.968,738.95 567.261,745.925 568.881,744.844" style="fill:none;stroke:white;stroke-width:20.83px;stroke-linecap:round;stroke-miterlimit:1.5;stroke-dasharray:0,1.04,0,0;"/>
                    <path d="M299.926,726.474C299.926,713.934 285.007,734.218 297.1,738.25C302.551,740.066 317.101,730.762 313.115,724.119C308.073,715.715 296.531,719.386 298.513,729.3C299.911,736.289 311.037,730.683 309.818,724.59C307.641,713.705 292.765,722.245 291.448,728.829C290.093,735.603 302.569,734.46 306.05,733.068" style="fill:none;stroke:white;stroke-width:20.44px;stroke-linecap:round;stroke-miterlimit:1.5;stroke-dasharray:0,1.02,0,0;"/>
                    <path d="M420.038,719.88C411.691,711.533 401.007,734.198 407.791,738.721C419.017,746.204 425.69,737.441 425.69,726.945C425.69,724.071 422.242,723.87 420.509,723.177C412.522,719.982 411.718,733.015 420.038,730.242C422.292,729.491 412.501,723.068 412.501,731.655" style="fill:none;stroke:white;stroke-width:20.44px;stroke-linecap:round;stroke-miterlimit:1.5;stroke-dasharray:0,1.02,0,0;"/>
                </g>
                <g transform="matrix(1.38845,0,0,1.38845,-323.713,-3690.75)">
                    <path d="M496.148,3230.51L496.711,3230.51L497.269,3230.52L497.829,3230.53L498.384,3230.53L498.934,3230.55L499.476,3230.56L500.188,3230.58L500.9,3230.59L502.36,3230.62L503.105,3230.64L503.859,3230.66L504.622,3230.68L505.01,3230.69L505.4,3230.7L505.791,3230.72L506.179,3230.73L506.574,3230.75L506.973,3230.76L507.368,3230.78L507.77,3230.8L508.172,3230.82L508.574,3230.85L508.983,3230.87L509.388,3230.9L509.797,3230.93L510.209,3230.96L510.624,3230.99L511.035,3231.03L511.45,3231.07L511.867,3231.11L512.284,3231.15L512.704,3231.2L513.123,3231.25L513.546,3231.3L513.971,3231.35L514.395,3231.41L514.819,3231.47L515.239,3231.54L515.459,3231.58L515.675,3231.61L515.891,3231.65L516.1,3231.68L516.315,3231.72L516.537,3231.76L516.752,3231.8L516.961,3231.84L517.176,3231.89L517.396,3231.93L517.61,3231.97L517.825,3232.02L518.045,3232.07L518.258,3232.12L518.472,3232.16L518.697,3232.22L518.91,3232.27L519.122,3232.32L519.347,3232.38L519.565,3232.43L519.777,3232.49L519.995,3232.54L520.218,3232.61L520.435,3232.67L520.651,3232.73L520.868,3232.79L521.084,3232.86L521.305,3232.92L521.521,3232.99L521.735,3233.06L521.962,3233.13L522.182,3233.2L522.396,3233.28L522.609,3233.35L522.828,3233.43L523.052,3233.51L523.27,3233.59L523.481,3233.67L523.699,3233.75L523.921,3233.84L524.142,3233.93L524.358,3234.01L524.573,3234.1L524.787,3234.2L525.001,3234.29L525.225,3234.39L525.444,3234.49L525.65,3234.58L525.878,3234.69L526.107,3234.8L526.331,3234.9L526.555,3235.01L526.777,3235.12L527,3235.24L527.222,3235.35L527.439,3235.47L527.659,3235.58L527.879,3235.7L528.095,3235.82L528.314,3235.94L528.528,3236.06L528.741,3236.18L528.959,3236.31L529.172,3236.43L529.384,3236.56L529.595,3236.69L529.806,3236.81L530.021,3236.95L530.226,3237.08L530.432,3237.2L530.645,3237.34L530.853,3237.48L531.057,3237.61L531.26,3237.74L531.467,3237.88L531.669,3238.02L531.871,3238.16L532.075,3238.3L532.276,3238.44L532.476,3238.58L532.679,3238.73L532.879,3238.87L533.073,3239.02L533.271,3239.16L533.468,3239.31L533.661,3239.45L533.858,3239.6L534.053,3239.76L534.245,3239.9L534.44,3240.06L534.63,3240.21L534.823,3240.36L535.013,3240.51L535.201,3240.67L535.39,3240.82L535.578,3240.98L535.765,3241.14L535.952,3241.29L536.138,3241.45L536.32,3241.61L536.508,3241.77L536.69,3241.93L536.87,3242.09L537.056,3242.25L537.236,3242.42L537.412,3242.58L537.594,3242.74L537.775,3242.91L537.952,3243.07L538.128,3243.24L538.305,3243.4L538.478,3243.57L538.653,3243.73L538.83,3243.91L539.004,3244.07L539.174,3244.24L539.344,3244.41L539.517,3244.58L539.688,3244.75L539.856,3244.92L540.024,3245.09L540.193,3245.27L540.36,3245.44L540.525,3245.61L540.691,3245.78L540.856,3245.96L541.02,3246.13L541.183,3246.31L541.346,3246.48L541.508,3246.66L541.669,3246.84L541.832,3247.01L542.145,3247.37L542.46,3247.72L542.77,3248.08L543.078,3248.43L543.384,3248.8L543.685,3249.16L543.983,3249.51L544.279,3249.88L544.571,3250.24L544.86,3250.61L545.146,3250.97L545.428,3251.34L545.706,3251.7L545.983,3252.07L546.255,3252.44L546.523,3252.81L546.789,3253.18L547.051,3253.55L547.311,3253.91L547.567,3254.28L547.818,3254.65L548.052,3255L548.342,3255.47L548.596,3255.95L548.815,3256.45L548.996,3256.97L549.139,3257.5L549.243,3258.04L549.307,3258.58L549.332,3259.13L549.316,3259.68L549.261,3260.22L549.166,3260.76L549.031,3261.29L548.859,3261.81L548.649,3262.32L548.402,3262.81L548.121,3263.28L547.806,3263.72L547.459,3264.15L547.082,3264.55L546.677,3264.92L546.246,3265.25L545.792,3265.56L545.316,3265.83L544.822,3266.07L544.312,3266.27L543.789,3266.43L543.255,3266.55L542.714,3266.64L542.168,3266.68L541.62,3266.69L541.073,3266.65L540.531,3266.58L539.995,3266.46L539.469,3266.31L538.956,3266.12L538.458,3265.89L537.978,3265.62L537.519,3265.33L537.082,3264.99L536.671,3264.63L536.288,3264.24L535.934,3263.82L535.611,3263.38L535.403,3263.07L535.204,3262.78L535.003,3262.49L534.8,3262.2L534.593,3261.91L534.385,3261.62L534.172,3261.33L533.957,3261.04L533.74,3260.75L533.52,3260.46L533.297,3260.17L533.073,3259.88L532.845,3259.6L532.616,3259.31L532.384,3259.03L532.149,3258.74L531.912,3258.46L531.674,3258.18L531.433,3257.9L531.189,3257.62L530.944,3257.34L530.693,3257.06L530.571,3256.93L530.447,3256.79L530.323,3256.66L530.198,3256.52L530.072,3256.39L529.945,3256.25L529.818,3256.12L529.691,3255.98L529.563,3255.85L529.434,3255.72L529.307,3255.59L529.177,3255.45L529.047,3255.32L528.918,3255.19L528.789,3255.07L528.657,3254.94L528.523,3254.81L528.393,3254.68L528.264,3254.55L528.133,3254.43L527.998,3254.3L527.865,3254.18L527.731,3254.05L527.597,3253.93L527.466,3253.81L527.334,3253.68L527.196,3253.56L527.06,3253.44L526.93,3253.32L526.793,3253.2L526.656,3253.08L526.524,3252.97L526.386,3252.85L526.25,3252.73L526.114,3252.62L525.978,3252.5L525.841,3252.39L525.704,3252.28L525.566,3252.17L525.428,3252.05L525.293,3251.95L525.154,3251.84L525.018,3251.73L524.879,3251.62L524.742,3251.52L524.605,3251.41L524.464,3251.31L524.327,3251.2L524.188,3251.1L524.046,3251L523.908,3250.9L523.773,3250.8L523.633,3250.7L523.494,3250.6L523.358,3250.51L523.218,3250.41L523.077,3250.32L522.94,3250.23L522.799,3250.13L522.658,3250.04L522.52,3249.95L522.386,3249.87L522.244,3249.78L522.101,3249.69L521.967,3249.6L521.828,3249.52L521.689,3249.43L521.55,3249.35L521.411,3249.27L521.276,3249.19L521.136,3249.11L520.995,3249.03L520.86,3248.96L520.72,3248.88L520.584,3248.81L520.447,3248.74L520.306,3248.66L520.17,3248.59L520.033,3248.52L519.897,3248.45L519.76,3248.39L519.623,3248.32L519.491,3248.26L519.357,3248.2L519.232,3248.14L519.118,3248.09L519.009,3248.04L518.888,3247.99L518.767,3247.93L518.645,3247.89L518.523,3247.84L518.406,3247.79L518.288,3247.74L518.165,3247.7L518.035,3247.65L517.911,3247.6L517.792,3247.56L517.667,3247.51L517.535,3247.47L517.403,3247.42L517.276,3247.38L517.155,3247.34L517.022,3247.3L516.888,3247.26L516.759,3247.22L516.625,3247.18L516.489,3247.14L516.354,3247.1L516.218,3247.06L516.087,3247.03L515.95,3246.99L515.807,3246.95L515.669,3246.92L515.537,3246.88L515.393,3246.85L515.247,3246.81L515.114,3246.78L514.969,3246.75L514.822,3246.72L514.682,3246.69L514.535,3246.66L514.388,3246.63L514.247,3246.6L514.099,3246.57L513.944,3246.54L513.796,3246.51L513.653,3246.48L513.504,3246.46L513.348,3246.43L513.198,3246.41L513.048,3246.38L512.901,3246.36L512.587,3246.31L512.275,3246.26L511.962,3246.22L511.649,3246.18L511.331,3246.14L511.009,3246.1L510.687,3246.07L510.361,3246.03L510.034,3246L509.704,3245.97L509.37,3245.94L509.039,3245.91L508.705,3245.89L508.367,3245.86L508.025,3245.84L507.687,3245.82L507.343,3245.8L506.998,3245.78L506.654,3245.77L506.303,3245.75L505.955,3245.74L505.605,3245.72L505.249,3245.71L504.896,3245.7L504.544,3245.68L504.19,3245.67L503.472,3245.65L502.752,3245.64L502.028,3245.62L500.572,3245.59L499.838,3245.57L499.113,3245.55L498.605,3245.54L498.101,3245.53L497.597,3245.52L497.093,3245.52L496.585,3245.51L496.076,3245.51L495.567,3245.51L495.057,3245.51L494.542,3245.51L494.028,3245.51L493.512,3245.52L492.996,3245.53L492.479,3245.54L491.96,3245.55L491.44,3245.57L490.921,3245.58L490.402,3245.6L489.878,3245.62L489.355,3245.65L488.836,3245.67L488.313,3245.7L487.79,3245.73L487.267,3245.76L486.742,3245.8L486.219,3245.84L485.697,3245.88L485.175,3245.92L484.652,3245.97L484.129,3246.02L483.606,3246.07L483.083,3246.12L482.826,3246.15L482.562,3246.18L482.307,3246.21L482.048,3246.24L481.784,3246.27L481.525,3246.3L481.266,3246.34L481.007,3246.37L480.748,3246.4L480.489,3246.44L480.23,3246.47L479.971,3246.51L479.713,3246.54L479.458,3246.58L479.2,3246.62L478.942,3246.66L478.688,3246.7L478.426,3246.74L478.173,3246.78L477.919,3246.82L477.662,3246.86L477.405,3246.91L477.149,3246.95L476.896,3247L476.644,3247.04L476.393,3247.09L476.137,3247.14L475.886,3247.18L475.635,3247.23L475.38,3247.28L475.13,3247.33L474.88,3247.38L474.626,3247.44L474.377,3247.49L474.132,3247.54L473.88,3247.6L473.632,3247.65L473.388,3247.71L473.137,3247.76L472.89,3247.82L472.647,3247.88L472.397,3247.94L472.152,3248L471.911,3248.06L471.67,3248.12L471.426,3248.19L471.178,3248.25L470.939,3248.32L470.701,3248.38L470.459,3248.45L470.217,3248.51L469.98,3248.58L469.743,3248.65L469.504,3248.72L469.264,3248.79L469.03,3248.86L468.795,3248.93L468.558,3249.01L468.325,3249.08L468.093,3249.15L467.857,3249.23L467.626,3249.31L467.4,3249.38L467.17,3249.46L466.937,3249.54L466.708,3249.62L466.481,3249.7L466.254,3249.78L466.027,3249.87L465.802,3249.95L465.577,3250.03L465.353,3250.12L465.133,3250.2L464.911,3250.29L464.689,3250.38L464.472,3250.47L464.252,3250.56L464.032,3250.65L463.817,3250.74L463.6,3250.83L463.383,3250.93L463.17,3251.02L462.955,3251.12L462.744,3251.21L462.534,3251.31L462.321,3251.41L462.113,3251.5L461.906,3251.6L461.696,3251.7L461.491,3251.8L461.286,3251.91L461.079,3252.01L460.879,3252.11L460.677,3252.22L460.473,3252.33L460.273,3252.43L460.077,3252.54L459.879,3252.65L459.679,3252.76L459.482,3252.87L459.29,3252.98L459.096,3253.09L458.903,3253.2L458.714,3253.32L458.522,3253.43L458.332,3253.55L458.143,3253.67L457.955,3253.79L457.771,3253.9L457.587,3254.02L457.402,3254.14L457.222,3254.26L457.038,3254.39L456.856,3254.51L456.678,3254.64L456.501,3254.76L456.325,3254.89L456.148,3255.01L455.974,3255.14L455.801,3255.27L455.63,3255.4L455.459,3255.53L455.286,3255.66L455.118,3255.8L454.954,3255.93L454.787,3256.06L454.619,3256.2L454.455,3256.34L454.295,3256.47L454.133,3256.61L453.969,3256.76L453.812,3256.89L453.653,3257.04L453.496,3257.18L453.342,3257.32L453.186,3257.47L453.034,3257.61L452.881,3257.76L452.729,3257.91L452.581,3258.06L452.431,3258.21L452.282,3258.36L452.139,3258.51L451.992,3258.66L451.847,3258.82L451.707,3258.97L451.564,3259.13L451.423,3259.29L451.284,3259.45L451.148,3259.61L451.011,3259.77L450.872,3259.93L450.738,3260.1L450.606,3260.26L450.474,3260.42L450.343,3260.59L450.214,3260.76L450.085,3260.93L449.957,3261.1L449.831,3261.27L449.706,3261.45L449.583,3261.62L449.46,3261.79L449.338,3261.97L449.219,3262.15L449.099,3262.33L448.98,3262.51L448.863,3262.69L448.748,3262.88L448.635,3263.06L448.521,3263.25L448.408,3263.44L448.298,3263.63L448.189,3263.82L448.08,3264.01L447.973,3264.2L447.868,3264.4L447.762,3264.6L447.659,3264.79L447.558,3264.99L447.456,3265.19L447.356,3265.4L447.258,3265.6L447.16,3265.81L447.065,3266.01L446.97,3266.22L446.877,3266.43L446.785,3266.65L446.694,3266.86L446.604,3267.08L446.516,3267.3L446.429,3267.52L446.344,3267.74L446.248,3267.99L446.036,3268.49L445.788,3268.98L445.504,3269.45L445.187,3269.9L444.839,3270.32L444.46,3270.72L444.054,3271.08L443.621,3271.42L443.166,3271.72L442.689,3271.99L442.194,3272.23L441.683,3272.43L441.159,3272.59L440.625,3272.71L440.083,3272.79L439.537,3272.83L438.989,3272.84L438.443,3272.8L437.901,3272.72L437.365,3272.6L436.84,3272.45L436.328,3272.25L435.831,3272.02L435.352,3271.76L434.894,3271.46L434.459,3271.12L434.049,3270.76L433.667,3270.37L433.315,3269.95L432.995,3269.5L432.707,3269.04L432.455,3268.55L432.238,3268.05L432.059,3267.53L431.919,3267L431.817,3266.46L431.755,3265.92L431.732,3265.37L431.75,3264.82L431.808,3264.28L431.905,3263.74L432.041,3263.21L432.216,3262.69L432.331,3262.38L432.46,3262.05L432.591,3261.72L432.723,3261.39L432.858,3261.07L432.996,3260.74L433.135,3260.42L433.277,3260.1L433.421,3259.78L433.568,3259.46L433.716,3259.15L433.867,3258.84L434.02,3258.53L434.174,3258.22L434.332,3257.91L434.492,3257.6L434.652,3257.3L434.816,3257L434.982,3256.7L435.149,3256.4L435.319,3256.11L435.492,3255.81L435.665,3255.52L435.84,3255.23L436.018,3254.94L436.199,3254.66L436.38,3254.37L436.563,3254.09L436.748,3253.81L436.937,3253.53L437.126,3253.26L437.317,3252.98L437.511,3252.71L437.706,3252.44L437.903,3252.17L438.101,3251.91L438.301,3251.64L438.503,3251.38L438.707,3251.12L438.913,3250.86L439.122,3250.6L439.331,3250.35L439.539,3250.1L439.752,3249.85L439.968,3249.6L440.184,3249.36L440.4,3249.11L440.618,3248.87L440.841,3248.63L441.061,3248.39L441.283,3248.16L441.511,3247.92L441.737,3247.69L441.964,3247.46L442.194,3247.23L442.424,3247.01L442.656,3246.78L442.891,3246.56L443.124,3246.34L443.363,3246.12L443.6,3245.91L443.838,3245.69L444.081,3245.48L444.319,3245.27L444.562,3245.06L444.808,3244.85L445.053,3244.65L445.297,3244.45L445.545,3244.25L445.797,3244.05L446.047,3243.85L446.296,3243.66L446.548,3243.46L446.802,3243.27L447.058,3243.08L447.314,3242.89L447.568,3242.71L447.827,3242.52L448.086,3242.34L448.348,3242.16L448.606,3241.98L448.866,3241.81L449.131,3241.63L449.393,3241.46L449.659,3241.28L449.926,3241.12L450.191,3240.95L450.458,3240.78L450.725,3240.62L450.993,3240.46L451.265,3240.3L451.535,3240.14L451.806,3239.98L452.081,3239.82L452.354,3239.67L452.624,3239.52L452.898,3239.37L453.177,3239.22L453.453,3239.07L453.727,3238.93L454.005,3238.78L454.287,3238.64L454.563,3238.5L454.843,3238.36L455.124,3238.22L455.402,3238.09L455.685,3237.95L455.969,3237.82L456.249,3237.69L456.534,3237.56L456.819,3237.43L457.102,3237.3L457.389,3237.18L457.673,3237.05L457.958,3236.93L458.247,3236.81L458.533,3236.69L458.819,3236.57L459.11,3236.45L459.398,3236.34L459.687,3236.23L459.979,3236.11L460.269,3236L460.559,3235.89L460.85,3235.79L461.141,3235.68L461.433,3235.58L461.726,3235.47L462.019,3235.37L462.309,3235.27L462.603,3235.17L462.901,3235.07L463.196,3234.97L463.488,3234.88L463.784,3234.78L464.081,3234.69L464.374,3234.6L464.671,3234.51L464.969,3234.42L465.263,3234.33L465.558,3234.24L465.858,3234.16L466.157,3234.07L466.453,3233.99L466.75,3233.91L467.051,3233.83L467.352,3233.75L467.645,3233.67L467.943,3233.59L468.245,3233.52L468.548,3233.44L468.847,3233.37L469.142,3233.3L469.446,3233.22L469.746,3233.15L470.042,3233.09L470.347,3233.02L470.648,3232.95L470.945,3232.88L471.25,3232.82L471.552,3232.76L471.85,3232.69L472.152,3232.63L472.454,3232.57L472.752,3232.51L473.055,3232.45L473.358,3232.39L473.658,3232.34L473.961,3232.28L474.265,3232.23L474.568,3232.18L474.868,3232.12L475.168,3232.07L475.468,3232.02L475.773,3231.97L476.077,3231.92L476.374,3231.88L476.679,3231.83L476.979,3231.78L477.28,3231.74L477.586,3231.7L477.887,3231.65L478.188,3231.61L478.489,3231.57L478.79,3231.53L479.092,3231.49L479.393,3231.45L479.695,3231.41L479.996,3231.38L480.294,3231.34L480.595,3231.31L480.901,3231.27L481.198,3231.24L481.502,3231.21L482.101,3231.14L482.699,3231.09L483.298,3231.03L483.896,3230.98L484.494,3230.93L485.092,3230.88L485.687,3230.84L486.279,3230.8L486.873,3230.76L487.464,3230.72L488.054,3230.69L488.646,3230.66L489.232,3230.64L489.816,3230.61L490.403,3230.59L490.986,3230.57L491.567,3230.56L492.146,3230.54L492.724,3230.53L493.3,3230.52L493.873,3230.51L494.445,3230.51L495.012,3230.51L495.581,3230.51L496.148,3230.51Z" style="fill:white;"/>
                </g>
            </g>
            <g transform="matrix(0.720227,0,0,0.720227,4368.16,294.81)">
                <g>
                    <path d="M1396.49,938.394C1396.49,946.144 1395.62,954.35 1395.62,961.831C1395.62,962.853 1393.47,965.76 1394.32,966.605C1397.57,969.855 1404.99,967.09 1409.07,967.907C1422.48,970.589 1436.13,968.073 1449.44,966.171C1468.11,963.504 1500.35,965.261 1518.88,967.907C1532.77,969.892 1547.48,966.887 1561.42,969.21C1569.44,970.547 1590.36,965.171 1595.7,970.512C1599.62,974.428 1602.22,953.866 1602.22,948.376C1602.22,945.436 1601.22,940.439 1601.78,940.998" style="fill:none;stroke:white;stroke-width:20.44px;stroke-linecap:round;stroke-miterlimit:1.5;stroke-dasharray:0,1.02,0,0;"/>
                    <path d="M1328.35,903.238C1328.35,907.795 1336.43,911.474 1342.24,915.825C1351.88,923.058 1390.51,927.543 1403.43,927.543C1419.11,927.543 1436.85,931.45 1452.48,928.845C1466.65,926.483 1499.51,921.412 1512.81,924.071C1532.01,927.911 1566.59,931.37 1585.72,927.543C1590.07,926.674 1594.15,929.885 1598.31,928.845C1618.36,923.833 1641.02,932.056 1659.51,919.731C1670.69,912.276 1675.42,889.08 1678.6,876.328C1684.95,850.947 1685.98,822.951 1681.64,796.902C1679.66,785.006 1681.62,772.408 1679.91,760.444C1677.9,746.401 1680.22,722.764 1676,710.097C1674.08,704.332 1663.96,700.824 1658.2,697.944C1651.72,694.702 1645.36,687.982 1639.54,683.622C1629.28,675.924 1615.8,667.641 1604.82,661.052C1575.88,643.691 1565.03,601.203 1532.34,590.306C1513.1,583.894 1493.33,601.551 1479.39,612.008C1470.17,618.918 1456.95,623.162 1448.57,631.539C1434.28,645.833 1417.36,662.333 1399.96,672.771C1390.09,678.692 1380.54,681.809 1371.31,687.962C1362.92,693.557 1342.73,692.716 1332.25,696.208C1328.75,697.375 1322.86,695.185 1320.1,697.944C1319.43,698.615 1321.4,708.349 1321.84,710.531C1323.91,720.888 1325.55,731.841 1324.01,742.649C1322.61,752.403 1320.19,761.946 1318.8,771.729C1316.32,789.045 1320.5,807.511 1317.06,824.68C1314.48,837.61 1320.09,851.195 1317.5,864.176C1315.75,872.909 1320.5,895.895 1314.02,902.37C1313.55,902.847 1309.77,902.89 1307.95,904.106C1304.97,906.09 1299.81,910.436 1296.66,911.484C1296.23,911.628 1274.23,907.611 1272.36,907.144C1261.77,904.498 1248.51,910.056 1238.94,903.672C1219.74,890.876 1219.84,869.802 1225.05,848.985C1227.55,838.974 1235.65,831.738 1238.07,822.075C1242.73,803.425 1245.2,784.154 1247.62,764.784C1250.87,738.758 1258.15,713.373 1261.07,687.094C1264.72,654.253 1265.27,621.474 1277.57,590.74C1281.27,581.478 1288.9,574.146 1293.19,565.567C1307.29,537.375 1329.18,520.208 1354.39,502.2C1382.3,482.265 1409.75,464.504 1442.49,453.589C1457.94,448.439 1497.35,446.963 1513.67,449.683C1522.47,451.149 1531.11,455.77 1540.15,457.061C1580.4,462.812 1621.8,474.902 1654.3,500.897C1668.14,511.973 1686.93,542.244 1697.27,557.755C1713.62,582.282 1728.22,608.485 1731.55,638.483C1733.82,658.897 1736.66,679.249 1738.93,699.681C1741.93,726.681 1740.13,754.448 1745.01,781.277C1749.12,803.862 1754.81,826.006 1758.03,848.551C1759.66,859.964 1766.1,871.775 1764.11,883.707C1760.16,907.356 1747.7,901.184 1732.42,906.276C1723.34,909.303 1715,913.096 1705.08,910.616C1697.88,908.818 1685.08,908.446 1678.17,908.446C1677.19,908.446 1675.02,908.067 1676.87,907.144" style="fill:none;stroke:white;stroke-width:20.44px;stroke-linecap:round;stroke-miterlimit:1.5;stroke-dasharray:0,1.02,0,0;"/>
                    <path d="M1445.53,726.59C1437.11,726.59 1437.67,736.59 1445.53,733.968C1451.94,731.833 1450.35,719.646 1443.36,719.646C1438.15,719.646 1436.45,734.463 1438.15,737.875C1441.83,745.227 1455.94,733.668 1453.78,730.062C1451.6,726.426 1440.25,727.967 1437.72,730.496C1437.5,730.714 1436.88,732.398 1437.29,732.666C1439.77,734.324 1452.66,733.602 1454.21,730.496C1454.78,729.362 1450.09,727.565 1449.44,727.024C1447.93,725.768 1443.99,720.596 1441.63,721.382C1440.1,721.891 1433.84,730.088 1435.55,731.798C1437.52,733.772 1445.93,731.954 1443.8,728.76C1438.04,720.127 1426.01,733.32 1435.98,738.309C1440.68,740.659 1446.9,731.468 1444.23,727.458C1439.48,720.335 1430.51,728.264 1435.12,734.402C1438.03,738.283 1445.82,730.064 1443.8,727.024C1440.93,722.727 1432.08,727.478 1432.08,731.798" style="fill:none;stroke:white;stroke-width:20.44px;stroke-linecap:round;stroke-miterlimit:1.5;stroke-dasharray:0,1.02,0,0;"/>
                    <path d="M1560.12,720.514C1556.75,720.514 1554.04,717.799 1551,720.08C1546.92,723.139 1539.08,737.303 1545.79,741.781C1555.88,748.507 1569.38,736.586 1565.76,725.722C1563.47,718.857 1538.98,724.401 1547.96,737.875C1550.05,741.001 1562.36,737.302 1561.42,733.534C1561.05,732.047 1556.71,725.555 1554.91,726.156C1553.52,726.619 1551.91,734.208 1553.17,734.837C1554.69,735.594 1556.22,733.961 1557.08,733.1C1562.39,727.788 1552.74,729.8 1552.74,733.534" style="fill:none;stroke:white;stroke-width:20.44px;stroke-linecap:round;stroke-miterlimit:1.5;stroke-dasharray:0,1.02,0,0;"/>
                </g>
                <g transform="matrix(1.38845,0,0,1.38845,-594.477,-409.329)">
                    <path d="M1470.33,889.127C1489.46,908.265 1530.2,901.135 1552.01,890.408" style="fill:none;stroke:white;stroke-width:10px;stroke-linecap:round;stroke-miterlimit:1.5;stroke-dasharray:0,0.5,0,0;"/>
                </g>
            </g>
        </g>
    </g>
</svg>
