<?xml version="1.0" encoding="UTF-8" standalone="no"?>
<!DOCTYPE svg PUBLIC "-//W3C//DTD SVG 1.1//EN" "http://www.w3.org/Graphics/SVG/1.1/DTD/svg11.dtd">
<svg width="100%" height="100%" viewBox="0 0 1920 1080" version="1.1" xmlns="http://www.w3.org/2000/svg" xmlns:xlink="http://www.w3.org/1999/xlink" xml:space="preserve" xmlns:serif="http://www.serif.com/" style="fill-rule:evenodd;clip-rule:evenodd;stroke-linejoin:round;stroke-miterlimit:1.41421;">
    <g transform="matrix(1,0,0,1,-2020,-2360)">
        <g id="talking-legos-l-thinks" transform="matrix(1,0,0,1,-1920,2360)">
            <rect x="3940" y="0" width="1920" height="1080"/>
            <g transform="matrix(0.720227,0,0,0.720227,4173.15,298.176)">
                <g>
                    <path d="M256.121,932.312C255.001,931.192 254.237,937.946 254.237,940.319C254.237,947.551 253.766,954.092 253.766,961.044C253.766,962.154 254.237,964.341 254.237,964.341C254.237,964.341 262.374,965.754 266.484,965.754C270.329,965.754 281.873,964.358 286.267,963.87C301.945,962.128 323.929,961.747 339.493,964.341C342.649,964.867 345.571,966.311 348.913,965.754C377.592,960.975 408.081,970.124 436.995,964.341C445.863,962.568 455.529,963.399 464.314,963.399C464.785,963.399 465.394,963.732 465.727,963.399C465.976,963.15 465.256,931.451 465.256,934.667" style="fill:none;stroke:white;stroke-width:20.44px;stroke-linecap:round;stroke-miterlimit:1.5;stroke-dasharray:0,1.02,0,0;"/>
                    <path d="M161.445,764.156C160.518,764.156 160.503,765.052 160.503,766.04C160.503,776.186 159.561,786.331 159.561,797.128C159.561,820.932 162.128,873.174 177.931,888.977C193.556,904.602 217.65,917.395 241.519,923.362C277.33,932.315 318.615,919.085 354.565,928.072C359.917,929.41 365.89,926.782 371.051,928.072C382.066,930.826 450.235,931.239 461.017,928.543C469.964,926.307 480.627,929.072 489.278,926.188C513.788,918.018 545.616,899.896 554.751,872.492C564.099,844.446 570.506,788.294 564.642,758.975C561.45,743.012 565.951,725.483 562.758,709.517C559.492,693.184 566.377,668.859 552.867,655.349C535.573,638.056 514.283,625.524 489.749,621.435C467.906,617.795 447.219,624.854 426.632,628.972C387.215,636.855 346.071,642.753 306.992,652.523C298.921,654.541 290.891,658.475 282.97,660.059C268.109,663.032 232.754,667.029 218.91,662.415C214.488,660.94 201.998,657.065 199.598,653.465C198.451,651.744 191.042,640.354 188.765,642.632C187.444,643.952 191.984,648.598 192.533,649.697C194.396,653.423 193.009,658.657 194.888,662.415C199.242,671.122 194.085,689.649 192.062,697.741C190.055,705.768 173.464,736.593 168.04,742.018C164.464,745.594 158.359,749.343 155.793,751.909C152.858,754.844 144.079,755.33 142.133,751.438C133.276,733.724 135.668,713.801 130.829,694.444C119.86,650.568 134.58,607.339 154.38,567.739C165.084,546.33 174.48,524.284 194.417,509.332C225.738,485.841 288.305,463.8 327.246,458.932C337.655,457.631 352.088,450.658 362.573,453.28C387.645,459.548 413.004,463.061 437.937,469.295C462.108,475.337 491.799,482.898 511.888,498.969C549.568,529.114 582.557,589.486 591.962,636.508C595.645,654.926 599.966,678.913 595.259,697.741C593.845,703.398 589.536,709.259 587.722,714.698C585.249,722.12 579.207,729.592 575.005,735.894C572.968,738.95 567.261,745.925 568.881,744.844" style="fill:none;stroke:white;stroke-width:20.83px;stroke-linecap:round;stroke-miterlimit:1.5;stroke-dasharray:0,1.04,0,0;"/>
                    <path d="M299.926,726.474C299.926,713.934 285.007,734.218 297.1,738.25C302.551,740.066 317.101,730.762 313.115,724.119C308.073,715.715 296.531,719.386 298.513,729.3C299.911,736.289 311.037,730.683 309.818,724.59C307.641,713.705 292.765,722.245 291.448,728.829C290.093,735.603 302.569,734.46 306.05,733.068" style="fill:none;stroke:white;stroke-width:20.44px;stroke-linecap:round;stroke-miterlimit:1.5;stroke-dasharray:0,1.02,0,0;"/>
                    <path d="M420.038,719.88C411.691,711.533 401.007,734.198 407.791,738.721C419.017,746.204 425.69,737.441 425.69,726.945C425.69,724.071 422.242,723.87 420.509,723.177C412.522,719.982 411.718,733.015 420.038,730.242C422.292,729.491 412.501,723.068 412.501,731.655" style="fill:none;stroke:white;stroke-width:20.44px;stroke-linecap:round;stroke-miterlimit:1.5;stroke-dasharray:0,1.02,0,0;"/>
                </g>
                <g transform="matrix(1.38845,0,0,1.38845,-323.713,-414.003)">
                    <path d="M441.773,883.882C446.94,889.479 455.618,891.92 462.617,894.204C472.3,897.363 482.54,897.466 492.638,896.771C509.068,895.64 527.124,892.973 541.44,884.257" style="fill:none;stroke:white;stroke-width:15px;stroke-linecap:round;stroke-miterlimit:1.5;stroke-dasharray:0,0.75,0,0;"/>
                </g>
            </g>
            <g transform="matrix(0.720227,0,0,0.720227,4368.16,294.81)">
                <g>
                    <path d="M1396.49,938.394C1396.49,946.144 1395.62,954.35 1395.62,961.831C1395.62,962.853 1393.47,965.76 1394.32,966.605C1397.57,969.855 1404.99,967.09 1409.07,967.907C1422.48,970.589 1436.13,968.073 1449.44,966.171C1468.11,963.504 1500.35,965.261 1518.88,967.907C1532.77,969.892 1547.48,966.887 1561.42,969.21C1569.44,970.547 1590.36,965.171 1595.7,970.512C1599.62,974.428 1602.22,953.866 1602.22,948.376C1602.22,945.436 1601.22,940.439 1601.78,940.998" style="fill:none;stroke:white;stroke-width:20.44px;stroke-linecap:round;stroke-miterlimit:1.5;stroke-dasharray:0,1.02,0,0;"/>
                    <path d="M1328.35,903.238C1328.35,907.795 1336.43,911.474 1342.24,915.825C1351.88,923.058 1390.51,927.543 1403.43,927.543C1419.11,927.543 1436.85,931.45 1452.48,928.845C1466.65,926.483 1499.51,921.412 1512.81,924.071C1532.01,927.911 1566.59,931.37 1585.72,927.543C1590.07,926.674 1594.15,929.885 1598.31,928.845C1618.36,923.833 1641.02,932.056 1659.51,919.731C1670.69,912.276 1675.42,889.08 1678.6,876.328C1684.95,850.947 1685.98,822.951 1681.64,796.902C1679.66,785.006 1681.62,772.408 1679.91,760.444C1677.9,746.401 1680.22,722.764 1676,710.097C1674.08,704.332 1663.96,700.824 1658.2,697.944C1651.72,694.702 1645.36,687.982 1639.54,683.622C1629.28,675.924 1615.8,667.641 1604.82,661.052C1575.88,643.691 1565.03,601.203 1532.34,590.306C1513.1,583.894 1493.33,601.551 1479.39,612.008C1470.17,618.918 1456.95,623.162 1448.57,631.539C1434.28,645.833 1417.36,662.333 1399.96,672.771C1390.09,678.692 1380.54,681.809 1371.31,687.962C1362.92,693.557 1342.73,692.716 1332.25,696.208C1328.75,697.375 1322.86,695.185 1320.1,697.944C1319.43,698.615 1321.4,708.349 1321.84,710.531C1323.91,720.888 1325.55,731.841 1324.01,742.649C1322.61,752.403 1320.19,761.946 1318.8,771.729C1316.32,789.045 1320.5,807.511 1317.06,824.68C1314.48,837.61 1320.09,851.195 1317.5,864.176C1315.75,872.909 1320.5,895.895 1314.02,902.37C1313.55,902.847 1309.77,902.89 1307.95,904.106C1304.97,906.09 1299.81,910.436 1296.66,911.484C1296.23,911.628 1274.23,907.611 1272.36,907.144C1261.77,904.498 1248.51,910.056 1238.94,903.672C1219.74,890.876 1219.84,869.802 1225.05,848.985C1227.55,838.974 1235.65,831.738 1238.07,822.075C1242.73,803.425 1245.2,784.154 1247.62,764.784C1250.87,738.758 1258.15,713.373 1261.07,687.094C1264.72,654.253 1265.27,621.474 1277.57,590.74C1281.27,581.478 1288.9,574.146 1293.19,565.567C1307.29,537.375 1329.18,520.208 1354.39,502.2C1382.3,482.265 1409.75,464.504 1442.49,453.589C1457.94,448.439 1497.35,446.963 1513.67,449.683C1522.47,451.149 1531.11,455.77 1540.15,457.061C1580.4,462.812 1621.8,474.902 1654.3,500.897C1668.14,511.973 1686.93,542.244 1697.27,557.755C1713.62,582.282 1728.22,608.485 1731.55,638.483C1733.82,658.897 1736.66,679.249 1738.93,699.681C1741.93,726.681 1740.13,754.448 1745.01,781.277C1749.12,803.862 1754.81,826.006 1758.03,848.551C1759.66,859.964 1766.1,871.775 1764.11,883.707C1760.16,907.356 1747.7,901.184 1732.42,906.276C1723.34,909.303 1715,913.096 1705.08,910.616C1697.88,908.818 1685.08,908.446 1678.17,908.446C1677.19,908.446 1675.02,908.067 1676.87,907.144" style="fill:none;stroke:white;stroke-width:20.44px;stroke-linecap:round;stroke-miterlimit:1.5;stroke-dasharray:0,1.02,0,0;"/>
                    <path d="M1445.53,726.59C1437.11,726.59 1437.67,736.59 1445.53,733.968C1451.94,731.833 1450.35,719.646 1443.36,719.646C1438.15,719.646 1436.45,734.463 1438.15,737.875C1441.83,745.227 1455.94,733.668 1453.78,730.062C1451.6,726.426 1440.25,727.967 1437.72,730.496C1437.5,730.714 1436.88,732.398 1437.29,732.666C1439.77,734.324 1452.66,733.602 1454.21,730.496C1454.78,729.362 1450.09,727.565 1449.44,727.024C1447.93,725.768 1443.99,720.596 1441.63,721.382C1440.1,721.891 1433.84,730.088 1435.55,731.798C1437.52,733.772 1445.93,731.954 1443.8,728.76C1438.04,720.127 1426.01,733.32 1435.98,738.309C1440.68,740.659 1446.9,731.468 1444.23,727.458C1439.48,720.335 1430.51,728.264 1435.12,734.402C1438.03,738.283 1445.82,730.064 1443.8,727.024C1440.93,722.727 1432.08,727.478 1432.08,731.798" style="fill:none;stroke:white;stroke-width:20.44px;stroke-linecap:round;stroke-miterlimit:1.5;stroke-dasharray:0,1.02,0,0;"/>
                    <path d="M1560.12,720.514C1556.75,720.514 1554.04,717.799 1551,720.08C1546.92,723.139 1539.08,737.303 1545.79,741.781C1555.88,748.507 1569.38,736.586 1565.76,725.722C1563.47,718.857 1538.98,724.401 1547.96,737.875C1550.05,741.001 1562.36,737.302 1561.42,733.534C1561.05,732.047 1556.71,725.555 1554.91,726.156C1553.52,726.619 1551.91,734.208 1553.17,734.837C1554.69,735.594 1556.22,733.961 1557.08,733.1C1562.39,727.788 1552.74,729.8 1552.74,733.534" style="fill:none;stroke:white;stroke-width:20.44px;stroke-linecap:round;stroke-miterlimit:1.5;stroke-dasharray:0,1.02,0,0;"/>
                </g>
                <g transform="matrix(1.38845,0,0,1.38845,-594.477,-409.329)">
                    <path d="M1470.33,889.127C1489.46,908.265 1530.2,901.135 1552.01,890.408" style="fill:none;stroke:white;stroke-width:10px;stroke-linecap:round;stroke-miterlimit:1.5;stroke-dasharray:0,0.5,0,0;"/>
                </g>
            </g>
            <g transform="matrix(1,0,0,1,3991.83,-2.72848)">
                <path d="M546.74,461.638C608.013,471.312 807.312,440.54 854.737,402.044C878.972,382.372 894.262,358.012 907.898,330.576C962.029,221.664 860.408,135.638 765.452,103.685C723.499,89.567 675.413,88.032 631.513,88.704C592.957,89.294 554.384,93.76 515.765,94.786C385.255,98.251 231.758,94.953 134.735,197.969C49.476,288.494 99.823,369.328 190.919,423.119C214.763,437.198 243.068,450.579 270.184,456.69C330.966,470.388 496.961,473.536 562.669,461.746" style="fill:none;stroke:white;stroke-width:9.21px;stroke-linecap:round;stroke-miterlimit:1.5;stroke-dasharray:0,0.46,0,0;"/>
                <path d="M627.923,493.537C609.707,492.626 587.838,495.315 572.383,506.023C570.274,507.485 568.23,509.099 566.545,511.045C550.796,529.228 584.286,537.779 596.74,538.144C615.467,538.693 633.434,534.257 651.846,532.419C660.525,531.553 675.091,528.567 680.611,520.665C685.384,513.833 676.663,506.682 671.35,503.536C657.281,495.207 641.904,490.363 625.377,491.173" style="fill:none;stroke:white;stroke-width:9.21px;stroke-linecap:round;stroke-miterlimit:1.5;stroke-dasharray:0,0.46,0,0;"/>
                <path d="M565.259,577.893C555.212,573.663 540.691,575.157 531.945,581.894C521.14,590.215 528.539,602.302 539.877,605.582C552.26,609.164 576.541,610.63 586.146,599.443C595.645,588.379 574.865,575.857 565.818,575.839" style="fill:none;stroke:white;stroke-width:9.21px;stroke-linecap:round;stroke-miterlimit:1.5;stroke-dasharray:0,0.46,0,0;"/>
            </g>
        </g>
    </g>
</svg>
