<?xml version="1.0" encoding="UTF-8" standalone="no"?>
<!DOCTYPE svg PUBLIC "-//W3C//DTD SVG 1.1//EN" "http://www.w3.org/Graphics/SVG/1.1/DTD/svg11.dtd">
<svg width="100%" height="100%" viewBox="0 0 1921 1080" version="1.1" xmlns="http://www.w3.org/2000/svg" xmlns:xlink="http://www.w3.org/1999/xlink" xml:space="preserve" xmlns:serif="http://www.serif.com/" style="fill-rule:evenodd;clip-rule:evenodd;stroke-linejoin:round;stroke-miterlimit:1.41421;">
    <g transform="matrix(1,0,0,1,-2028,0)">
        <g id="thinking-words" transform="matrix(1,0,0,1,-3881.87,0)">
            <rect x="5910" y="0" width="1920" height="1080"/>
            <g>
                <g transform="matrix(1,0,0,1,1970,0)">
                    <path d="M4919.89,756.901C4923.55,754.868 4927.53,754.619 4931.57,753.929C4944.83,751.671 4956.52,752.846 4967.91,760.39" style="fill:none;stroke:white;stroke-width:12.15px;stroke-linecap:round;stroke-miterlimit:1.5;"/>
                </g>
                <g transform="matrix(1,0,0,1,1970,0)">
                    <path d="M4838.28,732.156C4841.72,729.907 4846.32,729.17 4850.29,728.491C4861.82,726.521 4877.62,725.904 4887.26,733.587" style="fill:none;stroke:white;stroke-width:12.15px;stroke-linecap:round;stroke-miterlimit:1.5;"/>
                </g>
                <g transform="matrix(1,0,0,1,1970,0)">
                    <path d="M4872.68,829.673C4876.51,828.397 4880.79,828.657 4884.76,828.438C4898.04,827.708 4912.92,830.199 4923.05,839.657" style="fill:none;stroke:white;stroke-width:12.15px;stroke-linecap:round;stroke-miterlimit:1.5;"/>
                </g>
                <g transform="matrix(0.720227,0,0,0.720227,6609.13,242.232)">
                    <g>
                        <path d="M256.121,932.312C255.001,931.192 254.237,937.946 254.237,940.319C254.237,947.551 253.766,954.092 253.766,961.044C253.766,962.154 254.237,964.341 254.237,964.341C254.237,964.341 262.374,965.754 266.484,965.754C270.329,965.754 281.873,964.358 286.267,963.87C301.945,962.128 323.929,961.747 339.493,964.341C342.649,964.867 345.571,966.311 348.913,965.754C377.592,960.975 408.081,970.124 436.995,964.341C445.863,962.568 455.529,963.399 464.314,963.399C464.785,963.399 465.394,963.732 465.727,963.399C465.976,963.15 465.256,931.451 465.256,934.667" style="fill:none;stroke:white;stroke-width:20.44px;stroke-linecap:round;stroke-miterlimit:1.5;stroke-dasharray:0,1.02,0,0;"/>
                        <path d="M161.445,764.156C160.518,764.156 160.503,765.052 160.503,766.04C160.503,776.186 159.561,786.331 159.561,797.128C159.561,820.932 162.128,873.174 177.931,888.977C193.556,904.602 217.65,917.395 241.519,923.362C277.33,932.315 318.615,919.085 354.565,928.072C359.917,929.41 365.89,926.782 371.051,928.072C382.066,930.826 450.235,931.239 461.017,928.543C469.964,926.307 480.627,929.072 489.278,926.188C513.788,918.018 545.616,899.896 554.751,872.492C564.099,844.446 570.506,788.294 564.642,758.975C561.45,743.012 565.951,725.483 562.758,709.517C559.492,693.184 566.377,668.859 552.867,655.349C535.573,638.056 514.283,625.524 489.749,621.435C467.906,617.795 447.219,624.854 426.632,628.972C387.215,636.855 346.071,642.753 306.992,652.523C298.921,654.541 290.891,658.475 282.97,660.059C268.109,663.032 232.754,667.029 218.91,662.415C214.488,660.94 201.998,657.065 199.598,653.465C198.451,651.744 191.042,640.354 188.765,642.632C187.444,643.952 191.984,648.598 192.533,649.697C194.396,653.423 193.009,658.657 194.888,662.415C199.242,671.122 194.085,689.649 192.062,697.741C190.055,705.768 173.464,736.593 168.04,742.018C164.464,745.594 158.359,749.343 155.793,751.909C152.858,754.844 144.079,755.33 142.133,751.438C133.276,733.724 135.668,713.801 130.829,694.444C119.86,650.568 134.58,607.339 154.38,567.739C165.084,546.33 174.48,524.284 194.417,509.332C225.738,485.841 288.305,463.8 327.246,458.932C337.655,457.631 352.088,450.658 362.573,453.28C387.645,459.548 413.004,463.061 437.937,469.295C462.108,475.337 491.799,482.898 511.888,498.969C549.568,529.114 582.557,589.486 591.962,636.508C595.645,654.926 599.966,678.913 595.259,697.741C593.845,703.398 589.536,709.259 587.722,714.698C585.249,722.12 579.207,729.592 575.005,735.894C572.968,738.95 567.261,745.925 568.881,744.844" style="fill:none;stroke:white;stroke-width:20.83px;stroke-linecap:round;stroke-miterlimit:1.5;stroke-dasharray:0,1.04,0,0;"/>
                        <path d="M299.926,726.474C299.926,713.934 285.007,734.218 297.1,738.25C302.551,740.066 317.101,730.762 313.115,724.119C308.073,715.715 296.531,719.386 298.513,729.3C299.911,736.289 311.037,730.683 309.818,724.59C307.641,713.705 292.765,722.245 291.448,728.829C290.093,735.603 302.569,734.46 306.05,733.068" style="fill:none;stroke:white;stroke-width:20.44px;stroke-linecap:round;stroke-miterlimit:1.5;stroke-dasharray:0,1.02,0,0;"/>
                        <path d="M420.038,719.88C411.691,711.533 401.007,734.198 407.791,738.721C419.017,746.204 425.69,737.441 425.69,726.945C425.69,724.071 422.242,723.87 420.509,723.177C412.522,719.982 411.718,733.015 420.038,730.242C422.292,729.491 412.501,723.068 412.501,731.655" style="fill:none;stroke:white;stroke-width:20.44px;stroke-linecap:round;stroke-miterlimit:1.5;stroke-dasharray:0,1.02,0,0;"/>
                    </g>
                </g>
                <g transform="matrix(1.22094,0,0,1.22094,876.918,-161.167)">
                    <path d="M4857.94,861.939C4861.39,864.721 4885.72,856.665 4894.33,854.467C4904.08,851.976 4921.64,847.655 4931.74,846.871C4933.14,846.763 4934.89,846.64 4936.22,847.201C4942.91,850.037 4941.53,860.642 4936.03,862.807C4929.82,865.251 4927.46,866.099 4922.16,867.093C4916.38,868.176 4913.2,869.366 4907.51,870.76C4905.23,871.32 4902.32,872.138 4900.02,872.617C4899.46,872.733 4897.87,872.759 4897.47,873.119C4897.09,873.47 4898.31,873.732 4898.73,874.044C4899.58,874.683 4900.45,875.336 4901.21,876.089C4903.36,878.246 4904.28,880.867 4903.66,883.895C4903.16,886.334 4901.71,888.735 4899.95,890.482C4899.38,891.048 4897.41,892.074 4897.17,892.746C4897.1,892.938 4899.75,894.443 4900.02,894.664C4901.74,896.098 4902.94,898.109 4902.81,900.421C4902.65,903.283 4901.11,906.727 4899.13,908.805C4898.37,909.602 4897.48,910.278 4896.53,910.83C4896.42,910.898 4895.5,911.3 4895.49,911.405C4895.47,911.62 4897.74,913.03 4898.01,913.359C4899.37,915.003 4899.22,916.809 4898.87,918.898C4898.07,923.626 4891.26,925.863 4887.17,927.497C4879.75,930.463 4866.09,932.25 4857.37,931.888C4849.55,931.564 4837.11,927.097 4834.83,925.324C4829.76,921.393 4824.88,917.42 4821.53,911.809C4819.39,908.234 4813.64,889.433 4815.19,882.442C4816.8,875.168 4819.54,866.706 4824.83,861.615C4829.49,857.137 4837.21,852.18 4839.98,846.183C4842.54,840.626 4843.06,838.268 4842.29,832.35C4841.66,827.556 4837.91,818.726 4842.6,815.492C4852.44,808.715 4860.69,820.003 4863.16,827.587C4863.72,829.289 4864.01,831.095 4864.18,832.872C4864.78,839.35 4864.6,844.65 4863.15,850.969C4861.72,857.186 4854.03,858.791 4857.94,861.939Z" style="fill:rgb(255,255,0);"/>
                    <path d="M4848.87,804.524L4849.08,804.527L4849.28,804.533L4849.49,804.54L4849.7,804.551L4849.9,804.564L4850.11,804.579L4850.31,804.596L4850.52,804.616L4850.72,804.637L4850.92,804.662L4851.12,804.687L4851.32,804.716L4851.52,804.747L4851.72,804.779L4851.92,804.814L4852.11,804.851L4852.31,804.89L4852.51,804.931L4852.7,804.974L4852.89,805.018L4853.08,805.065L4853.28,805.114L4853.46,805.164L4853.65,805.216L4853.83,805.269L4854.03,805.326L4854.21,805.384L4854.39,805.442L4854.57,805.503L4854.75,805.566L4854.93,805.628L4855.11,805.694L4855.29,805.761L4855.46,805.829L4855.64,805.9L4855.81,805.97L4855.98,806.043L4856.16,806.119L4856.33,806.193L4856.49,806.269L4856.66,806.347L4856.83,806.426L4856.99,806.506L4857.15,806.588L4857.32,806.671L4857.48,806.754L4857.64,806.839L4857.8,806.927L4857.95,807.014L4858.11,807.1L4858.26,807.189L4858.42,807.281L4858.57,807.371L4858.72,807.461L4858.87,807.556L4859.02,807.65L4859.16,807.742L4859.31,807.838L4859.46,807.936L4859.6,808.033L4859.74,808.13L4859.89,808.23L4860.03,808.329L4860.16,808.428L4860.3,808.528L4860.44,808.632L4860.58,808.736L4860.71,808.835L4860.84,808.937L4860.98,809.044L4861.11,809.149L4861.24,809.254L4861.37,809.359L4861.5,809.467L4861.63,809.577L4861.76,809.682L4861.88,809.788L4862.01,809.9L4862.13,810.01L4862.25,810.118L4862.37,810.226L4862.49,810.339L4862.61,810.452L4862.73,810.561L4862.85,810.675L4862.97,810.789L4863.08,810.899L4863.2,811.014L4863.31,811.126L4863.43,811.241L4863.54,811.356L4863.66,811.478L4863.87,811.702L4864.09,811.936L4864.31,812.17L4864.51,812.402L4864.72,812.64L4864.93,812.879L4865.13,813.118L4865.33,813.358L4865.52,813.597L4865.71,813.838L4865.9,814.083L4866.09,814.326L4866.27,814.569L4866.45,814.815L4866.63,815.062L4866.81,815.309L4866.98,815.554L4867.15,815.804L4867.32,816.051L4867.48,816.299L4867.64,816.55L4867.8,816.795L4867.96,817.046L4868.11,817.299L4868.26,817.55L4868.41,817.799L4868.56,818.049L4868.7,818.302L4868.84,818.553L4868.98,818.806L4869.12,819.058L4869.25,819.308L4869.39,819.56L4869.52,819.812L4869.64,820.063L4869.77,820.314L4869.89,820.568L4870.01,820.822L4870.12,821.068L4870.24,821.32L4870.36,821.575L4870.47,821.826L4870.57,822.074L4870.68,822.323L4870.78,822.58L4870.89,822.829L4870.98,823.077L4871.08,823.328L4871.18,823.579L4871.27,823.829L4871.36,824.075L4871.44,824.328L4871.53,824.58L4871.61,824.827L4871.69,825.07L4871.77,825.314L4871.84,825.55L4871.91,825.791L4871.97,826.032L4872.04,826.273L4872.1,826.51L4872.16,826.742L4872.22,826.979L4872.27,827.216L4872.33,827.449L4872.38,827.682L4872.42,827.91L4872.47,828.137L4872.52,828.37L4872.56,828.594L4872.6,828.817L4872.64,829.045L4872.68,829.269L4872.71,829.492L4872.74,829.71L4872.78,829.929L4872.81,830.152L4872.84,830.365L4872.86,830.578L4872.89,830.791L4872.92,831.004L4872.94,831.222L4872.96,831.43L4872.98,831.632L4873.01,831.84L4873.03,832.044L4873.06,832.379L4873.09,832.711L4873.11,833.041L4873.14,833.37L4873.16,833.698L4873.19,834.025L4873.21,834.354L4873.23,834.682L4873.25,835.006L4873.27,835.333L4873.29,835.658L4873.31,835.983L4873.32,836.307L4873.34,836.63L4873.35,836.956L4873.36,837.281L4873.37,837.603L4873.37,837.923L4873.38,838.247L4873.38,838.573L4873.39,838.896L4873.39,839.215L4873.39,839.539L4873.39,839.861L4873.38,840.181L4873.38,840.505L4873.37,840.829L4873.36,841.152L4873.35,841.474L4873.34,841.797L4873.32,842.116L4873.31,842.441L4873.29,842.766L4873.27,843.088L4873.25,843.41L4873.23,843.734L4873.2,844.058L4873.17,844.383L4873.14,844.707L4873.11,845.028L4873.08,845.355L4873.05,845.682L4873.01,846.006L4872.97,846.333L4872.93,846.661L4872.89,846.985L4872.85,847.312L4872.8,847.639L4872.75,847.967L4872.7,848.295L4872.65,848.622L4872.6,848.953L4872.54,849.284L4872.49,849.616L4872.43,849.947L4872.37,850.276L4872.3,850.609L4872.24,850.941L4872.17,851.274L4872.14,851.425L4872.34,851.374L4872.68,851.286L4873.37,851.105L4874.07,850.922L4874.76,850.736L4875.46,850.547L4876.16,850.356L4876.86,850.164L4877.56,849.97L4878.26,849.774L4878.95,849.579L4879.65,849.383L4880.34,849.187L4881.02,848.992L4881.7,848.798L4883.04,848.414L4885.61,847.672L4886.83,847.321L4887.42,847.151L4888,846.986L4888.57,846.825L4889.12,846.67L4889.66,846.519L4890.18,846.375L4890.69,846.236L4891.19,846.103L4891.66,845.979L4891.9,845.917L4892.12,845.858L4893.07,845.616L4894.06,845.365L4895.1,845.104L4896.17,844.836L4897.27,844.561L4898.41,844.279L4899.58,843.993L4900.18,843.848L4900.78,843.702L4901.39,843.555L4902,843.408L4902.62,843.26L4903.24,843.112L4903.87,842.963L4904.51,842.814L4905.15,842.666L4905.79,842.517L4906.43,842.368L4907.08,842.22L4907.73,842.072L4908.39,841.925L4909.04,841.778L4909.7,841.633L4910.36,841.488L4911.02,841.344L4911.68,841.201L4912.34,841.06L4913.01,840.92L4913.67,840.781L4914.33,840.644L4914.99,840.509L4915.65,840.376L4916.31,840.245L4916.97,840.116L4917.62,839.989L4918.28,839.864L4918.93,839.742L4919.57,839.622L4920.22,839.506L4920.86,839.392L4921.5,839.281L4922.13,839.173L4922.76,839.069L4923.08,839.017L4923.39,838.967L4923.7,838.917L4924.01,838.869L4924.32,838.821L4924.62,838.774L4924.93,838.728L4925.24,838.684L4925.54,838.64L4925.84,838.597L4926.15,838.555L4926.44,838.514L4926.74,838.474L4927.04,838.435L4927.34,838.397L4927.63,838.361L4927.93,838.325L4928.22,838.29L4928.51,838.257L4928.8,838.225L4929.08,838.194L4929.37,838.164L4929.65,838.135L4929.94,838.108L4930.22,838.082L4930.5,838.057L4930.78,838.033L4931.05,838.012L4931.35,837.989L4931.67,837.966L4931.85,837.954L4932.03,837.942L4932.23,837.932L4932.43,837.922L4932.64,837.912L4932.85,837.905L4933.07,837.899L4933.3,837.894L4933.54,837.892L4933.79,837.893L4934.04,837.896L4934.3,837.903L4934.57,837.914L4934.85,837.929L4935.12,837.948L4935.28,837.962L4935.43,837.975L4935.58,837.99L4935.73,838.007L4935.89,838.025L4936.04,838.045L4936.21,838.068L4936.37,838.092L4936.53,838.118L4936.7,838.146L4936.87,838.178L4937.04,838.21L4937.21,838.246L4937.39,838.285L4937.57,838.327L4937.75,838.372L4937.93,838.419L4938.12,838.47L4938.3,838.524L4938.49,838.583L4938.69,838.645L4938.89,838.712L4939.08,838.781L4939.28,838.855L4939.48,838.936L4939.67,839.015L4939.85,839.091L4940.02,839.166L4940.19,839.243L4940.35,839.32L4940.51,839.399L4940.68,839.482L4940.85,839.567L4941,839.649L4941.16,839.736L4941.33,839.827L4941.48,839.917L4941.64,840.007L4941.79,840.1L4941.95,840.198L4942.11,840.296L4942.26,840.394L4942.4,840.491L4942.56,840.595L4942.71,840.701L4942.85,840.801L4943,840.91L4943.14,841.017L4943.28,841.126L4943.43,841.241L4943.56,841.348L4943.69,841.46L4943.84,841.579L4943.97,841.695L4944.1,841.812L4944.24,841.935L4944.36,842.05L4944.49,842.17L4944.62,842.299L4944.74,842.416L4944.86,842.539L4944.99,842.672L4945.11,842.798L4945.23,842.919L4945.34,843.05L4945.46,843.179L4945.57,843.309L4945.69,843.449L4945.79,843.574L4945.9,843.701L4946.01,843.844L4946.11,843.979L4946.22,844.116L4946.32,844.253L4946.41,844.384L4946.51,844.524L4946.61,844.662L4946.7,844.795L4946.79,844.937L4946.89,845.078L4946.98,845.221L4947.07,845.364L4947.15,845.5L4947.23,845.644L4947.32,845.789L4947.4,845.926L4947.48,846.071L4947.56,846.218L4947.63,846.357L4947.7,846.504L4947.78,846.652L4947.85,846.792L4947.91,846.931L4947.98,847.081L4948.05,847.231L4948.11,847.371L4948.17,847.511L4948.24,847.663L4948.3,847.814L4948.36,847.955L4948.41,848.107L4948.47,848.249L4948.52,848.392L4948.58,848.544L4948.63,848.686L4948.68,848.84L4948.72,848.983L4948.77,849.125L4948.82,849.279L4948.86,849.423L4948.9,849.566L4948.94,849.71L4948.98,849.865L4949.02,850.009L4949.06,850.152L4949.1,850.308L4949.13,850.451L4949.16,850.596L4949.19,850.74L4949.22,850.885L4949.26,851.041L4949.28,851.185L4949.31,851.318L4949.34,851.486L4949.38,851.769L4949.42,852.059L4949.46,852.343L4949.49,852.633L4949.52,852.929L4949.55,853.219L4949.57,853.503L4949.58,853.788L4949.59,854.078L4949.6,854.368L4949.6,854.652L4949.6,854.937L4949.59,855.215L4949.58,855.5L4949.56,855.789L4949.54,856.073L4949.52,856.346L4949.49,856.63L4949.46,856.914L4949.43,857.186L4949.39,857.469L4949.35,857.747L4949.3,858.019L4949.25,858.296L4949.19,858.574L4949.14,858.85L4949.07,859.122L4949.01,859.393L4948.94,859.664L4948.86,859.935L4948.78,860.205L4948.7,860.475L4948.61,860.745L4948.52,861.015L4948.43,861.279L4948.33,861.542L4948.23,861.811L4948.12,862.069L4948.01,862.332L4947.89,862.599L4947.77,862.855L4947.65,863.116L4947.52,863.376L4947.39,863.632L4947.25,863.887L4947.11,864.14L4946.95,864.397L4946.81,864.63L4946.73,864.773L4946.64,864.9L4946.57,865.018L4946.48,865.146L4946.4,865.273L4946.32,865.39L4946.23,865.516L4946.14,865.642L4946.06,865.76L4945.96,865.884L4945.87,866.008L4945.78,866.124L4945.69,866.248L4945.59,866.365L4945.5,866.48L4945.4,866.602L4945.3,866.722L4945.2,866.838L4945.1,866.951L4944.99,867.078L4944.89,867.191L4944.79,867.297L4944.68,867.416L4944.56,867.532L4944.45,867.643L4944.34,867.759L4944.23,867.869L4944.11,867.978L4943.99,868.09L4943.88,868.197L4943.76,868.305L4943.64,868.411L4943.52,868.515L4943.39,868.625L4943.26,868.73L4943.14,868.831L4943,868.937L4942.87,869.039L4942.74,869.139L4942.61,869.236L4942.48,869.333L4942.34,869.432L4942.2,869.527L4942.06,869.624L4941.91,869.716L4941.78,869.805L4941.63,869.9L4941.48,869.99L4941.33,870.078L4941.19,870.162L4941.03,870.247L4940.88,870.332L4940.73,870.411L4940.57,870.494L4940.41,870.574L4940.26,870.651L4940.1,870.726L4939.94,870.799L4939.78,870.871L4939.61,870.941L4939.45,871.01L4939.31,871.066L4938.7,871.304L4938.14,871.523L4937.6,871.735L4937.07,871.94L4936.56,872.138L4936.06,872.329L4935.57,872.515L4935.09,872.695L4934.62,872.87L4934.15,873.04L4933.7,873.203L4933.46,873.286L4933.23,873.366L4933.01,873.444L4932.78,873.522L4932.56,873.598L4932.33,873.674L4932.11,873.749L4931.88,873.822L4931.66,873.894L4931.43,873.966L4931.21,874.037L4930.98,874.106L4930.76,874.175L4930.53,874.243L4930.31,874.31L4930.08,874.376L4929.86,874.44L4929.63,874.504L4929.4,874.567L4929.17,874.629L4928.94,874.69L4928.71,874.751L4928.48,874.811L4928.25,874.869L4928.02,874.927L4927.78,874.985L4927.54,875.041L4927.31,875.097L4927.07,875.152L4926.83,875.206L4926.59,875.26L4926.35,875.314L4926.1,875.367L4925.86,875.419L4925.61,875.471L4925.36,875.523L4925.1,875.574L4924.85,875.625L4924.59,875.676L4924.32,875.727L4923.81,875.824L4923.56,875.873L4923.32,875.918L4923.08,875.964L4922.85,876.01L4922.62,876.056L4922.4,876.102L4922.18,876.149L4921.96,876.195L4921.74,876.241L4921.53,876.288L4921.32,876.335L4921.11,876.382L4920.9,876.429L4920.7,876.476L4920.49,876.524L4920.29,876.571L4920.09,876.619L4919.9,876.666L4919.5,876.765L4919.1,876.864L4918.71,876.965L4918.32,877.067L4917.93,877.171L4917.54,877.276L4917.14,877.384L4916.74,877.494L4916.33,877.606L4915.49,877.837L4914.63,878.076L4914.19,878.199L4913.73,878.324L4913.26,878.451L4912.78,878.58L4912.39,878.684L4912.42,878.818L4912.47,879.083L4912.52,879.355L4912.56,879.635L4912.6,879.914L4912.63,880.194L4912.66,880.467L4912.68,880.74L4912.7,881.02L4912.72,881.299L4912.73,881.571L4912.73,881.849L4912.74,882.133L4912.73,882.404L4912.73,882.68L4912.71,882.961L4912.7,883.235L4912.68,883.508L4912.65,883.787L4912.62,884.058L4912.59,884.327L4912.55,884.602L4912.51,884.875L4912.47,885.146L4912.42,885.411L4912.36,885.674L4912.32,885.892L4912.27,886.107L4912.22,886.322L4912.17,886.536L4912.11,886.749L4912.06,886.949L4912,887.154L4911.94,887.365L4911.88,887.57L4911.81,887.775L4911.74,887.971L4911.68,888.168L4911.61,888.37L4911.54,888.566L4911.46,888.761L4911.39,888.956L4911.31,889.15L4911.23,889.338L4911.15,889.525L4911.07,889.717L4910.99,889.903L4910.9,890.089L4910.82,890.274L4910.73,890.454L4910.64,890.638L4910.55,890.816L4910.46,890.994L4910.37,891.177L4910.28,891.348L4910.18,891.524L4910.08,891.701L4909.98,891.871L4909.89,892.041L4909.78,892.211L4909.68,892.384L4909.64,892.459L4909.69,892.546L4909.8,892.745L4909.9,892.944L4910.02,893.158L4910.12,893.36L4910.22,893.57L4910.32,893.789L4910.42,894.001L4910.51,894.224L4910.61,894.446L4910.69,894.663L4910.78,894.895L4910.86,895.129L4910.94,895.356L4911.01,895.583L4911.09,895.82L4911.16,896.065L4911.22,896.311L4911.28,896.55L4911.34,896.79L4911.39,897.038L4911.44,897.294L4911.49,897.543L4911.53,897.791L4911.57,898.049L4911.6,898.306L4911.63,898.563L4911.65,898.82L4911.67,899.085L4911.69,899.341L4911.7,899.605L4911.7,899.868L4911.7,900.13L4911.7,900.4L4911.69,900.66L4911.68,900.915L4911.66,901.188L4911.64,901.453L4911.62,901.711L4911.59,901.963L4911.56,902.214L4911.53,902.47L4911.49,902.725L4911.45,902.968L4911.41,903.211L4911.36,903.459L4911.32,903.706L4911.27,903.942L4911.21,904.183L4911.16,904.424L4911.1,904.659L4911.04,904.894L4910.98,905.129L4910.91,905.363L4910.84,905.597L4910.78,905.826L4910.7,906.049L4910.63,906.278L4910.56,906.507L4910.48,906.735L4910.4,906.958L4910.32,907.177L4910.23,907.4L4910.14,907.624L4910.06,907.842L4909.97,908.06L4909.87,908.279L4909.78,908.498L4909.68,908.711L4909.58,908.925L4909.48,909.14L4909.38,909.354L4909.27,909.567L4909.17,909.777L4909.06,909.986L4908.95,910.196L4908.84,910.401L4908.72,910.606L4908.6,910.816L4908.48,911.021L4908.36,911.227L4908.24,911.432L4908.11,911.633L4907.98,911.834L4907.86,912.031L4907.72,912.232L4907.59,912.433L4907.46,912.613L4907.51,912.809L4907.58,913.052L4907.63,913.287L4907.69,913.523L4907.73,913.75L4907.78,913.988L4907.82,914.226L4907.85,914.445L4907.88,914.664L4907.91,914.894L4907.93,915.113L4907.95,915.322L4907.96,915.531L4907.98,915.74L4907.99,915.949L4907.99,916.157L4908,916.355L4908,916.542L4908,916.729L4907.99,916.926L4907.99,917.112L4907.98,917.288L4907.98,917.473L4907.97,917.648L4907.95,917.813L4907.94,917.978L4907.93,918.142L4907.91,918.305L4907.9,918.469L4907.88,918.623L4907.86,918.789L4907.83,919.068L4907.79,919.347L4907.75,919.62L4907.71,919.885L4907.67,920.136L4907.63,920.406L4907.58,920.664L4907.52,920.96L4907.46,921.241L4907.39,921.528L4907.31,921.815L4907.23,922.086L4907.15,922.364L4907.06,922.632L4906.97,922.9L4906.86,923.172L4906.76,923.435L4906.65,923.69L4906.54,923.942L4906.42,924.192L4906.3,924.439L4906.18,924.684L4906.05,924.92L4905.92,925.148L4905.79,925.377L4905.65,925.605L4905.51,925.825L4905.37,926.04L4905.23,926.253L4905.09,926.459L4904.94,926.661L4904.79,926.866L4904.64,927.057L4904.49,927.245L4904.34,927.432L4904.18,927.615L4904.02,927.8L4903.87,927.973L4903.71,928.14L4903.55,928.308L4903.4,928.473L4903.23,928.637L4903.07,928.794L4902.91,928.947L4902.75,929.097L4902.59,929.243L4902.43,929.39L4902.27,929.532L4902.11,929.669L4901.95,929.804L4901.78,929.939L4901.62,930.07L4901.46,930.196L4901.3,930.32L4901.14,930.443L4900.98,930.563L4900.81,930.682L4900.65,930.797L4900.49,930.91L4900.33,931.022L4900.17,931.132L4900.01,931.238L4899.85,931.343L4899.69,931.447L4899.53,931.547L4899.38,931.645L4899.22,931.743L4899.05,931.843L4898.9,931.936L4898.74,932.027L4898.59,932.118L4898.43,932.206L4898.27,932.296L4898.11,932.384L4897.96,932.468L4897.81,932.551L4897.65,932.634L4897.5,932.714L4897.35,932.792L4897.19,932.876L4896.9,933.026L4896.6,933.174L4896.3,933.317L4896.01,933.457L4895.72,933.592L4895.43,933.723L4895.14,933.852L4894.86,933.975L4894.59,934.095L4894.31,934.212L4894.04,934.326L4893.78,934.436L4893.52,934.543L4893.26,934.647L4893.01,934.749L4892.76,934.848L4892.52,934.945L4892.06,935.126L4891.2,935.459L4890.82,935.609L4890.44,935.759L4890.24,935.839L4890.01,935.928L4889.78,936.017L4889.55,936.103L4889.31,936.189L4889.08,936.274L4888.84,936.357L4888.61,936.439L4888.37,936.52L4888.13,936.6L4887.9,936.679L4887.65,936.758L4887.41,936.835L4887.17,936.91L4886.93,936.985L4886.68,937.06L4886.44,937.133L4886.19,937.206L4885.94,937.277L4885.7,937.348L4885.45,937.418L4885.2,937.487L4884.95,937.555L4884.69,937.623L4884.44,937.69L4884.19,937.755L4883.93,937.821L4883.68,937.885L4883.42,937.949L4883.16,938.012L4882.9,938.074L4882.65,938.136L4882.39,938.196L4882.12,938.256L4881.86,938.316L4881.6,938.374L4881.34,938.432L4881.07,938.489L4880.81,938.546L4880.54,938.602L4880.28,938.657L4880.01,938.711L4879.74,938.765L4879.47,938.818L4879.2,938.871L4878.94,938.922L4878.66,938.974L4878.4,939.024L4878.12,939.074L4877.85,939.123L4877.58,939.171L4877.31,939.219L4877.03,939.266L4876.76,939.312L4876.49,939.358L4876.21,939.403L4875.94,939.447L4875.66,939.491L4875.39,939.534L4875.11,939.576L4874.84,939.618L4874.56,939.659L4874.28,939.699L4874.01,939.739L4873.73,939.778L4873.45,939.816L4873.18,939.854L4872.9,939.891L4872.62,939.927L4872.35,939.962L4872.07,939.997L4871.79,940.031L4871.52,940.065L4871.24,940.098L4870.96,940.13L4870.69,940.161L4870.41,940.192L4870.13,940.222L4869.86,940.251L4869.58,940.28L4869.31,940.308L4869.03,940.335L4868.76,940.362L4868.48,940.388L4868.21,940.413L4867.93,940.437L4867.66,940.461L4867.38,940.484L4867.11,940.506L4866.84,940.528L4866.57,940.548L4866.29,940.568L4866.02,940.588L4865.75,940.606L4865.48,940.624L4865.21,940.641L4864.94,940.658L4864.67,940.673L4864.41,940.688L4864.14,940.702L4863.87,940.715L4863.61,940.728L4863.34,940.74L4863.08,940.751L4862.82,940.761L4862.55,940.77L4862.29,940.779L4862.03,940.787L4861.77,940.794L4861.51,940.8L4861.25,940.806L4860.99,940.81L4860.74,940.814L4860.48,940.817L4860.23,940.819L4859.97,940.821L4859.72,940.821L4859.47,940.821L4859.22,940.819L4858.97,940.817L4858.72,940.814L4858.47,940.81L4858.22,940.805L4857.98,940.799L4857.73,940.793L4857.48,940.785L4857.24,940.776L4856.99,940.767L4856.75,940.756L4856.49,940.742L4856.24,940.727L4855.99,940.71L4855.74,940.691L4855.49,940.67L4855.24,940.648L4854.99,940.625L4854.74,940.599L4854.49,940.573L4854.24,940.544L4853.99,940.515L4853.74,940.484L4853.49,940.451L4853.24,940.417L4852.99,940.382L4852.74,940.346L4852.49,940.308L4852.24,940.269L4851.99,940.229L4851.74,940.188L4851.49,940.146L4851.24,940.102L4850.99,940.058L4850.75,940.012L4850.5,939.966L4850.25,939.918L4850,939.869L4849.75,939.82L4849.51,939.769L4849.26,939.717L4849.01,939.665L4848.76,939.612L4848.52,939.558L4848.27,939.502L4848.02,939.446L4847.78,939.39L4847.53,939.332L4847.29,939.274L4847.04,939.215L4846.8,939.156L4846.55,939.095L4846.31,939.034L4846.07,938.973L4845.82,938.91L4845.58,938.847L4845.34,938.783L4845.1,938.719L4844.86,938.654L4844.62,938.589L4844.38,938.523L4844.14,938.455L4843.67,938.322L4843.2,938.186L4842.73,938.048L4842.27,937.908L4841.81,937.767L4841.35,937.624L4840.9,937.481L4840.45,937.336L4840.01,937.19L4839.57,937.043L4839.14,936.896L4838.71,936.748L4838.29,936.599L4837.88,936.45L4837.47,936.301L4837.07,936.151L4836.67,936.002L4836.28,935.851L4835.89,935.701L4835.52,935.551L4835.15,935.401L4834.78,935.251L4834.43,935.1L4834.09,934.952L4833.9,934.873L4833.73,934.797L4833.56,934.721L4833.4,934.645L4833.23,934.568L4833.06,934.491L4832.9,934.415L4832.74,934.338L4832.58,934.259L4832.42,934.18L4832.26,934.1L4832.09,934.018L4831.94,933.938L4831.78,933.856L4831.62,933.771L4831.46,933.686L4831.31,933.599L4831.14,933.508L4830.99,933.417L4830.82,933.321L4830.65,933.219L4830.49,933.116L4830.32,933.01L4830.15,932.895L4829.96,932.768L4829.78,932.64L4829.58,932.498L4829.41,932.369L4828.89,931.965L4828.4,931.583L4827.91,931.197L4827.42,930.808L4827.17,930.607L4826.92,930.41L4826.67,930.21L4826.42,930.008L4826.17,929.804L4825.92,929.599L4825.67,929.393L4825.41,929.186L4825.16,928.976L4824.91,928.764L4824.66,928.552L4824.4,928.337L4824.15,928.121L4823.9,927.902L4823.65,927.682L4823.39,927.46L4823.14,927.236L4822.89,927.009L4822.64,926.78L4822.38,926.548L4822.13,926.315L4821.88,926.08L4821.63,925.843L4821.38,925.602L4821.12,925.359L4820.87,925.114L4820.62,924.866L4820.37,924.615L4820.13,924.362L4819.88,924.107L4819.63,923.848L4819.39,923.587L4819.14,923.322L4818.89,923.054L4818.65,922.786L4818.41,922.512L4818.17,922.235L4817.93,921.956L4817.69,921.683L4817.57,921.533L4817.45,921.388L4817.33,921.246L4817.21,921.1L4817.1,920.952L4816.98,920.807L4816.86,920.663L4816.75,920.514L4816.63,920.364L4816.52,920.214L4816.4,920.062L4816.29,919.914L4816.17,919.761L4816.06,919.608L4815.94,919.454L4815.83,919.299L4815.72,919.143L4815.61,918.984L4815.49,918.826L4815.39,918.673L4815.28,918.515L4815.17,918.352L4815.06,918.192L4814.95,918.031L4814.84,917.866L4814.73,917.705L4814.63,917.538L4814.52,917.375L4814.42,917.211L4814.31,917.038L4814.2,916.873L4814.1,916.706L4814,916.536L4813.88,916.342L4813.77,916.155L4813.66,915.948L4813.54,915.743L4813.44,915.548L4813.34,915.352L4813.24,915.154L4813.15,914.965L4813.06,914.772L4812.96,914.575L4812.88,914.385L4812.79,914.195L4812.7,913.995L4812.61,913.796L4812.53,913.601L4812.45,913.4L4812.36,913.193L4812.28,912.991L4812.19,912.783L4812.11,912.57L4812.03,912.355L4811.94,912.139L4811.86,911.922L4811.77,911.699L4811.69,911.478L4811.61,911.249L4811.52,911.017L4811.44,910.788L4811.35,910.55L4811.27,910.31L4811.18,910.072L4811.1,909.83L4811.01,909.582L4810.93,909.332L4810.84,909.081L4810.76,908.826L4810.67,908.569L4810.59,908.313L4810.5,908.05L4810.41,907.785L4810.33,907.522L4810.24,907.252L4810.16,906.98L4810.07,906.707L4809.99,906.433L4809.9,906.155L4809.82,905.876L4809.74,905.595L4809.65,905.311L4809.57,905.026L4809.48,904.74L4809.4,904.453L4809.32,904.16L4809.23,903.869L4809.15,903.577L4809.07,903.282L4808.99,902.986L4808.91,902.687L4808.83,902.387L4808.75,902.09L4808.67,901.787L4808.59,901.484L4808.51,901.18L4808.43,900.874L4808.36,900.57L4808.28,900.264L4808.2,899.957L4808.13,899.648L4808.05,899.339L4807.98,899.03L4807.91,898.719L4807.84,898.408L4807.76,898.095L4807.69,897.784L4807.63,897.475L4807.56,897.16L4807.49,896.846L4807.42,896.535L4807.36,896.222L4807.3,895.907L4807.23,895.593L4807.17,895.28L4807.11,894.967L4807.05,894.653L4806.99,894.339L4806.94,894.027L4806.88,893.713L4806.83,893.4L4806.77,893.085L4806.72,892.771L4806.67,892.462L4806.62,892.15L4806.58,891.837L4806.53,891.526L4806.49,891.212L4806.45,890.903L4806.41,890.596L4806.37,890.283L4806.33,889.972L4806.3,889.662L4806.27,889.357L4806.23,889.046L4806.2,888.737L4806.18,888.429L4806.15,888.12L4806.13,887.815L4806.11,887.508L4806.09,887.202L4806.08,886.893L4806.06,886.582L4806.05,886.276L4806.05,885.971L4806.04,885.662L4806.04,885.351L4806.04,885.044L4806.05,884.733L4806.05,884.419L4806.06,884.123L4806.07,883.952L4806.08,883.795L4806.09,883.638L4806.1,883.48L4806.11,883.323L4806.12,883.165L4806.14,883.007L4806.15,882.84L4806.17,882.682L4806.18,882.524L4806.2,882.355L4806.22,882.196L4806.24,882.027L4806.27,881.867L4806.29,881.707L4806.32,881.536L4806.35,881.365L4806.38,881.203L4806.4,881.039L4806.44,880.856L4806.48,880.683L4806.51,880.531L4806.6,880.144L4806.68,879.767L4806.77,879.39L4806.86,879.01L4806.95,878.625L4807.05,878.242L4807.14,877.857L4807.24,877.466L4807.34,877.074L4807.44,876.683L4807.55,876.289L4807.66,875.892L4807.77,875.493L4807.88,875.095L4808,874.693L4808.12,874.291L4808.24,873.888L4808.36,873.485L4808.49,873.079L4808.62,872.671L4808.76,872.265L4808.89,871.866L4808.96,871.651L4809.03,871.446L4809.1,871.246L4809.18,871.038L4809.25,870.834L4809.32,870.63L4809.4,870.422L4809.47,870.218L4809.55,870.014L4809.62,869.806L4809.7,869.602L4809.78,869.399L4809.86,869.187L4809.94,868.984L4810.02,868.781L4810.11,868.574L4810.19,868.367L4810.28,868.16L4810.36,867.958L4810.45,867.751L4810.53,867.545L4810.62,867.339L4810.71,867.133L4810.8,866.928L4810.89,866.722L4810.99,866.517L4811.08,866.313L4811.17,866.108L4811.27,865.904L4811.37,865.696L4811.47,865.492L4811.56,865.289L4811.66,865.082L4811.77,864.879L4811.87,864.673L4811.97,864.471L4812.08,864.27L4812.18,864.065L4812.29,863.86L4812.4,863.656L4812.51,863.456L4812.62,863.252L4812.73,863.049L4812.85,862.85L4812.97,862.645L4813.08,862.443L4813.2,862.246L4813.32,862.046L4813.44,861.845L4813.56,861.646L4813.68,861.443L4813.81,861.245L4813.93,861.048L4814.06,860.85L4814.19,860.653L4814.32,860.454L4814.45,860.259L4814.59,860.061L4814.72,859.866L4814.86,859.673L4815,859.474L4815.14,859.282L4815.28,859.09L4815.43,858.896L4815.57,858.704L4815.72,858.512L4815.87,858.323L4816.02,858.133L4816.17,857.944L4816.32,857.755L4816.48,857.567L4816.63,857.383L4816.8,857.195L4816.96,857.009L4817.12,856.825L4817.28,856.64L4817.45,856.461L4817.62,856.277L4817.79,856.097L4817.96,855.919L4818.14,855.739L4818.31,855.563L4818.49,855.385L4818.66,855.218L4818.81,855.082L4818.95,854.945L4819.22,854.693L4819.49,854.438L4819.77,854.187L4820.04,853.939L4820.32,853.693L4820.6,853.449L4820.87,853.208L4821.15,852.968L4821.43,852.731L4821.7,852.495L4821.98,852.26L4822.25,852.028L4822.53,851.796L4823.07,851.34L4824.15,850.439L4824.69,849.992L4824.95,849.773L4825.21,849.553L4825.47,849.336L4825.72,849.118L4825.98,848.901L4826.23,848.685L4826.48,848.471L4826.72,848.259L4826.96,848.047L4827.2,847.836L4827.43,847.626L4827.66,847.418L4827.89,847.212L4828.11,847.006L4828.33,846.797L4828.43,846.703L4828.54,846.602L4828.65,846.498L4828.75,846.399L4828.85,846.302L4828.95,846.202L4829.05,846.103L4829.15,846.004L4829.24,845.907L4829.34,845.812L4829.43,845.715L4829.52,845.618L4829.61,845.523L4829.7,845.429L4829.79,845.334L4829.88,845.242L4829.96,845.151L4830.04,845.06L4830.13,844.967L4830.21,844.876L4830.29,844.785L4830.36,844.697L4830.44,844.611L4830.51,844.523L4830.59,844.435L4830.65,844.354L4830.72,844.269L4830.79,844.181L4830.86,844.101L4830.92,844.02L4830.98,843.94L4831.04,843.864L4831.1,843.784L4831.15,843.705L4831.21,843.63L4831.26,843.554L4831.31,843.483L4831.36,843.413L4831.41,843.338L4831.45,843.269L4831.5,843.201L4831.54,843.136L4831.58,843.071L4831.62,843.008L4831.65,842.949L4831.69,842.886L4831.72,842.825L4831.75,842.767L4831.78,842.715L4831.81,842.659L4831.84,842.604L4831.86,842.554L4831.89,842.509L4831.92,842.445L4832.02,842.224L4832.12,841.995L4832.22,841.773L4832.32,841.558L4832.41,841.35L4832.5,841.149L4832.58,840.953L4832.66,840.764L4832.74,840.584L4832.81,840.409L4832.88,840.237L4832.95,840.072L4833.01,839.918L4833.07,839.766L4833.12,839.621L4833.17,839.483L4833.22,839.347L4833.27,839.221L4833.31,839.098L4833.35,838.98L4833.38,838.868L4833.41,838.762L4833.44,838.661L4833.47,838.556L4833.5,838.46L4833.52,838.373L4833.54,838.285L4833.56,838.201L4833.58,838.116L4833.6,838.033L4833.61,837.957L4833.63,837.861L4833.64,837.829L4833.64,837.797L4833.65,837.765L4833.65,837.716L4833.66,837.676L4833.66,837.645L4833.67,837.605L4833.68,837.565L4833.68,837.516L4833.68,837.489L4833.69,837.402L4833.7,837.314L4833.71,837.225L4833.71,837.137L4833.72,837.042L4833.72,836.944L4833.73,836.843L4833.73,836.733L4833.73,836.619L4833.73,836.505L4833.73,836.386L4833.72,836.253L4833.72,836.115L4833.71,835.976L4833.71,835.83L4833.7,835.675L4833.69,835.513L4833.67,835.345L4833.66,835.168L4833.64,834.987L4833.62,834.795L4833.61,834.597L4833.58,834.393L4833.56,834.181L4833.53,833.962L4833.51,833.732L4833.48,833.504L4833.47,833.453L4833.46,833.405L4833.45,833.353L4833.45,833.299L4833.44,833.235L4833.42,833.169L4833.41,833.093L4833.4,833.025L4833.36,832.848L4833.33,832.667L4833.29,832.474L4833.24,832.263L4833.19,832.039L4833.14,831.808L4833.09,831.562L4833.03,831.308L4832.9,830.762L4832.76,830.184L4832.62,829.581L4832.55,829.261L4832.47,828.934L4832.4,828.604L4832.32,828.266L4832.25,827.921L4832.18,827.568L4832.1,827.208L4832.03,826.845L4831.96,826.484L4831.92,826.282L4831.89,826.093L4831.86,825.903L4831.82,825.708L4831.79,825.513L4831.76,825.319L4831.73,825.119L4831.7,824.92L4831.67,824.72L4831.64,824.515L4831.62,824.305L4831.59,824.1L4831.57,823.896L4831.54,823.68L4831.52,823.47L4831.5,823.26L4831.48,823.039L4831.46,822.823L4831.45,822.602L4831.43,822.38L4831.42,822.159L4831.41,821.925L4831.4,821.698L4831.4,821.47L4831.39,821.242L4831.39,821.008L4831.39,820.767L4831.39,820.527L4831.4,820.279L4831.41,820.038L4831.42,819.796L4831.44,819.541L4831.46,819.292L4831.48,819.037L4831.5,818.781L4831.53,818.524L4831.57,818.261L4831.61,817.991L4831.65,817.72L4831.7,817.456L4831.75,817.184L4831.81,816.913L4831.87,816.634L4831.94,816.35L4832.02,816.071L4832.09,815.808L4832.14,815.638L4832.18,815.502L4832.23,815.365L4832.28,815.204L4832.33,815.056L4832.38,814.932L4832.43,814.784L4832.49,814.624L4832.55,814.489L4832.61,814.342L4832.67,814.183L4832.73,814.047L4832.8,813.9L4832.86,813.756L4832.93,813.61L4833.01,813.454L4833.08,813.309L4833.15,813.165L4833.23,813.02L4833.31,812.877L4833.39,812.723L4833.48,812.573L4833.56,812.432L4833.65,812.29L4833.74,812.141L4833.84,811.992L4833.93,811.854L4834.02,811.718L4834.12,811.572L4834.23,811.426L4834.33,811.284L4834.44,811.143L4834.55,811.001L4834.66,810.862L4834.76,810.734L4834.88,810.597L4835,810.453L4835.12,810.32L4835.24,810.189L4835.36,810.06L4835.48,809.931L4835.61,809.796L4835.74,809.671L4835.87,809.548L4836,809.427L4836.14,809.3L4836.28,809.175L4836.41,809.06L4836.55,808.946L4836.69,808.828L4836.83,808.714L4836.97,808.605L4837.12,808.493L4837.27,808.384L4837.41,808.279L4837.55,808.181L4837.74,808.05L4837.93,807.927L4838.11,807.808L4838.29,807.689L4838.48,807.573L4838.67,807.455L4838.86,807.343L4839.05,807.232L4839.24,807.12L4839.43,807.014L4839.62,806.91L4839.81,806.805L4840,806.704L4840.2,806.606L4840.4,806.506L4840.59,806.412L4840.79,806.319L4840.98,806.229L4841.18,806.139L4841.38,806.053L4841.58,805.969L4841.78,805.886L4841.99,805.807L4842.19,805.73L4842.39,805.655L4842.59,805.581L4842.8,805.509L4843.01,805.441L4843.21,805.376L4843.42,805.313L4843.62,805.251L4843.83,805.191L4844.04,805.136L4844.24,805.082L4844.45,805.03L4844.67,804.981L4844.88,804.934L4845.08,804.891L4845.3,804.849L4845.51,804.809L4845.72,804.773L4845.93,804.739L4846.14,804.707L4846.35,804.678L4846.56,804.651L4846.77,804.628L4846.98,804.606L4847.19,804.587L4847.4,804.57L4847.61,804.556L4847.82,804.545L4848.03,804.535L4848.24,804.529L4848.45,804.525L4848.66,804.523L4848.87,804.524ZM4848.57,813.411L4848.47,813.413L4848.36,813.416L4848.26,813.421L4848.15,813.426L4848.05,813.434L4847.94,813.442L4847.83,813.452L4847.73,813.462L4847.62,813.475L4847.51,813.488L4847.4,813.503L4847.3,813.519L4847.19,813.537L4847.08,813.556L4846.97,813.576L4846.86,813.597L4846.76,813.62L4846.65,813.644L4846.54,813.67L4846.43,813.697L4846.32,813.725L4846.21,813.755L4846.1,813.786L4845.99,813.819L4845.88,813.853L4845.77,813.888L4845.66,813.925L4845.55,813.964L4845.44,814.003L4845.32,814.045L4845.21,814.087L4845.1,814.131L4844.99,814.177L4844.88,814.224L4844.77,814.273L4844.65,814.323L4844.54,814.375L4844.43,814.428L4844.31,814.483L4844.2,814.539L4844.09,814.597L4843.98,814.656L4843.86,814.717L4843.75,814.779L4843.63,814.844L4843.52,814.909L4843.41,814.976L4843.29,815.045L4843.18,815.116L4843.06,815.188L4842.95,815.261L4842.83,815.337L4842.72,815.414L4842.6,815.492L4842.55,815.53L4842.49,815.569L4842.44,815.608L4842.39,815.648L4842.34,815.688L4842.29,815.729L4842.24,815.77L4842.19,815.812L4842.14,815.854L4842.09,815.896L4842.04,815.939L4842,815.983L4841.95,816.027L4841.91,816.072L4841.86,816.117L4841.82,816.162L4841.78,816.208L4841.73,816.254L4841.69,816.301L4841.65,816.348L4841.61,816.396L4841.57,816.444L4841.53,816.493L4841.5,816.542L4841.46,816.591L4841.42,816.641L4841.39,816.691L4841.35,816.742L4841.32,816.793L4841.28,816.844L4841.25,816.896L4841.22,816.949L4841.19,817.001L4841.15,817.054L4841.12,817.108L4841.09,817.162L4841.06,817.216L4841.03,817.271L4841.01,817.326L4840.98,817.381L4840.95,817.437L4840.93,817.493L4840.9,817.55L4840.87,817.607L4840.85,817.664L4840.82,817.722L4840.8,817.78L4840.78,817.838L4840.76,817.897L4840.73,817.956L4840.71,818.015L4840.69,818.075L4840.67,818.135L4840.65,818.195L4840.63,818.256L4840.61,818.317L4840.58,818.44L4840.55,818.564L4840.52,818.69L4840.49,818.817L4840.46,818.944L4840.44,819.073L4840.41,819.204L4840.39,819.335L4840.37,819.467L4840.36,819.6L4840.34,819.735L4840.32,819.87L4840.31,820.006L4840.3,820.143L4840.3,820.281L4840.29,820.42L4840.28,820.56L4840.28,820.7L4840.28,820.841L4840.28,820.984L4840.28,821.126L4840.28,821.27L4840.28,821.414L4840.29,821.559L4840.3,821.704L4840.31,821.85L4840.31,821.997L4840.32,822.144L4840.34,822.291L4840.35,822.439L4840.36,822.588L4840.38,822.737L4840.4,822.886L4840.41,823.036L4840.43,823.186L4840.45,823.336L4840.47,823.487L4840.49,823.638L4840.52,823.789L4840.54,823.94L4840.56,824.092L4840.59,824.244L4840.61,824.395L4840.64,824.547L4840.67,824.699L4840.7,824.851L4840.75,825.155L4840.81,825.459L4840.88,825.762L4840.94,826.065L4841.01,826.367L4841.07,826.668L4841.14,826.968L4841.21,827.266L4841.28,827.562L4841.41,828.149L4841.55,828.726L4841.68,829.292L4841.75,829.57L4841.81,829.844L4841.87,830.115L4841.93,830.382L4841.99,830.645L4842.04,830.904L4842.09,831.157L4842.14,831.407L4842.16,831.529L4842.18,831.651L4842.2,831.771L4842.22,831.889L4842.24,832.007L4842.26,832.123L4842.27,832.237L4842.29,832.35L4842.32,832.625L4842.36,832.895L4842.39,833.16L4842.42,833.42L4842.44,833.675L4842.47,833.926L4842.49,834.173L4842.51,834.416L4842.53,834.654L4842.55,834.889L4842.57,835.12L4842.58,835.348L4842.59,835.572L4842.6,835.793L4842.61,836.011L4842.61,836.227L4842.61,836.439L4842.61,836.649L4842.61,836.856L4842.61,837.061L4842.6,837.264L4842.6,837.465L4842.58,837.665L4842.57,837.862L4842.56,838.058L4842.54,838.253L4842.52,838.447L4842.51,838.543L4842.5,838.639L4842.48,838.735L4842.47,838.831L4842.46,838.926L4842.44,839.022L4842.43,839.117L4842.41,839.212L4842.4,839.307L4842.38,839.402L4842.35,839.591L4842.31,839.781L4842.27,839.971L4842.23,840.16L4842.19,840.35L4842.14,840.541L4842.09,840.732L4842.04,840.924L4841.98,841.118L4841.93,841.312L4841.87,841.507L4841.81,841.704L4841.74,841.903L4841.67,842.103L4841.6,842.305L4841.53,842.51L4841.45,842.716L4841.38,842.925L4841.29,843.136L4841.21,843.35L4841.12,843.567L4841.03,843.787L4840.94,844.01L4840.85,844.236L4840.75,844.466L4840.65,844.699L4840.54,844.936L4840.44,845.177L4840.32,845.422L4840.21,845.672L4840.1,845.925L4839.98,846.183L4839.91,846.324L4839.85,846.464L4839.78,846.603L4839.7,846.743L4839.63,846.881L4839.56,847.02L4839.48,847.158L4839.4,847.296L4839.32,847.433L4839.24,847.57L4839.16,847.707L4839.08,847.843L4838.99,847.979L4838.9,848.115L4838.81,848.25L4838.72,848.385L4838.63,848.519L4838.54,848.653L4838.44,848.787L4838.35,848.92L4838.25,849.054L4838.15,849.186L4838.05,849.319L4837.95,849.451L4837.85,849.582L4837.74,849.714L4837.64,849.845L4837.53,849.976L4837.43,850.106L4837.32,850.236L4837.21,850.366L4837.1,850.495L4836.99,850.624L4836.87,850.753L4836.76,850.881L4836.65,851.009L4836.53,851.137L4836.41,851.264L4836.3,851.391L4836.18,851.518L4836.06,851.644L4835.94,851.771L4835.82,851.896L4835.69,852.022L4835.57,852.147L4835.45,852.272L4835.32,852.397L4835.2,852.521L4835.07,852.645L4834.94,852.768L4834.82,852.892L4834.69,853.015L4834.56,853.138L4834.43,853.26L4834.17,853.504L4833.91,853.747L4833.65,853.989L4833.38,854.229L4833.11,854.469L4832.84,854.707L4832.57,854.945L4832.3,855.181L4832.03,855.416L4831.76,855.65L4831.49,855.883L4831.21,856.115L4830.94,856.346L4830.67,856.576L4830.39,856.805L4829.85,857.26L4828.77,858.158L4828.24,858.602L4827.98,858.823L4827.72,859.042L4827.46,859.261L4827.21,859.479L4826.95,859.696L4826.71,859.913L4826.46,860.128L4826.22,860.343L4825.98,860.557L4825.74,860.77L4825.51,860.982L4825.28,861.194L4825.05,861.405L4824.94,861.51L4824.83,861.615L4824.71,861.735L4824.59,861.857L4824.46,861.979L4824.34,862.102L4824.22,862.227L4824.1,862.353L4823.99,862.48L4823.87,862.608L4823.75,862.738L4823.64,862.868L4823.52,863L4823.41,863.132L4823.3,863.266L4823.19,863.401L4823.07,863.537L4822.96,863.674L4822.86,863.812L4822.75,863.951L4822.64,864.09L4822.53,864.231L4822.43,864.373L4822.32,864.516L4822.22,864.66L4822.11,864.805L4822.01,864.95L4821.91,865.097L4821.81,865.244L4821.71,865.393L4821.61,865.542L4821.51,865.692L4821.42,865.843L4821.32,865.995L4821.22,866.147L4821.13,866.3L4821.03,866.455L4820.94,866.61L4820.85,866.765L4820.76,866.922L4820.67,867.079L4820.58,867.237L4820.49,867.395L4820.4,867.555L4820.31,867.715L4820.22,867.875L4820.14,868.037L4820.05,868.199L4819.97,868.361L4819.88,868.525L4819.8,868.688L4819.72,868.853L4819.63,869.018L4819.55,869.183L4819.47,869.35L4819.39,869.516L4819.31,869.684L4819.23,869.851L4819.16,870.02L4819.08,870.188L4819,870.358L4818.93,870.527L4818.85,870.697L4818.78,870.868L4818.7,871.039L4818.63,871.21L4818.56,871.382L4818.49,871.554L4818.42,871.727L4818.35,871.9L4818.28,872.073L4818.21,872.247L4818.14,872.421L4818.07,872.595L4818.01,872.769L4817.94,872.944L4817.87,873.119L4817.81,873.295L4817.74,873.47L4817.68,873.646L4817.62,873.822L4817.55,873.998L4817.49,874.175L4817.43,874.351L4817.37,874.528L4817.31,874.705L4817.19,875.059L4817.07,875.414L4816.96,875.769L4816.85,876.124L4816.74,876.48L4816.63,876.835L4816.53,877.191L4816.43,877.546L4816.32,877.901L4816.23,878.256L4816.13,878.61L4816.03,878.963L4815.94,879.316L4815.85,879.668L4815.76,880.019L4815.67,880.369L4815.59,880.718L4815.51,881.066L4815.42,881.412L4815.34,881.757L4815.27,882.101L4815.19,882.442L4815.17,882.525L4815.15,882.608L4815.14,882.693L4815.12,882.779L4815.11,882.865L4815.09,882.953L4815.08,883.042L4815.06,883.132L4815.05,883.222L4815.04,883.314L4815.03,883.407L4815.02,883.501L4815.01,883.595L4815,883.691L4814.99,883.787L4814.98,883.885L4814.97,883.983L4814.97,884.083L4814.96,884.183L4814.95,884.284L4814.95,884.386L4814.94,884.489L4814.94,884.698L4814.93,884.91L4814.93,885.125L4814.93,885.343L4814.93,885.565L4814.93,885.789L4814.94,886.017L4814.94,886.248L4814.95,886.481L4814.97,886.717L4814.98,886.956L4815,887.198L4815.01,887.442L4815.03,887.689L4815.06,887.938L4815.08,888.189L4815.1,888.442L4815.13,888.698L4815.16,888.956L4815.19,889.216L4815.22,889.477L4815.26,889.741L4815.29,890.006L4815.33,890.273L4815.37,890.542L4815.41,890.812L4815.45,891.084L4815.5,891.357L4815.54,891.631L4815.59,891.907L4815.64,892.183L4815.68,892.461L4815.73,892.74L4815.79,893.02L4815.84,893.3L4815.89,893.582L4815.95,893.864L4816.01,894.146L4816.06,894.429L4816.12,894.713L4816.18,894.997L4816.24,895.281L4816.31,895.566L4816.37,895.85L4816.43,896.135L4816.5,896.42L4816.56,896.705L4816.63,896.989L4816.7,897.273L4816.77,897.557L4816.83,897.841L4816.9,898.124L4816.98,898.406L4817.05,898.688L4817.12,898.97L4817.19,899.25L4817.26,899.529L4817.34,899.808L4817.41,900.086L4817.48,900.362L4817.56,900.638L4817.64,900.912L4817.71,901.185L4817.79,901.456L4817.86,901.726L4817.94,901.994L4818.02,902.261L4818.1,902.526L4818.17,902.789L4818.25,903.051L4818.33,903.31L4818.41,903.567L4818.48,903.823L4818.56,904.076L4818.64,904.327L4818.72,904.575L4818.8,904.822L4818.88,905.065L4818.95,905.306L4819.03,905.545L4819.11,905.781L4819.19,906.014L4819.26,906.244L4819.34,906.471L4819.42,906.695L4819.49,906.916L4819.57,907.134L4819.65,907.349L4819.72,907.56L4819.79,907.768L4819.87,907.972L4819.94,908.173L4820.02,908.37L4820.09,908.564L4820.16,908.753L4820.23,908.939L4820.3,909.121L4820.37,909.299L4820.44,909.472L4820.51,909.642L4820.58,909.807L4820.64,909.968L4820.71,910.124L4820.78,910.277L4820.84,910.424L4820.9,910.567L4820.97,910.705L4821.03,910.838L4821.09,910.966L4821.15,911.09L4821.2,911.208L4821.26,911.322L4821.32,911.43L4821.37,911.532L4821.42,911.63L4821.48,911.722L4821.53,911.809L4821.61,911.94L4821.68,912.07L4821.76,912.2L4821.85,912.33L4821.93,912.459L4822.01,912.587L4822.09,912.715L4822.17,912.842L4822.26,912.968L4822.34,913.094L4822.42,913.22L4822.51,913.345L4822.59,913.469L4822.68,913.593L4822.77,913.716L4822.85,913.839L4822.94,913.961L4823.03,914.083L4823.12,914.204L4823.2,914.325L4823.29,914.445L4823.38,914.565L4823.47,914.684L4823.56,914.803L4823.66,914.921L4823.75,915.038L4823.84,915.156L4823.93,915.272L4824.03,915.389L4824.12,915.505L4824.21,915.62L4824.31,915.735L4824.4,915.849L4824.5,915.963L4824.69,916.19L4824.88,916.415L4825.08,916.638L4825.27,916.859L4825.47,917.079L4825.67,917.298L4825.87,917.514L4826.08,917.729L4826.28,917.943L4826.49,918.155L4826.69,918.366L4826.9,918.576L4827.11,918.784L4827.32,918.991L4827.53,919.196L4827.75,919.401L4827.96,919.604L4828.18,919.806L4828.4,920.007L4828.62,920.206L4828.84,920.405L4829.06,920.603L4829.28,920.8L4829.5,920.996L4829.72,921.19L4829.95,921.384L4830.17,921.578L4830.4,921.77L4830.63,921.962L4830.86,922.153L4831.09,922.343L4831.31,922.533L4831.55,922.722L4831.78,922.91L4832.01,923.098L4832.24,923.285L4832.47,923.472L4832.71,923.659L4832.94,923.845L4833.41,924.216L4833.88,924.586L4834.35,924.956L4834.83,925.324L4834.88,925.366L4834.94,925.409L4835.01,925.453L4835.07,925.498L4835.14,925.544L4835.22,925.591L4835.29,925.638L4835.37,925.687L4835.45,925.736L4835.54,925.786L4835.63,925.837L4835.73,925.888L4835.82,925.941L4835.92,925.994L4836.03,926.048L4836.13,926.102L4836.24,926.157L4836.35,926.213L4836.47,926.269L4836.59,926.326L4836.71,926.384L4836.83,926.442L4836.96,926.501L4837.09,926.56L4837.22,926.62L4837.35,926.681L4837.49,926.741L4837.63,926.803L4837.92,926.927L4838.21,927.052L4838.52,927.179L4838.84,927.307L4839.16,927.436L4839.49,927.567L4839.83,927.698L4840.18,927.83L4840.54,927.962L4840.9,928.094L4841.27,928.227L4841.65,928.36L4842.03,928.493L4842.42,928.625L4842.81,928.757L4843.21,928.889L4843.61,929.019L4844.02,929.149L4844.43,929.278L4844.85,929.405L4845.27,929.531L4845.69,929.656L4846.11,929.779L4846.54,929.9L4846.76,929.96L4846.97,930.019L4847.19,930.078L4847.4,930.136L4847.62,930.194L4847.83,930.251L4848.05,930.307L4848.27,930.363L4848.48,930.418L4848.7,930.472L4848.92,930.526L4849.14,930.579L4849.35,930.631L4849.57,930.683L4849.79,930.733L4850,930.783L4850.22,930.832L4850.44,930.881L4850.65,930.928L4850.87,930.975L4851.08,931.02L4851.3,931.065L4851.51,931.109L4851.73,931.152L4851.94,931.194L4852.15,931.235L4852.37,931.275L4852.58,931.314L4852.79,931.352L4853,931.388L4853.21,931.424L4853.42,931.459L4853.63,931.492L4853.84,931.524L4854.04,931.556L4854.25,931.586L4854.45,931.614L4854.66,931.642L4854.86,931.668L4855.06,931.693L4855.26,931.717L4855.46,931.739L4855.65,931.76L4855.85,931.78L4856.05,931.799L4856.24,931.816L4856.43,931.831L4856.62,931.846L4856.81,931.858L4857,931.87L4857.18,931.88L4857.37,931.888L4857.57,931.896L4857.78,931.903L4857.99,931.91L4858.2,931.916L4858.41,931.921L4858.63,931.925L4858.84,931.928L4859.06,931.931L4859.28,931.933L4859.5,931.934L4859.72,931.934L4859.94,931.934L4860.17,931.933L4860.39,931.931L4860.62,931.928L4860.85,931.925L4861.08,931.921L4861.31,931.916L4861.54,931.91L4861.78,931.904L4862.01,931.897L4862.25,931.889L4862.48,931.881L4862.72,931.871L4862.96,931.861L4863.2,931.851L4863.44,931.839L4863.68,931.827L4863.93,931.814L4864.17,931.801L4864.42,931.787L4864.66,931.772L4864.91,931.756L4865.15,931.74L4865.4,931.723L4865.65,931.705L4865.9,931.687L4866.15,931.668L4866.4,931.648L4866.65,931.627L4866.9,931.606L4867.15,931.585L4867.41,931.562L4867.66,931.539L4867.91,931.515L4868.17,931.491L4868.42,931.466L4868.67,931.44L4868.93,931.413L4869.18,931.386L4869.44,931.359L4869.69,931.33L4869.95,931.301L4870.2,931.272L4870.46,931.241L4870.72,931.21L4870.97,931.179L4871.23,931.147L4871.48,931.114L4871.74,931.08L4871.99,931.046L4872.25,931.012L4872.5,930.976L4872.76,930.941L4873.01,930.904L4873.27,930.867L4873.52,930.829L4873.77,930.791L4874.03,930.752L4874.28,930.713L4874.53,930.672L4874.78,930.632L4875.04,930.59L4875.29,930.549L4875.54,930.506L4875.79,930.463L4876.04,930.42L4876.28,930.375L4876.53,930.331L4876.78,930.285L4877.03,930.239L4877.27,930.193L4877.52,930.146L4877.76,930.098L4878,930.05L4878.24,930.002L4878.49,929.952L4878.73,929.903L4878.97,929.852L4879.2,929.802L4879.44,929.75L4879.68,929.698L4879.91,929.646L4880.15,929.593L4880.38,929.539L4880.61,929.485L4880.84,929.431L4881.07,929.376L4881.3,929.32L4881.52,929.264L4881.75,929.207L4881.97,929.15L4882.19,929.093L4882.41,929.035L4882.63,928.976L4882.85,928.917L4883.06,928.857L4883.28,928.797L4883.49,928.737L4883.7,928.676L4883.91,928.614L4884.12,928.552L4884.32,928.489L4884.53,928.426L4884.73,928.363L4884.93,928.299L4885.12,928.235L4885.32,928.17L4885.52,928.105L4885.71,928.039L4885.9,927.973L4886.09,927.906L4886.27,927.839L4886.46,927.771L4886.64,927.703L4886.82,927.635L4886.99,927.566L4887.17,927.497L4887.56,927.342L4887.97,927.183L4888.81,926.852L4889.25,926.679L4889.47,926.591L4889.7,926.502L4889.92,926.411L4890.15,926.318L4890.38,926.224L4890.61,926.129L4890.84,926.032L4891.07,925.933L4891.3,925.833L4891.53,925.731L4891.77,925.627L4892,925.521L4892.23,925.414L4892.46,925.305L4892.69,925.193L4892.91,925.08L4893.14,924.965L4893.26,924.907L4893.37,924.848L4893.48,924.788L4893.59,924.729L4893.7,924.668L4893.81,924.607L4893.93,924.546L4894.03,924.483L4894.14,924.421L4894.25,924.358L4894.36,924.294L4894.47,924.229L4894.58,924.165L4894.68,924.099L4894.79,924.033L4894.89,923.966L4895,923.899L4895.1,923.831L4895.2,923.763L4895.3,923.693L4895.4,923.624L4895.5,923.553L4895.6,923.482L4895.7,923.411L4895.8,923.338L4895.9,923.266L4895.99,923.192L4896.08,923.118L4896.18,923.043L4896.27,922.967L4896.36,922.891L4896.45,922.814L4896.54,922.737L4896.63,922.658L4896.71,922.579L4896.8,922.5L4896.88,922.419L4896.96,922.338L4897.04,922.256L4897.12,922.174L4897.2,922.09L4897.28,922.006L4897.36,921.922L4897.43,921.836L4897.5,921.75L4897.57,921.663L4897.64,921.575L4897.71,921.487L4897.78,921.397L4897.84,921.307L4897.91,921.216L4897.97,921.125L4898.03,921.032L4898.09,920.939L4898.15,920.845L4898.2,920.75L4898.25,920.654L4898.31,920.558L4898.36,920.461L4898.4,920.362L4898.45,920.263L4898.49,920.164L4898.54,920.063L4898.58,919.961L4898.61,919.859L4898.65,919.756L4898.69,919.652L4898.72,919.547L4898.75,919.441L4898.78,919.334L4898.8,919.226L4898.83,919.118L4898.85,919.008L4898.87,918.898L4898.9,918.703L4898.93,918.509L4898.96,918.318L4898.99,918.127L4899.02,917.939L4899.04,917.752L4899.05,917.659L4899.06,917.566L4899.07,917.474L4899.07,917.382L4899.08,917.291L4899.09,917.2L4899.1,917.109L4899.1,917.019L4899.11,916.929L4899.11,916.839L4899.11,916.75L4899.11,916.661L4899.11,916.572L4899.11,916.484L4899.11,916.396L4899.11,916.308L4899.1,916.221L4899.1,916.134L4899.09,916.048L4899.08,915.961L4899.07,915.876L4899.06,915.79L4899.05,915.705L4899.04,915.62L4899.03,915.535L4899.01,915.451L4898.99,915.367L4898.97,915.283L4898.95,915.2L4898.93,915.117L4898.91,915.034L4898.88,914.951L4898.86,914.869L4898.83,914.787L4898.8,914.706L4898.77,914.624L4898.74,914.543L4898.7,914.462L4898.66,914.382L4898.63,914.302L4898.59,914.222L4898.54,914.142L4898.5,914.063L4898.45,913.983L4898.41,913.905L4898.36,913.826L4898.31,913.747L4898.25,913.669L4898.19,913.591L4898.14,913.514L4898.08,913.436L4898.01,913.359L4898,913.343L4897.98,913.325L4897.96,913.306L4897.94,913.285L4897.89,913.24L4897.83,913.19L4897.76,913.135L4897.68,913.075L4897.59,913.012L4897.5,912.945L4897.41,912.876L4897.31,912.804L4897.09,912.653L4896.64,912.34L4896.42,912.183L4896.31,912.106L4896.21,912.031L4896.11,911.958L4896.01,911.888L4895.92,911.82L4895.84,911.755L4895.76,911.694L4895.69,911.637L4895.63,911.585L4895.61,911.561L4895.58,911.538L4895.56,911.516L4895.54,911.495L4895.53,911.476L4895.51,911.459L4895.5,911.443L4895.49,911.429L4895.49,911.422L4895.49,911.416L4895.49,911.411L4895.49,911.405L4895.49,911.4L4895.49,911.395L4895.5,911.389L4895.5,911.382L4895.52,911.368L4895.53,911.353L4895.56,911.337L4895.58,911.319L4895.61,911.3L4895.64,911.281L4895.68,911.26L4895.71,911.239L4895.79,911.195L4895.88,911.15L4895.97,911.104L4896.06,911.058L4896.15,911.014L4896.32,910.934L4896.45,910.87L4896.5,910.846L4896.53,910.83L4896.62,910.778L4896.71,910.725L4896.8,910.671L4896.89,910.617L4896.97,910.562L4897.06,910.506L4897.15,910.45L4897.23,910.393L4897.32,910.335L4897.4,910.276L4897.49,910.217L4897.57,910.157L4897.65,910.096L4897.74,910.034L4897.82,909.972L4897.9,909.909L4897.98,909.846L4898.06,909.781L4898.14,909.716L4898.22,909.65L4898.3,909.584L4898.38,909.516L4898.46,909.449L4898.54,909.38L4898.61,909.31L4898.69,909.24L4898.76,909.17L4898.84,909.098L4898.91,909.026L4898.98,908.953L4899.06,908.879L4899.13,908.805L4899.22,908.706L4899.31,908.606L4899.4,908.504L4899.49,908.4L4899.58,908.294L4899.67,908.186L4899.76,908.077L4899.85,907.965L4899.93,907.853L4900.02,907.738L4900.1,907.622L4900.19,907.505L4900.27,907.386L4900.35,907.266L4900.43,907.144L4900.51,907.021L4900.59,906.896L4900.67,906.771L4900.75,906.644L4900.82,906.516L4900.9,906.387L4900.97,906.257L4901.05,906.126L4901.12,905.994L4901.19,905.861L4901.26,905.727L4901.33,905.592L4901.39,905.456L4901.46,905.32L4901.52,905.183L4901.59,905.045L4901.65,904.907L4901.71,904.768L4901.77,904.629L4901.83,904.489L4901.88,904.348L4901.94,904.208L4901.99,904.067L4902.04,903.925L4902.09,903.784L4902.14,903.642L4902.19,903.5L4902.24,903.357L4902.28,903.215L4902.32,903.073L4902.36,902.931L4902.4,902.788L4902.44,902.646L4902.48,902.504L4902.51,902.362L4902.55,902.221L4902.58,902.079L4902.61,901.938L4902.64,901.798L4902.66,901.657L4902.68,901.518L4902.71,901.378L4902.73,901.24L4902.74,901.101L4902.76,900.964L4902.78,900.827L4902.79,900.691L4902.8,900.555L4902.81,900.421L4902.81,900.313L4902.82,900.205L4902.82,900.098L4902.82,899.991L4902.82,899.885L4902.81,899.779L4902.81,899.673L4902.8,899.568L4902.79,899.464L4902.78,899.36L4902.76,899.257L4902.75,899.154L4902.73,899.051L4902.71,898.95L4902.69,898.848L4902.67,898.747L4902.65,898.647L4902.62,898.548L4902.6,898.448L4902.57,898.35L4902.54,898.252L4902.51,898.154L4902.47,898.058L4902.44,897.961L4902.4,897.866L4902.36,897.77L4902.32,897.676L4902.28,897.582L4902.24,897.489L4902.2,897.396L4902.15,897.304L4902.11,897.213L4902.06,897.122L4902.01,897.032L4901.96,896.943L4901.91,896.854L4901.86,896.766L4901.8,896.679L4901.75,896.592L4901.69,896.506L4901.64,896.421L4901.58,896.336L4901.52,896.252L4901.45,896.169L4901.39,896.086L4901.33,896.005L4901.27,895.924L4901.2,895.843L4901.13,895.764L4901.07,895.685L4901,895.607L4900.93,895.53L4900.86,895.453L4900.78,895.378L4900.71,895.303L4900.64,895.228L4900.56,895.155L4900.49,895.083L4900.41,895.011L4900.34,894.94L4900.26,894.87L4900.18,894.801L4900.1,894.732L4900.02,894.664L4900.01,894.653L4899.99,894.64L4899.94,894.609L4899.89,894.571L4899.82,894.526L4899.74,894.477L4899.65,894.422L4899.45,894.299L4898.98,894.011L4898.73,893.854L4898.47,893.694L4898.21,893.535L4898.09,893.456L4897.97,893.379L4897.85,893.304L4897.74,893.232L4897.64,893.162L4897.55,893.096L4897.46,893.033L4897.38,892.976L4897.35,892.948L4897.31,892.922L4897.28,892.898L4897.26,892.875L4897.23,892.853L4897.21,892.833L4897.2,892.814L4897.18,892.797L4897.17,892.781L4897.17,892.774L4897.17,892.768L4897.17,892.762L4897.16,892.756L4897.16,892.751L4897.17,892.746L4897.18,892.714L4897.19,892.682L4897.21,892.649L4897.23,892.616L4897.25,892.582L4897.28,892.548L4897.3,892.514L4897.33,892.479L4897.36,892.444L4897.39,892.408L4897.43,892.372L4897.46,892.336L4897.5,892.3L4897.54,892.263L4897.58,892.226L4897.62,892.188L4897.67,892.151L4897.71,892.113L4897.76,892.075L4897.81,892.037L4897.9,891.961L4898,891.884L4898.11,891.806L4898.22,891.729L4898.32,891.652L4898.44,891.574L4898.55,891.497L4898.66,891.421L4898.88,891.27L4899.1,891.123L4899.21,891.051L4899.31,890.98L4899.41,890.911L4899.5,890.844L4899.59,890.778L4899.68,890.714L4899.76,890.653L4899.79,890.623L4899.83,890.594L4899.86,890.565L4899.89,890.537L4899.92,890.509L4899.95,890.482L4900.03,890.4L4900.11,890.317L4900.2,890.232L4900.28,890.147L4900.36,890.061L4900.44,889.974L4900.52,889.886L4900.6,889.798L4900.67,889.708L4900.75,889.618L4900.83,889.526L4900.9,889.434L4900.98,889.342L4901.05,889.248L4901.13,889.154L4901.2,889.059L4901.28,888.963L4901.35,888.866L4901.42,888.769L4901.49,888.671L4901.56,888.573L4901.63,888.474L4901.7,888.374L4901.77,888.273L4901.83,888.172L4901.9,888.07L4901.96,887.968L4902.03,887.865L4902.09,887.762L4902.15,887.658L4902.22,887.553L4902.28,887.448L4902.34,887.342L4902.4,887.236L4902.45,887.13L4902.51,887.023L4902.57,886.915L4902.62,886.807L4902.68,886.699L4902.73,886.59L4902.78,886.481L4902.83,886.372L4902.88,886.262L4902.93,886.152L4902.98,886.041L4903.03,885.93L4903.07,885.819L4903.12,885.708L4903.16,885.596L4903.2,885.484L4903.24,885.372L4903.28,885.259L4903.32,885.146L4903.36,885.033L4903.39,884.92L4903.43,884.807L4903.46,884.693L4903.49,884.58L4903.52,884.466L4903.55,884.352L4903.58,884.238L4903.61,884.124L4903.63,884.01L4903.66,883.895L4903.69,883.754L4903.71,883.613L4903.74,883.472L4903.76,883.332L4903.78,883.193L4903.79,883.054L4903.81,882.916L4903.82,882.779L4903.83,882.642L4903.84,882.506L4903.84,882.37L4903.85,882.235L4903.85,882.101L4903.85,881.967L4903.85,881.834L4903.84,881.701L4903.83,881.569L4903.82,881.438L4903.81,881.307L4903.8,881.177L4903.78,881.048L4903.77,880.919L4903.75,880.791L4903.73,880.663L4903.7,880.536L4903.68,880.41L4903.65,880.284L4903.62,880.159L4903.58,880.035L4903.55,879.911L4903.51,879.788L4903.48,879.665L4903.43,879.544L4903.39,879.422L4903.35,879.302L4903.3,879.182L4903.25,879.063L4903.2,878.944L4903.15,878.826L4903.1,878.709L4903.04,878.592L4902.98,878.476L4902.92,878.36L4902.86,878.246L4902.79,878.131L4902.73,878.018L4902.66,877.905L4902.59,877.793L4902.52,877.682L4902.44,877.571L4902.37,877.461L4902.29,877.351L4902.21,877.242L4902.13,877.134L4902.04,877.026L4901.96,876.92L4901.87,876.813L4901.78,876.708L4901.69,876.603L4901.6,876.499L4901.5,876.395L4901.41,876.293L4901.31,876.19L4901.21,876.089L4901.14,876.019L4901.07,875.949L4900.99,875.88L4900.92,875.811L4900.85,875.743L4900.77,875.675L4900.7,875.608L4900.62,875.542L4900.55,875.476L4900.47,875.41L4900.32,875.28L4900.16,875.151L4900.01,875.024L4899.85,874.898L4899.69,874.774L4899.53,874.65L4899.37,874.528L4899.21,874.406L4899.05,874.285L4898.73,874.044L4898.71,874.03L4898.69,874.015L4898.64,873.986L4898.59,873.958L4898.54,873.929L4898.48,873.901L4898.43,873.873L4898.37,873.845L4898.3,873.817L4898.18,873.762L4898.05,873.707L4897.92,873.652L4897.86,873.624L4897.8,873.596L4897.74,873.568L4897.69,873.54L4897.64,873.512L4897.59,873.484L4897.57,873.469L4897.55,873.455L4897.53,873.441L4897.51,873.426L4897.49,873.412L4897.48,873.397L4897.46,873.383L4897.45,873.368L4897.44,873.353L4897.43,873.338L4897.42,873.323L4897.41,873.308L4897.41,873.293L4897.4,873.278L4897.4,873.262L4897.4,873.247L4897.4,873.231L4897.41,873.216L4897.41,873.2L4897.42,873.184L4897.43,873.168L4897.44,873.152L4897.46,873.136L4897.47,873.119L4897.49,873.103L4897.52,873.086L4897.54,873.071L4897.56,873.056L4897.59,873.041L4897.61,873.026L4897.64,873.012L4897.67,872.999L4897.71,872.986L4897.74,872.973L4897.77,872.961L4897.81,872.949L4897.85,872.937L4897.88,872.926L4897.96,872.905L4898.04,872.885L4898.13,872.866L4898.22,872.849L4898.31,872.833L4898.4,872.817L4898.49,872.803L4898.59,872.789L4898.69,872.777L4898.78,872.765L4898.88,872.753L4899.07,872.732L4899.44,872.694L4899.61,872.676L4899.69,872.666L4899.77,872.657L4899.84,872.648L4899.91,872.638L4899.97,872.628L4900.02,872.617L4900.24,872.571L4900.46,872.523L4900.69,872.474L4900.91,872.423L4901.14,872.37L4901.37,872.316L4901.61,872.26L4901.84,872.203L4902.08,872.146L4902.32,872.087L4902.8,871.966L4903.29,871.843L4903.77,871.719L4904.26,871.593L4904.74,871.467L4905.7,871.219L4906.17,871.098L4906.63,870.981L4907.08,870.868L4907.51,870.76L4908.04,870.63L4908.55,870.501L4909.05,870.373L4909.54,870.247L4910.02,870.121L4910.48,869.997L4910.94,869.873L4911.39,869.751L4911.83,869.63L4912.27,869.51L4913.12,869.273L4913.97,869.039L4914.39,868.924L4914.8,868.81L4915.22,868.696L4915.64,868.584L4916.06,868.472L4916.49,868.362L4916.91,868.252L4917.35,868.142L4917.79,868.034L4918.01,867.98L4918.23,867.927L4918.46,867.873L4918.69,867.82L4918.92,867.767L4919.15,867.714L4919.39,867.661L4919.62,867.609L4919.86,867.556L4920.11,867.504L4920.35,867.452L4920.6,867.4L4920.85,867.349L4921.11,867.297L4921.36,867.246L4921.62,867.195L4921.89,867.144L4922.16,867.093L4922.65,867L4922.89,866.954L4923.12,866.908L4923.35,866.862L4923.58,866.816L4923.8,866.77L4924.02,866.723L4924.24,866.677L4924.45,866.631L4924.67,866.584L4924.88,866.538L4925.08,866.49L4925.29,866.443L4925.49,866.395L4925.69,866.347L4925.89,866.299L4926.09,866.25L4926.28,866.201L4926.47,866.151L4926.67,866.1L4926.86,866.049L4927.05,865.997L4927.24,865.944L4927.43,865.891L4927.62,865.837L4927.81,865.782L4928,865.726L4928.18,865.669L4928.37,865.612L4928.56,865.553L4928.75,865.494L4928.94,865.433L4929.13,865.371L4929.33,865.308L4929.52,865.244L4929.71,865.179L4929.91,865.112L4930.11,865.044L4930.31,864.975L4930.51,864.904L4930.71,864.832L4931.13,864.684L4931.55,864.529L4931.98,864.368L4932.43,864.2L4932.9,864.025L4933.37,863.843L4933.86,863.652L4934.38,863.454L4934.9,863.247L4935.45,863.032L4936.03,862.807L4936.09,862.782L4936.15,862.755L4936.22,862.728L4936.28,862.7L4936.34,862.671L4936.41,862.641L4936.47,862.611L4936.53,862.58L4936.59,862.548L4936.65,862.516L4936.71,862.483L4936.77,862.449L4936.83,862.414L4936.89,862.379L4936.95,862.343L4937.01,862.306L4937.07,862.269L4937.12,862.231L4937.18,862.192L4937.24,862.153L4937.29,862.113L4937.35,862.072L4937.41,862.031L4937.46,861.989L4937.52,861.947L4937.57,861.903L4937.62,861.86L4937.68,861.815L4937.73,861.77L4937.78,861.725L4937.84,861.678L4937.89,861.631L4937.94,861.584L4937.99,861.536L4938.04,861.487L4938.09,861.438L4938.14,861.389L4938.19,861.338L4938.24,861.288L4938.29,861.236L4938.34,861.184L4938.38,861.132L4938.43,861.079L4938.48,861.025L4938.52,860.971L4938.57,860.917L4938.61,860.862L4938.66,860.806L4938.7,860.75L4938.75,860.694L4938.79,860.637L4938.84,860.579L4938.88,860.521L4938.92,860.463L4938.96,860.404L4939,860.345L4939.04,860.285L4939.08,860.225L4939.12,860.164L4939.16,860.103L4939.2,860.041L4939.24,859.979L4939.32,859.854L4939.39,859.728L4939.46,859.599L4939.53,859.47L4939.6,859.338L4939.67,859.206L4939.73,859.072L4939.8,858.936L4939.86,858.8L4939.91,858.662L4939.97,858.523L4940.03,858.382L4940.08,858.241L4940.13,858.099L4940.18,857.955L4940.22,857.811L4940.27,857.666L4940.31,857.52L4940.35,857.373L4940.39,857.225L4940.43,857.077L4940.46,856.928L4940.49,856.778L4940.52,856.627L4940.55,856.477L4940.57,856.325L4940.6,856.173L4940.62,856.021L4940.64,855.869L4940.65,855.716L4940.67,855.563L4940.68,855.409L4940.69,855.256L4940.7,855.102L4940.71,854.948L4940.71,854.795L4940.71,854.641L4940.71,854.487L4940.71,854.334L4940.7,854.18L4940.69,854.027L4940.68,853.874L4940.67,853.722L4940.66,853.569L4940.64,853.417L4940.62,853.266L4940.6,853.115L4940.57,852.964L4940.56,852.889L4940.55,852.814L4940.53,852.74L4940.52,852.665L4940.5,852.591L4940.48,852.517L4940.47,852.442L4940.45,852.369L4940.43,852.295L4940.41,852.221L4940.4,852.148L4940.38,852.075L4940.36,852.002L4940.33,851.93L4940.31,851.857L4940.29,851.785L4940.27,851.713L4940.24,851.641L4940.22,851.57L4940.19,851.499L4940.17,851.428L4940.14,851.357L4940.12,851.287L4940.09,851.216L4940.06,851.147L4940.03,851.077L4940,851.008L4939.97,850.939L4939.94,850.87L4939.91,850.802L4939.88,850.734L4939.85,850.666L4939.82,850.599L4939.78,850.532L4939.75,850.465L4939.71,850.399L4939.68,850.333L4939.64,850.267L4939.6,850.202L4939.57,850.137L4939.53,850.072L4939.49,850.008L4939.45,849.944L4939.41,849.881L4939.37,849.818L4939.33,849.755L4939.28,849.693L4939.24,849.631L4939.2,849.57L4939.15,849.509L4939.11,849.449L4939.06,849.388L4939.02,849.329L4938.97,849.27L4938.92,849.211L4938.87,849.153L4938.82,849.095L4938.78,849.038L4938.73,848.981L4938.67,848.925L4938.62,848.869L4938.57,848.814L4938.52,848.759L4938.46,848.704L4938.41,848.651L4938.35,848.597L4938.3,848.545L4938.24,848.492L4938.18,848.441L4938.13,848.389L4938.07,848.339L4938.01,848.289L4937.95,848.239L4937.89,848.19L4937.83,848.142L4937.76,848.094L4937.7,848.047L4937.64,848.001L4937.57,847.955L4937.51,847.909L4937.44,847.864L4937.38,847.82L4937.31,847.777L4937.24,847.734L4937.17,847.691L4937.1,847.65L4937.03,847.609L4936.96,847.568L4936.89,847.529L4936.82,847.49L4936.75,847.451L4936.67,847.413L4936.6,847.376L4936.52,847.34L4936.45,847.304L4936.37,847.269L4936.29,847.235L4936.22,847.201L4936.15,847.176L4936.09,847.151L4936.03,847.127L4935.96,847.104L4935.9,847.082L4935.83,847.061L4935.77,847.041L4935.7,847.022L4935.63,847.003L4935.57,846.986L4935.5,846.969L4935.43,846.953L4935.36,846.938L4935.29,846.924L4935.22,846.91L4935.15,846.898L4935.08,846.886L4935.01,846.875L4934.94,846.864L4934.87,846.854L4934.8,846.845L4934.73,846.837L4934.66,846.829L4934.59,846.822L4934.51,846.815L4934.44,846.809L4934.3,846.799L4934.15,846.791L4934.01,846.785L4933.86,846.781L4933.71,846.779L4933.57,846.779L4933.42,846.78L4933.28,846.783L4933.13,846.787L4932.99,846.792L4932.84,846.798L4932.7,846.806L4932.56,846.814L4932.42,846.822L4932.28,846.831L4932.01,846.851L4931.74,846.871L4931.51,846.89L4931.27,846.911L4931.02,846.932L4930.78,846.955L4930.53,846.979L4930.28,847.004L4930.02,847.031L4929.77,847.058L4929.51,847.087L4929.25,847.117L4928.98,847.148L4928.72,847.181L4928.45,847.214L4928.18,847.248L4927.91,847.284L4927.63,847.321L4927.36,847.358L4927.08,847.397L4926.8,847.437L4926.52,847.477L4926.23,847.519L4925.95,847.562L4925.66,847.605L4925.37,847.65L4925.08,847.695L4924.79,847.742L4924.5,847.789L4924.2,847.837L4923.61,847.936L4923.01,848.039L4922.4,848.144L4921.79,848.253L4921.17,848.364L4920.55,848.479L4919.93,848.596L4919.3,848.715L4918.67,848.838L4918.03,848.962L4917.4,849.089L4916.76,849.218L4916.12,849.349L4915.48,849.482L4914.84,849.616L4914.19,849.752L4913.55,849.89L4912.9,850.029L4912.26,850.169L4911.61,850.311L4910.97,850.453L4910.33,850.596L4909.69,850.74L4909.05,850.885L4908.42,851.03L4907.79,851.176L4907.16,851.321L4906.53,851.467L4905.91,851.613L4905.29,851.759L4904.68,851.905L4904.07,852.05L4903.47,852.195L4902.87,852.339L4902.27,852.483L4901.69,852.626L4900.53,852.908L4899.41,853.186L4898.32,853.458L4897.26,853.723L4896.24,853.98L4895.26,854.228L4894.33,854.467L4894.12,854.52L4893.91,854.575L4893.48,854.69L4893.02,854.813L4892.54,854.944L4892.04,855.082L4891.52,855.226L4890.99,855.377L4890.43,855.534L4889.86,855.696L4889.28,855.863L4888.07,856.211L4885.5,856.953L4884.15,857.341L4883.46,857.537L4882.77,857.735L4882.07,857.933L4881.37,858.132L4880.66,858.332L4879.94,858.531L4879.23,858.729L4878.51,858.927L4877.79,859.123L4877.07,859.318L4876.35,859.51L4875.63,859.7L4874.91,859.887L4874.56,859.979L4874.2,860.071L4873.85,860.161L4873.49,860.251L4873.14,860.339L4872.79,860.427L4872.44,860.513L4872.09,860.598L4871.74,860.683L4871.4,860.765L4871.05,860.847L4870.71,860.927L4870.37,861.006L4870.03,861.083L4869.69,861.159L4869.36,861.233L4869.03,861.306L4868.7,861.377L4868.38,861.447L4868.05,861.514L4867.73,861.58L4867.41,861.644L4867.1,861.707L4866.79,861.767L4866.48,861.825L4866.18,861.882L4865.88,861.936L4865.58,861.988L4865.28,862.038L4864.99,862.086L4864.71,862.132L4864.43,862.175L4864.15,862.216L4863.87,862.254L4863.6,862.29L4863.34,862.324L4863.08,862.355L4862.82,862.384L4862.57,862.41L4862.32,862.433L4862.08,862.453L4861.84,862.471L4861.73,862.479L4861.61,862.486L4861.5,862.492L4861.39,862.498L4861.27,862.503L4861.16,862.507L4861.06,862.51L4860.95,862.513L4860.84,862.515L4860.74,862.516L4860.64,862.517L4860.53,862.516L4860.43,862.515L4860.34,862.513L4860.24,862.51L4860.14,862.507L4860.05,862.503L4859.95,862.497L4859.86,862.491L4859.77,862.485L4859.69,862.477L4859.6,862.469L4859.52,862.46L4859.43,862.449L4859.35,862.438L4859.27,862.427L4859.19,862.414L4859.11,862.401L4859.04,862.386L4858.97,862.371L4858.89,862.355L4858.82,862.338L4858.75,862.32L4858.69,862.301L4858.62,862.281L4858.56,862.26L4858.5,862.239L4858.44,862.216L4858.38,862.193L4858.32,862.169L4858.27,862.143L4858.22,862.117L4858.16,862.09L4858.12,862.061L4858.07,862.032L4858.02,862.002L4857.98,861.971L4857.94,861.939L4857.85,861.865L4857.76,861.792L4857.68,861.72L4857.61,861.648L4857.57,861.612L4857.53,861.577L4857.5,861.541L4857.46,861.506L4857.43,861.471L4857.4,861.435L4857.37,861.4L4857.34,861.365L4857.31,861.33L4857.28,861.296L4857.25,861.261L4857.23,861.226L4857.2,861.192L4857.18,861.158L4857.15,861.123L4857.13,861.089L4857.11,861.055L4857.09,861.021L4857.07,860.987L4857.05,860.953L4857.03,860.92L4857.01,860.886L4857,860.852L4856.98,860.819L4856.97,860.785L4856.95,860.752L4856.94,860.719L4856.93,860.685L4856.92,860.652L4856.91,860.619L4856.9,860.586L4856.89,860.553L4856.88,860.52L4856.87,860.487L4856.87,860.454L4856.86,860.421L4856.86,860.389L4856.85,860.356L4856.85,860.323L4856.85,860.29L4856.84,860.258L4856.84,860.225L4856.84,860.193L4856.84,860.16L4856.84,860.128L4856.85,860.095L4856.85,860.063L4856.85,860.03L4856.86,859.998L4856.86,859.965L4856.87,859.933L4856.87,859.901L4856.88,859.868L4856.89,859.836L4856.9,859.803L4856.9,859.771L4856.91,859.739L4856.92,859.706L4856.94,859.642L4856.97,859.577L4857,859.512L4857.03,859.447L4857.06,859.382L4857.09,859.317L4857.13,859.252L4857.17,859.187L4857.21,859.121L4857.25,859.055L4857.29,858.99L4857.34,858.923L4857.39,858.857L4857.44,858.791L4857.49,858.724L4857.55,858.657L4857.6,858.589L4857.66,858.522L4857.72,858.454L4857.78,858.385L4857.84,858.316L4857.91,858.247L4857.97,858.178L4858.04,858.108L4858.11,858.037L4858.25,857.895L4858.39,857.751L4858.54,857.605L4858.69,857.456L4858.85,857.305L4859.17,856.996L4859.34,856.837L4859.51,856.675L4859.67,856.51L4859.84,856.342L4860.01,856.17L4860.1,856.083L4860.18,855.995L4860.27,855.906L4860.35,855.817L4860.44,855.726L4860.52,855.634L4860.6,855.541L4860.69,855.447L4860.77,855.353L4860.85,855.257L4860.94,855.16L4861.02,855.062L4861.1,854.963L4861.18,854.863L4861.26,854.762L4861.34,854.659L4861.42,854.556L4861.5,854.451L4861.58,854.345L4861.65,854.238L4861.73,854.13L4861.8,854.02L4861.88,853.909L4861.95,853.797L4862.02,853.684L4862.09,853.569L4862.16,853.453L4862.22,853.335L4862.29,853.216L4862.35,853.096L4862.42,852.974L4862.48,852.851L4862.54,852.727L4862.6,852.601L4862.65,852.473L4862.71,852.344L4862.76,852.214L4862.81,852.082L4862.86,851.948L4862.91,851.813L4862.95,851.677L4862.97,851.608L4862.99,851.538L4863.02,851.469L4863.04,851.398L4863.06,851.328L4863.07,851.257L4863.09,851.186L4863.11,851.114L4863.13,851.041L4863.15,850.969L4863.21,850.673L4863.28,850.379L4863.34,850.087L4863.4,849.795L4863.46,849.506L4863.52,849.217L4863.58,848.929L4863.63,848.643L4863.68,848.357L4863.73,848.073L4863.78,847.79L4863.83,847.508L4863.88,847.226L4863.92,846.945L4863.96,846.666L4864,846.387L4864.04,846.108L4864.08,845.83L4864.12,845.553L4864.15,845.276L4864.18,845L4864.21,844.725L4864.24,844.449L4864.27,844.174L4864.3,843.899L4864.32,843.625L4864.34,843.351L4864.36,843.076L4864.38,842.802L4864.4,842.528L4864.42,842.254L4864.43,841.98L4864.44,841.706L4864.46,841.431L4864.47,841.157L4864.48,840.882L4864.48,840.607L4864.49,840.331L4864.49,840.055L4864.5,839.779L4864.5,839.502L4864.5,839.224L4864.5,838.946L4864.5,838.667L4864.49,838.387L4864.49,838.107L4864.48,837.826L4864.48,837.544L4864.47,837.261L4864.45,836.977L4864.44,836.692L4864.43,836.406L4864.42,836.119L4864.4,835.83L4864.38,835.541L4864.37,835.25L4864.35,834.958L4864.33,834.664L4864.3,834.369L4864.28,834.073L4864.26,833.775L4864.23,833.476L4864.2,833.174L4864.18,832.872L4864.16,832.705L4864.15,832.538L4864.13,832.371L4864.11,832.204L4864.09,832.037L4864.07,831.87L4864.05,831.703L4864.03,831.536L4864.01,831.368L4863.98,831.201L4863.96,831.034L4863.93,830.868L4863.9,830.701L4863.88,830.534L4863.85,830.368L4863.82,830.201L4863.79,830.035L4863.75,829.87L4863.72,829.704L4863.69,829.539L4863.65,829.374L4863.61,829.209L4863.57,829.045L4863.53,828.881L4863.49,828.718L4863.45,828.555L4863.41,828.392L4863.36,828.23L4863.31,828.069L4863.27,827.908L4863.22,827.747L4863.16,827.587L4863.11,827.409L4863.04,827.229L4862.98,827.048L4862.92,826.866L4862.85,826.683L4862.78,826.499L4862.71,826.314L4862.63,826.127L4862.56,825.94L4862.48,825.753L4862.4,825.564L4862.32,825.375L4862.23,825.185L4862.15,824.995L4862.06,824.804L4861.97,824.612L4861.88,824.421L4861.79,824.229L4861.69,824.037L4861.6,823.844L4861.5,823.652L4861.4,823.459L4861.29,823.267L4861.19,823.074L4861.08,822.882L4860.98,822.69L4860.86,822.498L4860.75,822.307L4860.64,822.115L4860.53,821.925L4860.41,821.735L4860.29,821.545L4860.17,821.356L4860.05,821.168L4859.92,820.98L4859.8,820.794L4859.67,820.608L4859.54,820.423L4859.41,820.239L4859.28,820.056L4859.14,819.875L4859.01,819.694L4858.87,819.515L4858.73,819.337L4858.59,819.161L4858.45,818.986L4858.31,818.813L4858.16,818.641L4858.02,818.47L4857.87,818.302L4857.72,818.135L4857.57,817.97L4857.41,817.807L4857.26,817.646L4857.18,817.566L4857.11,817.486L4857.03,817.408L4856.95,817.329L4856.87,817.251L4856.79,817.174L4856.71,817.098L4856.63,817.021L4856.55,816.946L4856.47,816.871L4856.39,816.797L4856.31,816.723L4856.22,816.65L4856.14,816.577L4856.06,816.505L4855.98,816.434L4855.89,816.363L4855.81,816.293L4855.73,816.223L4855.64,816.154L4855.56,816.086L4855.47,816.019L4855.39,815.952L4855.3,815.886L4855.22,815.82L4855.13,815.755L4855.04,815.691L4854.95,815.628L4854.87,815.565L4854.78,815.503L4854.69,815.442L4854.61,815.382L4854.52,815.322L4854.43,815.263L4854.34,815.205L4854.25,815.148L4854.16,815.091L4854.07,815.035L4853.98,814.98L4853.89,814.926L4853.8,814.873L4853.71,814.82L4853.61,814.768L4853.52,814.717L4853.43,814.667L4853.34,814.618L4853.24,814.57L4853.15,814.522L4853.06,814.476L4852.96,814.43L4852.87,814.385L4852.78,814.341L4852.68,814.298L4852.59,814.256L4852.49,814.215L4852.4,814.175L4852.3,814.135L4852.2,814.097L4852.11,814.059L4852.01,814.023L4851.91,813.988L4851.82,813.953L4851.72,813.919L4851.62,813.887L4851.53,813.855L4851.43,813.825L4851.33,813.795L4851.23,813.767L4851.13,813.739L4851.03,813.713L4850.93,813.688L4850.83,813.663L4850.73,813.64L4850.63,813.618L4850.53,813.597L4850.43,813.577L4850.33,813.558L4850.23,813.54L4850.13,813.523L4850.03,813.508L4849.92,813.493L4849.82,813.48L4849.72,813.467L4849.61,813.456L4849.51,813.447L4849.41,813.438L4849.31,813.43L4849.2,813.424L4849.1,813.419L4848.99,813.415L4848.89,813.412L4848.78,813.41L4848.68,813.41L4848.57,813.411Z" style="fill:rgb(0,2,5);"/>
                </g>
            </g>
            <g transform="matrix(1,0,0,1,5958.04,38.4552)">
                <g transform="matrix(6.7947,0,0,6.7947,-619.321,-916.005)">
                    <text x="96.23px" y="151.784px" style="font-family:'Boogaloo-Regular', 'Boogaloo', cursive;font-size:14.717px;fill:white;">Grunt</text>
                </g>
                <g transform="matrix(6.7947,0,0,6.7947,77.8007,-940.676)">
                    <text x="96.23px" y="151.784px" style="font-family:'Boogaloo-Regular', 'Boogaloo', cursive;font-size:14.717px;fill:white;">Sublime text</text>
                </g>
                <g transform="matrix(6.7947,0,0,6.7947,912.474,-942.106)">
                    <text x="96.23px" y="151.784px" style="font-family:'Boogaloo-Regular', 'Boogaloo', cursive;font-size:14.717px;fill:white;">ExtJS</text>
                </g>
                <g transform="matrix(6.7947,0,0,6.7947,-322.568,-858.336)">
                    <text x="96.23px" y="151.784px" style="font-family:'Boogaloo-Regular', 'Boogaloo', cursive;font-size:14.717px;fill:white;">Prototype</text>
                </g>
                <g transform="matrix(6.7947,0,0,6.7947,10.5504,-727.729)">
                    <text x="96.23px" y="151.784px" style="font-family:'Boogaloo-Regular', 'Boogaloo', cursive;font-size:14.717px;fill:white;">CoffeeScript</text>
                </g>
                <g transform="matrix(6.7947,-5.55112e-16,5.55112e-16,6.7947,-620.708,-753.851)">
                    <text x="96.23px" y="151.784px" style="font-family:'Boogaloo-Regular', 'Boogaloo', cursive;font-size:14.717px;fill:white;">jQuer<tspan x="123.898px " y="151.784px ">y</tspan></text>
                </g>
                <g transform="matrix(6.7947,0,0,6.7947,539.845,-827.984)">
                    <text x="96.23px" y="151.784px" style="font-family:'Boogaloo-Regular', 'Boogaloo', cursive;font-size:14.717px;fill:white;">Mootoools</text>
                </g>
                <g transform="matrix(6.7947,0,0,6.7947,975.927,-727.055)">
                    <text x="96.23px" y="151.784px" style="font-family:'Boogaloo-Regular', 'Boogaloo', cursive;font-size:14.717px;fill:white;">GWT</text>
                </g>
                <g transform="matrix(6.7947,0,0,6.7947,-522.78,-596.075)">
                    <text x="96.23px" y="151.784px" style="font-family:'Boogaloo-Regular', 'Boogaloo', cursive;font-size:14.717px;fill:white;">Flash/Flex</text>
                </g>
                <g transform="matrix(6.7947,0,0,6.7947,653.284,-597.016)">
                    <text x="96.23px" y="151.784px" style="font-family:'Boogaloo-Regular', 'Boogaloo', cursive;font-size:14.717px;fill:white;">Backbone</text>
                </g>
                <g transform="matrix(6.7947,0,0,6.7947,-633.261,-443.168)">
                    <text x="96.23px" y="151.784px" style="font-family:'Boogaloo-Regular', 'Boogaloo', cursive;font-size:14.717px;fill:white;">Bower</text>
                </g>
                <g transform="matrix(6.7947,0,0,6.7947,840.268,-452.618)">
                    <text x="96.23px" y="151.784px" style="font-family:'Boogaloo-Regular', 'Boogaloo', cursive;font-size:14.717px;fill:white;">angular<tspan x="132.788px " y="151.784px ">.</tspan>js</text>
                </g>
            </g>
            <g transform="matrix(1,0,0,1,5958.04,38.4552)">
                <g transform="matrix(6.7947,0,0,6.7947,-619.321,-916.005)">
                    <text x="96.23px" y="151.784px" style="font-family:'Boogaloo-Regular', 'Boogaloo', cursive;font-size:14.717px;fill:white;">Grunt</text>
                </g>
                <g transform="matrix(6.7947,0,0,6.7947,77.8007,-940.676)">
                    <text x="96.23px" y="151.784px" style="font-family:'Boogaloo-Regular', 'Boogaloo', cursive;font-size:14.717px;fill:white;">Sublime text</text>
                </g>
                <g transform="matrix(6.7947,0,0,6.7947,912.474,-942.106)">
                    <text x="96.23px" y="151.784px" style="font-family:'Boogaloo-Regular', 'Boogaloo', cursive;font-size:14.717px;fill:white;">ExtJS</text>
                </g>
                <g transform="matrix(6.7947,0,0,6.7947,-322.568,-858.336)">
                    <text x="96.23px" y="151.784px" style="font-family:'Boogaloo-Regular', 'Boogaloo', cursive;font-size:14.717px;fill:white;">Prototype</text>
                </g>
                <g transform="matrix(6.7947,0,0,6.7947,10.5504,-727.729)">
                    <text x="96.23px" y="151.784px" style="font-family:'Boogaloo-Regular', 'Boogaloo', cursive;font-size:14.717px;fill:white;">CoffeeScript</text>
                </g>
                <g transform="matrix(6.7947,-5.55112e-16,5.55112e-16,6.7947,-620.708,-753.851)">
                    <text x="96.23px" y="151.784px" style="font-family:'Boogaloo-Regular', 'Boogaloo', cursive;font-size:14.717px;fill:white;">jQuer<tspan x="123.898px " y="151.784px ">y</tspan></text>
                </g>
                <g transform="matrix(6.7947,0,0,6.7947,539.845,-827.984)">
                    <text x="96.23px" y="151.784px" style="font-family:'Boogaloo-Regular', 'Boogaloo', cursive;font-size:14.717px;fill:white;">Mootoools</text>
                </g>
                <g transform="matrix(6.7947,0,0,6.7947,975.927,-727.055)">
                    <text x="96.23px" y="151.784px" style="font-family:'Boogaloo-Regular', 'Boogaloo', cursive;font-size:14.717px;fill:white;">GWT</text>
                </g>
                <g transform="matrix(6.7947,0,0,6.7947,-522.78,-596.075)">
                    <text x="96.23px" y="151.784px" style="font-family:'Boogaloo-Regular', 'Boogaloo', cursive;font-size:14.717px;fill:white;">Flash/Flex</text>
                </g>
                <g transform="matrix(6.7947,0,0,6.7947,653.284,-597.016)">
                    <text x="96.23px" y="151.784px" style="font-family:'Boogaloo-Regular', 'Boogaloo', cursive;font-size:14.717px;fill:white;">Backbone</text>
                </g>
                <g transform="matrix(6.7947,0,0,6.7947,-633.261,-443.168)">
                    <text x="96.23px" y="151.784px" style="font-family:'Boogaloo-Regular', 'Boogaloo', cursive;font-size:14.717px;fill:white;">Bower</text>
                </g>
                <g transform="matrix(6.7947,0,0,6.7947,840.268,-452.618)">
                    <text x="96.23px" y="151.784px" style="font-family:'Boogaloo-Regular', 'Boogaloo', cursive;font-size:14.717px;fill:white;">angular<tspan x="132.788px " y="151.784px ">.</tspan>js</text>
                </g>
            </g>
        </g>
    </g>
</svg>
