<?xml version="1.0" encoding="UTF-8" standalone="no"?>
<!DOCTYPE svg PUBLIC "-//W3C//DTD SVG 1.1//EN" "http://www.w3.org/Graphics/SVG/1.1/DTD/svg11.dtd">
<svg width="100%" height="100%" viewBox="0 0 1920 1081" version="1.1" xmlns="http://www.w3.org/2000/svg" xmlns:xlink="http://www.w3.org/1999/xlink" xml:space="preserve" xmlns:serif="http://www.serif.com/" style="fill-rule:evenodd;clip-rule:evenodd;stroke-linejoin:round;stroke-miterlimit:1.41421;">
    <g transform="matrix(1,0,0,1,0,-6083)">
        <g id="trash" transform="matrix(1,0,0,1,-5910,6083.17)">
            <rect x="5910" y="0" width="1920" height="1080"/>
            <g>
                <g transform="matrix(0.851591,0,0,0.851591,5845.42,-4999.61)">
                    <path d="M1324.88,6575.94L1327.04,6575.94L1329.2,6575.95L1331.33,6575.96L1331.48,6575.96L1331.75,6575.96L1332.61,6575.95L1333.16,6575.95L1333.79,6575.94L1334.48,6575.94L1335.22,6575.94L1336.02,6575.94L1336.86,6575.94L1337.74,6575.94L1338.2,6575.95L1338.66,6575.95L1339.12,6575.96L1339.59,6575.97L1340.07,6575.98L1340.55,6575.99L1341.04,6576L1341.53,6576.01L1342.02,6576.02L1342.51,6576.04L1343.01,6576.06L1343.5,6576.08L1344,6576.1L1344.5,6576.12L1344.99,6576.15L1345.49,6576.18L1345.98,6576.21L1346.47,6576.24L1346.96,6576.28L1347.45,6576.32L1347.93,6576.36L1348.42,6576.4L1348.89,6576.45L1349.16,6576.48L1349.4,6576.51L1349.62,6576.54L1349.88,6576.57L1350.12,6576.6L1350.35,6576.64L1350.59,6576.67L1350.83,6576.71L1351.09,6576.75L1351.35,6576.79L1351.6,6576.84L1351.84,6576.88L1352.11,6576.94L1352.36,6576.99L1352.62,6577.04L1352.9,6577.11L1353.19,6577.18L1353.46,6577.25L1353.76,6577.34L1354.08,6577.43L1354.38,6577.53L1354.72,6577.64L1355.08,6577.77L1355.43,6577.91L1355.83,6578.08L1356.26,6578.28L1356.69,6578.49L1357.16,6578.75L1357.44,6578.92L1357.67,6579.06L1358.02,6579.3L1358.33,6579.51L1358.59,6579.71L1358.84,6579.9L1359.18,6580.19L1359.54,6580.52L1359.87,6580.85L1360.23,6581.22L1360.58,6581.63L1360.9,6582.04L1361.23,6582.49L1361.6,6583.07L1361.93,6583.66L1362.23,6584.26L1362.51,6584.92L1362.75,6585.62L1362.96,6586.37L1363.09,6586.97L1363.19,6587.57L1363.26,6588L1363.34,6588.44L1363.4,6588.87L1363.47,6589.3L1363.54,6589.74L1363.6,6590.17L1363.66,6590.61L1363.73,6591.05L1363.78,6591.48L1363.84,6591.92L1363.9,6592.35L1363.95,6592.79L1364,6593.23L1364.05,6593.67L1364.1,6594.1L1364.15,6594.54L1364.19,6594.98L1364.24,6595.42L1364.28,6595.85L1364.32,6596.29L1364.36,6596.73L1364.39,6597.17L1364.43,6597.61L1364.46,6598.05L1364.5,6598.49L1364.53,6598.93L1364.56,6599.37L1364.59,6599.81L1364.61,6600.25L1364.64,6600.69L1364.66,6601.13L1364.68,6601.57L1364.7,6602.01L1364.72,6602.45L1364.74,6602.89L1364.76,6603.34L1364.77,6603.78L1364.79,6604.22L1364.8,6604.66L1364.81,6605.1L1364.82,6605.54L1364.83,6605.98L1364.84,6606.43L1364.84,6606.87L1364.85,6607.31L1364.85,6607.75L1364.85,6608.2L1364.85,6608.64L1364.85,6609.08L1364.85,6609.53L1364.85,6609.97L1364.85,6610.41L1364.84,6610.85L1364.84,6611.3L1364.83,6611.74L1364.82,6612.18L1364.81,6612.63L1364.8,6613.07L1364.79,6613.51L1364.78,6613.96L1364.76,6614.4L1364.75,6614.84L1364.73,6615.29L1364.71,6615.73L1364.7,6616.17L1364.68,6616.62L1364.66,6617.06L1364.64,6617.51L1364.62,6617.95L1364.59,6618.39L1364.57,6618.84L1364.52,6619.73L1364.47,6620.61L1364.41,6621.5L1364.35,6622.39L1364.29,6623.28L1364.22,6624.16L1364.15,6625.05L1364.07,6625.94L1364,6626.82L1363.92,6627.71L1363.84,6628.59L1363.75,6629.48L1363.66,6630.36L1363.58,6631.25L1363.48,6632.13L1363.39,6633.02L1363.29,6633.9L1363.19,6634.78L1363.09,6635.66L1362.99,6636.55L1362.88,6637.43L1362.78,6638.31L1362.67,6639.19L1362.56,6640.07L1362.44,6640.94L1362.33,6641.82L1362.21,6642.7L1362.1,6643.57L1361.98,6644.45L1361.86,6645.32L1361.74,6646.19L1361.62,6647.06L1361.5,6647.93L1361.38,6648.81L1361.13,6650.54L1360.88,6652.27L1360.63,6653.99L1360.38,6655.71L1360.13,6657.42L1359.62,6660.82L1359.37,6662.52L1359.13,6664.2L1358.88,6665.87L1358.64,6667.54L1358.4,6669.2L1358.29,6670.03L1358.17,6670.85L1358.06,6671.67L1357.94,6672.49L1357.83,6673.31L1357.72,6674.12L1357.61,6674.93L1357.51,6675.74L1357.4,6676.54L1357.3,6677.35L1357.2,6678.15L1357.1,6678.94L1357,6679.74L1356.91,6680.53L1356.82,6681.32L1356.73,6682.1L1356.64,6682.88L1356.56,6683.66L1356.47,6684.44L1356.39,6685.21L1356.31,6685.98L1356.24,6686.74L1356.17,6687.51L1356.1,6688.26L1356.03,6689.02L1355.97,6689.77L1355.91,6690.52L1355.85,6691.26L1355.8,6692L1355.75,6692.73L1355.7,6693.46L1355.66,6694.19L1355.62,6694.92L1355.6,6695.27L1355.58,6695.64L1355.5,6697.35L1355.42,6699.07L1355.34,6700.79L1355.26,6702.52L1355.18,6704.24L1355.11,6705.96L1355.04,6707.68L1354.96,6709.4L1354.89,6711.12L1354.82,6712.85L1354.76,6714.57L1354.69,6716.29L1354.62,6718.02L1354.56,6719.74L1354.5,6721.46L1354.44,6723.19L1354.38,6724.91L1354.32,6726.63L1354.26,6728.36L1354.2,6730.08L1354.15,6731.81L1354.09,6733.53L1354.04,6735.26L1353.99,6736.98L1353.93,6738.71L1353.88,6740.43L1353.78,6743.88L1353.69,6747.34L1353.59,6750.79L1353.5,6754.24L1353.41,6757.7L1353.33,6761.15L1353.24,6764.61L1353.16,6768.07L1353.08,6771.53L1353,6774.98L1352.92,6778.44L1352.77,6785.36L1352.62,6792.29L1352.46,6799.22L1352.38,6802.68L1352.3,6806.15L1352.22,6809.61L1352.14,6813.08L1352.06,6816.55L1351.97,6820.02L1351.88,6823.49L1351.79,6826.96L1351.7,6830.43L1351.6,6833.91L1351.5,6837.38L1351.45,6839.12L1351.39,6840.85L1351.34,6842.59L1351.29,6844.33L1351.23,6846.07L1351.18,6847.81L1351.12,6849.54L1351.06,6851.28L1351,6853.02L1350.94,6854.76L1350.88,6856.5L1350.82,6858.24L1350.75,6859.98L1350.68,6861.72L1350.62,6863.46L1350.55,6865.2L1350.48,6866.94L1350.41,6868.68L1350.34,6870.42L1350.26,6872.16L1350.18,6873.9L1350.11,6875.64L1350.03,6877.38L1349.95,6879.13L1349.87,6880.87L1349.78,6882.61L1349.7,6884.35L1349.61,6886.1L1349.52,6887.84L1349.43,6889.58L1349.34,6891.32L1349.24,6893.07L1349.15,6894.81L1349.05,6896.56L1348.95,6898.3L1348.85,6900.05L1348.74,6901.79L1348.63,6903.53L1348.53,6905.28L1348.41,6907.03L1348.3,6908.77L1348.19,6910.52L1348.07,6912.26L1347.95,6914.01L1347.83,6915.75L1347.7,6917.49L1347.54,6919.86L1347.37,6922.21L1347.2,6924.57L1347.04,6926.93L1346.71,6931.65L1346.39,6936.38L1346.07,6941.12L1345.9,6943.49L1345.74,6945.87L1345.57,6948.24L1345.4,6950.61L1345.23,6952.99L1345.06,6955.37L1344.89,6957.75L1344.71,6960.13L1344.53,6962.51L1344.35,6964.89L1344.26,6966.09L1344.16,6967.28L1344.07,6968.47L1343.97,6969.66L1343.88,6970.85L1343.78,6972.05L1343.68,6973.24L1343.58,6974.43L1343.48,6975.62L1343.37,6976.82L1343.27,6978.01L1343.17,6979.2L1343.06,6980.4L1342.95,6981.59L1342.84,6982.78L1342.73,6983.98L1342.62,6985.17L1342.51,6986.36L1342.39,6987.56L1342.28,6988.75L1342.16,6989.94L1342.04,6991.14L1341.92,6992.33L1341.8,6993.48L1341.8,6993.51L1341.79,6993.55L1341.77,6993.83L1341.74,6994.23L1341.71,6994.75L1341.62,6996.06L1341.52,6997.66L1341.46,6998.55L1341.39,6999.49L1341.33,7000.47L1341.26,7001.48L1341.18,7002.52L1341.11,7003.58L1341.03,7004.66L1340.94,7005.73L1340.9,7006.27L1340.85,7006.81L1340.81,7007.35L1340.76,7007.89L1340.71,7008.42L1340.66,7008.94L1340.62,7009.47L1340.57,7009.99L1340.51,7010.5L1340.46,7011.01L1340.41,7011.51L1340.35,7012L1340.3,7012.49L1340.24,7012.97L1340.18,7013.44L1340.12,7013.9L1340.05,7014.36L1339.99,7014.81L1339.92,7015.25L1339.88,7015.48L1339.84,7015.71L1339.8,7015.94L1339.76,7016.16L1339.71,7016.39L1339.67,7016.61L1339.62,7016.84L1339.57,7017.09L1339.51,7017.33L1339.45,7017.58L1339.38,7017.85L1339.31,7018.12L1339.23,7018.4L1339.13,7018.72L1339.02,7019.06L1338.89,7019.42L1338.72,7019.84L1338.52,7020.3L1338.26,7020.84L1337.98,7021.35L1337.72,7021.79L1337.47,7022.17L1337.18,7022.57L1336.86,7022.99L1336.44,7023.47L1335.9,7024.03L1335.33,7024.54L1335,7024.8L1333.98,7025.51L1333.7,7025.68L1333.42,7025.84L1332.05,7026.48L1332.04,7026.48L1330.49,7026.96L1330.29,7027.01L1329.69,7027.13L1329.24,7027.21L1328.78,7027.3L1328.34,7027.37L1327.89,7027.45L1327.44,7027.52L1326.99,7027.6L1326.54,7027.66L1326.1,7027.73L1325.65,7027.79L1325.21,7027.85L1324.76,7027.91L1324.31,7027.97L1323.87,7028.02L1323.42,7028.07L1322.97,7028.11L1322.53,7028.16L1322.08,7028.2L1321.63,7028.25L1321.18,7028.28L1320.74,7028.32L1320.29,7028.36L1319.85,7028.39L1319.41,7028.42L1318.96,7028.45L1318.52,7028.48L1318.07,7028.5L1317.63,7028.52L1317.19,7028.54L1316.75,7028.56L1316.31,7028.58L1315.87,7028.6L1315.42,7028.61L1314.99,7028.62L1314.54,7028.64L1314.1,7028.65L1313.66,7028.65L1313.23,7028.66L1312.79,7028.66L1312.35,7028.67L1311.9,7028.67L1311.47,7028.67L1311.04,7028.67L1310.6,7028.67L1310.16,7028.67L1309.72,7028.66L1309.3,7028.66L1308.86,7028.65L1308.42,7028.65L1307.99,7028.64L1307.56,7028.63L1307.12,7028.62L1306.26,7028.6L1305.41,7028.57L1304.55,7028.54L1303.69,7028.51L1302.84,7028.47L1301.99,7028.43L1301.15,7028.39L1300.3,7028.35L1299.46,7028.31L1298.62,7028.26L1297.79,7028.22L1296.96,7028.17L1295.31,7028.07L1292.06,7027.88L1290.45,7027.78L1289.66,7027.74L1288.88,7027.69L1288.09,7027.65L1287.31,7027.61L1286.54,7027.57L1285.77,7027.53L1285.01,7027.49L1284.26,7027.46L1283.5,7027.43L1282.75,7027.4L1282.02,7027.38L1281.28,7027.36L1280.92,7027.35L1280.57,7027.34L1280.2,7027.34L1279.84,7027.33L1279.49,7027.32L1279.13,7027.32L1278.77,7027.32L1278.42,7027.32L1278.07,7027.31L1277.73,7027.31L1277.39,7027.32L1277.03,7027.32L1274.97,7027.33L1272.9,7027.35L1270.83,7027.36L1268.76,7027.37L1264.63,7027.39L1260.49,7027.41L1256.35,7027.42L1252.21,7027.44L1248.08,7027.45L1243.94,7027.46L1235.67,7027.48L1231.54,7027.5L1227.4,7027.51L1223.27,7027.52L1219.14,7027.54L1215.01,7027.56L1212.94,7027.57L1210.88,7027.58L1208.82,7027.6L1206.75,7027.61L1204.69,7027.62L1202.62,7027.64L1200.56,7027.66L1198.5,7027.68L1196.44,7027.7L1194.38,7027.72L1192.32,7027.74L1190.26,7027.77L1188.2,7027.79L1186.14,7027.82L1184.09,7027.85L1182.03,7027.88L1179.97,7027.91L1177.91,7027.95L1175.86,7027.98L1173.8,7028.02L1171.75,7028.06L1169.7,7028.11L1167.64,7028.15L1165.59,7028.2L1163.54,7028.25L1161.49,7028.3L1159.44,7028.35L1157.39,7028.41L1155.34,7028.47L1153.29,7028.53L1151.25,7028.6L1149.2,7028.67L1147.15,7028.74L1145.1,7028.81L1143.39,7028.87L1141.68,7028.93L1139.96,7028.98L1138.25,7029.03L1136.54,7029.08L1134.82,7029.13L1133.11,7029.17L1131.4,7029.21L1129.69,7029.24L1127.98,7029.28L1126.27,7029.31L1124.56,7029.33L1122.85,7029.36L1121.14,7029.38L1119.44,7029.39L1117.73,7029.41L1116.03,7029.42L1114.32,7029.43L1112.61,7029.43L1110.91,7029.44L1109.21,7029.44L1107.5,7029.43L1105.8,7029.43L1104.1,7029.42L1102.39,7029.41L1100.69,7029.39L1098.99,7029.38L1097.29,7029.36L1095.59,7029.34L1093.89,7029.31L1092.19,7029.28L1090.49,7029.26L1088.78,7029.22L1087.09,7029.19L1085.39,7029.15L1083.69,7029.11L1081.99,7029.07L1080.29,7029.03L1078.59,7028.98L1076.89,7028.93L1075.19,7028.88L1073.49,7028.82L1071.79,7028.77L1070.09,7028.71L1068.39,7028.65L1066.69,7028.58L1065,7028.52L1063.29,7028.45L1061.6,7028.38L1059.9,7028.31L1058.19,7028.24L1056.5,7028.16L1054.8,7028.08L1053.1,7028L1051.39,7027.92L1049.69,7027.84L1047.99,7027.75L1046.29,7027.66L1044.59,7027.58L1042.89,7027.49L1041.19,7027.39L1039.48,7027.3L1037.78,7027.2L1036.09,7027.1L1035.91,7027.09L1035.74,7027.08L1035.56,7027.07L1035.37,7027.07L1035.17,7027.06L1034.99,7027.05L1034.54,7027.04L1034.09,7027.03L1033.62,7027.02L1033.12,7027.02L1032.61,7027.02L1032.07,7027.01L1031.51,7027.01L1030.94,7027.02L1030.35,7027.02L1029.12,7027.03L1027.84,7027.04L1026.51,7027.05L1025.14,7027.06L1024.44,7027.07L1023.73,7027.07L1023.01,7027.07L1022.28,7027.07L1021.55,7027.07L1020.81,7027.07L1020.06,7027.06L1019.31,7027.06L1018.56,7027.05L1017.79,7027.03L1017.03,7027.01L1016.26,7026.99L1015.87,7026.98L1015.49,7026.97L1015.1,7026.95L1014.71,7026.94L1014.33,7026.92L1013.94,7026.9L1013.55,7026.89L1013.17,7026.87L1012.76,7026.85L1012.38,7026.82L1011.99,7026.8L1011.6,7026.77L1011.21,7026.75L1010.81,7026.72L1010.43,7026.69L1010.03,7026.66L1009.64,7026.62L1009.25,7026.59L1008.85,7026.55L1008.47,7026.51L1008.07,7026.47L1007.68,7026.43L1007.3,7026.39L1006.9,7026.34L1006.51,7026.29L1006.12,7026.24L1005.73,7026.19L1005.33,7026.13L1004.94,7026.07L1004.55,7026.01L1004.16,7025.95L1003.78,7025.88L1003.39,7025.82L1002.99,7025.74L1002.6,7025.67L1002.22,7025.59L1001.82,7025.51L1001.43,7025.42L1001.05,7025.34L1000.65,7025.24L1000.26,7025.15L999.877,7025.05L999.479,7024.94L999.093,7024.84L998.698,7024.72L998.314,7024.61L997.919,7024.48L997.525,7024.35L997.132,7024.22L996.769,7024.09L996.555,7024.02L996.338,7023.93L996.142,7023.86L995.945,7023.78L995.749,7023.7L995.555,7023.63L995.36,7023.55L995.165,7023.46L994.969,7023.38L994.774,7023.29L994.557,7023.2L994.362,7023.11L994.168,7023.02L993.973,7022.92L993.779,7022.83L993.562,7022.72L993.367,7022.62L993.174,7022.52L992.98,7022.41L992.766,7022.3L992.571,7022.19L992.376,7022.07L992.162,7021.95L991.97,7021.83L991.776,7021.71L991.583,7021.59L991.37,7021.46L991.088,7021.27L990.79,7021.06L990.423,7020.79L990.035,7020.47L989.672,7020.15L989.374,7019.87L989.102,7019.59L988.851,7019.32L988.613,7019.06L988.39,7018.79L988.183,7018.53L987.963,7018.23L987.788,7017.99L987.643,7017.77L987.485,7017.53L987.34,7017.3L987.19,7017.04L986.968,7016.65L986.746,7016.22L986.561,7015.83L986.398,7015.47L986.243,7015.1L986.109,7014.76L985.988,7014.43L985.876,7014.1L985.774,7013.79L985.679,7013.48L985.593,7013.19L985.513,7012.9L985.437,7012.61L985.366,7012.33L985.3,7012.06L985.238,7011.78L985.178,7011.51L985.123,7011.24L985.07,7010.97L985.02,7010.71L984.972,7010.44L984.926,7010.18L984.882,7009.92L984.84,7009.65L984.8,7009.39L984.761,7009.13L984.724,7008.87L984.688,7008.61L984.654,7008.35L984.621,7008.09L984.589,7007.82L984.559,7007.56L984.529,7007.3L984.499,7007.02L984.446,7006.51L984.396,7005.98L984.348,7005.44L984.304,7004.91L984.263,7004.37L984.224,7003.84L984.188,7003.3L984.154,7002.76L984.123,7002.22L984.093,7001.68L984.065,7001.14L984.04,7000.61L984.016,7000.07L983.993,6999.54L983.972,6999.01L983.953,6998.49L983.935,6997.97L983.918,6997.45L983.902,6996.94L983.873,6995.94L983.848,6994.97L983.825,6994.04L983.805,6993.15L983.767,6991.53L983.749,6990.82L983.731,6990.18L983.722,6989.9L983.713,6989.64L983.704,6989.4L983.695,6989.2L983.687,6989.03L983.679,6988.9L983.674,6988.82L983.668,6988.75L983.567,6987.57L983.463,6986.35L983.361,6985.14L983.259,6983.92L983.159,6982.7L983.06,6981.48L982.962,6980.26L982.865,6979.05L982.77,6977.83L982.675,6976.61L982.581,6975.4L982.489,6974.18L982.397,6972.96L982.306,6971.75L982.217,6970.53L982.128,6969.31L981.953,6966.88L981.781,6964.45L981.612,6962.02L981.446,6959.6L981.283,6957.17L981.123,6954.74L980.964,6952.31L980.808,6949.89L980.653,6947.46L980.5,6945.04L980.349,6942.62L980.199,6940.19L979.901,6935.35L979.606,6930.52L979.312,6925.68L979.018,6920.85L978.869,6918.44L978.72,6916.02L978.571,6913.61L978.419,6911.19L978.269,6908.78L978.121,6906.36L977.977,6903.94L977.837,6901.52L977.699,6899.09L977.564,6896.67L977.433,6894.25L977.304,6891.83L977.179,6889.41L977.056,6886.99L976.936,6884.57L976.819,6882.15L976.704,6879.74L976.592,6877.32L976.483,6874.9L976.376,6872.48L976.271,6870.06L976.169,6867.64L976.07,6865.22L975.972,6862.8L975.877,6860.38L975.784,6857.96L975.693,6855.55L975.603,6853.13L975.516,6850.71L975.431,6848.29L975.348,6845.87L975.266,6843.46L975.186,6841.04L975.108,6838.62L975.031,6836.2L974.956,6833.79L974.883,6831.37L974.81,6828.95L974.74,6826.54L974.67,6824.12L974.602,6821.71L974.535,6819.29L974.469,6816.88L974.404,6814.46L974.34,6812.04L974.277,6809.63L974.153,6804.8L974.033,6799.97L973.915,6795.15L973.8,6790.32L973.686,6785.49L973.461,6775.85L973.237,6766.2L973.124,6761.38L973.009,6756.56L972.894,6751.74L972.776,6746.93L972.655,6742.11L972.531,6737.3L972.468,6734.89L972.404,6732.49L972.339,6730.08L972.273,6727.67L972.206,6725.27L972.137,6722.86L972.067,6720.46L971.996,6718.06L971.924,6715.65L971.85,6713.25L971.775,6710.85L971.698,6708.44L971.62,6706.04L971.539,6703.64L971.458,6701.24L971.374,6698.84L971.289,6696.43L971.201,6694.03L971.112,6691.63L971.021,6689.23L970.928,6686.83L970.832,6684.44L970.735,6682.04L970.635,6679.64L970.533,6677.24L970.428,6674.84L970.321,6672.45L970.212,6670.05L970.1,6667.65L969.985,6665.26L969.868,6662.86L969.748,6660.47L969.626,6658.07L969.5,6655.68L969.372,6653.29L969.241,6650.89L969.107,6648.5L968.969,6646.11L968.829,6643.72L968.685,6641.33L968.538,6638.94L968.388,6636.55L968.235,6634.16L968.078,6631.76L967.998,6630.57L967.918,6629.38L967.836,6628.18L967.754,6626.99L967.671,6625.8L967.586,6624.6L967.501,6623.41L967.415,6622.21L967.328,6621.02L967.241,6619.83L967.152,6618.64L967.062,6617.44L966.972,6616.25L966.88,6615.06L966.787,6613.86L966.694,6612.67L966.599,6611.48L966.504,6610.28L966.407,6609.09L966.31,6607.9L966.211,6606.71L966.112,6605.52L966.011,6604.33L965.909,6603.13L966.167,6599.56L967.218,6596.97L966.849,6596.63L965.104,6593.5L964.41,6589.99L964.837,6586.43L966.341,6583.18L968.777,6580.55L971.905,6578.81L975.419,6578.11L977.916,6578.02L980.411,6577.92L982.907,6577.82L985.401,6577.72L987.896,6577.62L990.391,6577.52L992.888,6577.41L995.386,6577.31L997.884,6577.2L1000.38,6577.09L1005.38,6576.87L1010.38,6576.64L1015.38,6576.42L1025.39,6575.96L1030.4,6575.74L1035.41,6575.52L1037.92,6575.41L1040.42,6575.3L1042.93,6575.19L1045.44,6575.08L1047.95,6574.98L1050.46,6574.88L1052.97,6574.77L1055.48,6574.67L1057.99,6574.57L1060.5,6574.48L1063.01,6574.39L1065.53,6574.29L1068.04,6574.2L1070.56,6574.12L1073.07,6574.03L1075.59,6573.95L1078.1,6573.88L1080.62,6573.8L1083.14,6573.73L1085.65,6573.66L1086.92,6573.63L1088.18,6573.6L1089.44,6573.57L1090.7,6573.54L1091.96,6573.51L1093.22,6573.48L1094.48,6573.45L1095.74,6573.43L1097,6573.4L1098.27,6573.38L1099.53,6573.36L1100.79,6573.33L1102.05,6573.31L1103.31,6573.29L1104.58,6573.28L1105.84,6573.26L1107.1,6573.24L1108.36,6573.23L1109.63,6573.21L1110.89,6573.2L1112.16,6573.19L1113.42,6573.18L1114.68,6573.17L1115.95,6573.16L1117.21,6573.16L1118.48,6573.15L1119.74,6573.15L1121.01,6573.15L1122.28,6573.15L1123.54,6573.15L1124.81,6573.15L1126.07,6573.15L1127.34,6573.16L1128.6,6573.16L1129.87,6573.17L1131.14,6573.18L1132.41,6573.19L1133.67,6573.2L1134.94,6573.22L1136.21,6573.23L1137.21,6573.24L1138.21,6573.26L1139.22,6573.28L1140.22,6573.29L1141.23,6573.31L1142.23,6573.33L1143.23,6573.35L1144.23,6573.37L1145.23,6573.39L1146.23,6573.42L1147.24,6573.44L1148.24,6573.47L1149.24,6573.49L1150.24,6573.52L1152.24,6573.58L1154.23,6573.64L1156.23,6573.7L1158.22,6573.77L1160.22,6573.84L1162.21,6573.91L1164.2,6573.98L1166.19,6574.06L1168.18,6574.14L1170.16,6574.22L1172.15,6574.3L1174.14,6574.39L1176.12,6574.47L1178.1,6574.56L1180.08,6574.64L1184.04,6574.82L1191.95,6575.18L1195.89,6575.35L1197.86,6575.44L1199.84,6575.52L1201.8,6575.61L1203.77,6575.69L1205.74,6575.77L1207.7,6575.85L1209.67,6575.93L1211.63,6576.01L1213.6,6576.08L1215.56,6576.15L1217.52,6576.22L1219.48,6576.29L1221.44,6576.35L1223.39,6576.41L1225.35,6576.47L1226.33,6576.49L1227.31,6576.52L1228.29,6576.54L1229.27,6576.57L1230.24,6576.59L1231.22,6576.61L1232.19,6576.63L1233.17,6576.65L1234.15,6576.67L1235.12,6576.69L1236.1,6576.71L1237.07,6576.72L1238.05,6576.74L1239.03,6576.75L1240,6576.76L1240.98,6576.77L1241.95,6576.78L1242.92,6576.79L1243.9,6576.8L1244.87,6576.8L1245.85,6576.81L1246.82,6576.81L1247.79,6576.81L1248.77,6576.81L1249.74,6576.81L1250.71,6576.81L1251.68,6576.81L1252.66,6576.8L1253.63,6576.79L1254.6,6576.78L1255.57,6576.77L1256.55,6576.76L1257.52,6576.75L1258.49,6576.73L1259.46,6576.72L1260.43,6576.7L1261.4,6576.68L1262.38,6576.66L1264.53,6576.61L1266.68,6576.56L1268.83,6576.51L1270.99,6576.47L1273.14,6576.43L1275.3,6576.38L1277.45,6576.34L1279.61,6576.31L1281.76,6576.27L1283.91,6576.23L1286.07,6576.2L1288.23,6576.17L1290.38,6576.14L1292.54,6576.11L1294.69,6576.09L1296.85,6576.06L1299,6576.04L1301.15,6576.02L1303.31,6576L1305.47,6575.99L1307.62,6575.97L1309.78,6575.96L1311.94,6575.95L1314.1,6575.94L1316.25,6575.94L1318.41,6575.93L1320.57,6575.93L1322.73,6575.93L1324.88,6575.94ZM1278.54,7004.42L1278.96,7004.42L1279.37,7004.42L1279.79,7004.43L1280.21,7004.44L1280.62,7004.44L1281.04,7004.45L1281.46,7004.46L1281.88,7004.47L1282.7,7004.49L1283.54,7004.52L1284.37,7004.55L1285.19,7004.58L1286.03,7004.62L1286.86,7004.66L1287.68,7004.7L1288.5,7004.74L1289.33,7004.78L1290.15,7004.83L1290.97,7004.87L1291.8,7004.92L1293.42,7005.02L1296.67,7005.21L1298.28,7005.31L1299.08,7005.35L1299.88,7005.4L1300.67,7005.44L1301.47,7005.48L1302.26,7005.52L1303.04,7005.56L1303.83,7005.59L1304.61,7005.63L1305.38,7005.66L1306.15,7005.68L1306.92,7005.71L1307.7,7005.73L1308.07,7005.74L1308.45,7005.74L1308.83,7005.75L1309.2,7005.76L1309.58,7005.76L1309.96,7005.77L1310.34,7005.77L1310.7,7005.77L1311.07,7005.77L1311.45,7005.77L1311.82,7005.77L1312.18,7005.77L1312.55,7005.77L1312.91,7005.76L1313.28,7005.76L1313.64,7005.75L1314,7005.74L1314.36,7005.73L1314.73,7005.72L1315.08,7005.71L1315.43,7005.7L1315.79,7005.69L1316.14,7005.67L1316.49,7005.65L1316.85,7005.63L1317.19,7005.61L1317.54,7005.59L1317.88,7005.57L1317.98,7005.57L1317.99,7005.39L1318.03,7004.9L1318.08,7004.4L1318.12,7003.91L1318.19,7002.9L1318.27,7001.88L1318.35,7000.88L1318.42,6999.88L1318.48,6998.9L1318.55,6997.95L1318.61,6997.04L1318.67,6996.17L1318.77,6994.57L1318.86,6993.22L1318.9,6992.63L1318.94,6992.11L1318.97,6991.66L1318.99,6991.42L1319.01,6991.21L1319.14,6990L1319.26,6988.84L1319.37,6987.68L1319.49,6986.51L1319.6,6985.35L1319.71,6984.19L1319.82,6983.02L1319.93,6981.85L1320.04,6980.69L1320.15,6979.52L1320.25,6978.35L1320.36,6977.18L1320.46,6976.01L1320.56,6974.85L1320.66,6973.68L1320.76,6972.51L1320.86,6971.33L1320.96,6970.16L1321.05,6968.99L1321.15,6967.82L1321.24,6966.64L1321.34,6965.47L1321.43,6964.3L1321.52,6963.12L1321.7,6960.77L1321.88,6958.42L1322.05,6956.07L1322.22,6953.71L1322.39,6951.35L1322.56,6949L1322.73,6946.64L1322.89,6944.27L1323.06,6941.91L1323.22,6939.55L1323.55,6934.82L1323.87,6930.08L1324.2,6925.35L1324.36,6922.98L1324.53,6920.6L1324.69,6918.23L1324.86,6915.87L1324.99,6914.15L1325.11,6912.43L1325.22,6910.71L1325.34,6908.99L1325.45,6907.28L1325.56,6905.56L1325.67,6903.84L1325.78,6902.13L1325.88,6900.41L1325.99,6898.69L1326.09,6896.97L1326.19,6895.25L1326.28,6893.53L1326.38,6891.82L1326.47,6890.1L1326.56,6888.38L1326.65,6886.66L1326.74,6884.94L1326.83,6883.22L1326.91,6881.5L1326.99,6879.78L1327.08,6878.06L1327.15,6876.34L1327.23,6874.62L1327.31,6872.9L1327.38,6871.18L1327.46,6869.45L1327.53,6867.73L1327.6,6866.01L1327.67,6864.29L1327.74,6862.57L1327.8,6860.84L1327.87,6859.12L1327.93,6857.4L1328,6855.67L1328.06,6853.95L1328.12,6852.23L1328.17,6850.51L1328.23,6848.78L1328.29,6847.06L1328.35,6845.33L1328.4,6843.61L1328.45,6841.88L1328.51,6840.16L1328.56,6838.43L1328.61,6836.71L1328.71,6833.26L1328.81,6829.81L1328.9,6826.35L1328.99,6822.9L1329.08,6819.44L1329.16,6815.99L1329.25,6812.53L1329.33,6809.08L1329.41,6805.62L1329.49,6802.16L1329.57,6798.7L1329.72,6791.78L1329.88,6784.85L1330.03,6777.93L1330.11,6774.46L1330.19,6770.99L1330.27,6767.53L1330.35,6764.06L1330.44,6760.59L1330.52,6757.12L1330.61,6753.65L1330.7,6750.18L1330.8,6746.71L1330.89,6743.23L1330.99,6739.76L1331.04,6738.02L1331.1,6736.29L1331.15,6734.55L1331.2,6732.81L1331.26,6731.07L1331.32,6729.33L1331.37,6727.6L1331.43,6725.86L1331.49,6724.12L1331.55,6722.38L1331.61,6720.64L1331.68,6718.9L1331.74,6717.16L1331.81,6715.42L1331.88,6713.68L1331.94,6711.94L1332.01,6710.2L1332.09,6708.45L1332.16,6706.71L1332.23,6704.97L1332.31,6703.23L1332.38,6701.49L1332.46,6699.75L1332.54,6698L1332.63,6696.26L1332.71,6694.52L1332.73,6694.11L1332.75,6693.69L1332.8,6692.87L1332.85,6692.04L1332.9,6691.22L1332.96,6690.39L1333.02,6689.56L1333.08,6688.73L1333.15,6687.89L1333.22,6687.06L1333.29,6686.23L1333.37,6685.39L1333.45,6684.56L1333.53,6683.72L1333.61,6682.88L1333.7,6682.04L1333.79,6681.2L1333.88,6680.36L1333.98,6679.52L1334.07,6678.68L1334.17,6677.84L1334.27,6677L1334.37,6676.15L1334.48,6675.31L1334.59,6674.46L1334.69,6673.62L1334.8,6672.77L1334.91,6671.92L1335.03,6671.07L1335.14,6670.23L1335.26,6669.38L1335.38,6668.53L1335.49,6667.68L1335.61,6666.83L1335.73,6665.98L1335.98,6664.28L1336.22,6662.58L1336.47,6660.88L1336.72,6659.18L1336.97,6657.48L1337.47,6654.07L1337.73,6652.38L1337.97,6650.68L1338.22,6648.98L1338.46,6647.29L1338.71,6645.59L1338.83,6644.75L1338.94,6643.91L1339.06,6643.07L1339.17,6642.22L1339.29,6641.38L1339.4,6640.54L1339.51,6639.7L1339.62,6638.86L1339.73,6638.03L1339.84,6637.19L1339.94,6636.36L1340.05,6635.52L1340.15,6634.69L1340.25,6633.86L1340.34,6633.03L1340.44,6632.2L1340.53,6631.37L1340.62,6630.55L1340.71,6629.72L1340.8,6628.9L1340.88,6628.08L1340.96,6627.26L1341.04,6626.45L1341.12,6625.63L1341.19,6624.82L1341.26,6624.01L1341.32,6623.2L1341.39,6622.39L1341.45,6621.59L1341.51,6620.78L1341.56,6619.99L1341.61,6619.19L1341.66,6618.39L1341.71,6617.59L1341.73,6617.2L1341.75,6616.81L1341.77,6616.41L1341.78,6616.02L1341.8,6615.63L1341.82,6615.23L1341.83,6614.84L1341.85,6614.45L1341.86,6614.06L1341.88,6613.67L1341.89,6613.28L1341.9,6612.89L1341.91,6612.5L1341.92,6612.12L1341.93,6611.73L1341.93,6611.34L1341.94,6610.96L1341.94,6610.57L1341.95,6610.19L1341.95,6609.81L1341.95,6609.43L1341.96,6609.05L1341.96,6608.66L1341.95,6608.28L1341.95,6607.91L1341.95,6607.53L1341.95,6607.15L1341.94,6606.77L1341.93,6606.4L1341.93,6606.02L1341.92,6605.65L1341.91,6605.28L1341.9,6604.9L1341.89,6604.53L1341.87,6604.16L1341.86,6603.79L1341.85,6603.42L1341.83,6603.05L1341.81,6602.68L1341.79,6602.32L1341.77,6601.95L1341.75,6601.59L1341.73,6601.23L1341.71,6600.86L1341.68,6600.5L1341.66,6600.14L1341.63,6599.78L1341.6,6599.42L1341.57,6599.06L1341.56,6598.92L1341.32,6598.91L1340.9,6598.9L1340.48,6598.89L1340.06,6598.88L1339.63,6598.87L1339.21,6598.86L1338.79,6598.86L1338.37,6598.85L1337.96,6598.85L1337.56,6598.84L1336.76,6598.84L1335.99,6598.84L1335.25,6598.84L1334.56,6598.84L1333.91,6598.84L1333.33,6598.84L1332.79,6598.85L1331.92,6598.86L1331.57,6598.86L1331.28,6598.86L1329.11,6598.85L1326.97,6598.84L1324.84,6598.83L1322.7,6598.83L1320.57,6598.83L1318.43,6598.83L1316.3,6598.83L1314.16,6598.84L1312.03,6598.85L1309.9,6598.86L1307.76,6598.87L1305.63,6598.88L1303.5,6598.9L1301.36,6598.92L1299.22,6598.94L1297.09,6598.96L1294.96,6598.98L1292.82,6599.01L1290.68,6599.04L1288.55,6599.07L1286.41,6599.1L1284.28,6599.13L1282.14,6599.16L1280.01,6599.2L1277.87,6599.24L1275.73,6599.28L1273.6,6599.32L1271.46,6599.36L1269.32,6599.41L1267.18,6599.45L1265.04,6599.5L1262.89,6599.55L1261.89,6599.57L1260.88,6599.59L1259.87,6599.61L1258.86,6599.63L1257.85,6599.65L1256.84,6599.66L1255.83,6599.67L1254.83,6599.68L1253.81,6599.69L1252.81,6599.7L1251.8,6599.7L1250.79,6599.71L1249.78,6599.71L1248.78,6599.71L1247.77,6599.71L1246.76,6599.71L1245.76,6599.71L1244.75,6599.7L1243.75,6599.7L1242.74,6599.69L1241.74,6599.68L1240.74,6599.67L1239.73,6599.66L1238.73,6599.65L1237.72,6599.63L1236.72,6599.62L1235.72,6599.6L1234.72,6599.59L1233.72,6599.57L1232.71,6599.55L1231.71,6599.53L1230.71,6599.51L1229.71,6599.48L1228.71,6599.46L1227.71,6599.43L1226.71,6599.41L1225.71,6599.38L1224.71,6599.36L1222.72,6599.3L1220.72,6599.24L1218.73,6599.17L1216.73,6599.11L1214.74,6599.03L1212.75,6598.96L1210.76,6598.89L1208.77,6598.81L1206.78,6598.73L1204.8,6598.65L1202.81,6598.57L1200.83,6598.49L1198.84,6598.4L1196.87,6598.31L1194.88,6598.23L1190.92,6598.05L1183.02,6597.69L1179.08,6597.52L1177.1,6597.43L1175.13,6597.35L1173.16,6597.26L1171.2,6597.18L1169.23,6597.1L1167.26,6597.02L1165.3,6596.94L1163.33,6596.86L1161.37,6596.79L1159.4,6596.72L1157.44,6596.65L1155.48,6596.59L1153.52,6596.53L1151.56,6596.47L1149.6,6596.41L1148.62,6596.38L1147.65,6596.36L1146.67,6596.33L1145.69,6596.31L1144.71,6596.29L1143.73,6596.26L1142.76,6596.24L1141.78,6596.22L1140.8,6596.2L1139.82,6596.19L1138.85,6596.17L1137.87,6596.16L1136.89,6596.14L1135.91,6596.13L1134.68,6596.11L1133.44,6596.1L1132.2,6596.09L1130.96,6596.08L1129.72,6596.07L1128.48,6596.06L1127.24,6596.06L1126,6596.05L1124.76,6596.05L1123.52,6596.05L1122.28,6596.04L1121.04,6596.05L1119.8,6596.05L1118.56,6596.05L1117.32,6596.06L1116.07,6596.06L1114.83,6596.07L1113.59,6596.08L1112.35,6596.09L1111.11,6596.1L1109.87,6596.11L1108.63,6596.12L1107.38,6596.14L1106.14,6596.15L1104.9,6596.17L1103.66,6596.19L1102.41,6596.21L1101.17,6596.23L1099.93,6596.25L1098.69,6596.27L1097.45,6596.3L1096.2,6596.32L1094.96,6596.35L1093.72,6596.37L1092.48,6596.4L1091.23,6596.43L1089.99,6596.46L1088.75,6596.49L1087.5,6596.52L1086.26,6596.55L1083.77,6596.62L1081.28,6596.69L1078.8,6596.76L1076.31,6596.84L1073.82,6596.92L1071.33,6597L1068.84,6597.09L1066.35,6597.18L1063.86,6597.27L1061.36,6597.36L1058.87,6597.46L1056.38,6597.55L1053.89,6597.65L1051.39,6597.75L1048.9,6597.86L1046.4,6597.96L1043.91,6598.07L1041.41,6598.18L1038.91,6598.28L1036.42,6598.39L1031.42,6598.61L1026.42,6598.84L1016.41,6599.29L1011.41,6599.52L1006.4,6599.74L1001.39,6599.96L998.878,6600.07L996.371,6600.18L993.863,6600.29L991.353,6600.4L988.842,6600.5L988.559,6600.51L988.724,6601.18L988.827,6602.39L988.93,6603.6L989.031,6604.81L989.131,6606.02L989.23,6607.24L989.328,6608.45L989.425,6609.66L989.521,6610.87L989.616,6612.08L989.71,6613.29L989.803,6614.5L989.895,6615.72L989.986,6616.93L990.077,6618.14L990.166,6619.35L990.254,6620.56L990.341,6621.77L990.427,6622.98L990.513,6624.19L990.597,6625.4L990.681,6626.62L990.763,6627.83L990.845,6629.04L990.926,6630.25L991.085,6632.67L991.241,6635.1L991.393,6637.52L991.541,6639.94L991.687,6642.36L991.829,6644.78L991.968,6647.2L992.104,6649.62L992.237,6652.05L992.367,6654.47L992.493,6656.89L992.617,6659.31L992.739,6661.73L992.857,6664.15L992.973,6666.57L993.086,6668.99L993.196,6671.41L993.304,6673.83L993.41,6676.26L993.513,6678.68L993.614,6681.1L993.712,6683.51L993.808,6685.93L993.902,6688.35L993.994,6690.77L994.084,6693.19L994.172,6695.61L994.258,6698.03L994.342,6700.45L994.425,6702.87L994.505,6705.28L994.584,6707.7L994.662,6710.12L994.737,6712.54L994.812,6714.95L994.884,6717.37L994.956,6719.79L995.026,6722.21L995.095,6724.62L995.162,6727.04L995.229,6729.45L995.294,6731.87L995.359,6734.29L995.422,6736.7L995.546,6741.53L995.667,6746.36L995.785,6751.19L995.901,6756.02L996.016,6760.84L996.129,6765.67L996.353,6775.31L996.578,6784.95L996.692,6789.77L996.807,6794.59L996.924,6799.41L997.044,6804.22L997.168,6809.04L997.23,6811.44L997.294,6813.85L997.359,6816.26L997.424,6818.66L997.491,6821.07L997.559,6823.47L997.628,6825.87L997.699,6828.28L997.771,6830.68L997.844,6833.08L997.918,6835.49L997.995,6837.89L998.072,6840.29L998.152,6842.69L998.233,6845.09L998.316,6847.49L998.4,6849.89L998.487,6852.29L998.575,6854.69L998.665,6857.09L998.758,6859.49L998.852,6861.89L998.949,6864.29L999.048,6866.68L999.149,6869.08L999.252,6871.48L999.358,6873.87L999.467,6876.27L999.577,6878.66L999.691,6881.06L999.807,6883.45L999.926,6885.85L1000.05,6888.24L1000.17,6890.63L1000.3,6893.03L1000.43,6895.42L1000.56,6897.81L1000.7,6900.2L1000.84,6902.59L1000.98,6904.98L1001.12,6907.37L1001.27,6909.76L1001.42,6912.18L1001.58,6914.61L1001.72,6917.03L1001.87,6919.45L1002.17,6924.29L1002.46,6929.12L1002.76,6933.95L1003.05,6938.78L1003.2,6941.19L1003.35,6943.61L1003.51,6946.02L1003.66,6948.42L1003.81,6950.83L1003.97,6953.24L1004.13,6955.64L1004.29,6958.05L1004.46,6960.45L1004.62,6962.85L1004.79,6965.25L1004.97,6967.65L1005.05,6968.85L1005.14,6970.05L1005.23,6971.25L1005.32,6972.45L1005.41,6973.65L1005.5,6974.85L1005.6,6976.04L1005.69,6977.24L1005.79,6978.44L1005.88,6979.64L1005.98,6980.83L1006.08,6982.03L1006.18,6983.23L1006.28,6984.42L1006.38,6985.62L1006.49,6986.86L1006.51,6987.15L1006.53,6987.49L1006.55,6987.81L1006.57,6988.13L1006.58,6988.46L1006.6,6988.79L1006.61,6989.13L1006.62,6989.49L1006.64,6990.21L1006.66,6990.98L1006.7,6992.62L1006.72,6993.5L1006.74,6994.39L1006.76,6995.31L1006.79,6996.25L1006.8,6996.72L1006.82,6997.19L1006.84,6997.66L1006.85,6998.14L1006.87,6998.61L1006.89,6999.08L1006.91,6999.55L1006.94,7000.01L1006.96,7000.47L1006.98,7000.93L1007.01,7001.37L1007.04,7001.81L1007.07,7002.25L1007.1,7002.67L1007.13,7003.08L1007.14,7003.22L1007.22,7003.24L1007.44,7003.28L1007.67,7003.32L1007.91,7003.36L1008.15,7003.4L1008.39,7003.44L1008.64,7003.47L1008.89,7003.51L1009.14,7003.54L1009.4,7003.58L1009.67,7003.61L1009.94,7003.64L1010.21,7003.67L1010.49,7003.7L1010.76,7003.73L1011.06,7003.76L1011.34,7003.79L1011.63,7003.81L1011.92,7003.84L1012.21,7003.86L1012.52,7003.88L1012.82,7003.9L1013.12,7003.93L1013.43,7003.95L1013.74,7003.97L1014.05,7003.98L1014.36,7004L1014.68,7004.02L1015,7004.03L1015.31,7004.05L1015.64,7004.06L1015.96,7004.07L1016.28,7004.08L1016.61,7004.09L1016.93,7004.1L1017.59,7004.12L1018.26,7004.14L1018.92,7004.15L1019.59,7004.16L1020.26,7004.16L1020.94,7004.17L1021.61,7004.17L1022.29,7004.17L1022.96,7004.17L1023.63,7004.17L1024.31,7004.17L1024.98,7004.16L1026.32,7004.15L1027.64,7004.14L1028.94,7004.13L1030.22,7004.12L1030.85,7004.12L1031.48,7004.12L1032.1,7004.12L1032.71,7004.12L1033.32,7004.12L1033.92,7004.13L1034.52,7004.14L1035.11,7004.15L1035.67,7004.16L1035.98,7004.18L1036.27,7004.19L1036.56,7004.2L1036.84,7004.21L1037.12,7004.23L1037.4,7004.24L1039.09,7004.34L1040.77,7004.43L1042.45,7004.53L1044.13,7004.62L1045.81,7004.71L1047.48,7004.8L1049.16,7004.88L1050.83,7004.97L1052.51,7005.05L1054.18,7005.13L1055.86,7005.21L1057.53,7005.29L1059.2,7005.36L1060.87,7005.43L1062.54,7005.5L1064.22,7005.57L1065.89,7005.64L1067.56,7005.7L1069.23,7005.76L1070.89,7005.82L1072.56,7005.88L1074.23,7005.94L1075.9,7005.99L1077.57,7006.04L1079.24,7006.09L1080.9,7006.14L1082.57,7006.18L1084.24,7006.22L1085.9,7006.26L1087.57,7006.3L1089.24,7006.33L1090.9,7006.36L1092.57,7006.39L1094.23,7006.42L1095.9,7006.44L1097.57,7006.46L1099.23,7006.48L1100.9,7006.5L1102.56,7006.51L1104.23,7006.52L1105.89,7006.53L1107.56,7006.53L1109.23,7006.54L1110.89,7006.54L1112.56,7006.53L1114.23,7006.53L1115.89,7006.52L1117.56,7006.51L1119.23,7006.5L1120.89,7006.48L1122.56,7006.46L1124.23,7006.44L1125.89,7006.41L1127.57,7006.38L1129.23,7006.35L1130.9,7006.32L1132.57,7006.28L1134.24,7006.24L1135.91,7006.19L1137.58,7006.15L1139.25,7006.1L1140.93,7006.04L1142.6,7005.99L1144.28,7005.93L1146.35,7005.85L1148.43,7005.78L1150.5,7005.71L1152.58,7005.65L1154.66,7005.58L1156.74,7005.52L1158.82,7005.46L1160.89,7005.41L1162.97,7005.36L1165.05,7005.31L1167.13,7005.26L1169.2,7005.21L1171.28,7005.17L1173.36,7005.13L1175.44,7005.09L1177.52,7005.05L1179.6,7005.02L1181.67,7004.98L1183.75,7004.95L1185.83,7004.92L1187.9,7004.9L1189.98,7004.87L1192.06,7004.85L1194.13,7004.82L1196.21,7004.8L1198.29,7004.78L1200.36,7004.76L1202.44,7004.74L1204.52,7004.73L1206.59,7004.71L1208.67,7004.7L1210.74,7004.69L1212.82,7004.67L1214.89,7004.66L1219.04,7004.64L1223.18,7004.62L1227.33,7004.61L1231.47,7004.6L1235.61,7004.59L1243.88,7004.56L1248.01,7004.55L1252.14,7004.54L1256.27,7004.53L1260.4,7004.51L1264.52,7004.49L1268.64,7004.47L1270.7,7004.46L1272.76,7004.45L1274.82,7004.43L1276.88,7004.42L1277.28,7004.42L1277.71,7004.41L1278.13,7004.42L1278.54,7004.42Z" style="fill:white;"/>
                </g>
                <g transform="matrix(0.851591,0,0,0.851591,5845.42,-4999.61)">
                    <path d="M1072.54,6643.52L1075.71,6645.19L1078.21,6647.76L1079.79,6650.97L1080.3,6654.52L1080.29,6655.66L1080.27,6656.81L1080.26,6657.95L1080.24,6659.09L1080.23,6660.23L1080.22,6661.37L1080.2,6663.66L1080.18,6665.95L1080.17,6668.24L1080.16,6670.52L1080.15,6672.81L1080.15,6675.11L1080.15,6677.4L1080.15,6679.69L1080.16,6681.98L1080.16,6684.28L1080.18,6686.57L1080.19,6688.87L1080.21,6691.17L1080.22,6693.47L1080.25,6695.77L1080.27,6698.07L1080.3,6700.37L1080.32,6702.67L1080.35,6704.97L1080.39,6707.28L1080.42,6709.58L1080.46,6711.89L1080.49,6714.19L1080.53,6716.5L1080.58,6718.81L1080.62,6721.12L1080.66,6723.43L1080.71,6725.74L1080.76,6728.05L1080.81,6730.36L1080.86,6732.67L1080.91,6734.99L1080.96,6737.3L1081.01,6739.61L1081.07,6741.93L1081.18,6746.56L1081.29,6751.19L1081.41,6755.83L1081.52,6760.47L1081.64,6765.11L1081.88,6774.4L1082,6779.05L1082.11,6783.7L1082.22,6788.35L1082.33,6793L1082.39,6795.33L1082.44,6797.65L1082.49,6799.98L1082.55,6802.31L1082.6,6804.64L1082.64,6806.97L1082.69,6809.29L1082.74,6811.62L1082.78,6813.95L1082.82,6816.28L1082.87,6818.61L1082.9,6820.94L1082.94,6823.27L1082.98,6825.6L1083.01,6827.94L1083.04,6830.27L1083.07,6832.6L1083.1,6834.93L1083.13,6837.26L1083.15,6839.59L1083.17,6841.93L1083.19,6844.26L1083.2,6846.59L1083.22,6848.92L1083.23,6851.26L1083.23,6853.59L1083.24,6855.92L1083.24,6858.25L1083.24,6860.59L1083.23,6862.92L1083.22,6865.25L1083.21,6867.58L1083.2,6869.92L1083.18,6872.25L1083.17,6873.42L1083.16,6874.58L1083.15,6875.75L1083.13,6876.92L1083.12,6878.08L1083.11,6879.25L1083.09,6880.42L1083.07,6881.58L1083.06,6882.75L1083.04,6883.91L1083.02,6885.08L1083,6886.25L1082.97,6887.41L1082.95,6888.58L1082.93,6889.75L1082.9,6890.91L1082.88,6892.08L1082.85,6893.24L1082.82,6894.41L1082.79,6895.58L1082.76,6896.74L1082.73,6897.91L1082.7,6899.08L1082.67,6900.24L1082.63,6901.41L1082.6,6902.57L1082.56,6903.74L1082.52,6904.91L1082.48,6906.07L1082.44,6907.24L1082.4,6908.4L1082.36,6909.57L1082.32,6910.74L1082.27,6911.9L1082.22,6913.07L1082.18,6914.23L1082.13,6915.4L1082.08,6916.56L1082.03,6917.73L1081.97,6918.89L1081.92,6920.06L1081.87,6921.22L1081.81,6922.39L1081.75,6923.55L1081.69,6924.72L1081.63,6925.88L1081.57,6927.05L1081.51,6928.21L1081.44,6929.38L1081.38,6930.54L1081.31,6931.71L1081.24,6932.87L1081.17,6934.03L1081.1,6935.2L1081.03,6936.36L1080.96,6937.53L1080.88,6938.69L1080.8,6939.86L1080.73,6941.02L1080.65,6942.18L1080.56,6943.35L1080.48,6944.51L1080.4,6945.67L1080.31,6946.84L1080.22,6948L1080.13,6949.16L1080.05,6950.33L1079.95,6951.48L1079.12,6954.97L1077.24,6958.02L1074.52,6960.34L1071.21,6961.71L1067.64,6961.99L1064.15,6961.16L1061.1,6959.28L1058.78,6956.56L1057.41,6953.25L1057.13,6949.68L1057.22,6948.54L1057.31,6947.4L1057.39,6946.27L1057.48,6945.14L1057.56,6944L1057.64,6942.87L1057.72,6941.74L1057.8,6940.6L1057.88,6939.47L1057.96,6938.33L1058.03,6937.2L1058.11,6936.06L1058.18,6934.92L1058.25,6933.79L1058.32,6932.65L1058.39,6931.52L1058.45,6930.38L1058.52,6929.24L1058.58,6928.1L1058.64,6926.97L1058.71,6925.83L1058.77,6924.69L1058.83,6923.55L1058.88,6922.41L1058.94,6921.27L1058.99,6920.13L1059.05,6918.99L1059.1,6917.85L1059.15,6916.71L1059.2,6915.57L1059.25,6914.43L1059.3,6913.29L1059.35,6912.15L1059.39,6911.01L1059.43,6909.86L1059.48,6908.72L1059.52,6907.58L1059.56,6906.44L1059.6,6905.29L1059.64,6904.15L1059.67,6903.01L1059.71,6901.86L1059.74,6900.72L1059.78,6899.58L1059.81,6898.43L1059.84,6897.29L1059.87,6896.14L1059.9,6895L1059.93,6893.85L1059.96,6892.71L1059.99,6891.56L1060.01,6890.42L1060.03,6889.27L1060.06,6888.12L1060.08,6886.98L1060.1,6885.83L1060.12,6884.69L1060.14,6883.54L1060.16,6882.39L1060.18,6881.24L1060.19,6880.1L1060.21,6878.95L1060.22,6877.8L1060.24,6876.65L1060.25,6875.5L1060.26,6874.35L1060.27,6873.2L1060.28,6872.06L1060.3,6869.76L1060.32,6867.46L1060.33,6865.16L1060.33,6862.86L1060.34,6860.55L1060.34,6858.25L1060.34,6855.95L1060.34,6853.65L1060.33,6851.34L1060.32,6849.03L1060.31,6846.73L1060.29,6844.42L1060.27,6842.11L1060.25,6839.81L1060.23,6837.5L1060.2,6835.19L1060.18,6832.88L1060.15,6830.57L1060.12,6828.26L1060.08,6825.95L1060.05,6823.64L1060.01,6821.32L1059.97,6819.01L1059.93,6816.69L1059.89,6814.38L1059.84,6812.07L1059.8,6809.75L1059.75,6807.44L1059.7,6805.12L1059.65,6802.8L1059.6,6800.49L1059.55,6798.17L1059.5,6795.85L1059.44,6793.54L1059.33,6788.9L1059.22,6784.26L1059.1,6779.62L1058.99,6774.98L1058.75,6765.69L1058.63,6761.05L1058.52,6756.4L1058.4,6751.76L1058.29,6747.11L1058.17,6742.47L1058.12,6740.14L1058.07,6737.82L1058.01,6735.5L1057.96,6733.17L1057.91,6730.85L1057.86,6728.52L1057.82,6726.2L1057.77,6723.88L1057.72,6721.55L1057.68,6719.23L1057.64,6716.9L1057.6,6714.58L1057.56,6712.26L1057.52,6709.93L1057.49,6707.61L1057.46,6705.28L1057.43,6702.96L1057.4,6700.64L1057.37,6698.31L1057.35,6695.99L1057.33,6693.67L1057.31,6691.34L1057.29,6689.02L1057.28,6686.7L1057.27,6684.37L1057.26,6682.05L1057.25,6679.73L1057.25,6677.41L1057.25,6675.08L1057.26,6672.76L1057.26,6670.44L1057.27,6668.12L1057.29,6665.8L1057.3,6663.48L1057.32,6661.16L1057.33,6660L1057.35,6658.84L1057.36,6657.68L1057.37,6656.52L1057.39,6655.36L1057.4,6654.2L1058.01,6650.67L1059.68,6647.5L1062.25,6645.01L1065.47,6643.42L1069.01,6642.91L1072.54,6643.52Z" style="fill:white;"/>
                </g>
                <g transform="matrix(0.851591,0,0,0.851591,5845.42,-4999.61)">
                    <path d="M1166.79,6646.33L1169.98,6647.96L1172.52,6650.5L1174.14,6653.69L1174.7,6657.23L1174.7,6659.89L1174.69,6662.57L1174.68,6665.24L1174.67,6667.91L1174.66,6670.58L1174.64,6673.25L1174.62,6675.92L1174.6,6678.59L1174.58,6681.26L1174.56,6683.93L1174.53,6686.6L1174.5,6689.27L1174.47,6691.93L1174.44,6694.6L1174.4,6697.26L1174.37,6699.93L1174.33,6702.59L1174.29,6705.26L1174.25,6707.92L1174.21,6710.58L1174.13,6715.91L1174.05,6721.23L1173.88,6731.86L1173.8,6737.18L1173.71,6742.49L1173.67,6745.15L1173.63,6747.8L1173.6,6750.45L1173.56,6753.11L1173.52,6755.76L1173.49,6758.41L1173.46,6761.07L1173.43,6763.72L1173.4,6766.37L1173.37,6769.02L1173.34,6771.67L1173.32,6774.32L1173.3,6776.97L1173.28,6779.62L1173.27,6782.27L1173.25,6784.92L1173.24,6787.56L1173.23,6790.21L1173.23,6792.86L1173.23,6795.5L1173.23,6798.15L1173.23,6800.8L1173.24,6802.12L1173.24,6803.44L1173.25,6804.76L1173.25,6806.08L1173.26,6807.4L1173.27,6808.73L1173.28,6810.05L1173.29,6811.37L1173.3,6812.69L1173.31,6814.01L1173.32,6815.33L1173.34,6816.65L1173.35,6817.98L1173.37,6819.3L1173.38,6820.62L1173.4,6821.94L1173.42,6823.26L1173.44,6824.58L1173.46,6825.9L1173.49,6827.22L1173.51,6828.17L1173.53,6829.12L1173.55,6830.07L1173.57,6831.02L1173.59,6831.97L1173.62,6832.92L1173.64,6833.88L1173.67,6834.83L1173.7,6835.78L1173.74,6836.74L1173.77,6837.69L1173.8,6838.65L1173.84,6839.61L1173.87,6840.57L1173.91,6841.52L1173.95,6842.48L1173.99,6843.44L1174.03,6844.4L1174.07,6845.36L1174.11,6846.32L1174.15,6847.28L1174.2,6848.24L1174.29,6850.17L1174.39,6852.1L1174.48,6854.03L1174.58,6855.97L1174.69,6857.9L1174.79,6859.84L1174.9,6861.78L1175,6863.72L1175.11,6865.66L1175.33,6869.56L1175.55,6873.46L1175.77,6877.37L1175.88,6879.33L1175.99,6881.28L1176.09,6883.25L1176.2,6885.21L1176.3,6887.18L1176.4,6889.14L1176.49,6891.11L1176.59,6893.08L1176.63,6894.07L1176.67,6895.05L1176.72,6896.04L1176.76,6897.03L1176.8,6898.01L1176.84,6899L1176.88,6899.99L1176.92,6900.98L1176.96,6901.97L1176.99,6902.96L1177.03,6903.95L1177.06,6904.94L1177.09,6905.93L1177.12,6906.92L1177.15,6907.91L1177.18,6908.9L1177.2,6909.9L1177.23,6910.89L1177.25,6911.88L1177.28,6912.87L1177.3,6913.87L1177.31,6914.86L1177.33,6915.86L1177.34,6916.85L1177.36,6917.85L1177.37,6918.84L1177.38,6919.84L1177.38,6920.83L1177.39,6921.83L1177.39,6922.83L1177.39,6923.82L1177.39,6924.82L1177.39,6925.82L1177.38,6926.82L1177.38,6927.82L1177.37,6928.82L1177.36,6929.82L1177.34,6930.82L1177.33,6931.82L1177.31,6932.82L1177.29,6933.82L1177.26,6934.82L1177.24,6935.82L1177.21,6936.82L1177.17,6937.82L1177.14,6938.82L1177.1,6939.82L1177.06,6940.83L1177.02,6941.83L1176.98,6942.83L1176.93,6943.84L1176.88,6944.84L1176.82,6945.84L1176.77,6946.85L1176.71,6947.85L1176.64,6948.86L1176.58,6949.86L1176.51,6950.87L1176.43,6951.87L1176.36,6952.86L1175.54,6956.35L1173.67,6959.41L1170.96,6961.74L1167.65,6963.12L1164.08,6963.42L1160.6,6962.59L1157.54,6960.73L1155.2,6958.01L1153.82,6954.71L1153.53,6951.14L1153.6,6950.19L1153.67,6949.26L1153.73,6948.32L1153.79,6947.39L1153.85,6946.45L1153.91,6945.52L1153.96,6944.58L1154.01,6943.64L1154.06,6942.71L1154.1,6941.77L1154.14,6940.83L1154.18,6939.89L1154.22,6938.95L1154.26,6938.01L1154.29,6937.07L1154.32,6936.13L1154.35,6935.18L1154.37,6934.24L1154.39,6933.3L1154.41,6932.35L1154.43,6931.41L1154.45,6930.46L1154.46,6929.52L1154.47,6928.57L1154.48,6927.62L1154.49,6926.68L1154.49,6925.73L1154.5,6924.78L1154.5,6923.83L1154.5,6922.88L1154.49,6921.93L1154.49,6920.98L1154.48,6920.03L1154.47,6919.07L1154.46,6918.12L1154.45,6917.17L1154.43,6916.21L1154.42,6915.26L1154.4,6914.31L1154.38,6913.35L1154.36,6912.39L1154.34,6911.44L1154.32,6910.48L1154.29,6909.52L1154.26,6908.57L1154.24,6907.61L1154.2,6906.65L1154.17,6905.69L1154.14,6904.73L1154.11,6903.77L1154.07,6902.81L1154.04,6901.85L1154,6900.89L1153.96,6899.92L1153.92,6898.96L1153.88,6898L1153.84,6897.03L1153.8,6896.07L1153.76,6895.1L1153.71,6894.14L1153.62,6892.21L1153.53,6890.27L1153.43,6888.34L1153.33,6886.4L1153.23,6884.46L1153.12,6882.52L1153.02,6880.58L1152.91,6878.64L1152.69,6874.75L1152.47,6870.85L1152.25,6866.95L1152.14,6864.99L1152.03,6863.04L1151.92,6861.08L1151.82,6859.12L1151.72,6857.16L1151.62,6855.2L1151.52,6853.24L1151.42,6851.28L1151.33,6849.32L1151.28,6848.33L1151.24,6847.35L1151.19,6846.36L1151.15,6845.38L1151.11,6844.4L1151.07,6843.41L1151.03,6842.43L1150.99,6841.44L1150.95,6840.46L1150.92,6839.47L1150.88,6838.49L1150.85,6837.5L1150.82,6836.51L1150.79,6835.53L1150.76,6834.54L1150.73,6833.55L1150.7,6832.57L1150.68,6831.58L1150.65,6830.59L1150.63,6829.6L1150.61,6828.62L1150.59,6827.63L1150.57,6826.29L1150.55,6824.95L1150.53,6823.61L1150.51,6822.27L1150.49,6820.93L1150.47,6819.59L1150.45,6818.25L1150.44,6816.91L1150.42,6815.57L1150.41,6814.23L1150.4,6812.89L1150.39,6811.55L1150.38,6810.21L1150.37,6808.88L1150.36,6807.54L1150.35,6806.2L1150.35,6804.86L1150.34,6803.52L1150.34,6802.19L1150.33,6800.85L1150.33,6798.17L1150.33,6795.5L1150.33,6792.83L1150.33,6790.15L1150.34,6787.48L1150.35,6784.81L1150.37,6782.14L1150.38,6779.47L1150.4,6776.8L1150.42,6774.13L1150.45,6771.46L1150.47,6768.79L1150.5,6766.13L1150.53,6763.46L1150.56,6760.79L1150.59,6758.13L1150.63,6755.46L1150.66,6752.8L1150.7,6750.13L1150.74,6747.47L1150.78,6744.81L1150.82,6742.14L1150.9,6736.82L1150.98,6731.5L1151.15,6720.86L1151.24,6715.55L1151.32,6710.24L1151.36,6707.58L1151.39,6704.93L1151.43,6702.27L1151.47,6699.62L1151.51,6696.96L1151.54,6694.31L1151.57,6691.66L1151.6,6689.01L1151.63,6686.36L1151.66,6683.7L1151.68,6681.05L1151.71,6678.4L1151.73,6675.75L1151.75,6673.11L1151.76,6670.46L1151.78,6667.81L1151.79,6665.16L1151.79,6662.51L1151.8,6659.87L1151.8,6657.21L1152.36,6653.68L1153.99,6650.49L1156.53,6647.95L1159.72,6646.33L1163.26,6645.77L1166.79,6646.33Z" style="fill:white;"/>
                </g>
                <g transform="matrix(0.851591,0,0,0.851591,5845.42,-4999.61)">
                    <path d="M1259.86,6646.15L1263.14,6647.6L1265.81,6649.99L1267.61,6653.09L1268.36,6656.59L1268.44,6658.07L1268.52,6659.55L1268.6,6661.04L1268.68,6662.53L1268.75,6664.01L1268.82,6665.5L1268.89,6666.99L1268.95,6668.47L1269.02,6669.95L1269.08,6671.44L1269.14,6672.92L1269.19,6674.41L1269.25,6675.89L1269.3,6677.37L1269.35,6678.85L1269.4,6680.34L1269.45,6681.82L1269.49,6683.3L1269.53,6684.78L1269.57,6686.26L1269.61,6687.74L1269.65,6689.22L1269.68,6690.7L1269.71,6692.18L1269.74,6693.65L1269.77,6695.13L1269.8,6696.61L1269.82,6698.09L1269.85,6699.56L1269.87,6701.04L1269.89,6702.52L1269.91,6703.99L1269.92,6705.47L1269.94,6706.94L1269.95,6708.41L1269.96,6709.89L1269.97,6711.36L1269.98,6712.84L1269.99,6714.31L1270,6715.78L1270,6717.26L1270.01,6718.73L1270.01,6720.2L1270.01,6721.67L1270.01,6723.15L1270.01,6724.62L1270,6726.09L1270,6727.56L1269.99,6729.03L1269.98,6730.5L1269.98,6731.97L1269.97,6733.44L1269.96,6734.91L1269.95,6736.38L1269.93,6737.85L1269.92,6739.31L1269.91,6740.78L1269.89,6742.25L1269.88,6743.72L1269.86,6745.19L1269.82,6748.12L1269.78,6751.05L1269.74,6753.99L1269.69,6756.92L1269.65,6759.85L1269.6,6762.78L1269.54,6765.71L1269.49,6768.64L1269.43,6771.57L1269.38,6774.5L1269.32,6777.43L1269.26,6780.35L1269.14,6786.2L1268.89,6797.91L1268.77,6803.76L1268.71,6806.68L1268.65,6809.6L1268.6,6812.53L1268.54,6815.45L1268.49,6818.37L1268.43,6821.3L1268.38,6824.22L1268.34,6827.14L1268.29,6830.07L1268.25,6832.99L1268.21,6835.91L1268.18,6838.84L1268.16,6840.3L1268.15,6841.76L1268.13,6843.23L1268.12,6844.69L1268.11,6845.53L1268.11,6846.38L1268.1,6847.23L1268.1,6848.07L1268.1,6848.92L1268.09,6849.77L1268.09,6850.61L1268.09,6851.46L1268.1,6852.31L1268.1,6853.15L1268.1,6854L1268.11,6854.85L1268.11,6855.7L1268.12,6856.55L1268.13,6858.24L1268.15,6859.94L1268.17,6861.64L1268.2,6863.34L1268.22,6865.05L1268.25,6866.75L1268.29,6868.45L1268.32,6870.15L1268.36,6871.86L1268.4,6873.57L1268.44,6875.27L1268.49,6876.98L1268.53,6878.69L1268.58,6880.4L1268.63,6882.11L1268.68,6883.82L1268.73,6885.53L1268.84,6888.96L1268.94,6892.4L1269.16,6899.27L1269.27,6902.72L1269.38,6906.17L1269.43,6907.89L1269.49,6909.62L1269.54,6911.35L1269.59,6913.08L1269.63,6914.81L1269.68,6916.54L1269.72,6918.27L1269.77,6920.01L1269.81,6921.74L1269.85,6923.48L1269.88,6925.21L1269.91,6926.95L1269.95,6928.69L1269.97,6930.43L1270,6932.17L1270.02,6933.92L1270.04,6935.66L1270.05,6936.53L1270.05,6937.41L1270.06,6938.28L1270.07,6939.15L1270.07,6940.03L1270.07,6940.9L1270.08,6941.77L1270.08,6942.65L1270.08,6943.52L1270.08,6944.4L1270.07,6945.27L1270.07,6946.15L1270.07,6947.03L1270.06,6947.9L1270.06,6948.78L1270.05,6949.65L1270.04,6950.53L1270.03,6951.41L1270.02,6952.29L1270.01,6953.16L1269.99,6954.04L1269.98,6954.91L1269.36,6958.44L1267.68,6961.61L1265.1,6964.1L1261.88,6965.67L1258.34,6966.17L1254.81,6965.55L1251.64,6963.87L1249.15,6961.29L1247.58,6958.07L1247.08,6954.53L1247.1,6953.67L1247.11,6952.83L1247.12,6951.98L1247.13,6951.14L1247.14,6950.29L1247.15,6949.44L1247.16,6948.6L1247.16,6947.75L1247.17,6946.9L1247.17,6946.06L1247.17,6945.21L1247.18,6944.36L1247.18,6943.52L1247.18,6942.67L1247.18,6941.82L1247.17,6940.97L1247.17,6940.12L1247.17,6939.28L1247.16,6938.43L1247.16,6937.58L1247.15,6936.73L1247.14,6935.88L1247.12,6934.18L1247.1,6932.48L1247.08,6930.78L1247.05,6929.08L1247.02,6927.38L1246.99,6925.67L1246.95,6923.97L1246.91,6922.26L1246.88,6920.56L1246.83,6918.85L1246.79,6917.14L1246.74,6915.43L1246.7,6913.72L1246.65,6912.01L1246.6,6910.3L1246.55,6908.58L1246.49,6906.87L1246.39,6903.44L1246.28,6900L1246.06,6893.12L1245.95,6889.68L1245.84,6886.23L1245.79,6884.5L1245.74,6882.77L1245.69,6881.04L1245.64,6879.31L1245.6,6877.58L1245.55,6875.85L1245.51,6874.12L1245.47,6872.38L1245.43,6870.65L1245.39,6868.91L1245.36,6867.17L1245.33,6865.44L1245.3,6863.7L1245.28,6861.95L1245.25,6860.21L1245.24,6858.47L1245.22,6856.73L1245.21,6855.85L1245.21,6854.98L1245.2,6854.11L1245.2,6853.23L1245.2,6852.36L1245.2,6851.49L1245.19,6850.61L1245.2,6849.74L1245.2,6848.86L1245.2,6847.99L1245.2,6847.11L1245.21,6846.24L1245.21,6845.36L1245.22,6844.49L1245.24,6843.01L1245.25,6841.53L1245.27,6840.05L1245.28,6838.57L1245.32,6835.63L1245.36,6832.68L1245.4,6829.73L1245.44,6826.79L1245.49,6823.84L1245.54,6820.9L1245.59,6817.96L1245.64,6815.02L1245.7,6812.09L1245.76,6809.15L1245.82,6806.22L1245.88,6803.29L1246,6797.43L1246.24,6785.73L1246.37,6779.88L1246.42,6776.96L1246.48,6774.04L1246.54,6771.13L1246.6,6768.21L1246.65,6765.3L1246.7,6762.38L1246.75,6759.47L1246.8,6756.56L1246.84,6753.65L1246.89,6750.73L1246.93,6747.82L1246.96,6744.91L1246.98,6743.46L1246.99,6742.01L1247.01,6740.56L1247.02,6739.1L1247.04,6737.65L1247.05,6736.19L1247.06,6734.74L1247.07,6733.29L1247.08,6731.84L1247.09,6730.38L1247.09,6728.93L1247.1,6727.48L1247.1,6726.03L1247.11,6724.58L1247.11,6723.12L1247.11,6721.67L1247.11,6720.22L1247.11,6718.77L1247.1,6717.32L1247.1,6715.87L1247.09,6714.42L1247.09,6712.97L1247.08,6711.51L1247.07,6710.06L1247.06,6708.61L1247.04,6707.16L1247.03,6705.71L1247.01,6704.26L1246.99,6702.81L1246.97,6701.36L1246.95,6699.91L1246.93,6698.46L1246.9,6697.01L1246.88,6695.56L1246.85,6694.11L1246.82,6692.66L1246.79,6691.21L1246.75,6689.76L1246.72,6688.31L1246.68,6686.86L1246.64,6685.41L1246.6,6683.96L1246.56,6682.51L1246.51,6681.06L1246.47,6679.61L1246.42,6678.16L1246.37,6676.71L1246.31,6675.27L1246.26,6673.82L1246.2,6672.36L1246.14,6670.91L1246.08,6669.47L1246.01,6668.02L1245.95,6666.57L1245.88,6665.12L1245.81,6663.66L1245.73,6662.22L1245.66,6660.77L1245.58,6659.32L1245.5,6657.86L1245.86,6654.29L1247.31,6651.02L1249.7,6648.35L1252.79,6646.55L1256.3,6645.79L1259.86,6646.15Z" style="fill:white;"/>
                </g>
            </g>
            <g transform="matrix(0.802191,-0.285828,0.285828,0.802191,1021.15,2295.8)">
                <g transform="matrix(1,0,0,1,5910,-6083.17)">
                    <path d="M1430.37,6501.79L1430.66,6501.89L1430.94,6502L1431.23,6502.11L1431.51,6502.21L1431.79,6502.32L1432.09,6502.44L1432.38,6502.56L1432.66,6502.68L1432.94,6502.8L1433.24,6502.93L1433.53,6503.06L1433.8,6503.19L1434.09,6503.32L1434.39,6503.46L1434.67,6503.6L1434.96,6503.74L1435.25,6503.89L1435.71,6504.12L1435.94,6504.25L1437.47,6505.3L1437.66,6505.45L1437.84,6505.62L1438.96,6506.75L1439.28,6507.12L1439.58,6507.54L1440.24,6508.56L1440.25,6508.58L1440.83,6509.75L1440.96,6510.05L1441.2,6510.7L1441.38,6511.31L1441.51,6511.8L1441.6,6512.23L1441.66,6512.58L1441.71,6512.91L1441.75,6513.2L1441.78,6513.46L1441.81,6513.75L1441.84,6514.14L1441.86,6514.51L1441.87,6514.86L1441.87,6515.18L1441.87,6515.48L1441.87,6515.77L1441.87,6516.05L1441.86,6516.3L1441.85,6516.56L1441.84,6516.81L1441.83,6517.06L1441.81,6517.5L1441.79,6517.91L1441.77,6518.29L1441.73,6518.85L1441.72,6518.98L1441.72,6519.05L1441.71,6519.27L1441.69,6519.59L1441.67,6519.91L1441.64,6520.24L1441.61,6520.56L1441.58,6520.88L1441.55,6521.2L1441.52,6521.53L1441.48,6521.87L1441.44,6522.21L1441.39,6522.56L1441.35,6522.91L1441.3,6523.27L1441.25,6523.63L1441.2,6524L1441.14,6524.38L1441.09,6524.76L1441.03,6525.15L1440.97,6525.55L1440.9,6525.95L1440.84,6526.36L1440.77,6526.78L1440.7,6527.21L1440.63,6527.64L1440.56,6528.07L1440.48,6528.51L1440.4,6528.96L1440.32,6529.42L1440.24,6529.88L1440.15,6530.34L1440.07,6530.82L1439.98,6531.29L1439.89,6531.78L1439.8,6532.27L1439.61,6533.25L1439.41,6534.26L1439.21,6535.28L1439,6536.32L1438.89,6536.84L1438.78,6537.37L1438.67,6537.9L1438.56,6538.44L1438.44,6538.98L1438.33,6539.52L1438.21,6540.06L1438.09,6540.6L1437.97,6541.15L1437.85,6541.7L1437.73,6542.25L1437.6,6542.8L1437.48,6543.35L1437.35,6543.9L1437.22,6544.46L1437.09,6545.02L1436.96,6545.57L1436.83,6546.13L1436.7,6546.69L1436.56,6547.24L1436.43,6547.8L1436.29,6548.36L1436.15,6548.92L1436.02,6549.47L1435.88,6550.03L1435.74,6550.58L1435.6,6551.14L1435.45,6551.69L1435.31,6552.24L1435.16,6552.79L1435.02,6553.34L1434.87,6553.88L1434.73,6554.42L1434.58,6554.96L1434.43,6555.5L1434.28,6556.04L1434.13,6556.57L1433.98,6557.1L1433.83,6557.63L1433.68,6558.15L1433.52,6558.67L1433.37,6559.19L1433.21,6559.7L1433.06,6560.21L1432.9,6560.72L1432.74,6561.22L1432.59,6561.72L1432.43,6562.21L1432.27,6562.7L1432.11,6563.19L1431.94,6563.67L1431.78,6564.15L1431.62,6564.62L1431.45,6565.09L1431.28,6565.55L1431.12,6566.01L1430.95,6566.46L1430.78,6566.91L1430.6,6567.36L1430.43,6567.8L1430.25,6568.23L1430.08,6568.67L1429.89,6569.1L1429.71,6569.52L1429.53,6569.93L1429.43,6570.15L1429.33,6570.36L1429.23,6570.57L1429.14,6570.78L1429.04,6570.99L1428.93,6571.19L1428.83,6571.4L1428.73,6571.6L1428.62,6571.81L1428.52,6572.01L1428.41,6572.22L1428.3,6572.43L1428.18,6572.64L1428.07,6572.84L1427.95,6573.04L1427.83,6573.25L1427.7,6573.46L1427.58,6573.67L1427.45,6573.88L1427.32,6574.09L1427.18,6574.3L1427.03,6574.52L1426.88,6574.74L1426.73,6574.95L1426.57,6575.17L1426.4,6575.4L1426.23,6575.62L1426.06,6575.84L1425.86,6576.07L1425.66,6576.31L1425.46,6576.54L1425.22,6576.8L1425,6577.03L1424.76,6577.28L1424.48,6577.54L1424.2,6577.79L1423.91,6578.04L1423.59,6578.3L1423.24,6578.57L1422.87,6578.83L1422.48,6579.1L1422.03,6579.37L1421.56,6579.63L1421.07,6579.88L1420.63,6580.07L1420.16,6580.26L1419.72,6580.42L1419.34,6580.54L1418.93,6580.66L1418.52,6580.76L1418.13,6580.85L1417.77,6580.92L1417.42,6580.97L1417.13,6581.01L1416.86,6581.04L1416.55,6581.07L1416.24,6581.09L1415.94,6581.11L1415.71,6581.11L1415.49,6581.12L1415.17,6581.12L1414.96,6581.11L1414.77,6581.11L1414.46,6581.1L1414.08,6581.07L1413.67,6581.03L1413.31,6580.99L1412.94,6580.94L1412.56,6580.89L1412.21,6580.83L1411.88,6580.77L1411.57,6580.71L1411.24,6580.64L1410.91,6580.56L1410.61,6580.49L1410.31,6580.42L1409.99,6580.34L1409.69,6580.26L1409.41,6580.18L1409.11,6580.09L1408.8,6580L1408.52,6579.91L1408.23,6579.83L1407.93,6579.73L1407.63,6579.64L1407.34,6579.54L1407.06,6579.44L1406.75,6579.34L1406.46,6579.24L1406.17,6579.14L1405.88,6579.04L1405.59,6578.93L1405.29,6578.82L1404.99,6578.71L1404.69,6578.6L1404.4,6578.49L1404.09,6578.37L1403.51,6578.15L1402.9,6577.91L1402.3,6577.67L1401.7,6577.42L1401.09,6577.18L1400.49,6576.92L1399.88,6576.67L1399.27,6576.41L1398.67,6576.15L1398.07,6575.89L1397.47,6575.63L1396.87,6575.37L1396.28,6575.11L1395.69,6574.85L1395.11,6574.59L1394.53,6574.32L1393.95,6574.07L1393.39,6573.81L1392.29,6573.31L1391.23,6572.83L1389.26,6571.93L1388.37,6571.52L1387.55,6571.14L1386.8,6570.8L1386.46,6570.65L1386.16,6570.52L1385.88,6570.4L1385.63,6570.29L1385.43,6570.2L1385.26,6570.13L1385.14,6570.08L1385.13,6570.08L1384.59,6569.9L1383.91,6569.68L1383.23,6569.46L1382.55,6569.24L1381.86,6569.02L1381.19,6568.8L1380.51,6568.59L1379.82,6568.37L1379.14,6568.16L1378.45,6567.94L1377.77,6567.73L1377.09,6567.52L1376.4,6567.31L1375.71,6567.1L1375.03,6566.89L1374.34,6566.69L1373.65,6566.48L1372.96,6566.27L1372.27,6566.07L1371.58,6565.86L1370.89,6565.66L1370.2,6565.45L1368.82,6565.05L1367.43,6564.65L1366.04,6564.25L1364.65,6563.85L1363.27,6563.46L1361.87,6563.07L1360.47,6562.68L1359.08,6562.29L1357.68,6561.9L1356.28,6561.52L1354.88,6561.14L1353.47,6560.76L1352.07,6560.38L1350.66,6560L1349.25,6559.62L1347.84,6559.25L1346.43,6558.87L1345.02,6558.5L1343.6,6558.12L1340.77,6557.38L1337.93,6556.63L1335.09,6555.88L1332.24,6555.14L1329.39,6554.39L1326.54,6553.63L1325.11,6553.26L1323.68,6552.88L1322.25,6552.49L1320.82,6552.11L1319.39,6551.73L1317.96,6551.34L1316.53,6550.95L1315.1,6550.56L1313.67,6550.17L1312.23,6549.78L1310.8,6549.38L1309.37,6548.98L1307.93,6548.57L1306.5,6548.17L1305.07,6547.76L1303.63,6547.35L1302.2,6546.93L1300.77,6546.52L1300.04,6546.3L1299.33,6546.09L1298.61,6545.88L1297.89,6545.66L1297.17,6545.45L1296.46,6545.23L1295.75,6545.02L1295.03,6544.8L1293.16,6544.23L1291.3,6543.66L1289.44,6543.09L1287.57,6542.52L1283.85,6541.38L1280.12,6540.23L1276.4,6539.08L1272.67,6537.93L1268.95,6536.77L1265.23,6535.61L1261.51,6534.44L1257.79,6533.28L1254.07,6532.11L1250.35,6530.94L1246.64,6529.77L1242.92,6528.59L1239.2,6527.41L1235.49,6526.23L1231.78,6525.05L1228.07,6523.87L1224.35,6522.68L1220.64,6521.49L1216.93,6520.3L1213.22,6519.11L1209.51,6517.92L1205.8,6516.72L1202.09,6515.52L1198.39,6514.33L1194.68,6513.13L1190.97,6511.93L1187.27,6510.72L1183.56,6509.52L1179.86,6508.32L1176.15,6507.11L1168.75,6504.7L1161.34,6502.29L1153.94,6499.87L1146.54,6497.46L1131.74,6492.62L1124.34,6490.21L1116.95,6487.79L1109.55,6485.38L1102.16,6482.97L1098.46,6481.77L1094.77,6480.57L1091.07,6479.37L1087.37,6478.17L1083.68,6476.97L1079.98,6475.77L1076.28,6474.58L1072.59,6473.39L1068.89,6472.19L1065.2,6471L1061.5,6469.81L1057.81,6468.63L1057.64,6468.57L1057.47,6468.52L1057.25,6468.45L1057,6468.38L1056.42,6468.2L1055.75,6468.01L1054.99,6467.78L1054.13,6467.53L1053.2,6467.27L1052.2,6466.98L1049.97,6466.34L1047.49,6465.64L1041.85,6464.03L1038.74,6463.15L1037.12,6462.68L1035.47,6462.21L1033.79,6461.73L1032.07,6461.23L1030.33,6460.73L1028.56,6460.22L1026.77,6459.7L1024.96,6459.18L1023.14,6458.64L1021.3,6458.11L1019.46,6457.56L1017.61,6457.01L1015.75,6456.46L1013.9,6455.91L1012.04,6455.35L1010.2,6454.79L1009.27,6454.51L1008.35,6454.23L1007.44,6453.95L1006.53,6453.67L1005.62,6453.39L1004.71,6453.11L1003.81,6452.83L1002.92,6452.55L1002.02,6452.27L1001.14,6451.99L1000.25,6451.71L999.381,6451.44L998.517,6451.16L997.654,6450.88L996.798,6450.61L995.954,6450.33L995.115,6450.06L994.28,6449.79L993.458,6449.51L992.646,6449.24L991.839,6448.98L991.046,6448.71L990.259,6448.44L989.479,6448.18L988.714,6447.91L987.959,6447.65L987.212,6447.39L986.482,6447.13L985.758,6446.87L985.043,6446.61L984.348,6446.36L983.662,6446.11L982.984,6445.86L982.319,6445.6L981.667,6445.36L981.033,6445.11L980.408,6444.86L979.79,6444.62L979.193,6444.38L978.889,6444.25L978.601,6444.13L978.315,6444.01L978.034,6443.89L977.744,6443.77L977.457,6443.64L977.184,6443.53L976.903,6443.4L976.625,6443.28L976.362,6443.16L976.101,6443.04L975.831,6442.91L975.563,6442.79L975.311,6442.67L975.061,6442.55L974.8,6442.42L974.527,6442.28L974.284,6442.16L974.041,6442.03L973.771,6441.89L973.516,6441.76L973.278,6441.62L973.023,6441.48L972.769,6441.34L972.53,6441.2L972.274,6441.04L972.015,6440.88L971.753,6440.72L971.469,6440.53L971.22,6440.36L970.943,6440.16L970.663,6439.96L970.373,6439.74L970.055,6439.49L969.767,6439.24L969.446,6438.96L969.114,6438.65L968.796,6438.33L968.581,6438.11L968.384,6437.89L968.189,6437.67L968.031,6437.48L967.824,6437.22L967.616,6436.95L967.405,6436.65L967.197,6436.35L966.972,6435.99L966.742,6435.61L966.519,6435.2L966.324,6434.82L966.163,6434.49L965.996,6434.12L965.842,6433.75L965.707,6433.41L965.576,6433.05L965.463,6432.72L965.358,6432.39L965.257,6432.05L965.172,6431.74L965.091,6431.42L965.017,6431.11L964.952,6430.81L964.889,6430.51L964.832,6430.2L964.78,6429.9L964.737,6429.63L964.696,6429.35L964.657,6429.06L964.624,6428.78L964.595,6428.5L964.568,6428.23L964.545,6427.95L964.525,6427.68L964.508,6427.41L964.494,6427.15L964.481,6426.88L964.472,6426.62L964.465,6426.36L964.46,6426.1L964.457,6425.83L964.457,6425.57L964.458,6425.32L964.461,6425.06L964.466,6424.8L964.473,6424.54L964.481,6424.28L964.491,6424.02L964.503,6423.77L964.516,6423.52L964.531,6423.26L964.547,6423L964.565,6422.74L964.584,6422.49L964.604,6422.23L964.626,6421.97L964.65,6421.71L964.674,6421.45L964.699,6421.2L964.726,6420.94L964.754,6420.68L964.783,6420.42L964.815,6420.15L964.877,6419.63L964.946,6419.11L965.019,6418.58L965.096,6418.05L965.177,6417.52L965.261,6416.98L965.351,6416.44L965.443,6415.9L965.539,6415.36L965.638,6414.81L965.741,6414.26L965.848,6413.71L965.957,6413.15L966.069,6412.6L966.185,6412.03L966.304,6411.47L966.425,6410.91L966.55,6410.34L966.677,6409.77L966.806,6409.2L966.939,6408.63L967.073,6408.05L967.211,6407.47L967.35,6406.9L967.492,6406.32L967.636,6405.74L967.781,6405.15L967.93,6404.57L968.08,6403.99L968.231,6403.4L968.385,6402.82L968.54,6402.23L968.697,6401.64L968.855,6401.06L969.015,6400.47L969.176,6399.89L969.339,6399.3L969.503,6398.72L969.668,6398.13L969.834,6397.55L970,6396.97L970.168,6396.38L970.337,6395.8L970.506,6395.23L970.676,6394.65L970.847,6394.07L971.018,6393.5L971.19,6392.93L971.362,6392.36L971.534,6391.8L971.706,6391.23L971.879,6390.67L972.052,6390.12L972.225,6389.56L972.569,6388.46L972.912,6387.38L973.254,6386.32L973.593,6385.27L973.929,6384.24L974.262,6383.23L974.591,6382.24L974.914,6381.28L975.232,6380.34L975.544,6379.43L975.849,6378.54L976.147,6377.69L976.437,6376.86L976.718,6376.07L976.991,6375.3L977.254,6374.57L977.508,6373.88L977.75,6373.22L977.983,6372.6L978.204,6372.01L978.415,6371.46L978.616,6370.94L978.791,6370.5L980.616,6367.42L983.305,6365.05L986.593,6363.63L988.739,6363.43L988.776,6363.41L992.268,6362.61L995.836,6362.93L996.557,6363.11L997.286,6363.29L998.015,6363.48L998.744,6363.66L999.478,6363.85L1000.2,6364.04L1000.93,6364.22L1001.67,6364.41L1003.12,6364.79L1004.58,6365.18L1006.03,6365.57L1007.49,6365.96L1008.94,6366.35L1010.39,6366.75L1011.85,6367.15L1013.3,6367.56L1014.75,6367.96L1016.21,6368.38L1017.65,6368.79L1019.1,6369.21L1020.55,6369.63L1022,6370.05L1023.45,6370.47L1024.9,6370.9L1026.35,6371.33L1027.79,6371.77L1029.24,6372.2L1030.68,6372.64L1032.12,6373.09L1033.57,6373.53L1035.01,6373.98L1036.45,6374.43L1037.9,6374.88L1039.34,6375.33L1040.78,6375.79L1042.22,6376.25L1043.66,6376.71L1045.1,6377.18L1046.53,6377.64L1047.97,6378.11L1049.41,6378.58L1050.85,6379.05L1052.28,6379.52L1053.72,6380L1055.15,6380.48L1056.58,6380.96L1058.02,6381.44L1059.45,6381.92L1060.88,6382.41L1062.31,6382.9L1063.75,6383.38L1065.17,6383.88L1066.6,6384.37L1068.03,6384.86L1069.46,6385.36L1070.89,6385.85L1072.32,6386.35L1073.75,6386.85L1075.17,6387.35L1076.59,6387.85L1078.02,6388.35L1079.44,6388.86L1080.87,6389.36L1082.29,6389.87L1083.71,6390.38L1085.14,6390.88L1086.56,6391.39L1087.98,6391.9L1089.4,6392.41L1090.82,6392.93L1092.24,6393.44L1093.66,6393.95L1096.49,6394.98L1099.32,6396.02L1102.15,6397.05L1104.98,6398.08L1107.81,6399.12L1110.63,6400.16L1113.45,6401.2L1116.27,6402.24L1121.9,6404.32L1127.53,6406.4L1133.14,6408.47L1135.94,6409.5L1138.74,6410.53L1141.54,6411.56L1144.34,6412.59L1147.13,6413.61L1149.92,6414.63L1152.71,6415.64L1155.5,6416.65L1156.89,6417.16L1158.28,6417.66L1159.67,6418.16L1161.06,6418.66L1162.45,6419.16L1163.85,6419.66L1165.24,6420.15L1166.62,6420.65L1168.01,6421.14L1169.4,6421.63L1170.79,6422.12L1172.17,6422.61L1173.56,6423.1L1174.94,6423.58L1176.33,6424.06L1177.71,6424.55L1178.61,6424.86L1179.51,6425.17L1180.41,6425.48L1181.32,6425.79L1182.22,6426.1L1183.12,6426.41L1184.03,6426.71L1184.93,6427.02L1185.84,6427.32L1186.74,6427.63L1187.64,6427.93L1189.46,6428.54L1190.36,6428.84L1192.18,6429.44L1193.99,6430.03L1195.81,6430.63L1197.63,6431.22L1199.45,6431.81L1201.26,6432.39L1203.09,6432.97L1204.91,6433.55L1206.74,6434.13L1208.56,6434.71L1210.39,6435.28L1212.22,6435.85L1214.05,6436.42L1215.88,6436.99L1217.71,6437.55L1219.54,6438.11L1221.38,6438.68L1223.21,6439.24L1225.05,6439.79L1226.88,6440.35L1228.72,6440.9L1230.56,6441.46L1232.4,6442.01L1234.24,6442.56L1236.08,6443.11L1237.93,6443.66L1239.77,6444.21L1241.61,6444.76L1243.46,6445.3L1247.15,6446.4L1250.85,6447.49L1254.55,6448.58L1258.25,6449.67L1265.65,6451.85L1269.36,6452.94L1273.07,6454.03L1276.78,6455.13L1278.64,6455.68L1280.49,6456.23L1282.35,6456.79L1284.21,6457.34L1286.06,6457.9L1287.92,6458.45L1289.78,6459.01L1291.63,6459.57L1293.49,6460.14L1295.35,6460.7L1297.06,6461.22L1298.77,6461.74L1300.47,6462.26L1302.18,6462.79L1303.89,6463.31L1305.6,6463.84L1307.3,6464.37L1309.01,6464.9L1310.71,6465.43L1312.41,6465.96L1314.12,6466.49L1315.82,6467.02L1317.53,6467.56L1319.23,6468.09L1320.93,6468.63L1322.63,6469.16L1324.33,6469.7L1326.03,6470.24L1327.73,6470.78L1329.43,6471.32L1332.82,6472.4L1336.22,6473.49L1339.61,6474.58L1343.01,6475.67L1346.4,6476.76L1349.79,6477.86L1353.17,6478.96L1356.56,6480.06L1359.94,6481.16L1363.33,6482.26L1366.71,6483.37L1370.1,6484.47L1373.48,6485.58L1376.86,6486.69L1383.62,6488.9L1390.37,6491.12L1397.12,6493.33L1403.85,6495.54L1404.03,6495.59L1404.19,6495.65L1404.35,6495.69L1404.51,6495.74L1404.68,6495.8L1404.85,6495.85L1405.02,6495.89L1405.19,6495.94L1405.36,6495.99L1405.55,6496.04L1405.72,6496.09L1405.9,6496.14L1406.09,6496.19L1406.26,6496.23L1406.66,6496.33L1407.05,6496.43L1407.44,6496.52L1407.84,6496.61L1408.26,6496.71L1408.68,6496.8L1409.1,6496.89L1409.53,6496.98L1409.97,6497.07L1410.41,6497.16L1410.87,6497.25L1411.33,6497.34L1411.79,6497.43L1412.26,6497.52L1412.73,6497.61L1413.7,6497.79L1415.68,6498.16L1416.69,6498.35L1417.21,6498.44L1417.73,6498.54L1418.24,6498.64L1418.77,6498.74L1419.3,6498.85L1419.83,6498.96L1420.36,6499.07L1420.9,6499.18L1421.44,6499.3L1421.98,6499.42L1422.53,6499.54L1423.07,6499.67L1423.62,6499.8L1424.18,6499.93L1424.72,6500.07L1425.01,6500.14L1425.28,6500.22L1425.57,6500.29L1425.84,6500.36L1426.12,6500.44L1426.41,6500.52L1426.68,6500.6L1426.96,6500.68L1427.24,6500.76L1427.54,6500.85L1427.82,6500.94L1428.08,6501.02L1428.38,6501.11L1428.67,6501.2L1428.94,6501.29L1429.22,6501.39L1429.51,6501.48L1429.8,6501.58L1430.09,6501.68L1430.37,6501.79ZM1393.31,6548.69L1393.64,6548.82L1394,6548.96L1394.35,6549.11L1394.7,6549.26L1395.05,6549.41L1395.42,6549.58L1395.81,6549.75L1396.2,6549.93L1397.01,6550.29L1397.88,6550.69L1398.8,6551.11L1400.76,6552.01L1401.79,6552.48L1402.85,6552.96L1403.38,6553.2L1403.92,6553.44L1404.46,6553.68L1405,6553.93L1405.55,6554.17L1406.1,6554.41L1406.64,6554.65L1407.18,6554.88L1407.73,6555.12L1408.26,6555.35L1408.79,6555.57L1409.32,6555.8L1409.84,6556.01L1410.3,6556.2L1410.39,6555.93L1410.52,6555.54L1410.65,6555.14L1410.78,6554.74L1410.91,6554.33L1411.04,6553.91L1411.17,6553.48L1411.3,6553.05L1411.44,6552.61L1411.57,6552.16L1411.7,6551.71L1411.84,6551.26L1411.97,6550.8L1412.1,6550.33L1412.23,6549.86L1412.37,6549.38L1412.5,6548.9L1412.63,6548.42L1412.76,6547.93L1412.89,6547.44L1413.03,6546.94L1413.15,6546.45L1413.29,6545.95L1413.41,6545.44L1413.54,6544.94L1413.67,6544.43L1413.8,6543.92L1413.93,6543.41L1414.05,6542.9L1414.18,6542.39L1414.3,6541.87L1414.43,6541.36L1414.55,6540.84L1414.67,6540.33L1414.79,6539.81L1414.91,6539.3L1415.03,6538.78L1415.15,6538.27L1415.27,6537.75L1415.38,6537.24L1415.5,6536.73L1415.61,6536.22L1415.72,6535.71L1415.83,6535.2L1415.94,6534.7L1416.05,6534.2L1416.15,6533.7L1416.26,6533.2L1416.36,6532.71L1416.46,6532.22L1416.56,6531.74L1416.76,6530.77L1416.94,6529.82L1417.13,6528.9L1417.3,6527.98L1417.38,6527.54L1417.47,6527.11L1417.55,6526.67L1417.63,6526.24L1417.7,6525.82L1417.78,6525.41L1417.85,6525L1417.92,6524.6L1417.99,6524.21L1418.05,6523.83L1418.11,6523.45L1418.17,6523.08L1418.23,6522.72L1418.29,6522.37L1418.34,6522.08L1418.25,6522.06L1417.85,6521.96L1417.42,6521.86L1417,6521.77L1416.57,6521.67L1416.13,6521.58L1415.69,6521.49L1415.24,6521.39L1414.79,6521.3L1414.34,6521.21L1413.87,6521.12L1413.4,6521.03L1412.93,6520.94L1412.46,6520.85L1411.48,6520.67L1409.5,6520.3L1408.5,6520.11L1407.99,6520.02L1407.48,6519.92L1406.96,6519.82L1406.44,6519.72L1405.92,6519.61L1405.4,6519.51L1404.87,6519.4L1404.35,6519.29L1403.81,6519.17L1403.28,6519.06L1402.75,6518.94L1402.21,6518.82L1401.67,6518.69L1401.13,6518.55L1400.61,6518.42L1400.32,6518.35L1400.05,6518.28L1399.77,6518.2L1399.5,6518.13L1399.23,6518.05L1398.96,6517.98L1398.68,6517.9L1398.41,6517.82L1398.13,6517.74L1397.86,6517.65L1397.59,6517.57L1397.3,6517.48L1397.03,6517.4L1396.78,6517.31L1389.99,6515.09L1383.24,6512.88L1376.48,6510.66L1369.73,6508.45L1366.35,6507.34L1362.98,6506.24L1359.6,6505.13L1356.23,6504.03L1352.85,6502.93L1349.48,6501.83L1346.11,6500.74L1342.73,6499.65L1339.36,6498.55L1335.98,6497.46L1332.61,6496.38L1329.23,6495.3L1325.86,6494.22L1322.48,6493.14L1320.8,6492.6L1319.11,6492.07L1317.42,6491.53L1315.73,6491L1314.04,6490.47L1312.35,6489.93L1310.66,6489.4L1308.97,6488.87L1307.29,6488.35L1305.6,6487.82L1303.9,6487.29L1302.21,6486.77L1300.53,6486.24L1298.84,6485.72L1297.15,6485.2L1295.46,6484.68L1293.76,6484.16L1292.07,6483.64L1290.38,6483.12L1288.69,6482.61L1286.85,6482.05L1285.01,6481.49L1283.17,6480.94L1281.33,6480.39L1279.49,6479.83L1277.65,6479.28L1275.81,6478.73L1273.96,6478.18L1272.12,6477.63L1270.27,6477.09L1266.58,6475.99L1262.88,6474.9L1259.18,6473.81L1251.78,6471.63L1248.08,6470.54L1244.37,6469.45L1240.66,6468.36L1236.96,6467.26L1235.1,6466.71L1233.25,6466.16L1231.39,6465.61L1229.54,6465.05L1227.68,6464.5L1225.82,6463.94L1223.97,6463.39L1222.11,6462.83L1220.26,6462.27L1218.4,6461.7L1216.54,6461.14L1214.68,6460.57L1212.83,6460.01L1210.97,6459.44L1209.12,6458.86L1207.26,6458.29L1205.4,6457.71L1203.55,6457.13L1201.69,6456.55L1199.84,6455.97L1197.98,6455.38L1196.13,6454.79L1194.27,6454.2L1192.42,6453.6L1190.57,6453L1188.71,6452.4L1186.86,6451.79L1185.01,6451.18L1183.16,6450.57L1182.23,6450.26L1181.3,6449.95L1180.38,6449.65L1179.45,6449.33L1178.52,6449.02L1177.6,6448.71L1176.67,6448.4L1175.75,6448.08L1174.82,6447.77L1173.9,6447.45L1172.97,6447.14L1172.05,6446.82L1171.12,6446.5L1170.2,6446.18L1168.79,6445.69L1167.39,6445.2L1165.98,6444.7L1164.57,6444.21L1163.17,6443.72L1161.76,6443.22L1160.36,6442.72L1158.95,6442.22L1157.55,6441.72L1156.14,6441.22L1154.74,6440.72L1153.33,6440.21L1151.92,6439.71L1150.52,6439.2L1149.11,6438.69L1147.7,6438.19L1144.89,6437.17L1142.08,6436.14L1139.27,6435.12L1136.46,6434.09L1133.65,6433.06L1130.84,6432.02L1128.03,6430.99L1125.21,6429.95L1119.59,6427.88L1113.97,6425.8L1108.35,6423.72L1105.53,6422.68L1102.72,6421.65L1099.91,6420.61L1097.1,6419.58L1094.29,6418.55L1091.48,6417.53L1088.66,6416.5L1085.85,6415.48L1084.45,6414.97L1083.04,6414.47L1081.64,6413.96L1080.23,6413.45L1078.83,6412.95L1077.42,6412.44L1076.01,6411.94L1074.61,6411.44L1073.2,6410.94L1071.8,6410.44L1070.39,6409.94L1068.99,6409.45L1067.58,6408.95L1066.17,6408.46L1064.77,6407.97L1063.36,6407.48L1061.95,6406.99L1060.55,6406.5L1059.14,6406.02L1057.74,6405.53L1056.33,6405.05L1054.93,6404.57L1053.52,6404.09L1052.12,6403.61L1050.71,6403.14L1049.3,6402.67L1047.9,6402.2L1046.49,6401.73L1045.09,6401.26L1043.68,6400.8L1042.27,6400.34L1040.87,6399.88L1039.46,6399.42L1038.06,6398.96L1036.65,6398.51L1035.25,6398.06L1033.84,6397.61L1032.43,6397.17L1031.03,6396.72L1029.62,6396.28L1028.22,6395.84L1026.81,6395.41L1025.41,6394.98L1024,6394.55L1022.6,6394.12L1021.19,6393.69L1019.78,6393.27L1018.38,6392.85L1016.97,6392.44L1015.57,6392.02L1014.16,6391.61L1012.76,6391.21L1011.35,6390.8L1009.94,6390.4L1008.54,6390L1007.14,6389.61L1005.73,6389.22L1004.32,6388.83L1002.92,6388.44L1001.51,6388.06L1000.11,6387.69L998.703,6387.31L997.299,6386.94L997.185,6386.91L996.91,6387.72L996.611,6388.6L996.307,6389.5L995.999,6390.43L995.686,6391.38L995.369,6392.35L995.05,6393.34L994.728,6394.34L994.405,6395.36L994.08,6396.39L993.92,6396.91L993.758,6397.43L993.596,6397.95L993.435,6398.48L993.274,6399.01L993.113,6399.54L992.953,6400.07L992.793,6400.61L992.634,6401.14L992.476,6401.68L992.318,6402.22L992.162,6402.76L992.007,6403.3L991.852,6403.83L991.699,6404.37L991.547,6404.91L991.396,6405.45L991.247,6405.99L991.1,6406.52L990.954,6407.06L990.81,6407.59L990.667,6408.12L990.527,6408.65L990.388,6409.18L990.251,6409.71L990.117,6410.23L989.984,6410.75L989.855,6411.27L989.727,6411.79L989.602,6412.3L989.479,6412.81L989.359,6413.31L989.242,6413.81L989.127,6414.31L989.016,6414.8L988.907,6415.29L988.802,6415.77L988.7,6416.24L988.601,6416.71L988.505,6417.18L988.413,6417.63L988.323,6418.09L988.238,6418.53L988.156,6418.97L988.078,6419.39L988.004,6419.82L987.933,6420.23L987.867,6420.63L987.805,6421.03L987.746,6421.41L987.691,6421.79L987.641,6422.15L987.595,6422.51L987.551,6422.86L987.533,6423.02L987.53,6423.04L987.64,6423.09L987.862,6423.18L988.341,6423.38L988.834,6423.57L989.352,6423.78L989.894,6423.99L990.448,6424.2L991.021,6424.41L991.61,6424.63L992.22,6424.86L992.85,6425.09L993.487,6425.32L994.142,6425.55L994.816,6425.79L995.499,6426.03L996.2,6426.27L996.913,6426.52L997.634,6426.76L998.372,6427.01L999.124,6427.27L999.883,6427.52L1000.66,6427.78L1001.44,6428.04L1002.23,6428.3L1003.03,6428.56L1003.85,6428.82L1004.66,6429.08L1005.49,6429.35L1006.33,6429.62L1007.18,6429.89L1008.02,6430.15L1008.88,6430.42L1009.75,6430.69L1010.62,6430.97L1011.5,6431.24L1012.37,6431.51L1013.26,6431.78L1014.15,6432.06L1015.05,6432.33L1015.94,6432.61L1016.84,6432.88L1018.65,6433.43L1020.47,6433.97L1022.3,6434.52L1024.12,6435.06L1025.94,6435.6L1027.76,6436.14L1029.57,6436.67L1031.37,6437.19L1033.16,6437.71L1034.93,6438.23L1036.68,6438.73L1038.4,6439.23L1040.11,6439.72L1041.78,6440.2L1043.42,6440.67L1045.02,6441.13L1048.12,6442.01L1053.76,6443.61L1056.26,6444.32L1058.51,6444.97L1059.54,6445.26L1060.5,6445.54L1061.39,6445.8L1062.21,6446.04L1062.95,6446.26L1063.62,6446.46L1063.94,6446.56L1064.24,6446.65L1064.54,6446.74L1064.79,6446.82L1068.51,6448.01L1072.21,6449.2L1075.92,6450.4L1079.62,6451.59L1083.33,6452.79L1087.03,6453.99L1090.73,6455.19L1094.44,6456.39L1098.14,6457.59L1101.84,6458.79L1105.54,6459.99L1109.25,6461.2L1116.65,6463.61L1124.05,6466.02L1131.45,6468.44L1138.85,6470.86L1153.65,6475.69L1161.05,6478.11L1168.44,6480.52L1175.84,6482.93L1183.24,6485.34L1186.94,6486.54L1190.63,6487.74L1194.33,6488.94L1198.03,6490.14L1201.73,6491.34L1205.43,6492.54L1209.13,6493.73L1212.83,6494.93L1216.53,6496.12L1220.23,6497.31L1223.93,6498.5L1227.63,6499.69L1231.33,6500.87L1235.03,6502.05L1238.73,6503.23L1242.43,6504.41L1246.13,6505.59L1249.84,6506.76L1253.54,6507.93L1257.24,6509.1L1260.94,6510.27L1264.64,6511.43L1268.35,6512.59L1272.05,6513.75L1275.76,6514.9L1279.46,6516.06L1283.17,6517.2L1286.87,6518.35L1290.58,6519.49L1294.29,6520.63L1296.14,6521.2L1297.99,6521.76L1299.85,6522.33L1301.7,6522.89L1302.38,6523.1L1303.76,6523.52L1304.45,6523.72L1305.14,6523.93L1305.83,6524.13L1306.52,6524.34L1307.2,6524.54L1308.59,6524.94L1309.98,6525.35L1311.37,6525.74L1312.76,6526.14L1314.15,6526.54L1315.54,6526.93L1316.94,6527.32L1318.33,6527.7L1319.73,6528.09L1321.13,6528.47L1322.54,6528.86L1323.94,6529.24L1325.35,6529.62L1326.75,6529.99L1328.16,6530.37L1329.57,6530.75L1330.98,6531.12L1332.39,6531.5L1335.23,6532.24L1338.06,6532.99L1340.9,6533.74L1343.75,6534.48L1346.6,6535.23L1349.44,6535.98L1350.87,6536.36L1352.3,6536.74L1353.73,6537.12L1355.16,6537.5L1356.59,6537.88L1358.02,6538.27L1359.45,6538.65L1360.88,6539.04L1362.32,6539.43L1363.75,6539.82L1365.18,6540.22L1366.62,6540.62L1368.05,6541.02L1369.48,6541.42L1370.92,6541.83L1372.35,6542.24L1373.78,6542.65L1375.22,6543.06L1376.65,6543.48L1378.09,6543.9L1378.81,6544.12L1379.52,6544.33L1380.24,6544.55L1380.95,6544.76L1381.67,6544.98L1382.39,6545.2L1383.11,6545.42L1383.82,6545.64L1384.54,6545.86L1385.26,6546.08L1385.97,6546.3L1386.68,6546.53L1387.4,6546.75L1388.12,6546.98L1388.84,6547.21L1389.55,6547.44L1390.26,6547.67L1390.98,6547.9L1391.7,6548.13L1392.46,6548.38L1392.65,6548.45L1392.87,6548.52L1393.12,6548.61L1393.31,6548.69Z" style="fill:white;"/>
                </g>
                <g transform="matrix(1,0,0,1,5910,-6083.17)">
                    <path d="M1252.86,6364.28L1253.63,6364.56L1254.4,6364.84L1255.17,6365.12L1255.94,6365.4L1256.7,6365.69L1257.46,6365.97L1258.23,6366.26L1258.98,6366.55L1259.74,6366.84L1260.49,6367.13L1261.24,6367.42L1261.99,6367.71L1262.74,6368L1263.48,6368.3L1264.22,6368.6L1264.96,6368.89L1265.7,6369.19L1266.43,6369.49L1267.17,6369.79L1267.9,6370.09L1268.62,6370.39L1269.35,6370.7L1270.07,6371L1270.78,6371.31L1271.5,6371.61L1272.21,6371.92L1272.91,6372.23L1273.62,6372.54L1274.33,6372.85L1275.02,6373.16L1275.72,6373.47L1276.41,6373.78L1277.1,6374.09L1277.79,6374.41L1278.46,6374.72L1279.14,6375.04L1279.82,6375.36L1280.49,6375.67L1281.16,6375.99L1281.82,6376.31L1282.48,6376.63L1283.14,6376.95L1283.79,6377.27L1284.44,6377.59L1285.08,6377.91L1285.72,6378.24L1286.35,6378.56L1286.99,6378.88L1287.61,6379.21L1288.24,6379.53L1288.86,6379.86L1289.47,6380.19L1290.08,6380.51L1290.69,6380.84L1291.29,6381.17L1291.88,6381.5L1292.47,6381.83L1293.07,6382.16L1293.65,6382.49L1294.23,6382.82L1294.8,6383.15L1295.37,6383.49L1295.93,6383.82L1296.49,6384.15L1297.05,6384.49L1297.59,6384.82L1298.14,6385.16L1298.68,6385.5L1299.21,6385.83L1299.75,6386.18L1300.27,6386.51L1300.79,6386.85L1301.31,6387.19L1301.81,6387.53L1302.32,6387.88L1302.82,6388.22L1303.32,6388.57L1303.8,6388.91L1304.29,6389.26L1304.75,6389.6L1305,6389.78L1305.24,6389.96L1305.47,6390.13L1305.71,6390.31L1305.95,6390.49L1306.16,6390.65L1306.4,6390.83L1306.64,6391.02L1306.86,6391.19L1307.08,6391.36L1307.3,6391.54L1307.53,6391.72L1307.75,6391.9L1307.98,6392.09L1308.2,6392.27L1308.41,6392.44L1308.62,6392.62L1308.83,6392.8L1309.05,6392.99L1309.27,6393.17L1309.48,6393.36L1309.68,6393.53L1309.89,6393.72L1310.1,6393.91L1310.3,6394.09L1310.51,6394.27L1310.71,6394.46L1310.92,6394.65L1311.11,6394.84L1311.31,6395.03L1311.51,6395.22L1311.7,6395.4L1311.9,6395.6L1312.1,6395.79L1312.29,6395.99L1312.48,6396.18L1312.67,6396.38L1312.86,6396.57L1313.04,6396.77L1313.23,6396.97L1313.41,6397.17L1313.6,6397.37L1313.77,6397.57L1313.95,6397.77L1314.13,6397.98L1314.31,6398.18L1314.48,6398.39L1314.66,6398.6L1314.83,6398.81L1315,6399.02L1315.17,6399.23L1315.38,6399.5L1315.62,6399.82L1315.91,6400.24L1316.15,6400.62L1316.38,6400.99L1316.62,6401.41L1316.81,6401.78L1316.98,6402.13L1317.16,6402.52L1317.32,6402.9L1317.45,6403.24L1317.58,6403.6L1317.7,6403.95L1317.81,6404.28L1317.91,6404.63L1318,6404.96L1318.08,6405.28L1318.15,6405.6L1318.23,6405.93L1318.29,6406.23L1318.34,6406.54L1318.39,6406.84L1318.43,6407.14L1318.47,6407.42L1318.5,6407.72L1318.53,6408.01L1318.56,6408.28L1318.58,6408.57L1318.6,6408.84L1318.61,6409.11L1318.62,6409.39L1318.63,6409.66L1318.64,6409.92L1318.64,6410.19L1318.64,6410.46L1318.64,6410.72L1318.64,6410.98L1318.63,6411.24L1318.62,6411.5L1318.61,6411.76L1318.6,6412.02L1318.59,6412.27L1318.57,6412.52L1318.55,6412.78L1318.53,6413.03L1318.51,6413.29L1318.49,6413.54L1318.46,6413.8L1318.44,6414.05L1318.41,6414.3L1318.38,6414.55L1318.35,6414.8L1318.32,6415.06L1318.28,6415.31L1318.25,6415.56L1318.21,6415.81L1318.18,6416.06L1318.14,6416.31L1318.1,6416.57L1318.06,6416.82L1318.01,6417.09L1317.93,6417.58L1317.84,6418.09L1317.74,6418.6L1317.64,6419.12L1317.54,6419.63L1317.43,6420.15L1317.31,6420.66L1317.2,6421.18L1317.08,6421.7L1316.95,6422.23L1316.83,6422.75L1316.69,6423.28L1316.56,6423.81L1316.42,6424.34L1316.28,6424.87L1316.14,6425.41L1315.99,6425.94L1315.84,6426.48L1315.69,6427.02L1315.54,6427.56L1315.38,6428.1L1315.22,6428.64L1315.06,6429.18L1314.89,6429.73L1314.73,6430.27L1314.56,6430.82L1314.39,6431.36L1314.21,6431.91L1314.04,6432.46L1313.86,6433.01L1313.68,6433.55L1313.5,6434.1L1313.32,6434.65L1313.14,6435.19L1312.95,6435.74L1312.77,6436.28L1312.58,6436.83L1312.39,6437.37L1312.2,6437.91L1312.01,6438.45L1311.82,6438.99L1311.63,6439.53L1311.44,6440.06L1311.24,6440.6L1311.05,6441.13L1310.85,6441.66L1310.66,6442.19L1310.46,6442.71L1310.27,6443.23L1310.07,6443.75L1309.88,6444.27L1309.68,6444.78L1309.49,6445.29L1309.29,6445.8L1309.1,6446.3L1308.9,6446.8L1308.71,6447.3L1308.52,6447.79L1308.32,6448.28L1308.13,6448.76L1307.94,6449.24L1307.75,6449.71L1307.37,6450.64L1307,6451.55L1306.63,6452.44L1306.27,6453.31L1305.92,6454.15L1305.57,6454.96L1305.23,6455.75L1304.9,6456.51L1304.57,6457.25L1304.26,6457.95L1303.96,6458.62L1303.8,6458.95L1303.66,6459.27L1303.51,6459.58L1303.37,6459.88L1303.23,6460.18L1303.09,6460.47L1302.96,6460.75L1302.82,6461.02L1302.69,6461.29L1302.56,6461.56L1302.43,6461.81L1302.31,6462.06L1302.17,6462.31L1302.06,6462.52L1301.63,6463.26L1301.15,6463.97L1300.62,6464.64L1300.04,6465.27L1299.41,6465.85L1298.74,6466.38L1298.03,6466.86L1297.29,6467.29L1296.52,6467.66L1295.72,6467.97L1294.9,6468.22L1294.07,6468.41L1293.22,6468.54L1292.37,6468.6L1291.51,6468.6L1290.65,6468.54L1289.81,6468.41L1288.97,6468.22L1288.16,6467.97L1287.36,6467.65L1286.59,6467.28L1285.85,6466.85L1285.14,6466.37L1284.47,6465.84L1283.84,6465.25L1283.26,6464.62L1282.73,6463.95L1282.25,6463.25L1281.82,6462.5L1281.45,6461.73L1281.14,6460.94L1280.88,6460.12L1280.69,6459.28L1280.57,6458.44L1280.5,6457.58L1280.51,6456.73L1280.57,6455.87L1280.7,6455.03L1280.89,6454.19L1281.14,6453.37L1281.45,6452.58L1281.83,6451.81L1281.89,6451.68L1281.95,6451.57L1282.02,6451.44L1282.09,6451.3L1282.17,6451.14L1282.25,6450.97L1282.34,6450.78L1282.44,6450.58L1282.54,6450.37L1282.65,6450.14L1282.76,6449.9L1282.88,6449.65L1282.99,6449.4L1283.11,6449.13L1283.37,6448.56L1283.64,6447.95L1283.93,6447.31L1284.22,6446.64L1284.53,6445.94L1284.84,6445.2L1285.16,6444.44L1285.49,6443.65L1285.82,6442.84L1286.16,6442.01L1286.51,6441.15L1286.69,6440.72L1286.86,6440.28L1287.04,6439.83L1287.22,6439.38L1287.39,6438.93L1287.57,6438.47L1287.75,6438.02L1287.93,6437.55L1288.11,6437.09L1288.29,6436.62L1288.47,6436.15L1288.65,6435.67L1288.83,6435.19L1289.01,6434.71L1289.19,6434.23L1289.37,6433.75L1289.54,6433.26L1289.72,6432.78L1289.9,6432.29L1290.07,6431.8L1290.25,6431.31L1290.42,6430.82L1290.6,6430.33L1290.77,6429.84L1290.94,6429.35L1291.11,6428.86L1291.27,6428.37L1291.44,6427.88L1291.6,6427.39L1291.77,6426.9L1291.93,6426.41L1292.08,6425.93L1292.24,6425.45L1292.39,6424.97L1292.55,6424.49L1292.7,6424.01L1292.84,6423.53L1292.99,6423.06L1293.13,6422.59L1293.27,6422.13L1293.4,6421.67L1293.54,6421.21L1293.67,6420.76L1293.79,6420.31L1293.92,6419.86L1294.04,6419.42L1294.15,6418.98L1294.27,6418.56L1294.38,6418.13L1294.48,6417.71L1294.59,6417.3L1294.68,6416.89L1294.78,6416.5L1294.87,6416.11L1294.95,6415.72L1295.04,6415.35L1295.11,6414.98L1295.19,6414.62L1295.26,6414.27L1295.32,6413.93L1295.38,6413.6L1295.44,6413.27L1295.46,6413.12L1295.49,6412.97L1295.51,6412.83L1295.53,6412.68L1295.55,6412.54L1295.57,6412.4L1295.59,6412.26L1295.61,6412.12L1295.62,6412L1295.64,6411.87L1295.65,6411.75L1295.65,6411.74L1295.59,6411.68L1295.49,6411.58L1295.38,6411.48L1295.26,6411.36L1295.15,6411.26L1295.04,6411.16L1294.93,6411.05L1294.8,6410.94L1294.68,6410.83L1294.56,6410.73L1294.42,6410.61L1294.3,6410.5L1294.17,6410.39L1294.04,6410.27L1293.9,6410.16L1293.76,6410.04L1293.61,6409.92L1293.47,6409.8L1293.32,6409.68L1293.18,6409.57L1293.03,6409.45L1292.88,6409.33L1292.72,6409.2L1292.56,6409.08L1292.41,6408.96L1292.25,6408.84L1292.08,6408.71L1291.91,6408.58L1291.76,6408.47L1291.58,6408.34L1291.41,6408.21L1291.25,6408.09L1290.89,6407.83L1290.53,6407.57L1290.16,6407.31L1289.78,6407.04L1289.4,6406.78L1289.01,6406.52L1288.61,6406.25L1288.2,6405.98L1287.79,6405.71L1287.37,6405.44L1286.94,6405.17L1286.51,6404.89L1286.07,6404.61L1285.62,6404.34L1285.16,6404.06L1284.7,6403.78L1284.24,6403.51L1283.76,6403.23L1283.28,6402.94L1282.8,6402.66L1282.3,6402.38L1281.8,6402.1L1281.3,6401.81L1280.79,6401.53L1280.27,6401.24L1279.75,6400.96L1279.22,6400.67L1278.69,6400.39L1278.15,6400.1L1277.6,6399.81L1277.05,6399.53L1276.5,6399.24L1275.94,6398.95L1275.37,6398.66L1274.8,6398.38L1274.22,6398.09L1273.64,6397.8L1273.06,6397.51L1272.47,6397.22L1271.88,6396.94L1271.28,6396.65L1270.67,6396.36L1270.06,6396.07L1269.45,6395.78L1268.84,6395.5L1268.21,6395.21L1267.59,6394.93L1266.96,6394.64L1266.33,6394.35L1265.69,6394.07L1265.05,6393.78L1264.4,6393.5L1263.76,6393.22L1263.11,6392.93L1262.45,6392.65L1261.79,6392.36L1261.12,6392.08L1260.46,6391.8L1259.79,6391.52L1259.12,6391.24L1258.44,6390.96L1257.77,6390.68L1257.08,6390.4L1256.4,6390.13L1255.71,6389.85L1255.02,6389.58L1254.33,6389.3L1253.63,6389.03L1252.94,6388.76L1252.23,6388.48L1251.53,6388.21L1250.83,6387.94L1250.12,6387.67L1249.41,6387.41L1248.7,6387.14L1247.98,6386.87L1247.26,6386.61L1246.55,6386.35L1245.83,6386.09L1245.11,6385.82L1244.38,6385.56L1243.65,6385.3L1242.93,6385.05L1242.2,6384.79L1241.47,6384.54L1240.74,6384.28L1240,6384.03L1239.27,6383.78L1238.53,6383.53L1237.8,6383.28L1237.06,6383.04L1236.32,6382.79L1235.58,6382.55L1234.84,6382.31L1234.1,6382.07L1233.35,6381.83L1232.61,6381.59L1231.87,6381.36L1231.13,6381.12L1230.38,6380.89L1229.63,6380.66L1228.89,6380.43L1228.14,6380.21L1227.39,6379.98L1226.65,6379.76L1225.91,6379.54L1225.16,6379.32L1224.41,6379.1L1223.67,6378.89L1222.92,6378.67L1222.17,6378.46L1221.43,6378.25L1220.68,6378.04L1219.94,6377.84L1219.19,6377.63L1218.45,6377.43L1217.71,6377.23L1216.97,6377.03L1216.23,6376.84L1215.48,6376.64L1214.75,6376.45L1214.01,6376.26L1213.27,6376.08L1212.53,6375.89L1211.8,6375.71L1211.06,6375.53L1210.33,6375.35L1209.6,6375.18L1208.87,6375L1208.14,6374.83L1207.42,6374.67L1206.69,6374.5L1205.97,6374.34L1205.25,6374.18L1204.53,6374.02L1203.81,6373.86L1203.1,6373.71L1202.38,6373.56L1201.67,6373.41L1200.96,6373.26L1200.26,6373.12L1199.56,6372.98L1198.86,6372.84L1198.15,6372.71L1197.46,6372.58L1196.77,6372.45L1196.08,6372.32L1195.39,6372.19L1194.71,6372.07L1194.03,6371.96L1193.34,6371.84L1192.67,6371.73L1192,6371.62L1191.33,6371.51L1190.66,6371.41L1190.01,6371.31L1189.34,6371.21L1188.69,6371.11L1188.04,6371.02L1187.39,6370.93L1186.75,6370.85L1186.11,6370.76L1185.48,6370.68L1184.85,6370.61L1184.22,6370.53L1183.6,6370.46L1182.98,6370.39L1182.37,6370.33L1181.76,6370.27L1181.15,6370.21L1180.56,6370.15L1179.96,6370.1L1179.37,6370.05L1178.79,6370.01L1178.21,6369.96L1177.64,6369.93L1177.06,6369.89L1176.5,6369.86L1175.95,6369.83L1175.4,6369.8L1174.85,6369.78L1174.31,6369.76L1173.77,6369.74L1173.24,6369.73L1172.99,6369.72L1172.73,6369.72L1172.47,6369.72L1172.21,6369.71L1171.95,6369.71L1171.7,6369.71L1171.45,6369.71L1171.2,6369.71L1170.95,6369.71L1170.7,6369.71L1170.45,6369.72L1170.21,6369.72L1169.97,6369.72L1169.74,6369.73L1169.5,6369.73L1169.25,6369.74L1169.02,6369.75L1168.79,6369.76L1168.55,6369.77L1168.33,6369.78L1168.1,6369.79L1167.88,6369.8L1167.65,6369.81L1167.43,6369.82L1167.21,6369.84L1166.99,6369.85L1166.78,6369.87L1166.56,6369.88L1166.35,6369.9L1166.14,6369.92L1165.93,6369.94L1165.73,6369.95L1165.53,6369.97L1165.33,6369.99L1165.12,6370.02L1164.91,6370.04L1164.73,6370.06L1164.54,6370.08L1164.34,6370.11L1164.15,6370.13L1163.97,6370.15L1163.79,6370.18L1163.6,6370.21L1163.42,6370.24L1163.25,6370.26L1163.07,6370.29L1162.9,6370.32L1162.72,6370.35L1162.56,6370.38L1162.39,6370.41L1162.23,6370.44L1162.07,6370.47L1161.91,6370.5L1161.76,6370.53L1161.6,6370.57L1161.44,6370.6L1161.31,6370.63L1161.17,6370.66L1161.02,6370.7L1160.87,6370.74L1160.73,6370.77L1160.66,6370.79L1160.64,6370.85L1160.53,6371.19L1160.41,6371.54L1160.3,6371.91L1160.17,6372.29L1160.05,6372.68L1159.92,6373.09L1159.8,6373.5L1159.66,6373.93L1159.53,6374.36L1159.4,6374.81L1159.26,6375.27L1159.12,6375.74L1158.98,6376.22L1158.84,6376.7L1158.7,6377.2L1158.55,6377.7L1158.4,6378.21L1158.26,6378.72L1157.96,6379.79L1157.66,6380.87L1157.35,6381.98L1157.04,6383.11L1156.73,6384.27L1156.42,6385.44L1156.1,6386.62L1155.78,6387.82L1155.47,6389.03L1155.15,6390.25L1154.83,6391.48L1154.51,6392.71L1154.19,6393.94L1153.88,6395.17L1153.56,6396.41L1153.25,6397.64L1152.94,6398.86L1152.64,6400.07L1152.33,6401.28L1151.74,6403.65L1151.17,6405.96L1150.61,6408.19L1150.09,6410.32L1149.12,6414.22L1148.69,6415.97L1148.29,6417.56L1148.11,6418.29L1147.93,6418.98L1147.77,6419.62L1147.62,6420.21L1147.48,6420.76L1147.34,6421.27L1147.22,6421.74L1147.12,6422.12L1146.86,6422.93L1146.54,6423.73L1146.16,6424.5L1145.73,6425.24L1145.24,6425.94L1144.71,6426.61L1144.12,6427.23L1143.49,6427.81L1142.82,6428.34L1142.11,6428.82L1141.36,6429.24L1140.59,6429.61L1139.79,6429.91L1138.97,6430.16L1138.13,6430.35L1137.29,6430.47L1136.43,6430.53L1135.58,6430.52L1134.72,6430.45L1133.88,6430.32L1133.04,6430.12L1132.23,6429.87L1131.43,6429.55L1130.66,6429.17L1129.92,6428.74L1129.22,6428.25L1128.55,6427.72L1127.93,6427.13L1127.35,6426.5L1126.82,6425.83L1126.34,6425.11L1125.92,6424.37L1125.55,6423.6L1125.24,6422.8L1125,6421.98L1124.81,6421.14L1124.69,6420.3L1124.63,6419.44L1124.64,6418.59L1124.7,6417.73L1124.84,6416.89L1125.03,6416.05L1125.12,6415.75L1125.21,6415.41L1125.32,6414.99L1125.44,6414.51L1125.58,6413.97L1125.73,6413.36L1125.9,6412.71L1126.08,6412L1126.46,6410.45L1126.89,6408.72L1127.86,6404.82L1128.39,6402.68L1128.94,6400.43L1129.52,6398.11L1130.12,6395.71L1130.43,6394.49L1130.74,6393.25L1131.06,6392.01L1131.37,6390.76L1131.69,6389.51L1132.01,6388.25L1132.34,6386.99L1132.66,6385.73L1132.99,6384.48L1133.32,6383.23L1133.64,6381.98L1133.97,6380.75L1134.3,6379.52L1134.62,6378.31L1134.95,6377.11L1135.27,6375.92L1135.59,6374.76L1135.91,6373.61L1136.23,6372.49L1136.38,6371.94L1136.54,6371.39L1136.7,6370.85L1136.85,6370.31L1137.01,6369.78L1137.16,6369.26L1137.31,6368.74L1137.46,6368.24L1137.61,6367.74L1137.76,6367.24L1137.91,6366.76L1138.06,6366.28L1138.21,6365.81L1138.36,6365.34L1138.5,6364.89L1138.65,6364.44L1138.79,6364L1138.93,6363.57L1139.08,6363.14L1139.22,6362.73L1139.36,6362.32L1139.51,6361.91L1139.65,6361.52L1139.8,6361.13L1139.94,6360.74L1140.09,6360.36L1140.24,6359.99L1140.39,6359.61L1140.55,6359.24L1140.7,6358.89L1140.8,6358.68L1140.88,6358.49L1140.97,6358.3L1141.07,6358.1L1141.16,6357.91L1141.26,6357.71L1141.37,6357.5L1141.48,6357.29L1141.6,6357.08L1141.72,6356.86L1141.86,6356.62L1142.01,6356.38L1142.17,6356.13L1142.35,6355.86L1142.55,6355.57L1142.76,6355.28L1143.02,6354.95L1143.3,6354.61L1143.64,6354.23L1144.03,6353.83L1144.48,6353.4L1145.05,6352.92L1145.74,6352.42L1146.36,6352.03L1146.78,6351.8L1147.05,6351.65L1147.32,6351.51L1147.59,6351.36L1147.86,6351.23L1148.13,6351.09L1148.39,6350.97L1148.66,6350.84L1148.93,6350.71L1149.19,6350.6L1149.47,6350.48L1149.75,6350.35L1150.03,6350.24L1150.28,6350.14L1150.56,6350.03L1150.85,6349.91L1151.12,6349.81L1151.39,6349.71L1151.67,6349.61L1151.95,6349.51L1152.23,6349.42L1152.5,6349.33L1152.78,6349.24L1153.07,6349.15L1153.34,6349.07L1153.62,6348.98L1153.91,6348.9L1154.19,6348.82L1154.48,6348.74L1154.75,6348.67L1155.05,6348.59L1155.34,6348.52L1155.61,6348.45L1155.89,6348.38L1156.18,6348.32L1156.48,6348.25L1156.76,6348.19L1157.05,6348.12L1157.34,6348.06L1157.62,6348.01L1157.92,6347.95L1158.21,6347.9L1158.51,6347.84L1158.8,6347.79L1159.09,6347.74L1159.38,6347.69L1159.68,6347.64L1159.98,6347.6L1160.28,6347.55L1160.57,6347.51L1160.87,6347.47L1161.17,6347.43L1161.47,6347.39L1161.76,6347.35L1162.06,6347.32L1162.38,6347.28L1162.67,6347.25L1162.97,6347.22L1163.27,6347.19L1163.58,6347.16L1163.89,6347.13L1164.19,6347.1L1164.5,6347.08L1164.81,6347.05L1165.11,6347.03L1165.43,6347.01L1165.74,6346.99L1166.04,6346.97L1166.35,6346.95L1166.67,6346.93L1166.99,6346.92L1167.3,6346.9L1167.62,6346.89L1167.92,6346.88L1168.24,6346.86L1168.56,6346.85L1168.87,6346.85L1169.19,6346.84L1169.52,6346.83L1169.84,6346.82L1170.16,6346.82L1170.49,6346.82L1170.8,6346.81L1171.13,6346.81L1171.45,6346.81L1171.78,6346.81L1172.11,6346.81L1172.43,6346.82L1172.76,6346.82L1173.08,6346.82L1173.41,6346.83L1173.76,6346.84L1174.41,6346.85L1175.08,6346.87L1175.74,6346.9L1176.41,6346.93L1177.09,6346.96L1177.77,6346.99L1178.45,6347.03L1179.13,6347.08L1179.82,6347.12L1180.51,6347.17L1181.21,6347.23L1181.9,6347.28L1182.6,6347.35L1183.31,6347.41L1184.01,6347.48L1184.71,6347.55L1185.43,6347.62L1186.14,6347.7L1186.86,6347.78L1187.58,6347.87L1188.3,6347.96L1189.02,6348.05L1189.75,6348.14L1190.48,6348.24L1191.21,6348.34L1191.95,6348.45L1192.68,6348.55L1193.42,6348.66L1194.16,6348.78L1194.91,6348.89L1195.65,6349.01L1196.4,6349.14L1197.16,6349.26L1197.9,6349.39L1198.66,6349.52L1199.42,6349.65L1200.17,6349.79L1200.94,6349.93L1201.7,6350.07L1202.47,6350.22L1203.23,6350.37L1204,6350.52L1204.77,6350.67L1205.54,6350.83L1206.32,6350.99L1207.09,6351.15L1207.87,6351.31L1208.64,6351.48L1209.42,6351.65L1210.2,6351.82L1210.98,6351.99L1211.77,6352.17L1212.55,6352.35L1213.34,6352.53L1214.12,6352.72L1214.91,6352.9L1215.7,6353.09L1216.49,6353.28L1217.28,6353.48L1218.07,6353.67L1218.86,6353.87L1219.65,6354.07L1220.45,6354.28L1221.24,6354.48L1222.04,6354.69L1222.83,6354.9L1223.63,6355.11L1224.42,6355.32L1225.22,6355.54L1226.01,6355.76L1226.81,6355.98L1227.61,6356.2L1228.4,6356.42L1229.2,6356.65L1230,6356.88L1230.8,6357.11L1231.59,6357.34L1232.39,6357.58L1233.19,6357.81L1233.98,6358.05L1234.78,6358.29L1235.57,6358.53L1236.37,6358.78L1237.16,6359.02L1237.95,6359.27L1238.75,6359.52L1239.55,6359.77L1240.34,6360.02L1241.12,6360.28L1241.91,6360.53L1242.71,6360.79L1243.5,6361.05L1244.28,6361.31L1245.07,6361.57L1245.86,6361.84L1246.64,6362.1L1247.42,6362.37L1248.2,6362.64L1248.98,6362.91L1249.76,6363.18L1250.54,6363.45L1251.32,6363.73L1252.09,6364L1252.86,6364.28Z" style="fill:white;"/>
                </g>
            </g>
        </g>
    </g>
</svg>
