<?xml version="1.0" encoding="UTF-8" standalone="no"?>
<!DOCTYPE svg PUBLIC "-//W3C//DTD SVG 1.1//EN" "http://www.w3.org/Graphics/SVG/1.1/DTD/svg11.dtd">
<svg width="100%" height="100%" viewBox="0 0 1921 1081" version="1.1" xmlns="http://www.w3.org/2000/svg" xmlns:xlink="http://www.w3.org/1999/xlink" xml:space="preserve" xmlns:serif="http://www.serif.com/" style="fill-rule:evenodd;clip-rule:evenodd;stroke-linecap:round;stroke-linejoin:round;stroke-miterlimit:2.56579;">
    <g transform="matrix(1,0,0,1,-8060,-16321)">
        <g id="web-component-methods" transform="matrix(1,0,0,1,2150.7,16321.5)">
            <rect x="5910" y="0" width="1920" height="1080" style="fill:white;"/>
            <g transform="matrix(1,0,0,1,1.68062,318.443)">
                <g transform="matrix(1,0,0,1,5906.19,-7319.99)">
                    <path d="M1444.85,7962.92L1444.62,7962.98L1444.61,7962.98L1444.58,7962.98L1444.31,7963.05L1444.02,7963.12L1443.78,7963.18L1443.51,7963.24L1443.22,7963.3L1442.95,7963.36L1442.69,7963.42L1442.42,7963.48L1442.15,7963.53L1441.88,7963.59L1441.61,7963.64L1441.34,7963.69L1441.06,7963.74L1440.79,7963.79L1440.52,7963.84L1440.22,7963.89L1439.95,7963.94L1439.7,7963.98L1439.43,7964.02L1439.15,7964.07L1438.88,7964.11L1438.58,7964.15L1438.33,7964.19L1438.05,7964.23L1437.75,7964.27L1437.5,7964.3L1437.22,7964.34L1436.94,7964.37L1436.66,7964.41L1436.39,7964.44L1436.11,7964.47L1435.83,7964.5L1435.57,7964.53L1435.29,7964.56L1434.99,7964.59L1434.73,7964.61L1434.45,7964.64L1434.15,7964.66L1433.63,7964.71L1433.35,7964.73L1433.04,7964.75L1432.76,7964.77L1432.5,7964.79L1432.21,7964.81L1431.93,7964.83L1431.65,7964.84L1431.38,7964.86L1431.1,7964.87L1430.79,7964.89L1430.53,7964.9L1430.27,7964.91L1429.98,7964.92L1429.69,7964.94L1429.41,7964.95L1428.85,7964.96L1428.28,7964.98L1427.72,7964.99L1427.16,7964.99L1426.6,7965L1426.02,7965L1425.46,7965L1424.9,7965L1424.33,7964.99L1423.77,7964.99L1423.2,7964.97L1422.62,7964.96L1422.06,7964.94L1421.5,7964.93L1420.93,7964.9L1420.37,7964.88L1419.79,7964.86L1419.22,7964.83L1418.66,7964.8L1418.09,7964.77L1417.52,7964.74L1416.96,7964.7L1416.39,7964.67L1415.82,7964.63L1415.25,7964.59L1414.68,7964.54L1414.12,7964.5L1413.56,7964.46L1412.98,7964.41L1412.41,7964.36L1411.85,7964.31L1411.29,7964.26L1410.71,7964.21L1410.15,7964.16L1409.59,7964.1L1409.02,7964.05L1408.46,7963.99L1407.9,7963.93L1407.33,7963.88L1406.77,7963.82L1406.22,7963.76L1405.65,7963.7L1405.08,7963.64L1403.96,7963.51L1402.85,7963.38L1401.74,7963.25L1400.63,7963.12L1399.52,7962.99L1398.42,7962.86L1396.23,7962.6L1395.14,7962.47L1394.06,7962.34L1392.98,7962.22L1391.9,7962.09L1390.84,7961.97L1389.78,7961.85L1388.72,7961.73L1388.2,7961.68L1387.69,7961.62L1387.16,7961.57L1386.64,7961.51L1386.13,7961.46L1385.61,7961.41L1385.1,7961.36L1384.58,7961.31L1384.08,7961.26L1383.58,7961.22L1383.07,7961.17L1382.56,7961.13L1382.07,7961.09L1381.57,7961.05L1381.07,7961.01L1380.58,7960.97L1380.09,7960.94L1379.59,7960.91L1379.12,7960.87L1378.64,7960.85L1378.15,7960.82L1377.67,7960.79L1377.2,7960.77L1376.73,7960.75L1376.26,7960.73L1375.79,7960.71L1374.79,7960.68L1373.79,7960.64L1372.79,7960.61L1371.79,7960.58L1370.79,7960.55L1369.79,7960.52L1368.79,7960.49L1367.8,7960.46L1366.8,7960.44L1365.8,7960.41L1364.79,7960.38L1363.79,7960.36L1362.8,7960.34L1361.79,7960.31L1360.79,7960.29L1359.79,7960.27L1358.79,7960.25L1357.79,7960.23L1355.79,7960.19L1353.79,7960.16L1351.78,7960.13L1349.78,7960.1L1347.78,7960.07L1345.77,7960.05L1343.77,7960.03L1341.76,7960.01L1339.76,7959.99L1337.75,7959.98L1335.74,7959.97L1333.74,7959.96L1331.73,7959.95L1329.73,7959.94L1327.72,7959.93L1325.71,7959.93L1323.7,7959.92L1321.69,7959.92L1317.67,7959.92L1311.64,7959.92L1307.62,7959.92L1303.6,7959.92L1299.57,7959.93L1291.52,7959.93L1289.5,7959.93L1287.49,7959.92L1285.47,7959.92L1283.46,7959.91L1281.44,7959.91L1279.43,7959.9L1277.41,7959.89L1275.39,7959.88L1273.38,7959.87L1271.36,7959.86L1269.34,7959.85L1267.33,7959.83L1265.31,7959.81L1263.29,7959.79L1261.27,7959.76L1259.25,7959.73L1257.23,7959.71L1255.21,7959.67L1253.2,7959.64L1252.18,7959.62L1251.17,7959.6L1250.16,7959.58L1249.15,7959.56L1248.14,7959.54L1247.13,7959.51L1245.02,7959.47L1242.9,7959.42L1240.79,7959.38L1238.68,7959.33L1236.57,7959.29L1234.45,7959.25L1232.34,7959.2L1230.23,7959.16L1228.11,7959.12L1226,7959.09L1223.88,7959.05L1221.77,7959.01L1219.66,7958.98L1217.54,7958.94L1215.43,7958.91L1213.32,7958.88L1211.2,7958.85L1209.09,7958.82L1206.98,7958.79L1204.86,7958.76L1202.75,7958.73L1200.63,7958.7L1198.52,7958.67L1196.41,7958.65L1194.3,7958.63L1192.18,7958.6L1190.07,7958.58L1187.95,7958.56L1185.84,7958.54L1183.73,7958.52L1181.61,7958.5L1179.5,7958.48L1177.38,7958.46L1175.27,7958.44L1173.16,7958.43L1171.04,7958.41L1166.82,7958.38L1162.59,7958.36L1158.36,7958.33L1154.13,7958.31L1149.91,7958.29L1145.68,7958.28L1141.45,7958.27L1137.22,7958.26L1132.99,7958.25L1128.76,7958.24L1124.54,7958.24L1120.31,7958.24L1116.08,7958.24L1111.85,7958.25L1107.62,7958.25L1103.39,7958.26L1099.16,7958.27L1094.93,7958.28L1090.71,7958.3L1086.48,7958.31L1082.25,7958.33L1078.02,7958.35L1073.79,7958.37L1069.56,7958.39L1065.33,7958.41L1061.1,7958.43L1056.87,7958.46L1052.64,7958.49L1048.4,7958.51L1044.17,7958.54L1039.94,7958.57L1035.71,7958.6L1027.25,7958.66L1018.78,7958.73L1010.32,7958.79L1001.85,7958.86L993.387,7958.93L976.454,7959.07L975.6,7959.07L974.749,7959.08L973.899,7959.09L973.048,7959.1L972.197,7959.11L971.341,7959.12L970.49,7959.14L969.64,7959.15L968.79,7959.16L967.94,7959.18L967.09,7959.19L966.24,7959.21L964.53,7959.25L962.826,7959.28L961.124,7959.32L959.421,7959.37L957.715,7959.41L956.009,7959.46L954.304,7959.51L952.598,7959.56L950.893,7959.61L949.183,7959.67L947.475,7959.73L945.77,7959.78L944.065,7959.84L942.353,7959.9L940.641,7959.96L938.935,7960.03L935.516,7960.15L928.669,7960.4L925.244,7960.53L921.817,7960.65L920.099,7960.72L918.387,7960.78L916.672,7960.84L914.953,7960.89L913.238,7960.95L911.519,7961L909.801,7961.06L908.082,7961.11L906.363,7961.16L904.643,7961.2L902.925,7961.25L901.201,7961.29L899.482,7961.33L897.758,7961.37L896.032,7961.4L895.172,7961.42L894.316,7961.44L893.451,7961.45L892.588,7961.47L891.725,7961.48L890.86,7961.49L889.997,7961.5L889.134,7961.51L888.27,7961.52L887.405,7961.53L886.549,7961.54L885.685,7961.55L884.814,7961.55L883.95,7961.56L883.093,7961.56L882.229,7961.56L881.358,7961.57L879.629,7961.57L878.765,7961.56L877.9,7961.56L877.035,7961.56L876.171,7961.55L875.299,7961.55L874.435,7961.54L873.57,7961.53L872.705,7961.52L871.84,7961.51L870.968,7961.5L870.103,7961.49L869.238,7961.47L868.366,7961.46L867.494,7961.44L866.631,7961.42L864.387,7961.37L862.141,7961.32L859.891,7961.28L857.643,7961.23L855.399,7961.19L853.152,7961.14L850.905,7961.1L848.657,7961.06L846.41,7961.02L844.163,7960.98L841.915,7960.94L839.668,7960.9L837.42,7960.87L835.176,7960.83L832.926,7960.8L830.678,7960.76L828.432,7960.73L826.182,7960.7L823.935,7960.67L821.688,7960.64L819.437,7960.61L817.189,7960.58L814.944,7960.55L812.696,7960.53L810.446,7960.5L808.199,7960.48L805.95,7960.45L803.703,7960.43L801.455,7960.41L799.205,7960.39L796.956,7960.37L794.709,7960.35L790.211,7960.31L785.712,7960.27L781.214,7960.24L776.717,7960.21L772.219,7960.19L767.721,7960.16L763.221,7960.14L758.724,7960.12L754.225,7960.1L749.726,7960.09L745.225,7960.07L740.726,7960.06L736.226,7960.05L731.727,7960.04L727.226,7960.03L722.726,7960.03L718.226,7960.02L713.726,7960.02L709.225,7960.02L704.724,7960.01L695.722,7960.01L686.72,7960.02L677.718,7960.02L668.714,7960.02L659.71,7960.03L650.706,7960.03L641.703,7960.03L632.698,7960.04L628.194,7960.03L623.693,7960.03L619.191,7960.03L614.687,7960.03L610.185,7960.02L605.682,7960.02L601.179,7960.01L596.676,7960L592.174,7959.99L587.671,7959.97L583.169,7959.96L578.668,7959.94L577.537,7959.94L576.412,7959.94L575.286,7959.94L574.155,7959.94L573.024,7959.94L571.898,7959.94L570.773,7959.95L569.646,7959.96L568.516,7959.97L567.385,7959.98L566.259,7959.99L565.128,7960L563.996,7960.02L562.871,7960.03L561.74,7960.05L560.609,7960.07L559.483,7960.09L558.352,7960.11L557.216,7960.13L556.091,7960.15L554.964,7960.18L553.829,7960.2L552.698,7960.23L551.566,7960.25L550.436,7960.28L549.31,7960.31L548.179,7960.34L547.043,7960.37L545.912,7960.4L544.782,7960.44L543.645,7960.47L542.517,7960.5L540.253,7960.57L537.986,7960.65L535.722,7960.72L533.459,7960.8L531.192,7960.88L528.923,7960.96L526.657,7961.05L524.388,7961.13L522.12,7961.22L519.853,7961.31L515.313,7961.49L510.771,7961.66L506.247,7961.84L506.169,7961.84L506.149,7961.84L506.035,7961.85L505.884,7961.86L505.707,7961.88L505.485,7961.9L505.243,7961.92L504.981,7961.95L504.704,7961.98L504.41,7962.01L504.095,7962.05L503.404,7962.13L502.669,7962.22L501.877,7962.32L501.038,7962.42L500.157,7962.53L499.252,7962.64L498.311,7962.75L497.836,7962.8L497.36,7962.86L496.857,7962.91L496.366,7962.97L495.886,7963.02L495.393,7963.07L494.888,7963.12L494.385,7963.17L493.883,7963.22L493.383,7963.26L492.884,7963.3L492.378,7963.35L491.875,7963.38L491.388,7963.42L490.894,7963.45L490.391,7963.48L490.142,7963.49L489.92,7963.51L489.674,7963.52L489.43,7963.53L489.186,7963.54L488.943,7963.55L488.704,7963.56L488.438,7963.57L488.229,7963.57L487.993,7963.58L487.731,7963.58L487.529,7963.58L487.299,7963.58L487.04,7963.58L486.815,7963.58L486.59,7963.58L486.337,7963.57L486.114,7963.57L485.894,7963.56L485.676,7963.55L485.461,7963.54L485.213,7963.53L484.998,7963.51L484.787,7963.5L484.543,7963.48L484.297,7963.45L484.087,7963.43L483.878,7963.41L483.631,7963.37L483.385,7963.34L483.178,7963.3L482.966,7963.27L482.719,7963.22L482.468,7963.17L482.206,7963.11L481.991,7963.05L481.734,7962.98L481.476,7962.9L481.362,7962.87L481.185,7962.81L481.1,7962.78L480.995,7962.74L480.813,7962.67L480.63,7962.6L480.522,7962.55L480.41,7962.5L480.223,7962.41L480.132,7962.37L479.916,7962.26L479.703,7962.14L479.608,7962.08L479.482,7962.01L479.356,7961.93L479.164,7961.8L478.94,7961.64L478.807,7961.54L478.62,7961.39L478.429,7961.22L478.376,7961.18L477.989,7960.79L477.979,7960.78L477.457,7960.12L477.372,7960L477.211,7959.74L477.063,7959.48L476.944,7959.24L476.804,7958.93L476.733,7958.74L476.672,7958.58L476.599,7958.35L476.522,7958.1L476.44,7957.78L476.392,7957.55L476.352,7957.34L476.319,7957.14L476.287,7956.94L476.26,7956.73L476.242,7956.57L476.22,7956.38L476.202,7956.18L476.187,7956.01L476.174,7955.84L476.16,7955.64L476.15,7955.46L476.14,7955.28L476.131,7955.07L476.124,7954.91L476.115,7954.7L476.109,7954.49L476.099,7954.11L476.09,7953.69L476.084,7953.25L476.081,7952.81L476.079,7952.35L476.08,7951.88L476.082,7951.4L476.086,7950.9L476.092,7950.38L476.1,7949.87L476.108,7949.34L476.119,7948.8L476.13,7948.24L476.143,7947.68L476.157,7947.11L476.172,7946.54L476.205,7945.37L476.239,7944.18L476.278,7942.97L476.317,7941.76L476.397,7939.33L476.477,7936.95L476.514,7935.8L476.549,7934.67L476.581,7933.58L476.61,7932.54L476.622,7932.05L476.632,7931.56L476.643,7931.09L476.651,7930.64L476.659,7930.2L476.665,7929.79L476.668,7929.39L476.671,7929L476.672,7928.65L476.671,7928.31L476.669,7928.01L476.665,7927.73L476.651,7927.02L476.64,7926.29L476.629,7925.57L476.619,7924.85L476.61,7924.13L476.602,7923.41L476.595,7922.69L476.589,7921.97L476.584,7921.25L476.58,7920.53L476.577,7919.81L476.574,7919.09L476.573,7918.37L476.572,7917.66L476.572,7916.93L476.573,7916.22L476.575,7915.49L476.578,7914.78L476.585,7913.34L476.596,7911.9L476.609,7910.47L476.625,7909.03L476.642,7907.6L476.662,7906.16L476.685,7904.73L476.709,7903.3L476.735,7901.87L476.763,7900.44L476.791,7899.01L476.823,7897.57L476.854,7896.15L476.888,7894.71L476.922,7893.28L476.991,7890.43L477.064,7887.58L477.209,7881.88L477.28,7879.03L477.315,7877.61L477.348,7876.19L477.382,7874.77L477.414,7873.35L477.444,7871.93L477.473,7870.51L477.501,7869.1L477.527,7867.68L477.552,7866.26L477.574,7864.85L477.594,7863.43L477.612,7862.02L477.627,7860.6L477.641,7859.19L477.652,7857.78L477.659,7856.36L477.661,7855.66L477.663,7854.95L477.665,7854.25L477.665,7852.84L477.664,7852.14L477.661,7851.43L477.658,7850.72L477.655,7850.02L477.651,7849.32L477.645,7848.61L477.638,7847.9L477.631,7847.2L477.623,7846.5L477.613,7845.8L477.602,7845.1L477.591,7844.39L477.579,7843.68L477.566,7842.98L477.551,7842.28L477.535,7841.58L477.519,7840.88L477.5,7840.18L477.482,7839.47L477.462,7838.77L477.441,7838.07L477.417,7837.37L477.394,7836.67L477.361,7835.74L477.325,7834.8L477.288,7833.86L477.249,7832.93L477.208,7831.99L477.166,7831.06L477.121,7830.12L477.075,7829.18L477.028,7828.25L476.977,7827.31L476.927,7826.38L476.874,7825.44L476.82,7824.5L476.765,7823.56L476.708,7822.63L476.649,7821.69L476.589,7820.75L476.528,7819.82L476.465,7818.88L476.401,7817.94L476.336,7817L476.269,7816.07L476.202,7815.13L476.133,7814.19L476.063,7813.25L475.992,7812.31L475.919,7811.38L475.847,7810.44L475.772,7809.5L475.697,7808.56L475.621,7807.62L475.544,7806.68L475.466,7805.74L475.387,7804.8L475.308,7803.86L475.227,7802.92L475.065,7801.03L474.899,7799.15L474.732,7797.27L474.562,7795.39L474.39,7793.51L474.217,7791.62L474.042,7789.73L473.867,7787.85L473.514,7784.07L473.16,7780.29L472.983,7778.4L472.808,7776.51L472.633,7774.62L472.459,7772.73L472.286,7770.83L472.116,7768.93L471.948,7767.04L471.781,7765.14L471.619,7763.24L471.537,7762.29L471.458,7761.34L471.378,7760.39L471.299,7759.44L471.223,7758.49L471.146,7757.54L471.071,7756.59L470.996,7755.64L470.922,7754.68L470.849,7753.73L470.778,7752.78L470.707,7751.83L470.638,7750.87L470.57,7749.92L470.503,7748.97L470.437,7748.02L470.372,7747.06L470.309,7746.1L470.248,7745.15L470.187,7744.19L470.128,7743.24L470.07,7742.28L470.015,7741.33L469.96,7740.37L469.907,7739.41L469.856,7738.46L469.806,7737.5L469.758,7736.54L469.712,7735.59L469.667,7734.63L469.625,7733.67L469.583,7732.71L469.545,7731.75L469.507,7730.79L469.472,7729.83L469.439,7728.87L469.407,7727.91L469.378,7726.95L469.351,7725.99L469.325,7725.03L469.302,7724.07L469.282,7723.11L469.263,7722.14L469.247,7721.18L469.233,7720.21L469.221,7719.26L469.211,7718.29L469.204,7717.32L469.2,7716.36L469.197,7715.4L469.197,7714.34L469.199,7713.29L469.203,7712.24L469.209,7711.18L469.217,7710.13L469.227,7709.08L469.238,7708.03L469.251,7706.98L469.265,7705.93L469.282,7704.87L469.301,7703.82L469.321,7702.77L469.342,7701.72L469.366,7700.67L469.391,7699.62L469.417,7698.57L469.445,7697.52L469.474,7696.47L469.506,7695.42L469.538,7694.37L469.572,7693.32L469.607,7692.27L469.644,7691.23L469.682,7690.17L469.721,7689.13L469.762,7688.08L469.804,7687.03L469.847,7685.98L469.891,7684.94L469.937,7683.89L469.984,7682.84L470.032,7681.79L470.081,7680.74L470.131,7679.7L470.182,7678.65L470.234,7677.6L470.287,7676.56L470.341,7675.51L470.397,7674.46L470.453,7673.41L470.51,7672.37L470.568,7671.32L470.627,7670.27L470.687,7669.23L470.746,7668.19L470.807,7667.14L470.932,7665.05L471.059,7662.96L471.19,7660.87L471.321,7658.78L471.455,7656.69L471.591,7654.61L471.729,7652.52L471.868,7650.44L472.009,7648.35L472.151,7646.26L472.293,7644.18L472.58,7640.02L472.867,7635.85L473.154,7631.69L473.296,7629.61L473.438,7627.53L473.578,7625.45L473.718,7623.37L473.856,7621.3L473.992,7619.22L474.127,7617.15L474.258,7615.07L474.389,7613L474.516,7610.92L474.641,7608.85L474.702,7607.81L474.762,7606.77L474.822,7605.74L474.881,7604.7L474.939,7603.67L474.996,7602.63L475.053,7601.6L475.108,7600.56L475.163,7599.53L475.216,7598.49L475.27,7597.45L475.321,7596.42L475.371,7595.39L475.421,7594.35L475.468,7593.32L475.516,7592.28L475.562,7591.25L475.607,7590.21L475.651,7589.18L475.693,7588.15L475.734,7587.11L475.774,7586.08L475.813,7585.04L475.851,7584.01L475.886,7582.98L475.921,7581.95L475.95,7581.03L475.978,7580.11L476.006,7579.18L476.032,7578.26L476.056,7577.34L476.079,7576.42L476.101,7575.5L476.122,7574.58L476.141,7573.66L476.159,7572.73L476.177,7571.81L476.193,7570.89L476.208,7569.97L476.221,7569.04L476.234,7568.12L476.246,7567.19L476.256,7566.27L476.266,7565.35L476.274,7564.43L476.281,7563.5L476.287,7562.57L476.292,7561.65L476.296,7560.73L476.3,7559.8L476.302,7558.88L476.303,7557.95L476.303,7557.03L476.302,7556.1L476.301,7555.18L476.298,7554.26L476.294,7553.33L476.29,7552.4L476.284,7551.48L476.279,7550.55L476.272,7549.63L476.264,7548.7L476.255,7547.78L476.246,7546.85L476.236,7545.92L476.224,7545L476.213,7544.07L476.2,7543.14L476.173,7541.29L476.143,7539.44L476.11,7537.58L476.075,7535.72L476.037,7533.87L475.996,7532.02L475.953,7530.16L475.908,7528.3L475.861,7526.44L475.813,7524.59L475.762,7522.73L475.71,7520.87L475.655,7519.01L475.6,7517.15L475.542,7515.3L475.484,7513.44L475.424,7511.57L475.364,7509.72L475.302,7507.86L475.24,7505.99L475.176,7504.13L475.049,7500.41L474.919,7496.69L474.788,7492.96L474.658,7489.24L474.529,7485.51L474.401,7481.78L474.338,7479.92L474.277,7478.06L474.216,7476.19L474.156,7474.33L474.098,7472.46L474.041,7470.6L473.984,7468.74L473.93,7466.87L473.877,7465.01L473.827,7463.14L474.22,7460.84L475.467,7458.85L477.378,7457.5L479.661,7456.98L481.968,7457.38L483.95,7458.62L485.303,7460.53L485.388,7460.91L485.508,7460.81L487.767,7460.2L488.835,7460.12L489.909,7460.05L490.983,7459.98L492.057,7459.91L493.13,7459.84L494.204,7459.78L495.272,7459.72L496.345,7459.65L497.418,7459.59L498.486,7459.53L499.558,7459.48L500.631,7459.42L501.704,7459.37L502.771,7459.32L503.837,7459.27L504.915,7459.22L505.982,7459.17L507.048,7459.12L508.121,7459.08L509.192,7459.04L510.258,7459L511.324,7458.96L512.396,7458.92L513.462,7458.88L514.533,7458.85L515.598,7458.81L516.665,7458.78L517.736,7458.75L518.801,7458.72L519.866,7458.69L520.938,7458.66L522.003,7458.64L523.068,7458.61L524.133,7458.59L525.198,7458.56L526.263,7458.54L527.328,7458.52L528.399,7458.5L529.463,7458.48L530.528,7458.47L531.593,7458.45L532.652,7458.43L533.722,7458.42L534.787,7458.41L535.846,7458.39L536.916,7458.38L537.98,7458.37L539.04,7458.36L540.104,7458.35L541.168,7458.34L542.233,7458.34L543.297,7458.33L545.42,7458.32L547.546,7458.31L549.669,7458.3L551.794,7458.3L556.041,7458.3L558.167,7458.3L560.287,7458.31L562.408,7458.32L564.532,7458.32L566.652,7458.33L568.773,7458.34L570.895,7458.36L573.014,7458.37L581.492,7458.42L585.731,7458.44L592.09,7458.48L594.207,7458.49L596.326,7458.49L598.443,7458.5L602.681,7458.51L604.8,7458.51L606.919,7458.51L609.037,7458.51L611.154,7458.51L613.275,7458.5L615.397,7458.49L616.452,7458.48L617.511,7458.47L618.575,7458.47L619.634,7458.46L620.693,7458.45L621.752,7458.44L622.811,7458.43L623.873,7458.42L626.291,7458.39L628.711,7458.36L631.128,7458.34L633.547,7458.31L635.965,7458.29L638.384,7458.26L640.805,7458.24L643.222,7458.22L645.641,7458.2L648.059,7458.19L650.475,7458.17L652.892,7458.15L655.311,7458.13L657.728,7458.12L660.148,7458.11L662.564,7458.09L664.982,7458.08L667.399,7458.07L669.815,7458.06L672.235,7458.05L674.653,7458.04L679.483,7458.03L681.901,7458.02L686.735,7458.01L691.568,7458L696.401,7457.99L701.234,7457.99L706.066,7457.99L710.897,7457.99L715.729,7458L720.559,7458L725.392,7458.01L730.223,7458.02L735.053,7458.03L739.884,7458.05L744.714,7458.06L749.543,7458.08L754.374,7458.1L759.203,7458.12L764.032,7458.14L768.862,7458.15L778.52,7458.2L788.178,7458.24L797.835,7458.29L807.492,7458.34L817.148,7458.38L826.805,7458.43L831.633,7458.45L836.461,7458.47L846.117,7458.51L850.946,7458.52L855.773,7458.54L860.601,7458.55L870.257,7458.57L875.085,7458.58L879.914,7458.59L889.571,7458.6L894.399,7458.6L899.228,7458.6L904.056,7458.59L908.886,7458.58L913.715,7458.57L916.129,7458.57L918.542,7458.56L920.959,7458.55L923.373,7458.54L925.787,7458.53L928.202,7458.53L930.617,7458.51L933.033,7458.5L936.116,7458.49L939.198,7458.47L942.282,7458.45L945.366,7458.43L948.449,7458.41L951.534,7458.38L954.618,7458.36L957.7,7458.34L960.785,7458.31L963.869,7458.28L966.954,7458.25L970.038,7458.22L973.123,7458.19L976.207,7458.16L979.29,7458.13L982.375,7458.09L985.461,7458.06L988.546,7458.02L991.631,7457.98L994.716,7457.95L997.801,7457.91L1000.88,7457.87L1003.97,7457.83L1007.06,7457.79L1010.14,7457.75L1013.23,7457.7L1019.4,7457.61L1025.57,7457.53L1031.74,7457.43L1037.91,7457.34L1044.09,7457.24L1050.26,7457.14L1056.43,7457.04L1062.61,7456.94L1068.78,7456.84L1074.95,7456.73L1081.13,7456.63L1093.48,7456.42L1105.83,7456.21L1118.18,7456L1124.36,7455.89L1130.53,7455.79L1136.71,7455.69L1142.88,7455.58L1149.06,7455.48L1155.24,7455.39L1161.42,7455.29L1167.59,7455.2L1173.77,7455.11L1179.95,7455.02L1186.13,7454.93L1189.22,7454.89L1192.31,7454.85L1195.39,7454.81L1198.48,7454.77L1201.58,7454.73L1204.66,7454.69L1207.75,7454.65L1210.84,7454.61L1213.93,7454.58L1217.02,7454.54L1220.11,7454.51L1223.2,7454.48L1226.29,7454.45L1229.38,7454.42L1232.47,7454.39L1235.56,7454.36L1238.65,7454.33L1241.74,7454.31L1244.83,7454.28L1247.92,7454.26L1251.01,7454.24L1254.1,7454.22L1257.19,7454.2L1260.28,7454.18L1263.37,7454.16L1266.46,7454.15L1269.55,7454.13L1272.64,7454.12L1275.73,7454.11L1278.82,7454.1L1281.91,7454.09L1285,7454.09L1288.09,7454.08L1291.18,7454.08L1294.27,7454.07L1297.36,7454.07L1303.54,7454.08L1309.72,7454.09L1315.9,7454.11L1318.99,7454.12L1322.08,7454.14L1325.17,7454.15L1328.26,7454.17L1331.16,7454.19L1334.05,7454.21L1336.94,7454.23L1339.83,7454.26L1342.73,7454.29L1345.62,7454.32L1348.52,7454.35L1351.41,7454.39L1354.31,7454.42L1357.2,7454.47L1360.1,7454.51L1362.99,7454.55L1365.89,7454.6L1368.78,7454.65L1371.68,7454.7L1374.57,7454.76L1377.47,7454.82L1380.37,7454.88L1383.26,7454.95L1386.16,7455.01L1389.05,7455.08L1391.95,7455.15L1394.85,7455.23L1397.74,7455.31L1400.63,7455.39L1403.53,7455.47L1406.42,7455.56L1409.32,7455.65L1412.21,7455.74L1413.65,7455.79L1415.1,7455.84L1416.55,7455.89L1418,7455.94L1420.88,7456.04L1421.61,7456.06L1423.07,7456.12L1425.24,7456.21L1425.98,7456.24L1426.7,7456.27L1427.42,7456.3L1428.15,7456.34L1429.6,7456.41L1431.05,7456.48L1432.5,7456.55L1433.95,7456.63L1435.4,7456.71L1436.85,7456.8L1438.29,7456.88L1439.74,7456.97L1441.19,7457.06L1442.63,7457.15L1444.02,7457.24L1444.18,7457.25L1444.63,7457.27L1445.24,7457.29L1445.6,7457.31L1445.98,7457.33L1446.36,7457.35L1446.72,7457.37L1447.07,7457.39L1447.4,7457.42L1447.57,7457.43L1447.75,7457.44L1447.86,7457.46L1448.08,7457.48L1448.32,7457.51L1448.99,7457.65L1448.87,7457.61L1448.96,7457.63L1449.17,7457.69L1450.21,7458.1L1450.22,7458.1L1451.78,7459.23L1452.9,7460.78L1452.9,7460.79L1453.51,7462.93L1453.56,7463.4L1453.64,7464.34L1453.68,7464.82L1453.72,7465.29L1453.75,7465.76L1453.79,7466.24L1453.83,7466.71L1453.9,7467.64L1453.93,7468.12L1453.96,7468.59L1454,7469.07L1454.03,7469.53L1454.06,7470.01L1454.12,7470.95L1454.14,7471.42L1454.2,7472.36L1454.22,7472.83L1454.25,7473.31L1454.3,7474.25L1454.34,7475.2L1454.38,7476.14L1454.42,7477.08L1454.46,7478.02L1454.49,7478.97L1454.52,7479.91L1454.55,7480.85L1454.57,7481.79L1454.59,7482.74L1454.61,7483.68L1454.63,7484.62L1454.64,7485.56L1454.65,7486.51L1454.66,7487.44L1454.67,7488.39L1454.68,7489.33L1454.68,7490.27L1454.68,7491.21L1454.68,7492.15L1454.67,7493.1L1454.67,7494.04L1454.66,7494.98L1454.65,7495.92L1454.64,7496.86L1454.62,7497.8L1454.61,7498.74L1454.59,7499.68L1454.57,7500.62L1454.55,7501.56L1454.53,7502.5L1454.5,7503.44L1454.48,7504.38L1454.45,7505.32L1454.42,7506.26L1454.39,7507.19L1454.36,7508.13L1454.32,7509.07L1454.29,7510.01L1454.26,7510.94L1454.22,7511.88L1454.18,7512.82L1454.14,7513.76L1454.1,7514.7L1454.06,7515.63L1454.02,7516.57L1453.98,7517.5L1453.93,7518.44L1453.89,7519.38L1453.8,7521.24L1453.7,7523.11L1453.61,7524.98L1453.51,7526.85L1453.41,7528.71L1453.31,7530.58L1453.1,7534.3L1452.89,7538.02L1452.79,7539.88L1452.69,7541.74L1452.59,7543.59L1452.5,7545.44L1452.4,7547.3L1452.3,7549.15L1452.21,7550.99L1452.17,7551.92L1452.12,7552.84L1452.08,7553.77L1452.04,7554.69L1452,7555.61L1451.96,7556.53L1451.92,7557.45L1451.88,7558.37L1451.85,7559.29L1451.81,7560.21L1451.78,7561.13L1451.74,7562.05L1451.71,7562.97L1451.68,7563.88L1451.65,7564.81L1451.62,7565.72L1451.6,7566.63L1451.57,7567.55L1451.55,7568.47L1451.53,7569.38L1451.51,7570.3L1451.49,7571.21L1451.47,7572.12L1451.46,7573.04L1451.45,7573.95L1451.43,7574.86L1451.43,7575.77L1451.42,7576.69L1451.41,7577.59L1451.41,7578.5L1451.41,7579.41L1451.41,7580.32L1451.41,7581.23L1451.42,7582.14L1451.43,7583.08L1451.44,7584.03L1451.45,7584.97L1451.46,7585.92L1451.47,7586.86L1451.48,7587.81L1451.5,7588.75L1451.53,7590.64L1451.56,7592.53L1451.58,7593.48L1451.62,7595.37L1451.64,7596.31L1451.71,7599.15L1451.76,7601.04L1451.82,7602.94L1451.87,7604.83L1451.93,7606.72L1452,7608.61L1452.06,7610.51L1452.13,7612.4L1452.19,7614.3L1452.27,7616.19L1452.34,7618.09L1452.41,7619.99L1452.49,7621.89L1452.57,7623.78L1452.65,7625.68L1452.73,7627.58L1452.81,7629.48L1452.89,7631.38L1453.06,7635.18L1453.39,7642.78L1453.55,7646.59L1453.63,7648.49L1453.72,7650.4L1453.8,7652.3L1453.88,7654.21L1453.95,7656.11L1454.03,7658.02L1454.11,7659.93L1454.18,7661.83L1454.25,7663.74L1454.32,7665.65L1454.39,7667.56L1454.46,7669.47L1454.52,7671.38L1454.58,7673.29L1454.66,7676.15L1454.72,7678.07L1454.74,7679.02L1454.77,7679.98L1454.82,7681.89L1454.86,7683.8L1454.88,7684.77L1454.92,7686.68L1454.93,7687.63L1454.95,7688.59L1454.97,7689.55L1454.98,7690.51L1454.99,7691.47L1455.01,7692.43L1455.03,7694.34L1455.04,7695.3L1455.05,7696.26L1455.05,7697.22L1455.06,7698.18L1455.06,7699.14L1455.07,7700.09L1455.07,7701.05L1455.07,7702.97L1455.07,7703.93L1455.06,7705.01L1455.06,7706.09L1455.05,7707.17L1455.05,7708.24L1455.04,7709.32L1455.03,7710.4L1455.02,7711.48L1455.01,7712.55L1455,7713.63L1454.99,7714.71L1454.97,7715.78L1454.96,7716.86L1454.95,7717.93L1454.93,7719.01L1454.91,7720.09L1454.9,7721.16L1454.88,7722.24L1454.86,7723.32L1454.84,7724.39L1454.82,7725.47L1454.8,7726.54L1454.77,7727.62L1454.73,7729.77L1454.68,7731.92L1454.63,7734.06L1454.57,7736.22L1454.51,7738.36L1454.45,7740.51L1454.39,7742.66L1454.33,7744.81L1454.26,7746.95L1454.19,7749.1L1454.12,7751.25L1454.05,7753.39L1453.97,7755.54L1453.9,7757.69L1453.82,7759.83L1453.74,7761.97L1453.66,7764.12L1453.58,7766.26L1453.49,7768.41L1453.41,7770.55L1453.33,7772.69L1453.15,7776.98L1452.98,7781.26L1452.81,7785.54L1452.63,7789.82L1452.45,7794.11L1452.28,7798.38L1452.11,7802.66L1452.02,7804.8L1451.94,7806.94L1451.85,7809.08L1451.77,7811.22L1451.69,7813.35L1451.61,7815.49L1451.53,7817.63L1451.45,7819.77L1451.38,7821.9L1451.3,7824.04L1451.23,7826.18L1451.16,7828.31L1451.09,7830.45L1451.03,7832.58L1450.96,7834.72L1450.9,7836.85L1450.84,7838.99L1450.78,7841.12L1450.75,7842.51L1450.71,7843.9L1450.68,7845.29L1450.64,7846.68L1450.61,7848.07L1450.58,7849.46L1450.55,7850.85L1450.52,7852.24L1450.49,7853.63L1450.46,7855.02L1450.43,7856.41L1450.41,7857.8L1450.38,7859.2L1450.36,7860.59L1450.31,7863.37L1450.26,7866.15L1450.22,7868.93L1450.18,7871.71L1450.14,7874.5L1450.11,7877.28L1450.08,7880.06L1450.05,7882.85L1450.02,7885.63L1449.99,7888.41L1449.97,7891.2L1449.94,7893.98L1449.92,7896.77L1449.9,7899.55L1449.88,7902.34L1449.87,7905.12L1449.85,7907.91L1449.84,7910.7L1449.82,7913.48L1449.81,7916.27L1449.8,7919.05L1449.78,7924.63L1449.76,7930.2L1449.75,7931.67L1449.75,7933.13L1449.75,7934.6L1449.75,7936.07L1449.75,7937.53L1449.76,7939L1449.77,7940.47L1449.77,7941.94L1449.78,7943.41L1449.79,7944.88L1449.81,7947.82L1449.84,7950.77L1449.86,7953.67L1449.86,7953.69L1449.87,7953.81L1449.88,7954.21L1449.89,7954.76L1449.9,7955.06L1449.9,7955.36L1449.91,7955.69L1449.91,7956.01L1449.91,7956.31L1449.91,7956.47L1449.9,7956.67L1449.9,7956.85L1449.89,7957L1449.88,7957.21L1449.85,7957.52L1449.81,7957.81L1449.76,7958.14L1449.65,7958.56L1449.59,7958.74L1449.41,7959.26L1449.4,7959.27L1448.95,7960.15L1448.95,7960.15L1448.16,7961.15L1447.19,7961.97L1447.18,7961.97L1445.59,7962.72L1443.86,7962.98L1444.61,7962.98L1444.85,7962.92L1445.13,7962.84L1444.85,7962.92L1444.85,7962.92ZM713.734,7948.02L722.741,7948.03L727.245,7948.03L731.748,7948.04L740.757,7948.06L749.765,7948.09L754.269,7948.1L758.774,7948.12L763.279,7948.14L767.783,7948.16L772.287,7948.19L776.793,7948.21L781.298,7948.24L785.803,7948.28L790.307,7948.31L794.811,7948.35L797.066,7948.37L799.319,7948.39L801.569,7948.41L803.823,7948.43L806.075,7948.45L808.329,7948.48L812.831,7948.53L815.085,7948.55L817.34,7948.58L819.593,7948.61L821.844,7948.64L824.096,7948.67L828.599,7948.73L830.855,7948.76L833.108,7948.8L835.358,7948.83L837.613,7948.87L842.118,7948.94L846.623,7949.02L851.129,7949.1L853.381,7949.15L855.633,7949.19L857.888,7949.23L862.391,7949.33L864.642,7949.37L866.898,7949.42L867.753,7949.44L868.598,7949.46L869.442,7949.48L871.145,7949.5L871.99,7949.51L872.842,7949.52L873.692,7949.53L874.544,7949.54L875.395,7949.55L876.239,7949.55L877.941,7949.56L879.643,7949.57L881.344,7949.57L882.188,7949.56L883.038,7949.56L883.896,7949.56L884.745,7949.55L885.589,7949.55L886.44,7949.54L887.296,7949.53L888.147,7949.52L888.997,7949.51L889.847,7949.5L890.696,7949.49L891.547,7949.48L892.397,7949.47L893.246,7949.45L894.097,7949.44L894.953,7949.42L895.806,7949.41L897.505,7949.37L899.208,7949.34L900.914,7949.3L902.617,7949.25L904.322,7949.21L906.028,7949.16L907.733,7949.11L909.438,7949.06L911.143,7949.01L912.848,7948.95L914.557,7948.9L916.262,7948.84L917.97,7948.78L919.682,7948.72L921.386,7948.66L924.807,7948.54L928.228,7948.41L935.072,7948.16L938.501,7948.03L940.217,7947.97L941.929,7947.91L943.641,7947.85L945.359,7947.79L947.078,7947.73L948.793,7947.68L950.51,7947.62L952.229,7947.57L953.948,7947.52L955.667,7947.46L957.387,7947.42L959.106,7947.37L960.83,7947.33L962.553,7947.29L964.277,7947.25L965.994,7947.21L966.857,7947.2L967.721,7947.18L968.585,7947.16L969.448,7947.15L970.313,7947.14L971.177,7947.12L972.033,7947.11L972.898,7947.1L973.762,7947.09L974.626,7947.08L975.49,7947.07L976.351,7947.07L993.289,7946.93L1001.76,7946.86L1010.23,7946.79L1018.69,7946.73L1027.16,7946.66L1035.63,7946.6L1039.86,7946.57L1044.09,7946.54L1048.33,7946.51L1052.56,7946.49L1056.79,7946.46L1061.03,7946.43L1065.26,7946.41L1069.5,7946.39L1073.73,7946.37L1077.96,7946.35L1082.2,7946.33L1086.43,7946.31L1090.66,7946.3L1094.9,7946.28L1099.14,7946.27L1103.37,7946.26L1107.6,7946.25L1111.84,7946.25L1116.07,7946.24L1120.31,7946.24L1128.78,7946.24L1137.24,7946.26L1141.48,7946.27L1145.72,7946.28L1149.95,7946.29L1154.19,7946.31L1158.42,7946.33L1162.66,7946.36L1166.89,7946.38L1171.13,7946.41L1173.25,7946.43L1175.37,7946.44L1177.48,7946.46L1179.6,7946.48L1185.96,7946.54L1188.07,7946.56L1190.19,7946.58L1196.55,7946.65L1198.67,7946.68L1205.02,7946.76L1209.26,7946.82L1215.62,7946.91L1217.74,7946.95L1219.85,7946.98L1221.97,7947.01L1226.21,7947.09L1228.33,7947.13L1230.45,7947.17L1232.57,7947.2L1234.69,7947.25L1236.81,7947.29L1238.93,7947.33L1243.16,7947.42L1245.29,7947.47L1247.4,7947.52L1248.41,7947.54L1249.41,7947.56L1250.41,7947.58L1251.41,7947.6L1252.41,7947.62L1253.41,7947.64L1255.41,7947.67L1257.41,7947.71L1259.42,7947.73L1261.42,7947.76L1263.43,7947.79L1265.43,7947.81L1267.43,7947.83L1269.44,7947.85L1271.44,7947.86L1275.46,7947.88L1279.47,7947.9L1283.49,7947.91L1287.51,7947.92L1291.52,7947.93L1299.57,7947.93L1303.59,7947.92L1307.61,7947.92L1311.64,7947.92L1317.68,7947.92L1323.72,7947.92L1325.74,7947.93L1329.77,7947.94L1331.78,7947.95L1333.8,7947.96L1335.82,7947.97L1339.85,7947.99L1341.87,7948.01L1343.88,7948.03L1345.9,7948.05L1347.92,7948.08L1349.94,7948.1L1351.96,7948.13L1353.98,7948.16L1356,7948.2L1358.02,7948.23L1359.03,7948.25L1360.04,7948.27L1361.05,7948.29L1362.06,7948.32L1363.07,7948.34L1364.08,7948.36L1365.09,7948.39L1367.11,7948.44L1368.12,7948.47L1369.13,7948.49L1370.14,7948.52L1371.15,7948.55L1373.18,7948.62L1374.19,7948.65L1375.2,7948.68L1376.21,7948.72L1376.73,7948.74L1377.25,7948.76L1377.77,7948.78L1378.3,7948.81L1378.82,7948.84L1379.34,7948.87L1379.86,7948.9L1380.4,7948.93L1381.45,7949.01L1381.98,7949.05L1382.5,7949.09L1383.04,7949.13L1383.58,7949.17L1384.11,7949.22L1384.63,7949.27L1385.17,7949.31L1385.72,7949.36L1386.25,7949.42L1386.79,7949.47L1387.32,7949.52L1387.86,7949.57L1388.4,7949.63L1388.94,7949.69L1389.49,7949.74L1390.03,7949.81L1391.11,7949.92L1392.19,7950.05L1393.29,7950.17L1394.37,7950.3L1395.46,7950.43L1396.56,7950.56L1397.65,7950.69L1399.84,7950.95L1400.93,7951.08L1402.03,7951.21L1403.12,7951.33L1404.22,7951.46L1405.31,7951.59L1406.4,7951.71L1406.94,7951.77L1407.48,7951.82L1408.58,7951.94L1409.12,7951.99L1409.66,7952.05L1410.2,7952.1L1410.75,7952.16L1411.83,7952.26L1412.36,7952.31L1412.91,7952.36L1413.45,7952.41L1413.98,7952.45L1414.51,7952.49L1415.05,7952.54L1415.59,7952.58L1416.12,7952.62L1416.65,7952.66L1417.18,7952.69L1417.71,7952.73L1418.77,7952.79L1419.29,7952.82L1419.82,7952.85L1420.35,7952.87L1420.86,7952.89L1421.38,7952.91L1421.91,7952.93L1422.43,7952.95L1422.95,7952.96L1423.46,7952.98L1423.96,7952.99L1424.48,7952.99L1424.99,7953L1426.02,7953L1426.51,7953L1427.01,7953L1427.52,7952.99L1428.02,7952.98L1428.51,7952.97L1429.01,7952.95L1429.25,7952.94L1429.49,7952.93L1429.73,7952.92L1430,7952.91L1430.26,7952.9L1430.48,7952.89L1430.71,7952.88L1430.98,7952.86L1431.21,7952.85L1431.45,7952.83L1431.69,7952.82L1431.95,7952.8L1432.19,7952.78L1432.4,7952.77L1432.64,7952.75L1433.15,7952.7L1433.36,7952.69L1433.6,7952.66L1433.86,7952.64L1434.07,7952.62L1434.3,7952.6L1434.55,7952.57L1434.78,7952.54L1435.02,7952.52L1435.25,7952.49L1435.48,7952.46L1435.71,7952.43L1435.94,7952.4L1436.19,7952.37L1436.39,7952.34L1436.62,7952.31L1436.87,7952.28L1437.08,7952.24L1437.3,7952.21L1437.53,7952.17L1437.75,7952.14L1437.85,7952.12L1437.84,7950.86L1437.82,7947.91L1437.79,7944.96L1437.78,7943.48L1437.78,7942.01L1437.77,7940.53L1437.76,7939.05L1437.75,7937.57L1437.75,7936.09L1437.75,7934.61L1437.75,7933.13L1437.75,7931.64L1437.76,7930.16L1437.78,7924.58L1437.8,7919L1437.81,7916.21L1437.82,7913.42L1437.84,7910.64L1437.85,7907.84L1437.87,7905.05L1437.88,7902.26L1437.9,7899.47L1437.92,7896.68L1437.94,7893.89L1437.97,7891.1L1437.99,7888.3L1438.02,7885.51L1438.05,7882.72L1438.08,7879.93L1438.11,7877.13L1438.14,7874.34L1438.18,7871.55L1438.22,7868.76L1438.27,7865.96L1438.31,7863.17L1438.36,7860.37L1438.38,7858.97L1438.41,7857.58L1438.44,7856.18L1438.46,7854.78L1438.49,7853.39L1438.52,7851.99L1438.55,7850.59L1438.58,7849.19L1438.61,7847.8L1438.65,7846.4L1438.68,7845L1438.71,7843.6L1438.75,7842.21L1438.79,7840.81L1438.84,7838.66L1438.9,7836.51L1438.97,7834.36L1439.03,7832.22L1439.1,7830.07L1439.17,7827.92L1439.24,7825.77L1439.31,7823.63L1439.39,7821.48L1439.46,7819.34L1439.54,7817.19L1439.62,7815.05L1439.7,7812.9L1439.78,7810.76L1439.86,7808.61L1439.95,7806.47L1440.03,7804.33L1440.12,7802.18L1440.29,7797.9L1440.46,7793.61L1440.64,7789.33L1440.82,7785.05L1440.99,7780.78L1441.16,7776.5L1441.34,7772.22L1441.42,7770.08L1441.5,7767.94L1441.59,7765.81L1441.67,7763.67L1441.75,7761.53L1441.83,7759.39L1441.9,7757.25L1441.98,7755.12L1442.05,7752.98L1442.13,7750.85L1442.2,7748.71L1442.27,7746.58L1442.33,7744.44L1442.4,7742.3L1442.46,7740.17L1442.52,7738.03L1442.58,7735.9L1442.63,7733.77L1442.68,7731.63L1442.73,7729.5L1442.78,7727.36L1442.8,7726.3L1442.82,7725.23L1442.84,7724.16L1442.86,7723.1L1442.88,7722.03L1442.9,7720.97L1442.91,7719.9L1442.93,7718.83L1442.95,7717.76L1442.96,7716.7L1442.98,7715.63L1442.99,7714.57L1443,7713.5L1443.01,7712.43L1443.02,7711.37L1443.03,7710.3L1443.04,7709.23L1443.05,7708.17L1443.05,7707.1L1443.06,7706.03L1443.06,7704.97L1443.07,7703.9L1443.07,7702.96L1443.07,7701.07L1443.07,7700.13L1443.06,7699.18L1443.06,7698.24L1443.05,7697.3L1443.05,7696.35L1443.04,7695.4L1443.03,7694.46L1443.02,7693.52L1443.01,7692.57L1443,7691.63L1442.98,7690.68L1442.97,7689.74L1442.95,7688.79L1442.94,7687.85L1442.92,7686.9L1442.9,7685.96L1442.88,7685.01L1442.86,7684.07L1442.84,7683.12L1442.82,7682.18L1442.8,7681.23L1442.77,7680.28L1442.75,7679.34L1442.72,7678.39L1442.7,7677.44L1442.67,7676.5L1442.64,7675.56L1442.59,7673.66L1442.53,7671.77L1442.46,7669.87L1442.4,7667.98L1442.33,7666.08L1442.26,7664.19L1442.19,7662.29L1442.12,7660.39L1442.04,7658.5L1441.96,7656.6L1441.89,7654.7L1441.81,7652.81L1441.73,7650.91L1441.65,7649.01L1441.56,7647.11L1441.4,7643.31L1441.07,7635.7L1440.9,7631.9L1440.82,7629.99L1440.74,7628.09L1440.66,7626.18L1440.58,7624.28L1440.5,7622.37L1440.42,7620.47L1440.35,7618.56L1440.28,7616.65L1440.2,7614.74L1440.13,7612.84L1440.07,7610.93L1440,7609.02L1439.94,7607.11L1439.88,7605.2L1439.82,7603.29L1439.8,7602.33L1439.77,7601.37L1439.74,7600.42L1439.72,7599.46L1439.69,7598.5L1439.67,7597.55L1439.64,7596.59L1439.62,7595.63L1439.6,7594.68L1439.58,7593.72L1439.56,7592.76L1439.55,7591.81L1439.53,7590.85L1439.51,7589.89L1439.5,7588.94L1439.48,7587.98L1439.47,7587.02L1439.46,7586.06L1439.45,7585.1L1439.44,7584.14L1439.43,7583.19L1439.42,7582.23L1439.41,7581.29L1439.41,7580.35L1439.41,7579.41L1439.41,7578.48L1439.41,7577.54L1439.42,7576.6L1439.43,7575.67L1439.44,7574.73L1439.45,7573.79L1439.46,7572.86L1439.48,7571.92L1439.49,7570.99L1439.51,7570.05L1439.53,7569.11L1439.55,7568.17L1439.58,7567.24L1439.6,7566.31L1439.63,7565.37L1439.66,7564.43L1439.69,7563.5L1439.72,7562.56L1439.75,7561.63L1439.78,7560.69L1439.82,7559.75L1439.86,7558.82L1439.89,7557.89L1439.93,7556.95L1439.97,7556.02L1440.01,7555.08L1440.05,7554.15L1440.09,7553.21L1440.14,7552.28L1440.18,7551.35L1440.23,7550.41L1440.32,7548.54L1440.41,7546.68L1440.51,7544.82L1440.61,7542.95L1440.71,7541.08L1440.81,7539.22L1440.91,7537.36L1441.12,7533.64L1441.32,7529.92L1441.42,7528.06L1441.52,7526.21L1441.62,7524.35L1441.72,7522.5L1441.81,7520.65L1441.9,7518.79L1441.94,7517.87L1441.99,7516.95L1442.03,7516.02L1442.07,7515.1L1442.11,7514.17L1442.15,7513.25L1442.19,7512.33L1442.23,7511.4L1442.26,7510.48L1442.3,7509.56L1442.33,7508.64L1442.36,7507.72L1442.39,7506.8L1442.42,7505.88L1442.45,7504.96L1442.48,7504.04L1442.51,7503.12L1442.53,7502.2L1442.55,7501.28L1442.57,7500.36L1442.59,7499.44L1442.61,7498.53L1442.62,7497.61L1442.64,7496.69L1442.65,7495.78L1442.66,7494.86L1442.67,7493.95L1442.67,7493.03L1442.68,7492.12L1442.68,7491.2L1442.68,7490.29L1442.68,7489.38L1442.67,7488.47L1442.66,7487.55L1442.65,7486.64L1442.64,7485.73L1442.63,7484.82L1442.61,7483.91L1442.6,7483L1442.57,7482.09L1442.55,7481.18L1442.52,7480.27L1442.5,7479.36L1442.46,7478.46L1442.43,7477.55L1442.39,7476.65L1442.35,7475.74L1442.31,7474.83L1442.27,7473.93L1442.24,7473.48L1442.22,7473.03L1442.19,7472.58L1442.16,7472.12L1442.14,7471.67L1442.11,7471.22L1442.08,7470.77L1442.05,7470.32L1442.02,7469.86L1441.99,7469.41L1441.97,7469.13L1441.87,7469.13L1440.43,7469.03L1439.01,7468.94L1437.58,7468.86L1436.15,7468.78L1434.72,7468.69L1433.3,7468.61L1431.87,7468.54L1430.44,7468.46L1429.01,7468.39L1427.59,7468.32L1426.88,7468.29L1426.16,7468.26L1425.44,7468.23L1424.74,7468.2L1424.03,7468.17L1423.31,7468.14L1422.6,7468.11L1421.88,7468.08L1421.17,7468.06L1420.46,7468.03L1419.02,7467.98L1417.58,7467.93L1416.14,7467.88L1414.7,7467.83L1413.26,7467.78L1411.82,7467.74L1408.93,7467.64L1406.06,7467.55L1403.17,7467.47L1400.29,7467.38L1397.41,7467.3L1394.53,7467.23L1391.64,7467.15L1388.76,7467.08L1385.88,7467.01L1382.99,7466.94L1380.11,7466.88L1377.22,7466.82L1374.34,7466.76L1371.45,7466.7L1368.57,7466.65L1365.68,7466.6L1362.8,7466.55L1359.91,7466.51L1357.03,7466.46L1354.14,7466.42L1351.26,7466.39L1348.37,7466.35L1345.49,7466.32L1342.61,7466.29L1339.72,7466.26L1336.84,7466.23L1333.95,7466.21L1331.07,7466.19L1328.19,7466.17L1325.11,7466.15L1322.02,7466.14L1318.94,7466.12L1315.86,7466.11L1312.77,7466.1L1309.69,7466.09L1306.61,7466.09L1303.52,7466.08L1300.44,7466.08L1297.36,7466.07L1294.27,7466.07L1291.19,7466.08L1288.1,7466.08L1285.02,7466.09L1281.94,7466.09L1278.85,7466.1L1275.77,7466.11L1272.68,7466.12L1269.6,7466.13L1266.51,7466.15L1263.43,7466.16L1260.35,7466.18L1257.26,7466.2L1254.17,7466.22L1251.09,7466.24L1248.01,7466.26L1244.92,7466.28L1241.84,7466.31L1238.75,7466.33L1235.66,7466.36L1232.58,7466.39L1229.5,7466.42L1226.41,7466.45L1223.32,7466.48L1220.24,7466.51L1217.15,7466.54L1214.07,7466.58L1210.98,7466.61L1207.89,7466.65L1204.81,7466.69L1201.72,7466.73L1198.64,7466.76L1195.55,7466.81L1192.46,7466.84L1189.38,7466.89L1186.29,7466.93L1180.12,7467.01L1173.95,7467.1L1167.77,7467.2L1161.6,7467.29L1155.43,7467.39L1149.25,7467.48L1143.08,7467.58L1136.91,7467.68L1130.73,7467.79L1124.56,7467.89L1118.38,7467.99L1106.03,7468.2L1093.68,7468.42L1081.33,7468.63L1075.16,7468.73L1068.98,7468.84L1062.81,7468.94L1056.63,7469.04L1050.45,7469.14L1044.28,7469.24L1038.1,7469.34L1031.92,7469.43L1025.75,7469.52L1019.57,7469.61L1013.39,7469.7L1010.31,7469.74L1007.22,7469.79L1004.13,7469.83L1001.04,7469.87L997.953,7469.91L994.864,7469.95L991.775,7469.98L988.687,7470.02L985.598,7470.06L982.512,7470.09L979.423,7470.13L976.332,7470.16L973.244,7470.19L970.156,7470.22L967.068,7470.25L963.979,7470.28L960.891,7470.31L957.802,7470.34L954.713,7470.36L951.625,7470.38L948.536,7470.41L945.446,7470.43L942.358,7470.45L939.271,7470.47L936.181,7470.49L933.092,7470.5L930.675,7470.51L928.255,7470.52L925.836,7470.53L923.416,7470.54L920.998,7470.55L918.581,7470.56L916.163,7470.57L913.742,7470.57L908.908,7470.58L904.073,7470.59L899.237,7470.6L894.402,7470.6L889.566,7470.6L884.733,7470.6L879.899,7470.59L875.066,7470.58L870.233,7470.57L865.401,7470.56L860.569,7470.55L855.737,7470.54L850.904,7470.52L846.073,7470.51L841.244,7470.49L836.412,7470.47L831.582,7470.45L826.752,7470.43L817.092,7470.38L807.434,7470.34L797.777,7470.29L788.121,7470.24L778.464,7470.2L768.81,7470.15L763.984,7470.14L759.155,7470.12L754.328,7470.1L749.502,7470.08L744.675,7470.06L739.847,7470.05L735.021,7470.03L730.194,7470.02L725.368,7470.01L720.542,7470L715.717,7470L710.89,7469.99L706.063,7469.99L701.237,7469.99L696.41,7469.99L691.585,7470L686.757,7470.01L681.933,7470.02L679.521,7470.03L674.691,7470.04L672.279,7470.05L669.869,7470.06L667.453,7470.07L665.04,7470.08L662.627,7470.09L660.211,7470.11L657.801,7470.12L655.389,7470.13L652.975,7470.15L650.562,7470.17L648.146,7470.19L645.733,7470.2L643.319,7470.22L640.907,7470.24L638.495,7470.26L636.082,7470.29L633.668,7470.31L631.255,7470.34L628.838,7470.36L626.426,7470.39L624.012,7470.41L622.943,7470.43L621.873,7470.44L620.803,7470.45L619.733,7470.46L618.663,7470.47L617.599,7470.47L616.529,7470.48L615.457,7470.49L613.325,7470.5L611.192,7470.51L609.059,7470.51L606.925,7470.51L604.794,7470.51L602.665,7470.51L600.539,7470.51L598.41,7470.5L596.282,7470.49L594.157,7470.49L592.029,7470.48L589.905,7470.47L585.662,7470.44L581.42,7470.42L577.182,7470.39L572.945,7470.37L570.828,7470.36L568.712,7470.34L566.596,7470.33L564.482,7470.32L562.369,7470.32L560.254,7470.31L558.14,7470.3L556.03,7470.3L551.805,7470.3L549.697,7470.3L547.585,7470.31L545.475,7470.32L543.363,7470.33L542.31,7470.34L541.256,7470.34L540.203,7470.35L539.15,7470.36L538.091,7470.37L537.038,7470.38L535.99,7470.39L534.93,7470.4L533.877,7470.42L532.829,7470.43L531.77,7470.45L530.716,7470.46L529.662,7470.48L528.609,7470.5L527.561,7470.52L526.507,7470.54L525.452,7470.56L524.398,7470.58L523.344,7470.61L522.29,7470.63L521.236,7470.66L520.187,7470.69L519.133,7470.71L518.079,7470.74L517.029,7470.77L515.974,7470.81L514.92,7470.84L513.87,7470.88L512.815,7470.91L511.766,7470.95L510.711,7470.99L509.656,7471.03L508.606,7471.07L507.556,7471.11L506.501,7471.16L505.444,7471.2L504.4,7471.25L503.345,7471.3L502.288,7471.35L501.237,7471.41L500.186,7471.46L499.136,7471.52L498.079,7471.57L497.028,7471.63L495.976,7471.69L494.919,7471.76L493.868,7471.82L492.816,7471.89L491.764,7471.95L490.712,7472.02L489.66,7472.09L488.603,7472.17L486.28,7471.87L486.082,7471.76L486.092,7472.09L486.15,7473.95L486.21,7475.8L486.27,7477.66L486.332,7479.52L486.394,7481.38L486.522,7485.1L486.651,7488.82L486.781,7492.54L486.911,7496.27L487.041,7499.99L487.169,7503.72L487.233,7505.59L487.296,7507.46L487.357,7509.32L487.418,7511.19L487.478,7513.06L487.536,7514.92L487.594,7516.79L487.65,7518.66L487.705,7520.53L487.758,7522.4L487.809,7524.27L487.858,7526.13L487.905,7528L487.95,7529.88L487.993,7531.74L488.034,7533.62L488.072,7535.49L488.108,7537.36L488.141,7539.23L488.171,7541.1L488.199,7542.97L488.212,7543.91L488.235,7545.78L488.255,7547.66L488.264,7548.59L488.271,7549.53L488.278,7550.47L488.29,7552.34L488.294,7553.28L488.298,7554.21L488.301,7555.15L488.303,7557.03L488.303,7557.96L488.302,7558.9L488.3,7559.84L488.296,7560.78L488.292,7561.71L488.287,7562.65L488.28,7563.59L488.273,7564.52L488.265,7565.46L488.256,7566.4L488.245,7567.34L488.233,7568.28L488.22,7569.21L488.206,7570.15L488.192,7571.09L488.175,7572.03L488.157,7572.96L488.139,7573.9L488.119,7574.84L488.098,7575.78L488.075,7576.72L488.052,7577.65L488.027,7578.59L488.001,7579.53L487.973,7580.47L487.945,7581.4L487.915,7582.34L487.879,7583.39L487.843,7584.44L487.805,7585.49L487.765,7586.54L487.725,7587.58L487.684,7588.63L487.64,7589.68L487.596,7590.73L487.55,7591.78L487.504,7592.82L487.456,7593.87L487.408,7594.91L487.357,7595.96L487.306,7597.01L487.254,7598.06L487.2,7599.11L487.146,7600.15L487.091,7601.2L487.035,7602.24L486.978,7603.29L486.92,7604.34L486.862,7605.38L486.803,7606.43L486.742,7607.47L486.681,7608.51L486.619,7609.56L486.494,7611.65L486.366,7613.74L486.234,7615.83L486.102,7617.91L485.967,7620L485.83,7622.09L485.691,7624.18L485.551,7626.26L485.41,7628.34L485.268,7630.43L485.126,7632.51L484.838,7636.68L484.551,7640.84L484.265,7645L484.123,7647.08L483.981,7649.16L483.841,7651.24L483.703,7653.32L483.565,7655.39L483.43,7657.47L483.297,7659.54L483.166,7661.62L483.037,7663.7L482.91,7665.77L482.787,7667.84L482.726,7668.88L482.667,7669.92L482.608,7670.95L482.549,7671.99L482.492,7673.03L482.436,7674.06L482.38,7675.1L482.325,7676.13L482.272,7677.17L482.219,7678.2L482.168,7679.24L482.117,7680.28L482.068,7681.31L482.019,7682.35L481.971,7683.38L481.925,7684.41L481.88,7685.45L481.837,7686.48L481.794,7687.52L481.752,7688.55L481.713,7689.58L481.674,7690.62L481.636,7691.65L481.6,7692.69L481.565,7693.72L481.532,7694.75L481.5,7695.79L481.469,7696.82L481.44,7697.85L481.413,7698.88L481.387,7699.91L481.363,7700.95L481.34,7701.98L481.318,7703.01L481.299,7704.04L481.281,7705.07L481.264,7706.11L481.25,7707.14L481.237,7708.17L481.226,7709.2L481.217,7710.23L481.209,7711.26L481.203,7712.29L481.199,7713.32L481.197,7714.35L481.197,7715.38L481.2,7716.32L481.204,7717.25L481.211,7718.19L481.22,7719.12L481.232,7720.05L481.245,7720.99L481.261,7721.92L481.279,7722.86L481.299,7723.79L481.321,7724.73L481.347,7725.66L481.373,7726.6L481.401,7727.53L481.432,7728.47L481.464,7729.4L481.499,7730.34L481.535,7731.28L481.573,7732.21L481.614,7733.15L481.655,7734.08L481.698,7735.02L481.744,7735.95L481.79,7736.89L481.839,7737.82L481.89,7738.76L481.941,7739.7L481.995,7740.64L482.049,7741.57L482.106,7742.51L482.163,7743.45L482.223,7744.38L482.283,7745.32L482.345,7746.26L482.409,7747.19L482.474,7748.13L482.54,7749.07L482.607,7750.01L482.674,7750.95L482.744,7751.89L482.815,7752.82L482.887,7753.76L482.959,7754.7L483.033,7755.64L483.108,7756.58L483.26,7758.46L483.337,7759.4L483.494,7761.28L483.575,7762.22L483.736,7764.1L483.902,7765.98L484.068,7767.87L484.237,7769.75L484.409,7771.63L484.582,7773.52L484.931,7777.29L485.108,7779.18L485.815,7786.73L485.991,7788.62L486.166,7790.52L486.34,7792.41L486.513,7794.31L486.684,7796.2L486.853,7798.1L487.019,7799.99L487.183,7801.89L487.265,7802.84L487.345,7803.79L487.425,7804.74L487.503,7805.69L487.658,7807.59L487.81,7809.5L487.957,7811.4L488.029,7812.35L488.1,7813.31L488.17,7814.26L488.239,7815.21L488.307,7816.16L488.373,7817.12L488.438,7818.07L488.502,7819.03L488.564,7819.98L488.625,7820.93L488.685,7821.89L488.743,7822.85L488.8,7823.8L488.855,7824.75L488.909,7825.71L488.96,7826.67L489.012,7827.62L489.06,7828.58L489.107,7829.54L489.153,7830.5L489.196,7831.46L489.238,7832.41L489.278,7833.37L489.316,7834.33L489.352,7835.29L489.387,7836.25L489.411,7836.98L489.435,7837.69L489.456,7838.42L489.477,7839.14L489.515,7840.58L489.532,7841.3L489.548,7842.02L489.563,7842.74L489.577,7843.47L489.589,7844.19L489.601,7844.91L489.612,7845.63L489.622,7846.35L489.631,7847.07L489.638,7847.79L489.644,7848.51L489.65,7849.23L489.655,7849.95L489.658,7850.67L489.661,7851.38L489.664,7852.1L489.665,7852.83L489.665,7854.26L489.663,7854.98L489.661,7855.69L489.659,7856.41L489.651,7857.86L489.641,7859.29L489.627,7860.73L489.611,7862.16L489.593,7863.59L489.573,7865.03L489.55,7866.46L489.526,7867.89L489.499,7869.32L489.471,7870.76L489.441,7872.18L489.411,7873.61L489.378,7875.05L489.345,7876.47L489.312,7877.9L489.277,7879.33L489.205,7882.18L489.06,7887.88L488.988,7890.73L488.918,7893.57L488.884,7895L488.851,7896.42L488.82,7897.84L488.789,7899.26L488.761,7900.67L488.732,7902.09L488.707,7903.51L488.683,7904.93L488.661,7906.34L488.641,7907.76L488.624,7909.17L488.608,7910.59L488.596,7912L488.585,7913.41L488.578,7914.83L488.575,7915.53L488.573,7916.24L488.572,7916.94L488.572,7917.65L488.574,7919.06L488.58,7920.47L488.584,7921.18L488.589,7921.88L488.595,7922.58L488.601,7923.29L488.609,7923.99L488.618,7924.7L488.627,7925.4L488.638,7926.1L488.65,7926.8L488.663,7927.52L488.669,7927.88L488.671,7928.26L488.672,7928.65L488.671,7929.06L488.668,7929.48L488.664,7929.92L488.658,7930.38L488.65,7930.85L488.64,7931.34L488.63,7931.83L488.619,7932.33L488.605,7932.86L488.576,7933.93L488.543,7935.03L488.508,7936.17L488.471,7937.34L488.39,7939.73L488.31,7942.15L488.271,7943.35L488.234,7944.54L488.2,7945.71L488.168,7946.86L488.153,7947.41L488.14,7947.97L488.128,7948.5L488.117,7949.04L488.107,7949.55L488.099,7950.05L488.091,7950.55L488.086,7951.02L488.082,7951.47L488.082,7951.57L488.161,7951.57L488.32,7951.57L488.51,7951.56L488.703,7951.55L488.896,7951.54L489.092,7951.53L489.292,7951.52L489.518,7951.51L489.72,7951.5L490.128,7951.48L490.556,7951.45L491,7951.41L491.436,7951.38L491.876,7951.35L492.33,7951.31L492.785,7951.27L493.242,7951.22L493.698,7951.18L494.154,7951.13L494.621,7951.08L495.097,7951.03L495.559,7950.98L496.005,7950.93L496.471,7950.88L496.931,7950.83L497.83,7950.72L498.721,7950.61L499.578,7950.51L500.41,7950.41L501.213,7950.31L501.983,7950.22L502.7,7950.13L503.049,7950.09L503.39,7950.05L503.718,7950.02L504.031,7949.99L504.33,7949.95L504.615,7949.93L504.913,7949.9L505.197,7949.88L505.485,7949.86L505.648,7949.85L505.746,7949.85L510.302,7949.67L514.844,7949.49L519.386,7949.32L521.661,7949.23L523.934,7949.14L526.208,7949.06L528.485,7948.97L530.759,7948.89L533.036,7948.81L535.315,7948.73L537.594,7948.65L539.872,7948.58L542.151,7948.51L543.295,7948.47L544.431,7948.44L545.572,7948.41L546.713,7948.38L547.849,7948.35L548.991,7948.31L550.137,7948.28L551.278,7948.26L552.42,7948.23L553.56,7948.2L554.696,7948.18L555.843,7948.15L556.989,7948.13L558.125,7948.11L559.267,7948.09L560.413,7948.07L561.555,7948.05L562.696,7948.03L563.842,7948.02L564.984,7948L566.124,7947.99L567.272,7947.98L568.412,7947.97L569.553,7947.96L570.7,7947.95L571.846,7947.95L572.993,7947.94L574.134,7947.94L575.275,7947.94L576.422,7947.94L577.568,7947.94L578.709,7947.94L583.21,7947.96L587.708,7947.97L592.205,7947.99L596.705,7948L601.202,7948.01L605.701,7948.02L614.7,7948.03L619.198,7948.03L628.199,7948.03L632.699,7948.04L641.7,7948.03L650.702,7948.03L659.704,7948.03L668.708,7948.02L677.712,7948.02L686.716,7948.02L695.721,7948.01L704.727,7948.01L713.734,7948.02ZM1446.67,7469.4L1446.72,7469.4L1446.67,7469.4L1446.67,7469.4Z"/>
                </g>
                <g transform="matrix(1,0,0,1,4269.01,-16496.3)">
                    <text x="2363.08px" y="16783.7px" style="font-family:'Boogaloo-Regular', 'Boogaloo', cursive;font-size:86.183px;">W<tspan x="2417.12px " y="16783.7px ">e</tspan>b Component</text>
                </g>
            </g>
            <g>
                <g transform="matrix(1,0,0,1,1852.53,-16332.3)">
                    <path d="M4481.91,16479.8C4582.91,16527.1 4615.35,16660.2 4633.52,16760.9" style="fill:none;stroke:rgb(45,135,180);stroke-width:9px;"/>
                </g>
                <g transform="matrix(1,0,0,1,1852.53,-16332.3)">
                    <path d="M4609.37,16742C4609.03,16741.7 4607.62,16738.9 4606.92,16739.6C4605.93,16740.6 4634.22,16763.3 4634.53,16763C4634.99,16762.5 4642.66,16743.3 4646.76,16737.1C4648.42,16734.6 4656.4,16724.4 4654.44,16726.3" style="fill:none;stroke:rgb(45,135,180);stroke-width:9px;"/>
                </g>
            </g>
            <g>
                <g transform="matrix(1,0,0,1,1852.53,-16332.3)">
                    <path d="M4494,16618C4540.96,16641.1 4557.34,16712.5 4570.57,16759.4" style="fill:none;stroke:rgb(45,135,180);stroke-width:9px;"/>
                </g>
                <g transform="matrix(1,0,0,1,1852.53,-16332.3)">
                    <path d="M4545.62,16744.9C4544.74,16744.9 4547.71,16746.6 4548.62,16747.3C4550.78,16748.9 4571.39,16767.1 4572.79,16767.1C4572.87,16767.1 4572.47,16766.7 4572.49,16766.6C4572.73,16766.1 4575.91,16755.6 4576,16755C4576.25,16753.5 4579.74,16738.9 4581.04,16736.3C4581.47,16735.5 4582.22,16732.9 4581.94,16733.2" style="fill:none;stroke:rgb(45,135,180);stroke-width:9px;"/>
                </g>
            </g>
            <g transform="matrix(1,0,0,1,-54.875,0)">
                <g transform="matrix(1,0,0,1,1834.44,-16321.5)">
                    <path d="M4814.42,16517.2C4852.41,16586.4 4860.37,16680.6 4856.58,16758.6" style="fill:none;stroke:rgb(45,135,180);stroke-width:9px;"/>
                </g>
                <g transform="matrix(1,0,0,1,1834.44,-16321.5)">
                    <path d="M4841.02,16739.8C4840.22,16740.6 4843.69,16744.8 4844.39,16745.9C4846.35,16749.1 4848.35,16752.1 4850.19,16755.3C4851.9,16758.3 4852.65,16761.8 4855.05,16764.3C4855.26,16764.5 4858.37,16758.4 4858.61,16757.9C4860.65,16753.8 4862.74,16749.8 4864.78,16745.7C4865.92,16743.5 4870.02,16737.3 4870.02,16737.1" style="fill:none;stroke:rgb(45,135,180);stroke-width:9px;"/>
                </g>
            </g>
            <g transform="matrix(1,0,0,1,-41.9375,0)">
                <g transform="matrix(1,0,0,1,1834.44,-16321.5)">
                    <path d="M4890.05,16760.9C4893.08,16690.2 4889.07,16583.9 4856.88,16520.7" style="fill:none;stroke:rgb(103,127,98);stroke-width:9px;"/>
                </g>
                <g transform="matrix(1,0,0,1,1834.44,-16321.5)">
                    <path d="M4855.88,16520.3C4855.42,16520.3 4854.89,16519.1 4854.67,16519.4C4853.3,16520.7 4852.87,16535.9 4852.87,16538.9C4852.87,16540.9 4850.9,16549.5 4851.97,16547.3" style="fill:none;stroke:rgb(103,127,98);stroke-width:9px;"/>
                </g>
                <g transform="matrix(1,0,0,1,1834.44,-16321.5)">
                    <path d="M4856.4,16517.1C4856.31,16517.1 4859.16,16519.6 4860.34,16520.2C4863.59,16521.8 4867.26,16523.1 4870.11,16525.5C4873.43,16528.3 4876.17,16531.7 4879.25,16534.8C4880.26,16535.8 4881.33,16536.7 4882.3,16537.7C4882.62,16538 4883.82,16539.4 4883.82,16539.3" style="fill:none;stroke:rgb(103,127,98);stroke-width:9px;"/>
                </g>
            </g>
            <g transform="matrix(1,0,0,1,3547.35,-16613.9)">
                <text x="2447.75px" y="16783.7px" style="font-family:'Boogaloo-Regular', 'Boogaloo', cursive;font-size:86.183px;">Attributes</text>
            </g>
            <g transform="matrix(1,0,0,1,4018.02,-16614)">
                <text x="2474.68px" y="16783.7px" style="font-family:'Boogaloo-Regular', 'Boogaloo', cursive;font-size:86.183px;">Methods</text>
            </g>
            <g transform="matrix(1,0,0,1,3556.53,-16470)">
                <text x="2449.05px" y="16783.7px" style="font-family:'Boogaloo-Regular', 'Boogaloo', cursive;font-size:86.183px;">Properties</text>
            </g>
        </g>
    </g>
</svg>
